<svg width="1375" height="1601" viewBox="0 0 1375 1601" fill="none" xmlns="http://www.w3.org/2000/svg">
<path fill-rule="evenodd" clip-rule="evenodd" d="M98.4757 0H190.661C195.279 4.54614 199.763 9.44198 203.888 15.0372C204.201 15.4452 311.452 22.789 326.696 0H510.887C520.482 10.7825 540.524 25.4118 552.899 8.62601C591.145 19.5834 613.474 12.939 628.853 0H717.406C720.231 6.64436 725.342 13.347 733.951 19.8165C781.792 -16.0863 805.287 25.4118 805.601 25.4118C807.932 15.9698 810.084 7.34376 812.057 0H1243.66C1240.7 52.0475 1253.25 3.20561 1303.38 6.00324C1303.38 6.00324 1303.7 5.59525 1304.37 5.12898C1344.59 20.8073 1374.04 69.4744 1374.04 126.476V569.375C1347.9 620.548 1329.52 691.771 1331.67 696.317C1407.45 853.159 1320.6 813.118 1374.04 930.152V1105.94C1316.79 1161.43 1238.37 1246 1275.27 1259.99C1371.09 1296.12 1285.04 1300.44 1374.04 1325.79V1474.29C1374.04 1544 1330.19 1601 1276.75 1601H707.632C693.912 1562.94 667.592 1527.45 652.348 1541.43C635.803 1556.94 634.323 1538.64 626.028 1549.83C581.012 1610.73 549.761 1571.1 503.892 1579.09C432.557 1591.32 443.138 1591.56 443.497 1601H98.4757C44.8505 1601 0.999915 1544 0.999915 1474.29V1467.41C37.5869 1444.8 7.94966 1427.84 7.77031 1424.81C7.2771 1416.65 4.81106 1411.69 0.999915 1408.9V1303.29L6.78389 1300.9C25.6603 1293.79 30.2785 1260.04 27.947 1257.48C12.7024 1239.82 14.1664 1198.16 14.0475 1197.91C7.77031 1184.86 7.77031 1196.56 7.77031 1176.17C5.30427 1175.29 2.97275 1174.65 0.999915 1173.78V860.444C45.1644 824.075 39.0666 762.12 39.0666 714.618C-15.2311 657.617 45.3438 591.989 30.2785 579.516C-10.2542 545.537 52.966 540.991 36.5557 511.732C-37.7393 379.894 67.8071 501.416 48.1237 426.987C29.606 422.033 55.7459 385.664 56.0598 385.256C66.1481 375.989 48.6169 324.175 0.955078 298.763V126.476C0.999915 56.7685 44.8505 0 98.4757 0Z" fill="#FFD8A8"/>
</svg>
