<svg width="1673" height="1865" viewBox="0 0 1673 1865" fill="none" xmlns="http://www.w3.org/2000/svg">
<path fill-rule="evenodd" clip-rule="evenodd" d="M118.821 0H231.141C236.768 5.29578 242.231 10.9989 247.257 17.5168C247.639 17.9921 378.315 26.5468 396.89 0H621.311C633.002 12.5605 657.422 29.6021 672.5 10.0484C719.099 22.8126 746.305 15.0726 765.043 0H872.938C876.38 7.73999 882.608 15.5479 893.097 23.0842C951.388 -18.7389 980.014 29.6021 980.396 29.6021C983.237 18.6031 985.859 8.55473 988.263 0H1514.13C1510.53 60.6299 1525.83 3.73421 1586.9 6.99315C1586.9 6.99315 1587.29 6.51789 1588.1 5.97473C1637.11 24.2384 1673 80.9305 1673 147.331V663.263C1641.15 722.875 1618.75 805.842 1621.37 811.138C1713.7 993.842 1607.88 947.198 1673 1083.53V1288.31C1603.24 1352.94 1507.69 1451.46 1552.65 1467.75C1669.39 1509.85 1564.56 1514.87 1673 1544.41V1717.4C1673 1798.6 1619.57 1865 1554.45 1865H861.029C844.312 1820.66 812.244 1779.32 793.67 1795.61C773.511 1813.67 771.708 1792.35 761.602 1805.39C706.753 1876.34 668.676 1830.17 612.789 1839.47C525.872 1853.73 538.765 1854 539.202 1865H118.821C53.4831 1865 0.0546304 1798.6 0.0546304 1717.4V1709.39C44.633 1683.04 8.52234 1663.28 8.30381 1659.75C7.70288 1650.25 4.69821 1644.48 0.0546304 1641.22V1518.19L7.10195 1515.41C30.1013 1507.13 35.7283 1467.82 32.8875 1464.83C14.3132 1444.26 16.0969 1395.73 15.9521 1395.44C8.30381 1380.24 8.30381 1393.87 8.30381 1370.12C5.29914 1369.1 2.45837 1368.35 0.0546304 1367.33V1002.33C53.8655 959.963 46.4358 887.791 46.4358 832.457C-19.7216 766.056 54.0841 689.606 35.7283 675.077C-13.6576 635.494 63.3712 630.198 43.3765 596.115C-47.146 442.537 81.4539 584.098 57.4711 497.396C34.9088 491.625 66.7583 449.259 67.1407 448.784C79.4325 437.988 58.0721 377.63 0 348.028V147.331C0.0546304 66.1294 53.4831 0 118.821 0Z" fill="#FFD8A8"/>
</svg>
