<svg width="1497" height="1865" viewBox="0 0 1497 1865" fill="none" xmlns="http://www.w3.org/2000/svg">
<path fill-rule="evenodd" clip-rule="evenodd" d="M106.321 0H206.825C211.86 5.29578 216.748 10.9989 221.245 17.5168C221.588 17.9921 338.516 26.5468 355.137 0H555.949C566.41 12.5605 588.261 29.6021 601.753 10.0484C643.45 22.8126 667.794 15.0726 684.561 0H781.105C784.185 7.73999 789.757 15.5479 799.143 23.0842C851.301 -18.7389 876.916 29.6021 877.258 29.6021C879.8 18.6031 882.147 8.55473 884.298 0H1354.85C1351.62 60.6299 1365.31 3.73421 1419.96 6.99315C1419.96 6.99315 1420.3 6.51789 1421.04 5.97473C1464.88 24.2384 1497 80.9305 1497 147.331V663.263C1468.5 722.875 1448.46 805.842 1450.81 811.138C1533.42 993.842 1438.73 947.198 1497 1083.53V1288.31C1434.58 1352.94 1349.08 1451.46 1389.31 1467.75C1493.77 1509.85 1399.97 1514.87 1497 1544.41V1717.4C1497 1798.6 1449.19 1865 1390.92 1865H770.449C755.49 1820.66 726.796 1779.32 710.175 1795.61C692.138 1813.67 690.524 1792.35 681.481 1805.39C632.402 1876.34 598.331 1830.17 548.323 1839.47C470.55 1853.73 482.086 1854 482.477 1865H106.321C47.8567 1865 0.0488832 1798.6 0.0488832 1717.4V1709.39C39.9376 1683.04 7.62578 1663.28 7.43025 1659.75C6.89253 1650.25 4.20396 1644.48 0.0488832 1641.22V1518.19L6.35482 1515.41C26.9347 1507.13 31.9696 1467.82 29.4277 1464.83C12.8074 1444.26 14.4035 1395.73 14.2739 1395.44C7.43025 1380.24 7.43025 1393.87 7.43025 1370.12C4.74167 1369.1 2.19975 1368.35 0.0488832 1367.33V1002.33C48.1989 959.963 41.5507 887.791 41.5507 832.457C-17.6468 766.056 48.3944 689.606 31.9696 675.077C-12.2208 635.494 56.7045 630.198 38.8133 596.115C-42.1862 442.537 72.8849 584.098 51.4252 497.396C31.2364 491.625 59.7353 449.259 60.0775 448.784C71.0762 437.988 51.9629 377.63 0 348.028V147.331C0.0488832 66.1294 47.8567 0 106.321 0Z" fill="#FFD8A8"/>
</svg>
