<svg width="371" height="349" viewBox="0 0 371 349" fill="none" xmlns="http://www.w3.org/2000/svg">
<g style="mix-blend-mode:multiply">
<path d="M25.4277 303.136C21.7159 302.991 17.9996 302.957 14.2809 303.058C12.3871 303.12 10.4932 303.218 8.604 303.397C6.71475 303.582 4.82321 303.813 2.96158 304.317C2.72916 304.377 2.49675 304.446 2.26663 304.528C2.03422 304.601 1.8064 304.686 1.57859 304.787C1.11836 304.972 0.685743 305.217 0.26003 305.577C0.154177 305.687 0.0046023 305.852 0 306.133C0.0046023 306.424 0.181791 306.594 0.299149 306.697C0.556878 306.898 0.798499 306.99 1.03782 307.079C1.51876 307.249 1.99049 307.352 2.46453 307.448C4.35838 307.803 6.25222 307.965 8.14377 308.117C11.9315 308.396 15.7192 308.529 19.5068 308.627C27.0822 308.792 34.6553 308.765 42.2261 308.669C49.7969 308.568 57.3677 308.348 64.9361 308.041C68.7215 307.892 72.5069 307.684 76.2785 307.494L87.6048 306.946C95.1548 306.614 102.71 306.344 110.253 306.25C114.024 306.214 117.796 306.2 121.549 306.312C123.424 306.369 125.298 306.459 127.145 306.619C128.068 306.701 128.989 306.802 129.881 306.944C130.763 307.086 131.669 307.269 132.355 307.546L132.362 307.551C132.086 307.723 131.734 307.897 131.359 308.05C130.963 308.215 130.54 308.362 130.114 308.504C128.388 309.056 126.568 309.482 124.743 309.869C121.082 310.633 117.363 311.236 113.635 311.783C106.18 312.885 98.6779 313.762 91.1646 314.529C83.6514 315.296 76.1243 315.933 68.5927 316.455C64.828 316.716 61.061 316.94 57.2963 317.092C55.414 317.167 53.5362 317.22 51.6585 317.236C49.744 317.252 47.834 317.328 45.9263 317.453C42.1133 317.712 38.3164 318.152 34.5495 318.862C32.6671 319.224 30.7894 319.647 28.9301 320.225C28.0004 320.518 27.0753 320.845 26.1549 321.271C25.6969 321.489 25.239 321.731 24.7857 322.038C24.3393 322.354 23.8652 322.709 23.497 323.371C23.4027 323.525 23.3406 323.738 23.283 323.93C23.2508 324.145 23.2163 324.367 23.2554 324.585C23.2715 324.812 23.3452 325.002 23.4188 325.194C23.5016 325.366 23.5983 325.535 23.7041 325.673C24.1299 326.218 24.6039 326.534 25.0618 326.811C25.9869 327.342 26.9142 327.686 27.8462 327.995C29.7078 328.6 31.581 329.016 33.4587 329.38C37.2119 330.102 40.9835 330.585 44.7505 331.011C52.2867 331.858 59.8391 332.438 67.38 333.024C71.1515 333.31 74.9185 333.603 78.6786 333.97C82.4341 334.345 86.1873 334.774 89.8898 335.465C91.7399 335.811 93.5785 336.228 95.3688 336.787C97.1545 337.348 98.9126 338.053 100.436 339.12C101.188 339.656 101.89 340.288 102.387 341.065C102.887 341.836 103.211 342.73 103.259 343.657C103.319 344.585 103.165 345.519 102.889 346.414C102.613 347.31 102.219 348.171 101.773 349C102.245 348.185 102.666 347.337 102.974 346.442C103.28 345.549 103.471 344.605 103.441 343.648C103.423 342.691 103.115 341.743 102.617 340.92C102.12 340.091 101.412 339.411 100.65 338.83C99.1036 337.682 97.3202 336.926 95.523 336.313C93.7189 335.704 91.8711 335.236 90.0141 334.842C86.2954 334.055 82.5353 333.535 78.7752 333.07C75.0129 332.612 71.2459 332.229 67.4812 331.854C59.9495 331.123 52.4225 330.427 44.9391 329.451C41.1975 328.957 37.465 328.439 33.7993 327.683C31.9699 327.306 30.1497 326.873 28.4215 326.289C27.5655 325.993 26.7163 325.657 26.0076 325.235C25.6601 325.027 25.3518 324.777 25.2022 324.573C25.1654 324.523 25.1493 324.482 25.1263 324.445C25.1263 324.415 25.1009 324.388 25.1124 324.377C25.0986 324.361 25.1216 324.347 25.1124 324.331C25.1355 324.306 25.1216 324.283 25.1585 324.237C25.2459 324.067 25.5244 323.804 25.8534 323.591C26.1848 323.373 26.5668 323.174 26.9626 322.991C27.7634 322.631 28.6263 322.334 29.503 322.07C31.2611 321.548 33.0859 321.159 34.9199 320.829C38.5926 320.176 42.325 319.764 46.0621 319.54C47.9306 319.43 49.8015 319.37 51.67 319.368C53.5754 319.368 55.4807 319.327 57.3769 319.265C61.1738 319.141 64.9614 318.942 68.7445 318.708C76.3107 318.234 83.8608 317.591 91.404 316.849C98.9448 316.095 106.476 315.239 113.99 314.142C117.745 313.579 121.496 312.965 125.238 312.172C127.111 311.769 128.977 311.334 130.853 310.727C131.322 310.569 131.794 310.404 132.268 310.208C132.744 310.011 133.225 309.784 133.734 309.452C133.867 309.353 133.991 309.269 134.127 309.154C134.267 309.014 134.41 308.898 134.532 308.726C134.755 308.453 135.077 307.899 134.983 307.201C134.875 306.504 134.422 306.076 134.139 305.872C133.975 305.742 133.839 305.678 133.685 305.584L133.266 305.387C132.194 304.961 131.225 304.801 130.245 304.636C129.272 304.484 128.307 304.381 127.348 304.299C125.429 304.136 123.521 304.052 121.616 303.997C117.807 303.894 114.01 303.907 110.216 303.981C95.0536 304.288 79.9258 305.254 64.8441 306.172C57.2986 306.578 49.7439 306.862 42.1893 307.095C34.6346 307.324 27.0753 307.469 19.5184 307.448C15.7422 307.441 11.9637 307.398 8.199 307.207C6.32126 307.102 4.43201 306.983 2.6003 306.685C2.14467 306.605 1.69134 306.516 1.27484 306.378C1.07003 306.312 0.867533 306.225 0.750175 306.136C0.734067 306.122 0.722561 306.113 0.715657 306.104C0.724862 306.09 0.734067 306.076 0.754777 306.056C1.04472 305.806 1.43132 305.554 1.84552 305.382C2.04802 305.284 2.25973 305.201 2.47834 305.126C2.69235 305.043 2.91095 304.972 3.13417 304.908C4.91295 304.381 6.78609 304.102 8.65232 303.875C10.5232 303.651 12.4078 303.513 14.2924 303.401C17.9973 303.184 21.7136 303.101 25.4277 303.126C25.4806 303.126 25.5313 303.126 25.5842 303.126C25.598 303.126 25.6141 303.126 25.6279 303.126C25.6141 303.126 25.6003 303.126 25.5842 303.126C25.529 303.126 25.4737 303.124 25.4208 303.122L25.4277 303.136Z" fill="#5B5962"/>
</g>
<g clip-path="url(#clip0_71_123)">
<path d="M101.981 183.608C109.877 188.112 165.92 117.215 179.233 102.941C192.048 89.2096 225.999 65.0085 255.753 55.7955C266.425 50.524 278.03 45.9566 290.694 42.4015L290.801 42.7487C290.655 42.7976 276.337 47.5557 256.529 58.8469C255.216 59.5951 253.859 60.3873 252.463 61.2186C238.477 74.6126 206.586 105.689 193.478 122.849C176.441 145.138 140.529 187.026 136.195 194.156C131.862 201.296 162.313 195.085 169.014 190.122C170.517 189.012 174.084 187.295 178.711 185.3C178.223 185.325 177.71 185.339 177.164 185.339C173.377 185.339 169.355 184.723 169.311 184.723C169.136 184.694 169.009 184.547 169.009 184.376C168.999 184.195 169.126 184.043 169.292 184.004C169.438 183.975 183.351 180.972 190.237 176.811C195.547 173.603 200.978 168.116 203.228 165.735C195.962 168.312 183.922 168.6 178.833 168.6C177.808 168.6 177.207 168.596 177.207 168.596C177.022 168.586 176.866 168.444 176.861 168.253C176.846 168.067 176.978 167.896 177.164 167.872C187.299 166.336 210.041 157.627 214.594 154.791C218.591 152.302 230.566 137.162 233.47 133.455C231.918 133.754 229.668 133.905 226.775 133.905C222.958 133.905 219.332 133.636 219.298 133.636C219.113 133.622 218.966 133.46 218.966 133.265C218.966 133.069 219.118 132.917 219.313 132.908C224.008 132.712 233.699 130.966 234.837 130.766L237.394 128.203C229.088 130.174 199.08 133.015 197.592 133.015C197.533 133.015 197.499 133.01 197.475 133C197.304 132.971 197.177 132.815 197.177 132.639C197.183 132.42 197.819 132.2 199.085 131.978C200.12 131.798 201.593 131.543 203.384 131.235C214.457 129.348 240.38 124.917 242.186 123.186C244.319 121.137 253.586 107.909 255.875 104.633C254.943 104.785 253.918 104.858 252.82 104.858C247.471 104.858 241.766 103.078 241.708 103.053C241.527 102.995 241.425 102.814 241.469 102.628C241.503 102.462 241.649 102.354 241.815 102.354H241.874C243.772 102.653 246.051 102.794 248.637 102.794C253.254 102.794 257.495 102.315 258.339 102.217L259.135 101.137C257.119 101.513 254.581 101.699 251.585 101.699C242.972 101.699 233.192 100.134 233.089 100.119C232.899 100.09 232.772 99.9189 232.792 99.7233C232.806 99.5424 232.963 99.3957 233.148 99.3957H233.168C233.392 99.4104 233.621 99.4153 233.87 99.4153C243.03 99.4153 263.229 92.3931 264.913 91.8063C274.341 78.0064 287.337 70.5245 296.584 66.6662C303.778 63.6686 309.892 62.3434 312.811 61.8299C310.781 61.4191 308.57 61.2138 306.198 61.2138C291.538 61.2138 275.161 69.1846 275.005 69.2629C274.956 69.2922 274.897 69.2971 274.844 69.2971C274.712 69.2971 274.59 69.2335 274.526 69.1162C274.434 68.9499 274.482 68.7396 274.643 68.632C274.761 68.5587 286.195 61.1257 297.692 59.067C306.066 57.5706 319.252 52.8566 325.743 50.4311C316.949 51.546 298.898 52.1035 297.97 52.1328H297.965C297.775 52.1328 297.619 51.9861 297.604 51.8003C297.59 51.6047 297.726 51.4384 297.917 51.4091C317.403 48.9103 332.355 40.9785 341.472 34.7583C346.542 31.2961 351.212 27.3791 355.697 22.8069C349.714 24.7972 343.55 26.3033 337.348 27.3107C330.477 28.4109 325.948 28.5283 320.702 28.6652C318.779 28.7092 316.803 28.7581 314.597 28.8657C297.185 29.6824 283.618 33.0957 277.83 34.548C266.421 37.4087 255.123 41.5066 244.245 46.7195C244.197 46.7391 244.143 46.7537 244.094 46.7537C243.962 46.7537 243.84 46.6902 243.777 46.5728C243.684 46.4065 243.733 46.1962 243.894 46.0887C244.07 45.9713 261.477 34.4404 276.859 32.1763C286.2 30.8071 293.163 28.5039 297.175 26.9195C292.422 27.9415 283.696 29.3156 271.223 29.3156C267.582 29.3156 263.79 29.1983 259.969 28.9684C259.125 28.9195 258.256 28.8902 257.397 28.8902C231.606 28.8902 207.845 52.2062 207.606 52.4409C207.532 52.5143 207.445 52.5485 207.352 52.5485C207.274 52.5485 207.201 52.5289 207.137 52.4751C206.991 52.3676 206.947 52.1622 207.035 52.0106C207.728 50.7587 210.421 47.8687 212.227 45.9958C201.013 53.2135 193.117 76.2557 193.038 76.5002C192.99 76.6518 192.843 76.7447 192.692 76.7447C192.663 76.7447 192.629 76.7398 192.599 76.7301C192.414 76.6812 192.302 76.4904 192.341 76.3046C195.976 59.4876 204.448 50.0888 208.728 46.2696C204.458 48.5484 197.597 52.8566 190.608 58.622C183.205 64.72 173.499 74.2459 169.297 85.0041C161.533 104.868 153.246 117.421 153.163 117.543C153.09 117.646 152.978 117.704 152.861 117.704C152.797 117.704 152.729 117.69 152.665 117.646C152.5 117.543 152.451 117.328 152.548 117.161C156.184 110.995 160.82 98.672 163.387 91.5128L153.188 112.125C153.124 112.257 152.992 112.325 152.861 112.325C152.817 112.325 152.773 112.315 152.729 112.306C152.558 112.242 152.46 112.051 152.514 111.88C155.554 100.173 164.505 83.4491 167.594 77.8841C162.465 82.4759 146.629 96.8528 143.061 102.643C138.801 109.557 130.412 138.355 130.324 138.653C130.28 138.805 130.139 138.913 129.978 138.913H129.963C129.797 138.908 129.661 138.781 129.622 138.624C128.836 134.932 134.663 115.641 136.747 108.941C135.409 110.54 133.184 112.887 130.207 116.027C125.815 120.653 119.803 126.986 113.503 134.335C101.141 148.756 100.795 171.114 100.795 171.334C100.795 171.51 100.658 171.662 100.483 171.691H100.434C100.273 171.691 100.131 171.588 100.087 171.437C97.4862 162.737 100.536 152.761 102.615 147.519C96.9103 156.722 94.5337 167.911 93.7285 179.711C94.9046 172.346 96.437 163.96 97.6472 161.573C97.6472 161.573 94.0848 179.109 101.981 183.603V183.608ZM175.207 170.424C174.431 171.667 167.003 180.816 164.368 181.902C161.738 182.987 164.832 185.315 161.889 187.021C158.946 188.728 152.29 191.364 153.017 189.97C153.744 188.577 172.728 169.339 173.684 168.561C173.684 168.561 175.973 169.182 175.202 170.424H175.207ZM197.191 136.14C203.54 133.656 202.145 137.069 200.754 140.174C199.363 143.275 190.535 160.649 186.977 160.806C183.415 160.962 178.154 165.769 178.462 163.754C178.769 161.74 197.196 136.14 197.196 136.14H197.191ZM328.085 32.3573C334.044 32.592 337.685 30.4159 337.372 31.1152C337.065 31.8145 333.346 36.5432 324.679 40.1912C316.007 43.8392 313.377 42.5971 312.528 38.3281C311.679 34.0639 301.557 32.2888 302.001 31.966C305.251 29.6384 322.127 32.1225 328.085 32.3524V32.3573ZM233.416 110.31C230.786 112.095 220.567 125.592 215.038 125.592C209.509 125.592 204.78 128.692 204.951 127.763C205.126 126.834 227.092 104.433 230.937 104.027C238.37 103.249 236.047 108.526 233.416 110.31ZM255.557 91.9285C251.995 93.9432 241.469 93.9432 241.469 93.9432C244.099 90.5299 262.521 72.8473 265.464 72.2263C268.407 71.6052 271.501 72.2263 271.501 72.2263C266.391 73.3119 259.115 89.9089 255.557 91.9285ZM297.043 55.5999C294.93 57.2674 288.093 59.1306 286.863 59.4533C286.785 59.4827 286.717 59.5022 286.673 59.5022C286.673 59.5022 286.741 59.4827 286.863 59.4533C288.313 58.8861 294.837 53.2771 297.043 52.8321C299.366 52.3676 299.366 53.7612 297.043 55.5999ZM253.464 30.0296C258.261 29.1004 262.287 31.1934 265.693 32.279C267.538 32.8658 269.08 32.8169 270.115 32.6507C270.93 32.4306 271.501 32.279 271.501 32.279C271.501 32.279 270.993 32.504 270.115 32.6507C268.177 33.169 264.82 34.0786 264.224 34.2986C263.375 34.6067 257.182 35.2277 252.712 33.5993C248.247 31.9709 224.593 42.5189 224.593 42.5189C227.921 39.8831 248.667 30.9587 253.464 30.0296ZM180.628 70.1333C186.245 61.9082 199.69 52.7245 202.75 50.6951C202.989 50.4702 203.204 50.3235 203.384 50.2795C203.384 50.2795 203.155 50.4262 202.75 50.6951C200.466 52.8712 195.874 62.583 193.629 63.0769C191.15 63.6197 173.689 79.9869 173.689 79.9869C173.689 79.9869 174.27 79.4441 180.624 70.1382L180.628 70.1333ZM145.253 101.934C146.956 98.5204 161.508 85.1802 161.508 85.1802C160.039 86.965 156.555 96.5839 154.442 98.6768C152.329 100.77 142.544 110.31 142.544 110.31C142.544 110.31 143.549 105.347 145.253 101.934ZM110.96 142.116C112.819 136.766 132.325 115.66 132.325 115.66C128.416 120.208 127.216 135.827 126.908 136.756C126.601 137.685 106.783 156.61 106.783 156.61C106.783 156.61 109.106 147.456 110.965 142.111L110.96 142.116Z" fill="#E8E7E9"/>
<path d="M51.0569 273.283C51.2814 273.043 51.4912 272.813 51.701 272.579C50.8763 271.625 49.8808 270.647 48.8267 269.713C48.6851 269.875 48.5485 270.041 48.407 270.202C49.0219 270.892 50.1101 272.114 51.0569 273.283Z" fill="#AF9F9A"/>
<path d="M35.7773 285.303C36.3434 285.361 36.7924 285.611 37.1828 285.929C37.6073 285.577 38.0319 285.224 38.4565 284.867C38.0905 284.496 37.744 284.105 37.5049 283.523C38.1539 283.586 38.6517 283.899 39.0811 284.29C39.0909 284.3 39.1006 284.31 39.1104 284.32C39.5301 283.968 39.9498 283.611 40.3646 283.254C40.3158 283.21 40.2719 283.171 40.2231 283.127C39.8424 282.745 39.4813 282.344 39.2324 281.743C39.8815 281.806 40.3792 282.119 40.8087 282.51C40.8721 282.574 40.9307 282.647 40.9941 282.716C41.4187 282.354 41.8384 281.987 42.2581 281.62C42.1556 281.532 42.0531 281.444 41.9506 281.351C41.57 280.97 41.2088 280.569 40.96 279.968C41.609 280.031 42.1068 280.344 42.5362 280.735C42.6485 280.848 42.7558 280.97 42.8534 281.097C43.2829 280.721 43.7123 280.339 44.132 279.963C43.9759 279.84 43.8246 279.713 43.6782 279.576C43.2975 279.195 42.9364 278.794 42.6875 278.192C43.3366 278.256 43.8343 278.569 44.2638 278.96C44.4151 279.112 44.5566 279.288 44.6786 279.474C45.1178 279.073 45.5521 278.677 45.9816 278.28C45.7815 278.129 45.5912 277.972 45.4057 277.796C45.0251 277.415 44.664 277.014 44.4151 276.412C45.0641 276.476 45.5619 276.789 45.9913 277.18C46.1768 277.366 46.3476 277.571 46.4842 277.811C46.9332 277.395 47.3675 276.98 47.797 276.569C47.4407 276.329 47.1479 276.099 46.8502 275.821C46.4696 275.439 46.1085 275.038 45.8596 274.437C46.5086 274.5 47.0064 274.813 47.4358 275.205C47.6408 275.41 47.836 275.635 47.9727 275.909C48.0312 276.016 48.08 276.134 48.1191 276.256C48.6217 275.767 49.1146 275.283 49.5831 274.809C49.0512 274.481 48.6656 274.197 48.2752 273.826C47.8946 273.444 47.5335 273.043 47.2846 272.442C47.9336 272.505 48.4314 272.818 48.8608 273.209C49.0658 273.415 49.261 273.64 49.3977 273.914C49.5294 274.168 49.6368 274.466 49.6075 274.784C50.1101 274.275 50.603 273.772 51.0569 273.278C50.1053 272.109 49.017 270.882 48.407 270.197C41.1356 278.686 34.8013 286.1 29.9895 291.728C31.9611 290.178 34.2108 288.383 36.5532 286.452C36.2555 286.134 35.9823 285.782 35.7822 285.298L35.7773 285.303Z" fill="#DCE5E5"/>
<path d="M51.4863 273.826L51.6962 272.579C51.4863 272.808 51.2765 273.043 51.052 273.283C51.2033 273.469 51.3448 273.65 51.4863 273.826Z" fill="#938785"/>
<path d="M46.6355 280.828C46.9331 280.53 48.5338 278.672 51.1935 275.547L51.4814 273.826C51.3399 273.645 51.1983 273.464 51.0471 273.283C50.5932 273.772 50.1003 274.276 49.5977 274.789C49.5977 274.804 49.5977 274.813 49.5977 274.828C49.5879 274.823 49.583 274.818 49.5733 274.813C49.1048 275.288 48.6119 275.772 48.1092 276.261C48.1678 276.437 48.1971 276.623 48.1727 276.818C48.036 276.735 47.9092 276.652 47.7872 276.569C47.3577 276.98 46.9234 277.395 46.4744 277.811C46.489 277.836 46.5086 277.855 46.5183 277.88C46.6599 278.144 46.7721 278.457 46.7282 278.789C46.4402 278.613 46.1962 278.447 45.9718 278.276C45.5423 278.672 45.108 279.068 44.6688 279.469C44.7078 279.532 44.7566 279.591 44.7908 279.66C44.9323 279.924 45.0445 280.237 45.0006 280.569C44.659 280.359 44.3808 280.168 44.1222 279.963C43.6976 280.339 43.2731 280.721 42.8436 281.097C42.9266 281.205 42.9998 281.312 43.0632 281.44C43.2047 281.704 43.317 282.017 43.2731 282.349C42.868 282.1 42.5508 281.875 42.2482 281.625C41.8286 281.992 41.4089 282.354 40.9843 282.721C41.1161 282.872 41.2429 283.034 41.3357 283.22C41.4772 283.484 41.5894 283.797 41.5455 284.129C41.0673 283.836 40.7061 283.572 40.3548 283.259C39.9351 283.616 39.5154 283.973 39.1006 284.325C39.2958 284.52 39.4763 284.735 39.6081 284.995C39.7496 285.259 39.8619 285.572 39.818 285.904C39.2763 285.572 38.8859 285.283 38.4857 284.907C38.4711 284.892 38.4613 284.882 38.4466 284.867C38.0221 285.224 37.5975 285.577 37.1729 285.929C37.2315 285.978 37.2901 286.017 37.3437 286.07C37.5487 286.276 37.7439 286.501 37.8806 286.775C38.0221 287.039 38.1343 287.352 38.0904 287.684C37.5487 287.347 37.1583 287.063 36.7581 286.687C36.6849 286.613 36.6117 286.535 36.5385 286.457C34.201 288.383 31.9464 290.183 29.9748 291.733C26.0219 296.359 23.0987 299.782 21.542 301.611C26.8906 297.274 44.5468 282.921 46.6257 280.833L46.6355 280.828Z" fill="#B6C1C1"/>
<path d="M49.3929 273.914C49.2562 273.64 49.061 273.415 48.8561 273.21C48.4266 272.818 47.9288 272.505 47.2798 272.442C47.5238 273.043 47.8898 273.444 48.2704 273.826C48.6657 274.197 49.0513 274.476 49.5783 274.809C49.5881 274.809 49.593 274.818 49.6027 274.823C49.6027 274.809 49.6027 274.799 49.6027 274.784C49.632 274.466 49.5246 274.168 49.3929 273.914Z" fill="#AF9F9A"/>
<path d="M47.4359 275.205C47.0064 274.813 46.5087 274.5 45.8596 274.437C46.1036 275.038 46.4696 275.439 46.8503 275.821C47.148 276.1 47.4408 276.329 47.797 276.569C47.919 276.652 48.0459 276.73 48.1825 276.818C48.2069 276.623 48.1777 276.437 48.1191 276.261C48.0801 276.139 48.0313 276.021 47.9727 275.914C47.8361 275.64 47.6409 275.415 47.4359 275.21V275.205Z" fill="#AF9F9A"/>
<path d="M44.415 276.412C44.659 277.014 45.0251 277.415 45.4057 277.796C45.596 277.972 45.7815 278.129 45.9816 278.28C46.206 278.452 46.45 278.613 46.738 278.794C46.7819 278.461 46.6696 278.148 46.5281 277.884C46.5135 277.86 46.4988 277.84 46.4842 277.816C46.3476 277.576 46.1768 277.371 45.9913 277.185C45.5619 276.794 45.0641 276.481 44.415 276.417V276.412Z" fill="#AF9F9A"/>
<path d="M42.6875 278.193C42.9315 278.794 43.2975 279.195 43.6782 279.576C43.8294 279.718 43.9758 279.84 44.132 279.963C44.3907 280.168 44.6688 280.359 45.0104 280.569C45.0543 280.237 44.9421 279.924 44.8006 279.66C44.7664 279.591 44.7176 279.532 44.6786 279.469C44.5566 279.283 44.4199 279.107 44.2638 278.955C43.8343 278.564 43.3366 278.251 42.6875 278.188V278.193Z" fill="#AF9F9A"/>
<path d="M40.96 279.968C41.204 280.569 41.57 280.97 41.9506 281.352C42.0531 281.449 42.1556 281.537 42.2581 281.62C42.5606 281.875 42.8827 282.095 43.2829 282.344C43.3268 282.012 43.2146 281.699 43.073 281.435C43.0096 281.312 42.9364 281.2 42.8534 281.092C42.7558 280.965 42.6485 280.843 42.5362 280.731C42.1068 280.339 41.609 280.026 40.96 279.963V279.968Z" fill="#AF9F9A"/>
<path d="M39.2324 281.748C39.4764 282.349 39.8424 282.75 40.2231 283.131C40.2719 283.175 40.3158 283.215 40.3646 283.259C40.716 283.572 41.0771 283.831 41.5553 284.129C41.5993 283.797 41.487 283.484 41.3455 283.219C41.2528 283.034 41.1259 282.872 40.9941 282.721C40.9356 282.652 40.877 282.579 40.8087 282.515C40.3792 282.124 39.8815 281.811 39.2324 281.748Z" fill="#AF9F9A"/>
<path d="M37.5049 283.523C37.744 284.105 38.0905 284.496 38.4565 284.867C38.4711 284.882 38.4809 284.892 38.4955 284.907C38.8957 285.283 39.2861 285.567 39.8278 285.904C39.8717 285.572 39.7595 285.259 39.618 284.995C39.4862 284.735 39.3008 284.52 39.1104 284.325C39.1007 284.315 39.0909 284.305 39.0812 284.295C38.6517 283.904 38.1539 283.591 37.5049 283.528V283.523Z" fill="#AF9F9A"/>
<path d="M36.5484 286.457C36.6216 286.535 36.6948 286.613 36.768 286.687C37.1682 287.063 37.5586 287.347 38.1003 287.684C38.1442 287.352 38.0319 287.039 37.8904 286.775C37.7538 286.501 37.5586 286.276 37.3536 286.07C37.2999 286.022 37.2414 285.978 37.1828 285.929C36.7924 285.606 36.3434 285.357 35.7773 285.303C35.9774 285.787 36.2507 286.139 36.5484 286.457Z" fill="#AF9F9A"/>
<path d="M51.1985 275.547C57.3376 268.339 69.1377 254.363 83.778 237.018C87.3746 232.754 91.1323 228.309 94.9925 223.731C95.1535 223.546 95.3194 223.355 95.4756 223.159C114.933 200.127 137.137 173.862 157.053 150.443L170.566 134.453C170.566 134.453 172.552 132.174 175.207 129.147C179.443 124.193 183.459 119.504 187.192 115.166C192.765 108.692 198.49 102.74 204.224 97.2782C196.943 103.171 187.207 112.037 177.227 124.047C157.101 148.243 98.9405 215.154 98.9405 215.154L51.7011 272.583L51.4913 273.83L51.2034 275.552L51.1985 275.547Z" fill="#593E37"/>
<path d="M152.787 150.81L178.203 121.113L181.38 117.401C182.439 116.154 183.478 114.922 184.62 113.758C186.86 111.401 189.139 109.078 191.452 106.79C196.069 102.198 200.827 97.7575 205.673 93.4151C215.389 84.7547 225.52 76.5491 236.188 69.0917C246.066 62.1674 256.421 55.8493 267.431 50.8712C267.05 51.0326 266.664 51.1891 266.284 51.3504C255.64 56.133 245.573 62.1527 235.949 68.7494C225.232 76.1677 215.062 84.3538 205.297 92.9897C200.427 97.3223 195.644 101.753 191.003 106.33C188.676 108.614 186.387 110.931 184.132 113.288C182.985 114.452 181.922 115.704 180.867 116.937L177.676 120.638L157.233 144.355C154.344 147.857 151.655 151.03 149.079 153.871C148.917 154.048 148.742 154.243 148.576 154.429L101.322 209.648L75.9063 239.35L50.5933 269.136L76.2187 239.619L101.746 210.015L152.792 150.805L152.787 150.81Z" fill="#FFE7E1"/>
<path d="M100.073 196.097C105.392 197.031 175.207 118.144 182.644 110.389C188.197 104.589 198.621 93.7867 214.008 83.0138C226.091 73.0429 239.883 63.6393 255.758 55.7955C226.004 65.0085 192.053 89.2096 179.238 102.941C165.925 117.215 109.882 188.112 101.986 183.608C94.0896 179.114 97.6521 161.578 97.6521 161.578C96.4418 163.965 94.9046 172.351 93.7334 179.716C93.2991 186.073 93.3186 192.606 93.5235 199.11C93.992 191.662 94.89 178.195 95.3341 176.63C95.3341 176.63 94.7631 195.168 100.082 196.097H100.073Z" fill="#D7D9D9"/>
<path d="M136.195 194.156C140.529 187.026 176.441 145.138 193.478 122.849C206.586 105.689 238.477 74.6126 252.463 61.2186C243.377 66.6222 232.597 73.7666 221.294 82.8329C209.806 95.1022 191.311 115.396 181.712 128.687C167.159 148.854 129.285 189.496 128.089 197.569C126.903 205.633 153.022 199.946 153.846 199.741C153.846 199.741 146.199 205.257 134.863 210.738C152.456 204.464 174.411 189.021 179.657 185.227C179.36 185.256 179.042 185.276 178.72 185.295C174.089 187.29 170.522 189.007 169.023 190.117C162.318 195.075 131.866 201.286 136.205 194.151L136.195 194.156Z" fill="#D7D9D9"/>
<path d="M91.4006 219.541C115.464 191.589 138.767 164.703 148.805 153.632C152.987 149.02 157.448 143.548 162.606 137.211C175.534 121.342 191.916 101.234 214.008 83.0089C198.626 93.7818 188.202 104.584 182.644 110.384C175.211 118.139 105.392 197.027 100.073 196.093C94.7533 195.168 95.3242 176.625 95.3242 176.625C94.8801 178.185 93.9822 191.657 93.5137 199.105C93.5284 199.633 93.5479 200.166 93.5674 200.694C93.8504 208.753 92.7085 215.071 91.4006 219.541Z" fill="#ACB1B5"/>
<path d="M153.846 199.745C153.022 199.946 126.908 205.638 128.089 197.574C129.28 189.501 167.159 148.859 181.712 128.692C191.311 115.396 209.811 95.107 221.294 82.8378C210.153 91.772 198.509 102.569 187.465 115.406C163.001 143.852 126.362 187.178 96.2124 222.876C104.064 219.8 116.289 215.761 129.656 212.357C131.33 211.932 133.077 211.389 134.863 210.748C146.199 205.266 153.846 199.75 153.846 199.75V199.745Z" fill="#ACB1B5"/>
<path d="M126.908 136.761C127.216 135.832 128.416 120.208 132.325 115.665C132.325 115.665 112.819 136.771 110.96 142.121C109.101 147.47 106.778 156.62 106.778 156.62C106.778 156.62 126.596 137.695 126.903 136.766L126.908 136.761Z" fill="#F4F4F4"/>
<path d="M230.942 104.027C227.092 104.428 205.126 126.829 204.956 127.763C204.78 128.692 209.509 125.592 215.043 125.592C220.577 125.592 230.791 112.095 233.421 110.31C236.052 108.525 238.375 103.254 230.942 104.027Z" fill="#F4F4F4"/>
<path d="M178.457 163.754C178.149 165.769 183.41 160.962 186.972 160.806C190.535 160.649 199.358 143.275 200.749 140.174C202.145 137.074 203.536 133.661 197.187 136.14C197.187 136.14 178.764 161.735 178.452 163.754H178.457Z" fill="#F4F4F4"/>
<path d="M173.689 168.561C172.728 169.339 153.744 188.572 153.022 189.97C152.299 191.369 158.951 188.728 161.894 187.021C164.836 185.315 161.738 182.987 164.373 181.901C167.003 180.816 174.436 171.662 175.212 170.424C175.987 169.182 173.694 168.561 173.694 168.561H173.689Z" fill="#F4F4F4"/>
<path d="M54.8 271.87C55.0781 271.542 55.3612 271.209 55.6491 270.867C61.6467 263.796 70.3626 253.478 80.6938 241.243C81.7967 239.932 82.9191 238.607 84.061 237.257C87.7943 232.837 91.6837 228.23 95.6903 223.482C103.518 220.377 116.089 216.201 129.709 212.734C150.45 207.462 181.004 184.708 181.004 184.708C181.004 184.708 180.994 184.708 180.99 184.708C181.019 184.689 181.038 184.674 181.038 184.674C179.911 184.889 178.554 184.977 177.173 184.977C173.655 184.977 169.97 184.449 169.448 184.371C170.673 184.102 183.717 181.197 190.398 177.153C194.576 174.625 198.787 170.747 201.515 168.018C203.389 166.146 204.57 164.811 204.57 164.811C197.528 167.96 183.576 168.234 178.837 168.234C178.115 168.234 177.608 168.234 177.373 168.229C187.68 166.6 210.143 157.999 214.755 155.118C215.555 154.62 216.663 153.632 217.946 152.341C218.566 151.715 219.23 151.02 219.923 150.272C226.082 143.602 234.402 132.854 234.402 132.854C232.675 133.382 229.664 133.533 226.779 133.533C223.534 133.533 220.465 133.343 219.586 133.284C224.744 133.015 234.983 131.128 234.983 131.128L238.594 127.509L238.628 127.475C233.163 129.401 199.368 132.629 197.621 132.648C199.871 132.125 240.024 125.763 242.415 123.475C242.425 123.465 242.435 123.455 242.445 123.445C244.333 121.631 251.619 111.337 254.977 106.55C256.021 105.063 256.685 104.1 256.685 104.1C255.479 104.384 254.162 104.491 252.825 104.491C251.692 104.491 250.546 104.413 249.443 104.286C245.914 103.885 242.83 103.014 242.025 102.775C243.435 102.975 244.938 103.093 246.451 103.146C247.173 103.171 247.896 103.185 248.608 103.185C253.825 103.185 258.515 102.584 258.515 102.584L258.539 102.555H258.549L259.993 100.594C257.651 101.137 254.689 101.337 251.59 101.337C247.169 101.337 242.469 100.926 238.921 100.525C236.179 100.212 234.119 99.9091 233.421 99.8015C233.563 99.8064 233.704 99.8162 233.846 99.8162C234.573 99.8162 235.364 99.7722 236.208 99.694C246.646 98.7111 265.118 92.1436 265.118 92.1436C265.122 92.1339 265.132 92.1241 265.137 92.1143C265.142 92.1143 265.152 92.1143 265.152 92.1143C267.421 88.7793 269.895 85.811 272.491 83.1605C274.931 80.6715 277.484 78.4709 280.06 76.5198C296.677 63.9669 314.655 61.9473 314.655 61.9473C314.631 61.9424 314.607 61.9326 314.577 61.9277C314.646 61.9179 314.685 61.913 314.685 61.913C312.005 61.1697 309.136 60.8568 306.203 60.8568C306.018 60.8568 305.827 60.8617 305.642 60.8665C304.129 60.8861 302.606 60.9839 301.089 61.1502C288.352 62.5292 276 68.3875 274.936 68.901C275.995 68.2164 284.565 62.8373 294.1 60.2797C295.296 59.957 296.511 59.6783 297.726 59.4631C299.966 59.0621 302.538 58.4313 305.227 57.6831C315.783 54.749 328.183 49.9323 329.593 49.3748C329.515 49.4041 329.427 49.4286 329.335 49.4579C329.457 49.409 329.559 49.3699 329.628 49.3455C325.182 50.8712 301.02 51.6829 298.234 51.771C317.017 49.3063 331.667 41.9027 341.642 35.0957C347.118 31.3646 351.661 27.3889 355.419 23.6137C355.961 23.0709 356.488 22.5281 357 21.9951C352.486 23.56 345.707 25.5991 337.289 26.9537C328.393 28.3865 323.259 28.1566 315.856 28.4549C315.436 28.4696 315.017 28.4892 314.587 28.5087C308.809 28.7826 303.48 29.3303 298.702 30.0051C289.333 31.3254 282.081 33.1152 277.752 34.2008C269.197 36.3476 257.534 39.9711 244.187 46.3576C245.651 45.3943 262.107 34.7436 276.883 32.5724C284.145 31.5015 289.952 29.8877 294.071 28.4745C298.737 26.8754 301.24 25.5356 301.24 25.5356C301.24 25.5356 301.206 25.5453 301.157 25.56C301.23 25.5209 301.269 25.5013 301.269 25.5013C301.269 25.5013 298 26.6065 291.563 27.5698C286.629 28.3034 279.841 28.9537 271.223 28.9537C267.767 28.9537 264.019 28.851 259.989 28.6065C259.12 28.5576 258.261 28.5283 257.397 28.5283C234.466 28.5283 213.388 46.6021 208.445 51.1548C207.732 51.8101 207.352 52.1866 207.352 52.1866C207.503 51.9128 207.757 51.5558 208.079 51.145C209.953 48.7538 214.164 44.5336 214.164 44.5336C212.032 45.4774 210.007 47.0178 208.113 48.92C207.43 49.6046 206.766 50.3333 206.122 51.101C205.087 52.3284 204.097 53.6536 203.16 55.0278C197.196 63.7664 193.312 74.5588 192.736 76.2068C194.756 66.9498 198.221 59.9961 201.627 54.9984C202.633 53.5216 203.633 52.216 204.59 51.0717C205.541 49.9323 206.454 48.9494 207.279 48.1229C209.616 45.7904 211.29 44.6754 211.436 44.5825C211.422 44.5874 211.407 44.5972 211.393 44.6021C211.432 44.5776 211.456 44.5581 211.471 44.5483C211.188 44.6656 210.87 44.8074 210.529 44.9688C208.445 45.942 205.356 47.6682 201.769 49.9958C201.281 50.3137 200.783 50.6413 200.281 50.9788C198.533 52.1524 196.689 53.4532 194.805 54.8664C190.672 57.9716 186.328 61.6245 182.332 65.6686C176.632 71.4341 171.629 77.9966 168.931 84.9063C161.781 103.2 154.291 115.122 153.012 117.093C158.278 107.988 165.427 86.8036 165.646 86.1337L165.578 86.2706C165.593 86.2217 165.607 86.1875 165.612 86.1679L152.875 111.9C156.555 97.8553 168.579 76.8621 168.95 76.2019C168.726 76.3926 158.912 85.0285 151.192 92.794C147.41 96.5985 144.12 100.198 142.705 102.491C138.503 109.303 130.451 136.8 129.958 138.502C129.119 134.091 137.469 107.802 137.776 106.829C137.757 106.878 137.727 106.936 137.698 106.99C137.708 106.966 137.713 106.941 137.723 106.917C136.693 109.288 126.113 119.171 114.015 133.167C113.737 133.485 113.464 133.802 113.185 134.125C112.966 134.379 112.751 134.639 112.541 134.898C101.151 148.893 100.434 169.314 100.395 171.217C96.759 158.83 104.548 144.028 104.548 144.028C104.528 144.052 104.509 144.081 104.489 144.106C104.504 144.077 104.514 144.062 104.514 144.062C92.5426 159.989 92.5426 183.359 93.1624 200.733C93.1966 201.682 93.2063 202.596 93.2063 203.496C93.1819 210.685 92.0302 216.289 90.7907 220.24C85.3494 226.563 79.869 232.935 74.5058 239.184C64.853 250.427 55.5613 261.273 47.4652 270.73C47.1773 271.068 46.8893 271.4 46.6063 271.733C36.5484 283.484 28.4328 292.985 23.909 298.281C21.4982 301.103 20.1074 302.736 19.9902 302.873L20.0488 302.932C20.0488 302.932 20.0293 302.956 20.0244 302.961L20.0488 302.985C20.1659 302.985 20.283 302.99 20.3953 302.995C20.9809 302.521 23.1672 300.751 26.0513 298.403C33.3715 292.447 45.1959 282.775 46.8796 281.087C47.2895 280.677 50.1297 277.361 54.7902 271.865L54.8 271.87ZM93.7236 179.716C94.5288 167.916 96.9054 156.727 102.61 147.524C100.531 152.766 97.4813 162.742 100.082 171.442C100.126 171.593 100.268 171.696 100.429 171.696H100.478C100.653 171.667 100.79 171.515 100.79 171.339C100.79 171.114 101.136 148.761 113.498 134.34C119.798 126.991 125.81 120.658 130.202 116.032C133.179 112.892 135.405 110.545 136.742 108.946C134.663 115.641 128.831 134.937 129.617 138.629C129.651 138.79 129.788 138.913 129.958 138.917H129.973C130.134 138.917 130.276 138.81 130.319 138.658C130.407 138.36 138.796 109.562 143.057 102.648C146.624 96.8577 162.46 82.4808 167.589 77.889C164.505 83.4539 155.554 100.178 152.509 111.885C152.46 112.061 152.553 112.247 152.724 112.31C152.768 112.325 152.812 112.33 152.856 112.33C152.988 112.33 153.114 112.257 153.183 112.129L163.382 91.5177C160.815 98.6768 156.179 111 152.543 117.166C152.441 117.333 152.495 117.548 152.661 117.65C152.724 117.694 152.792 117.709 152.856 117.709C152.973 117.709 153.085 117.65 153.158 117.548C153.236 117.425 161.523 104.873 169.292 85.009C173.499 74.2508 183.2 64.7248 190.603 58.6269C197.592 52.8663 204.453 48.5582 208.723 46.2745C204.448 50.0985 195.971 59.4924 192.336 76.3095C192.302 76.4953 192.409 76.686 192.594 76.7349C192.624 76.7398 192.658 76.7496 192.687 76.7496C192.838 76.7496 192.985 76.6567 193.034 76.5051C193.112 76.2606 201.008 53.2184 212.222 46.0006C210.417 47.8735 207.723 50.7636 207.03 52.0155C206.942 52.1671 206.986 52.3724 207.132 52.48C207.196 52.5289 207.269 52.5534 207.347 52.5534C207.44 52.5534 207.527 52.5191 207.601 52.4458C207.84 52.216 231.601 28.8951 257.392 28.8951C258.251 28.8951 259.12 28.9244 259.964 28.9733C263.785 29.2031 267.577 29.3205 271.218 29.3205C283.686 29.3205 292.417 27.9464 297.17 26.9243C293.159 28.5087 286.195 30.812 276.854 32.1812C261.472 34.4453 244.06 45.9811 243.889 46.0935C243.728 46.2011 243.679 46.4114 243.772 46.5777C243.835 46.695 243.957 46.7586 244.089 46.7586C244.138 46.7586 244.192 46.7439 244.24 46.7244C255.118 41.5115 266.421 37.4136 277.825 34.5529C283.613 33.0957 297.18 29.6872 314.592 28.8706C316.798 28.763 318.774 28.7092 320.697 28.6701C325.943 28.5332 330.472 28.4158 337.343 27.3155C343.55 26.3082 349.709 24.802 355.692 22.8118C351.207 27.3889 346.537 31.3059 341.467 34.7632C332.351 40.9834 317.393 48.9151 297.912 51.414C297.721 51.4433 297.585 51.6096 297.599 51.8052C297.614 51.991 297.77 52.1377 297.961 52.1377H297.965C298.893 52.1084 316.944 51.5509 325.738 50.436C319.243 52.8614 306.057 57.5755 297.687 59.0719C286.195 61.1257 274.756 68.5636 274.639 68.6369C274.478 68.7445 274.429 68.9548 274.521 69.121C274.585 69.2384 274.707 69.302 274.839 69.302C274.887 69.302 274.946 69.2922 275 69.2677C275.161 69.1895 291.538 61.2186 306.193 61.2186C308.565 61.2186 310.776 61.4191 312.806 61.8348C309.888 62.3482 303.773 63.6735 296.58 66.6711C287.332 70.5294 274.336 78.0161 264.908 91.8111C263.224 92.3979 243.025 99.4201 233.865 99.4201C233.621 99.4201 233.387 99.4152 233.163 99.4006H233.143C232.963 99.4006 232.802 99.5473 232.787 99.7282C232.767 99.9238 232.894 100.095 233.085 100.124C233.187 100.139 242.967 101.704 251.58 101.704C254.577 101.704 257.114 101.518 259.13 101.141L258.334 102.222C257.49 102.325 253.249 102.799 248.633 102.799C246.046 102.799 243.772 102.652 241.869 102.359H241.81C241.644 102.359 241.498 102.467 241.464 102.633C241.42 102.824 241.522 103.005 241.703 103.058C241.761 103.078 247.466 104.863 252.815 104.863C253.913 104.863 254.938 104.789 255.87 104.638C253.581 107.919 244.309 121.142 242.181 123.191C240.375 124.922 214.452 129.352 203.379 131.24C201.588 131.553 200.115 131.802 199.08 131.983C197.814 132.205 197.178 132.425 197.172 132.643C197.172 132.82 197.294 132.976 197.47 133.005C197.489 133.01 197.528 133.02 197.587 133.02C199.075 133.02 229.078 130.174 237.389 128.208L234.832 130.771C233.69 130.971 224.003 132.717 219.308 132.912C219.113 132.917 218.962 133.079 218.962 133.269C218.962 133.46 219.108 133.626 219.293 133.641C219.328 133.641 222.958 133.91 226.77 133.91C229.668 133.91 231.913 133.758 233.465 133.46C230.562 137.167 218.581 152.302 214.589 154.796C210.036 157.632 187.295 166.341 177.159 167.877C176.973 167.906 176.841 168.072 176.856 168.258C176.861 168.444 177.017 168.591 177.203 168.6C177.203 168.6 177.803 168.605 178.828 168.605C183.922 168.605 195.957 168.317 203.223 165.74C200.978 168.121 195.542 173.608 190.232 176.816C183.347 180.977 169.433 183.985 169.287 184.009C169.121 184.043 168.999 184.2 169.004 184.381C169.004 184.557 169.136 184.699 169.307 184.728C169.35 184.728 173.372 185.344 177.159 185.344C177.705 185.344 178.218 185.329 178.706 185.305C179.033 185.285 179.345 185.266 179.643 185.237C174.397 189.026 152.441 204.474 134.848 210.748C133.062 211.384 131.315 211.932 129.641 212.357C116.275 215.761 104.05 219.8 96.1978 222.876C126.347 187.178 162.987 143.852 187.451 115.406C198.494 102.569 210.143 91.772 221.28 82.8378C232.587 73.7715 243.362 66.6222 252.449 61.2235C253.844 60.3922 255.206 59.6 256.514 58.8518C276.322 47.5606 290.64 42.8025 290.787 42.7536L290.679 42.4064C278.016 45.9615 266.406 50.5289 255.738 55.8004C239.868 63.6441 226.077 73.0478 213.989 83.0187C191.901 101.244 175.519 121.347 162.587 137.221C157.428 143.553 152.973 149.03 148.786 153.642C138.743 164.713 115.445 191.599 91.3812 219.55C92.689 215.086 93.831 208.763 93.5479 200.704C93.5284 200.176 93.5138 199.643 93.4943 199.115C93.2893 192.611 93.2698 186.078 93.7041 179.721L93.7236 179.716ZM76.2138 239.619L50.5884 269.136L75.9015 239.35L101.317 209.648L148.571 154.429C148.742 154.243 148.913 154.047 149.074 153.871C151.65 151.03 154.339 147.857 157.228 144.355L177.671 120.638L180.863 116.936C181.917 115.704 182.985 114.452 184.127 113.288C186.382 110.931 188.676 108.614 190.999 106.33C195.64 101.748 200.422 97.3223 205.292 92.9896C215.057 84.3537 225.228 76.1677 235.944 68.7494C245.568 62.1526 255.635 56.1329 266.279 51.3504C266.66 51.189 267.04 51.0325 267.426 50.8712C256.416 55.8493 246.061 62.1673 236.183 69.0917C225.516 76.5442 215.384 84.7547 205.668 93.4151C200.822 97.7575 196.059 102.198 191.448 106.79C189.134 109.078 186.855 111.401 184.615 113.758C183.478 114.922 182.439 116.154 181.375 117.401L178.198 121.113L152.783 150.81L101.737 210.02L76.209 239.624L76.2138 239.619ZM29.9847 291.728C34.7964 286.1 41.1308 278.686 48.4022 270.197C48.5388 270.036 48.6803 269.874 48.8218 269.708C49.8808 270.642 50.8715 271.62 51.6962 272.574L98.9356 215.144C98.9356 215.144 157.092 148.233 177.222 124.037C187.207 112.032 196.938 103.166 204.219 97.2685C198.485 102.731 192.76 108.682 187.187 115.156C183.454 119.494 179.433 124.184 175.202 129.137C172.547 132.164 170.561 134.443 170.561 134.443L157.048 150.434C137.132 173.852 114.928 200.117 95.4707 223.15C95.3097 223.345 95.1437 223.531 94.9876 223.722C91.1274 228.299 87.3746 232.744 83.7731 237.008C69.1328 254.353 57.3279 268.334 51.1936 275.537C48.5339 278.662 46.9284 280.52 46.6356 280.819C44.5566 282.902 26.9005 297.259 21.5519 301.597C23.1135 299.768 26.0318 296.345 29.9847 291.719V291.728Z" fill="#704A3E"/>
<path d="M145.253 101.934C146.956 98.5204 161.508 85.1802 161.508 85.1802C160.039 86.9651 156.555 96.5839 154.442 98.6769C152.329 100.77 142.544 110.31 142.544 110.31C142.544 110.31 143.549 105.347 145.253 101.934Z" fill="#F4F4F4"/>
<path d="M253.464 30.0296C258.261 29.1005 262.287 31.1934 265.693 32.279C267.538 32.8658 269.08 32.8169 270.115 32.6507C270.93 32.4306 271.501 32.279 271.501 32.279C271.501 32.279 270.993 32.504 270.115 32.6507C268.177 33.169 264.82 34.0786 264.225 34.2986C263.375 34.6067 257.183 35.2278 252.712 33.5994C248.247 31.971 224.593 42.5189 224.593 42.5189C227.921 39.8831 248.667 30.9587 253.464 30.0296Z" fill="#F4F4F4"/>
<path d="M180.628 70.1332C186.245 61.9081 199.69 52.7245 202.75 50.6951C202.989 50.4701 203.204 50.3234 203.384 50.2794C203.384 50.2794 203.155 50.4261 202.75 50.6951C200.466 52.8712 195.874 62.5829 193.629 63.0768C191.15 63.6196 173.689 79.9868 173.689 79.9868C173.689 79.9868 174.27 79.444 180.624 70.1381L180.628 70.1332Z" fill="#F4F4F4"/>
<path d="M328.085 32.3573C334.044 32.592 337.685 30.4159 337.372 31.1152C337.065 31.8145 333.346 36.5432 324.679 40.1912C316.007 43.8393 313.377 42.5972 312.528 38.3281C311.678 34.0639 301.557 32.2888 302.001 31.9661C305.251 29.6384 322.127 32.1226 328.085 32.3524V32.3573Z" fill="#F4F4F4"/>
<path d="M255.557 91.9284C251.995 93.9432 241.469 93.9432 241.469 93.9432C244.099 90.5299 262.521 72.8473 265.464 72.2262C268.407 71.6052 271.501 72.2262 271.501 72.2262C266.391 73.3118 259.115 89.9088 255.557 91.9284Z" fill="#F4F4F4"/>
<path d="M297.043 55.5999C294.93 57.2675 288.093 59.1306 286.863 59.4533C286.785 59.4827 286.717 59.5023 286.673 59.5023C286.673 59.5023 286.741 59.4827 286.863 59.4533C288.313 58.8861 294.837 53.2771 297.043 52.8321C299.366 52.3676 299.366 53.7613 297.043 55.5999Z" fill="#F4F4F4"/>
<g clip-path="url(#clip1_71_123)">
<g style="mix-blend-mode:multiply">
<path d="M200.657 297.014C197.968 299.703 168.228 301.217 156.279 301.217C154.363 301.217 152.907 301.177 152.09 301.098C149.464 300.844 144.769 300.084 140.747 299.004C147.72 301.722 169.373 303.705 195.012 303.705C226.285 303.705 251.638 300.756 251.638 297.12C251.638 293.864 231.316 291.16 204.616 290.63C203.076 293.459 201.729 295.656 200.692 296.974L200.655 297.014H200.657Z" fill="#A8A8A8"/>
</g>
<path d="M140.577 197.223C140.691 197.321 140.834 197.4 140.99 197.469C141.699 197.593 142.602 197.704 143.576 197.712C144.69 197.625 145.78 197.389 146.304 197.223C147.387 196.876 150.351 196.177 154.204 196.177C158.518 195.259 180.475 195.643 184.527 195.643C188.579 195.643 192.525 196.532 193.414 194.748C193.845 193.88 192.858 192.713 191.733 191.747C190.516 191.546 188.902 191.387 187.001 191.268C187.981 191.448 188.846 191.779 189.005 192.385C189.399 193.898 189.73 195.809 183.802 195.084C177.876 194.359 154.633 194.875 151.539 195.243C148.445 195.611 141.861 197.469 140.675 196.177C139.492 194.888 139.59 193.314 140.276 192.456C139.476 193.232 139.482 194.838 139.601 196.024C139.876 196.492 140.212 196.905 140.577 197.223Z" fill="#8E8EA8"/>
<path d="M143.692 205.507C144.978 205.872 149.051 206.925 155.3 207.637C159.912 207.674 169.35 207.867 178.303 206.735C180.168 206.499 183.622 206.007 184.231 204.07C184.829 202.156 182.336 199.885 182.156 199.724C180.465 198.215 178.228 197.554 170.204 197.847C163.567 198.088 161.241 198.617 154.836 198.784C152.934 198.835 150.779 198.808 148.181 198.636C147.328 198.58 146.54 198.52 145.823 198.453C143.867 198.805 141.903 198.583 140.628 198.342C141.091 198.731 141.758 199.237 142.66 199.851C144.227 200.912 144.817 201.799 143.69 205.504L143.692 205.507Z" fill="#C8D8F4"/>
<path d="M139.77 210.631C145.442 209.275 139.185 217.583 134.157 223.234C145.015 220.54 157.3 218.367 168.667 218.375C174.272 218.377 179.978 218.912 185.551 219.772C181.2 216.596 174.19 214.574 174.19 214.574C179.853 214.18 196.314 217.207 196.971 221.069C197.026 221.4 197.084 221.723 197.14 222.035C201.496 223.051 205.646 224.197 209.457 225.359C209.457 225.359 197.375 212.803 189.14 207.378C181.227 208.759 174.036 209.254 167.815 209.254C154.125 209.254 145.111 206.875 143.308 206.356C142.869 206.846 142.033 207.182 141.71 207.298C136.854 209.606 118.31 221.135 111.885 229.914C114.452 229.014 117.461 228.008 120.798 226.973C120.959 219.933 139.77 210.633 139.77 210.633V210.631Z" fill="#C8D8F4"/>
<path d="M198.209 210.323C203.33 213.584 210.595 218.48 216.388 223.438C210.362 217.798 203.256 213.229 198.209 210.323Z" fill="#C8D8F4"/>
<path d="M140.675 196.177C141.861 197.469 148.445 195.611 151.539 195.243C154.633 194.875 177.877 194.359 183.802 195.084C189.727 195.809 189.399 193.899 189.005 192.385C188.846 191.779 187.983 191.448 187.001 191.268C185.684 191.186 184.228 191.12 182.667 191.072C179.266 191.08 168.937 191.101 161.641 191.096C152.635 191.3 144.587 191.675 141.882 191.943C141.149 192.075 140.612 192.218 140.376 192.371C140.342 192.401 140.308 192.43 140.273 192.461C139.588 193.316 139.492 194.894 140.673 196.183L140.675 196.177ZM142.403 193.382C142.602 193.361 162.247 191.27 175.077 192.154C175.331 192.173 175.521 192.393 175.505 192.647C175.487 192.901 175.262 193.091 175.013 193.075C162.265 192.199 142.697 194.28 142.501 194.301C142.486 194.301 142.467 194.301 142.451 194.301C142.218 194.301 142.02 194.126 141.993 193.888C141.967 193.634 142.149 193.409 142.401 193.38L142.403 193.382Z" fill="#C8D8F4"/>
<path d="M193.414 194.748C192.525 196.532 188.574 195.643 184.527 195.643C180.481 195.643 158.518 195.259 154.204 196.177C150.351 196.177 147.387 196.879 146.304 197.223C145.778 197.389 144.69 197.625 143.576 197.712C144.74 197.723 146.005 197.583 147.162 197.138C150.563 195.831 182.952 194.968 186.875 196.566C191.99 198.652 193.724 198.665 193.983 198.488C194.218 198.31 194.441 198.107 194.637 197.861C195.269 197.074 195.486 195.865 195.206 194.706C194.912 193.491 194.131 192.517 193.059 192.03C192.694 191.927 192.247 191.834 191.731 191.747C192.855 192.715 193.845 193.88 193.411 194.748H193.414Z" fill="#726E7D"/>
<path d="M139.762 197.207C140.022 197.273 140.45 197.376 140.99 197.469C140.834 197.4 140.691 197.323 140.577 197.223C140.212 196.905 139.876 196.492 139.601 196.024C139.646 196.46 139.704 196.839 139.746 197.098C139.752 197.138 139.757 197.17 139.762 197.204V197.207Z" fill="#726E7D"/>
<path d="M154.839 198.787C161.241 198.62 163.57 198.091 170.207 197.85C178.231 197.556 180.467 198.218 182.159 199.726C182.339 199.888 184.831 202.161 184.233 204.072C183.625 206.007 180.174 206.502 178.305 206.737C169.35 207.87 159.912 207.677 155.302 207.64C161.699 208.37 170.374 208.741 180.661 207.64C181.905 207.301 183.212 206.896 184.527 206.409C186.007 205.861 187.891 205.382 188.698 203.723C189.333 202.413 189.158 200.772 188.505 199.626C187.396 197.67 184.816 197.215 182.683 196.902C177.387 196.561 167.931 196.577 160.103 196.865C157.689 196.982 155.387 197.104 153.402 197.215C150.473 197.426 148.3 197.691 147.493 198.003C146.948 198.212 146.386 198.361 145.825 198.461C146.543 198.525 147.331 198.588 148.183 198.644C150.782 198.813 152.936 198.842 154.839 198.792V198.787Z" fill="#8E8EA8"/>
<path d="M117.789 261.838V261.832C117.236 260.085 116.871 258.601 116.77 257.508C116.77 257.508 123.984 269.365 130.635 275.894C124.117 263.523 114.351 243.446 119.02 240.516C124.254 237.232 127.583 240.757 133.564 251.476C137.627 258.754 142.634 273.155 144.375 282.06C148.133 282.333 151.838 281.981 155.488 282.399C162.4 283.188 169.911 286.414 174.058 283.513C177.21 281.314 199.525 258.312 207.109 239.071C192.183 241.818 158.817 247.398 155.49 247.233C151.539 247.035 111.885 235.281 111.44 234.59C110.995 233.9 109.169 232.96 111.342 231.43C111.342 231.43 110.059 232.418 111.342 233.108C112.626 233.799 146.207 242.888 156.874 242.491C164.033 242.226 190.55 239.526 207.779 237.264C209.277 232.968 209.97 228.903 209.457 225.356C205.646 224.194 201.496 223.048 197.14 222.032C197.728 225.37 198.061 227.656 194.245 228.138C190.071 228.665 191.045 224.978 187.094 221.066C186.639 220.616 186.115 220.185 185.549 219.772C179.975 218.912 174.269 218.38 168.664 218.375C157.298 218.367 145.016 220.539 134.155 223.234C132.339 225.277 130.682 226.973 129.809 227.741C126.517 230.639 122.171 234.852 120.854 227.741C120.806 227.487 120.79 227.23 120.795 226.968C117.458 228.003 114.449 229.009 111.882 229.909C110.95 231.182 110.273 232.399 109.929 233.521C110.961 248.213 117.17 263.502 123.069 275.177C120.912 270.304 118.94 265.495 117.792 261.843C117.792 261.838 117.786 261.838 117.786 261.835L117.789 261.838Z" fill="#726E7D"/>
<path d="M209.457 225.359C209.973 225.515 210.483 225.671 210.986 225.833C210.46 223.541 194.351 210.538 190.175 207.193C189.828 207.256 189.484 207.317 189.137 207.375C197.373 212.801 209.454 225.356 209.454 225.356L209.457 225.359Z" fill="#8E8EA8"/>
<path d="M221.839 229.289C220.212 227.238 218.359 225.28 216.388 223.435C210.595 218.478 203.328 213.581 198.209 210.321C197.68 210.016 197.175 209.731 196.693 209.461C204.5 215.098 218.751 226.754 221.839 229.287V229.289Z" fill="#8E8EA8"/>
<path d="M153.402 197.212C155.387 197.101 157.687 196.979 160.103 196.863C157.65 196.953 155.358 197.069 153.402 197.212Z" fill="#726E7D"/>
<path d="M188.502 199.626C189.156 200.774 189.33 202.415 188.695 203.723C187.888 205.382 186.004 205.861 184.524 206.409C183.206 206.896 181.902 207.301 180.658 207.64C183.916 207.293 187.338 206.796 190.897 206.118C190.574 205.475 190.595 204.556 190.617 203.598C190.63 203.008 190.646 202.397 190.587 201.809C190.447 200.409 191.448 199.856 192.458 199.353C191.276 199.141 189.436 198.602 186.525 197.416C185.977 197.194 184.601 197.021 182.677 196.897C184.81 197.209 187.391 197.665 188.499 199.62L188.502 199.626Z" fill="#726E7D"/>
<path d="M210.986 225.833C215.236 227.164 219.018 228.498 222.138 229.668C222.041 229.541 221.94 229.416 221.839 229.289C218.754 226.754 204.502 215.101 196.693 209.463C194.075 208.005 192.244 207.111 191.778 206.891C191.241 206.997 190.707 207.097 190.177 207.195C194.351 210.538 210.462 223.543 210.989 225.835L210.986 225.833Z" fill="#726E7D"/>
<path d="M216.359 262.737C220.503 252.389 223.313 243.93 224.417 238.709C224.036 239.704 223.636 240.323 223.636 240.323C214.45 273.282 198.868 294.182 196.19 297.615C198.164 297.236 199.519 296.823 199.985 296.379C203.425 291.991 210.303 277.855 216.359 262.735V262.737Z" fill="#5B5962"/>
<path d="M123.071 275.182C123.09 275.219 123.111 275.259 123.129 275.296L117.794 261.845C118.943 265.498 120.914 270.309 123.071 275.179V275.182Z" fill="#5B5962"/>
<path d="M174.058 283.516C169.911 286.414 162.403 283.188 155.488 282.402C151.838 281.984 148.136 282.336 144.375 282.063C145.198 286.271 145.293 289.254 144.216 289.672C140.853 290.98 138.302 290.249 131.897 278.271C131.495 277.519 131.071 276.725 130.635 275.894C123.987 269.365 116.77 257.508 116.77 257.508C116.871 258.601 117.236 260.086 117.789 261.832V261.838C117.789 261.838 117.794 261.843 117.794 261.846C118.122 262.436 127.507 279.342 131.193 285.358C134.946 291.485 141.66 292.47 145.611 290.077C149.565 287.679 153.516 285.162 157.266 287.928C161.019 290.694 175.638 290.887 180.772 287.928C185.906 284.964 199.932 261.848 206.067 248.615C207.766 244.952 208.898 241.57 209.652 238.595C208.882 238.74 208.03 238.899 207.107 239.071C199.525 258.312 177.207 281.314 174.055 283.513L174.058 283.516Z" fill="#5B5962"/>
<path d="M207.779 237.266C208.552 237.166 209.306 237.065 210.039 236.964C211.531 230.136 210.986 225.833 210.986 225.833C210.483 225.671 209.973 225.515 209.457 225.359C209.97 228.905 209.277 232.971 207.779 237.266Z" fill="#5B5962"/>
<path d="M156.872 242.493C146.204 242.888 112.626 233.802 111.34 233.111C110.056 232.42 111.34 231.433 111.34 231.433C109.167 232.963 110.993 233.902 111.437 234.593C111.882 235.284 151.536 247.038 155.488 247.236C158.814 247.403 192.181 241.824 207.107 239.074C208.03 238.904 208.882 238.746 209.653 238.597C209.795 238.036 209.92 237.494 210.036 236.964C209.303 237.065 208.549 237.166 207.776 237.266C190.548 239.529 164.03 242.229 156.872 242.493Z" fill="#C8D8F4"/>
<path d="M223.639 240.32C223.639 240.32 224.039 239.701 224.42 238.706C225.05 235.731 225.126 233.804 224.579 233.185L224.531 233.119C223.814 231.944 223.012 230.79 222.138 229.668C219.021 228.498 215.237 227.164 210.986 225.833C210.986 225.833 211.532 230.136 210.039 236.964C209.922 237.494 209.795 238.039 209.655 238.597C208.901 241.572 207.768 244.952 206.069 248.618C199.935 261.851 185.909 284.966 180.774 287.931C175.64 290.89 161.019 290.696 157.269 287.931C153.516 285.165 149.568 287.682 145.614 290.08C141.663 292.472 134.949 291.485 131.196 285.361C127.509 279.345 118.125 262.438 117.797 261.848L123.132 275.298C126.967 282.876 130.664 288.921 132.715 292.274C133.66 293.817 134.229 294.748 134.387 295.13C135.226 297.144 145.598 299.544 152.18 300.182C157.47 300.693 185.66 299.639 196.193 297.615C198.874 294.179 214.453 273.282 223.639 240.323V240.32Z" fill="#4F4E56"/>
<path d="M139.77 210.63C139.77 210.63 120.959 219.931 120.798 226.971C120.793 227.23 120.808 227.489 120.856 227.744C122.174 234.855 126.519 230.642 129.812 227.744C130.685 226.973 132.342 225.28 134.157 223.236C139.185 217.583 145.442 209.278 139.77 210.633V210.63Z" fill="#F5EBFF"/>
<path d="M196.971 221.069C196.312 217.21 179.851 214.18 174.19 214.574C174.19 214.574 181.198 216.599 185.551 219.772C186.117 220.185 186.641 220.616 187.097 221.066C191.048 224.975 190.074 228.665 194.247 228.138C198.064 227.656 197.73 225.37 197.143 222.032C197.087 221.72 197.029 221.397 196.973 221.066L196.971 221.069Z" fill="#F5EBFF"/>
<path d="M144.216 289.672C145.296 289.251 145.201 286.271 144.375 282.063C142.631 273.16 137.624 258.76 133.564 251.479C127.583 240.76 124.254 237.234 119.02 240.519C114.351 243.449 124.117 263.526 130.635 275.897C131.071 276.725 131.495 277.519 131.897 278.273C138.302 290.252 140.853 290.982 144.216 289.675V289.672Z" fill="#F5EBFF"/>
<path d="M142.451 194.301C142.467 194.301 142.483 194.301 142.501 194.301C142.697 194.28 162.265 192.202 175.013 193.075C175.262 193.091 175.487 192.901 175.505 192.647C175.521 192.393 175.331 192.173 175.077 192.154C162.247 191.27 142.599 193.361 142.404 193.382C142.149 193.409 141.967 193.636 141.996 193.891C142.022 194.126 142.221 194.303 142.454 194.303L142.451 194.301Z" fill="#F5EBFF"/>
<path d="M215.715 266.763C215.919 266.271 216.12 265.779 216.324 265.284C216.623 264.553 216.92 263.817 217.216 263.082C218.42 260.072 220.175 255.555 221.784 250.897C223.47 246.019 224.997 240.988 225.568 237.375C225.931 235.08 225.91 233.357 225.298 232.611C224.788 231.775 224.232 230.954 223.644 230.144C222.377 228.403 220.94 226.72 219.394 225.113C208.493 213.78 192.207 206.065 192.017 205.989C191.527 205.785 191.511 204.962 191.543 203.628C191.556 203.008 191.572 202.368 191.508 201.725C191.448 201.124 191.731 200.814 192.334 200.47C192.525 200.362 192.744 200.251 192.998 200.124C193.469 199.891 193.978 199.637 194.459 199.287C194.525 199.248 194.576 199.205 194.613 199.171C194.877 198.964 195.129 198.729 195.362 198.443C196.182 197.424 196.463 195.947 196.111 194.492C195.745 192.986 194.764 191.776 193.414 191.175L193.353 191.154C190.063 190.212 180.896 189.95 171.112 190.008C170.972 190.008 170.832 190.008 170.689 190.008C157.147 190.098 142.576 190.789 140.876 191.141C137.963 191.744 138.616 195.884 138.831 197.244C138.857 197.403 138.876 197.517 138.878 197.57C138.878 197.797 138.878 198.403 142.142 200.619C143.282 201.391 143.912 201.82 142.668 205.676C142.602 205.854 141.972 206.224 141.374 206.436L141.332 206.454C140.63 206.785 139.344 207.484 137.677 208.46C137.047 208.828 136.364 209.236 135.637 209.681C135.478 209.776 135.319 209.874 135.158 209.974C126.175 215.495 111.183 225.968 109.024 233.344L109 233.424L109.005 233.506C110.699 258.05 126.676 284.17 131.926 292.753C132.784 294.156 133.403 295.167 133.535 295.484C134.094 296.824 137.15 298.041 140.747 299.007C144.769 300.087 149.464 300.846 152.09 301.101C152.907 301.18 154.363 301.22 156.279 301.22C168.228 301.22 197.968 299.708 200.657 297.017L200.694 296.977C201.732 295.659 203.079 293.462 204.619 290.633C206.763 286.69 209.282 281.513 211.868 275.725C213.077 273.017 214.302 270.177 215.509 267.269C215.578 267.102 215.647 266.933 215.715 266.766V266.763ZM196.19 297.615C185.657 299.637 157.467 300.693 152.177 300.182C145.595 299.544 135.224 297.144 134.385 295.13C134.226 294.749 133.657 293.817 132.712 292.274C130.661 288.921 126.964 282.876 123.129 275.299C123.111 275.262 123.09 275.222 123.071 275.185C117.172 263.505 110.964 248.218 109.932 233.524C110.276 232.402 110.953 231.184 111.885 229.911C118.308 221.13 136.851 209.604 141.71 207.296C142.033 207.18 142.869 206.843 143.309 206.354C145.111 206.873 154.125 209.252 167.815 209.252C174.037 209.252 181.227 208.757 189.14 207.375C189.484 207.315 189.828 207.256 190.177 207.193C190.707 207.095 191.241 206.994 191.778 206.888C192.244 207.111 194.078 208.003 196.693 209.461C197.174 209.728 197.68 210.014 198.209 210.321C203.256 213.227 210.362 217.795 216.388 223.435C218.357 225.28 220.209 227.236 221.839 229.289C221.94 229.417 222.04 229.541 222.138 229.668C223.012 230.793 223.814 231.944 224.531 233.119L224.578 233.185C225.126 233.805 225.05 235.734 224.42 238.706C223.313 243.928 220.503 252.387 216.361 262.735C210.309 277.853 203.428 291.988 199.988 296.379C199.522 296.821 198.164 297.234 196.193 297.615H196.19ZM140.273 192.456C140.305 192.425 140.339 192.395 140.376 192.366C140.564 192.213 140.792 192.099 141.064 192.043C141.221 192.012 141.501 191.975 141.882 191.938C144.587 191.67 152.637 191.294 161.641 191.091C168.783 190.929 176.522 190.874 182.667 191.067C184.225 191.114 185.681 191.181 187.001 191.263C188.902 191.382 190.516 191.541 191.733 191.742C192.249 191.826 192.697 191.922 193.062 192.025C194.134 192.512 194.914 193.486 195.208 194.701C195.489 195.863 195.272 197.072 194.639 197.855C194.443 198.099 194.221 198.303 193.985 198.483C193.723 198.66 191.993 198.647 186.877 196.561C182.955 194.963 150.565 195.828 147.164 197.133C146.008 197.578 144.743 197.715 143.579 197.707C142.605 197.699 141.702 197.588 140.993 197.464C140.453 197.368 140.024 197.268 139.765 197.202C139.76 197.167 139.754 197.136 139.749 197.096C139.709 196.836 139.649 196.458 139.604 196.021C139.484 194.836 139.479 193.229 140.278 192.454L140.273 192.456ZM145.825 198.456C146.386 198.356 146.947 198.207 147.493 197.998C148.302 197.689 150.473 197.421 153.402 197.21C155.355 197.069 157.65 196.953 160.103 196.86C167.931 196.572 177.387 196.556 182.682 196.897C184.606 197.022 185.983 197.194 186.53 197.416C189.439 198.602 191.281 199.142 192.464 199.353C191.45 199.856 190.452 200.409 190.593 201.81C190.651 202.397 190.638 203.006 190.622 203.599C190.598 204.557 190.579 205.475 190.902 206.118C187.34 206.796 183.921 207.291 180.663 207.64C170.376 208.738 161.701 208.368 155.305 207.64C149.057 206.928 144.984 205.872 143.698 205.51C144.825 201.804 144.235 200.92 142.668 199.856C141.766 199.242 141.099 198.737 140.636 198.348C141.911 198.589 143.872 198.811 145.831 198.459L145.825 198.456Z" fill="#3A3A3A"/>
</g>
</g>
<defs>
<clipPath id="clip0_71_123">
<rect width="337" height="281" fill="white" transform="translate(20 22)"/>
</clipPath>
<clipPath id="clip1_71_123">
<rect width="142.638" height="113.705" fill="white" transform="translate(109 190)"/>
</clipPath>
</defs>
</svg>
