<svg width="368" height="1130" viewBox="0 0 368 1130" fill="none" xmlns="http://www.w3.org/2000/svg">
<path d="M26.1294 0H50.8293C52.0667 0.937012 53.268 1.94629 54.3733 3.09961C54.4574 3.18359 83.1937 4.69727 87.2783 0H136.63C139.201 2.22266 144.571 5.23779 147.887 1.77783C158.134 4.03662 164.117 2.66699 168.238 0H191.964C192.721 1.36963 194.091 2.75098 196.397 4.08447C208.423 -2.8584 214.708 4.24121 215.508 5.14551C215.561 5.20508 215.59 5.23779 215.595 5.23779C216.22 3.2915 216.796 1.51367 217.325 0H332.967C332.531 5.89893 333.352 5.51025 336.412 4.06104C338.918 2.875 342.924 0.978027 348.969 1.2373C348.969 1.2373 349.004 1.20264 349.077 1.15234C349.117 1.12402 349.169 1.09131 349.233 1.05713C360.01 4.28906 367.902 14.3203 367.902 26.0693V117.36C360.899 127.908 355.973 142.589 356.55 143.526C367.536 161.02 365.763 166.63 364.092 171.918C362.675 176.403 361.332 180.655 367.902 191.724C367.902 191.724 366.979 277.987 366.97 341.056C361.289 345.561 361.404 352.268 361.502 358.002C361.514 358.731 361.526 359.444 361.526 360.134C367.942 365.315 365.379 371.016 363.688 374.777C362.822 376.702 362.185 378.119 363.096 378.699C367.155 381.317 365.389 382.663 363.57 384.05C362.145 385.136 360.687 386.247 361.975 388.013C369.352 398.083 366.802 397.396 363.687 396.556C361.198 395.885 358.347 395.116 359.909 399.658C363.216 400.339 358.547 405.336 358.491 405.393C356.833 406.564 359.351 412.684 366.393 416.375C364.983 417.178 362.354 419.017 357.5 426.5C359.438 429.14 361.364 430.296 363.113 431.347C364.974 432.464 366.636 433.463 367.902 436V807.958C352.561 819.395 331.55 836.827 341.437 839.71C354.453 843.486 354.944 845.577 355.372 847.401C355.789 849.174 356.146 850.697 367.902 853.273V1103.88C367.902 1118.25 356.153 1130 341.833 1130H189.345C185.669 1122.16 178.617 1114.84 174.533 1117.72C172.085 1119.49 170.868 1119.13 169.894 1118.84C169.105 1118.61 168.476 1118.42 167.481 1119.45C159.376 1127.89 152.937 1126.97 145.855 1125.95C142.398 1125.46 138.788 1124.94 134.756 1125.48C118.031 1127.69 118.112 1128 118.457 1129.35C118.507 1129.54 118.562 1129.76 118.574 1130H26.1294C11.7612 1130 0.0120134 1118.25 0.0120134 1103.88V1102.46C8.05677 1098.64 4.15187 1095.6 2.46574 1094.29C2.09721 1094 1.83468 1093.79 1.82606 1093.68C1.69391 1092 1.03316 1090.98 0.0120134 1090.4V848.635L1.56176 848.143C6.61946 846.677 7.85685 839.721 7.23215 839.192C3.47935 835.848 3.50562 828.328 3.50994 827.089C3.51033 826.979 3.51054 826.918 3.50795 826.915C2.89466 825.934 2.505 825.631 2.25743 825.439C2.16833 825.37 2.09763 825.315 2.04154 825.248C1.82606 824.99 1.82606 824.552 1.82606 822.434C1.59475 822.37 1.36787 822.313 1.14797 822.258L1.13754 822.255C0.733171 822.153 0.352638 822.057 0.0120134 821.941V412.635L1.56174 412.143C6.61943 410.677 7.85683 403.721 7.23212 403.192C3.47931 399.848 3.50559 392.328 3.50992 391.089C3.51031 390.979 3.51052 390.918 3.50793 390.915C2.8954 389.935 2.50595 389.633 2.25834 389.439C2.16915 389.37 2.09765 389.315 2.04152 389.248C1.82603 388.99 1.82603 388.552 1.82603 386.434C1.6608 386.388 1.49782 386.346 1.33804 386.306L1.14752 386.258C0.739434 386.155 0.35544 386.058 0.0120134 385.941V177.356C10.5933 170.652 10.4065 159.732 10.2485 150.496C10.2298 149.403 10.2115 148.334 10.2115 147.298C0.587627 139.526 4.43228 130.976 6.96926 125.333C8.26742 122.446 9.22319 120.321 7.85685 119.451C1.76775 115.523 4.41766 113.504 7.14622 111.424L7.14726 111.423C9.28489 109.793 11.4701 108.128 9.53875 105.479C-1.52691 90.373 2.29732 91.4043 6.97079 92.6646C10.7045 93.6714 14.9804 94.8242 12.6382 88.0112C7.67665 86.9902 14.6805 79.4937 14.7646 79.4097C17.4677 77.4995 12.7704 66.8193 0 61.5815V26.0693C0.0120134 11.7012 11.7612 0 26.1294 0Z" fill="#FFD8A8"/>
</svg>
