<?xml version="1.0" encoding="UTF-8"?>
<svg id="Layer_1" data-name="Layer 1" xmlns="http://www.w3.org/2000/svg" version="1.1" viewBox="0 0 128 128">
  <defs>
    <style>
      .cls-1 {
        fill: #fff;
        stroke: #054949;
        stroke-miterlimit: 10;
        stroke-width: 1.72px;
      }
    </style>
  </defs>
  <path class="cls-1" d="M116.71,93.22c-.89,2.21-1.73,4.5-2.72,6.72-3.24,7.28-7.73,13.77-13.04,19.68-2.27,2.53-4.91,4.61-8.15,5.83-3.43,1.29-6.89,1.14-10.33.09-2.37-.73-4.68-1.65-7.04-2.45-3.26-1.11-6.59-1.78-10.06-1.59-3.15.17-6.18.91-9.12,2.03-2.72,1.03-5.43,2.08-8.31,2.68-4.37.91-8.21-.26-11.7-2.86-3.58-2.67-6.37-6.08-9.05-9.6-3.69-4.83-6.83-9.97-9.27-15.55-2.84-6.48-4.93-13.19-5.93-20.2-1.11-7.8-1.08-15.59,1.39-23.17,2.93-8.98,8.34-15.94,16.91-20.23,4.59-2.3,9.45-3.4,14.58-3.11,3.34.19,6.5,1.25,9.64,2.34,2.59.9,5.21,1.75,7.79,2.67,2.13.76,4.15.28,6.18-.41,3.61-1.24,7.21-2.5,10.85-3.62,4.17-1.29,8.42-1.68,12.79-1.02,4.41.66,8.6,1.88,12.47,4.12,3.48,2.02,6.35,4.7,8.71,8.08-9.7,5.87-14.69,14.34-13.88,25.76.81,11.4,7.2,18.91,17.28,23.85Z"/>
  <path class="cls-1" d="M90.19,1.51c0,1.7.13,3.36-.02,5-.52,5.73-3.01,10.62-6.68,14.95-2.67,3.16-5.76,5.85-9.53,7.66-3.07,1.47-6.31,2.17-9.78,1.88-.31-1.73-.23-3.47.01-5.2.86-6.14,3.7-11.32,7.91-15.76,2.76-2.92,6.13-4.98,9.82-6.54,2.42-1.02,4.91-1.73,7.53-1.98.21-.02.42,0,.74,0Z"/>
</svg>