<svg width="59" height="67" viewBox="0 0 59 67" fill="none" xmlns="http://www.w3.org/2000/svg">
<g clip-path="url(#clip0_153_3322)">
<g style="mix-blend-mode:multiply" opacity="0.3">
<path d="M29.46 66.41C45.7303 66.41 58.92 53.2203 58.92 36.95C58.92 20.6797 45.7303 7.48999 29.46 7.48999C13.1897 7.48999 0 20.6797 0 36.95C0 53.2203 13.1897 66.41 29.46 66.41Z" fill="black"/>
</g>
<path d="M29.46 63.91C45.7303 63.91 58.92 50.7203 58.92 34.45C58.92 18.1797 45.7303 4.98999 29.46 4.98999C13.1897 4.98999 0 18.1797 0 34.45C0 50.7203 13.1897 63.91 29.46 63.91Z" fill="#80932F"/>
<path d="M29.46 58.92C45.7303 58.92 58.92 45.7303 58.92 29.46C58.92 13.1897 45.7303 0 29.46 0C13.1897 0 0 13.1897 0 29.46C0 45.7303 13.1897 58.92 29.46 58.92Z" fill="#F1FFA1"/>
<path d="M29.46 61.41C45.7303 61.41 58.92 48.2203 58.92 31.95C58.92 15.6797 45.7303 2.48999 29.46 2.48999C13.1897 2.48999 0 15.6797 0 31.95C0 48.2203 13.1897 61.41 29.46 61.41Z" fill="#CCE561"/>
<path d="M29.46 56.42C15.97 56.42 5 45.45 5 31.96C5 18.47 15.97 7.48999 29.46 7.48999C42.95 7.48999 53.92 18.46 53.92 31.95C53.92 45.44 42.95 56.41 29.46 56.41V56.42Z" fill="#B3CE4A"/>
<g style="mix-blend-mode:multiply" opacity="0.3">
<path d="M37.5702 34.4501L41.8002 30.5301C44.0302 28.4601 44.1702 24.9701 42.0902 22.7301C40.0202 20.5001 36.5302 20.3601 34.2902 22.4401L29.4502 26.9301L24.6102 22.4401C22.3802 20.3701 18.8802 20.5001 16.8102 22.7301C14.7402 24.9601 14.8702 28.4601 17.1002 30.5301L21.3302 34.4501L17.1002 38.3701C14.8702 40.4401 14.7302 43.9301 16.8102 46.1701C18.8802 48.4001 22.3702 48.5401 24.6102 46.4601L29.4502 41.9701L34.2902 46.4601C36.5202 48.5301 40.0202 48.4001 42.0902 46.1701C44.1602 43.9401 44.0302 40.4401 41.8002 38.3701L37.5702 34.4501Z" fill="black"/>
</g>
<path d="M37.5702 31.9501L41.8002 28.0301C44.0302 25.9601 44.1702 22.4701 42.0902 20.2301C40.0202 18.0001 36.5302 17.8601 34.2902 19.9401L29.4502 24.4301L24.6102 19.9401C22.3802 17.8701 18.8802 18.0001 16.8102 20.2301C14.7402 22.4601 14.8702 25.9601 17.1002 28.0301L21.3302 31.9501L17.1002 35.8701C14.8702 37.9401 14.7302 41.4301 16.8102 43.6701C18.8802 45.9001 22.3702 46.0401 24.6102 43.9601L29.4502 39.4701L34.2902 43.9601C36.5202 46.0301 40.0202 45.9001 42.0902 43.6701C44.1602 41.4401 44.0302 37.9401 41.8002 35.8701L37.5702 31.9501Z" fill="#E3FFB8"/>
</g>
<defs>
<clipPath id="clip0_153_3322">
<rect width="58.91" height="66.41" fill="white"/>
</clipPath>
</defs>
</svg>
