<svg width="1377" height="1025" viewBox="0 0 1377 1025" fill="none" xmlns="http://www.w3.org/2000/svg">
<path d="M1308.49 19H68.509C30.6734 19 0 49.6822 0 87.5427V955.931C0 993.786 30.6734 1024.47 68.509 1024.47H1308.49C1346.33 1024.47 1377 993.786 1377 955.931V87.5427C1377 49.6884 1346.33 19 1308.49 19ZM110.243 80.757H66.9333V48.3612H110.243V80.757ZM195.581 80.757H152.271V48.3612H195.581V80.757ZM281.342 80.757H238.031V48.3612H281.342V80.757ZM367.102 80.757H323.792V48.3612H367.102V80.757ZM452.863 80.757H409.553V48.3612H452.863V80.757ZM538.624 80.757H495.314V48.3612H538.624V80.757ZM624.385 80.757H581.075V48.3612H624.385V80.757ZM710.146 80.757H666.836V48.3612H710.146V80.757ZM795.907 80.757H752.596V48.3612H795.907V80.757ZM881.667 80.757H838.357V48.3612H881.667V80.757ZM967.428 80.757H924.118V48.3612H967.428V80.757ZM1053.19 80.757H1009.88V48.3612H1053.19V80.757ZM1138.95 80.757H1095.64V48.3612H1138.95V80.757ZM1224.71 80.757H1181.4V48.3612H1224.71V80.757ZM1310.05 80.757H1266.74V48.3612H1310.05V80.757Z" fill="#FCF8EB"/>
<path d="M83.5967 60.4235C83.5967 63.6263 80.9996 66.2247 77.7984 66.2247C74.5971 66.2247 72 63.6263 72 60.4235V5.80121C72 2.59839 74.5971 0 77.7984 0C80.9996 0 83.5967 2.59839 83.5967 5.80121V60.4235Z" fill="#C8C9CB"/>
<path d="M106.79 60.4235C106.79 63.6263 104.193 66.2247 100.992 66.2247C97.7905 66.2247 95.1934 63.6263 95.1934 60.4235V5.80121C95.1934 2.59839 97.7905 0 100.992 0C104.193 0 106.79 2.59839 106.79 5.80121V60.4235Z" fill="#C8C9CB"/>
<path d="M169.251 60.4235C169.251 63.6263 166.654 66.2247 163.453 66.2247C160.252 66.2247 157.655 63.6263 157.655 60.4235V5.80121C157.655 2.59839 160.252 0 163.453 0C166.654 0 169.251 2.59839 169.251 5.80121V60.4235Z" fill="#C8C9CB"/>
<path d="M192.445 60.4235C192.445 63.6263 189.848 66.2247 186.646 66.2247C183.445 66.2247 180.848 63.6263 180.848 60.4235V5.80121C180.848 2.59839 183.445 0 186.646 0C189.848 0 192.445 2.59839 192.445 5.80121V60.4235Z" fill="#C8C9CB"/>
<path d="M254.9 60.4235C254.9 63.6263 252.303 66.2247 249.102 66.2247C245.901 66.2247 243.304 63.6263 243.304 60.4235V5.80121C243.304 2.59839 245.901 0 249.102 0C252.303 0 254.9 2.59839 254.9 5.80121V60.4235Z" fill="#C8C9CB"/>
<path d="M278.094 60.4235C278.094 63.6263 275.497 66.2247 272.295 66.2247C269.094 66.2247 266.497 63.6263 266.497 60.4235V5.80121C266.497 2.59839 269.094 0 272.295 0C275.497 0 278.094 2.59839 278.094 5.80121V60.4235Z" fill="#C8C9CB"/>
<path d="M340.549 60.4235C340.549 63.6263 337.952 66.2247 334.751 66.2247C331.549 66.2247 328.952 63.6263 328.952 60.4235V5.80121C328.952 2.59839 331.549 0 334.751 0C337.952 0 340.549 2.59839 340.549 5.80121V60.4235Z" fill="#C8C9CB"/>
<path d="M363.749 60.4235C363.749 63.6263 361.151 66.2247 357.95 66.2247C354.749 66.2247 352.152 63.6263 352.152 60.4235V5.80121C352.152 2.59839 354.749 0 357.95 0C361.151 0 363.749 2.59839 363.749 5.80121V60.4235Z" fill="#C8C9CB"/>
<path d="M426.204 60.4235C426.204 63.6263 423.607 66.2247 420.406 66.2247C417.205 66.2247 414.607 63.6263 414.607 60.4235V5.80121C414.607 2.59839 417.205 0 420.406 0C423.607 0 426.204 2.59839 426.204 5.80121V60.4235Z" fill="#C8C9CB"/>
<path d="M449.397 60.4235C449.397 63.6263 446.8 66.2247 443.599 66.2247C440.398 66.2247 437.801 63.6263 437.801 60.4235V5.80121C437.801 2.59839 440.398 0 443.599 0C446.8 0 449.397 2.59839 449.397 5.80121V60.4235Z" fill="#C8C9CB"/>
<path d="M511.859 60.4235C511.859 63.6263 509.262 66.2247 506.061 66.2247C502.859 66.2247 500.262 63.6263 500.262 60.4235V5.80121C500.262 2.59839 502.859 0 506.061 0C509.262 0 511.859 2.59839 511.859 5.80121V60.4235Z" fill="#C8C9CB"/>
<path d="M535.052 60.4235C535.052 63.6263 532.455 66.2247 529.254 66.2247C526.053 66.2247 523.456 63.6263 523.456 60.4235V5.80121C523.456 2.59839 526.053 0 529.254 0C532.455 0 535.052 2.59839 535.052 5.80121V60.4235Z" fill="#C8C9CB"/>
<path d="M597.508 60.4235C597.508 63.6263 594.911 66.2247 591.709 66.2247C588.508 66.2247 585.911 63.6263 585.911 60.4235V5.80121C585.911 2.59839 588.508 0 591.709 0C594.911 0 597.508 2.59839 597.508 5.80121V60.4235Z" fill="#C8C9CB"/>
<path d="M620.701 60.4235C620.701 63.6263 618.104 66.2247 614.903 66.2247C611.702 66.2247 609.104 63.6263 609.104 60.4235V5.80121C609.104 2.59839 611.702 0 614.903 0C618.104 0 620.701 2.59839 620.701 5.80121V60.4235Z" fill="#C8C9CB"/>
<path d="M683.163 60.4235C683.163 63.6263 680.565 66.2247 677.364 66.2247C674.163 66.2247 671.566 63.6263 671.566 60.4235V5.80121C671.566 2.59839 674.163 0 677.364 0C680.565 0 683.163 2.59839 683.163 5.80121V60.4235Z" fill="#C8C9CB"/>
<path d="M706.356 60.4235C706.356 63.6263 703.759 66.2247 700.558 66.2247C697.356 66.2247 694.759 63.6263 694.759 60.4235V5.80121C694.759 2.59839 697.356 0 700.558 0C703.759 0 706.356 2.59839 706.356 5.80121V60.4235Z" fill="#C8C9CB"/>
<path d="M683.717 60.4235C683.717 63.6263 681.12 66.2247 677.918 66.2247C674.717 66.2247 672.12 63.6263 672.12 60.4235V5.80121C672.12 2.59839 674.717 0 677.918 0C681.12 0 683.717 2.59839 683.717 5.80121V60.4235Z" fill="#C8C9CB"/>
<path d="M706.91 60.4235C706.91 63.6263 704.313 66.2247 701.112 66.2247C697.911 66.2247 695.313 63.6263 695.313 60.4235V5.80121C695.313 2.59839 697.911 0 701.112 0C704.313 0 706.91 2.59839 706.91 5.80121V60.4235Z" fill="#C8C9CB"/>
<path d="M769.372 60.4235C769.372 63.6263 766.774 66.2247 763.573 66.2247C760.372 66.2247 757.775 63.6263 757.775 60.4235V5.80121C757.775 2.59839 760.372 0 763.573 0C766.774 0 769.372 2.59839 769.372 5.80121V60.4235Z" fill="#C8C9CB"/>
<path d="M792.565 60.4235C792.565 63.6263 789.968 66.2247 786.767 66.2247C783.565 66.2247 780.968 63.6263 780.968 60.4235V5.80121C780.968 2.59839 783.565 0 786.767 0C789.968 0 792.565 2.59839 792.565 5.80121V60.4235Z" fill="#C8C9CB"/>
<path d="M855.021 60.4235C855.021 63.6263 852.423 66.2247 849.222 66.2247C846.021 66.2247 843.424 63.6263 843.424 60.4235V5.80121C843.424 2.59839 846.021 0 849.222 0C852.423 0 855.021 2.59839 855.021 5.80121V60.4235Z" fill="#C8C9CB"/>
<path d="M878.214 60.4235C878.214 63.6263 875.617 66.2247 872.416 66.2247C869.214 66.2247 866.617 63.6263 866.617 60.4235V5.80121C866.617 2.59839 869.214 0 872.416 0C875.617 0 878.214 2.59839 878.214 5.80121V60.4235Z" fill="#C8C9CB"/>
<path d="M940.675 60.4235C940.675 63.6263 938.078 66.2247 934.877 66.2247C931.676 66.2247 929.079 63.6263 929.079 60.4235V5.80121C929.079 2.59839 931.676 0 934.877 0C938.078 0 940.675 2.59839 940.675 5.80121V60.4235Z" fill="#C8C9CB"/>
<path d="M963.869 60.4235C963.869 63.6263 961.272 66.2247 958.07 66.2247C954.869 66.2247 952.272 63.6263 952.272 60.4235V5.80121C952.272 2.59839 954.869 0 958.07 0C961.272 0 963.869 2.59839 963.869 5.80121V60.4235Z" fill="#C8C9CB"/>
<path d="M1026.32 60.4235C1026.32 63.6263 1023.73 66.2247 1020.53 66.2247C1017.32 66.2247 1014.73 63.6263 1014.73 60.4235V5.80121C1014.73 2.59839 1017.32 0 1020.53 0C1023.73 0 1026.32 2.59839 1026.32 5.80121V60.4235Z" fill="#C8C9CB"/>
<path d="M1049.52 60.4235C1049.52 63.6263 1046.92 66.2247 1043.72 66.2247C1040.52 66.2247 1037.92 63.6263 1037.92 60.4235V5.80121C1037.92 2.59839 1040.52 0 1043.72 0C1046.92 0 1049.52 2.59839 1049.52 5.80121V60.4235Z" fill="#C8C9CB"/>
<path d="M1111.98 60.4235C1111.98 63.6263 1109.38 66.2247 1106.18 66.2247C1102.98 66.2247 1100.38 63.6263 1100.38 60.4235V5.80121C1100.38 2.59839 1102.98 0 1106.18 0C1109.38 0 1111.98 2.59839 1111.98 5.80121V60.4235Z" fill="#C8C9CB"/>
<path d="M1135.17 60.4235C1135.17 63.6263 1132.58 66.2247 1129.37 66.2247C1126.17 66.2247 1123.58 63.6263 1123.58 60.4235V5.80121C1123.58 2.59839 1126.17 0 1129.37 0C1132.58 0 1135.17 2.59839 1135.17 5.80121V60.4235Z" fill="#C8C9CB"/>
<path d="M1197.63 60.4235C1197.63 63.6263 1195.03 66.2247 1191.83 66.2247C1188.63 66.2247 1186.03 63.6263 1186.03 60.4235V5.80121C1186.03 2.59839 1188.63 0 1191.83 0C1195.03 0 1197.63 2.59839 1197.63 5.80121V60.4235Z" fill="#C8C9CB"/>
<path d="M1220.82 60.4235C1220.82 63.6263 1218.22 66.2247 1215.02 66.2247C1211.82 66.2247 1209.22 63.6263 1209.22 60.4235V5.80121C1209.22 2.59839 1211.82 0 1215.02 0C1218.22 0 1220.82 2.59839 1220.82 5.80121V60.4235Z" fill="#C8C9CB"/>
<path d="M1283.28 60.4235C1283.28 63.6263 1280.69 66.2247 1277.48 66.2247C1274.28 66.2247 1271.69 63.6263 1271.69 60.4235V5.80121C1271.69 2.59839 1274.28 0 1277.48 0C1280.69 0 1283.28 2.59839 1283.28 5.80121V60.4235Z" fill="#C8C9CB"/>
<path d="M1306.48 60.4235C1306.48 63.6263 1303.88 66.2247 1300.68 66.2247C1297.48 66.2247 1294.88 63.6263 1294.88 60.4235V5.80121C1294.88 2.59839 1297.48 0 1300.68 0C1303.88 0 1306.48 2.59839 1306.48 5.80121V60.4235Z" fill="#C8C9CB"/>
</svg>
