<svg width="102" height="72" viewBox="0 0 102 72" fill="none" xmlns="http://www.w3.org/2000/svg">
<path d="M11.0811 59.0702C11.0811 59.0702 5.99451 34.7534 14.5629 29.3388C20.2901 25.7196 26.3603 33.6982 33.6055 29.4771C40.0561 25.7192 33.8584 15.959 41.8257 13.7772C53.0216 10.711 62.5989 32.8198 71.898 29.3388C86.6667 23.81 97.9862 32.9816 88.0847 59.1166L11.0811 59.0702Z" fill="#D4E8FF"/>
<path d="M46.3827 4.33047L46.2969 4.72116C46.8975 4.80788 47.4904 4.97832 48.0597 5.22776L48.2919 4.87829C47.6767 4.6091 47.0344 4.42492 46.3827 4.33047ZM44.3516 4.31201C43.6728 4.39702 43.0345 4.59236 42.4553 4.89374L42.7189 5.22776C43.2405 4.95728 43.8145 4.78083 44.4259 4.70441L44.3516 4.31201ZM51.1671 6.89481C51.1332 6.86047 51.098 6.82698 51.0636 6.79349C50.8181 6.55651 50.5695 6.33541 50.3179 6.13148C50.1891 6.02672 50.0599 5.92669 49.9302 5.83138L49.6022 6.1259C49.7203 6.21219 49.8379 6.30321 49.9555 6.39852C50.1942 6.59085 50.4312 6.79993 50.6648 7.02447C50.7081 7.06611 50.7515 7.10819 50.7944 7.15155C50.8339 7.19062 50.8734 7.23011 50.9125 7.26961L51.295 7.02232C51.2521 6.97982 51.21 6.93689 51.1671 6.89481ZM40.9711 6.01041C40.5903 6.40324 40.234 6.86991 39.9128 7.39755L40.3516 7.57314C40.6573 7.06998 40.9952 6.62692 41.3554 6.25555L40.9711 6.01041ZM53.1725 9.34109C52.932 8.98948 52.6886 8.65589 52.4465 8.34506L52.2799 8.4305L52.033 8.55715C52.1112 8.65718 52.1893 8.75979 52.2674 8.86497C52.4293 9.08221 52.5912 9.30932 52.7522 9.54459C52.838 9.67038 52.9235 9.79875 53.0089 9.92883L53.4408 9.74251C53.3519 9.60641 53.2626 9.47246 53.1725 9.34109ZM39.1547 8.89846C38.9546 9.37372 38.7666 9.89577 38.5961 10.4496L39.0705 10.5462C39.2375 10.0031 39.4217 9.49178 39.6175 9.02726L39.1547 8.89846ZM54.3213 11.1855L53.8778 11.352C54.1371 11.8071 54.402 12.2978 54.6648 12.8104L55.116 12.658C54.8511 12.1407 54.5832 11.6448 54.3213 11.1855ZM38.1745 12.0252C38.0595 12.5232 37.9504 13.0577 37.8517 13.6133L38.3355 13.6699C38.4334 13.12 38.5412 12.5915 38.6554 12.0986L38.1745 12.0252ZM56.5276 15.644C56.3696 15.2863 56.2176 14.9493 56.0682 14.6243C55.9944 14.4638 55.921 14.3058 55.8476 14.1504L55.5827 14.2324L55.3908 14.2916C55.5771 14.6879 55.7643 15.097 55.96 15.5353C55.997 15.6182 56.0339 15.7019 56.0717 15.7869L56.5319 15.653C56.5306 15.6504 56.5289 15.647 56.5276 15.644ZM37.601 15.2073C37.531 15.7109 37.4649 16.2485 37.4035 16.8053L37.8907 16.8401C37.9517 16.2867 38.0174 15.7522 38.0865 15.2516L37.601 15.2073ZM79.9085 16.7332L79.863 17.1286C80.4662 17.1741 81.0792 17.3024 81.685 17.5094L81.8752 17.144C81.2235 16.9208 80.5615 16.783 79.9085 16.7332ZM77.8752 16.9191C77.2789 17.0762 76.6714 17.3291 76.0708 17.6708L76.3511 17.9958C76.9127 17.6772 77.4764 17.442 78.0263 17.2964L77.8752 16.9191ZM57.6207 18.2126C57.461 17.8266 57.3193 17.4875 57.1845 17.1676L56.7217 17.2964C56.8951 17.7064 57.0793 18.1495 57.2987 18.681C57.3167 18.7235 57.3343 18.7673 57.3528 18.8111L57.8164 18.6853C57.7477 18.5196 57.6829 18.3629 57.6207 18.2126ZM83.6247 17.958L83.3371 18.2787C83.8273 18.5689 84.315 18.9141 84.7852 19.3052L85.1355 19.0283C84.6456 18.6209 84.1373 18.2607 83.6247 17.958ZM16.31 19.0858L16.2439 19.4791C16.817 19.5426 17.4172 19.6998 18.0273 19.9466L18.245 19.5916C17.5872 19.3258 16.9364 19.1554 16.31 19.0858ZM37.2468 18.4049C37.203 18.9055 37.1605 19.4293 37.1184 20.0059L37.6065 20.0295C37.6486 19.4546 37.6903 18.9321 37.7345 18.4333L37.2468 18.4049ZM74.542 18.7282C74.1066 19.0815 73.6726 19.4765 73.2141 19.9359L73.5936 20.1853C74.0414 19.7371 74.4647 19.352 74.888 19.0081L74.542 18.7282ZM14.263 19.2168C13.6491 19.3696 13.0412 19.6302 12.4577 19.9917L12.7539 20.3073C13.2919 19.9745 13.8479 19.7354 14.4064 19.5963L14.263 19.2168ZM86.4329 20.2592L86.0426 20.4987C86.417 20.9002 86.7841 21.3389 87.1344 21.803L87.5513 21.5952C87.1932 21.1204 86.8167 20.6709 86.4329 20.2592ZM19.9412 20.4687L19.6433 20.783C20.1125 21.0762 20.6037 21.4248 21.1034 21.8198L21.4443 21.5351C20.9312 21.1298 20.4259 20.7709 19.9412 20.4687ZM58.4398 20.2034L57.9873 20.3257L57.9766 20.3287C57.977 20.3296 57.9774 20.3304 57.9774 20.3313C58.0805 20.5816 58.1938 20.8572 58.3127 21.144C58.408 21.3737 58.5068 21.6103 58.606 21.8472L58.949 21.7524L59.0688 21.7193C58.8447 21.1869 58.6253 20.6546 58.4398 20.2034ZM11.0096 21.1303C10.6125 21.5115 10.2162 21.9524 9.8324 22.441L10.2441 22.6544C10.6168 22.1808 10.9997 21.7541 11.3831 21.3862L11.0096 21.1303ZM72.0163 21.2213C71.6732 21.6124 71.3079 22.046 70.8996 22.5479L71.3074 22.7664C71.7127 22.2688 72.0746 21.8387 72.4147 21.4514L72.0163 21.2213ZM37.0085 21.6068C36.9737 22.1465 36.9411 22.6767 36.9076 23.2069L37.3962 23.2267C37.4288 22.6964 37.4614 22.1667 37.4962 21.6274L37.0085 21.6068ZM22.8134 22.7055L22.4472 22.9686C22.8529 23.34 23.2659 23.7375 23.7094 24.1845L24.0902 23.9355C23.642 23.4838 23.2247 23.0811 22.8134 22.7055ZM88.5198 23.003L88.0841 23.1829C88.3691 23.6384 88.6473 24.1209 88.9105 24.6177L89.3596 24.461C89.0925 23.9561 88.8101 23.4654 88.5198 23.003ZM59.7183 23.2271L59.2585 23.3615C59.508 23.9226 59.7364 24.4142 59.9583 24.8649L60.4121 24.7181C60.1927 24.2712 59.966 23.7835 59.7183 23.2271ZM69.8241 23.8921C69.4609 24.3506 69.102 24.8048 68.7547 25.2337L69.1634 25.4518C69.512 25.0212 69.8714 24.5666 70.2354 24.1068L69.8241 23.8921ZM8.8411 23.8402C8.53714 24.3137 8.25121 24.7984 7.98288 25.2917L8.43024 25.4518C8.69427 24.9667 8.97547 24.4901 9.27471 24.0235L8.8411 23.8402ZM36.8063 24.8057C36.7659 25.4158 36.7281 25.9378 36.6912 26.4028L37.0836 26.4234L37.1794 26.4285C37.1819 26.3946 37.1849 26.3607 37.1871 26.3268C37.2219 25.8863 37.2571 25.3943 37.2944 24.8272L36.8063 24.8057ZM25.3065 25.202L24.9171 25.4415C25.27 25.8198 25.6426 26.2272 26.09 26.7231L26.4845 26.4886C26.0354 25.9915 25.6615 25.5823 25.3065 25.202ZM90.0886 25.9559L89.6296 26.0915C89.8469 26.5754 90.0568 27.0815 90.2543 27.5954L90.721 27.4778C90.5218 26.9579 90.3088 26.4457 90.0886 25.9559ZM61.1866 26.1757L60.7448 26.3452C61.0733 26.9089 61.3871 27.3756 61.7031 27.7715L62.1135 27.5555C61.8091 27.1747 61.506 26.7231 61.1866 26.1757ZM67.6475 26.5466C67.2426 27.0004 66.8781 27.373 66.5377 27.6813C66.5029 27.7135 66.4677 27.7444 66.4329 27.7753L66.7923 28.0445C66.8519 27.9917 66.9129 27.9372 66.9743 27.8805C67.3053 27.5748 67.6574 27.2129 68.0437 26.7797L67.6475 26.5466ZM7.23887 26.7827C7.01304 27.2786 6.79967 27.7912 6.60562 28.3064L7.07272 28.4223C7.26463 27.9144 7.47457 27.4091 7.69738 26.9201L7.23887 26.7827ZM64.9827 28.7237C64.4147 28.9418 63.8888 28.9418 63.3543 28.6679L63.0937 29.0032C63.4496 29.1852 63.8235 29.2779 64.2039 29.2779C64.5246 29.2779 64.8573 29.2123 65.1935 29.0822L64.9827 28.7237ZM27.6441 27.7839L27.2487 28.017C27.6038 28.4142 28.0159 28.8748 28.4135 29.3101L28.8063 29.074C28.41 28.64 27.9987 28.1802 27.6441 27.7839ZM36.5448 27.9969C36.4817 28.5902 36.4143 29.1084 36.3392 29.5823L36.4199 29.5909L36.8239 29.6334C36.8466 29.49 36.8685 29.3432 36.8896 29.1912C36.9398 28.8345 36.9866 28.4515 37.0317 28.0312L36.5448 27.9969ZM91.2666 29.0212L90.7939 29.123C90.9567 29.6236 91.1134 30.143 91.258 30.6672L91.735 30.5805C91.5891 30.0512 91.4315 29.5265 91.2666 29.0212ZM6.07841 29.8562C5.92257 30.3684 5.7796 30.8965 5.65252 31.4258L6.1325 31.5018C6.25787 30.9789 6.39911 30.4573 6.55324 29.952L6.07841 29.8562ZM30.7198 31.0691C30.6635 31.0146 30.606 30.9587 30.548 30.9016C30.3716 30.7278 30.1874 30.5423 29.9946 30.3431L29.6104 30.5882C29.7456 30.7278 29.8766 30.8604 30.0041 30.9879C30.0041 30.9884 30.0045 30.9888 30.0045 30.9892C30.0668 31.051 30.1273 31.1116 30.1878 31.1704C30.4308 31.4091 30.661 31.6268 30.8825 31.8273L31.2461 31.5619C31.0774 31.4087 30.9022 31.2451 30.7198 31.0691ZM36.2696 31.1893L36.0176 31.1442C36.0163 31.1502 36.0146 31.1558 36.0125 31.1614C35.9691 31.3228 35.9232 31.4752 35.8751 31.6195C35.8394 31.7277 35.8021 31.8307 35.7635 31.929C35.66 32.1939 35.5484 32.4223 35.429 32.6116L35.8643 32.7919C35.9292 32.6889 35.9914 32.5773 36.0507 32.4571C36.1765 32.2042 36.2902 31.9114 36.395 31.5753C36.4289 31.4649 36.4624 31.3494 36.4946 31.2296L36.2696 31.1893ZM33.774 33.2419C33.4018 33.1255 33.0574 32.931 32.6264 32.6576L32.3177 32.965C32.805 33.2754 33.1952 33.4922 33.6276 33.6218C33.7984 33.6733 33.9762 33.7111 34.1685 33.736L34.2205 33.3419C34.0633 33.32 33.9169 33.2865 33.774 33.2419ZM92.1334 32.151L91.653 32.2244C91.7715 32.7353 91.8836 33.2629 91.9849 33.7923L92.4679 33.7309C92.3657 33.1972 92.2532 32.6657 92.1334 32.151ZM5.32237 33.0096C5.22878 33.5308 5.14807 34.067 5.08152 34.6037L5.56838 34.6432C5.63406 34.1125 5.71392 33.5819 5.80665 33.0667L5.32237 33.0096ZM92.7439 35.3181L92.2588 35.3679C92.3395 35.8848 92.4134 36.4167 92.4786 36.9499L92.9655 36.9104C92.8993 36.3738 92.8246 35.8384 92.7439 35.3181ZM4.92482 36.2038C4.88661 36.7288 4.86042 37.2685 4.84669 37.8073L5.33568 37.8154C5.34899 37.2818 5.37518 36.7477 5.41296 36.227L4.92482 36.2038ZM93.1359 38.5062L92.6482 38.5359C92.6958 39.0575 92.7371 39.5924 92.7705 40.1252L93.2591 40.105C93.2252 39.5688 93.184 39.0313 93.1359 38.5062ZM5.33096 39.4057L4.84239 39.4117C4.85227 39.9384 4.87373 40.4777 4.90593 41.0148L5.3945 40.9954C5.3623 40.4622 5.34083 39.9273 5.33096 39.4057ZM93.3381 41.7051L92.8495 41.7167C92.868 42.2396 92.8809 42.7758 92.8865 43.3095L93.3755 43.306C93.3699 42.7694 93.357 42.231 93.3381 41.7051ZM5.52158 42.5826L5.0343 42.6148C5.08625 43.1399 5.14979 43.677 5.22277 44.2111L5.70833 44.1673C5.63664 43.6375 5.57353 43.1043 5.52158 42.5826ZM92.8843 44.9027C92.8774 45.4269 92.8646 45.9627 92.8453 46.4963L93.3338 46.5079C93.3531 45.9726 93.3664 45.4338 93.3733 44.907L92.8843 44.9027ZM5.95219 45.7472L5.46834 45.8021C5.55807 46.3246 5.65896 46.8578 5.76715 47.3868L6.24928 47.3211C6.14152 46.796 6.04149 46.2667 5.95219 45.7472ZM92.771 48.0891C92.7409 48.6142 92.7044 49.1495 92.6632 49.6806L93.1514 49.7055C93.193 49.1727 93.2295 48.6348 93.2595 48.1072L92.771 48.0891ZM6.59746 48.8885L6.11748 48.9641C6.24112 49.4836 6.3755 50.0112 6.51675 50.5337L6.99415 50.4487C6.85419 49.9296 6.72068 49.4046 6.59746 48.8885ZM92.865 51.2927L92.5237 51.2708C92.5134 51.3751 92.5026 51.4799 92.4923 51.5847C92.4494 52.0067 92.403 52.4339 92.3537 52.8589L92.8401 52.8962C92.9023 52.3634 92.9599 51.8268 93.011 51.3022L92.865 51.2927ZM7.4385 52.0002L6.96367 52.0947C7.11995 52.612 7.28566 53.1337 7.45696 53.6467L7.92879 53.5428C7.75878 53.0336 7.59349 52.5146 7.4385 52.0002ZM92.154 54.4452C92.1085 54.7814 92.0604 55.1223 92.0106 55.4632C91.9836 55.6521 91.9553 55.8405 91.9269 56.029L92.4116 56.0775C92.4404 55.8899 92.4683 55.7014 92.4962 55.5134C92.5464 55.1699 92.5945 54.8269 92.6405 54.4882L92.154 54.4452ZM8.63331 55.5288C8.57663 55.3782 8.52039 55.227 8.46501 55.0759L7.99662 55.1888C8.04943 55.3331 8.10266 55.4769 8.15676 55.6203C8.29672 55.9925 8.44011 56.3609 8.58436 56.7198L9.04889 56.5966C8.90893 56.2475 8.7694 55.8903 8.63331 55.5288Z" fill="#DCE6FF"/>
<path d="M95.5099 48.1213C91.4533 47.4692 92.1153 53.3621 86.3328 53.3621C81.0457 53.3621 79.3541 30.9197 75.5074 37.3351C55.7865 70.2237 67.2382 23.3486 51.5547 22.7527C44.4631 22.4835 39.7376 30.6861 37.995 45.2101C35.4688 58.3401 29.6107 35.1957 23.5822 37.3475C19.7505 38.7153 20.1893 53.3616 14.9026 53.3616C9.12004 53.3616 9.78206 47.4683 5.7254 48.1209C1.35747 48.8237 0.0527649 59.2545 0.0527649 59.2545H101.183C101.183 59.2545 99.8779 48.8237 95.5099 48.1213Z" fill="#EEF7FF"/>
<path d="M91.9173 54.5002C88.1852 54.2215 88.7944 56.7382 83.4742 56.7382C78.6104 56.7382 78.744 51.0986 75.4893 49.9C69.4951 47.6928 64.5536 58.8642 62.2297 53.2573C57.8158 38.3804 44.9434 30.9196 39.0046 53.2573C36.6807 58.8638 31.2463 48.8597 25.745 49.9C22.359 50.5401 22.6238 56.7382 17.7601 56.7382C12.4403 56.7382 13.0491 54.2219 9.31701 54.5002C5.29899 54.8002 4.0986 59.254 4.0986 59.254H97.1353C97.1357 59.2545 95.9357 54.8002 91.9173 54.5002Z" fill="#DCE6FF"/>
<path d="M0.0528751 59.2545C0.0528751 59.2545 -0.555904 61.5419 2.3579 62.1708C9.93415 63.8061 21.4271 61.663 13.4542 67.0187C9.56365 69.6325 31.5767 71.2557 56.9544 71.0084C85.6017 70.7294 99.8904 68.8421 90.7944 66.2327C81.6983 63.6232 103.44 64.6819 101.183 59.2545H0.0528751Z" fill="#C4D6F2"/>
<path d="M50.7866 62.1554C50.7866 62.1554 38.8 48.1179 17.9173 49.505C17.9173 49.505 31.4307 62.3409 50.7866 62.1554Z" fill="#FCB4B4"/>
<path d="M50.5505 62.1554C50.5505 62.1554 45.7108 47.5872 22.9035 38.7659C22.9035 38.7659 30.0908 54.1807 50.5505 62.1554Z" fill="#F49F9F"/>
<path d="M50.5499 62.1554C50.5499 62.1554 49.1271 43.7512 31.4317 32.5764C31.4317 32.5759 34.7959 50.908 50.5499 62.1554Z" fill="#FCB4B4"/>
<path d="M50.5497 62.1553C50.5497 62.1553 53.8607 42.856 40.1747 26.7813C40.1747 26.7813 36.6741 52.1053 50.5497 62.1553Z" fill="#F49F9F"/>
<path d="M50.5497 62.1554C50.5497 62.1554 57.6344 40.5884 50.0268 25.8961C50.0268 25.8961 43.572 46.0919 50.5497 62.1554Z" fill="#FCB4B4"/>
<path d="M50.43 62.1802C50.43 62.1802 73.3927 60.9794 83.7058 48.0418C83.7058 48.0422 62.2522 49.2594 50.43 62.1802Z" fill="#FCB4B4"/>
<path d="M50.43 62.1803C50.43 62.1803 69.4021 57.3337 78.499 38.283C78.499 38.283 53.9487 45.4127 50.43 62.1803Z" fill="#F49F9F"/>
<path d="M50.43 62.1803C50.43 62.1803 66.7433 51.9229 69.7318 31.209C69.7318 31.209 54.2762 43.2098 50.43 62.1803Z" fill="#FCB4B4"/>
<path d="M50.4298 62.1802C50.4298 62.1802 61.7583 51.8207 60.5128 27.3987C60.5133 27.3987 49.3689 40.247 50.4298 62.1802Z" fill="#F49F9F"/>
<path d="M44.9563 64.0325C44.9563 64.0325 43.7289 65.3437 42.9836 65.6708C41.9842 66.1096 39.5696 66.8377 39.0755 66.9893C37.7261 67.4027 37.8459 68.6894 39.6328 68.5074C41.8996 68.3902 45.1319 68.2644 46.6496 66.7849C48.688 65.6876 46.86 62.7107 44.9563 64.0325Z" fill="#F99370"/>
<path d="M57.0795 64.0325C57.0795 64.0325 58.307 65.3437 59.0523 65.6708C60.0517 66.1096 62.4662 66.8377 62.9604 66.9893C64.3097 67.4027 64.19 68.6894 62.4031 68.5074C60.1363 68.3902 56.9039 68.2644 55.3863 66.7849C53.3483 65.6876 55.1759 62.7107 57.0795 64.0325Z" fill="#F99370"/>
<path d="M38.7384 54.4415C38.7384 54.4415 48.536 57.1977 64.0208 54.4758C54.6178 61.1179 48.3819 63.2031 38.7384 54.4415Z" fill="#23659B"/>
<path d="M56.1768 67.705C21.7988 61.5996 32.8822 44.4224 57.9078 63.6368C58.2989 66.1633 56.1768 67.705 56.1768 67.705Z" fill="#3A72AA"/>
<path d="M56.1767 67.705C56.1384 67.7063 55.7559 67.6389 55.1184 67.508C55.1184 67.508 57.426 65.9568 57.1413 63.1061C57.6325 63.4406 57.9077 63.6364 57.9077 63.6364C58.2988 66.1633 56.1767 67.705 56.1767 67.705Z" fill="#23659B"/>
<path d="M57.5877 63.9668L56.7402 65.5214L52.213 66.8523C51.8511 66.7647 51.472 66.6707 51.0788 66.5698L57.5877 63.9668Z" fill="#23659B"/>
<path d="M46.9201 67.5315C46.3525 67.6466 46.0142 67.7058 45.9786 67.705C45.9786 67.705 43.8565 66.1637 44.2476 63.6367C68.9804 44.5847 80.0264 61.3858 46.9201 67.5315Z" fill="#3A72AA"/>
<path d="M55.7057 40.9243C60.5094 45.0638 60.4854 55.1366 69.2354 52.0605C69.2354 52.0605 70.0322 52.1245 70.1786 52.6057C70.0425 54.6454 65.9498 55.0074 64.2522 55.0713C58.222 55.1765 56.1132 47.9472 53.004 44.6212C50.577 42.9056 53.3307 39.1388 55.7057 40.9243Z" fill="#F99370"/>
<path d="M49.151 44.6215C46.0423 47.9466 43.9326 55.1781 37.9027 55.0712C36.3164 55.0442 31.5909 54.5487 32.0592 52.4206C32.2821 52.0479 32.7354 51.9196 33.1205 52.0702C41.0857 54.7514 41.5966 47.0253 45.1407 42.2877C47.3817 38.453 52.1288 41.6334 49.151 44.6215Z" fill="#F99370"/>
<path d="M69.1399 52.495C69.0717 51.5655 70.3047 50.8378 71.1496 50.8996C71.4501 50.9215 71.5214 51.2074 71.2191 51.3397C70.7937 51.5256 70.3356 51.7595 70.4068 52.2885C70.5545 53.3862 69.0571 53.6232 69.1399 52.495Z" fill="#F99370"/>
<path d="M69.8242 52.0459C71.3251 52.8062 71.5089 50.8494 71.8051 51.2662C71.86 51.3439 71.8781 51.4427 71.8609 51.5363C71.3839 54.1144 67.7132 52.3387 69.8242 52.0459Z" fill="#F99370"/>
<path d="M70.0364 52.3417C70.8628 52.5109 71.776 52.1284 72.4045 51.5771C72.4054 51.5763 72.4062 51.5758 72.4067 51.575C72.5153 51.4792 72.6793 51.5986 72.6312 51.7351C72.3101 52.6521 70.8663 53.1905 69.8951 53.1656C69.2941 53.1261 69.4551 52.1795 70.0364 52.3417Z" fill="#F99370"/>
<path d="M69.8442 52.5959C70.7565 53.0029 71.895 52.7316 72.6708 52.1198C72.6717 52.1189 72.6725 52.1185 72.6734 52.1176C72.7876 52.0283 72.9426 52.1614 72.8812 52.2924C72.3961 53.3223 70.617 53.6902 69.5256 53.3691C68.9533 53.1961 69.3148 52.316 69.8442 52.5959Z" fill="#F99370"/>
<path d="M69.3107 52.9621C70.3295 53.3592 71.55 53.3922 72.5731 52.9651C72.574 52.9646 72.5748 52.9642 72.5761 52.9642C72.7105 52.9157 72.8255 53.0823 72.7367 53.1939C72.1202 53.9697 68.829 54.3917 68.7311 53.2385C68.7938 52.9883 69.0771 52.8547 69.3107 52.9621Z" fill="#F99370"/>
<path d="M31.8808 52.5421C32.2444 51.258 30.4031 51.3778 30.8319 50.9901C30.9019 50.927 30.9942 50.8948 31.0883 50.8918C32.1358 50.8601 33.2645 52.1072 33.1958 52.7177C33.1009 53.5596 31.3677 53.214 31.8808 52.5421Z" fill="#F99370"/>
<path d="M32.7901 52.8341C31.0282 53.5163 29.9703 51.116 30.6538 51.2645C30.744 51.2843 30.8118 51.356 30.8393 51.4444C31.0595 52.1592 31.989 52.288 32.5115 52.0459C33.0602 51.7917 33.3792 52.695 32.7901 52.8341Z" fill="#F99370"/>
<path d="M32.4416 53.1656C31.8761 53.4833 29.1916 52.0158 29.7338 51.638C29.8218 51.5766 29.9416 51.5878 30.0249 51.6556C30.6504 52.1648 31.5181 52.5048 32.3055 52.3404C32.8833 52.185 33.0405 53.1274 32.4416 53.1656Z" fill="#F99370"/>
<path d="M32.8098 53.3685C32.1835 53.9807 28.9 52.6486 29.4508 52.2003C29.5418 52.1261 29.6741 52.1299 29.7694 52.1986C30.5452 52.7559 31.6305 52.9882 32.5042 52.5893C33.0314 52.33 33.3744 53.2011 32.8098 53.3685Z" fill="#F99370"/>
<path d="M33.3045 53.7498C32.8335 54.1367 29.2599 53.7146 29.6046 53.1106C29.6604 53.0127 29.7841 52.9758 29.8897 53.0153C30.89 53.3905 32.0586 53.3429 33.0379 52.9569C33.5728 52.7311 33.8691 53.606 33.3045 53.7498Z" fill="#F99370"/>
<path d="M46.9201 67.5315C46.3525 67.6465 46.0142 67.7058 45.9786 67.7049C45.9786 67.7049 43.8565 66.1636 44.2476 63.6367C44.2476 63.6367 44.5206 63.4005 45.0302 63.0948C45.0302 63.0948 44.8714 65.7481 46.9201 67.5315Z" fill="#23659B"/>
<path d="M48.0359 40.0696C48.0359 40.0696 47.543 45.9049 45.7712 49.0407C45.6429 49.2678 45.5051 49.5121 45.3582 49.7675C44.8306 50.6859 44.1827 51.7527 43.4082 52.7187C42.231 54.187 40.7619 55.4226 38.9768 55.5535C36.7722 55.7158 34.9296 55.0293 33.9546 54.5592C33.475 54.3282 33.2058 54.1496 33.2058 54.1496C33.144 52.9467 33.8331 52.2885 33.8331 52.2885C34.0576 52.3229 34.2749 52.3503 34.4852 52.3701C38.0997 52.7153 39.653 50.931 41.5849 46.6944C44.2647 40.8175 48.0359 40.0696 48.0359 40.0696Z" fill="#9358E0"/>
<path d="M68.954 54.1491C68.954 54.1491 68.6968 54.3196 68.2379 54.5428C67.2719 55.0129 65.4125 55.717 63.1835 55.553C61.1738 55.4058 59.5647 53.8585 58.3222 52.1558C57.5327 51.0735 56.8909 49.928 56.389 49.0402C56.1507 48.6186 55.9408 48.1506 55.7562 47.6569C54.5691 44.4791 54.4253 40.2215 54.4253 40.2215C54.4253 40.2215 57.7371 40.9999 60.608 46.694C62.685 50.8146 64.0211 52.5894 67.5728 52.361C67.8133 52.346 68.0648 52.3211 68.3267 52.2876C68.3267 52.288 69.0158 52.9462 68.954 54.1491Z" fill="#9358E0"/>
<path d="M46.1326 43.6848L45.3581 49.7674C44.8304 50.6857 44.1826 51.7526 43.4081 52.7185C43.5777 52.0527 43.8357 50.9952 44.1985 49.408C44.9403 46.1598 46.1326 43.6848 46.1326 43.6848Z" fill="#7640CC"/>
<path d="M58.3217 52.1563C57.5322 51.0739 56.8903 49.9285 56.3884 49.0407C56.1502 48.6191 55.9402 48.1511 55.7556 47.6574L56.1111 43.6853C56.1111 43.6853 57.1453 44.9844 57.7013 48.5263C57.9765 50.2758 58.183 51.4333 58.3217 52.1563Z" fill="#7640CC"/>
<path d="M58.5343 55.2513C53.8598 57.3446 48.3259 57.3747 43.6445 55.2929C43.4393 52.9248 44.2529 52.1619 44.6457 49.5233C45.4988 43.7944 47.7489 40.1752 47.7489 40.1752C49.5743 39.4496 52.6577 39.3659 54.4252 40.2216C54.4252 40.2216 56.99 44.0253 57.3214 49.2408C57.4833 51.7918 58.5343 52.9565 58.5343 55.2513Z" fill="#9358E0"/>
<path d="M49.3005 39.7582C49.3005 39.7582 49.5491 41.3389 51.1054 41.2917C52.6616 41.2445 52.8484 39.7436 52.8484 39.7436C52.8484 39.7436 51.2706 39.2443 49.3005 39.7582Z" fill="#7640CC"/>
<path d="M51.0892 40.6925C50.4688 40.6925 49.9656 40.1893 49.9656 39.5689V38.0392H52.2123V39.5689C52.2127 40.1893 51.7095 40.6925 51.0892 40.6925Z" fill="#F99370"/>
<path d="M54.8479 35.0438C54.5753 36.3039 53.037 35.9784 53.2972 34.7158C53.5703 33.4562 55.1085 33.7812 54.8479 35.0438Z" fill="#F99370"/>
<path d="M47.3304 35.0438C47.603 36.3039 49.1413 35.9784 48.8811 34.7158C48.6081 33.4562 47.0698 33.7812 47.3304 35.0438Z" fill="#F99370"/>
<path d="M54.2519 36.4048C54.0763 40.6233 47.3106 40.0051 47.9782 35.7685C48.0705 34.9283 48.3714 34.3698 48.5123 33.0303C48.8385 29.9302 53.2438 29.7653 53.6401 33.0071C53.7959 34.2861 54.2617 35.2289 54.2519 36.4048Z" fill="#F99370"/>
<path d="M50.9421 35.8249C50.6347 35.821 50.1573 35.6141 50.5459 35.341C50.8631 35.1693 51.0958 34.512 51.0984 34.5056C51.1242 34.4279 51.2469 34.4699 51.2182 34.5476C51.2079 34.5764 50.9666 35.2577 50.6064 35.4526C50.3578 35.6051 50.876 35.7527 51.0898 35.6772C51.1233 35.6664 51.1589 35.6849 51.1697 35.7184C51.1877 35.8326 51.0215 35.8167 50.9421 35.8249Z" fill="#C16256"/>
<path d="M49.0171 32.8337C50.539 33.5403 52.2851 31.2392 53.2171 32.2944L53.3313 31.6496L51.5565 30.8171L48.7243 31.8033L49.0171 32.8337Z" fill="#E57D61"/>
<path d="M53.8265 33.9838C53.8265 33.9838 53.2958 32.9659 53.2177 32.2945C53.1395 31.623 52.2375 31.5058 51.4965 32.0317C50.7555 32.5576 49.8308 32.7968 48.8592 32.4378C47.8872 32.0794 47.2587 30.6059 48.247 29.737C49.2258 28.8766 50.2438 29.5472 51.1243 29.8804C52.2607 30.3106 55.1157 29.4425 53.8265 33.9838Z" fill="#8C4225"/>
<path d="M48.3836 33.9353C48.3836 33.9353 49.1783 33.035 49.226 31.8402L48.375 31.5058C48.375 31.5054 48.0286 32.6684 48.3836 33.9353Z" fill="#8C4225"/>
<path d="M54.5253 35.2951C54.4846 35.2955 54.4532 35.2539 54.4661 35.2148C54.6833 34.5957 54.4579 34.2793 53.9689 34.4669C53.8947 34.4978 53.8483 34.3793 53.9239 34.3514C54.4403 34.1402 54.8645 34.4673 54.5846 35.2513C54.5764 35.2779 54.552 35.2951 54.5253 35.2951Z" fill="#C16256"/>
<path d="M54.0185 35.1447C53.8257 35.1292 54.1215 34.5986 54.592 34.5668C54.6259 34.5651 54.6281 34.5925 54.6302 34.6265C54.6324 34.6608 54.6345 34.6883 54.6002 34.6904C54.1189 34.7402 54.1322 35.1283 54.0185 35.1447Z" fill="#C16256"/>
<path d="M47.6923 35.2951C47.6657 35.2951 47.6412 35.2779 47.633 35.2513C47.3527 34.4673 47.7781 34.1402 48.2938 34.3514C48.3689 34.3798 48.3234 34.497 48.2487 34.4669C47.8065 34.2853 47.5175 34.5605 47.7515 35.2148C47.7644 35.2539 47.7331 35.2955 47.6923 35.2951Z" fill="#C16256"/>
<path d="M48.271 35.2082C48.1585 35.1932 48.0962 34.7394 47.618 34.6905C47.5836 34.6883 47.5918 34.6608 47.5939 34.6265C47.5961 34.5922 47.5926 34.5647 47.6261 34.5668C48.0962 34.599 48.4633 35.1924 48.271 35.2082Z" fill="#C16256"/>
<path d="M54.2521 35.8093C54.0443 34.5325 53.8399 34.0015 53.5527 33.2047C53.6617 34.1294 54.7599 37.4081 52.8074 36.3683C51.6006 35.7269 50.3066 36.0141 49.226 36.5259C48.7172 36.7165 48.1943 36.6813 48.2609 35.9223C48.312 35.3422 48.3682 34.4415 48.5811 33.415C48.3257 33.8139 48.2179 34.8958 47.9779 35.7681C47.2618 40.5061 54.7793 40.6092 54.2521 35.8093ZM52.0878 38.3187C51.4636 38.3372 51.5645 37.4824 51.094 37.4944C50.7153 37.5039 50.7758 38.785 49.5926 38.2831C49.0246 38.0474 48.9645 37.266 49.4741 36.9226C49.915 36.6246 50.5092 36.3949 51.1013 36.3713C51.6615 36.349 52.2192 36.492 52.6674 36.7311C53.5445 37.2605 52.8885 38.2913 52.0878 38.3187Z" fill="#8C4225"/>
<path d="M52.152 34.5626C51.9257 34.5626 51.7699 34.4875 51.7596 34.4819C51.7308 34.4677 51.7192 34.4329 51.7334 34.4042C51.7476 34.3754 51.7823 34.3638 51.8111 34.378C51.8266 34.3857 52.1868 34.5574 52.6036 34.3269C52.6316 34.3114 52.6672 34.3217 52.6826 34.3496C52.6981 34.3776 52.6878 34.4132 52.6599 34.4286C52.4744 34.5308 52.2984 34.5626 52.152 34.5626Z" fill="#C16256"/>
<path d="M50.0338 34.5626C49.8874 34.5626 49.7114 34.5313 49.5259 34.4286C49.498 34.4132 49.4877 34.378 49.5032 34.3496C49.5186 34.3217 49.5538 34.3114 49.5822 34.3269C50.0012 34.5583 50.3708 34.3797 50.3743 34.378C50.403 34.3638 50.4378 34.3754 50.452 34.4042C50.4662 34.4329 50.4546 34.4677 50.4258 34.4819C50.4155 34.487 50.2601 34.5626 50.0338 34.5626Z" fill="#C16256"/>
<path d="M50.9544 36.9686C50.7771 36.9686 50.6504 36.9433 50.6388 36.9411C50.6075 36.9347 50.5873 36.9038 50.5937 36.8725C50.6002 36.8411 50.6311 36.8209 50.6624 36.8274C50.6684 36.8287 51.2729 36.9484 51.6967 36.6415C51.7224 36.623 51.7589 36.6286 51.7778 36.6544C51.7967 36.6805 51.7907 36.7166 51.7649 36.7355C51.5013 36.9261 51.1849 36.9686 50.9544 36.9686Z" fill="#C16256"/>
<path d="M52.786 33.819C52.7795 33.819 52.7727 33.8178 52.7658 33.8156C52.2497 33.6263 51.6921 33.6585 51.6865 33.6589C51.6547 33.6615 51.6268 33.6366 51.6251 33.6044C51.6229 33.5722 51.6474 33.5447 51.6796 33.543C51.7032 33.5417 52.2674 33.5091 52.8062 33.7066C52.8362 33.7177 52.8517 33.7508 52.8405 33.7808C52.8319 33.8044 52.8096 33.819 52.786 33.819Z" fill="#C16256"/>
<path d="M49.4259 33.819C49.4022 33.819 49.3799 33.8044 49.3713 33.7808C49.3602 33.7508 49.3756 33.7173 49.4057 33.7066C49.9445 33.5091 50.5086 33.5417 50.5322 33.543C50.5644 33.5451 50.5885 33.5726 50.5867 33.6044C50.585 33.6362 50.5571 33.6606 50.5254 33.6589C50.5198 33.6585 49.9612 33.6267 49.446 33.8156C49.4392 33.8178 49.4327 33.819 49.4259 33.819Z" fill="#C16256"/>
<path d="M33.9546 54.5591C33.475 54.3282 33.2058 54.1496 33.2058 54.1496C33.144 52.9466 33.8331 52.2885 33.8331 52.2885C34.0576 52.3228 34.2749 52.3503 34.4852 52.37L34.5118 52.3906C34.5114 52.3902 33.8472 53.6189 33.9546 54.5591Z" fill="#7640CC"/>
<path d="M68.9536 54.149C68.9536 54.149 68.6964 54.3195 68.2375 54.5427C68.3693 53.0967 67.5725 52.3613 67.5725 52.3613L67.5729 52.3609C67.8133 52.3459 68.0649 52.321 68.3268 52.2875C68.3264 52.2879 69.0154 52.9461 68.9536 54.149Z" fill="#7640CC"/>
<path d="M44.657 63.6633C44.624 63.6633 44.5914 63.6491 44.5682 63.6221C44.527 63.5732 44.533 63.4997 44.5819 63.4585C44.6197 63.4263 48.4054 60.2373 51.479 58.5436C51.5352 58.5127 51.6056 58.5329 51.6365 58.5892C51.6674 58.6454 51.6468 58.7158 51.591 58.7467C48.5372 60.4292 44.7691 63.6036 44.7317 63.6354C44.7103 63.6543 44.6837 63.6633 44.657 63.6633Z" fill="#23659B"/>
<path d="M13.19 18.8611L12.6079 19.2479C12.6079 19.2479 12.4636 20.6698 13.2995 22.4597C13.5056 22.9014 13.2583 23.1818 12.9694 22.7507C12.1163 21.4769 12.1859 20.3006 12.1859 20.3006L11.6724 20.4221C11.6119 20.5565 11.8471 21.6787 12.774 23.1144C13.0265 23.5055 12.8298 23.955 12.2331 23.4123C11.6741 22.904 10.6824 21.7354 10.1182 20.9042L9.49916 21.3159C9.49916 21.3159 10.7773 23.4501 12.3185 25.1137C12.7066 25.5345 13.309 25.7165 13.8662 25.5628C14.7382 25.3344 15.2388 24.4109 14.9614 23.5536C14.5561 22.3025 13.877 20.2675 13.19 18.8611Z" fill="#2FAC66"/>
<path d="M13.5648 19.6859C14.1011 20.9524 14.636 22.5413 14.9614 23.5536C15.234 24.4007 14.7532 25.3095 13.8976 25.5547C13.3794 25.7071 12.8187 25.5731 12.4216 25.2151C12.4216 25.2151 15.6166 25.671 13.5644 19.6859H13.5648Z" fill="#269E57"/>
<path d="M17.027 16.8725C17.437 17.7217 16.6333 18.7362 15.721 18.5516C17.0587 19.621 15.3878 21.5667 14.1303 20.4251C13.6808 21.1176 12.6363 21.4104 11.8876 21.0429C11.9957 22.0742 10.7709 22.9113 9.84656 22.4301C9.91525 24.4839 6.88209 25.0107 6.27546 23.0139C4.64833 23.7502 3.71498 21.2108 5.43098 20.7166C3.97258 19.6055 5.01798 17.1794 6.82456 17.4744C5.82253 15.542 8.56246 13.811 9.88176 15.5051C10.3725 14.3592 12.0829 14.1124 12.8767 15.0556C13.8045 13.8956 15.736 14.8461 15.3895 16.2843C16.0009 15.9795 16.7501 16.2482 17.027 16.8725Z" fill="#2FAC66"/>
<path d="M17.0272 16.8725C17.4372 17.7217 16.6335 18.7362 15.7212 18.5516C17.059 19.6211 15.3881 21.5668 14.1306 20.4252C13.6811 21.1177 12.6365 21.4105 11.8878 21.043C11.996 22.0742 10.7711 22.9114 9.84681 22.4301C9.9155 24.484 6.88234 25.0108 6.27571 23.014C6.27571 23.014 8.17546 23.9083 8.98302 21.8063C9.79143 19.7048 11.6792 20.3101 12.5893 18.6272C13.4991 16.9442 12.7366 14.5422 9.88202 15.5047C10.3727 14.3589 12.0832 14.112 12.877 15.0552C13.8047 13.8952 15.7363 14.8457 15.3898 16.2839C16.0011 15.9796 16.7503 16.2483 17.0272 16.8725Z" fill="#269E57"/>
<path d="M6.97806 28.1418C-0.17831 24.9755 12.7572 29.5058 18.0503 19.342C18.0812 19.3617 18.2928 16.8738 19.2421 17.0309C19.4859 17.1044 19.51 17.2804 19.4288 17.5229C19.2653 18.0158 18.6702 18.7856 18.5942 19.5429C18.4349 27.0127 12.5258 30.2189 6.97806 28.1418Z" fill="#F9B233"/>
<path d="M5.44452 27.4247C4.82329 27.1517 4.44806 26.6301 5.48358 26.7129C5.57804 26.9422 5.52566 27.1388 5.44452 27.4247Z" fill="#F39200"/>
<path d="M6.97789 28.1418C15.9104 29.1284 18.5936 19.5429 18.5936 19.5429C18.4348 27.0127 12.5256 30.2189 6.97789 28.1418Z" fill="#F39200"/>
<path d="M10.9807 31.4977C10.5351 31.5093 7.29153 31.2234 9.06893 30.6073C15.0902 28.7505 18.7218 23.4028 18.7209 17.3133C18.8841 16.9269 19.4903 16.9561 19.4328 17.452C19.4371 17.9711 19.1224 18.892 19.2945 19.633C21.5742 26.3059 18.2663 32.0146 10.9807 31.4977Z" fill="#F9B233"/>
<path d="M10.9803 31.4977C20.7963 30.8658 19.3533 19.8232 19.3533 19.8232C21.5236 26.4884 18.168 31.988 10.9803 31.4977Z" fill="#F39200"/>
<path d="M9.39174 31.3364C8.71556 31.2785 8.06213 30.8629 9.06889 30.6074C9.23246 30.7933 9.37628 31.0393 9.39174 31.3364Z" fill="#F39200"/>
<path d="M18.5806 17.4628C18.5806 17.4628 19.0855 17.923 19.4259 17.6041C19.4259 17.6041 19.6191 17.1958 19.3229 17.0601C19.0271 16.9244 18.791 17.0537 18.5806 17.4628Z" fill="#F39200"/>
<path d="M25.9167 29.4688C27.8924 28.8394 27.685 27.706 27.1887 25.5551C26.7929 23.6618 24.8846 23.0062 23.9465 21.2306C22.9874 19.4154 22.4752 18.4061 21.4655 18.5791C16.7369 19.3909 19.5962 32.5359 25.9167 29.4688Z" fill="#2FAC66"/>
<path d="M25.9184 29.4637C26.6448 29.2344 27.2339 28.848 27.6563 28.3406H27.6567C28.3179 27.5463 28.5729 26.4546 28.3106 25.2014C27.9148 23.3081 26.0064 22.6525 25.0684 20.8768C24.2256 19.2828 23.1605 18.5276 22.225 18.4666C17.4075 18.5727 21.4247 31.703 25.9184 29.4637Z" fill="#FCBE59"/>
<path d="M23.3734 26.4537C24.7931 29.2593 27.6919 27.5373 26.5194 24.9459C25.1954 22.2004 22.1485 23.6704 23.3734 26.4537Z" fill="#843F2C"/>
<path d="M23.8947 25.4508C24.4838 26.728 25.8293 27.3351 26.7429 26.5348C27.1649 24.8982 25.0835 22.5747 23.6711 23.861C23.583 24.3513 23.65 24.9145 23.8947 25.4508Z" fill="#8E4A35"/>
<path d="M25.9168 29.4688L25.9181 29.4637C21.0093 31.5506 18.3728 21.9467 19.7273 19.8576C17.8683 23.0998 20.0656 32.0027 25.9168 29.4688Z" fill="#269E57"/>
<path d="M25.9183 29.4637C26.6447 29.2344 27.2337 28.848 27.6562 28.3406C23.6923 30.5349 22.5095 28.5638 21.1455 23.8598C19.7674 19.1063 22.1875 18.4872 22.2248 18.467C17.4083 18.5718 21.4233 31.7035 25.9183 29.4637Z" fill="#F9AE41"/>
<path d="M56.7998 4.57228L56.7732 3.06278L55.9068 3.07824C55.8338 2.81034 55.7256 2.55704 55.5874 2.32349L56.1957 1.69325L55.1095 0.644842L54.5239 1.25104C54.2535 1.0879 53.9564 0.965116 53.6408 0.890843L53.6258 0L52.1163 0.026618L52.1322 0.91789C51.842 0.996886 51.5685 1.11753 51.3195 1.27251L50.7489 0.72169L49.7005 1.80787L50.2711 2.35869C50.1247 2.61328 50.0139 2.89062 49.9452 3.18342L49.0788 3.19888L49.1055 4.70837L49.9718 4.69292C50.0568 5.00547 50.1899 5.29826 50.3629 5.56273L49.7774 6.16893L50.8635 7.21733L51.4719 6.58709C51.7102 6.71717 51.9669 6.81635 52.2374 6.87988L52.2533 7.77116L53.7628 7.74454L53.7469 6.85327C54.0371 6.77427 54.3106 6.65363 54.5596 6.49865L55.2246 7.14048L56.273 6.0543L55.608 5.41246C55.7544 5.15787 55.8651 4.88053 55.9338 4.58773L56.7998 4.57228ZM53.0535 5.26005C51.2529 5.39872 51.0314 2.67081 52.8251 2.5111C54.6253 2.37243 54.8468 5.10035 53.0535 5.26005Z" fill="#4867AA"/>
<path d="M66.5141 12.3687V10.7682H65.288C65.2433 10.5179 65.1785 10.2745 65.0943 10.0405L66.1548 9.42831L65.3545 8.04203L64.2924 8.6551C64.1301 8.46319 63.9519 8.28546 63.76 8.12274L64.3731 7.0606L62.9868 6.26034L62.3746 7.32077C62.1406 7.23662 61.8972 7.17179 61.6469 7.12714V5.901H60.0464V7.12714C59.7961 7.17179 59.5527 7.23662 59.3187 7.32077L58.7065 6.26034L57.3202 7.0606L57.9333 8.12274C57.7413 8.28503 57.5636 8.46319 57.4009 8.6551L56.3388 8.04203L55.5385 9.42831L56.5989 10.0405C56.5148 10.2745 56.4499 10.5179 56.4053 10.7682H55.1792V12.3687H56.4053C56.4499 12.619 56.5148 12.8625 56.5989 13.0964L55.5385 13.7087L56.3388 15.0949L57.4009 14.4819C57.5632 14.6738 57.7413 14.8515 57.9333 15.0142L57.3202 16.0764L58.7065 16.8766L59.3187 15.8162C59.5527 15.9003 59.7961 15.9652 60.0464 16.0098V17.236H61.6469V16.0094C61.8972 15.9647 62.1406 15.8999 62.3746 15.8158L62.9868 16.8762L64.3731 16.0759L63.76 15.0138C63.9519 14.8515 64.1297 14.6733 64.2924 14.4814L65.3545 15.0945L66.1548 13.7082L65.0943 13.096C65.1785 12.862 65.2433 12.6186 65.288 12.3683H66.5141V12.3687ZM60.8471 13.825C57.8809 13.7743 57.8813 9.36177 60.8471 9.31153C63.8137 9.36262 63.8132 13.7748 60.8471 13.825Z" fill="#EB5648"/>
<path d="M51.3369 12.5757V11.8265H50.6749C50.6302 11.2976 50.492 10.7957 50.2764 10.3368L50.8492 10.0062L50.4748 9.35748L49.9016 9.68848C49.605 9.26431 49.2358 8.89467 48.8112 8.59801L49.1422 8.02486L48.4935 7.65006L48.1629 8.22278C47.7039 8.00726 47.2021 7.86902 46.6731 7.82437V7.16235H45.924V7.82437C45.3951 7.86902 44.8932 8.00726 44.4342 8.22278L44.1037 7.65006L43.4549 8.02486L43.786 8.59801C43.3618 8.89467 42.9921 9.26388 42.6955 9.68848L42.1223 9.35748L41.748 10.0062L42.3207 10.3368C42.1052 10.7957 41.9669 11.2976 41.9223 11.8265H41.2603V12.5757H41.9223C41.9669 13.1046 42.1052 13.6065 42.3207 14.0654L41.748 14.396L42.1223 15.0447L42.6955 14.7137C42.9921 15.1379 43.3614 15.5075 43.786 15.8042L43.4549 16.3773L44.1037 16.7517L44.4342 16.179C44.8932 16.3945 45.3951 16.5327 45.924 16.5774V17.2394H46.6731V16.5774C47.2021 16.5327 47.7039 16.3945 48.1629 16.179L48.4935 16.7517L49.1422 16.3773L48.8112 15.8042C49.2353 15.5075 49.605 15.1383 49.9016 14.7137L50.4748 15.0447L50.8492 14.396L50.2764 14.0654C50.492 13.6065 50.6302 13.1046 50.6749 12.5757H51.3369ZM46.2979 15.0572C42.5439 14.9932 42.5448 9.40942 46.2979 9.34546C50.0519 9.40985 50.0515 14.9936 46.2979 15.0572Z" fill="#8A9EDD"/>
<path d="M64.406 16.4469C64.5 16.2369 64.5666 16.0107 64.6005 15.7715C64.7963 14.3934 63.838 13.1179 62.4603 12.9217C61.9271 12.8457 61.4093 12.9432 60.9633 13.1703C61.0328 12.9981 61.0715 12.8105 61.0715 12.6139C61.0715 11.7934 60.406 11.128 59.5856 11.128C59.1168 11.128 58.699 11.3452 58.4268 11.6844C57.9786 10.7721 57.0401 10.144 55.9548 10.144C54.8308 10.144 53.864 10.818 53.4364 11.7836C53.3153 11.116 52.7314 10.6094 52.0291 10.6094C51.2902 10.6094 50.6823 11.1696 50.6063 11.8883C50.2624 11.6367 49.8391 11.4878 49.3806 11.4878C48.4661 11.4878 47.6903 12.0785 47.4121 12.8994C47.3757 12.8977 47.3392 12.8968 47.3022 12.8968C45.9104 12.8968 44.7821 14.0251 44.7821 15.4169C44.7821 16.1661 45.1093 16.8388 45.6283 17.3004C45.1299 17.524 44.7821 18.0242 44.7821 18.6063C44.7821 19.3967 45.4227 20.0373 46.2131 20.0373C46.5771 20.0373 46.909 19.9012 47.1614 19.6771C47.6208 20.2919 48.3545 20.6898 49.181 20.6898C50.0018 20.6898 50.7312 20.297 51.1915 19.6895C51.6517 20.2974 52.3807 20.6898 53.202 20.6898C54.0374 20.6898 54.778 20.2833 55.2365 19.6569C55.6951 20.2828 56.4356 20.6898 57.2711 20.6898C57.9378 20.6898 58.5445 20.4305 58.9953 20.0077C59.4027 20.291 59.8977 20.4572 60.4318 20.4572C61.1144 20.4572 61.7335 20.1858 62.1873 19.7449C62.5685 20.215 63.1507 20.516 63.8032 20.516C64.9517 20.516 65.8824 19.5852 65.8824 18.4368C65.8816 17.4987 65.2599 16.7057 64.406 16.4469Z" fill="#FCB4B4"/>
<path d="M47.9125 14.697C48.034 14.8343 48.1885 14.9743 48.3813 15.0937C48.3852 15.0962 48.3895 15.0988 48.3938 15.1014C48.687 15.2804 49.0678 15.4105 49.5546 15.4105C49.7556 15.4105 49.9754 15.3882 50.2137 15.3379C50.2961 15.3208 50.3485 15.2401 50.3313 15.1576C50.3141 15.0752 50.2334 15.0228 50.151 15.04C49.4799 15.1812 48.9832 15.0808 48.6179 14.8807C48.6217 14.6059 48.7316 13.682 50.023 13.5593C50.1068 13.5515 50.1681 13.4768 50.1604 13.3931C50.1523 13.3094 50.0788 13.248 49.9943 13.2562C48.6934 13.3798 48.3963 14.2243 48.3315 14.6845C47.8283 14.2612 47.6789 13.6653 47.6686 13.6207C47.6497 13.5387 47.5677 13.488 47.4862 13.5069C47.4042 13.5258 47.3531 13.6078 47.3724 13.6898C47.3771 13.7121 47.5012 14.232 47.9125 14.697Z" fill="#F49F9F"/>
<path d="M51.3714 13.2835C51.3491 13.4436 51.3281 13.7476 51.407 14.1074C51.5131 14.5882 51.8256 15.2648 52.7122 15.756C52.7354 15.7688 52.7607 15.7749 52.7856 15.7749C52.8393 15.7749 52.8912 15.7465 52.9187 15.6963C52.9595 15.6229 52.9329 15.5301 52.8594 15.4894C51.6573 14.8235 51.6226 13.8077 51.6621 13.4059C51.8308 13.4591 52.024 13.4913 52.2464 13.4913C52.419 13.4913 52.6091 13.472 52.8174 13.4282C52.8998 13.411 52.9522 13.3303 52.935 13.2479C52.9178 13.1654 52.8371 13.1126 52.7547 13.1302C51.2701 13.4428 50.9211 12.357 50.9065 12.3098C50.8824 12.2295 50.7978 12.1836 50.7176 12.2076C50.6368 12.2312 50.5909 12.3162 50.6145 12.397C50.6171 12.4055 50.7923 12.9684 51.3714 13.2835Z" fill="#F49F9F"/>
<path d="M61.6854 16.0299C61.6996 16.0342 61.7137 16.0359 61.7279 16.0359C61.794 16.0359 61.8545 15.9926 61.8739 15.926C61.8975 15.8453 61.8511 15.7607 61.7704 15.7371C61.2359 15.5817 60.9517 15.2657 60.8061 14.9274C60.8027 14.9158 60.7984 14.9051 60.7928 14.8948C60.5683 14.3375 60.7087 13.7322 60.7186 13.6914C60.7383 13.6098 60.6885 13.5274 60.6069 13.5077C60.5254 13.4875 60.4429 13.5373 60.4228 13.6193C60.418 13.6386 60.3077 14.098 60.4026 14.623C60.4133 14.6819 60.427 14.7428 60.4438 14.8046C59.7062 14.7995 59.2198 15.152 58.9339 15.4654C58.5968 15.835 58.4638 16.2235 58.4586 16.2403C58.432 16.3197 58.4749 16.406 58.5543 16.4326C58.5707 16.4382 58.587 16.4408 58.6029 16.4408C58.6664 16.4408 58.7256 16.4009 58.7471 16.3373C58.7656 16.2828 59.2086 15.027 60.5576 15.1133C60.7344 15.4855 61.0667 15.85 61.6854 16.0299Z" fill="#F49F9F"/>
<path d="M58.1472 17.5287C58.1446 17.5266 58.142 17.5244 58.139 17.5227C57.9759 17.4016 57.8089 17.3136 57.6543 17.2501C57.1121 17.0272 56.6184 17.0522 56.5978 17.0534C56.514 17.0582 56.4501 17.1299 56.4544 17.2136C56.4591 17.2973 56.5308 17.3617 56.6145 17.3574C56.6553 17.3553 57.2156 17.3325 57.7505 17.63C56.9738 18.0447 56.7223 18.6218 56.6519 19.0515C56.5681 19.562 56.7171 19.9703 56.7236 19.9874C56.7463 20.0488 56.8043 20.0866 56.8661 20.0866C56.8837 20.0866 56.9013 20.0836 56.9189 20.0772C56.9975 20.048 57.0378 19.9608 57.0091 19.8818C56.9884 19.826 56.5338 18.5239 58.0377 17.8271C58.3344 18.0761 58.589 18.456 58.692 19.0352C58.7053 19.109 58.7693 19.161 58.8418 19.161C58.8508 19.161 58.8594 19.1601 58.8689 19.1584C58.9517 19.1438 59.0067 19.0648 58.9921 18.982C58.862 18.2543 58.5155 17.8056 58.1472 17.5287Z" fill="#F49F9F"/>
<path d="M64.4498 18.6539C62.769 18.6307 62.338 17.6429 62.2482 17.3557C62.5634 17.059 63.0167 16.868 63.6006 16.7868C63.6839 16.7752 63.7418 16.6984 63.7303 16.6151C63.7187 16.5318 63.6414 16.4738 63.5585 16.4854C62.869 16.5816 62.3371 16.8216 61.9726 17.2002C61.9713 17.2015 61.97 17.2028 61.9687 17.2041C61.9125 17.2629 61.8601 17.3247 61.812 17.39C61.3256 18.0503 61.4415 18.7999 61.4467 18.8312C61.4587 18.9059 61.5235 18.9587 61.5965 18.9587C61.6047 18.9587 61.6128 18.9579 61.6214 18.9566C61.7043 18.9429 61.7605 18.8647 61.7472 18.7819C61.7464 18.7754 61.6519 18.1645 62.0237 17.618C62.0894 17.7665 62.1967 17.9576 62.368 18.149C62.6913 18.5097 63.3138 18.9433 64.4451 18.9592C64.4459 18.9592 64.4464 18.9592 64.4472 18.9592C64.5305 18.9592 64.5983 18.8922 64.5992 18.8089C64.6009 18.7243 64.5339 18.6552 64.4498 18.6539Z" fill="#F49F9F"/>
<path d="M55.31 11.4624C56.0854 11.5749 56.6968 12.0257 57.1274 12.8023C57.3828 13.2634 57.4966 13.7099 57.5352 13.8876C57.1617 14.2006 56.6581 14.3414 56.0365 14.3049C55.9519 14.2998 55.8806 14.3642 55.8755 14.4479C55.8707 14.532 55.9347 14.6037 56.0184 14.6089C56.0893 14.6132 56.1584 14.6153 56.2267 14.6153C56.8706 14.6153 57.3987 14.4299 57.7984 14.0628C57.8005 14.0611 57.8023 14.0589 57.804 14.0572C57.8048 14.0564 57.8057 14.0555 57.807 14.0546C58.5175 13.3939 58.5514 12.3996 58.5523 12.3575C58.5544 12.2734 58.4883 12.2038 58.4042 12.2017C58.3217 12.2 58.25 12.2657 58.2479 12.3498C58.2475 12.358 58.2213 13.0689 57.7855 13.6283C57.7211 13.39 57.6026 13.0346 57.3983 12.6636C56.9256 11.8063 56.2185 11.2868 55.3538 11.1614C55.2706 11.1494 55.1933 11.2069 55.1813 11.2902C55.1692 11.3731 55.2268 11.4504 55.31 11.4624Z" fill="#F49F9F"/>
<path d="M51.1086 16.6829C51.1348 16.6031 51.091 16.5172 51.0107 16.491C49.7549 16.0827 48.8984 16.4185 48.4013 16.7722C48.0587 17.0156 47.838 17.2973 47.7199 17.4759C47.1635 16.9912 46.4449 17.0569 46.4337 17.0581C46.3504 17.0667 46.2899 17.1414 46.2985 17.2252C46.307 17.3084 46.3813 17.3694 46.465 17.3613C46.5213 17.3557 47.8492 17.2423 48.0346 18.8244C48.0436 18.9017 48.1093 18.9588 48.1858 18.9588C48.1918 18.9588 48.1978 18.9583 48.2038 18.9579C48.2875 18.948 48.3472 18.8725 48.3373 18.7892C48.2806 18.3066 48.1295 17.958 47.9355 17.7056C48.0213 17.5647 48.2278 17.2702 48.5782 17.0212C49.2187 16.5657 50.0057 16.485 50.9171 16.7817C50.997 16.807 51.0824 16.7632 51.1086 16.6829Z" fill="#F49F9F"/>
<path d="M53.1964 17.7833C53.0251 17.6223 52.8504 17.5056 52.7044 17.4236C52.9925 17.3493 53.3308 17.3347 53.7245 17.4214C53.8065 17.4394 53.8876 17.3875 53.9061 17.3055C53.9241 17.2235 53.8722 17.1423 53.7902 17.1239C53.1514 16.9831 52.6409 17.084 52.2498 17.2681C52.2429 17.2711 52.236 17.2741 52.2292 17.278C52.0102 17.3836 51.8295 17.5154 51.6861 17.6442C51.255 18.031 51.0631 18.4672 51.0554 18.4857C51.0219 18.563 51.0576 18.6523 51.1344 18.6858C51.1542 18.6943 51.1748 18.6982 51.1949 18.6982C51.2538 18.6982 51.3096 18.6639 51.3345 18.6068C51.3525 18.5651 51.6449 17.9177 52.3125 17.5734C52.5748 17.6769 53.7378 18.2255 53.6056 19.7775C53.5983 19.8612 53.6605 19.9351 53.7442 19.942C53.7485 19.9424 53.7528 19.9424 53.7576 19.9424C53.8357 19.9424 53.9022 19.8823 53.9091 19.8033C53.9976 18.7708 53.5704 18.1349 53.1964 17.7833Z" fill="#F49F9F"/>
<path d="M55.5459 13.5562C55.6275 13.5356 55.6769 13.4532 55.6563 13.3716C55.6357 13.29 55.5532 13.2402 55.4717 13.2608C55.4519 13.2655 54.9852 13.3853 54.5512 13.7352C54.1429 14.0645 53.6904 14.6634 53.8518 15.6478C53.8638 15.7225 53.9287 15.7754 54.0017 15.7754C54.0098 15.7754 54.018 15.7745 54.0266 15.7732C54.1094 15.7595 54.1657 15.6813 54.1524 15.5985C53.8896 13.995 55.4781 13.5734 55.5459 13.5562Z" fill="#F49F9F"/>
<path d="M57.0181 15.8775C57.0146 15.7934 56.9442 15.7285 56.8596 15.7315C56.8412 15.7324 56.4024 15.753 55.94 16.045C55.5154 16.3128 54.9891 16.8684 54.8916 17.9928C54.8843 18.0765 54.9466 18.1503 55.0303 18.1576C55.0346 18.1581 55.0393 18.1581 55.0436 18.1581C55.1218 18.1581 55.1883 18.0984 55.1952 18.019C55.3587 16.1274 56.8107 16.0385 56.8725 16.0355C56.9562 16.0321 57.0211 15.9612 57.0181 15.8775Z" fill="#F49F9F"/>
<path d="M92.5194 20.6878C92.4691 22.1629 91.249 23.4166 90.2083 24.3868C88.4348 26.1711 85.8653 28.75 84.0875 30.539C82.3028 28.7642 79.7148 26.1904 77.9336 24.4195C76.8877 23.4565 75.662 22.2033 75.6036 20.7303C75.2555 18.2754 77.4626 15.848 79.9067 15.9326C81.5781 15.8347 82.9725 17.0673 84.0544 18.2656C84.0587 18.257 85.0874 17.2322 85.1251 17.1888C87.9007 14.2857 93.0053 16.7217 92.5194 20.6878Z" fill="#EB5648"/>
<path d="M92.5201 20.6878C92.4699 22.1629 91.2498 23.4166 90.2091 24.3868C88.4356 26.1711 85.8661 28.75 84.0883 30.539L84.0552 18.2656C84.0595 18.257 85.0882 17.2322 85.1259 17.1888C87.9015 14.2857 93.0061 16.7217 92.5201 20.6878Z" fill="#CE3932"/>
<path d="M84.5197 27.4729C84.3733 27.4729 84.2423 27.3806 84.1934 27.2424L81.5702 19.8559L79.7868 23.3832C79.728 23.5 79.6082 23.5734 79.4777 23.5734H73.9824C73.7909 23.5734 73.6359 23.4184 73.6359 23.2269C73.6359 23.0355 73.7909 22.8805 73.9824 22.8805H79.2643L81.3165 18.8217C81.3792 18.698 81.5097 18.6237 81.6475 18.6323C81.7857 18.6409 81.9055 18.7315 81.9519 18.862L84.5162 26.0828L86.5512 20.2436C86.5984 20.1083 86.7238 20.016 86.8668 20.0113C87.0093 20.0066 87.1411 20.0903 87.1969 20.2221L88.3247 22.88H93.2632C93.4547 22.88 93.6097 23.035 93.6097 23.2265C93.6097 23.418 93.4547 23.573 93.2632 23.573H88.0955C87.9564 23.573 87.831 23.4897 87.7765 23.3617L86.9097 21.319L84.846 27.2402C84.7974 27.3789 84.6669 27.4721 84.5197 27.4725C84.5201 27.4729 84.5201 27.4729 84.5197 27.4729Z" fill="#FCB4B4"/>
<path d="M13.3923 58.1112C13.3923 59.7039 12.1018 60.9945 10.509 60.9945C10.4669 60.9945 10.4244 60.9936 10.3832 60.9919C8.84925 60.9258 7.62697 59.6619 7.62697 58.1116C7.62697 56.5197 8.91751 55.2291 10.509 55.2291C11.2779 55.2291 11.9769 55.5296 12.4938 56.0199C13.0472 56.5459 13.3923 57.2882 13.3923 58.1112Z" fill="#CE4ABF"/>
<path d="M13.3921 58.1112C13.3921 59.704 12.1016 60.9945 10.5088 60.9945C10.4667 60.9945 10.4242 60.9937 10.383 60.9919C9.83005 60.4665 9.48488 59.7233 9.48488 58.9007C9.48488 57.3088 10.7754 56.0174 12.3682 56.0174C12.4103 56.0174 12.4528 56.0183 12.494 56.02C13.047 56.5459 13.3921 57.2882 13.3921 58.1112Z" fill="#A523A2"/>
<path d="M22.071 58.4478C21.5678 58.018 20.9135 57.7587 20.2009 57.7587C19.2108 57.7587 18.338 58.2571 17.819 59.0166L12.3795 57.5719C11.8471 57.4354 11.3049 57.7566 11.1683 58.2889C11.0318 58.8213 11.353 59.3635 11.8853 59.5L17.3343 60.9473C17.4854 62.3769 18.6811 63.4949 20.1442 63.5232C20.1635 63.5241 20.182 63.5241 20.2013 63.5241C21.7932 63.5241 23.0833 62.2335 23.0833 60.6407C23.0833 59.7632 22.6901 58.9767 22.071 58.4478Z" fill="#CE4ABF"/>
<path d="M23.0837 60.641C23.0837 62.2338 21.7932 63.5244 20.2017 63.5244C20.1824 63.5244 20.1639 63.5244 20.1446 63.5235C19.5247 62.9946 19.1314 62.2081 19.1314 61.3292C19.1314 59.7373 20.4228 58.4472 22.0147 58.4472C22.034 58.4472 22.0525 58.4472 22.0718 58.4481C22.6905 58.9766 23.0837 59.7631 23.0837 60.641Z" fill="#A523A2"/>
<path d="M17.1686 64.2869C17.1686 65.8797 15.8781 67.1703 14.2853 67.1703C14.2432 67.1703 14.2007 67.1694 14.1595 67.1677C12.6255 67.1016 11.4032 65.8377 11.4032 64.2874C11.4032 62.6954 12.6938 61.4053 14.2853 61.4053C15.0542 61.4053 15.7531 61.7059 16.27 62.1961C16.8234 62.7216 17.1686 63.4639 17.1686 64.2869Z" fill="#CE4ABF"/>
<path d="M17.1685 64.2869C17.1685 65.8797 15.8779 67.1702 14.2852 67.1702C14.2431 67.1702 14.2006 67.1694 14.1594 67.1677C13.6064 66.6422 13.2612 65.899 13.2612 65.0764C13.2612 63.4845 14.5518 62.1931 16.1446 62.1931C16.1866 62.1931 16.2291 62.194 16.2703 62.1957C16.8233 62.7216 17.1685 63.4639 17.1685 64.2869Z" fill="#A523A2"/>
<path d="M25.8473 64.6235C25.3442 64.1937 24.6899 63.9344 23.9772 63.9344C22.9872 63.9344 22.1144 64.4329 21.5953 65.1923L16.1558 63.7477C15.6235 63.6111 15.0812 63.9323 14.9447 64.4646C14.8082 64.997 15.1293 65.5392 15.6617 65.6758L21.1106 67.123C21.2618 68.5526 22.4574 69.6706 23.9206 69.6989C23.9399 69.6998 23.9583 69.6998 23.9777 69.6998C25.5696 69.6998 26.8597 68.4092 26.8597 66.8165C26.8597 65.9389 26.4664 65.1524 25.8473 64.6235Z" fill="#CE4ABF"/>
<path d="M26.8601 66.817C26.8601 68.4098 25.5695 69.7003 23.978 69.7003C23.9587 69.7003 23.9403 69.7003 23.9209 69.6995C23.301 69.1705 22.9077 68.384 22.9077 67.5052C22.9077 65.9133 24.1991 64.6232 25.7911 64.6232C25.8104 64.6232 25.8289 64.6232 25.8482 64.624C26.4668 65.1525 26.8601 65.939 26.8601 66.817Z" fill="#A523A2"/>
<path d="M85.4046 51.7267V64.7175C85.4046 65.3697 87.7804 65.8986 90.7114 65.8986C93.6424 65.8986 96.0183 65.3697 96.0183 64.7175V51.7267H85.4046Z" fill="#3A72AA"/>
<path d="M90.7114 52.9078C93.6423 52.9078 96.0183 52.379 96.0183 51.7267C96.0183 51.0744 93.6423 50.5457 90.7114 50.5457C87.7805 50.5457 85.4046 51.0744 85.4046 51.7267C85.4046 52.379 87.7805 52.9078 90.7114 52.9078Z" fill="#23659B"/>
<path d="M86.6666 48.3152V51.2467C86.6666 51.7438 88.4775 52.1469 90.7117 52.1469C92.9459 52.1469 94.7568 51.7438 94.7568 51.2467V48.3152H86.6666Z" fill="#3A72AA"/>
<path d="M90.7117 49.1971C92.9457 49.1971 94.7568 48.794 94.7568 48.2968C94.7568 47.7996 92.9457 47.3965 90.7117 47.3965C88.4777 47.3965 86.6666 47.7996 86.6666 48.2968C86.6666 48.794 88.4777 49.1971 90.7117 49.1971Z" fill="#23659B"/>
<path d="M93.4097 61.3673C94.9004 59.8766 94.9004 57.4598 93.4097 55.9691C91.9191 54.4785 89.5022 54.4785 88.0116 55.9691C86.5209 57.4598 86.5209 59.8766 88.0116 61.3673C89.5022 62.8579 91.919 62.8579 93.4097 61.3673Z" fill="#FCB4B4"/>
<path d="M93.2059 58.8264H88.2185C88.1309 58.8264 88.0601 58.7555 88.0601 58.6679C88.0601 58.5804 88.1309 58.5095 88.2185 58.5095H93.2059C93.2935 58.5095 93.3643 58.5804 93.3643 58.6679C93.3643 58.7551 93.2935 58.8264 93.2059 58.8264Z" fill="#F49F9F"/>
<path d="M93.2059 57.6032H88.2185C88.1309 57.6032 88.0601 57.5324 88.0601 57.4448C88.0601 57.3572 88.1309 57.2864 88.2185 57.2864H93.2059C93.2935 57.2864 93.3643 57.3572 93.3643 57.4448C93.3643 57.5324 93.2935 57.6032 93.2059 57.6032Z" fill="#F49F9F"/>
<path d="M93.2059 60.049H88.2185C88.1309 60.049 88.0601 59.9782 88.0601 59.8906C88.0601 59.803 88.1309 59.7322 88.2185 59.7322H93.2059C93.2935 59.7322 93.3643 59.803 93.3643 59.8906C93.3643 59.9782 93.2935 60.049 93.2059 60.049Z" fill="#F49F9F"/>
<path d="M98.2768 64.5583V65.6888C98.2768 66.6011 96.7016 67.3408 94.7581 67.3408C93.7779 67.3408 92.8914 67.1527 92.2534 66.8492C91.6266 66.5508 91.2394 66.1413 91.2394 65.6892V64.5588H98.2768V64.5583Z" fill="#F39200"/>
<path d="M98.2765 64.558C98.2435 66.5346 91.662 66.9544 91.2532 64.7052C91.2382 64.6228 91.2339 64.5429 91.2399 64.4657C91.3374 63.1567 94.307 62.6144 96.3605 63.085C97.3758 63.3185 98.1679 63.7994 98.2765 64.558Z" fill="#F9B233"/>
<path d="M96.3702 63.0897L93.2829 66.18C93.2026 66.1641 93.1421 66.1177 93.0652 66.0988L96.0877 63.0275C96.1684 63.0434 96.2933 63.0708 96.3702 63.0897Z" fill="#F39200"/>
<path d="M84.7269 65.9897C84.7269 65.9893 85.0146 63.5134 85.0171 63.5143L87.633 63.8195C88.7179 63.9097 89.1575 65.3973 88.2847 66.0383C88.0344 66.2362 87.709 66.3388 87.3668 66.2989C87.3668 66.2989 84.7256 65.9923 84.7269 65.9897Z" fill="#EB5648"/>
<path d="M80.9938 64.2906C81.0783 63.6114 81.6948 63.1272 82.3753 63.2066L85.0144 63.5148C85.0174 63.5153 84.7267 65.9912 84.7254 65.9916C83.61 65.7203 80.8087 66.138 80.9938 64.2906Z" fill="white"/>
</svg>
