<svg width="76" height="78" viewBox="0 0 76 78" fill="none" xmlns="http://www.w3.org/2000/svg">
<path d="M69.723 72.0544C70.6435 71.7994 71.5568 71.4141 72.4879 70.8185C74.1769 69.7407 76.1983 67.347 73.7962 65.7724C73.0616 65.2921 72.1823 65.1265 71.3244 64.9906C65.9698 64.1418 60.6867 64.7039 55.2927 64.5197C52.737 64.4322 50.174 64.2516 47.6272 64.4824C45.7845 64.4824 43.7918 65.1134 41.9866 65.4634C41.1502 65.6253 40.2744 65.8077 39.6203 66.3736C38.9662 66.9394 38.6391 68.0227 39.152 68.73C39.4309 69.1172 39.8884 69.3089 40.3227 69.4801C41.9866 70.1335 43.672 70.7254 45.3753 71.2522C45.4468 71.2745 45.5218 71.2987 45.5772 71.3527C45.6845 71.4569 45.6773 71.6319 45.6827 71.7845C45.7023 72.3355 46.0133 72.8659 46.4744 73.1358C47.3019 73.6216 49.2143 73.1991 50.1597 73.201C51.6807 73.2047 53.1999 73.1954 54.7208 73.1675C57.9218 73.1116 61.121 72.6426 64.3059 72.5793C66.2558 72.5402 68.0037 72.529 69.723 72.0544Z" fill="#FFEFE8"/>
<path d="M7.66772 48.5467C7.53341 48.4407 7.4009 48.3309 7.27022 48.2194C3.30064 44.7795 2.69985 36.6837 2.94852 31.8284C3.23348 26.2342 5.7274 21.229 10.3758 17.8531C13.211 15.7939 16.7703 14.8997 20.0012 13.561C26.1017 11.0319 32.0206 7.9212 37.6928 4.58009C48.4126 -1.73456 66.6124 -1.7181 72.3136 11.3574C74.989 17.491 74.0234 26.0367 72.5568 32.2947C71.6148 36.3179 69.7961 39.8675 67.2477 43.0971C63.6792 47.6195 59.6225 49.6476 54.0049 51.0923C51.3095 51.7854 48.5959 52.2865 45.8171 52.5389C43.0708 52.7876 40.3446 52.2664 37.5984 52.3615C34.442 52.4694 31.2837 52.5261 28.1273 52.6248C22.0177 52.8113 12.7881 52.5846 7.66772 48.5467Z" fill="#FFEFE8"/>
<path d="M41.8519 33.0648C41.3915 34.8443 40.3903 36.4959 39.8788 38.2899C39.327 40.2174 38.6949 42.2453 38.8575 44.2751C39.0293 46.4199 40.4397 47.4339 42.4639 47.8194C44.4571 48.1994 46.4814 48.4149 48.5093 48.4661C50.2267 48.5081 52.1687 48.3291 53.2576 47.0009C53.5335 46.6647 53.7399 46.2591 53.7838 45.8261C53.8642 45.0223 53.3745 44.2513 52.7369 43.758C51.5695 42.8518 50.8369 43.2337 49.558 43.2775C47.9649 43.3342 46.348 43.0309 44.7805 42.7788C44.4553 42.7258 44.0881 42.6454 43.9273 42.3586C43.8396 42.2033 43.8342 42.0151 43.8342 41.8379C43.8342 40.4001 43.6442 38.9056 43.8122 37.4788C43.8999 36.7443 43.9858 36.0099 44.0735 35.2755C44.1922 34.2706 44.3092 33.2366 44.0333 32.2628C43.7574 31.2909 42.9846 30.3865 41.9798 30.2769C41.6582 30.2422 41.3111 30.297 41.0627 30.5034C40.6735 30.8268 40.6351 31.437 40.8379 31.9011C41.0279 32.3359 41.4043 32.8602 41.8738 32.9936C41.8647 33.0155 41.8574 33.0393 41.8519 33.0648Z" fill="#7D5A50"/>
<path d="M53.2364 44.7957C53.22 44.7062 53.2054 44.6167 53.1926 44.529C53.0629 43.6393 52.9423 42.5266 53.9106 42.2453C54.5482 42.0608 55.6681 42.143 56.0938 41.5492C56.2308 41.3592 56.2692 41.1181 56.3039 40.886C56.3532 40.5554 56.4044 40.2247 56.4537 39.8922C54.5975 40.2101 53.8229 38.5494 53.589 36.9946C53.3497 35.4088 53.399 33.4302 54.7966 32.3669C55.6864 31.6891 56.9342 31.5284 57.9792 31.923C59.026 32.3194 59.8445 33.2475 60.1423 34.3254C60.3616 35.1238 60.1021 35.4143 60.0546 36.2364C60.0016 37.1682 60.0839 38.7796 60.0327 39.7131C59.998 40.3398 60.051 41.0706 60.3908 41.6187C60.5461 41.8671 60.7379 42.079 61.001 42.2161C61.1928 42.3147 61.6916 42.2617 61.8103 42.3915C62.49 43.1387 63.1257 43.9298 63.8638 44.6149C62.1227 45.3456 60.3013 45.8682 58.4396 46.1879C57.1333 46.4126 54.497 47.1836 53.5963 45.7951C53.4027 45.4973 53.3022 45.1483 53.2364 44.7957Z" fill="#7D5A50"/>
<path d="M68.6645 49.1897C68.4781 46.8895 67.4477 44.5346 65.3522 43.3836C64.5794 42.9597 63.7353 42.7076 62.8821 42.5048C62.4437 42.4007 62.0015 42.3093 61.5631 42.2107C61.3694 42.1668 61.2379 42.1595 61.1283 42.1869C60.8981 42.64 60.5692 43.0218 60.1527 43.3215C59.2922 43.939 58.1686 44.1107 57.1546 43.8257C56.232 43.5663 55.4939 42.9451 54.9367 42.1887C54.8654 42.1285 54.8234 42.0919 54.8234 42.0919C52.4995 42.2235 49.7554 42.5176 47.4462 42.8063C47.6161 44.8196 47.026 47.5564 47.4462 49.5331C48.6684 49.4107 51.7121 49.3322 51.7103 49.7012C51.7066 50.2694 51.7048 50.6896 51.7249 51.2559C51.7633 52.3631 51.6299 56.0188 51.6756 57.126C51.7231 58.3007 52.4118 57.0036 52.5178 58.1746C52.6366 59.5083 52.843 60.8182 53.139 62.1154C56.1608 63.122 59.6101 62.8772 62.8511 62.5849C63.7755 62.5009 64.7347 62.4077 65.5331 61.9363C67.782 60.61 67.877 56.6893 68.1986 54.4093C68.4434 52.6426 68.8106 50.991 68.6645 49.1897Z" fill="#F2C714"/>
<path d="M45.479 72.1034C45.5192 72.0449 45.5594 71.9883 45.6032 71.9335C46.3852 70.9305 47.7389 70.2746 48.8424 69.6845C50.061 69.0341 51.4276 68.4988 52.8343 68.5792C54.1022 68.6523 55.8634 69.5128 56.1265 70.8556C56.1557 71.0072 56.1685 71.1698 56.1082 71.3105C55.9566 71.6631 55.4816 71.6941 55.0979 71.6978C53.461 71.7124 51.8861 72.2167 50.3588 72.7593C49.5714 73.0388 48.7894 73.3348 47.9947 73.5887C47.284 73.8171 45.5557 74.8164 45.0588 73.7787C44.7848 73.2142 45.1648 72.5674 45.479 72.1034Z" fill="black"/>
<path d="M38.3809 58.6185C39.0422 57.8859 39.985 57.4127 40.9514 57.23C42.307 56.9761 43.7083 57.2227 45.0365 57.5881C47.8537 58.3646 50.4954 59.6727 53.3291 60.3998C54.5842 60.7232 55.4045 60.6026 56.6304 60.5039C58.1869 60.3779 59.7837 60.5313 61.3494 60.4382C62.8128 60.3523 64.3968 60.239 65.7652 60.641C65.946 60.5222 66.1251 60.4034 66.3059 60.2847C67.8369 59.2799 69.3606 58.2805 71.2808 58.6459C72.7898 58.9327 74.2441 59.6982 75.1795 60.9406C76.1715 62.2596 75.8737 63.9825 74.984 65.2979C74.2477 66.3867 73.1589 67.1888 72.0316 67.8647C68.142 70.1978 63.8944 71.6283 59.3032 71.3086C58.6894 71.2665 57.9641 71.2592 57.5219 71.7525C57.3557 71.9389 57.2588 72.9547 56.8898 72.9108C56.4349 72.8578 55.5598 72.7299 55.1304 72.5746C52.812 71.7361 50.4918 70.8993 48.1734 70.0608C46.1363 69.3245 44.0828 68.5809 42.2266 67.4646C40.6207 66.4982 39.1665 65.1919 38.3133 63.5001C37.6994 62.2797 37.1934 60.672 37.8364 59.4041C37.9826 59.1173 38.1671 58.8542 38.3809 58.6185Z" fill="#D96F48"/>
<path d="M67.1682 62.1245C65.8638 62.7767 64.4991 63.1932 63.2512 63.9642C62.0034 64.7352 60.8214 65.6359 59.4658 66.2187C58.587 66.5968 57.31 66.7448 56.4659 67.1632" stroke="black" stroke-width="0.3" stroke-miterlimit="10" stroke-linecap="round" stroke-linejoin="round"/>
<path d="M57.5571 71.5717C57.6795 71.2904 57.8019 71.0072 57.9225 70.7259C58.1655 70.1668 58.4067 69.6059 58.6496 69.0469C59.1941 69.3209 59.7202 69.5383 60.3505 69.4872C60.6867 69.4598 61.0156 69.3648 61.3535 69.3702C62.0222 69.3812 62.3127 69.9037 62.5904 70.4317C63.0837 71.3653 63.9697 72.0449 64.6877 72.794C65.5884 73.733 66.1109 74.6154 65.9666 75.9583C65.9155 76.4314 65.7236 76.9759 65.2651 77.1038C64.843 77.2225 64.4247 76.9265 64.0848 76.6488C63.1641 75.8943 62.2414 75.1398 61.3206 74.3871C60.9004 74.0436 60.4729 73.585 59.9943 73.3274C59.6015 73.1155 59.1338 72.9821 58.7611 72.7337C58.5236 72.6332 58.2806 72.5473 58.0321 72.4742C57.8714 72.4267 57.4676 72.3902 57.3123 72.3226C57.3123 72.3226 57.484 71.7343 57.5498 71.5845C57.5535 71.579 57.5553 71.5754 57.5571 71.5717Z" fill="black"/>
<path d="M55.167 62.7383C54.9989 62.6524 54.8711 62.5026 54.7706 62.2158C54.6025 61.7371 54.7012 61.1689 54.9715 60.7469C55.3187 60.2025 55.9581 59.7823 56.5884 59.6489C57.2388 59.5119 57.8691 59.2799 58.5323 59.1465C59.0091 59.0497 59.4768 58.9181 59.9463 58.7884C60.9366 58.5107 61.9268 58.233 62.9152 57.9571C63.1563 57.8895 63.4084 57.8384 63.6441 57.7525C63.867 57.6721 63.856 57.6941 63.8761 57.4766C63.8981 57.2355 63.814 56.9742 63.7976 56.7331C63.7738 56.3805 63.7501 56.0297 63.7263 55.6771C63.6825 54.992 63.6423 54.3087 63.6039 53.6236C63.5308 52.2844 63.6057 50.9745 63.8432 49.65C64.2415 47.4284 66.8998 46.1532 68.4033 48.2743C69.4502 49.7523 69.6658 51.7564 69.7388 53.514C69.8192 55.4451 69.7078 57.3835 68.966 59.1958C67.1153 63.7175 59.8495 63.2407 55.9088 62.8735C55.6 62.8461 55.357 62.8333 55.167 62.7383Z" fill="#7D5A50"/>
<path d="M69.6348 51.8862C69.6257 51.793 69.6166 51.6998 69.6056 51.6048C69.5983 51.5482 69.591 51.4916 69.58 51.4349C69.5782 51.4203 69.5398 51.265 69.5435 51.2632C69.4522 51.3363 69.3517 51.402 69.2457 51.4514C69.1288 51.5043 69.0064 51.5427 68.8821 51.5792C68.5167 51.6907 68.1495 51.8003 67.7841 51.9118C67.6416 51.9556 67.5046 52.0031 67.3749 52.078C67.4955 52.0433 67.6252 52.0378 67.7494 52.0579C67.923 52.0871 68.0892 52.1493 68.2646 52.1675C68.4163 52.1821 68.5697 52.162 68.7214 52.173C69.0393 52.1968 69.3754 52.4123 69.6604 52.2899C69.6604 52.2899 69.6604 52.1639 69.6586 52.1511C69.6531 52.089 69.6495 52.0287 69.644 51.9666C69.6403 51.9428 69.6367 51.9136 69.6348 51.8862Z" fill="black"/>
<path d="M56.3505 31.0223C56.0033 31.0095 55.6343 31.0589 55.3712 31.2361C55.1209 31.4042 54.9912 31.7348 54.719 31.8591C54.4924 31.9614 54.1691 31.8408 53.9261 31.9066C53.2592 32.0874 52.9395 32.7287 52.8664 33.3645C52.8299 33.6787 52.8208 34.1939 53.1642 34.3401C53.3652 34.4259 53.7964 34.3949 54.0247 34.4186C54.3901 34.4552 54.7592 34.4588 55.1246 34.5009C55.6946 34.5666 56.2609 34.6653 56.82 34.7968C56.8711 34.8096 56.9278 34.8206 56.9735 34.7932C57.0027 34.7749 57.0191 34.7457 57.0356 34.7164C57.1781 34.4661 57.3224 33.7956 57.6476 33.9966C57.8011 34.0916 57.8595 34.7877 57.854 34.9667C57.8413 35.4125 57.7207 35.661 58.1591 35.9496C58.5063 36.178 58.815 36.4502 58.952 36.843C59.1073 37.2851 59.1695 37.9008 59.5257 38.2406C60.1049 38.7887 60.4556 37.983 60.6146 37.5281C60.9982 36.4393 61.74 34.3985 60.6128 33.4997C61.2065 33.9747 62.1967 33.8157 62.6151 33.1818C63.0335 32.546 62.785 31.5759 62.1145 31.2178C62.3611 31.3493 62.7247 30.4523 62.7503 30.3135C62.8252 29.8914 62.701 29.5041 62.4214 29.1862C61.9117 28.6034 60.7954 28.808 60.3771 29.4475C60.41 28.5651 57.9874 28.9122 58.435 30.1326C57.9399 29.3963 56.7469 30.5473 57.5087 31.2379C57.2877 31.0351 56.6464 31.0315 56.3505 31.0223Z" fill="black"/>
<path d="M44.6982 59.8663C47.309 61.0465 49.41 63.0982 51.7868 64.6986C54.0066 66.1931 56.4657 67.2911 58.9083 68.38C58.7804 68.6595 58.6069 69.4012 58.479 69.6826" stroke="black" stroke-width="0.3" stroke-miterlimit="10" stroke-linecap="round" stroke-linejoin="round"/>
<path d="M55.8664 37.8297C55.8664 38.9934 54.414 38.8473 54.1729 38.0105L55.8664 37.8297Z" fill="white"/>
<path d="M58.4875 37.4295C59.4503 37.6707 60.0495 36.6567 59.7572 35.9953C59.3498 35.0746 58.0581 35.228 57.8225 36.1945" fill="#7D5A50"/>
<path d="M58.9809 35.9168C58.8 35.8675 58.5917 35.8967 58.4401 35.9936C58.2885 36.0904 58.1989 36.253 58.2081 36.4138" stroke="#222221" stroke-width="0.3" stroke-miterlimit="10" stroke-linecap="round" stroke-linejoin="round"/>
<path d="M63.0357 47.6861C63.297 48.7274 63.3536 51.1372 63.3628 52.9696C64.0442 52.9094 64.7239 52.8143 65.3962 52.681C66.8596 52.3923 68.2791 51.9411 69.6585 51.382C69.2511 48.7695 68.4947 46.2684 66.6312 44.3848" fill="#F2C714"/>
<path d="M63.3431 64.1725H48.541C48.3236 64.1725 48.1482 63.9971 48.1482 63.7797C48.1482 63.5623 48.3236 63.3869 48.541 63.3869H63.3431C63.5605 63.3869 63.7358 63.5623 63.7358 63.7797C63.7358 63.9971 63.5605 64.1725 63.3431 64.1725Z" fill="black"/>
<path d="M61.1469 63.6408H48.1919L45.5008 56.9962C45.4131 56.7806 45.5721 56.5431 45.8059 56.5431H58.0502C58.1836 56.5431 58.3041 56.6253 58.3553 56.7495L61.1469 63.6408Z" fill="black"/>
<path d="M51.9606 60.0966C52.0977 60.4565 52.5635 60.7488 52.9984 60.7488C53.4332 60.7488 53.6743 60.4565 53.5373 60.0966C53.4003 59.7366 52.9344 59.4443 52.4996 59.4443C52.063 59.4443 51.8218 59.7366 51.9606 60.0966Z" stroke="white" stroke-width="0.3" stroke-miterlimit="10" stroke-linecap="round" stroke-linejoin="round"/>
<path d="M56.3551 39.9049C56.3788 40.1516 56.3587 40.4019 56.335 40.6503C56.3514 40.6467 56.3678 40.643 56.3843 40.6376C56.5304 40.5919 56.651 40.517 56.7844 40.4494C56.894 40.3927 57.031 40.3891 57.1279 40.3032C57.1936 40.2448 57.2229 40.1589 57.2886 40.0986C57.3836 40.0127 57.6869 39.8136 57.4823 39.662C57.3453 39.5597 57.1187 39.7314 56.9981 39.7862C56.9068 39.8282 56.8264 39.8721 56.7259 39.8922C56.6127 39.9141 56.472 39.8995 56.3551 39.9049Z" fill="black"/>
<path d="M40.2009 46.2902C40.3964 46.4693 40.6211 46.6172 40.8622 46.725" stroke="#222221" stroke-width="0.3" stroke-miterlimit="10" stroke-linecap="round" stroke-linejoin="round"/>
<path d="M63.8141 52.9714C63.5309 52.9732 63.2331 52.9422 62.9846 53.0299C62.9225 51.6615 62.1662 50.1926 62.3233 48.8187" stroke="black" stroke-width="0.3" stroke-miterlimit="10" stroke-linecap="round" stroke-linejoin="round"/>
<path d="M59.2429 73.8097C59.3927 73.4443 59.7014 73.1501 60.0723 73.0149C60.1673 72.9802 60.2897 72.962 60.3591 73.035C60.4596 73.1392 60.361 73.3072 60.2751 73.4242C60.1198 73.6361 60.0065 73.8791 59.9426 74.1349C59.917 74.2335 59.9042 74.3486 59.9718 74.4253C60.0413 74.5057 60.171 74.5021 60.2641 74.4509C60.3573 74.3998 60.4231 74.3139 60.4943 74.2335C60.6679 74.0399 60.8798 73.8827 61.1173 73.775C61.1594 73.7549 61.2087 73.7366 61.2525 73.7512C61.3822 73.795 61.3 73.9869 61.2178 74.0947C61.0497 74.3157 60.9694 74.6007 60.9931 74.8766" stroke="#D47172" stroke-width="0.3" stroke-miterlimit="10" stroke-linecap="round" stroke-linejoin="round"/>
<path d="M51.3964 72.6039C51.3562 72.3682 51.3033 72.1106 51.1151 71.9626C50.9287 71.8128 50.5706 71.8859 50.5542 72.1234C50.5469 72.2202 50.5962 72.3097 50.6163 72.4047C50.6437 72.5399 50.6035 72.6952 50.4939 72.7811C50.3843 72.867 50.2071 72.8615 50.1194 72.7537C49.9988 72.6075 50.081 72.3609 49.9568 72.2147C49.8179 72.0521 49.5256 72.1654 49.4379 72.3609C49.3502 72.5564 49.3941 72.7829 49.4178 72.9948C49.4416 73.2086 49.4306 73.4516 49.2717 73.5959" stroke="#D47172" stroke-width="0.3" stroke-miterlimit="10" stroke-linecap="round" stroke-linejoin="round"/>
<path d="M74.5005 62.5867C74.4146 62.6817 74.4055 62.8498 74.3361 62.9978C74.0967 63.5148 73.2161 63.7907 73.651 64.4776C73.9287 64.9161 74.3452 64.7151 74.6485 64.4137C74.9371 64.1268 75.4925 62.5593 74.738 62.51C74.6211 62.5027 74.5498 62.5337 74.5005 62.5867Z" fill="black"/>
<path d="M40.8532 34.0441H25.8283C25.6145 34.0441 25.4428 33.8724 25.4428 33.6586V20.3364C25.4428 20.1227 25.6145 19.9509 25.8283 19.9509H40.8532C41.0669 19.9509 41.2387 20.1227 41.2387 20.3364V33.6586C41.2387 33.8724 41.0669 34.0441 40.8532 34.0441Z" fill="#F9A5CF"/>
<path d="M38.3134 60.155C38.4175 60.1605 38.5399 60.2299 38.6733 60.387C38.8231 60.5624 39.0661 60.789 39.1922 60.9771C39.616 61.6129 38.7848 62.0021 38.275 61.6896C37.7105 61.3425 37.8493 60.1294 38.3134 60.155Z" fill="black"/>
<path d="M68.3366 58.8359C68.1758 59.3785 67.8816 59.8828 67.487 60.2884" stroke="black" stroke-width="0.3" stroke-miterlimit="10" stroke-linecap="round" stroke-linejoin="round"/>
<path d="M67.6057 47.2036C67.8085 47.6622 67.9729 48.139 68.0953 48.625" stroke="black" stroke-width="0.3" stroke-miterlimit="10" stroke-linecap="round" stroke-linejoin="round"/>
<path d="M41.8839 31.9724C41.2992 31.9176 40.7347 31.6655 40.3054 31.2654C40.1939 31.1612 40.0587 31.037 39.9108 31.0754C39.7774 31.1101 39.7116 31.269 39.7335 31.4042C39.7573 31.5394 39.8468 31.6527 39.9382 31.7532C40.3912 32.2574 40.9594 32.6465 41.5203 33.0284C42.3059 33.5655 43.1025 32.0857 41.8839 31.9724Z" fill="#7D5A50"/>
<mask id="mask0_1_284" style="mask-type:luminance" maskUnits="userSpaceOnUse" x="47" y="42" width="22" height="21">
<path d="M68.6641 49.1894C68.4777 46.8893 67.4473 44.5343 65.3518 43.3833C64.579 42.9595 63.7349 42.7074 62.8818 42.5046C62.4433 42.4004 62.0012 42.3091 61.5627 42.2104C61.369 42.1666 61.2375 42.1593 61.1279 42.1867C60.8977 42.6398 60.5688 43.0216 60.1523 43.3212C59.2918 43.9387 58.1682 44.1105 57.1542 43.8255C56.2316 43.566 55.4935 42.9449 54.9363 42.1885C54.8651 42.1282 54.823 42.0917 54.823 42.0917C52.4991 42.2232 49.7551 42.5174 47.4458 42.806C47.6157 44.8193 47.0256 47.5561 47.4458 49.5329C48.668 49.4105 51.7117 49.3319 51.7099 49.701C51.7062 50.2691 51.7044 50.6893 51.7245 51.2557C51.7629 52.3628 51.6295 56.0186 51.6752 57.1257C51.7227 58.3005 52.4115 57.0033 52.5174 58.1744C52.6362 59.5081 52.8426 60.818 53.1386 62.1151C56.1604 63.1218 59.6097 62.877 62.8507 62.5847C63.7751 62.5006 64.7343 62.4075 65.5327 61.9361C67.7817 60.6097 67.8767 56.6891 68.1982 54.409C68.443 52.6424 68.8102 50.9908 68.6641 49.1894Z" fill="white"/>
</mask>
<g mask="url(#mask0_1_284)">
<path d="M52.5048 49.9751C52.5596 50.218 52.4591 50.377 52.3403 50.567C52.2216 50.757 52.1577 50.9068 52.1138 51.1388C52.0316 51.5737 52.0097 52.0322 51.6863 52.372C51.6991 51.6248 51.721 50.8794 51.6699 50.134C51.6662 50.0847 51.6571 49.6572 51.6406 49.6608C51.7813 49.6279 51.9201 49.5896 52.0627 49.5585C52.2746 49.511 52.4591 49.7723 52.5048 49.9751Z" fill="black"/>
</g>
<path d="M15.1266 45.4695H0.573387C0.366344 45.4695 0.200001 45.305 0.200001 45.1003V32.3388C0.200001 32.134 0.366344 31.9695 0.573387 31.9695H15.1266C15.3337 31.9695 15.5 32.134 15.5 32.3388V45.1003C15.5 45.305 15.3319 45.4695 15.1266 45.4695Z" fill="#F2C714"/>
<path d="M30.4046 65.2696H14.9953C14.7761 65.2696 14.6 65.0941 14.6 64.8757V51.2635C14.6 51.045 14.7761 50.8696 14.9953 50.8696H30.4046C30.6239 50.8696 30.8 51.045 30.8 51.2635V64.8757C30.8 65.0941 30.6239 65.2696 30.4046 65.2696Z" fill="#68A4E0"/>
<path d="M11.345 25.801C8.78363 26.6761 8.55161 30.8014 10.1009 32.6393C11.5697 34.3804 14.4381 34.8627 16.4422 33.7026C18.4464 32.5443 19.3234 29.8952 18.3825 27.849C17.6955 26.3564 15.7151 25.8376 14.133 26.3509C14.0727 26.371 14.0087 26.3911 13.9484 26.3747C13.879 26.3564 13.8333 26.2943 13.7877 26.2395C13.4424 25.812 12.8468 25.6201 12.2804 25.6366C11.9406 25.6476 11.6282 25.706 11.345 25.801Z" fill="#D96F48"/>
<path d="M15.1395 24.3139C14.4142 24.9734 13.9081 25.8394 13.7017 26.7748L13.7035 26.7767C13.7071 26.7803 13.7108 26.784 13.7163 26.7876C13.7309 26.7968 13.7455 26.8022 13.7583 26.8095C13.7802 26.815 13.8369 26.8223 13.8588 26.8315C13.8643 26.8315 13.8679 26.8315 13.8734 26.8315C13.8935 26.8315 13.9136 26.8315 13.9355 26.8315C13.9446 26.8315 13.952 26.8315 13.9611 26.8296C13.9684 26.8296 13.9739 26.8278 13.9775 26.8278C13.9958 26.8242 14.0177 26.815 14.025 26.8132C14.047 26.8077 14.0689 26.8004 14.0908 26.7931C14.0926 26.7931 14.0926 26.7931 14.0945 26.7913C14.0963 26.7913 14.0963 26.7894 14.0981 26.7894C14.1127 26.7821 14.1273 26.773 14.1401 26.7657C14.3466 25.9399 14.7924 25.1854 15.4391 24.5971C15.6382 24.4199 15.3368 24.133 15.1395 24.3139Z" fill="black"/>
<path d="M17.8146 28.2913C17.9096 28.6256 17.9534 28.9745 17.9424 29.3217" stroke="#222221" stroke-width="0.3" stroke-miterlimit="10" stroke-linecap="round" stroke-linejoin="round"/>
<path d="M17.9299 30.1054C17.8842 30.5 17.8367 30.9001 17.6686 31.2637C17.4713 31.6857 17.1242 32.0255 16.7643 32.3343" stroke="#222221" stroke-width="0.3" stroke-miterlimit="10" stroke-linecap="round" stroke-linejoin="round"/>
<path d="M13.3664 26.5081C13.4303 26.7583 13.719 26.9173 13.9894 26.9045C14.2598 26.8899 14.5046 26.7364 14.6855 26.5446" stroke="#222221" stroke-width="0.3" stroke-miterlimit="10" stroke-linecap="round" stroke-linejoin="round"/>
<path d="M10.1415 29.7582C10.1305 29.93 10.1378 30.1017 10.1597 30.2716" stroke="#222221" stroke-width="0.3" stroke-miterlimit="10" stroke-linecap="round" stroke-linejoin="round"/>
<path d="M29.1786 46.4693C29.2169 46.2281 28.8442 46.1459 28.8059 46.3889C28.5574 47.9308 28.3108 49.4764 27.9362 50.9946C27.8467 51.3582 27.7499 51.7218 27.6439 52.0799C27.5398 52.4306 27.4247 52.8088 27.1561 53.0719C26.9314 53.2948 26.6208 53.4044 26.3176 53.2747C26.0015 53.1413 25.7859 52.8253 25.6087 52.5457C25.4772 52.3375 25.1556 52.5457 25.289 52.7522C25.6471 53.3167 26.2335 53.9251 26.9661 53.6437C27.6878 53.366 27.907 52.5603 28.0952 51.888C28.594 50.114 28.8863 48.2889 29.1786 46.4693Z" fill="black"/>
<path d="M28.0621 52.4215C28.0877 52.2242 27.9836 52.005 27.7698 51.9684C27.5798 51.9356 27.3442 52.0488 27.3168 52.2608C27.3076 52.3247 27.2985 52.3886 27.282 52.4526C27.2729 52.491 27.2619 52.5275 27.251 52.564C27.2492 52.5695 27.2473 52.575 27.2455 52.5805C27.2437 52.5823 27.2418 52.5878 27.24 52.5969C27.2144 52.6572 27.187 52.7157 27.156 52.7723C27.1395 52.8015 27.1231 52.8289 27.1067 52.8564C27.0993 52.8673 27.0957 52.8746 27.092 52.8801C27.0884 52.8838 27.0847 52.8892 27.0774 52.8984C27.0427 52.9422 27.0043 52.9842 26.9641 53.0244C26.9568 53.0317 26.9441 53.0427 26.9349 53.05C26.9148 53.0646 26.8947 53.0756 26.8728 53.0884C26.8655 53.092 26.8564 53.0957 26.8454 53.1012C26.8198 53.1103 26.7942 53.1176 26.7687 53.1249C26.7632 53.1267 26.7614 53.1267 26.7577 53.1286C26.7522 53.1286 26.7467 53.1286 26.7376 53.1286C26.7102 53.1304 26.6828 53.1322 26.6554 53.1322C26.6463 53.1322 26.6207 53.1304 26.6097 53.1304C26.5933 53.1286 26.5768 53.1267 26.5604 53.1231C26.5056 53.114 26.4526 53.0975 26.3978 53.0829C26.3978 53.0829 26.3978 53.0829 26.396 53.0829C26.3923 53.0811 26.3905 53.0792 26.385 53.0774C26.3558 53.0628 26.3247 53.05 26.2955 53.0354C26.2443 53.008 26.1932 52.9788 26.1457 52.9459C26.1365 52.9386 26.1183 52.9258 26.1091 52.9185C26.0836 52.8984 26.0598 52.8801 26.0361 52.86C25.9886 52.8198 25.9411 52.776 25.8954 52.7339C25.7949 52.6371 25.6999 52.5366 25.6049 52.4343C25.4679 52.2882 25.1902 52.3101 25.0659 52.4581C24.9234 52.628 24.9435 52.8417 25.0897 52.997C25.5318 53.4702 26.0689 53.9489 26.765 53.8922C27.5068 53.8283 27.9745 53.1066 28.0621 52.4215Z" fill="#F2C714"/>
<path d="M31.4936 42.7093C27.4706 41.288 23.2723 43.241 22.0391 46.2682C22.4647 46.1367 22.905 46.0709 23.3618 46.1385C23.9519 46.2262 24.5237 46.5642 24.8635 47.0538C25.0389 47.306 25.1632 47.5836 25.271 47.8687C26.0072 47.527 26.8951 47.3827 27.6734 47.4411C28.2178 47.4813 28.7349 47.6549 29.1605 48.002C29.4218 48.214 29.6264 48.4789 29.7982 48.7657C30.3937 48.3327 31.1391 48.1025 31.8754 48.2121C32.4527 48.2998 32.9168 48.6195 33.22 49.069C33.4302 48.8114 33.6987 48.6049 34.0257 48.5008C34.4679 48.3601 34.9611 48.4167 35.3594 48.6542C35.4855 48.7292 35.6006 48.8187 35.7138 48.91C35.6572 47.2767 34.5738 43.7982 31.4936 42.7093Z" fill="#68A4E0"/>
<path d="M31.4936 42.7094C27.4706 41.288 23.2723 43.241 22.0391 46.2683C22.4647 46.1368 22.905 46.071 23.3618 46.1386C23.9519 46.2263 24.5237 46.5643 24.8635 47.0539C25.0389 47.306 25.1632 47.5837 25.271 47.8687C26.0072 47.5271 26.8951 47.3827 27.6734 47.4412C28.2178 47.4814 28.7349 47.655 29.1605 48.0021C29.4218 48.214 29.6264 48.4789 29.7982 48.7658C30.3937 48.3328 31.1391 48.1026 31.8754 48.2122C32.4527 48.2999 32.9168 48.6196 33.22 49.069C33.4302 48.8114 33.6987 48.605 34.0257 48.5008C34.4679 48.3602 34.9611 48.4168 35.3594 48.6543C35.4855 48.7292 35.6006 48.8187 35.7138 48.9101C35.6572 47.2768 34.5738 43.7983 31.4936 42.7094Z" fill="#A8DCA4"/>
<mask id="mask1_1_284" style="mask-type:luminance" maskUnits="userSpaceOnUse" x="22" y="42" width="14" height="8">
<path d="M31.4938 42.7094C27.4708 41.2881 23.2725 43.2411 22.0393 46.2684C22.4649 46.1368 22.9052 46.071 23.362 46.1386C23.9521 46.2263 24.5239 46.5643 24.8637 47.054C25.0391 47.3061 25.1634 47.5838 25.2711 47.8688C26.0074 47.5271 26.8953 47.3828 27.6736 47.4413C28.218 47.4815 28.7351 47.655 29.1607 48.0021C29.422 48.2141 29.6266 48.479 29.7983 48.7658C30.3939 48.3328 31.1393 48.1026 31.8756 48.2122C32.4529 48.2999 32.917 48.6197 33.2202 49.0691C33.4303 48.8115 33.6989 48.605 34.0259 48.5009C34.4681 48.3602 34.9613 48.4169 35.3596 48.6544C35.4857 48.7293 35.6008 48.8188 35.714 48.9101C35.6574 47.2768 34.574 43.7983 31.4938 42.7094Z" fill="white"/>
</mask>
<g mask="url(#mask1_1_284)">
<path d="M30.5968 41.9623C29.1681 42.6584 27.9642 43.7618 27.0032 45.0279C26.0422 46.2922 25.3132 47.719 24.6848 49.1788" stroke="#222221" stroke-width="0.3" stroke-miterlimit="10" stroke-linecap="round" stroke-linejoin="round"/>
<path d="M30.2537 42.0299C30.6721 44.8069 30.082 47.6094 29.5047 50.3188" stroke="#222221" stroke-width="0.3" stroke-miterlimit="10" stroke-linecap="round" stroke-linejoin="round"/>
<path d="M33.1613 50.1507C33.6838 47.0321 32.0359 44.4451 30.3186 42.0408" stroke="#222221" stroke-width="0.3" stroke-miterlimit="10" stroke-linecap="round" stroke-linejoin="round"/>
</g>
<path d="M37.8102 20.6708C38.4095 22.1744 39.6244 23.4587 41.1572 23.9831C42.6882 24.5092 44.5152 24.2041 45.6917 23.0915C46.2142 22.5982 46.607 21.9424 46.6838 21.228C46.7587 20.5137 46.481 19.7445 45.8945 19.328C45.5182 19.0594 45.0559 18.9516 44.6248 18.7854C43.0006 18.1551 41.8533 16.6752 41.0586 15.126C40.1962 13.4452 38.2231 12.9574 37.4266 15.0803C36.873 16.551 37.2603 19.2896 37.8102 20.6708Z" fill="#68A4E0"/>
<path d="M40.9782 13.6882C40.9599 13.3393 40.5635 13.1511 40.2237 13.078C39.6445 12.9519 38.9759 12.9063 38.3949 13.089C38.1537 12.6706 37.9217 12.2138 37.8358 11.7388C38.2761 11.8485 38.7804 11.7608 39.091 11.4392C39.3303 11.1889 39.2883 10.7724 39.1129 10.5002C38.9466 10.2389 38.647 10.0836 38.3382 10.0781C37.8304 10.069 37.5417 10.3759 37.3444 10.7687C37.2074 10.4362 37.1507 10.0672 37.1854 9.70908C37.1982 9.57754 37.0904 9.44052 36.9552 9.43504C36.8164 9.42956 36.694 9.52456 36.6812 9.66524C36.6209 10.2864 36.7853 10.9076 37.127 11.4264C37.116 11.5927 37.1452 11.7662 37.1763 11.9252C37.2804 12.4532 37.5326 12.9428 37.7993 13.405C37.2476 13.8526 36.9772 14.6309 36.873 15.3087C36.8529 15.4384 36.8401 15.5718 36.8803 15.6979C36.8895 15.7253 36.8986 15.7508 36.9077 15.7728C37.1069 16.2222 37.5874 15.8075 37.7408 15.506C37.8614 15.2685 37.9126 15.0018 37.9601 14.7387C38.1062 14.9506 38.2268 15.1717 38.4314 15.3288C38.5246 15.4001 38.6287 15.4658 38.7457 15.4695C38.9174 15.4731 39.0654 15.3306 39.1184 15.168C39.1713 15.0054 39.1494 14.8282 39.1129 14.6601C39.0763 14.4939 39.0234 14.3276 39.0179 14.1559C39.4271 14.3496 39.7614 14.2911 40.1999 14.2893C40.5653 14.2874 40.9983 14.0554 40.9782 13.6882ZM38.4296 10.7724C38.4807 10.7925 38.541 10.8327 38.5611 10.8875C38.6068 11.0245 38.4168 11.0683 38.3273 11.0866C38.1866 11.1177 38.035 11.1085 37.9016 11.0519C37.9948 10.8327 38.1683 10.6719 38.4296 10.7724Z" fill="#A8DCA4"/>
<path d="M42.4891 23.4076C43.0408 23.4423 43.5871 23.3108 44.0822 23.0715" stroke="#222221" stroke-width="0.3" stroke-miterlimit="10" stroke-linecap="round" stroke-linejoin="round"/>
<path d="M38.106 17.6417C38.2375 19.529 39.2277 21.6391 40.7825 22.7609" stroke="#222221" stroke-width="0.3" stroke-miterlimit="10" stroke-linecap="round" stroke-linejoin="round"/>
<path d="M39.0853 14.3185C39.0213 14.1961 38.9574 14.0737 38.8935 13.9513" stroke="#222221" stroke-width="0.3" stroke-miterlimit="10" stroke-linecap="round" stroke-linejoin="round"/>
<path d="M37.9723 14.9562C37.9339 14.7826 37.8974 14.609 37.859 14.4355" stroke="#222221" stroke-width="0.3" stroke-miterlimit="10" stroke-linecap="round" stroke-linejoin="round"/>
<path d="M37.929 11.0263C37.8541 11.1304 37.8157 11.2583 37.8029 11.3862C37.792 11.5141 37.8066 11.6438 37.8303 11.7681" stroke="#222221" stroke-width="0.3" stroke-miterlimit="10" stroke-linecap="round" stroke-linejoin="round"/>
<path d="M37.3497 10.7286C37.3369 10.7889 37.3058 10.8418 37.2803 10.8967C37.1907 11.0812 37.1377 11.2858 37.1286 11.4904" stroke="#222221" stroke-width="0.3" stroke-miterlimit="10" stroke-linecap="round" stroke-linejoin="round"/>
<path d="M68.4406 23.0548H53.4157C53.2019 23.0548 53.0302 22.883 53.0302 22.6693V9.34527C53.0302 9.13151 53.2019 8.95978 53.4157 8.95978H68.4406C68.6543 8.95978 68.8261 9.13151 68.8261 9.34527V22.6674C68.8261 22.8812 68.6543 23.0548 68.4406 23.0548Z" fill="#A8DCA4"/>
<path d="M30.0445 16.4779H15.0214C14.8077 16.4779 14.6359 16.3061 14.6359 16.0924V2.77019C14.6359 2.55644 14.8077 2.3847 15.0214 2.3847H30.0463C30.2601 2.3847 30.4318 2.55644 30.4318 2.77019V16.0924C30.43 16.3043 30.2583 16.4779 30.0445 16.4779Z" fill="#D96F48"/>
<path d="M56.328 0.550461C56.898 0.798927 57.3839 1.21365 57.7822 1.68866C58.6811 2.76291 59.1561 4.27928 58.6884 5.60017C57.7493 8.24744 54.7842 8.51052 52.6759 6.98866C50.6808 5.54902 50.8562 2.77935 52.4055 1.37259C53.4359 0.437189 55.0089 -0.0195503 56.328 0.550461Z" fill="#F9A5CF"/>
<path d="M56.439 8.24558C56.3769 8.29856 51.7218 12.0182 49.8619 13.5036C49.5988 13.7137 49.2152 13.4853 49.2736 13.1528L50.7444 4.83099L56.439 8.24558Z" fill="#F2C714"/>
<mask id="mask2_1_284" style="mask-type:luminance" maskUnits="userSpaceOnUse" x="49" y="4" width="8" height="11">
<path d="M56.4374 8.2454C56.3588 8.313 49.1021 14.1081 49.1021 14.1081L50.7409 4.83264L56.4374 8.2454Z" fill="white"/>
</mask>
<g mask="url(#mask2_1_284)">
<path d="M47.5298 10.2843C50.7361 9.27037 53.999 8.42814 57.2967 7.76678" stroke="#222221" stroke-width="0.3" stroke-miterlimit="10" stroke-linecap="round" stroke-linejoin="round"/>
<path d="M47.3795 12.0638C50.6443 11.1119 53.9456 10.2843 57.2743 9.58459" stroke="#222221" stroke-width="0.3" stroke-miterlimit="10" stroke-linecap="round" stroke-linejoin="round"/>
<path d="M47.906 13.2129C49.9814 12.7379 52.0586 12.2684 54.1359 11.8062" stroke="#222221" stroke-width="0.3" stroke-miterlimit="10" stroke-linecap="round" stroke-linejoin="round"/>
<path d="M54.0847 5.23279C54.3057 7.81611 54.5268 10.4013 54.7479 12.9846" stroke="#222221" stroke-width="0.3" stroke-miterlimit="10" stroke-linecap="round" stroke-linejoin="round"/>
<path d="M52.8023 4.90387C52.8736 7.78316 52.9467 10.6624 53.0179 13.5417" stroke="#222221" stroke-width="0.3" stroke-miterlimit="10" stroke-linecap="round" stroke-linejoin="round"/>
<path d="M50.8661 4.91675C51.142 8.23085 51.2845 11.5577 51.2936 14.8846" stroke="#222221" stroke-width="0.3" stroke-miterlimit="10" stroke-linecap="round" stroke-linejoin="round"/>
<path d="M49.5469 7.75031C49.6675 10.14 49.8629 12.5278 50.1315 14.9065" stroke="#222221" stroke-width="0.3" stroke-miterlimit="10" stroke-linecap="round" stroke-linejoin="round"/>
</g>
<mask id="mask3_1_284" style="mask-type:luminance" maskUnits="userSpaceOnUse" x="49" y="4" width="8" height="11">
<path d="M56.4374 8.2454C56.3588 8.313 49.1021 14.1081 49.1021 14.1081L50.7409 4.83264L56.4374 8.2454Z" fill="white"/>
</mask>
<g mask="url(#mask3_1_284)">
<path d="M48.4724 8.72407C50.2299 7.8179 52.0879 7.10538 54.0026 6.6048" stroke="#222221" stroke-width="0.3" stroke-miterlimit="10" stroke-linecap="round" stroke-linejoin="round"/>
</g>
<path d="M58.0723 7.43067C55.3483 5.82477 50.8394 3.18481 50.8394 3.18481L50.1835 5.24745L56.4975 8.85021C56.4956 8.85021 57.3781 7.82346 58.0723 7.43067Z" fill="#F2C714"/>
<path d="M50.1813 5.24756C51.7122 6.27614 54.3285 7.73039 55.9216 8.66032" stroke="#222221" stroke-width="0.3" stroke-miterlimit="10" stroke-linecap="round" stroke-linejoin="round"/>
<path d="M51.3326 3.46808L53.8849 4.99724" stroke="#222221" stroke-width="0.3" stroke-miterlimit="10" stroke-linecap="round" stroke-linejoin="round"/>
<path d="M54.7375 5.54724L58.0498 7.53132" stroke="#222221" stroke-width="0.3" stroke-miterlimit="10" stroke-linecap="round" stroke-linejoin="round"/>
<path d="M53.6583 1.57538C52.9531 1.83115 52.4562 2.58203 52.4014 3.22695" stroke="#222221" stroke-width="0.3" stroke-miterlimit="10" stroke-linecap="round" stroke-linejoin="round"/>
<path d="M55.2422 1.35428C54.9937 1.3287 54.7416 1.33966 54.4949 1.37255" stroke="#222221" stroke-width="0.3" stroke-miterlimit="10" stroke-linecap="round" stroke-linejoin="round"/>
<path d="M7.64706 4.76528C7.60687 4.74518 7.56667 4.72691 7.52465 4.71047C7.49177 4.69768 7.45523 4.68672 7.42052 4.69768C7.34561 4.72143 7.33465 4.82374 7.34927 4.89865C7.41321 5.21106 7.64889 5.44856 7.87178 5.67145C8.5715 6.29993 9.20363 7.02888 9.83758 7.72313C10.4076 8.34612 10.8515 9.08421 11.3649 9.76201C11.4161 9.82778 11.4818 9.90086 11.5677 9.8899C11.6061 9.88442 11.6408 9.86249 11.6682 9.83509C11.8198 9.69807 11.8436 9.47335 11.8418 9.27239C11.8344 7.98073 11.2772 6.78224 10.7364 5.6276C10.6488 5.43943 10.5592 5.24942 10.4971 5.04846C10.4186 4.79268 10.3838 4.52412 10.351 4.25556C10.2907 3.7367 10.2395 3.21602 10.1975 2.69351C10.1792 2.45235 10.1555 2.19292 10.0002 2.01023C9.97461 1.97917 9.94172 1.95176 9.90153 1.94811C9.86499 1.94628 9.82845 1.96821 9.79922 1.99196C9.58912 2.16917 9.59825 2.48341 9.62748 2.74832C9.70056 3.42795 9.717 4.13863 9.86316 4.79999C9.9673 5.275 10.1354 5.7427 10.3528 6.17569C10.6213 6.71099 10.8589 7.26456 11.0598 7.83274C10.9886 7.6336 10.7237 7.42168 10.6122 7.22985C10.4862 7.01244 10.382 6.78224 10.3217 6.53743C10.1975 6.03502 9.89787 5.56183 9.65306 5.10692C9.40825 4.64653 9.1269 4.21171 8.93507 3.72209C8.55871 2.75745 8.37967 1.68868 7.7786 0.831838C7.70187 0.720394 7.61052 0.610776 7.48081 0.566929C7.35109 0.523082 7.17753 0.576064 7.13186 0.707605C7.10445 0.789818 7.13003 0.875685 7.15744 0.956072C7.44975 1.81474 7.7786 2.66062 8.14217 3.49006C8.47833 4.25921 8.79804 5.03384 9.16892 5.78107C9.38633 6.21954 9.55989 6.66897 9.88326 7.04532C9.50508 6.60503 9.07757 6.20127 8.67747 5.78107C8.3614 5.44856 8.06178 4.98269 7.64706 4.76528Z" fill="#A8DCA4"/>
<path d="M14.5751 7.9387C13.8772 7.74869 13.1062 7.71398 12.3773 7.57879C11.8091 7.47282 11.1441 7.31753 10.5686 7.58427C10.2342 7.73956 10.0114 8.0611 9.8177 8.37351C8.77268 10.0598 7.66189 12.1188 8.87682 13.9074C9.89809 15.411 11.895 15.7033 13.5209 14.8464C14.2024 14.4865 14.7962 13.9731 15.3278 13.4123C15.8266 12.8879 16.2833 12.3088 16.55 11.6438C16.9319 10.6901 16.7236 9.61584 16.0878 8.85218C15.6694 8.35159 15.1451 8.09399 14.5751 7.9387Z" fill="#F2C714"/>
<mask id="mask4_1_284" style="mask-type:luminance" maskUnits="userSpaceOnUse" x="8" y="7" width="9" height="9">
<path d="M14.5751 7.9387C13.8772 7.74869 13.1062 7.71398 12.3773 7.57879C11.8091 7.47282 11.1441 7.31753 10.5686 7.58427C10.2342 7.73956 10.0114 8.0611 9.8177 8.37351C8.77268 10.0598 7.66189 12.1188 8.87682 13.9074C9.89809 15.411 11.895 15.7033 13.5209 14.8464C14.2024 14.4865 14.7962 13.9731 15.3278 13.4123C15.8266 12.8879 16.2833 12.3088 16.55 11.6438C16.9319 10.6901 16.7236 9.61584 16.0878 8.85218C15.6694 8.35159 15.1451 8.09399 14.5751 7.9387Z" fill="white"/>
</mask>
<g mask="url(#mask4_1_284)">
<path d="M10.108 7.56055C10.1226 8.08306 10.1354 8.6147 9.99834 9.12442C9.87045 9.60491 9.61285 10.0489 9.47948 10.5275C9.34429 11.0117 9.33881 11.5177 9.36621 12.0128C9.44477 13.4379 9.87411 14.9561 11.0415 15.7453C11.5238 16.0723 12.0957 16.2477 12.6602 16.4195C12.757 16.4487 12.916 16.4268 12.8959 16.3281" stroke="#222221" stroke-width="0.3" stroke-miterlimit="10" stroke-linecap="round" stroke-linejoin="round"/>
<path d="M10.2325 7.12201C10.5704 7.90577 10.5504 8.80647 10.4517 9.67062C10.353 10.5329 10.1831 11.4007 10.2452 12.2612C10.322 13.341 10.7769 14.3769 11.5132 15.1497C12.18 15.8494 13.1501 16.3481 14.1312 16.1728" stroke="#222221" stroke-width="0.3" stroke-miterlimit="10" stroke-linecap="round" stroke-linejoin="round"/>
<path d="M14.3887 15.2702C13.8753 14.724 13.6232 13.9786 13.477 13.2368C13.329 12.4951 13.2724 11.7296 13.0769 11.0006C12.5928 9.19377 11.3084 7.74316 9.98936 6.43689" stroke="#222221" stroke-width="0.3" stroke-miterlimit="10" stroke-linecap="round" stroke-linejoin="round"/>
<path d="M10.9421 6.74573C12.0273 8.17624 14.0644 8.54894 15.356 9.79858C16.3097 10.7212 16.781 12.1133 16.5947 13.4561" stroke="#222221" stroke-width="0.3" stroke-miterlimit="10" stroke-linecap="round" stroke-linejoin="round"/>
</g>
<path d="M6.65075 43.2553C6.45233 43.2553 6.28971 43.2128 6.15283 43.1251L6.13828 43.1154C6.01818 43.0341 5.81715 42.8394 5.81715 42.4511V42.3639C5.81715 42.3034 5.82162 42.2393 5.83094 42.1736C5.844 42.0248 5.8619 41.8029 5.8854 41.5064C5.90777 41.2106 5.91897 40.8014 5.91897 40.2931C5.91897 39.8 5.90218 39.3237 5.86899 38.8776C5.83654 38.4237 5.80073 37.9974 5.76343 37.6095C5.72651 37.2186 5.68996 36.8695 5.65676 36.5618C5.61984 36.2283 5.60156 35.9561 5.60156 35.7323C5.60156 35.5167 5.64595 35.3216 5.73285 35.1523C5.85892 34.9113 6.08233 34.7457 6.39787 34.6566L6.50193 34.6327C6.50454 34.632 6.50753 34.6312 6.51014 34.6305C6.58884 34.6085 6.67462 34.5891 6.77272 34.5716L6.835 34.5604C6.88834 34.551 6.94242 34.5413 6.9965 34.5309C7.1181 34.5096 7.21768 34.4999 7.30347 34.4999C7.69286 34.4999 8.00206 34.7424 8.09046 35.1176C8.1203 35.2507 8.1382 35.4104 8.14715 35.6129L8.1479 35.6409C8.1479 35.761 8.15274 35.9307 8.16207 36.1444C8.17326 36.3689 8.18296 36.6241 8.19303 36.9064L8.20235 37.1455C8.21056 37.3532 8.21876 37.5699 8.22846 37.7971C8.24338 38.1145 8.25457 38.4367 8.26538 38.7638C8.27545 39.0917 8.28403 39.4128 8.29037 39.7284C8.29783 40.0428 8.30156 40.3404 8.30156 40.6101C8.30156 41.067 8.27471 41.4743 8.22175 41.8204C8.15573 42.262 8.04085 42.5656 7.85921 42.773L7.84802 42.7857C7.68018 42.9677 7.45826 43.0975 7.18897 43.171C6.97227 43.2292 6.80255 43.2553 6.65075 43.2553ZM6.86261 35.8401C6.86783 35.9989 6.88312 36.1951 6.90849 36.4256C6.91259 36.4648 6.91706 36.5051 6.92116 36.5454C6.91631 36.4253 6.91147 36.3115 6.90625 36.2037C6.89991 36.0627 6.89543 35.9389 6.89282 35.8322C6.88237 35.8348 6.87231 35.8374 6.86261 35.8401Z" fill="#EC526C"/>
<path d="M6.56784 35.2625C6.58127 35.2625 6.61819 35.2539 6.67973 35.2367C6.74127 35.2196 6.80878 35.2047 6.88375 35.1912C6.95872 35.1778 7.0363 35.164 7.11388 35.1495C7.19258 35.136 7.25636 35.1297 7.30335 35.1297C7.39921 35.1297 7.45702 35.1741 7.47791 35.2625C7.49768 35.3509 7.51111 35.4777 7.51857 35.6411C7.51857 35.7701 7.52341 35.9473 7.53348 36.1722C7.54467 36.3971 7.55437 36.6492 7.56407 36.9286C7.57526 37.2091 7.58607 37.5063 7.59987 37.8237C7.61479 38.1408 7.62561 38.4608 7.6368 38.7853C7.64649 39.1087 7.65508 39.4272 7.66142 39.7409C7.66888 40.0545 7.6726 40.3447 7.6726 40.6103C7.6726 41.0407 7.64799 41.4122 7.60025 41.7255C7.55362 42.0392 7.48089 42.2506 7.38616 42.3588C7.29776 42.4547 7.1758 42.5225 7.02325 42.5643C6.86958 42.605 6.74538 42.6259 6.64952 42.6259C6.57455 42.6259 6.52159 42.6147 6.491 42.5953C6.46042 42.5744 6.4455 42.5263 6.4455 42.4513C6.4455 42.4315 6.4455 42.4021 6.4455 42.364C6.4455 42.3271 6.44923 42.2876 6.4552 42.2473C6.46863 42.0973 6.48728 41.8672 6.51189 41.5561C6.53539 41.2462 6.5477 40.8259 6.5477 40.2932C6.5477 39.783 6.53054 39.2948 6.49623 38.8312C6.46303 38.3675 6.42722 37.9397 6.38918 37.5485C6.35225 37.1561 6.31533 36.8044 6.28214 36.4948C6.24783 36.1849 6.23066 35.9305 6.23066 35.7324C6.23066 35.6168 6.25156 35.5198 6.29221 35.4411C6.33175 35.3636 6.42387 35.3031 6.56784 35.2625Z" fill="#E6E7E8"/>
<path d="M32.6474 30.9472C32.4202 30.9472 32.2171 30.8344 32.0434 30.6117C32.0121 30.5718 31.9694 30.5287 31.917 30.4843L31.8816 30.4516C31.8135 30.3836 31.7465 30.3221 31.6826 30.2686C31.602 30.2016 31.3575 29.997 31.3575 29.6664C31.3575 29.4413 31.4662 29.2587 31.5482 29.1409C31.6246 29.0308 31.7176 28.9204 31.8246 28.8134C31.8274 28.8106 31.8302 28.8079 31.8329 28.8051C31.8315 28.8051 31.8305 28.8051 31.8291 28.8051C31.2276 28.8051 30.7004 28.7571 30.2628 28.6623C29.8019 28.5637 29.4109 28.4144 29.1014 28.2178C28.7652 28.0059 28.5099 27.7389 28.3446 27.4242C28.1835 27.1203 28.1012 26.7782 28.1012 26.4097C28.1012 26.2618 28.1154 26.1076 28.1439 25.9523C28.1679 25.8186 28.1984 25.6853 28.2377 25.5467C28.2734 25.414 28.3217 25.2779 28.3804 25.1473C28.4419 25.0122 28.5027 24.9021 28.5686 24.8076L28.5805 24.791C28.7583 24.5537 29.042 24.4152 29.4247 24.3787C29.9985 24.3113 30.293 24.6857 30.293 25.0577C30.293 25.1963 30.2631 25.3473 30.1992 25.5331C30.1923 25.5533 30.1694 25.6356 30.1694 25.828C30.1694 25.9176 30.1947 25.9443 30.2117 25.9621C30.2805 26.0339 30.4003 26.1006 30.5563 26.1534C30.7671 26.2257 31.0268 26.2767 31.33 26.3062C31.6586 26.3396 32.0375 26.3562 32.4581 26.3562C33.4573 26.3562 34.213 26.2975 34.7041 26.1819C34.7718 26.1659 34.8305 26.1506 34.8816 26.1364C34.8614 26.1058 34.8402 26.0735 34.8177 26.0388C34.7159 25.8881 34.6621 25.7103 34.6621 25.5238C34.6621 25.3796 34.7041 25.2202 34.8072 24.9736C34.8843 24.7899 34.983 24.5958 35.1007 24.3957C35.1854 24.2419 35.2619 24.1224 35.3341 24.0304C35.5512 23.7438 35.8151 23.7001 35.9526 23.7001C36.1395 23.7001 36.409 23.7706 36.6313 24.1054C36.7226 24.2408 36.8011 24.4041 36.8688 24.6003C36.93 24.7844 36.9821 24.9799 37.0265 25.1872C37.0762 25.4199 37.1012 25.6807 37.1012 25.9621C37.1012 26.5688 36.9564 27.0765 36.6702 27.4714C36.3923 27.8569 35.9954 28.1553 35.4907 28.3577C35.0312 28.5425 34.4943 28.6616 33.8508 28.7214C33.7434 28.7314 33.633 28.7405 33.5208 28.7485C33.5243 28.7516 33.5278 28.7547 33.5312 28.7582L33.5497 28.7759C33.6452 28.8718 33.7337 28.9801 33.8129 29.0989C33.8907 29.2142 33.997 29.3972 33.997 29.6185C33.997 29.8449 33.8865 30.0568 33.6688 30.2485C33.5976 30.3131 33.5198 30.3853 33.4441 30.461L33.4333 30.4714C33.2996 30.5982 33.2485 30.6524 33.2298 30.6736C33.0777 30.8479 32.8696 30.9472 32.6474 30.9472ZM29.3164 26.7199C29.3331 26.7747 29.3546 26.8268 29.381 26.8768C29.4501 27.0085 29.5664 27.1255 29.7276 27.2269C29.9207 27.3495 30.1829 27.4464 30.5087 27.5162C30.8667 27.5937 31.3102 27.6326 31.8288 27.6326C32.5331 27.6326 33.1767 27.6062 33.7421 27.5537C34.1404 27.5169 34.4922 27.4523 34.7913 27.3613C34.2196 27.4735 33.4531 27.528 32.4574 27.528C31.9976 27.528 31.5791 27.5093 31.2134 27.4725C30.8216 27.4343 30.4726 27.3638 30.178 27.2631C29.8415 27.1495 29.5668 26.9842 29.3633 26.772C29.3473 26.7549 29.3313 26.7376 29.3164 26.7199ZM35.861 25.4928C35.8748 25.5137 35.888 25.5338 35.9005 25.5526C35.895 25.5144 35.8884 25.4776 35.8811 25.4421C35.8735 25.4612 35.8669 25.4779 35.861 25.4928Z" fill="#A565BC"/>
<path d="M32.6947 28.923C32.745 28.923 32.8103 28.9484 32.8891 28.9998C32.9694 29.0502 33.0496 29.113 33.133 29.1898C33.2028 29.2596 33.2656 29.3374 33.3229 29.4235C33.3802 29.5083 33.4087 29.5735 33.4087 29.618C33.4087 29.6684 33.3653 29.7326 33.2795 29.808C33.1948 29.8847 33.11 29.9636 33.0277 30.0462C32.9131 30.1549 32.8343 30.2341 32.7895 30.2845C32.7447 30.3362 32.6978 30.3612 32.6464 30.3612C32.6085 30.3612 32.5616 30.3248 32.5043 30.2511C32.447 30.1779 32.3772 30.107 32.2949 30.0368C32.2126 29.9545 32.1324 29.8813 32.0567 29.818C31.9799 29.7538 31.9421 29.7034 31.9421 29.6656C31.9421 29.6208 31.9705 29.5569 32.0278 29.4746C32.0851 29.3923 32.155 29.3096 32.2376 29.2273C32.3199 29.145 32.4036 29.0738 32.4894 29.013C32.5755 28.9526 32.6443 28.923 32.6947 28.923ZM29.5814 25.8279C29.5814 26.0443 29.6488 26.2228 29.7853 26.3662C29.9225 26.5093 30.1163 26.6239 30.367 26.7086C30.6178 26.7944 30.9189 26.8552 31.2714 26.8896C31.6229 26.925 32.0192 26.9424 32.4564 26.9424C33.5042 26.9424 34.2975 26.8795 34.8368 26.7524C35.3758 26.6253 35.6464 26.4822 35.6464 26.3242C35.6464 26.2474 35.613 26.1641 35.5467 26.0713C35.4793 25.9797 35.3991 25.8605 35.3039 25.714C35.265 25.6581 35.2466 25.5938 35.2466 25.524C35.2466 25.4667 35.28 25.359 35.3463 25.2C35.4127 25.0419 35.4998 24.87 35.6085 24.686C35.6783 24.5588 35.7402 24.4606 35.794 24.3918C35.8478 24.3209 35.9006 24.2866 35.951 24.2866C36.0152 24.2866 36.0781 24.3345 36.1409 24.4296C36.2052 24.5248 36.2622 24.645 36.3125 24.7915C36.3629 24.944 36.4101 25.1166 36.4511 25.3101C36.4924 25.5035 36.5129 25.7213 36.5129 25.9626C36.5129 26.4447 36.4063 26.834 36.1934 27.1282C35.9805 27.4237 35.6735 27.6526 35.2706 27.8141C34.8663 27.9766 34.3753 28.0843 33.7949 28.1381C33.2132 28.192 32.5582 28.2194 31.8278 28.2194C31.2634 28.2194 30.7824 28.176 30.3851 28.0902C29.9888 28.0055 29.6651 27.8829 29.414 27.7238C29.1633 27.5658 28.9789 27.3748 28.8622 27.1525C28.7444 26.9302 28.6857 26.6829 28.6857 26.4107C28.6857 26.2961 28.6972 26.1783 28.7191 26.0582C28.741 25.9366 28.7684 25.8199 28.8004 25.7056C28.8313 25.591 28.8702 25.4848 28.9136 25.3872C28.9584 25.2889 29.0028 25.2076 29.0476 25.1434C29.1233 25.0426 29.2699 24.9819 29.4849 24.9624C29.6315 24.944 29.7047 24.9763 29.7047 25.0586C29.7047 25.1284 29.6842 25.2236 29.6429 25.3437C29.6019 25.4629 29.5814 25.6254 29.5814 25.8279Z" fill="#E6E7E8"/>
<path d="M22.6427 13.3237C22.4819 13.3237 22.2447 13.2654 22.0286 12.9882C21.9967 12.9483 21.9532 12.9042 21.9022 12.8607L21.8695 12.8309C21.7983 12.7604 21.733 12.7006 21.6702 12.6478C21.5809 12.5725 21.3423 12.3724 21.3423 12.0518C21.3423 11.9771 21.3548 11.9066 21.3742 11.8413C21.3346 11.8049 21.2954 11.7625 21.2568 11.7128C21.2197 11.667 21.1731 11.6177 21.1238 11.5725L21.1099 11.5597C21.0307 11.4825 20.9682 11.4266 20.9133 11.3836C20.823 11.3103 20.5702 11.105 20.5702 10.7716C20.5702 10.5409 20.6865 10.3558 20.7737 10.2363C20.8557 10.1252 20.9481 10.0186 21.0495 9.91887C21.0658 9.90254 21.0825 9.88691 21.0988 9.87128C20.831 9.84767 20.5844 9.81154 20.3614 9.76326C19.9002 9.66462 19.5091 9.51492 19.2003 9.31868C18.8655 9.10785 18.6102 8.8411 18.4435 8.52747C18.2813 8.21938 18.2 7.87796 18.2 7.51049C18.2 7.35558 18.2146 7.19997 18.2434 7.04819C18.2653 6.92593 18.2952 6.79429 18.3334 6.65223C18.3757 6.50045 18.4251 6.3643 18.481 6.24239C18.5404 6.11179 18.6015 6.00169 18.6668 5.90791L18.6786 5.89124C18.8565 5.65401 19.1402 5.51543 19.523 5.47896C20.0978 5.41157 20.3899 5.78599 20.3899 6.15798C20.3899 6.29622 20.36 6.44696 20.2965 6.63313C20.2895 6.65362 20.2663 6.73594 20.2663 6.92871C20.2663 7.01033 20.2878 7.03985 20.3097 7.06278C20.3785 7.13502 20.4972 7.20101 20.6532 7.25381C20.8637 7.32571 21.1231 7.37711 21.427 7.40663C21.7567 7.43963 22.1359 7.45665 22.5566 7.45665C23.5558 7.45665 24.3116 7.39795 24.8027 7.28229C24.8701 7.26631 24.9288 7.25103 24.9799 7.23679C24.959 7.20518 24.9368 7.17184 24.9132 7.13572C24.8149 6.98984 24.7611 6.81096 24.7611 6.6241C24.7611 6.47996 24.8031 6.32088 24.9059 6.07428C24.9833 5.89019 25.082 5.69569 25.1997 5.49563C25.2848 5.34176 25.3612 5.22228 25.4331 5.13024C25.6502 4.84369 25.9142 4.79993 26.0517 4.79993C26.2046 4.79993 26.4963 4.85237 26.7301 5.20491C26.8218 5.34107 26.9003 5.50431 26.9676 5.70055C27.026 5.87665 27.0763 6.0656 27.1243 6.28441C27.1746 6.52094 27.2 6.78144 27.2 7.06243C27.2 7.66887 27.0552 8.17666 26.7693 8.57158C26.4914 8.95711 26.0938 9.25547 25.5884 9.45796C25.2056 9.61218 24.768 9.72089 24.2585 9.78723C24.2946 9.81849 24.3297 9.85183 24.3641 9.88657C24.4617 9.98417 24.5478 10.0891 24.6246 10.2047C24.7103 10.3332 24.8086 10.5083 24.8086 10.7233C24.8086 10.955 24.694 11.1693 24.4679 11.3599C24.3995 11.419 24.3321 11.4832 24.272 11.5482C24.1525 11.6725 24.0719 11.7555 24.0233 11.8042C24.0049 11.8229 23.9862 11.8399 23.9674 11.8563C23.9761 11.9004 23.9813 11.9466 23.9813 11.9945C23.9813 12.3283 23.7413 12.5492 23.6625 12.6214L23.4134 12.8528C23.2766 12.9816 23.2415 13.0236 23.238 13.0282C23.0803 13.2206 22.8705 13.3237 22.6427 13.3237ZM19.415 7.8203C19.4316 7.87588 19.4535 7.92867 19.4803 7.97973C19.5487 8.10824 19.6657 8.22633 19.8269 8.32775C20.02 8.45036 20.2822 8.54726 20.608 8.61708C20.9658 8.69453 21.4097 8.73343 21.9282 8.73343C22.6326 8.73343 23.2762 8.70704 23.8403 8.65459C24.2394 8.61777 24.5909 8.55317 24.8896 8.46252C24.3182 8.57436 23.552 8.62889 22.5569 8.62889C22.0974 8.62889 21.6785 8.61013 21.3121 8.57331C20.9192 8.53476 20.5702 8.46425 20.2763 8.36353C19.9384 8.24926 19.6633 8.08323 19.4612 7.87067C19.4448 7.85469 19.4295 7.83767 19.415 7.8203ZM25.9604 6.59423C25.9746 6.61542 25.9878 6.63522 26.0003 6.65397C25.9948 6.61542 25.9882 6.5786 25.9809 6.54283C25.9729 6.56193 25.9659 6.57895 25.9604 6.59423Z" fill="#A565BC"/>
<path d="M22.6803 11.2996C22.7307 11.2996 22.798 11.327 22.8807 11.3808C22.9634 11.4347 23.0422 11.4965 23.119 11.5663C23.1947 11.6361 23.2596 11.7139 23.3135 11.8001C23.3673 11.8859 23.3947 11.9512 23.3947 11.9946C23.3947 12.046 23.351 12.1113 23.2652 12.1905C23.1804 12.2697 23.0957 12.3475 23.0134 12.4242C22.8988 12.5319 22.821 12.6107 22.7796 12.6625C22.7383 12.7129 22.6925 12.7382 22.6421 12.7382C22.5973 12.7382 22.5469 12.7017 22.49 12.6281C22.4326 12.5559 22.3628 12.484 22.2802 12.4142C22.2034 12.3384 22.1256 12.2665 22.0468 12.1998C21.9679 12.1335 21.9276 12.0842 21.9276 12.0522C21.9276 12.0088 21.9561 11.9435 22.0134 11.8577C22.0707 11.7719 22.1405 11.6882 22.2229 11.6045C22.3052 11.5222 22.3889 11.451 22.4747 11.3902C22.5615 11.3305 22.6299 11.2996 22.6803 11.2996ZM23.5083 10.0332C23.5597 10.0332 23.6261 10.0586 23.7087 10.11C23.7914 10.1593 23.8713 10.2222 23.947 10.2989C24.0168 10.3687 24.0797 10.4444 24.137 10.5302C24.1943 10.616 24.2228 10.6789 24.2228 10.7237C24.2228 10.7751 24.178 10.8383 24.0901 10.9126C24.0008 10.9894 23.9185 11.0682 23.8428 11.1495C23.7337 11.2628 23.6559 11.343 23.6091 11.3899C23.5611 11.4382 23.5118 11.4621 23.4614 11.4621C23.4236 11.4621 23.3756 11.4257 23.3183 11.352C23.261 11.2808 23.1912 11.2089 23.1089 11.1391C23.0266 11.0589 22.9474 10.9856 22.8706 10.9227C22.7953 10.8585 22.7574 10.8095 22.7574 10.7716C22.7574 10.7268 22.7848 10.664 22.8422 10.5827C22.8995 10.5004 22.9693 10.4177 23.0519 10.3364C23.1343 10.2541 23.219 10.1829 23.3048 10.1235C23.3906 10.0641 23.458 10.0332 23.5083 10.0332ZM21.9189 10.0332C21.9693 10.0332 22.0346 10.0586 22.1135 10.11C22.1923 10.1593 22.2736 10.2222 22.3562 10.2989C22.426 10.3687 22.4879 10.4444 22.5417 10.5302C22.5966 10.616 22.623 10.6789 22.623 10.7237C22.623 10.7751 22.5806 10.8383 22.4948 10.9126C22.4087 10.9894 22.3274 11.0682 22.252 11.1495C22.1433 11.2628 22.0666 11.343 22.0186 11.3899C21.9707 11.4382 21.9214 11.4621 21.871 11.4621C21.8262 11.4621 21.7758 11.4257 21.7185 11.352C21.6612 11.2808 21.5949 11.2089 21.5181 11.1391C21.4355 11.0589 21.3556 10.9856 21.2753 10.9227C21.1965 10.8585 21.1562 10.8095 21.1562 10.7716C21.1562 10.7268 21.1871 10.664 21.2465 10.5827C21.3073 10.5004 21.3782 10.4177 21.4608 10.3364C21.5445 10.2541 21.6279 10.1829 21.7137 10.1235C21.7998 10.0641 21.8675 10.0332 21.9189 10.0332ZM19.6804 6.92878C19.6804 7.14516 19.7492 7.32369 19.8853 7.46714C20.0215 7.61024 20.2153 7.72486 20.4661 7.8096C20.7168 7.8954 21.019 7.95618 21.3705 7.99056C21.7231 8.02599 22.1183 8.04336 22.557 8.04336C23.6045 8.04336 24.3982 7.98049 24.9376 7.85337C25.477 7.72625 25.7472 7.58315 25.7472 7.42511C25.7472 7.34835 25.7139 7.26499 25.6465 7.17225C25.5801 7.08056 25.4999 6.96143 25.4037 6.81485C25.3658 6.75893 25.3474 6.69468 25.3474 6.62486C25.3474 6.56755 25.3808 6.45988 25.4471 6.30081C25.5135 6.14277 25.6006 5.97084 25.7094 5.78676C25.7792 5.65964 25.841 5.56134 25.8948 5.49257C25.9487 5.42171 26.0015 5.38733 26.0518 5.38733C26.1147 5.38733 26.1789 5.43526 26.2418 5.53043C26.3061 5.6256 26.363 5.74577 26.4134 5.89235C26.4638 6.04482 26.5096 6.21745 26.552 6.41091C26.5933 6.60437 26.6138 6.82215 26.6138 7.06354C26.6138 7.54563 26.5072 7.93499 26.2943 8.22918C26.0813 8.52476 25.7733 8.75365 25.37 8.91515C24.9668 9.0777 24.4756 9.18538 23.8942 9.23921C23.3135 9.29305 22.6588 9.32049 21.928 9.32049C21.3632 9.32049 20.8825 9.27707 20.4852 9.19128C20.0892 9.10653 19.7652 8.98393 19.5144 8.82485C19.2636 8.66681 19.0792 8.47578 18.9611 8.25349C18.8444 8.0312 18.786 7.7839 18.786 7.5116C18.786 7.39698 18.7965 7.27923 18.8194 7.15906C18.8413 7.03749 18.8687 6.92079 18.8996 6.80652C18.9316 6.6919 18.9694 6.58562 19.0142 6.48802C19.059 6.38972 19.1035 6.30845 19.1483 6.24419C19.2237 6.14346 19.3702 6.08268 19.5856 6.06323C19.7322 6.04482 19.8044 6.07713 19.8044 6.15944C19.8044 6.22926 19.7839 6.32442 19.7426 6.4446C19.7009 6.56373 19.6804 6.72628 19.6804 6.92878Z" fill="#E6E7E8"/>
<path d="M22.7771 62.9164C22.3059 62.9164 21.85 62.842 21.4224 62.6948C20.982 62.5447 20.5849 62.3175 20.2431 62.0199C19.8957 61.7186 19.6156 61.3427 19.4105 60.9023C19.2052 60.4597 19.1012 59.9489 19.1012 59.3832C19.1012 58.872 19.1808 58.4044 19.3377 57.9939C19.4902 57.5952 19.6874 57.2381 19.924 56.932C19.9948 56.8403 20.0686 56.7529 20.1456 56.6694C19.6614 56.6489 19.4401 56.3162 19.4401 56.0062C19.4401 55.8967 19.4677 55.7842 19.5321 55.6305C19.5746 55.5236 19.6517 55.3861 19.7712 55.2055C19.899 55.0131 20.0267 54.8409 20.1508 54.6924C20.4247 54.3677 20.7322 54.2998 20.9421 54.2998C21.1371 54.2998 21.3606 54.3291 21.6258 54.3895C21.8607 54.4434 22.0898 54.5006 22.3069 54.5601C22.4307 54.5936 22.5591 54.6264 22.6891 54.6573C22.8272 54.6907 22.9578 54.7213 23.0865 54.7508C23.2194 54.7804 23.3237 54.8009 23.4101 54.8145C23.5167 54.8321 23.5726 54.8347 23.597 54.8347C23.6867 54.8347 23.8001 54.8308 23.934 54.8227C24.0822 54.8129 24.2216 54.8077 24.3444 54.8077C24.5062 54.8077 24.7136 54.8266 24.8825 54.9728L24.8923 54.9816C25.0307 55.1073 25.1071 55.2851 25.1071 55.4817C25.1071 55.5541 25.0944 55.6302 25.0616 55.7521C25.0414 55.8278 25.0184 55.9084 24.992 55.9915C24.9761 56.0419 24.9592 56.0929 24.9423 56.1436L24.9189 56.2141C24.892 56.2947 24.8708 56.3516 24.851 56.3964C24.8081 56.5089 24.7574 56.6008 24.6963 56.6766C24.5963 56.7968 24.4708 56.8806 24.3282 56.9258C24.2378 56.956 24.1267 56.9742 24.0051 56.9781C23.935 56.9814 23.8378 56.9836 23.7208 56.9836C23.2951 56.9836 22.9182 57.0428 22.6003 57.1591C22.4964 57.1971 22.3979 57.24 22.3053 57.2875C22.42 57.3076 22.5363 57.3561 22.6575 57.4334C22.7453 57.488 22.8369 57.5579 22.9328 57.6436C23.0072 57.5754 23.0852 57.513 23.1628 57.4597C23.4966 57.2235 23.7936 57.2157 24.141 57.4279C24.2485 57.4919 24.3551 57.576 24.4627 57.6817C24.5579 57.7769 24.6385 57.8753 24.7119 57.9855C24.7922 58.1061 24.8845 58.2698 24.8845 58.4707C24.8845 58.6874 24.7773 58.8879 24.5657 59.0663C24.5059 59.117 24.4435 59.1762 24.3753 59.2473C24.2872 59.3412 24.2173 59.4124 24.1712 59.4598L24.1543 59.4771C24.1355 59.4959 24.1163 59.5135 24.0971 59.5297C24.1052 59.5713 24.1101 59.6145 24.1101 59.6597C24.1101 59.9713 23.8856 60.1777 23.8118 60.2456C23.7331 60.319 23.6539 60.3928 23.5756 60.4646C23.4534 60.5793 23.415 60.6255 23.4111 60.6303C23.4033 60.6401 23.3952 60.6495 23.3871 60.6586C23.5015 60.6541 23.6074 60.644 23.7033 60.6287C23.8501 60.6056 23.9902 60.579 24.1205 60.5504C24.2394 60.5231 24.3353 60.4984 24.4097 60.476C24.5589 60.4311 24.6645 60.412 24.7639 60.412C25.1272 60.412 25.4012 60.6859 25.4012 61.0492C25.4012 61.2007 25.3511 61.3615 25.2387 61.5714C25.1604 61.7167 25.073 61.8532 24.9781 61.9783L24.9602 62.0007C24.7162 62.2902 24.4045 62.5184 24.0344 62.6792C23.6734 62.8365 23.2503 62.9164 22.7771 62.9164ZM20.2645 60.0204C20.2983 60.1709 20.3454 60.3112 20.4052 60.4402C20.5463 60.7428 20.7286 60.9891 20.9625 61.1919C21.1975 61.3963 21.4714 61.5526 21.7775 61.6572C22.0915 61.7651 22.4275 61.8197 22.7768 61.8197C22.987 61.8197 23.1775 61.7986 23.3461 61.757C23.3084 61.758 23.2698 61.7583 23.2311 61.7583C22.7579 61.7583 22.3277 61.6946 21.9524 61.5692C21.5679 61.4424 21.2339 61.2588 20.9619 61.0242C20.6834 60.7831 20.4689 60.4948 20.3237 60.167C20.3026 60.1189 20.2827 60.0701 20.2645 60.0204ZM21.2046 59.0592C21.2043 59.078 21.204 59.0972 21.204 59.1167C21.204 59.338 21.244 59.5365 21.3265 59.7237C21.4068 59.9044 21.5221 60.0591 21.6788 60.1946C21.8149 60.3119 21.9845 60.4103 22.1841 60.4877C22.1776 60.4818 22.1711 60.476 22.1639 60.4705L22.1308 60.4399C22.0726 60.3818 22.0109 60.3252 21.9468 60.2713C21.8633 60.2011 21.6401 60.0139 21.6401 59.7133C21.6401 59.6431 21.6518 59.5772 21.6697 59.5157C21.6326 59.4816 21.5972 59.4429 21.5631 59.3997C21.527 59.3542 21.4841 59.3091 21.436 59.2652L21.4204 59.2502C21.3596 59.1905 21.2963 59.1336 21.2326 59.0819C21.2251 59.0754 21.2154 59.0679 21.2046 59.0592ZM20.8699 55.5499C21.0041 55.5532 21.1461 55.56 21.2943 55.571C21.5224 55.5879 21.7152 55.6136 21.8832 55.6487L23.1567 55.9165C23.1979 55.9119 23.2395 55.908 23.2815 55.9045C23.2662 55.9022 23.2509 55.8999 23.2353 55.8973C23.13 55.8807 23.0049 55.8564 22.845 55.8209C22.7082 55.7897 22.5734 55.7579 22.434 55.7241C22.2952 55.6913 22.1555 55.6555 22.0193 55.6188C21.8152 55.5629 21.6008 55.5093 21.3811 55.4589C21.2258 55.4235 21.0948 55.403 20.9908 55.3978C20.9512 55.445 20.9109 55.4957 20.8699 55.5499Z" fill="#F2C714"/>
<path d="M22.8922 59.0097C22.9393 59.0097 23.0013 59.0354 23.0784 59.0857C23.1567 59.1361 23.2304 59.1939 23.3013 59.2593C23.3731 59.3246 23.4342 59.3974 23.4846 59.4779C23.5349 59.5572 23.5606 59.6183 23.5606 59.6599C23.5606 59.707 23.52 59.7681 23.4394 59.8422C23.3591 59.9173 23.2808 59.9901 23.2038 60.0606C23.0966 60.1613 23.0238 60.2364 22.9851 60.2835C22.9464 60.3306 22.9035 60.3553 22.8564 60.3553C22.8145 60.3553 22.7664 60.3212 22.7128 60.2523C22.6601 60.1838 22.5948 60.1175 22.5178 60.0518C22.446 59.98 22.3732 59.9137 22.2994 59.8513C22.2253 59.7893 22.188 59.7431 22.188 59.7132C22.188 59.6713 22.2146 59.6105 22.2682 59.5299C22.3218 59.4507 22.3872 59.3714 22.4642 59.2943C22.5412 59.2173 22.6195 59.1507 22.6998 59.0938C22.7807 59.0376 22.8437 59.0097 22.8922 59.0097ZM23.6665 57.8249C23.7146 57.8249 23.777 57.8486 23.854 57.8957C23.931 57.9419 24.0051 58.0017 24.077 58.0725C24.1423 58.1378 24.2011 58.2096 24.2547 58.2899C24.3083 58.3702 24.335 58.4293 24.335 58.4709C24.335 58.518 24.2931 58.5781 24.2108 58.6477C24.1273 58.7185 24.0503 58.7933 23.9782 58.8683C23.8774 58.9756 23.8046 59.0493 23.7608 59.0945C23.7159 59.1393 23.6698 59.1608 23.6227 59.1608C23.5863 59.1608 23.5421 59.1267 23.4888 59.0591C23.4352 58.9915 23.3698 58.9252 23.2928 58.8599C23.2158 58.7838 23.1417 58.7162 23.0699 58.6565C22.9991 58.5976 22.9627 58.5515 22.9627 58.5151C22.9627 58.4745 22.9893 58.4144 23.0429 58.3383C23.0966 58.2613 23.1619 58.184 23.2392 58.1092C23.3162 58.0322 23.3955 57.9646 23.4758 57.91C23.5554 57.8525 23.6194 57.8249 23.6665 57.8249ZM22.1795 57.8249C22.2266 57.8249 22.2877 57.8486 22.3618 57.8957C22.4356 57.9419 22.5116 58.0017 22.589 58.0725C22.6543 58.1378 22.7121 58.2096 22.7625 58.2899C22.8129 58.3702 22.8385 58.4293 22.8385 58.4709C22.8385 58.518 22.7989 58.5781 22.7186 58.6477C22.638 58.7185 22.562 58.7933 22.4915 58.8683C22.3898 58.9756 22.317 59.0493 22.2731 59.0945C22.2279 59.1393 22.1818 59.1608 22.1347 59.1608C22.0928 59.1608 22.0456 59.1267 21.9923 59.0591C21.9387 58.9915 21.8767 58.9252 21.8048 58.8599C21.7275 58.7838 21.6515 58.7162 21.5777 58.6565C21.5039 58.5976 21.4662 58.5515 21.4662 58.5151C21.4662 58.4745 21.4952 58.4144 21.5507 58.3383C21.6076 58.2613 21.6739 58.184 21.7512 58.1092C21.8282 58.0322 21.9075 57.9646 21.9878 57.91C22.0684 57.8525 22.1314 57.8249 22.1795 57.8249ZM23.7202 56.4354C23.2275 56.4354 22.7914 56.5049 22.4109 56.6443C22.0307 56.7837 21.7113 56.9754 21.4532 57.2185C21.1949 57.4629 20.997 57.7456 20.8608 58.0702C20.7237 58.3939 20.6551 58.7419 20.6551 59.1169C20.6551 59.4136 20.712 59.6901 20.8244 59.9449C20.9382 60.201 21.1029 60.4216 21.3193 60.6091C21.5358 60.7957 21.8048 60.9435 22.1262 61.0495C22.4466 61.1567 22.8151 61.2103 23.2308 61.2103C23.4322 61.2103 23.6184 61.1973 23.7877 61.1707C23.957 61.144 24.1072 61.1151 24.2378 61.0862C24.3684 61.0563 24.478 61.0283 24.5667 61.0014C24.6557 60.9747 24.721 60.9607 24.7626 60.9607C24.8227 60.9607 24.8517 60.9906 24.8517 61.0498C24.8517 61.1034 24.8195 61.1911 24.7542 61.3133C24.6889 61.4342 24.617 61.5457 24.54 61.6477C24.3503 61.8726 24.1082 62.0494 23.8147 62.1771C23.5203 62.3054 23.1742 62.3688 22.7768 62.3688C22.3664 62.3688 21.9745 62.3057 21.6004 62.1771C21.2264 62.0497 20.8933 61.8599 20.6031 61.6071C20.3116 61.3543 20.0803 61.0426 19.9077 60.6719C19.7352 60.3001 19.6497 59.8715 19.6497 59.384C19.6497 58.9385 19.716 58.5411 19.8499 58.1905C19.9838 57.8402 20.1531 57.5327 20.3578 57.2679C20.5625 57.0034 20.7916 56.7827 21.0435 56.6047C21.2963 56.4256 21.5384 56.2865 21.7697 56.1858C21.6271 56.1559 21.4549 56.1335 21.2534 56.1182C21.0509 56.1032 20.8732 56.0967 20.7188 56.0967C20.6418 56.0967 20.5615 56.101 20.4777 56.1094C20.3952 56.1182 20.3 56.1224 20.1927 56.1224C20.0566 56.1224 19.988 56.0837 19.988 56.0067C19.988 55.9778 20.0039 55.9222 20.0374 55.8429C20.0696 55.7627 20.1339 55.6512 20.2281 55.5086C20.3471 55.3295 20.4615 55.1755 20.571 55.0445C20.6811 54.9139 20.8046 54.8486 20.9414 54.8486C21.0958 54.8486 21.282 54.8742 21.503 54.9246C21.7226 54.975 21.9423 55.0296 22.1616 55.0897C22.2923 55.1251 22.4262 55.1592 22.5623 55.1914C22.6995 55.2246 22.8324 55.2557 22.963 55.2856C23.0936 55.3146 23.2148 55.3393 23.324 55.3565C23.4345 55.3747 23.5242 55.3831 23.5963 55.3831C23.6971 55.3831 23.8202 55.3789 23.9658 55.3701C24.1117 55.3607 24.2381 55.3562 24.3441 55.3562C24.4396 55.3562 24.4994 55.3669 24.5231 55.3874C24.5469 55.4088 24.5585 55.44 24.5585 55.4816C24.5585 55.4988 24.5498 55.5427 24.5319 55.61C24.5137 55.6785 24.4932 55.7503 24.4695 55.8244C24.4461 55.8982 24.4214 55.9713 24.3977 56.0428C24.374 56.1136 24.3558 56.1617 24.3441 56.1855C24.3204 56.2508 24.296 56.2992 24.269 56.3323C24.2424 56.3645 24.206 56.3892 24.1618 56.4032C24.1169 56.4181 24.0591 56.4279 23.9882 56.4298C23.9161 56.4331 23.8274 56.4354 23.7202 56.4354Z" fill="#E6E7E8"/>
<path d="M61.8274 19.2747C61.3413 19.2747 60.9029 19.2022 60.5244 19.059C60.1419 18.916 59.809 18.7144 59.5367 18.4602C59.2597 18.2009 59.0483 17.8935 58.9078 17.546C58.7697 17.2044 58.7 16.8339 58.7 16.444C58.7 16.0284 58.7833 15.6177 58.9471 15.2235C59.047 14.9831 59.1764 14.7563 59.3335 14.5461C59.2146 14.427 59.1132 14.2976 59.0296 14.159C58.8549 13.8692 58.7662 13.522 58.7662 13.1267C58.7662 12.9311 58.7977 12.7249 58.8622 12.4968C58.9292 12.2597 59.0388 12.0372 59.1878 11.8356C59.3421 11.6257 59.5451 11.4496 59.7909 11.3131C60.0488 11.1715 60.3532 11.0999 60.6972 11.0999C60.8771 11.0999 61.0423 11.1232 61.1885 11.1694C61.3185 11.2103 61.4294 11.257 61.5271 11.3115C61.6158 11.3595 61.6969 11.4347 61.8125 11.5749C61.9164 11.6992 62.0035 11.8546 62.0773 12.0478C62.1049 12.1243 62.1245 12.187 62.1405 12.2475C62.1633 12.3402 62.1736 12.4184 62.1736 12.4941C62.1736 12.5849 62.1551 12.669 62.1215 12.7431C62.2636 12.6959 62.3594 12.6766 62.4446 12.6766C62.7965 12.6766 63.0517 12.9317 63.0517 13.283C63.0517 13.3709 63.0279 13.4409 63.0051 13.5084C62.9842 13.5662 62.9622 13.6221 62.9359 13.6834C62.9128 13.7371 62.8895 13.79 62.8664 13.8416C62.8513 13.8766 62.8385 13.908 62.8301 13.9314L62.8176 13.962C62.7338 14.1484 62.634 14.281 62.513 14.3668C62.4286 14.4281 62.3231 14.4807 62.1939 14.5257C61.9205 14.6245 61.6587 14.7403 61.4205 14.8687C61.1961 14.9891 60.9994 15.1245 60.8356 15.2715C60.6872 15.4042 60.5711 15.5501 60.4902 15.7064C60.417 15.8477 60.3814 15.9994 60.3814 16.1695C60.3814 16.3106 60.4159 16.4462 60.487 16.5843C60.5621 16.731 60.6693 16.8586 60.8158 16.9755C60.9677 17.097 61.1636 17.1974 61.3972 17.2736C61.6383 17.3526 61.9205 17.3925 62.2362 17.3925C62.4118 17.3925 62.5653 17.3832 62.6926 17.3651C62.8211 17.3463 62.934 17.3252 63.027 17.3021C63.106 17.2823 63.1817 17.2606 63.2444 17.2397C63.3352 17.211 63.4348 17.1841 63.5384 17.1841C63.7335 17.1841 63.902 17.2715 64.0021 17.4239C64.0661 17.5205 64.1 17.6315 64.1 17.7449C64.1 17.8355 64.0756 17.9274 64.0251 18.0251C64.0015 18.0728 63.9728 18.1238 63.9391 18.1765C63.9142 18.2161 63.8868 18.2581 63.8596 18.2991C63.829 18.3458 63.8019 18.3832 63.7831 18.4076L63.7747 18.4185C63.5363 18.7112 63.2517 18.9307 62.9286 19.0706C62.6169 19.206 62.2466 19.2747 61.8274 19.2747ZM59.7089 17.0707C59.7233 17.1152 59.739 17.1591 59.7567 17.2028C59.8484 17.4291 59.981 17.6217 60.1622 17.7915C60.3456 17.9627 60.576 18.1008 60.8467 18.2022C61.1229 18.3067 61.4525 18.3593 61.8277 18.3593C62.0135 18.3593 62.1812 18.342 62.3288 18.3075C62.2986 18.308 62.2677 18.3083 62.2362 18.3083C61.8236 18.3083 61.4457 18.253 61.1128 18.1442C60.7745 18.034 60.4821 17.8813 60.2439 17.6911C60.0193 17.5113 59.8397 17.3029 59.7089 17.0707ZM60.7347 12.93C60.6131 12.93 60.5545 12.9501 60.535 12.9585C60.4769 12.984 60.4528 13.0063 60.4452 13.0147C60.43 13.0312 60.4213 13.0459 60.4189 13.0529C60.4045 13.0958 60.4037 13.1129 60.4037 13.1131C60.4037 13.1462 60.43 13.1981 60.4761 13.2548C60.5062 13.2919 60.5589 13.341 60.6522 13.3961C60.7314 13.3519 60.8188 13.3058 60.9153 13.2572C61.0716 13.1796 61.2235 13.108 61.3698 13.0434C61.3367 13.0342 61.3074 13.0233 61.2824 13.0136C61.2436 13.0006 61.1763 12.981 61.0659 12.9574C61.0079 12.9447 60.9034 12.93 60.7347 12.93ZM60.6115 12.0185C60.5792 12.0204 60.548 12.0234 60.5179 12.0274C60.5483 12.0237 60.5795 12.0207 60.6115 12.0185Z" fill="#EC526C"/>
<path d="M62.236 17.85C62.4345 17.85 62.6079 17.8392 62.7574 17.8178C62.9058 17.7963 63.0319 17.7722 63.1364 17.7461C63.2403 17.7201 63.3244 17.6951 63.3887 17.6737C63.454 17.6531 63.5031 17.6414 63.5379 17.6414C63.5772 17.6414 63.6051 17.6531 63.6193 17.6753C63.6344 17.6978 63.6415 17.7209 63.6415 17.7442C63.6415 17.7594 63.6334 17.7844 63.6155 17.8183C63.5984 17.8533 63.5769 17.8907 63.552 17.9301C63.5278 17.9686 63.5029 18.0068 63.4776 18.0445C63.4535 18.0812 63.4329 18.1099 63.4185 18.1286C63.2253 18.3658 63.0007 18.5391 62.7452 18.6501C62.4902 18.761 62.1833 18.8164 61.8266 18.8164C61.3955 18.8164 61.0146 18.7548 60.6853 18.6303C60.3551 18.5068 60.0762 18.3378 59.8481 18.1248C59.6199 17.9111 59.4474 17.6607 59.3313 17.3737C59.2149 17.0858 59.1568 16.7763 59.1568 16.4437C59.1568 16.0869 59.2274 15.7389 59.3687 15.3989C59.51 15.059 59.7165 14.756 59.9894 14.4877C59.7417 14.3293 59.5521 14.1404 59.4205 13.9223C59.2889 13.7042 59.2228 13.4394 59.2228 13.1264C59.2228 12.9725 59.2496 12.8043 59.3014 12.6209C59.3532 12.4376 59.4373 12.2658 59.5545 12.1074C59.6706 11.9492 59.8228 11.8177 60.0117 11.7129C60.2005 11.6093 60.4284 11.5575 60.6958 11.5575C60.8299 11.5575 60.9473 11.5735 61.0491 11.6058C61.1511 11.6381 61.236 11.6739 61.3057 11.7132C61.3353 11.7284 61.3863 11.7794 61.4576 11.8662C61.5301 11.953 61.5935 12.0683 61.6481 12.2113C61.6679 12.2658 61.6839 12.3168 61.6964 12.3643C61.708 12.4118 61.7143 12.4546 61.7143 12.494C61.7143 12.5735 61.6695 12.6128 61.5811 12.6128C61.5507 12.6128 61.5265 12.6109 61.5067 12.6058C61.4861 12.6014 61.4639 12.5933 61.4397 12.5835C61.37 12.5594 61.277 12.5341 61.1606 12.5092C61.0445 12.4842 60.9012 12.4717 60.733 12.4717C60.5792 12.4717 60.4511 12.4943 60.3494 12.539C60.2485 12.5838 60.1679 12.638 60.108 12.7026C60.0488 12.7669 60.006 12.8366 59.9818 12.911C59.9569 12.9853 59.9444 13.0523 59.9444 13.1122C59.9444 13.2552 60.0024 13.3993 60.1196 13.5433C60.236 13.6874 60.4202 13.8108 60.6733 13.9153C60.7878 13.8409 60.9362 13.7579 61.1196 13.6657C61.303 13.5745 61.4853 13.4896 61.6662 13.4126C61.8477 13.3366 62.0116 13.2704 62.1573 13.2159C62.3041 13.1614 62.3987 13.1345 62.4435 13.1345C62.5428 13.1345 62.5927 13.1836 62.5927 13.2829C62.5927 13.2927 62.5846 13.3187 62.5705 13.3607C62.5553 13.4028 62.5365 13.4503 62.514 13.5021C62.4918 13.5539 62.4693 13.6049 62.447 13.6551C62.4256 13.7045 62.4096 13.7446 62.3987 13.7742C62.3496 13.8833 62.2986 13.9565 62.2468 13.9934C62.195 14.0308 62.1269 14.0639 62.042 14.0935C61.7398 14.2026 61.4598 14.3268 61.2021 14.4654C60.9435 14.6041 60.7192 14.7598 60.5285 14.9307C60.3372 15.1016 60.1888 15.2902 60.0822 15.4961C59.9759 15.7017 59.9221 15.9263 59.9221 16.1694C59.9221 16.3821 59.974 16.5907 60.0787 16.7936C60.1826 16.9968 60.3326 17.1764 60.5285 17.333C60.7243 17.4895 60.9658 17.6148 61.2539 17.7087C61.542 17.8026 61.8692 17.85 62.236 17.85Z" fill="#E6E7E8"/>
</svg>
