<svg width="70" height="87" viewBox="0 0 70 87" fill="none" xmlns="http://www.w3.org/2000/svg">
<path d="M50.5626 46.2088L37.0104 38.317C36.0943 37.7837 34.6081 37.7837 33.697 38.3176L19.4716 46.6557L19.4509 54.0644L19.5441 54.1376C19.9682 54.4696 20.4865 54.8586 21.0871 55.2807L21.0753 59.5075C21.075 59.6839 21.1232 59.865 21.2217 60.0408C21.4882 60.5165 21.9894 60.9151 22.5392 61.2355C23.1434 61.5874 23.8054 61.8447 24.2774 62.0036C25.8023 62.5173 27.9072 62.7815 29.2444 61.9814C29.4731 61.8447 29.6638 61.6954 29.8243 61.5176C29.8982 61.3868 29.9353 61.2501 29.9356 61.1117L29.9389 59.9428C31.5941 60.5877 33.5985 61.3729 35.6545 62.2532L35.7648 62.3002L35.8724 62.2505C36.1025 62.1452 36.3336 62.038 36.5624 61.9294L36.7544 61.8384C36.9385 61.7506 37.1216 61.6623 37.3045 61.5722L37.4545 61.499C37.6842 61.3858 37.913 61.2719 38.1408 61.1574L38.2619 61.0958C38.4562 60.9965 38.6508 60.8975 38.8507 60.7936L39.004 60.7131C39.4592 60.4758 39.921 60.2282 40.3796 59.9782L40.4961 59.914C40.7009 59.8021 40.9031 59.6889 41.1056 59.5757L41.1834 59.533C41.2205 59.5121 41.2576 59.4909 41.2946 59.4701L41.2927 60.1881C41.292 60.3755 41.358 60.5609 41.4929 60.7406C41.615 60.8479 41.7587 60.9498 41.9212 61.0445C41.9872 61.0829 42.0561 61.12 42.1283 61.1558C43.5879 61.8854 45.6409 61.5169 47.0782 60.9287C47.9283 60.5807 49.4142 59.8445 49.8133 58.8199C49.8622 58.6938 49.8865 58.5667 49.8868 58.4418L49.8989 54.0608L50.5409 53.6179L50.5626 46.2088ZM45.187 53.8393C45.185 53.8397 45.1834 53.84 45.1814 53.8403C45.1355 53.8483 45.0895 53.8552 45.0432 53.8622C44.9874 53.8708 44.9313 53.8791 44.8755 53.8863C44.8289 53.8923 44.7823 53.8973 44.7357 53.9026C44.6799 53.9085 44.6244 53.9141 44.569 53.9188C44.5181 53.9231 44.4672 53.9261 44.416 53.929C44.371 53.9317 44.3264 53.9343 44.2818 53.9357C44.2289 53.9377 44.1764 53.938 44.1239 53.9383C44.0799 53.9387 44.0359 53.939 43.992 53.9383C43.9391 53.9373 43.8866 53.935 43.8341 53.9324C43.7911 53.9304 43.7481 53.9287 43.7057 53.9254C43.6529 53.9214 43.6007 53.9155 43.5485 53.9098C43.5072 53.9052 43.4655 53.9016 43.4248 53.8956C43.3716 53.8883 43.3194 53.8784 43.2672 53.8691C43.2282 53.8622 43.1891 53.8562 43.1507 53.8479C43.0962 53.8364 43.0434 53.8221 42.9899 53.8082C42.9548 53.7989 42.9193 53.7913 42.8849 53.7811C42.8261 53.7639 42.769 53.7433 42.7119 53.7228C42.6843 53.7129 42.6561 53.7049 42.6289 53.6943C42.5452 53.6619 42.4634 53.6261 42.384 53.5861C42.3177 53.553 42.254 53.5189 42.193 53.4835C42.152 53.4596 42.1155 53.4341 42.0774 53.4096L42.0817 51.8411C42.0817 51.8382 42.0807 51.8352 42.0807 51.8322C42.0804 51.8253 42.0794 51.8186 42.0784 51.8117C42.0768 51.7981 42.0742 51.7842 42.0699 51.7703C42.0676 51.7627 42.065 51.7554 42.062 51.7478C42.0561 51.7336 42.0482 51.7193 42.039 51.7051C42.0348 51.6985 42.0312 51.6915 42.0259 51.6849C42.0102 51.6644 41.9911 51.6442 41.9668 51.6246C41.9668 51.6246 41.9668 51.6246 41.9665 51.6243C41.9468 51.6088 41.9274 51.5949 41.9045 51.5816L41.7778 51.5038L41.6475 51.579C41.4187 51.7104 41.1867 51.8408 40.9546 51.9716L40.8768 52.0143C40.6756 52.1268 40.4731 52.2387 40.2696 52.3513L40.1531 52.4155C40.1472 52.4188 40.1409 52.4221 40.1347 52.4254C39.9201 52.5423 39.7047 52.6588 39.4898 52.7737C39.4192 52.8114 39.349 52.8482 39.2784 52.8856C39.113 52.9733 38.9475 53.0617 38.7831 53.1471L38.6242 53.2296C38.4322 53.3302 38.2389 53.4285 38.0456 53.5272L37.9255 53.5881C37.9212 53.5904 37.9166 53.5924 37.9123 53.5947C37.6901 53.7076 37.4669 53.8188 37.2437 53.9284L37.0938 54.0015C36.9119 54.0906 36.7301 54.1783 36.5469 54.2654L36.3677 54.3505L36.3559 54.3561C36.3503 54.3587 36.3444 54.3614 36.3388 54.364C36.1524 54.4524 35.9647 54.5402 35.7769 54.6269C35.7658 54.6223 35.7549 54.6176 35.7438 54.613C33.6149 53.7049 31.5449 52.8988 29.8742 52.2477C29.8503 52.2477 29.827 52.248 29.8043 52.2483C29.7892 52.2427 29.7731 52.2367 29.758 52.2311C29.5736 52.2411 29.4232 52.2755 29.3018 52.3288C29.2874 52.3347 29.2736 52.341 29.2601 52.3473C29.246 52.3546 29.2306 52.3606 29.2178 52.3685C29.1764 52.3923 29.141 52.4195 29.1101 52.4496C29.0894 52.4698 29.0747 52.4903 29.0622 52.5112C29.0592 52.5162 29.0563 52.5211 29.054 52.5261C29.0435 52.5463 29.0353 52.5665 29.0313 52.5867C29.0313 52.5877 29.0313 52.5886 29.031 52.5896C29.0284 52.6032 29.0271 52.6171 29.0268 52.6304L29.0218 54.4153C29.0166 54.4187 29.012 54.422 29.0064 54.4253C28.7872 54.556 28.543 54.654 28.2823 54.7246C28.2768 54.7262 28.2712 54.7282 28.2656 54.7298C28.2216 54.7414 28.1757 54.75 28.1307 54.76C28.0848 54.7702 28.0395 54.7822 27.9925 54.7911C27.9403 54.8007 27.8868 54.8073 27.8337 54.8153C27.7923 54.8215 27.7519 54.8292 27.7099 54.8341C27.662 54.8398 27.6131 54.8427 27.5645 54.847C27.516 54.8513 27.4684 54.857 27.4195 54.8599C27.4021 54.8609 27.384 54.8609 27.3663 54.8616C27.1871 54.8705 27.0052 54.8719 26.8214 54.8642C26.8208 54.8642 26.8205 54.8642 26.8198 54.8642C26.7299 54.8606 26.6396 54.8543 26.5493 54.847C26.4378 54.8381 26.3262 54.8272 26.2149 54.8133C26.2142 54.8133 26.2136 54.8133 26.2129 54.8129C26.0944 54.798 25.9763 54.7798 25.8588 54.76C25.7757 54.7457 25.6927 54.7315 25.6106 54.7149C25.5837 54.7097 25.5575 54.703 25.5306 54.6974C25.5345 53.3547 25.5381 51.9845 25.5414 50.7921L33.93 45.8751C34.7004 45.4235 35.9575 45.4235 36.733 45.8751L45.1939 50.802L45.187 53.8393Z" fill="#3879BD"/>
<path d="M50.0741 46.2218L48.8643 47.056C48.6004 47.2348 48.3227 47.4218 48.0312 47.6168L47.7102 47.8306C46.8989 48.3679 46.076 48.8986 45.2656 49.4074L45.2007 49.4481L45.2217 49.5031C45.2446 49.5604 45.2939 49.6309 45.3996 49.6921C45.5732 49.7934 45.8991 49.8702 46.5093 49.8252C46.6228 49.8166 46.7387 49.805 46.8519 49.7937C47.0846 49.7702 47.3045 49.7487 47.5261 49.7507C47.7496 49.7527 47.9886 49.7848 48.2298 49.8451C48.5032 49.9202 48.7451 50.0185 48.944 50.1341C49.0169 50.1764 49.0835 50.2211 49.1442 50.2678C49.5128 50.5545 49.6402 50.964 49.4852 51.3639C49.1121 52.3193 47.7007 53.0161 46.8939 53.3465C45.5676 53.8901 43.6876 54.2377 42.3858 53.5865C42.3195 53.5534 42.2559 53.5193 42.1948 53.4839C42.0547 53.4025 41.9303 53.3147 41.8252 53.2227C41.667 53.0049 41.6336 52.7609 41.7284 52.5159C41.7701 52.4053 41.842 52.3014 41.9194 52.1915C41.9434 52.1561 41.967 52.1203 41.9923 52.0842C42.0435 52.0058 42.1823 51.7956 41.969 51.6244C41.9493 51.6089 41.9299 51.595 41.907 51.5817L41.7803 51.5039L41.65 51.5791C41.4212 51.7105 41.1891 51.8409 40.9571 51.9717L40.8793 52.0144C40.6781 52.1269 40.4756 52.2388 40.2721 52.3514L40.1556 52.4156C39.6994 52.6642 39.2395 52.9109 38.7856 53.1472L38.6267 53.2297C38.4347 53.3303 38.2414 53.4286 38.0481 53.5273L37.928 53.5882C37.7015 53.7034 37.474 53.8166 37.2462 53.9285L37.0962 54.0016C36.9144 54.0907 36.7326 54.1784 36.5494 54.2655L36.3584 54.3559C36.1661 54.4469 35.9731 54.5373 35.7798 54.6267C33.6391 53.7126 31.5565 52.9019 29.877 52.2474C29.4632 52.2468 29.2442 52.3199 29.1133 52.449C28.9285 52.6301 29.0995 52.8324 29.1641 52.9085C29.193 52.9426 29.2229 52.9761 29.2531 53.0098C29.3453 53.1158 29.4333 53.2161 29.4947 53.3253C29.6266 53.564 29.6315 53.8083 29.5101 54.0328C29.3791 54.1728 29.2111 54.3036 29.0099 54.4241C27.8152 55.1378 25.8872 54.8859 24.4808 54.4115C24.0282 54.2589 23.3914 54.0126 22.8144 53.6766C22.2997 53.377 21.8327 53.0059 21.5872 52.5662C21.3683 52.1756 21.4303 51.7615 21.7529 51.4566C21.9502 51.2722 22.2397 51.111 22.5899 50.9928C22.8269 50.9183 23.0606 50.8743 23.2808 50.8607C23.502 50.8481 23.7246 50.8587 23.9599 50.87C24.0757 50.8746 24.1916 50.8806 24.3065 50.8832C25.3332 50.908 25.5232 50.6366 25.5439 50.4724C25.5504 50.4214 25.5432 50.3691 25.5212 50.3069C25.041 50.0225 24.6304 49.7927 24.2366 49.5633C22.4087 48.499 20.9399 47.4443 19.9487 46.6746L33.9548 38.4651C34.7252 38.0135 35.9823 38.0135 36.7578 38.4651L50.0741 46.2218Z" fill="#41C1C8"/>
<path d="M30.0848 57.0269C29.8032 56.9071 29.5239 56.7883 29.2446 56.6711L28.9662 56.5559C28.7824 56.4794 28.5973 56.4026 28.4145 56.3268L28.0925 56.1954C27.9258 56.1278 27.758 56.0593 27.5923 55.9924L27.2624 55.859C27.1026 55.7955 26.9441 55.7309 26.7855 55.668L25.2006 55.0417L23.9546 54.5835C23.6566 54.5997 23.439 54.6732 23.3067 54.8033C23.2424 54.8665 23.2227 54.9318 23.2253 54.994C23.2253 54.9904 23.2234 54.987 23.2237 54.9834L23.2188 56.7687C23.2135 56.772 23.2086 56.7753 23.2033 56.7787C22.2873 57.3259 20.9406 57.304 19.7278 57.0504L19.7396 52.8018C19.7396 52.8104 19.739 52.8187 19.738 52.8266C19.7436 52.7763 19.7373 52.7234 19.6599 52.6048C19.2473 52.3844 18.8364 52.1553 18.4284 51.9176C17.6341 51.4551 16.8506 50.9612 16.0879 50.4421L16.0682 50.4521V50.4292C15.8483 50.2786 15.6375 50.1316 15.4048 49.9667C15.3172 49.9052 15.2322 49.8436 15.1482 49.7824L15.0999 49.7476C14.9168 49.6142 14.7405 49.4851 14.5748 49.359L14.516 49.3153C14.454 49.2682 14.3939 49.2216 14.3329 49.1752L14.2685 49.1256C14.1937 49.0686 14.1198 49.011 14.0486 48.9561L13.9229 48.8574L1.18698 56.3225C0.733054 56.5886 0.506582 56.9379 0.50691 57.2875C0.50691 57.2865 0.506582 57.2852 0.506582 57.2842L0.485904 64.6933C0.484919 65.0462 0.71533 65.3994 1.17681 65.6682L14.2748 73.2955L14.3946 73.1862C14.5291 73.0657 14.6673 72.9469 14.8042 72.829L14.9092 72.7406C15.0484 72.6241 15.1889 72.5069 15.3349 72.3917C15.48 72.2758 15.6297 72.1613 15.7803 72.0474L15.8922 71.963C16.0429 71.8491 16.1962 71.7366 16.3744 71.6104C16.525 71.5032 16.6806 71.3959 16.8359 71.2903L16.957 71.2086C17.2816 70.9901 17.6265 70.7676 17.982 70.5485L18.111 70.4687C18.2905 70.3594 18.4697 70.2502 18.6552 70.1416L18.7546 70.0833L18.7671 65.6579C19.0041 65.6089 19.2493 65.5699 19.5046 65.547C20.1982 65.4848 20.8891 65.5878 21.3528 65.8231C21.3889 65.8413 21.4244 65.8605 21.4585 65.8807C21.6213 65.9754 21.7602 66.0886 21.8734 66.2134L21.8695 67.6637C21.8688 67.8677 21.9725 67.9908 22.1008 68.0656C22.1471 68.0924 22.1967 68.1133 22.2456 68.1288L22.3752 68.1537L22.4701 68.1073C22.6805 68.0027 22.8968 67.8978 23.115 67.7925L23.7475 67.4876C23.974 67.3804 24.2028 67.2718 24.4351 67.1625L29.5626 64.8333C29.7307 64.7575 29.9 64.6814 30.0684 64.6042L30.2561 64.5185L30.2768 57.1097L30.0848 57.0269ZM15.2771 59.6892C15.2427 59.7197 15.2089 59.7504 15.1757 59.7812C15.1659 59.7905 15.1567 59.7998 15.1468 59.8087C15.1212 59.8332 15.096 59.858 15.071 59.8829C15.0599 59.8941 15.0487 59.9054 15.0379 59.9166C15.0129 59.9421 14.989 59.9679 14.965 59.9938C14.9568 60.0027 14.9483 60.0116 14.9401 60.0206C14.9092 60.055 14.879 60.0898 14.8501 60.1249C14.8439 60.1325 14.8383 60.1398 14.8321 60.1474C14.8094 60.1755 14.7871 60.2036 14.7658 60.2318C14.7569 60.2434 14.7484 60.255 14.7399 60.2669C14.7211 60.2927 14.7028 60.3185 14.6854 60.3447C14.6778 60.3556 14.6703 60.3665 14.663 60.3774C14.6394 60.4135 14.6168 60.4499 14.5954 60.4864C14.5941 60.4887 14.5928 60.4913 14.5915 60.4936C14.5718 60.5277 14.5538 60.5618 14.5367 60.5963C14.5308 60.6078 14.5255 60.6194 14.5199 60.631C14.5075 60.6575 14.4957 60.684 14.4845 60.7105C14.4796 60.7224 14.4743 60.7343 14.4697 60.7462C14.4576 60.7777 14.4464 60.8091 14.4362 60.8406C14.4343 60.8465 14.432 60.8525 14.43 60.8584C14.4185 60.8955 14.4093 60.9326 14.4011 60.9697C14.3988 60.9803 14.3972 60.9905 14.3952 61.0011C14.39 61.0286 14.3854 61.0561 14.3821 61.0836C14.3805 61.0958 14.3791 61.1081 14.3778 61.12C14.3752 61.1484 14.3736 61.1769 14.3729 61.2054C14.3729 61.2123 14.3716 61.2193 14.3716 61.2266L14.3598 65.4454C14.3322 65.4692 14.3043 65.4927 14.2771 65.5166C14.2629 65.5288 14.2482 65.5411 14.2341 65.5537L6.37549 60.9776L13.8638 56.5886C13.896 56.6128 13.9272 56.6376 13.9593 56.6631L14.025 56.7121C14.0847 56.7591 14.1471 56.8058 14.2104 56.8535L14.2679 56.8978C14.4359 57.024 14.6122 57.1544 14.7976 57.2891L14.8459 57.3239C14.9312 57.3855 15.0162 57.447 15.135 57.5308C15.1833 57.5652 15.2322 57.6 15.2817 57.6347L15.2771 59.6892ZM0.866311 58.0151C0.859419 58.0088 0.853511 58.0022 0.846618 57.9959C0.853182 58.0022 0.859419 58.0085 0.866311 58.0151ZM23.5903 54.9543C23.5887 54.9589 23.588 54.9635 23.5874 54.9682C23.5883 54.9635 23.5887 54.9586 23.5903 54.9543ZM23.3248 55.2211C23.3208 55.2161 23.3176 55.2112 23.3136 55.2059C23.3172 55.2108 23.3208 55.2161 23.3248 55.2211ZM23.2388 55.0708C23.2381 55.0695 23.2381 55.0678 23.2378 55.0662C23.2385 55.0678 23.2385 55.0695 23.2388 55.0708ZM23.2834 55.1615C23.2792 55.1549 23.2755 55.1489 23.2716 55.142C23.2755 55.1489 23.2795 55.1552 23.2834 55.1615ZM19.3789 52.7882C19.3789 52.772 19.3776 52.7548 19.3727 52.7353C19.3776 52.7551 19.3789 52.772 19.3789 52.7882ZM1.30842 56.5602C1.29497 56.5701 1.28348 56.5804 1.27035 56.5903C1.28348 56.5804 1.29497 56.5698 1.30842 56.5602ZM1.09278 56.7515C1.08031 56.7654 1.07046 56.78 1.05898 56.7942C1.07014 56.7803 1.07998 56.7657 1.09278 56.7515ZM0.873204 57.2289C0.874517 57.2117 0.874845 57.1948 0.877471 57.1776C0.874517 57.1948 0.874517 57.212 0.873204 57.2289ZM0.891584 57.118C0.895851 57.1011 0.898477 57.0845 0.904057 57.0677C0.898805 57.0845 0.895851 57.1014 0.891584 57.118ZM0.983486 56.9018C0.993004 56.8859 1.00121 56.8697 1.01204 56.8541C1.00088 56.8697 0.993004 56.8859 0.983486 56.9018ZM0.535137 57.4901C0.540389 57.5103 0.543671 57.5301 0.550235 57.5503C0.543671 57.5305 0.540389 57.5103 0.535137 57.4901ZM0.645419 57.7476C0.657235 57.7668 0.666753 57.786 0.68021 57.8049C0.666753 57.7864 0.656907 57.7668 0.645419 57.7476Z" fill="#E88C1B"/>
<path d="M29.6796 57.1142C29.5743 57.1626 29.4692 57.2092 29.3639 57.2562L26.8333 58.3914L24.2308 59.5888C23.9975 59.6987 23.7687 59.8073 23.5409 59.9152L22.9048 60.2207C22.7184 60.3111 22.5329 60.4008 22.3511 60.4915C22.2037 60.3803 22.2507 60.1578 22.297 60.0231C22.3183 59.9595 22.3445 59.897 22.3705 59.8334C22.4282 59.696 22.4883 59.5547 22.5011 59.406C22.5175 59.2485 22.4729 59.0796 22.3665 58.9015C22.2192 58.6781 22.0012 58.4798 21.7311 58.3225C21.6917 58.2997 21.651 58.2775 21.6093 58.2563C21.0665 57.9802 20.2676 57.8584 19.471 57.9299C17.693 58.0901 16.3293 58.9029 15.6748 59.3739C14.569 60.1688 13.7934 61.34 14.935 62.2411C15.0449 62.3275 15.1634 62.408 15.2898 62.4814C15.3883 62.5387 15.4916 62.592 15.599 62.6413C16.0598 62.7827 16.5554 62.8284 17.0622 62.784C17.2834 62.7645 17.4885 62.7251 17.6878 62.6877C17.7485 62.6764 17.8082 62.6655 17.8689 62.6543C18.0833 62.6162 18.2152 62.6155 18.3025 62.6543C18.1574 62.7407 18.0134 62.8277 17.8729 62.9141L17.7426 62.9946C17.3825 63.2164 17.0339 63.4408 16.7051 63.662L16.584 63.7437C16.4195 63.8563 16.2548 63.9688 16.1074 64.0754C15.9236 64.2062 15.7749 64.3148 15.6288 64.4247L15.5146 64.5104C15.3626 64.625 15.213 64.7408 15.0646 64.859C14.9186 64.9755 14.7758 65.094 14.6343 65.2122L14.5293 65.3019C14.4298 65.3857 14.3317 65.4701 14.2359 65.5545L1.45301 58.11C0.677423 57.6585 0.673484 56.9239 1.44382 56.4723L13.886 49.1794C13.9182 49.2036 13.9493 49.2284 13.9815 49.2539L14.0471 49.3029C14.1069 49.3499 14.1692 49.3966 14.2326 49.4442L14.29 49.4886C14.4581 49.6144 14.6343 49.7452 14.8198 49.8799L14.868 49.9147C14.9534 49.9762 15.0384 50.0378 15.127 50.1004C15.3597 50.2666 15.5727 50.4145 15.7949 50.5655C16.5813 51.1008 17.3687 51.5967 18.1676 52.0618C18.5671 52.2942 18.9691 52.5193 19.3728 52.7355C19.3797 52.7636 19.3801 52.7878 19.3791 52.81C19.3581 52.9676 19.0663 53.0404 18.5145 53.0278C18.4033 53.0245 18.293 53.0192 18.1817 53.0146C17.9408 53.0026 17.6907 52.9904 17.4373 53.006C17.1692 53.0222 16.8918 53.0742 16.6079 53.1629C16.2016 53.3003 15.8678 53.4866 15.6407 53.7002C15.2629 54.056 15.1867 54.5364 15.4391 54.9853C15.7053 55.4616 16.2065 55.8606 16.7563 56.1807C17.3602 56.5326 18.0229 56.7888 18.4952 56.9477C20.0201 57.4615 22.1227 57.7257 23.4625 56.9255C23.6899 56.7895 23.8819 56.6395 24.03 56.4799C24.1924 56.1926 24.1895 55.8996 24.0319 55.6143C23.9623 55.4898 23.8642 55.3779 23.7674 55.2693C23.7385 55.2365 23.7096 55.2024 23.6807 55.1693C23.5767 55.0462 23.558 54.9697 23.6174 54.9121C23.6801 54.8499 23.7818 54.8131 23.9285 54.7982L26.5838 55.842C26.7414 55.9056 26.8999 55.9688 27.0584 56.033L27.3896 56.1658C27.5541 56.232 27.7195 56.3005 27.8872 56.3687L28.2079 56.4995C28.3894 56.5746 28.5745 56.6514 28.7586 56.7279L29.0347 56.8431C29.2487 56.9325 29.4636 57.0229 29.6796 57.1142Z" fill="#FFDE24"/>
<path d="M46.9929 32.1069C46.4608 32.1069 46.1168 32.1446 46.087 32.148C45.9698 32.1612 45.8858 32.2678 45.8989 32.3856C45.912 32.5038 46.019 32.5889 46.1346 32.5753C46.1497 32.5737 47.669 32.4088 49.3229 32.7935C51.502 33.3003 52.8742 34.4735 53.4014 36.2807C53.4345 36.3946 53.5527 36.4601 53.6662 36.4264C53.7791 36.3929 53.8438 36.2731 53.8107 36.1592C53.2438 34.2163 51.7212 32.9064 49.4076 32.3717C48.4817 32.1576 47.6106 32.1069 46.9929 32.1069Z" fill="#231F20"/>
<path d="M24.0055 31.0013C23.3878 31.0013 22.5167 31.0519 21.5908 31.2661C19.2771 31.8011 17.7542 33.1107 17.1877 35.0536C17.1545 35.1675 17.2192 35.2873 17.3321 35.3208C17.4457 35.3545 17.5638 35.289 17.597 35.1751C18.1241 33.3679 19.4961 32.1947 21.6754 31.6879C23.329 31.3035 24.8483 31.4681 24.8638 31.4697C24.9796 31.4833 25.0863 31.3979 25.0994 31.2797C25.1126 31.1615 25.0282 31.0552 24.9114 31.042C24.8815 31.0387 24.5375 31.0013 24.0055 31.0013Z" fill="#231F20"/>
<path d="M28.9801 48.8571C28.8829 48.8571 28.795 48.7895 28.7723 48.6899C28.7461 48.574 28.8176 48.4588 28.9325 48.432C29.5233 48.2956 29.8742 48.2208 30.059 48.183C30.252 43.2081 31.5507 37.9614 31.5638 37.9084C31.5927 37.7932 31.7089 37.723 31.8228 37.7522C31.937 37.7813 32.0063 37.8982 31.9777 38.0134C31.9646 38.0667 30.6471 43.3909 30.4794 48.3688C30.4761 48.4701 30.4026 48.5555 30.3035 48.5734C30.3002 48.574 29.9687 48.6343 29.028 48.8514C29.0119 48.8551 28.9959 48.8571 28.9801 48.8571Z" fill="#231F20"/>
<path d="M41.0356 48.857C41.0198 48.857 41.0038 48.8553 40.9877 48.8517C40.047 48.6342 39.7155 48.5739 39.7122 48.5736C39.6131 48.5557 39.5399 48.4707 39.5363 48.369C39.3689 43.3911 38.0514 38.0669 38.038 38.0136C38.0091 37.8984 38.0783 37.7816 38.1926 37.7524C38.3064 37.7233 38.4226 37.7931 38.4515 37.9087C38.4646 37.9617 39.7634 43.2084 39.9564 48.1833C40.1412 48.2211 40.4921 48.2959 41.0829 48.4323C41.1977 48.4587 41.2693 48.5743 41.243 48.6901C41.2207 48.7895 41.1327 48.857 41.0356 48.857Z" fill="#231F20"/>
<path d="M46.8807 35.584C53.2666 29.1432 53.2666 18.7005 46.8807 12.2597C40.4949 5.81882 30.1413 5.81882 23.7554 12.2597C17.3695 18.7005 17.3695 29.1432 23.7554 35.584C30.1413 42.0249 40.4949 42.0249 46.8807 35.584Z" fill="#009EDB"/>
<path d="M45.1889 32.2609C50.6405 26.7624 50.6405 17.8475 45.1889 12.349C39.7373 6.85048 30.8985 6.85048 25.4469 12.349C19.9953 17.8475 19.9953 26.7624 25.4469 32.2609C30.8985 37.7594 39.7373 37.7594 45.1889 32.2609Z" fill="#25BDEF"/>
<path d="M51.3952 26.1032C51.318 25.941 51.2094 25.8159 51.0512 25.7308C50.8605 25.6282 50.6504 25.562 50.4437 25.5004C50.2366 25.4388 50.0268 25.3865 49.8181 25.3306C49.6136 25.2756 49.4239 25.2104 49.2099 25.1968C49.0103 25.1843 48.7878 25.2018 48.6007 25.1174C48.4478 25.0485 48.3513 24.8873 48.301 24.7321C48.2479 24.5682 48.2288 24.4209 48.0936 24.2984C47.9472 24.1656 47.7493 24.0902 47.5684 24.019C47.3912 23.9495 47.2002 23.874 47.0092 23.8551C46.9038 23.8449 46.7994 23.8442 46.698 23.8799C46.6166 23.9084 46.5428 23.9548 46.4637 23.9889C46.293 24.0627 46.1112 24.0703 45.9401 23.9925C45.7412 23.9018 45.5647 23.7422 45.4025 23.5972C45.2712 23.48 45.1806 23.3142 45.0887 23.1659C45.0418 23.0901 44.9962 23.0126 44.9433 22.9404C44.882 22.8573 44.8078 22.8213 44.7031 22.8229C44.4786 22.8266 44.2813 22.9868 44.0749 23.059C43.8402 23.1411 43.5671 23.1242 43.3236 23.1036C43.1893 23.0924 43.0551 23.0669 42.9205 23.0606C42.8017 23.055 42.6796 23.0686 42.5615 23.0805C42.2844 23.1079 42.0104 23.1576 41.7356 23.202C41.4823 23.243 41.2279 23.2821 40.9712 23.2963C40.7631 23.3079 40.5649 23.3056 40.3703 23.2225C40.2475 23.1699 40.1599 23.1056 40.021 23.143C39.8225 23.1967 39.6439 23.3132 39.4821 23.4377C39.3098 23.5704 39.146 23.7148 38.9812 23.8568C38.8362 23.9819 38.7075 24.1203 38.5719 24.2553C38.5217 24.3057 38.4731 24.3517 38.4022 24.3679C38.2926 24.3927 38.1791 24.399 38.0688 24.4238C37.9746 24.4454 37.9007 24.4589 37.8062 24.4374C37.6854 24.4099 37.5613 24.399 37.4931 24.5228C37.4228 24.65 37.4307 24.9221 37.283 24.9962C37.2138 25.031 37.0913 25.0101 37.0185 25.0078C36.8547 25.0032 36.6912 24.9916 36.5278 24.9774C36.4011 24.9664 36.2724 24.9572 36.1474 24.933C36.0706 24.9181 36.0545 24.8777 36.02 24.8075C35.8881 24.5397 35.7844 24.2547 35.6813 23.9746C35.6396 23.8607 35.6052 23.7502 35.6173 23.627C35.6232 23.5658 35.6393 23.5052 35.638 23.4436C35.6357 23.3526 35.5924 23.2718 35.5405 23.1993C35.3889 22.9874 35.1584 22.7984 34.8863 22.8772C34.672 22.9394 34.4876 23.0967 34.3028 23.2162C34.2919 23.2231 34.2772 23.2162 34.2739 23.2043C34.2499 23.1142 34.2667 23.0215 34.2982 22.9355C34.3884 22.6885 34.5768 22.4747 34.761 22.2939C34.9274 22.1307 35.1237 21.9543 35.3465 21.8748C35.6541 21.7652 35.956 21.893 36.2504 21.9817C36.5951 22.0857 36.9417 22.0787 37.2213 21.8265C37.3972 21.6679 37.6542 21.7397 37.8147 21.8884C37.9135 21.9797 37.9926 22.0913 38.095 22.179C38.2106 22.2787 38.4042 22.3638 38.5503 22.2817C38.6806 22.2082 38.7636 22.0364 38.9126 21.994C39.0032 21.9685 39.1181 21.9877 39.2097 21.9993C39.3186 22.0132 39.4263 22.0357 39.5356 22.0466C39.7634 22.0698 39.9567 22.0198 40.1431 21.8874C40.2764 21.7927 40.4113 21.6845 40.5734 21.6461C40.7231 21.6103 40.9151 21.6454 41.0513 21.5696C41.1275 21.5272 41.1928 21.4458 41.2541 21.3849C41.4481 21.1915 41.6349 20.9903 41.8125 20.781C41.9362 20.6354 42.1525 20.4404 42.1098 20.2295C42.0468 19.9183 41.714 19.6197 41.413 19.5525C41.0864 19.4794 40.921 19.8554 40.6154 19.8601C40.4901 19.8621 40.3988 19.8117 40.3141 19.7214C40.2002 19.5995 40.1238 19.4936 39.9446 19.483C39.5904 19.4625 39.2714 19.7008 38.9267 19.7488C38.6422 19.7882 38.4118 19.673 38.2509 19.4386C38.1672 19.3165 38.1029 19.1827 38.0195 19.0606C37.9723 18.9914 37.9191 18.9259 37.8554 18.8709C37.8377 18.8557 37.7816 18.7951 37.7573 18.7994C37.7337 18.8037 37.7061 18.8699 37.6949 18.8898C37.6326 18.9987 37.583 19.1132 37.5282 19.2261C37.4947 19.295 37.4566 19.3612 37.3953 19.4082C37.3217 19.4648 37.2275 19.4896 37.1386 19.5075C36.9702 19.5416 36.7972 19.5552 36.6259 19.5582C36.3325 19.5631 35.9918 19.5257 35.8123 19.2625C35.8073 19.2589 35.8044 19.2533 35.8037 19.2466C35.8037 19.2456 35.8034 19.245 35.8034 19.244C35.8024 19.2357 35.8067 19.2301 35.8126 19.2271C35.8034 19.2221 35.8178 19.189 35.8215 19.1702C35.8283 19.1338 35.8346 19.0973 35.8398 19.0606C35.8497 18.9914 35.8612 18.9209 35.8434 18.8537C35.785 18.6326 35.5306 18.5286 35.4857 18.3048C35.4351 18.0529 35.4496 17.7917 35.3908 17.5394C35.3669 17.4375 35.3416 17.3339 35.2993 17.2379C35.2812 17.1975 35.2563 17.1591 35.2405 17.118C35.211 17.0402 35.2461 16.9714 35.2819 16.9015C35.3882 16.6933 35.511 16.4993 35.6613 16.3209C35.744 16.2225 35.8339 16.1272 35.9048 16.019C35.9708 15.918 36.0138 15.7991 36.0607 15.6882C36.1621 15.4502 36.2616 15.2139 36.384 14.9854C36.4785 14.809 36.6131 14.6408 36.623 14.4326C36.6253 14.3833 36.6338 14.2611 36.5983 14.2217C36.5783 14.1995 36.5396 14.2128 36.5064 14.2121C36.3834 14.2095 36.2655 14.175 36.1421 14.2002C36.1339 14.2019 36.1241 14.1992 36.1198 14.1909C36.0584 14.0701 35.9852 13.9559 35.9239 13.8351C35.9196 13.8268 35.9209 13.8178 35.9268 13.8109C36.0817 13.6378 36.302 13.5345 36.492 13.4067C36.6991 13.2676 36.9203 13.0806 36.8629 12.8019C36.8609 12.7919 36.8658 12.7797 36.8767 12.7774C37.094 12.7294 37.3263 12.7069 37.522 12.5917C37.6276 12.5294 37.733 12.4414 37.8124 12.347C37.8932 12.251 37.9463 12.1345 38.009 12.0269C38.073 11.917 38.1436 11.8567 38.2559 11.7958C38.3655 11.7362 38.485 11.6968 38.5936 11.6349C38.6287 11.6147 38.6688 11.5922 38.6983 11.5641C38.736 11.528 38.7311 11.5403 38.7019 11.5048C38.6615 11.4552 38.612 11.4135 38.5729 11.3618C38.503 11.2698 38.4459 11.1695 38.3944 11.0662C38.3878 11.053 38.3957 11.0364 38.4114 11.0364C38.6908 11.0367 38.9701 11.048 39.2491 11.0341C39.3981 11.0268 39.5468 11.0116 39.6938 10.9844C39.7604 10.9722 39.8349 10.9632 39.8986 10.9394C39.9659 10.9142 39.959 10.8964 39.9367 10.8335C39.8221 10.5147 39.4601 10.2945 39.188 10.129C38.8916 9.94826 38.5759 9.7781 38.2555 9.64469C38.0563 9.5616 37.8528 9.48943 37.6503 9.41462C37.5078 9.36198 37.3959 9.35801 37.2466 9.37324C37.1773 9.38019 37.0667 9.40204 37.0145 9.33947C36.9535 9.26631 37.0106 9.13952 37.0483 9.05709C36.8399 9.04054 36.6627 8.92103 36.5153 8.77636C36.5048 8.7661 36.5094 8.74657 36.5238 8.74326C37.0624 8.61316 37.6053 8.49398 38.1256 8.29867C38.4315 8.18379 38.7367 8.04012 39.0052 7.84878C37.8206 7.57434 36.5862 7.42868 35.3183 7.42868C29.7093 7.42868 24.7601 10.277 21.8147 14.618C21.8987 14.6971 22.0257 14.8196 21.9857 14.9447C21.9545 15.043 21.8373 15.0967 21.7657 15.1596C21.6135 15.2926 21.6 15.5108 21.5902 15.7021C21.579 15.923 21.5869 16.1444 21.5367 16.3613C21.5071 16.4894 21.4628 16.6115 21.4402 16.7416C21.4228 16.8419 21.4123 16.9432 21.3985 17.0439C21.3748 17.2173 21.3463 17.3875 21.3043 17.5573C21.2547 17.7573 21.1992 17.9483 21.2212 18.1565C21.2458 18.3916 21.3236 18.6196 21.4096 18.8381C21.493 19.05 21.5898 19.2562 21.6794 19.4655C21.6998 19.5128 21.7185 19.5605 21.7388 19.6078C21.7592 19.6555 21.7424 19.6452 21.7828 19.6429C21.8856 19.6369 21.9857 19.5416 22.0454 19.4678C22.0516 19.4598 22.0667 19.4602 22.0733 19.4678C22.2469 19.6694 22.3405 19.9051 22.4045 20.1613C22.4314 20.2689 22.453 20.3785 22.4888 20.4834C22.5072 20.5374 22.5216 20.6003 22.5725 20.6268C22.6057 20.644 22.6533 20.6446 22.689 20.6529C22.8482 20.6887 22.9552 20.734 22.9611 20.9098C22.9641 20.9982 22.9595 21.0608 23.009 21.1402C23.036 21.1833 23.0652 21.225 23.0937 21.2667C23.1541 21.3551 23.2171 21.4415 23.2834 21.5252C23.4229 21.7017 23.5759 21.8576 23.6855 22.0562C23.7853 22.2366 23.8618 22.4296 23.9655 22.6081C24.0761 22.7981 24.2471 23.0176 24.4795 23.0454C24.679 23.0695 24.8973 22.9712 25.0722 23.1053C25.2291 23.2258 25.281 23.4493 25.4602 23.5413C25.5537 23.5893 25.5301 23.5178 25.5354 23.4443C25.54 23.3824 25.5465 23.3205 25.5541 23.2589C25.5682 23.1444 25.5869 23.0305 25.6086 22.9176C25.6112 22.9047 25.6273 22.9001 25.6374 22.9057C25.793 22.9927 25.9479 23.0993 26.0054 23.2774C26.0595 23.4453 26.0221 23.682 26.1465 23.82C26.2125 23.8935 26.3152 23.9286 26.3877 23.9958C26.4695 24.0716 26.4823 24.1431 26.4823 24.2527C26.4826 24.4152 26.4432 24.5857 26.5315 24.7327C26.6057 24.8559 26.7229 24.9601 26.8696 24.9734C26.9641 24.9817 27.058 24.9555 27.1482 24.93C27.227 24.9078 27.3156 24.8956 27.3878 24.8575C27.4817 24.8082 27.5641 24.7324 27.6655 24.697C27.7206 24.6778 27.7705 24.6844 27.829 24.6887C27.9878 24.6999 28.1605 24.7072 28.3141 24.7536C28.4696 24.8002 28.6124 24.8946 28.7545 24.9711C28.9137 25.0571 29.0824 25.1674 29.2636 25.0853C29.3975 25.0247 29.4674 24.8949 29.5331 24.7701C29.5823 24.6761 29.6319 24.5718 29.7211 24.5093C29.8259 24.4358 29.9535 24.4457 30.0717 24.4765C30.1951 24.5089 30.3487 24.549 30.3943 24.685C30.4134 24.742 30.4107 24.8046 30.4226 24.8631C30.4436 24.9678 30.504 25.0432 30.5739 25.1204C30.6523 25.2071 30.7478 25.2985 30.8729 25.2783C30.9471 25.2664 31.0117 25.2203 31.077 25.1866C31.2103 25.1177 31.3294 25.1104 31.4748 25.1396C31.8579 25.2164 32.2091 25.4143 32.5747 25.5451C32.9423 25.6765 33.3726 25.7695 33.6913 25.4799C33.6985 25.4733 33.7123 25.4713 33.7192 25.4799C33.8141 25.6014 33.901 25.7285 33.9897 25.8546C34.0487 25.9387 34.1659 26.0331 34.1639 26.1416C34.162 26.2426 34.1039 26.3105 34.204 26.4068C34.2463 26.4479 34.3061 26.4618 34.3612 26.4767C34.4577 26.5025 34.5588 26.5223 34.6428 26.5799C34.9405 26.7835 34.9904 27.5062 35.4896 27.2758C35.656 27.199 35.7876 27.109 35.9787 27.147C36.2074 27.1924 36.3784 27.3596 36.6171 27.3807C36.6952 27.3877 36.7792 27.3976 36.8557 27.3741C36.9088 27.3579 36.9591 27.3308 37.0119 27.3129C37.1031 27.2821 37.2006 27.2718 37.2738 27.2033C37.2984 27.1805 37.3155 27.1457 37.3444 27.1278C37.436 27.0706 37.6001 27.1728 37.6762 27.2169C37.8745 27.3311 38.0268 27.5287 38.1147 27.7383C38.1187 27.7475 38.118 27.7604 38.1075 27.7654C38.0133 27.8094 37.9093 27.873 37.9007 27.9885C37.8932 28.0895 37.9697 28.1812 38.0333 28.2484C38.0415 28.2573 38.0409 28.2736 38.0294 28.2795C37.967 28.3123 37.907 28.3517 37.8413 28.3772C37.7573 28.41 37.7737 28.3961 37.7924 28.4911C37.8216 28.6394 37.8197 28.7883 37.8013 28.938C37.7632 29.2449 37.691 29.5418 37.7074 29.8526C37.7215 30.1195 37.7793 30.3999 37.7356 30.666C37.6959 30.909 37.5062 31.0255 37.346 31.1871C37.2764 31.2576 37.2108 31.3433 37.2121 31.4466C37.2131 31.5228 37.2335 31.6022 37.2495 31.676C37.2899 31.8618 37.3408 32.0458 37.4005 32.2262C37.4127 32.263 37.4432 32.4113 37.478 32.4275C37.4776 32.4275 37.4987 32.405 37.5229 32.3885C37.5541 32.3673 37.5869 32.3494 37.6217 32.3355C37.756 32.2815 37.8994 32.3007 38.0281 32.361C38.3727 32.5219 38.6199 32.8771 38.8444 33.172C38.954 33.3164 39.0597 33.4663 39.1834 33.5994C39.3511 33.7798 39.5221 33.953 39.6646 34.1556C39.81 34.3621 39.9334 34.5962 39.9682 34.8498C39.9869 34.9852 39.9547 35.1004 39.9452 35.2315C39.9406 35.2973 39.9311 35.2824 39.9944 35.3126C40.0187 35.3242 40.0575 35.3301 40.0821 35.3357C40.1664 35.3553 40.2527 35.3665 40.3391 35.3725C40.6548 35.3943 40.9709 35.3394 41.2863 35.3649C41.5338 35.3851 41.7504 35.4744 41.9703 35.5844C42.0708 35.6347 42.1722 35.69 42.2168 35.7995C42.2779 35.9495 42.2601 36.1329 42.2743 36.2908C42.2897 36.4636 42.3675 36.6497 42.3455 36.8241C42.3261 36.9797 42.1942 37.0628 42.0635 37.1231C42.2257 37.2174 42.3442 37.3535 42.2674 37.5531C42.1827 37.7726 41.989 37.9364 41.8705 38.1364C41.7268 38.3787 41.7048 38.7104 41.6782 38.9855C41.6736 39.0319 41.6697 39.0785 41.6661 39.1255C46.8329 36.9284 50.6458 32.1302 51.493 26.3571C51.4657 26.2704 51.4342 26.1853 51.3952 26.1032ZM33.7789 20.2222C33.7231 20.2454 33.6677 20.2696 33.6145 20.2984C33.5787 20.3176 33.5469 20.3354 33.5255 20.3705C33.4868 20.4341 33.4789 20.5059 33.4917 20.5781C33.5036 20.6433 33.5278 20.7052 33.5416 20.7698C33.5544 20.8294 33.5564 20.8919 33.5259 20.9469C33.4832 21.0237 33.3962 21.0654 33.3184 21.0962C33.3063 21.1012 33.2938 21.0889 33.2935 21.077C33.2928 21.0224 33.2794 20.9687 33.2433 20.9264C33.2114 20.8893 33.1698 20.8635 33.1264 20.8416C33.0345 20.7956 32.9348 20.7655 32.8484 20.7089C32.7339 20.8893 32.6295 21.0816 32.4851 21.2399C32.3525 21.3852 32.1835 21.4848 32.0046 21.562C31.9107 21.6027 31.8168 21.6434 31.7276 21.6937C31.6691 21.7268 31.6117 21.7636 31.5631 21.8109C31.4847 21.8874 31.4496 21.987 31.421 22.091C31.3754 22.2582 31.3301 22.4237 31.2664 22.5849C31.2635 22.5925 31.2569 22.6001 31.2474 22.5995C31.0485 22.5846 30.8479 22.6018 30.649 22.5985C30.4695 22.5955 30.2778 22.5869 30.1101 22.5157C30.0467 22.4889 29.9801 22.4502 29.9397 22.3922C29.9086 22.3475 29.8944 22.2913 29.8846 22.238C29.8626 22.1198 29.8662 21.9913 29.8216 21.8784C29.8048 21.8364 29.7773 21.798 29.7317 21.7861C29.665 21.7689 29.5902 21.8026 29.5318 21.8318C29.5222 21.8364 29.5104 21.8344 29.5049 21.8245C29.4218 21.6818 29.432 21.5057 29.453 21.3478C29.4733 21.1948 29.5114 21.0439 29.5245 20.8899C29.5298 20.829 29.5341 20.7651 29.5039 20.7095C29.4832 20.6718 29.452 20.6413 29.4372 20.6003C29.4172 20.5453 29.4313 20.4785 29.4553 20.4268C29.4789 20.3758 29.5262 20.3378 29.5705 20.3057C29.6791 20.2275 29.8062 20.1772 29.9125 20.0964C29.8787 20.0511 29.8442 20.0061 29.8124 19.9594C29.7763 19.9061 29.7382 19.8438 29.7602 19.7773C29.771 19.7452 29.7904 19.7164 29.8098 19.6892C29.8419 19.6439 29.8764 19.6002 29.9092 19.5552C29.9834 19.4535 30.0536 19.3516 30.1423 19.2615C30.2266 19.1758 30.3238 19.097 30.4367 19.0536C30.5325 19.0166 30.6352 19.0136 30.7288 19.0593C30.8079 19.098 30.8709 19.1626 30.948 19.2049C30.9881 19.2271 31.0321 19.2417 31.0777 19.2443C31.1072 19.246 31.1345 19.2413 31.1633 19.238C31.183 19.2357 31.2027 19.2354 31.2224 19.2311C31.3298 19.2079 31.4292 19.1506 31.526 19.1003C31.5753 19.0748 31.6242 19.0487 31.675 19.0265C31.7269 19.0033 31.7814 18.9861 31.8339 18.9643C31.9616 18.9113 32.0833 18.8454 32.2025 18.7752C32.3157 18.7087 32.427 18.6385 32.5415 18.574C32.5708 18.5574 32.6003 18.5412 32.6302 18.5256C32.6522 18.514 32.6745 18.4985 32.6997 18.4965C32.7431 18.4929 32.7844 18.518 32.8205 18.5385C32.8543 18.5581 32.9046 18.5955 32.9459 18.5776C32.986 18.5604 33.0122 18.513 33.0345 18.4776C33.0559 18.4439 33.0765 18.4025 33.109 18.3776C33.1261 18.3644 33.1451 18.3674 33.1658 18.3677C33.1875 18.368 33.2088 18.3687 33.2305 18.3704C33.3417 18.3783 33.4514 18.4091 33.538 18.4829C33.5958 18.5319 33.6362 18.5915 33.6621 18.663C33.7113 18.7981 33.7067 18.9451 33.7474 19.0821C33.7638 19.1367 33.7904 19.191 33.8406 19.2215C33.9073 19.2619 33.9929 19.2533 34.0661 19.2387C34.0786 19.2364 34.0911 19.2443 34.0911 19.2579V19.5992C34.1905 19.6297 34.2995 19.6118 34.4009 19.633C34.4541 19.6442 34.505 19.6684 34.5404 19.7108C34.589 19.7684 34.6061 19.8438 34.6139 19.917C34.6149 19.9256 34.607 19.9339 34.5995 19.9362C34.4715 19.9733 34.3448 20.0157 34.2184 20.059C34.0711 20.1093 33.9237 20.162 33.7789 20.2222Z" fill="#AFDBF6"/>
<path d="M37.5618 20.9014L37.5831 20.8921C37.7232 20.8322 37.868 20.77 37.9822 20.6574C37.9924 20.6478 37.9966 20.6329 37.994 20.618C37.9911 20.6021 37.9809 20.5885 37.9671 20.5826C37.6674 20.4548 37.3435 20.3807 37.0665 20.325C36.649 20.2413 36.2446 20.1943 35.8642 20.1857C35.5928 20.1797 35.1874 20.1843 34.8027 20.2909C34.7978 20.2913 34.7922 20.2929 34.7873 20.2949L34.7722 20.2992C34.7601 20.3025 34.7483 20.3055 34.7371 20.3091C34.4742 20.3909 34.2782 20.516 34.1545 20.6812C34.0524 20.7604 33.9671 20.8375 33.8932 20.9173C33.8791 20.9322 33.8765 20.9534 33.887 20.9729C33.8982 20.9937 33.9208 21.0057 33.9418 21.0017C34.0711 20.9769 34.2047 20.9779 34.3337 20.9792C34.3793 20.9795 34.4253 20.9802 34.4709 20.9792L34.4716 20.9845C34.4771 21.0411 34.4824 21.0944 34.5139 21.149C34.5224 21.1639 34.5356 21.1742 34.5507 21.1771C34.5648 21.1798 34.5795 21.1765 34.5917 21.1672C34.8267 20.9884 35.0758 21.0606 35.3771 21.1738C35.4667 21.2069 35.5442 21.2354 35.6518 21.2215C35.7848 21.204 35.9105 21.2619 35.9939 21.3072C36.0316 21.3274 36.0693 21.3506 36.1061 21.3728C36.2328 21.4496 36.3638 21.529 36.5206 21.529C36.5279 21.529 36.5354 21.529 36.543 21.5284C36.6831 21.5218 36.8078 21.4605 36.9283 21.4016C37.0317 21.3509 37.1384 21.2983 37.2539 21.2818C37.2683 21.2798 37.2805 21.2722 37.288 21.2606C37.2959 21.2486 37.2982 21.2331 37.2939 21.2179C37.2444 21.0371 37.4131 20.9653 37.5618 20.9014Z" fill="#96D5D2"/>
<path d="M39.1407 20.5915C39.0645 20.5859 38.9887 20.5912 38.9093 20.6077C38.865 20.6167 38.8213 20.6276 38.7773 20.6382C38.6473 20.67 38.5249 20.6998 38.3943 20.6895C38.3752 20.6875 38.3559 20.6978 38.3454 20.714C38.3362 20.7279 38.3355 20.7444 38.3434 20.759C38.4327 20.9302 38.5203 21.0808 38.6746 21.1788C38.3798 21.2341 38.0762 21.2923 37.9102 21.574C37.8993 21.5923 37.8993 21.6148 37.9105 21.632C37.9197 21.6462 37.9348 21.6545 37.9518 21.6545C37.9541 21.6545 37.9564 21.6542 37.9587 21.6542C38.1498 21.6323 38.3414 21.5989 38.5269 21.5668C38.8873 21.5042 39.2601 21.4393 39.6359 21.4579C39.6592 21.4585 39.6812 21.4439 39.6891 21.4211C39.6963 21.3999 39.6891 21.3777 39.6707 21.3645C39.6376 21.3407 39.6054 21.3142 39.5746 21.2884C39.5614 21.2774 39.5483 21.2665 39.5349 21.2559C39.7928 21.1496 40.0626 21.0629 40.3242 20.9788C40.3872 20.9586 40.4503 20.9384 40.5129 20.9179C40.532 20.9116 40.5441 20.8964 40.5454 20.8769C40.5471 20.8544 40.534 20.8312 40.5143 20.8213C40.3433 20.7352 40.165 20.7279 40.0288 20.7312L39.9763 20.7325C39.8943 20.7348 39.8096 20.7372 39.7262 20.7329C39.675 20.7302 39.6635 20.672 39.653 20.5902C39.6504 20.57 39.6478 20.5508 39.6445 20.5352C39.6419 20.5203 39.6333 20.5071 39.6208 20.4988C39.6097 20.4912 39.5966 20.4889 39.5838 20.4915C39.4649 20.5174 39.3464 20.5445 39.228 20.5716L39.1407 20.5915Z" fill="#96D5D2"/>
<path d="M40.4767 21.1871C40.4823 21.2109 40.5016 21.2265 40.5243 21.2265C40.5262 21.2265 40.5282 21.2265 40.5302 21.2262C40.7314 21.2 40.9496 21.1278 41.1971 21.0054C41.3675 20.9206 41.5555 20.816 41.6291 20.6495C41.6353 20.6356 41.6353 20.6207 41.6284 20.6074C41.6212 20.5932 41.6074 20.5826 41.5913 20.5793C41.4114 20.5416 41.2349 20.5836 41.1197 20.6919C41.1141 20.6972 41.1105 20.7028 41.1088 20.7081C41.0675 20.7289 41.0241 20.7571 40.9759 20.7942C40.9319 20.8279 40.8896 20.8647 40.8485 20.9001C40.7406 20.9934 40.6385 21.0812 40.5062 21.1295C40.4832 21.1381 40.4708 21.1616 40.4767 21.1871Z" fill="#96D5D2"/>
<path d="M50.9422 27.76C50.9064 27.469 50.8729 27.194 50.9241 26.9013C50.9277 26.8808 50.9317 26.8599 50.9359 26.8391C50.953 26.7513 50.9707 26.6606 50.9589 26.5696C50.9504 26.5034 50.9343 26.4372 50.9093 26.367C50.9054 26.3561 50.9018 26.3452 50.8985 26.3346C50.8768 26.2684 50.8568 26.2058 50.7698 26.1902C50.7075 26.1796 50.6425 26.1714 50.5798 26.1637C50.3989 26.1412 50.2122 26.1181 50.0537 26.027C50.009 26.0012 49.97 25.9681 49.9434 25.9337C49.8984 25.8741 49.8036 25.9151 49.7405 25.9423C49.7277 25.9479 49.7159 25.9529 49.7061 25.9565C49.6775 25.9671 49.6486 25.9784 49.6194 25.9899C49.499 26.0369 49.3746 26.0859 49.2492 26.0919C49.1478 26.0962 49.1064 26.077 49.047 25.9969C49.0372 25.9833 49.026 25.9664 49.0139 25.9476C48.9551 25.8569 48.8744 25.7327 48.7713 25.7552C48.7135 25.7678 48.6522 25.7963 48.5872 25.8267C48.4556 25.8883 48.3193 25.9519 48.2091 25.8824C48.0725 25.7963 48.0253 25.6536 47.9754 25.5026L47.9645 25.4699C47.9363 25.3845 47.9012 25.2785 47.8195 25.2166C47.7604 25.1719 47.6882 25.1474 47.5979 25.1418L47.5874 25.1411L47.5812 25.1497C47.5795 25.1517 47.5789 25.1527 47.5756 25.1514L47.5589 25.1411H47.5533C47.5165 25.1415 47.4781 25.1438 47.4391 25.1481C47.4345 25.1484 47.4292 25.1458 47.4286 25.1431C47.4059 25.0693 47.3616 25.022 47.315 24.9716C47.3028 24.9587 47.291 24.9458 47.2789 24.9323C47.2776 24.9306 47.2769 24.9293 47.2763 24.9273L47.2746 24.9217L47.2704 24.9177C47.2342 24.8852 47.1981 24.8525 47.1624 24.8194C47.1062 24.7677 47.0481 24.7144 46.9897 24.6644L46.9694 24.6469C46.7665 24.4734 46.5368 24.2768 46.2722 24.2136C46.0828 24.1682 45.9319 24.2275 45.797 24.2983C45.7087 24.3447 45.6128 24.3893 45.5039 24.3831C45.3634 24.3748 45.2285 24.3291 45.1136 24.2513C45.0421 24.2026 44.9879 24.1583 44.9433 24.1116C44.936 24.104 44.9265 24.0914 44.916 24.0775C44.8796 24.0295 44.8389 23.9749 44.7962 23.9792C44.5737 24.0014 44.3853 23.8792 44.2031 23.7607C44.1552 23.7296 44.1057 23.6975 44.0564 23.6687C44.0413 23.6597 44.0262 23.6508 44.0105 23.6415C43.9104 23.5816 43.7971 23.5137 43.6849 23.4882C43.637 23.4776 43.5917 23.4853 43.548 23.4925C43.5345 23.4949 43.5211 23.4972 43.5073 23.4988C43.4243 23.5098 43.3383 23.5121 43.2552 23.5144C43.1975 23.516 43.1377 23.5174 43.079 23.522C42.8971 23.5349 42.7311 23.5538 42.5712 23.5799C42.16 23.6465 41.8052 23.7418 41.4868 23.8716C41.4845 23.8726 41.4819 23.8709 41.4812 23.8706C41.4789 23.8693 41.4776 23.867 41.4773 23.865C41.4769 23.859 41.4766 23.8531 41.4766 23.8468C41.475 23.8031 41.473 23.7435 41.4133 23.7306C41.3788 23.7226 41.344 23.7147 41.3102 23.7061C41.2377 23.6872 41.1661 23.6673 41.0946 23.6471C41.065 23.6389 41.0352 23.6299 41.005 23.621C40.9216 23.5962 40.8356 23.5703 40.7493 23.5558L40.7306 23.5525L40.727 23.5713C40.7161 23.6256 40.6912 23.6726 40.6646 23.7226C40.6374 23.7736 40.6094 23.8262 40.5983 23.8871C40.598 23.8891 40.597 23.8948 40.5868 23.8941C40.511 23.8878 40.4345 23.8895 40.3603 23.8911C40.2865 23.8928 40.21 23.8944 40.1355 23.8881C40.1348 23.8881 40.1335 23.8881 40.1325 23.8852C40.1312 23.8815 40.1316 23.8772 40.1329 23.8756L40.1509 23.8527C40.1877 23.806 40.2258 23.7577 40.256 23.7057C40.2576 23.7031 40.2655 23.6862 40.2737 23.6687C40.2819 23.6508 40.2908 23.6319 40.2934 23.6276L40.2783 23.6173L40.275 23.5968C40.2176 23.6034 40.1637 23.6385 40.1161 23.6697L40.0991 23.6809C39.9655 23.7683 39.8253 23.8756 39.6826 24C39.6399 24.0374 39.5969 24.0775 39.5552 24.1162C39.4203 24.242 39.2805 24.3721 39.1128 24.4443C39.0537 24.4695 38.9946 24.4883 38.9319 24.5019C38.8801 24.5128 38.8535 24.5721 38.8318 24.6197C38.8266 24.631 38.822 24.6416 38.8174 24.6502C38.8056 24.6724 38.7911 24.6962 38.7763 24.7214C38.7478 24.7694 38.7153 24.824 38.6913 24.8786L38.6644 24.9395L38.7199 24.9035C38.7406 24.8899 38.758 24.8793 38.7773 24.8723C38.7793 24.8717 38.7819 24.873 38.7836 24.8743C38.7862 24.8766 38.7868 24.879 38.7849 24.8816L38.7947 24.8919L38.7944 24.8932L38.7809 24.8846L38.7471 24.9121L38.7898 24.9197C38.7941 24.9203 38.798 24.923 38.7996 24.9263C38.8003 24.9276 38.8006 24.9289 38.7996 24.9306L38.797 24.9352L38.7983 24.9415L38.7895 24.9501L38.7944 24.967C38.7954 24.9703 38.7964 24.974 38.7973 24.9773L38.8062 25.0028L38.8275 24.9865C38.8321 24.9829 38.8354 24.9809 38.8394 24.9796L38.844 24.9819H38.8443C38.8387 24.9988 38.8312 25.011 38.8213 25.018L38.8111 25.0256L38.8138 25.0382C38.8335 25.1276 38.8282 25.1928 38.7973 25.2381C38.7553 25.2997 38.6844 25.3173 38.5669 25.2944L38.5446 25.2901L38.5436 25.3133C38.5371 25.4805 38.4645 25.6274 38.3493 25.7066C38.2505 25.7744 38.1307 25.7864 38.0024 25.7413C37.9154 25.7105 37.8412 25.6645 37.7874 25.6073C37.7615 25.5801 37.7346 25.55 37.7129 25.5169C37.6601 25.4358 37.6256 25.4404 37.534 25.4659C37.3492 25.5175 37.1004 25.6202 36.9629 25.8165L36.9596 25.8214V25.8274C36.955 25.9972 36.7965 26.0734 36.6491 26.0883C36.4187 26.1118 36.1506 26.0065 36.101 25.7907L36.0984 25.7791L36.0869 25.7761C36.0784 25.7738 36.0705 25.7711 36.0626 25.7678L36.0521 25.7635L36.0429 25.7705C35.9891 25.8112 35.8762 25.791 35.7935 25.7764C35.7695 25.7721 35.7479 25.7685 35.7291 25.7662C35.7259 25.7658 35.7242 25.7615 35.7236 25.7582C35.7006 25.596 35.61 25.4891 35.5227 25.3858C35.4741 25.3285 35.4242 25.2696 35.3845 25.2004C35.3113 25.0733 35.2782 24.9107 35.2913 24.7419C35.3054 24.5585 35.3005 24.3675 35.2759 24.1579C35.2595 24.0143 35.2368 23.8646 35.1548 23.7521C35.0012 23.5405 34.71 23.5455 34.5046 23.5674C34.3102 23.5879 34.155 23.6845 34.0047 23.7782C33.921 23.8302 33.8343 23.8845 33.7408 23.9252C33.5137 24.0249 33.2714 23.9822 33.1083 23.814C32.9898 23.6918 32.9783 23.5399 33.0725 23.3356C33.0903 23.2969 33.1086 23.2595 33.1264 23.2227C33.2192 23.0321 33.3069 22.8516 33.2747 22.612C33.2645 22.5371 33.2448 22.462 33.2258 22.3895C33.1966 22.2783 33.1664 22.1634 33.171 22.0492C33.1753 21.9423 33.2179 21.8466 33.2527 21.785C33.2869 21.7254 33.3177 21.6784 33.3492 21.6367C33.3568 21.6268 33.3646 21.6175 33.3725 21.6079C33.4024 21.5728 33.4303 21.5394 33.4244 21.5006C33.4208 21.4761 33.4034 21.4543 33.3722 21.4344C33.1434 21.2878 32.8575 21.4288 32.6078 21.5861C32.5382 21.6298 32.4693 21.6761 32.4026 21.7211C32.3613 21.7489 32.3199 21.7771 32.2782 21.8045C32.2638 21.8141 32.2484 21.8237 32.2329 21.8337C32.1647 21.8767 32.0875 21.9257 32.037 21.9903C31.992 22.0475 32.0209 22.12 32.0462 22.1839C32.059 22.216 32.0711 22.2462 32.0738 22.2723C32.0944 22.4815 32.0124 22.7378 31.8788 22.8814C31.7423 23.0284 31.544 23.0989 31.2729 23.094C31.1636 23.0923 31.0527 23.0857 30.9457 23.0794C30.8029 23.0708 30.6552 23.0622 30.5085 23.0652C30.4139 23.0672 30.3191 23.0787 30.2275 23.0897C30.1405 23.1003 30.0506 23.1112 29.9617 23.1138C29.8655 23.1168 29.686 23.1221 29.6108 23.0145C29.5241 22.8907 29.5763 22.7196 29.6459 22.5534L29.6574 22.5256L29.6275 22.5259C29.6269 22.5259 29.6262 22.5259 29.6256 22.5259C29.4125 22.5259 29.2504 22.3296 29.1519 22.1647C29.0019 21.9151 28.9012 21.6374 28.8602 21.3616C28.8204 21.0951 28.9051 20.8899 29.0443 20.6644L29.0673 20.6277C29.1339 20.5224 29.2097 20.4029 29.2068 20.2764C29.2035 20.0917 29.063 19.9666 28.9123 19.8593C28.9117 19.8583 28.9114 19.8554 28.9117 19.8544C29.0036 19.6965 29.1513 19.5789 29.2819 19.4753C29.3062 19.4561 29.3311 19.4369 29.3564 19.4174C29.3899 19.3916 29.4237 19.3654 29.4569 19.3383L29.4693 19.328L29.4647 19.3194C29.4933 19.2989 29.5225 19.2754 29.5563 19.2459L29.5415 19.2704L29.6636 19.1436C29.7224 19.0827 29.7788 19.0175 29.8333 18.9539C29.8954 18.8821 29.9597 18.8073 30.0283 18.7387C30.1776 18.5898 30.3828 18.3855 30.603 18.4031C30.7054 18.411 30.8006 18.4617 30.8715 18.5451C30.8787 18.5537 30.8918 18.5745 30.9056 18.5971C30.9578 18.6808 30.9906 18.7328 31.0244 18.7298C31.0609 18.7278 31.0973 18.7262 31.1337 18.7245C31.183 18.7222 31.2325 18.7199 31.2818 18.7169C31.6028 18.6984 32.0875 18.6705 32.2927 18.2985L32.3061 18.2743L32.2789 18.2693C32.2599 18.266 32.2408 18.262 32.2221 18.2581C32.146 18.2422 32.0741 18.2273 31.9924 18.2412C31.991 18.2405 31.9891 18.2372 31.9891 18.2365C32.1492 18.0045 32.4378 17.975 32.7164 17.9469C32.8513 17.9333 32.979 17.9201 33.0939 17.886C33.0952 17.8856 33.0975 17.8853 33.0998 17.8886C33.1031 17.8933 33.1162 17.9194 33.127 17.9403C33.1749 18.0346 33.1789 18.0426 33.1976 18.0383C33.212 18.0353 33.2268 18.0326 33.2416 18.0296C33.277 18.023 33.3138 18.0161 33.3492 18.0061C33.4703 17.973 33.5491 17.9052 33.621 17.7724C33.6216 17.7711 33.6243 17.7698 33.6249 17.7698C33.8002 17.8876 33.9502 18.0406 34.0953 18.1885C34.1806 18.2756 34.2689 18.3657 34.3618 18.4481L34.3749 18.4332L34.3605 18.4527C34.2974 18.4709 34.2354 18.503 34.1662 18.5537L34.1475 18.5676L34.1639 18.5841C34.3762 18.796 34.7054 19.0695 35.0684 19.1641C35.0281 19.2578 34.9933 19.3548 34.9595 19.4485C34.9408 19.5005 34.9224 19.5525 34.9027 19.6041L34.8892 19.6398L34.9263 19.6302C34.9995 19.6114 35.0648 19.5922 35.1216 19.5488C35.1899 19.4962 35.2352 19.429 35.2742 19.3644L35.2834 19.3489C35.3208 19.2866 35.3592 19.2224 35.4058 19.1668C35.4275 19.141 35.4403 19.1211 35.4465 19.1019L35.4482 19.0969L35.4472 19.092C35.4423 19.0648 35.4347 19.038 35.4252 19.0122L35.4216 19.0059C35.4141 18.9973 35.4045 18.9887 35.3921 18.9787C35.3589 18.9526 35.3228 18.9331 35.288 18.9142L35.268 18.9033C35.2627 18.9006 35.2624 18.8933 35.2641 18.8894C35.2654 18.8861 35.2667 18.8857 35.27 18.8864C35.289 18.8914 35.308 18.8986 35.332 18.9102L35.3999 18.9437L35.3569 18.8811C35.3205 18.8281 35.2772 18.7791 35.2355 18.7318C35.1764 18.6653 35.1157 18.5961 35.0724 18.5146L35.0701 18.51L35.0658 18.5073C34.8978 18.3971 34.8617 18.2365 34.967 18.0661C34.971 18.0598 34.9746 18.0545 34.9775 18.0495C34.9897 18.0306 34.9985 18.0171 34.9943 18.0008C34.99 17.9843 34.9746 17.975 34.9516 17.9624C34.9194 17.9452 34.8896 17.927 34.86 17.9068C34.817 17.8777 34.7766 17.8406 34.7284 17.7863C34.6683 17.7188 34.6175 17.6334 34.5856 17.5457L34.5784 17.5251L34.5604 17.5308C34.562 17.5271 34.564 17.5238 34.5663 17.5212L34.5728 17.5135L34.5709 17.5039C34.5702 17.5006 34.5689 17.498 34.5692 17.495L34.5961 17.4785L34.5695 17.4612C34.564 17.4576 34.5567 17.4543 34.5459 17.45C34.5141 17.4387 34.4839 17.4268 34.4625 17.4043C34.4163 17.3566 34.3867 17.2961 34.3769 17.2288C34.3539 17.0749 34.3792 16.8995 34.4465 16.7482C34.5154 16.5929 34.6552 16.5154 34.7832 16.4602C34.9762 16.3761 35.1095 16.2682 35.1334 16.0159L35.1351 15.998L35.1177 15.9947C35.0635 15.9841 35.0313 15.9623 35.0225 15.9305C35.0002 15.8507 35.1072 15.6948 35.3156 15.5028C35.4492 15.3806 35.5657 15.285 35.6829 15.2022C35.8581 15.0781 36.0981 14.9082 36.0833 14.6328L36.0817 14.606L36.0567 14.6153C36.036 14.6232 36.015 14.6315 35.994 14.6401C35.8647 14.693 35.7423 14.7427 35.632 14.6437C35.5552 14.5752 35.5105 14.5007 35.4912 14.409C35.4584 14.2557 35.4347 14.1452 35.2769 14.0667C35.2736 14.0651 35.2713 14.0621 35.2706 14.0584C35.2696 14.0545 35.2716 14.0521 35.2723 14.0515C35.4534 13.8264 35.6678 13.5678 35.9166 13.3474C35.9655 13.304 36.0199 13.2649 36.0731 13.2269C36.1338 13.1835 36.1965 13.1385 36.2513 13.0868C36.3446 13.0001 36.2924 12.9084 36.2359 12.8382C36.1545 12.7366 36.0439 12.7025 35.9162 12.7399C35.908 12.7422 35.9044 12.7379 35.9034 12.7366C35.9008 12.7333 35.9011 12.729 35.9044 12.7243C35.9106 12.7151 35.9172 12.7068 35.9238 12.6982L35.994 12.6065L35.9015 12.6644C35.7357 12.768 35.5394 12.8743 35.3422 12.8756C35.2385 12.8763 35.1334 12.8634 35.0323 12.8505C34.8226 12.8243 34.6056 12.7972 34.3903 12.8945C34.3221 12.9256 34.2551 12.9614 34.1908 12.9961C34.0109 13.0928 33.8419 13.1848 33.6341 13.1808C33.409 13.1769 33.1736 13.0276 33.0345 12.8005L33.0253 12.7852L33.0092 12.7929C32.8838 12.8534 32.8786 12.9451 32.8726 13.0511C32.8713 13.0746 32.87 13.0991 32.8671 13.1249C32.8592 13.1957 32.8195 13.2308 32.7417 13.2345C32.5014 13.2454 32.3826 13.0746 32.2566 12.8932C32.2037 12.817 32.1489 12.7382 32.0849 12.675C32.081 12.671 32.0787 12.6661 32.079 12.6621C32.079 12.6604 32.0797 12.6581 32.0829 12.6555C32.1886 12.5704 32.3301 12.6071 32.467 12.6422C32.6429 12.6876 32.8247 12.7346 32.916 12.5115C32.9166 12.5098 32.9179 12.5091 32.9193 12.5085C32.9215 12.5075 32.9245 12.5075 32.9268 12.5088C33.0259 12.5525 33.1201 12.6138 33.2114 12.6727C33.3269 12.7475 33.446 12.825 33.579 12.87C33.7017 12.9117 33.8373 12.9196 33.9827 12.8942C34.0244 12.8869 34.0657 12.8786 34.1071 12.87C34.1274 12.8657 34.1481 12.8617 34.1685 12.8577L34.1836 12.8551C34.221 12.8485 34.2531 12.8425 34.2712 12.8164C34.2837 12.7978 34.2863 12.773 34.2794 12.7376C34.2797 12.7359 34.2833 12.7323 34.2869 12.7319C34.4104 12.7204 34.5354 12.727 34.6562 12.7329C34.7202 12.7362 34.7862 12.7396 34.8521 12.7402C35.0816 12.7419 35.2716 12.6959 35.4485 12.5939C35.4872 12.5717 35.5253 12.5469 35.566 12.5207C35.6622 12.4585 35.762 12.3943 35.8654 12.3665C36.0094 12.3274 36.1601 12.3241 36.3029 12.3248L36.3557 12.3251C36.5093 12.3264 36.6679 12.3277 36.8224 12.2943C36.9685 12.2628 37.087 12.196 37.2127 12.1255C37.2419 12.1092 37.2711 12.0927 37.3013 12.0765L37.3348 12.0586C37.5412 11.9487 37.8531 11.7822 37.7884 11.4998C37.7877 11.4971 37.7887 11.4935 37.7897 11.4935C37.9082 11.465 38.0099 11.4273 38.1012 11.3776L38.1084 11.3737L38.1107 11.3657C38.1275 11.3088 38.1235 11.2591 38.0992 11.2177C38.0398 11.1171 37.8685 11.081 37.687 11.0426C37.4887 11.0009 37.2839 10.9575 37.2084 10.8321C37.174 10.7745 37.169 10.7033 37.194 10.6146C37.1946 10.6116 37.1976 10.6046 37.2045 10.6056C37.2856 10.6189 37.3666 10.6434 37.4451 10.6669C37.5373 10.6947 37.6328 10.7235 37.7306 10.7347C37.8577 10.7493 37.9801 10.7288 38.0982 10.7089C38.1813 10.695 38.2673 10.6805 38.3536 10.6788C38.4737 10.6758 38.5961 10.6934 38.7143 10.7099C38.8144 10.7242 38.9181 10.7387 39.0215 10.7414C39.1266 10.744 39.2391 10.7443 39.3662 10.7417C39.3691 10.7417 39.3747 10.742 39.3822 10.7424C39.4613 10.746 39.5142 10.7427 39.5335 10.7152C39.5414 10.7043 39.5424 10.6907 39.5372 10.6771C39.5224 10.6387 39.5047 10.6066 39.4823 10.5788C39.3471 10.4097 39.186 10.3355 38.9437 10.3312C38.8095 10.3289 38.71 10.3186 38.6529 10.2061C38.6168 10.1349 38.5161 10.0935 38.4353 10.0607C38.4186 10.0541 38.4032 10.0478 38.3897 10.0415C38.3132 10.0071 38.2308 9.97202 38.1455 9.9462C38.0336 9.91342 37.9148 9.88495 37.8032 9.89952C37.7004 9.91276 37.6932 9.94554 37.687 10.019C37.686 10.0309 37.6847 10.0442 37.683 10.0591C37.6824 10.0644 37.6781 10.068 37.6748 10.0693C37.6722 10.0703 37.6683 10.071 37.665 10.0684C37.6509 10.0568 37.6364 10.0448 37.6223 10.0329C37.5298 9.95547 37.4339 9.87569 37.3187 9.83364C37.1864 9.78564 37.0814 9.79392 36.9678 9.80848C36.8123 9.82802 36.6574 9.82305 36.5776 9.65653C36.5517 9.60191 36.5398 9.54232 36.5418 9.47413C36.5421 9.46387 36.5428 9.45228 36.5438 9.44003C36.5477 9.38839 36.5526 9.32383 36.5162 9.28312C36.4365 9.19671 36.2717 9.19837 36.1627 9.19936L36.1358 9.19969C36.0859 9.19969 36.0354 9.20201 35.9868 9.20433C35.9149 9.20764 35.8407 9.21095 35.7689 9.20731C35.6822 9.20267 35.3901 9.17354 35.2775 8.99809C35.2266 8.9193 35.18 8.91797 35.0871 8.92261C34.9759 8.92923 34.8439 8.93386 34.7103 8.91731C34.6427 8.90904 34.5741 8.89745 34.5078 8.88652C34.4415 8.8756 34.3733 8.86401 34.3053 8.85541C34.1501 8.83621 34.003 8.84216 33.854 8.85077C33.5711 8.86666 33.2665 8.85077 32.9488 8.80343C32.9465 8.8031 32.9406 8.80211 32.9406 8.79284L32.9409 8.77662L32.9252 8.77331C32.8073 8.74815 32.6649 8.77993 32.5392 8.80774C32.505 8.81535 32.4722 8.82263 32.4423 8.82826C32.2536 8.86302 32.0587 8.87295 31.8703 8.88255L31.8611 8.88288C31.6799 8.89182 31.5141 8.86137 31.3385 8.82925C31.3038 8.82296 31.2686 8.81634 31.2332 8.81038C31.2089 8.80608 31.1843 8.80211 31.1597 8.7978C30.9867 8.76867 30.8078 8.73855 30.6493 8.66141C30.6463 8.66009 30.6444 8.6581 30.6437 8.65512C30.6427 8.65181 30.6434 8.64817 30.6457 8.64519C30.9168 8.2433 31.4091 8.37407 31.8437 8.48927C31.9234 8.51046 31.9986 8.53032 32.0695 8.54621C32.3888 8.61705 32.7243 8.60315 33.0482 8.58958L33.1195 8.5866C33.4454 8.57336 33.7726 8.54025 34.0923 8.48762L34.1819 8.47305L34.0943 8.44888C33.9906 8.42041 33.8993 8.36844 33.8225 8.29495C33.8189 8.29164 33.8173 8.28766 33.8179 8.28435C33.8182 8.28104 33.8209 8.27806 33.8248 8.27608C34.2108 8.08275 34.6303 8.12645 35.0363 8.16882C35.4462 8.21152 35.87 8.25588 36.2618 8.05759L36.3022 8.03706L36.2467 8.01621C36.209 8.00164 36.1699 7.98675 36.1289 7.97913C36.1266 7.9788 36.1237 7.97582 36.1224 7.97218L36.1227 7.96821C36.357 7.73681 36.5901 7.80666 36.8848 7.89505L36.895 7.89803C37.2327 7.99933 37.5393 7.93643 37.8639 7.86989C37.9486 7.85234 38.0362 7.83446 38.1245 7.81957C38.2312 7.80169 38.3454 7.78779 38.4846 7.77686L38.5981 7.76792L38.4882 7.73813C38.4114 7.71728 38.3346 7.69708 38.2561 7.67689C37.2934 7.5011 36.3058 7.41205 35.3208 7.41205C30.3375 7.40874 25.6869 9.65554 22.5596 13.5731L22.5514 13.5837L22.558 13.5953C22.6404 13.7446 22.6732 13.929 22.6922 14.0733L22.6952 14.0945L22.7159 14.0902C22.9102 14.0488 22.9853 13.9399 22.9522 13.7473C22.9492 13.7304 22.9456 13.7125 22.942 13.6946C22.9253 13.6092 22.9059 13.5125 22.9391 13.4351C22.984 13.3278 23.1193 13.2457 23.2466 13.2497C23.2909 13.2507 23.3333 13.255 23.3743 13.2593C23.4957 13.2719 23.6106 13.2838 23.7383 13.2027C23.7416 13.2007 23.7462 13.201 23.7471 13.2017C23.8459 13.3887 23.8515 13.547 23.7639 13.6853C23.69 13.8022 23.5551 13.8926 23.3516 13.9608L23.3447 13.9631L23.3411 13.9694C23.284 14.0674 23.2952 14.1703 23.306 14.2703C23.3119 14.3249 23.3178 14.3812 23.3126 14.4355C23.3014 14.5471 23.2505 14.6421 23.1649 14.7096C23.0946 14.7652 23.0218 14.7785 22.9338 14.7818C22.8334 14.7857 22.5925 14.8129 22.5321 14.9797C22.5147 15.0277 22.5117 15.0814 22.5088 15.133C22.5045 15.2048 22.5009 15.2724 22.4622 15.325C22.4119 15.3939 22.321 15.4273 22.2409 15.4568L22.2298 15.4607C22.216 15.4657 22.2022 15.4707 22.1881 15.4756C22.1523 15.4879 22.1156 15.5008 22.0808 15.517C22.0174 15.5455 22.002 15.6177 21.9925 15.6832C21.9849 15.7372 21.9836 15.7918 21.9826 15.8448C21.9816 15.8875 21.981 15.9318 21.9764 15.9749C21.9652 16.0848 21.9344 16.1652 21.8819 16.2211C21.8398 16.2655 21.8014 16.2963 21.7614 16.3185C21.679 16.3635 21.6994 16.4307 21.7194 16.4959C21.7223 16.5055 21.7253 16.5154 21.7283 16.526C21.7417 16.5744 21.7588 16.6254 21.7768 16.6793C21.8467 16.8879 21.9255 17.1246 21.8225 17.3106C21.7969 17.357 21.7627 17.4017 21.7296 17.4447C21.6708 17.5218 21.6101 17.6013 21.5874 17.6989C21.5576 17.8277 21.5773 17.983 21.6472 18.1736C21.6577 18.2018 21.6679 18.2296 21.6784 18.2574C21.7532 18.459 21.8241 18.6494 21.8454 18.8592L21.8543 18.947L21.8835 18.8639C21.894 18.8341 21.9048 18.8043 21.916 18.7745C21.96 18.655 22.0053 18.5315 22.023 18.4004C22.0233 18.3988 22.0279 18.3964 22.0292 18.3968C22.1805 18.4934 22.321 18.5491 22.4848 18.5772C22.4858 18.5775 22.4874 18.5788 22.4878 18.5798C22.5101 18.6643 22.5504 18.7411 22.5895 18.8152C22.6256 18.8837 22.6627 18.9546 22.6844 19.0297L22.6916 19.0552L22.7136 19.041C22.7277 19.0317 22.7421 19.0231 22.7566 19.0142C22.7841 18.9973 22.8127 18.9801 22.8383 18.9595C22.7937 19.1916 22.7887 19.4349 22.8239 19.6633C22.8409 19.7742 22.8586 19.7842 22.9381 19.813L22.9624 19.8219C22.9952 19.8338 23.0296 19.8554 23.0569 19.8805C23.2371 20.0477 23.266 20.3218 23.2912 20.5635L23.2903 20.5688C23.2827 20.5694 23.2732 20.5694 23.263 20.5691C23.222 20.5688 23.179 20.5688 23.1662 20.5976C23.1557 20.6221 23.1754 20.6479 23.1915 20.6651C23.2217 20.6979 23.2578 20.7356 23.2998 20.7707C23.3483 20.8111 23.3999 20.8488 23.4494 20.8856C23.4839 20.9107 23.5184 20.9359 23.5518 20.9624C23.6392 21.0299 23.7045 21.0925 23.758 21.1593C23.7616 21.1636 23.7652 21.1709 23.7695 21.1785C23.7826 21.2024 23.799 21.2318 23.8259 21.2328C23.842 21.2345 23.8564 21.2239 23.8689 21.2044C23.8893 21.1736 23.9073 21.1521 23.9306 21.1279C24.1535 21.3682 24.2349 21.5804 24.1948 21.8161C24.1804 21.9022 24.1942 21.9168 24.2598 21.9419C24.267 21.9446 24.2749 21.9476 24.2838 21.9512C24.3445 21.9754 24.3924 21.9975 24.4344 22.0204C24.527 22.0707 24.6199 22.1313 24.7259 22.2111L24.8142 22.2773L24.7541 22.1843C24.5726 21.9029 24.4088 21.6129 24.2592 21.3414C24.0931 21.0412 23.9034 20.7614 23.7383 20.5231C23.6631 20.4152 23.5781 20.293 23.5236 20.1632C23.5105 20.1321 23.4954 20.1007 23.4803 20.0689C23.4468 19.9994 23.4124 19.9275 23.3973 19.8544C23.3723 19.7325 23.3999 19.5955 23.4268 19.4631C23.4399 19.3985 23.4521 19.3373 23.459 19.2774C23.4593 19.2744 23.4603 19.273 23.459 19.2727C23.5177 19.2625 23.5801 19.2595 23.6552 19.2634L23.6782 19.2648L23.6759 19.2419C23.6743 19.225 23.6716 19.2085 23.669 19.1919C23.6638 19.1582 23.6588 19.1264 23.6618 19.0933C23.6621 19.0913 23.6631 19.09 23.6657 19.0896C23.8955 19.2151 23.9451 19.4416 23.9976 19.6812C24.0265 19.8136 24.0566 19.9504 24.1197 20.0692C24.1784 20.1804 24.2628 20.2404 24.3632 20.2433C24.3754 20.2433 24.3901 20.2417 24.4062 20.2394C24.4272 20.2364 24.4584 20.2321 24.4692 20.2377C24.5155 20.2622 24.5677 20.3168 24.6031 20.3585C24.6619 20.4271 24.7269 20.5184 24.7085 20.6191C24.7049 20.6379 24.698 20.6558 24.6914 20.673C24.6796 20.7032 24.6685 20.732 24.6819 20.7581C24.6921 20.7776 24.7134 20.7909 24.7495 20.7998C24.8112 20.8154 24.8723 20.8237 24.9442 20.8313C24.9451 20.8319 24.9465 20.8343 24.9465 20.8359C24.9468 20.8468 24.9415 20.868 24.9366 20.8889C24.9248 20.9365 24.9146 20.9779 24.9379 20.9971C24.9504 21.0074 24.9678 21.0071 24.9898 20.9965L24.994 20.9945C25.0242 20.9799 25.0482 20.9683 25.0771 20.9766C25.0787 20.9769 25.0814 20.9783 25.0814 20.9809C25.0853 21.166 25.3003 21.3249 25.4572 21.4411C25.4851 21.4616 25.5107 21.4808 25.5327 21.498C25.5635 21.5225 25.596 21.547 25.6292 21.5722C25.7296 21.6483 25.8336 21.7271 25.9163 21.8191L25.9232 21.8241C25.9679 21.8433 26.0184 21.8668 26.0539 21.9022C26.0673 21.9158 26.0788 21.933 26.09 21.9495C26.1192 21.9936 26.1553 22.0485 26.2383 22.0114C26.2406 22.0128 26.2429 22.0158 26.2429 22.0187C26.2656 22.2236 26.326 22.4157 26.433 22.6222L26.454 22.6629C26.5288 22.8069 26.6059 22.9556 26.6506 23.1135C26.7169 23.3502 26.6831 23.5339 26.602 23.7716C26.5984 23.7825 26.5941 23.7941 26.5902 23.8057C26.5564 23.9014 26.5144 24.0206 26.5574 24.1169C26.6227 24.2629 26.8216 24.3102 26.9342 24.3258C27.1386 24.3536 27.3379 24.292 27.5309 24.2324C27.6306 24.2016 27.734 24.1699 27.8351 24.1517C28.1148 24.1017 28.3567 24.147 28.5969 24.294C28.6232 24.3102 28.6517 24.3294 28.6816 24.3499C28.7814 24.4181 28.8946 24.4956 29.0065 24.5002C29.1641 24.5075 29.2914 24.3907 29.4066 24.2632L29.4211 24.247C29.4903 24.1699 29.5619 24.0901 29.6548 24.0533C29.7296 24.0235 29.8189 24.004 29.9351 23.9918C30.2177 23.9613 30.8991 23.9365 31.1157 24.3652C31.1163 24.3668 31.1157 24.3718 31.1144 24.3735C31.0753 24.4195 31.0543 24.4704 31.034 24.5194C31.0274 24.535 31.0208 24.5509 31.0139 24.5668L31.0015 24.5943L31.0313 24.5949C31.2322 24.5992 31.4288 24.6429 31.6316 24.7287C31.6822 24.7502 31.7324 24.7727 31.783 24.7955C31.9405 24.8667 32.1033 24.9402 32.2776 24.9733C32.6179 25.0375 32.979 25.064 33.322 25.0498C33.3975 25.0468 33.4828 25.0435 33.5655 25.0256C33.5819 25.022 33.6029 25.0124 33.6253 25.0018C33.6505 24.9902 33.685 24.974 33.6981 24.976C33.7592 24.9859 33.833 25.0339 33.8924 25.0723C33.9052 25.0806 33.9174 25.0885 33.9289 25.0958C34.0221 25.1527 34.1107 25.214 34.1921 25.2772C34.5768 25.5755 34.883 25.8916 35.1022 26.217L35.1131 26.2333L35.1292 26.2227C35.3222 26.0959 35.5092 26.1161 35.7183 26.2856C35.7403 26.3031 35.762 26.322 35.784 26.3408C35.8578 26.4044 35.9343 26.4703 36.0255 26.5054C36.1624 26.5567 36.2996 26.511 36.4456 26.3653C36.4483 26.3627 36.4512 26.3607 36.4542 26.361C36.4565 26.361 36.4588 26.3624 36.4607 26.3647C36.4696 26.3759 36.4798 26.3892 36.4909 26.4037C36.5914 26.5355 36.7591 26.756 36.9245 26.7189C37.0341 26.6947 37.0913 26.565 37.1329 26.4703L37.1451 26.4431C37.1556 26.42 37.1658 26.3965 37.1766 26.3723C37.2432 26.2203 37.3187 26.0479 37.4461 25.9443L37.4966 25.9032C37.4979 25.9032 37.4996 25.9032 37.5012 25.9032L37.5058 25.9029L37.5097 25.9006C37.5337 25.887 37.5596 25.8757 37.5885 25.8665C37.5911 25.8658 37.5947 25.8651 37.5977 25.8694C37.6 25.8728 37.6003 25.8771 37.5993 25.8787L37.5797 25.9049L37.6118 25.9102C37.9138 25.9595 38.2023 26.224 38.3122 26.3356C38.4859 26.511 38.7514 26.8447 38.5791 27.1072L38.5669 27.1254L38.586 27.1357C38.7396 27.2178 38.8847 27.382 38.9844 27.5859C39.0284 27.6763 39.1633 27.9815 39.0461 28.1123C39.0202 28.1417 38.9697 28.1616 38.925 28.1791C38.9103 28.1851 38.8961 28.1904 38.8837 28.196C38.8604 28.2066 38.8371 28.2169 38.8138 28.2271C38.7373 28.2609 38.6582 28.2957 38.5824 28.3351C38.3657 28.4476 38.2975 28.6717 38.2315 28.8886C38.2194 28.9286 38.2072 28.9683 38.1941 29.0071C38.1645 29.0965 38.1284 29.1855 38.0933 29.2716C38.0247 29.4404 37.9541 29.6149 37.9276 29.8026C37.898 30.0078 37.8924 30.2412 37.9102 30.5368C37.9138 30.5991 37.919 30.6616 37.9243 30.7242C37.9377 30.8881 37.9519 31.0576 37.9377 31.2231C37.9276 31.3456 37.8997 31.5204 37.7749 31.6184L37.749 31.6389L37.7789 31.6525C38.1668 31.8259 38.4511 32.011 38.6733 32.2354C38.7872 32.3506 38.8945 32.4758 38.9985 32.5969C39.1098 32.7267 39.2253 32.8611 39.3491 32.9839C39.5719 33.2044 39.8243 33.4543 40.0134 33.7404C40.144 33.939 40.2829 34.1962 40.1943 34.4266L40.186 34.4485L40.2084 34.4534C40.4105 34.4978 40.6035 34.5799 40.7903 34.6593C40.8546 34.6865 40.9186 34.714 40.9836 34.7398L41.0079 34.7497C41.1428 34.8043 41.2961 34.8662 41.4467 34.8758C41.5606 34.8831 41.6742 34.8739 41.7845 34.8649L41.836 34.8609C42.031 34.8464 42.2328 34.851 42.3897 34.9824C42.5049 35.0788 42.5706 35.1887 42.6165 35.3621C42.7084 35.7101 42.7524 36.099 42.7596 36.6228C42.7622 36.8025 42.7629 36.978 42.7412 37.1501C42.7143 37.3653 42.6211 37.557 42.5243 37.7314C42.35 38.0453 42.1852 38.3419 42.1468 38.7143C42.1409 38.7716 42.136 38.8322 42.1308 38.9116L42.1285 38.945L42.1587 38.9311C45.5442 37.358 48.3233 34.6372 49.9841 31.2694L49.988 31.2618L49.9851 31.2539C49.9608 31.1877 49.9289 31.1231 49.8902 31.0622C49.8895 31.0609 49.8889 31.0589 49.8886 31.0596C50.0491 30.8225 50.2099 30.5673 50.2611 30.2786C50.2929 30.0982 50.3008 29.9125 50.3087 29.7327C50.3133 29.6268 50.3179 29.5172 50.3277 29.4103C50.351 29.1504 50.4853 28.9604 50.6451 28.7561C50.7488 28.6234 50.8637 28.4668 50.9146 28.2914C50.9579 28.1434 50.9664 27.9775 50.9408 27.77L50.9422 27.76Z" fill="#96D5D2"/>
<path opacity="0.55" d="M21.4665 24.4827C21.4665 15.8001 28.4452 8.76106 37.054 8.76106C38.6482 8.76106 40.1866 9.00272 41.635 9.45129C39.776 8.66175 37.7335 8.2251 35.5899 8.2251C26.9813 8.2251 20.0023 15.2638 20.0023 23.9467C20.0023 31.0215 24.6358 37.0045 31.0089 38.9781C25.4026 36.5969 21.4665 31.0036 21.4665 24.4827Z" fill="#CFEDFC"/>
<path d="M32.3266 25.3889C32.3433 27.0905 30.9891 28.4832 29.3024 28.5001C27.6153 28.517 26.2345 27.1511 26.2177 25.4498C26.201 23.7483 27.5549 22.3556 29.242 22.3387C30.929 22.3218 32.3102 23.6877 32.3266 25.3889Z" fill="white"/>
<path d="M31.5516 25.3966C31.5641 26.6674 30.5528 27.7076 29.2928 27.7202C28.0331 27.7327 27.0015 26.7128 26.989 25.4419C26.9765 24.1714 27.9878 23.1309 29.2478 23.1183C30.5079 23.1061 31.5391 24.126 31.5516 25.3966Z" fill="#62493E"/>
<path d="M31.1613 25.3959C31.1718 26.4489 30.3335 27.3113 29.2891 27.3219C28.2447 27.3322 27.39 26.487 27.3795 25.4336C27.3693 24.3802 28.2076 23.5182 29.2517 23.5076C30.2961 23.4973 31.1511 24.3425 31.1613 25.3959Z" fill="#312017"/>
<path d="M28.9042 24.4878C28.9062 24.6818 28.7519 24.8404 28.5596 24.8424C28.3672 24.8444 28.21 24.6888 28.208 24.4948C28.2061 24.3008 28.3607 24.1422 28.5527 24.1402C28.745 24.1383 28.9022 24.2939 28.9042 24.4878Z" fill="white"/>
<path d="M28.151 25.3496C28.1523 25.4714 28.0551 25.5714 27.934 25.5727C27.8129 25.574 27.7141 25.4761 27.7128 25.3539C27.7115 25.2317 27.8086 25.1321 27.9297 25.1308C28.0505 25.1295 28.1497 25.2274 28.151 25.3496Z" fill="white"/>
<path d="M44.4229 25.2688C44.4396 26.9704 43.0854 28.3631 41.3987 28.38C39.7116 28.3969 38.3308 27.031 38.314 25.3297C38.2973 23.6282 39.6512 22.2355 41.3383 22.2186C43.0253 22.2017 44.4065 23.5672 44.4229 25.2688Z" fill="white"/>
<path d="M43.6492 25.2763C43.6617 26.5469 42.6505 27.5873 41.3904 27.5996C40.1307 27.6122 39.0995 26.5922 39.087 25.3217C39.0745 24.0511 40.0858 23.0107 41.3455 22.9984C42.6055 22.9858 43.6368 24.0058 43.6492 25.2763Z" fill="#62493E"/>
<path d="M43.2578 25.2758C43.268 26.3292 42.4301 27.1912 41.3857 27.2018C40.3413 27.212 39.4866 26.3669 39.4761 25.3135C39.4659 24.2601 40.3039 23.3978 41.3483 23.3875C42.3927 23.3769 43.2473 24.2224 43.2578 25.2758Z" fill="#312017"/>
<path d="M41.002 24.3677C41.004 24.5617 40.8497 24.7203 40.6574 24.7222C40.465 24.7242 40.3078 24.5686 40.3059 24.3746C40.3039 24.1807 40.4581 24.0221 40.6505 24.0201C40.8425 24.0181 41 24.1737 41.002 24.3677Z" fill="white"/>
<path d="M40.2466 25.229C40.2479 25.3508 40.1507 25.4508 40.0296 25.4521C39.9085 25.4535 39.8097 25.3555 39.8084 25.2333C39.8071 25.1112 39.9042 25.0112 40.0253 25.0102C40.1461 25.0092 40.2453 25.1072 40.2466 25.229Z" fill="white"/>
<path d="M30.7058 21.4898C30.5902 21.4898 30.474 21.4557 30.3716 21.3842C28.9609 20.3987 27.7593 21.3491 27.7472 21.3587C27.4938 21.564 27.1239 21.5236 26.9211 21.2687C26.7176 21.0135 26.7576 20.6404 27.0103 20.4355C27.6609 19.9071 29.3407 19.2222 31.0409 20.41C31.3077 20.596 31.374 20.9655 31.1892 21.2346C31.0753 21.4008 30.8919 21.4898 30.7058 21.4898Z" fill="#231F20"/>
<path d="M42.6639 21.4897C42.5483 21.4897 42.4315 21.4556 42.3294 21.3841C40.9377 20.4119 39.7512 21.3226 39.7013 21.3616C39.447 21.5616 39.078 21.5189 38.8775 21.2636C38.6773 21.0084 38.7167 20.6393 38.9681 20.435C39.619 19.907 41.2988 19.2221 42.999 20.4099C43.2655 20.5959 43.3321 20.9654 43.1473 21.2345C43.0334 21.4007 42.85 21.4897 42.6639 21.4897Z" fill="#231F20"/>
<path d="M31.8399 31.9577C31.8399 31.9577 35.5974 32.5185 38.1739 31.5495C38.1739 31.5495 39.0191 36.7386 35.7566 37.068C33.353 37.3107 31.9456 35.9785 31.8399 31.9577Z" fill="#EB8693"/>
<path d="M36.719 36.3377C36.0288 36.0715 35.2545 36.0318 34.5308 36.1639C34.1392 36.2354 33.7493 36.3605 33.3928 36.5462C34.0128 37.012 34.8071 37.164 35.758 37.068C36.3169 37.0117 36.7551 36.8124 37.0978 36.5214C36.9757 36.4519 36.8503 36.3883 36.719 36.3377Z" fill="#EF5151"/>
<path d="M33.0765 33.0015C33.3913 33.258 33.8111 33.3703 34.2046 33.4256C34.6723 33.4914 35.1515 33.4712 35.6173 33.3987C36.1378 33.3176 36.727 33.1634 36.9761 32.6466C37.0956 32.3987 37.1386 32.1249 37.1533 31.8468C35.5286 32.205 33.7172 32.1358 32.6843 32.0491C32.6636 32.4116 32.7732 32.7545 33.0765 33.0015Z" fill="white"/>
<path d="M52.2978 19.9669C52.2539 19.7206 51.6099 19.7653 51.6099 19.7653C51.6099 19.7653 50.6705 20.003 49.3462 19.7206C48.5834 19.5577 47.8153 19.4114 47.048 19.2717C44.4478 18.7986 41.9536 18.6 39.6518 20.1572C39.4871 20.2688 38.1591 21.1534 37.4935 21.1534C37.0504 21.1534 36.5987 21.0312 35.9817 20.9448C35.7802 20.9167 35.5593 20.8928 35.317 20.8776C35.0745 20.8928 34.8539 20.9167 34.6521 20.9448C34.0357 21.0312 33.5837 21.1534 33.1403 21.1534C32.475 21.1534 31.1463 20.2688 30.9822 20.1572C28.6804 18.5997 26.1863 18.7986 23.5858 19.2717C22.8184 19.4111 22.0504 19.5577 21.2876 19.7206C19.9629 20.003 19.0235 19.7653 19.0235 19.7653C19.0235 19.7653 18.3799 19.7206 18.3356 19.9669C18.2913 20.2129 18.3356 21.5562 18.3356 21.5562C18.3356 21.5562 18.2693 21.9816 18.7573 22.071C19.2454 22.1607 19.7115 22.1607 19.8451 23.1009C19.9783 24.0411 20.023 25.0263 20.511 26.7722C20.511 26.7722 20.4976 26.7096 20.4851 26.5911C21.221 29.2712 23.8014 31.2502 26.8736 31.2502C29.2171 31.2502 31.6804 30.0568 32.7231 27.8587C33.1455 26.9682 33.3648 26.0336 33.4846 25.0584C33.5653 24.4052 33.5525 23.6809 33.9024 23.1012C34.2172 22.5792 34.8359 22.4246 35.3167 22.3898C35.7976 22.4246 36.4162 22.5792 36.731 23.1012C37.0806 23.6809 37.0681 24.4052 37.1482 25.0584C37.2683 26.0336 37.4879 26.9682 37.9097 27.8587C38.9524 30.0571 41.416 31.2502 43.7598 31.2502C46.8313 31.2502 49.4128 29.2712 50.1487 26.5914C50.1365 26.7096 50.1224 26.7725 50.1224 26.7725C50.6108 25.0263 50.6554 24.0414 50.7884 23.1012C50.9223 22.1611 51.388 22.1611 51.8764 22.0713C52.3645 21.982 52.2978 21.5566 52.2978 21.5566C52.2978 21.5566 52.3422 20.2129 52.2978 19.9669ZM26.7846 30.7126C23.5484 30.7126 20.9413 28.1172 20.836 25.0117C20.6879 20.6538 23.55 19.8226 26.7846 19.7282C30.8762 19.6087 32.6443 21.9783 32.6443 25.0862C32.6443 28.1937 30.0209 30.7126 26.7846 30.7126ZM49.7971 25.0117C49.6914 28.1172 47.0844 30.7126 43.8481 30.7126C40.6119 30.7126 37.9884 28.1937 37.9884 25.0858C37.9884 21.9783 39.7569 19.6087 43.8481 19.7279C47.0831 19.8226 49.9452 20.6535 49.7971 25.0117Z" fill="#1D1D1B"/>
<path d="M18.6013 20.5386C18.6013 20.5386 18.5976 20.4979 18.6167 20.4234C18.6357 20.3536 18.684 20.2344 18.8199 20.1695C18.9505 20.0964 19.1392 20.1152 19.3269 20.1324C19.4241 20.1401 19.5275 20.1483 19.6361 20.1569C19.7451 20.1656 19.8583 20.1569 19.9772 20.1579C20.0956 20.154 20.2184 20.1609 20.3454 20.1477C20.4728 20.1308 20.6041 20.1139 20.739 20.096C20.8062 20.0874 20.8745 20.0785 20.9441 20.0692L21.0485 20.0556L21.1519 20.0302C21.291 19.9971 21.4341 19.9633 21.5782 19.9289C21.7233 19.8948 21.8703 19.8597 22.0197 19.8246C22.168 19.7829 22.319 19.7415 22.4723 19.7021C22.7785 19.622 23.0903 19.5482 23.4034 19.479C24.0323 19.3495 24.6658 19.2439 25.2635 19.1734C25.5625 19.136 25.8526 19.1155 26.1283 19.1019C26.404 19.0873 26.6653 19.087 26.9062 19.0897C27.1475 19.0996 27.3683 19.1092 27.5627 19.1387C27.7576 19.1572 27.9247 19.1959 28.0619 19.2227C28.2007 19.2472 28.3031 19.2926 28.3757 19.3108C28.4472 19.333 28.4853 19.3452 28.4853 19.3452C28.4853 19.3452 28.4462 19.3366 28.3734 19.3204C28.2989 19.3075 28.1941 19.2744 28.0553 19.2572C27.9171 19.2393 27.7507 19.2118 27.5561 19.2052C27.3634 19.1886 27.1442 19.1936 26.9056 19.1906C26.6676 19.1972 26.4093 19.2075 26.1369 19.2323C25.8648 19.2565 25.5782 19.2896 25.2818 19.328C24.6904 19.4051 24.0625 19.5187 23.4402 19.6541C23.1281 19.719 22.8166 19.7885 22.5127 19.8636C22.3607 19.9004 22.21 19.9394 22.0604 19.9795C21.9087 20.0133 21.7591 20.047 21.6123 20.0798C21.4643 20.1119 21.3192 20.143 21.1775 20.1738L21.0708 20.1957L20.9638 20.2056C20.8929 20.2122 20.8233 20.2188 20.7541 20.2251C20.6159 20.2377 20.4813 20.2503 20.3517 20.2622C20.2214 20.2708 20.094 20.2589 19.9729 20.2582C19.8521 20.252 19.7349 20.2579 19.6263 20.2424C19.5183 20.2268 19.4152 20.2119 19.3191 20.1983C19.2216 20.1857 19.1307 20.1679 19.0509 20.1656C18.9692 20.1606 18.8944 20.1755 18.8333 20.201C18.7063 20.2526 18.6492 20.3586 18.6246 20.4264C18.6013 20.4973 18.6013 20.5386 18.6013 20.5386Z" fill="white"/>
<path d="M52.0418 20.5387C52.0418 20.5387 52.0418 20.4977 52.0172 20.4265C51.9929 20.3586 51.9361 20.2527 51.8091 20.201C51.7474 20.1755 51.6726 20.1607 51.5909 20.1656C51.5111 20.1676 51.4199 20.1858 51.3227 20.1984C51.2265 20.212 51.1241 20.2269 51.0155 20.2424C50.9075 20.258 50.79 20.252 50.6689 20.2583C50.5478 20.259 50.4204 20.2706 50.2901 20.2623C50.1605 20.2504 50.0262 20.2378 49.8884 20.2252C49.8194 20.2189 49.7492 20.2123 49.6783 20.2057L49.571 20.1957L49.4653 20.1739C49.3229 20.1431 49.1778 20.112 49.0298 20.0799C48.8827 20.0471 48.733 20.0137 48.5817 19.9796C48.4324 19.9395 48.2814 19.9001 48.1294 19.8637C47.8255 19.7882 47.514 19.7187 47.2022 19.6542C46.5789 19.5184 45.9517 19.4049 45.3603 19.3281C45.0642 19.29 44.7773 19.2566 44.5052 19.2324C44.2325 19.2076 43.9748 19.1973 43.7365 19.1907C43.4986 19.1937 43.279 19.1887 43.086 19.2053C42.8917 19.2115 42.725 19.2394 42.5865 19.2572C42.448 19.2744 42.3429 19.3072 42.2691 19.3205C42.1956 19.3367 42.1565 19.3453 42.1565 19.3453C42.1565 19.3453 42.1946 19.3334 42.2661 19.3109C42.3387 19.2927 42.4417 19.2476 42.5796 19.2228C42.7174 19.196 42.8845 19.1573 43.0794 19.1387C43.2741 19.1093 43.495 19.1 43.7359 19.0897C43.9768 19.0871 44.2381 19.0877 44.5138 19.102C44.7895 19.1155 45.08 19.1361 45.3786 19.1735C45.9763 19.244 46.6101 19.3496 47.2383 19.479C47.5521 19.5482 47.8639 19.622 48.1698 19.7022C48.3234 19.7412 48.4741 19.7829 48.6224 19.8246C48.7718 19.8597 48.9185 19.8948 49.0639 19.9289C49.2086 19.9633 49.3511 19.9971 49.4902 20.0302L49.5936 20.0557L49.698 20.0693C49.7673 20.0786 49.8359 20.0875 49.9031 20.0961C50.0384 20.114 50.17 20.1312 50.297 20.1477C50.424 20.161 50.5474 20.154 50.6656 20.158C50.7841 20.157 50.897 20.1659 51.0056 20.157C51.1149 20.1484 51.2183 20.1401 51.3155 20.1325C51.5032 20.1153 51.6923 20.0964 51.8229 20.1696C51.9585 20.2345 52.0067 20.3537 52.0261 20.4235C52.0454 20.498 52.0418 20.5387 52.0418 20.5387Z" fill="white"/>
<path d="M32.9843 21.7927C32.9843 21.7927 33.1087 21.6931 33.3194 21.5862C33.4238 21.5315 33.5499 21.4753 33.688 21.4243C33.8259 21.372 33.9785 21.3286 34.1318 21.2929C34.287 21.2614 34.4429 21.2346 34.5913 21.2273C34.6658 21.2223 34.737 21.219 34.8053 21.2227C34.8729 21.225 34.9372 21.2247 34.9963 21.2343C35.1142 21.2465 35.2113 21.2657 35.2779 21.2856C35.3436 21.3041 35.3817 21.315 35.3817 21.315C35.3817 21.315 35.3423 21.317 35.2733 21.321C35.2057 21.3207 35.1096 21.3279 34.9953 21.3369C34.9382 21.3385 34.8765 21.3508 34.8115 21.3564C34.7462 21.3614 34.6786 21.3746 34.608 21.3842C34.5371 21.3918 34.4656 21.4104 34.3921 21.4216C34.3182 21.4326 34.2444 21.4524 34.1699 21.4673C34.0212 21.4984 33.8741 21.5372 33.735 21.5739C33.5965 21.6133 33.4678 21.6497 33.3565 21.6815C33.1337 21.7477 32.9843 21.7927 32.9843 21.7927Z" fill="white"/>
<path d="M68.362 57.5652C69.1376 58.0167 69.1415 58.751 68.3712 59.2029L55.4728 66.7629C55.3415 66.6517 55.2066 66.5411 55.074 66.4319L54.923 66.3094C54.7871 66.1995 54.6499 66.0903 54.5118 65.9817L54.3769 65.8751C54.196 65.7337 54.0142 65.593 53.8297 65.455C53.6259 65.3014 53.4496 65.1709 53.2711 65.0415L53.1467 64.9505C52.9832 64.8326 52.8185 64.7154 52.655 64.5999L52.5802 64.5469C52.3823 64.4076 52.1817 64.2695 51.9792 64.1328C51.7846 64.0007 51.5903 63.8716 51.391 63.7422L51.3103 63.6885C51.1134 63.5604 50.9168 63.434 50.7211 63.3091L50.6266 63.2502L50.5052 63.2863C50.2659 63.3581 50.0089 63.5435 50.1481 64.0186C50.1678 64.0848 50.1924 64.1513 50.2157 64.2182C50.2659 64.3529 50.3122 64.4801 50.3187 64.6095C50.324 64.7396 50.279 64.8803 50.1858 65.0236C50.0276 65.2454 49.79 65.4345 49.5018 65.5725C49.0272 65.7983 48.3314 65.8873 47.6418 65.8105C46.5239 65.6864 45.5881 65.2799 44.9139 64.8876C44.5936 64.7012 44.3323 64.5178 44.139 64.3695C43.1543 63.6157 42.4795 62.5295 43.5384 61.7463C43.7153 61.6142 43.9178 61.4997 44.1374 61.406C44.5027 61.306 44.9189 61.2785 45.3413 61.3242C45.533 61.3451 45.7145 61.3838 45.9048 61.4242C45.9669 61.4378 46.0276 61.4503 46.0909 61.4629C46.2275 61.4904 46.5928 61.5629 46.8754 61.4334C46.9555 61.3974 47.0205 61.351 47.0697 61.2981L47.1357 61.2256L46.9965 61.1511C46.664 60.9736 46.3108 60.7906 45.9199 60.5909L45.6958 60.4764C45.2943 60.2735 44.9402 60.0977 44.6146 59.9391C44.333 59.8031 44.0694 59.6766 43.8062 59.5525C43.2853 59.3065 42.7677 59.0695 42.2481 58.8361L42.1539 58.793C41.917 58.6871 41.6803 58.5825 41.4456 58.4795L41.3271 58.4279C41.1535 58.3521 40.9799 58.2766 40.8063 58.2021C40.9733 58.1243 41.1427 58.0452 41.3094 57.9661L41.5018 57.8751C41.6859 57.7873 41.869 57.6989 42.0519 57.6092L42.2019 57.5361C42.4306 57.4235 42.6604 57.309 42.8882 57.1944L43.0093 57.1329C43.2036 57.0335 43.3969 56.9339 43.5915 56.8333L43.7517 56.7502C44.2033 56.5135 44.6665 56.2665 45.1273 56.0152L45.2438 55.951C45.4473 55.8385 45.6508 55.7259 45.8533 55.6127L45.9311 55.5697C46.1037 55.4723 46.2764 55.3753 46.4477 55.2777C46.4503 55.3234 46.4287 55.3803 46.3788 55.4538C46.3561 55.4886 46.3322 55.5226 46.3082 55.5571C46.2308 55.671 46.15 55.7868 46.1005 55.9156C45.9885 56.2069 46.0315 56.4992 46.2245 56.7598C46.3627 56.8846 46.5071 56.9862 46.6702 57.0812C46.7359 57.1193 46.8045 57.1564 46.876 57.1924C48.3343 57.9214 50.3887 57.5536 51.8259 56.9653C52.676 56.6174 54.1606 55.8805 54.561 54.8566C54.7395 54.3971 54.5879 53.9227 54.156 53.5867C54.0851 53.5314 54.0066 53.4791 53.921 53.4291C53.6928 53.2964 53.4155 53.1838 53.1014 53.0981C52.8096 53.0256 52.526 52.9875 52.2556 52.9849C51.9999 52.9829 51.7534 53.0077 51.5161 53.0312C51.4061 53.0418 51.2972 53.0534 51.1872 53.0613C50.8931 53.0829 50.5436 53.0835 50.3808 52.9888C50.3608 52.9772 50.3437 52.964 50.3296 52.9494C51.1206 52.4522 51.9191 51.9371 52.7056 51.4157L53.0289 51.2005C53.3259 51.0022 53.6013 50.8165 53.8629 50.6378L55.0556 49.8164L68.362 57.5652Z" fill="#5C5CA8"/>
<path d="M68.6179 57.4159L55.0322 49.5046L53.5903 50.5017C53.3264 50.6804 53.0488 50.8675 52.7665 51.0572L52.4363 51.2763C51.6263 51.813 50.8044 52.343 49.9917 52.8531L49.9267 52.8938L49.9143 57.2855C48.9368 57.4553 47.9141 57.4344 47.1113 57.0329C47.045 56.9998 46.9813 56.9657 46.9202 56.9302C46.8795 56.9064 46.8428 56.8812 46.8047 56.8564L46.809 55.2879C46.809 55.2946 46.807 55.3005 46.8063 55.3071C46.8122 55.2307 46.7886 55.1472 46.6941 55.0711C46.6744 55.0555 46.655 55.0416 46.6321 55.0284L46.5054 54.9506L46.3751 55.0257C46.1463 55.1572 45.9142 55.2876 45.6822 55.4184L45.6044 55.4611C45.4032 55.5736 45.2007 55.6855 44.9972 55.7981L44.8807 55.8623C44.4222 56.1122 43.9626 56.3589 43.5107 56.5939L43.3518 56.6763C43.1598 56.777 42.9665 56.8753 42.7732 56.9739L42.653 57.0348C42.4266 57.1501 42.1991 57.2633 41.9703 57.3758L41.8217 57.4483C41.6398 57.5374 41.458 57.6251 41.2748 57.7122L41.0838 57.8025C40.8551 57.9111 40.6273 58.0177 40.3985 58.122L40.2108 58.2077L40.1901 65.6165L40.3821 65.699C40.6191 65.7996 40.8547 65.9019 41.0927 66.0058L41.2099 66.0568C41.4445 66.1601 41.6802 66.2637 41.9145 66.3696L42.0101 66.412C42.2181 66.5054 42.4249 66.5997 42.6311 66.6941L42.6215 70.0767C42.6199 70.7196 43.1562 71.387 43.8333 71.906C44.0349 72.061 44.3053 72.2503 44.6391 72.4446C45.3527 72.8601 46.3504 73.2928 47.5553 73.4269C48.3496 73.5152 49.1541 73.4093 49.7111 73.1448C50.0439 72.9859 50.317 72.7684 50.5011 72.5122C50.6052 72.351 50.6593 72.194 50.6596 72.0454L50.6626 71.0063C50.7827 71.0831 50.9025 71.1602 51.0217 71.2377L51.1047 71.2926C51.2993 71.4191 51.4937 71.5485 51.6883 71.6806C51.8885 71.816 52.0867 71.9527 52.2837 72.0901L52.3585 72.1431C52.522 72.2583 52.6844 72.3741 52.8466 72.4913L52.971 72.581C53.1472 72.7105 53.3235 72.8396 53.525 72.9919C53.7082 73.1292 53.889 73.2693 54.0685 73.41L54.2021 73.5159C54.3403 73.6232 54.4752 73.7324 54.6098 73.8417L54.7608 73.9628C54.9347 74.1055 55.1077 74.2488 55.2803 74.3948L55.4024 74.4994L68.6061 66.7603C69.0587 66.4948 69.2855 66.1469 69.2865 65.7986L69.3071 58.3898C69.3071 58.4117 69.3035 58.4338 69.3016 58.4557C69.3341 58.0813 69.1073 57.7009 68.6179 57.4159ZM55.4737 66.7629C55.3424 66.6517 55.2075 66.5411 55.0749 66.4319L54.9239 66.3094C54.9183 66.3048 54.9124 66.3005 54.9068 66.2958C54.7893 66.2011 54.6712 66.1068 54.5523 66.0128C54.5392 66.0025 54.5261 65.9919 54.513 65.9817L54.4073 65.8982L54.3781 65.8751C54.1972 65.7337 54.0154 65.593 53.8033 65.4335C53.783 65.4182 53.7623 65.4033 53.742 65.3881C53.5762 65.2636 53.4256 65.1524 53.2749 65.0431C53.2743 65.0425 53.2733 65.0422 53.2726 65.0415L53.1482 64.9505C53.1384 64.9435 53.1285 64.9366 53.1187 64.9296C52.9775 64.828 52.8354 64.7267 52.6943 64.6267C52.6818 64.6178 52.6693 64.6091 52.6569 64.6002L52.6565 64.5999L52.604 64.5628L52.5817 64.5469C52.4327 64.442 52.2811 64.3387 52.1294 64.2354C52.9903 63.8491 54.188 63.1691 54.5415 62.2654C54.5904 62.1392 54.6147 62.0121 54.615 61.8873L54.6272 57.5069L55.0361 57.2252L63.4182 62.1061L55.4737 66.7629ZM50.1069 64.8746L50.1063 65.1213C49.9523 65.3007 49.7475 65.456 49.503 65.5728C49.0284 65.7986 48.3326 65.8876 47.643 65.8108C47.4647 65.791 47.2928 65.7618 47.1241 65.7291L47.127 64.7214C48.0224 65.0729 49.097 65.0647 50.1069 64.8746ZM68.9103 58.1647C68.9038 58.1448 68.8942 58.1256 68.886 58.1061C68.8942 58.1256 68.9038 58.1452 68.9103 58.1647ZM68.8647 58.0558C68.8549 58.0366 68.8421 58.0177 68.8306 57.9988C68.8421 58.0181 68.8549 58.0366 68.8647 58.0558ZM68.7187 57.8462C68.7006 57.826 68.6789 57.8065 68.6586 57.787C68.6789 57.8068 68.7003 57.826 68.7187 57.8462ZM68.6182 57.7473C68.5946 57.7264 68.5673 57.7062 68.5411 57.686C68.5677 57.7065 68.5946 57.7264 68.6182 57.7473ZM68.4997 57.6532C68.4571 57.6228 68.4118 57.5933 68.3629 57.5652C68.4114 57.5933 68.4571 57.6228 68.4997 57.6532ZM46.7791 55.418C46.7758 55.4256 46.7732 55.4326 46.7696 55.4399C46.7729 55.4329 46.7761 55.4253 46.7791 55.418ZM46.7499 55.4773C46.7469 55.4823 46.7446 55.4872 46.7417 55.4918C46.7443 55.4875 46.7473 55.4819 46.7499 55.4773ZM46.4473 55.9851V55.9828C46.4499 55.9758 46.4512 55.9689 46.4538 55.9619C46.4509 55.9695 46.4499 55.9772 46.4473 55.9851ZM68.973 59.0903C68.9967 59.0675 69.0213 59.0446 69.0423 59.0211C69.0213 59.045 68.9967 59.0675 68.973 59.0903ZM69.0849 58.9675C69.103 58.945 69.1224 58.9231 69.1381 58.9003C69.1224 58.9231 69.103 58.9453 69.0849 58.9675ZM69.1719 58.8433C69.1857 58.8205 69.2008 58.798 69.2123 58.7752C69.2008 58.7983 69.1857 58.8208 69.1719 58.8433ZM69.2369 58.7162C69.2468 58.6931 69.2576 58.6705 69.2655 58.6474C69.2579 58.6705 69.2468 58.6934 69.2369 58.7162Z" fill="#33317D"/>
<path d="M68.362 57.5652C69.1376 58.0167 69.1415 58.751 68.3712 59.2029L55.4728 66.7629C55.3415 66.6517 55.2066 66.5411 55.074 66.4319L54.923 66.3094C54.7871 66.1995 54.6499 66.0903 54.5118 65.9817L54.3769 65.8751C54.196 65.7337 54.0142 65.593 53.8297 65.455C53.6259 65.3014 53.4496 65.1709 53.2711 65.0415L53.1467 64.9505C52.9832 64.8326 52.8185 64.7154 52.655 64.5999L52.5802 64.5469C52.3823 64.4076 52.1817 64.2695 51.9792 64.1328C51.7846 64.0007 51.5903 63.8716 51.391 63.7422L51.3103 63.6885C51.1134 63.5604 50.9168 63.434 50.7211 63.3091L50.6266 63.2502L50.5052 63.2863C50.2659 63.3581 50.0089 63.5435 50.1481 64.0186C50.1678 64.0848 50.1924 64.1513 50.2157 64.2182C50.2659 64.3529 50.3122 64.4801 50.3187 64.6095C50.324 64.7396 50.279 64.8803 50.1858 65.0236C50.0276 65.2454 49.79 65.4345 49.5018 65.5725C49.0272 65.7983 48.3314 65.8873 47.6418 65.8105C46.5239 65.6864 45.5881 65.2799 44.9139 64.8876C44.5936 64.7012 44.3323 64.5178 44.139 64.3695C43.1543 63.6157 42.4795 62.5295 43.5384 61.7463C43.7153 61.6142 43.9178 61.4997 44.1374 61.406C44.5027 61.306 44.9189 61.2785 45.3413 61.3242C45.533 61.3451 45.7145 61.3838 45.9048 61.4242C45.9669 61.4378 46.0276 61.4503 46.0909 61.4629C46.2275 61.4904 46.5928 61.5629 46.8754 61.4334C46.9555 61.3974 47.0205 61.351 47.0697 61.2981L47.1357 61.2256L46.9965 61.1511C46.664 60.9736 46.3108 60.7906 45.9199 60.5909L45.6958 60.4764C45.2943 60.2735 44.9402 60.0977 44.6146 59.9391C44.333 59.8031 44.0694 59.6766 43.8062 59.5525C43.2853 59.3065 42.7677 59.0695 42.2481 58.8361L42.1539 58.793C41.917 58.6871 41.6803 58.5825 41.4456 58.4795L41.3271 58.4279C41.1535 58.3521 40.9799 58.2766 40.8063 58.2021C40.9733 58.1243 41.1427 58.0452 41.3094 57.9661L41.5018 57.8751C41.6859 57.7873 41.869 57.6989 42.0519 57.6092L42.2019 57.5361C42.4306 57.4235 42.6604 57.309 42.8882 57.1944L43.0093 57.1329C43.2036 57.0335 43.3969 56.9339 43.5915 56.8333L43.7517 56.7502C44.2033 56.5135 44.6665 56.2665 45.1273 56.0152L45.2438 55.951C45.4473 55.8385 45.6508 55.7259 45.8533 55.6127L45.9311 55.5697C46.1037 55.4723 46.2764 55.3753 46.4477 55.2777C46.4503 55.3234 46.4287 55.3803 46.3788 55.4538C46.3561 55.4886 46.3322 55.5226 46.3082 55.5571C46.2308 55.671 46.15 55.7868 46.1005 55.9156C45.9885 56.2069 46.0315 56.4992 46.2245 56.7598C46.3627 56.8846 46.5071 56.9862 46.6702 57.0812C46.7359 57.1193 46.8045 57.1564 46.876 57.1924C48.3343 57.9214 50.3887 57.5536 51.8259 56.9653C52.676 56.6174 54.1606 55.8805 54.561 54.8566C54.7395 54.3971 54.5879 53.9227 54.156 53.5867C54.0851 53.5314 54.0066 53.4791 53.921 53.4291C53.6928 53.2964 53.4155 53.1838 53.1014 53.0981C52.8096 53.0256 52.526 52.9875 52.2556 52.9849C51.9999 52.9829 51.7534 53.0077 51.5161 53.0312C51.4061 53.0418 51.2972 53.0534 51.1872 53.0613C50.8931 53.0829 50.5436 53.0835 50.3808 52.9888C50.3608 52.9772 50.3437 52.964 50.3296 52.9494C51.1206 52.4522 51.9191 51.9371 52.7056 51.4157L53.0289 51.2005C53.3259 51.0022 53.6013 50.8165 53.8629 50.6378L55.0556 49.8164L68.362 57.5652Z" fill="#5C5CA8"/>
<path d="M49.6534 70.4034C49.4818 70.2567 49.3065 70.1121 49.1302 69.9677L48.9806 69.8459C48.8434 69.7353 48.7065 69.6261 48.5693 69.5182L48.4344 69.4116C48.2523 69.2696 48.0704 69.1289 47.8597 68.97C47.6835 68.8379 47.5072 68.7075 47.3286 68.578L47.2043 68.487C47.0408 68.3691 46.876 68.2519 46.7116 68.1357L46.6368 68.0828C46.4398 67.9441 46.2383 67.8067 46.0368 67.6693C45.8421 67.5372 45.6465 67.4088 45.4509 67.28L45.3669 67.2244C45.1713 67.0969 44.9743 66.9705 44.7774 66.845L44.6842 66.7867L44.5627 66.8228C44.3592 66.8837 44.1452 67.0291 44.1699 67.3621C44.1685 67.3439 44.1656 67.3243 44.1656 67.3075L44.1616 68.6575C44.0071 68.8366 43.8036 68.9922 43.559 69.109C43.0844 69.3348 42.3886 69.4238 41.699 69.347C41.5205 69.3272 41.3481 69.298 41.1791 69.2649L41.1919 64.7611L41.0895 64.7055C40.3166 64.294 39.5045 63.8798 38.6695 63.4753L38.6535 63.4865V63.467C38.3902 63.3389 38.1257 63.2131 37.8405 63.0777C37.3494 62.8466 36.8331 62.6086 36.3044 62.3716L36.2112 62.3295C35.9742 62.2236 35.7376 62.119 35.5029 62.016L35.3844 61.9644C35.1464 61.8605 34.9072 61.7575 34.6715 61.6562L34.5612 61.6092L34.4536 61.6575C34.2855 61.7347 34.1184 61.8111 33.9501 61.8853L31.4205 63.0198L28.8167 64.2178C28.5833 64.3277 28.3546 64.4363 28.1271 64.5442L27.491 64.8498C27.3558 64.9153 27.2222 64.9805 27.0883 65.0458L27.0912 63.9758C27.0912 63.9954 27.0903 64.0149 27.0883 64.0344C27.1034 63.8775 27.0591 63.7087 26.9524 63.5306C26.805 63.3061 26.5871 63.1075 26.3176 62.9506C26.2782 62.9277 26.2379 62.9056 26.1965 62.8847C25.6536 62.6086 24.8534 62.4875 24.0559 62.5583C22.2802 62.7185 20.9155 63.5319 20.262 64.0023C19.5389 64.5217 18.9576 65.201 18.9593 65.8615C18.9593 65.8595 18.9589 65.8575 18.9589 65.8555L18.9471 70.0757C18.8644 70.1475 18.781 70.2187 18.7006 70.2915L18.6209 70.3627L18.6002 77.7715L32.6451 85.9499C33.5608 86.4832 35.0473 86.4832 35.9575 85.9499L49.7178 77.8843L49.7384 70.4756L49.6534 70.4034ZM26.4571 72.292C26.4565 72.4963 26.5605 72.6201 26.6888 72.6949C26.7348 72.7217 26.784 72.7422 26.8326 72.7578L26.9623 72.7826L27.0561 72.7356C27.2688 72.631 27.4838 72.5264 27.7011 72.4208L28.3359 72.1159C28.5613 72.0093 28.7901 71.9007 29.0235 71.7908L34.1486 69.4616C34.2812 69.4026 34.4152 69.3431 34.5491 69.2818C34.748 69.3669 34.9479 69.454 35.1481 69.541L35.2652 69.5933C35.4999 69.6953 35.7343 69.7996 35.9712 69.9055L36.0654 69.9472C36.2748 70.0416 36.481 70.1359 36.6871 70.2303L36.6776 73.6129V73.6132C36.6756 74.2561 37.2119 74.9235 37.8897 75.4419C38.0909 75.5962 38.3623 75.7865 38.6961 75.9808C38.8783 76.0868 39.0795 76.194 39.2974 76.297L35.7231 78.3922C34.9524 78.8437 33.6957 78.8437 32.9201 78.3922L23.3476 72.8177L23.3548 70.2869C23.5918 70.2379 23.8369 70.1988 24.0923 70.176C24.7858 70.1137 25.4767 70.2167 25.9405 70.4521C25.9766 70.4703 26.0121 70.4895 26.0462 70.5097C26.209 70.6047 26.3482 70.7179 26.4614 70.8427L26.4571 72.292ZM44.5811 67.1098C44.5939 67.092 44.609 67.0757 44.6274 67.0612C44.609 67.0757 44.5939 67.0923 44.5811 67.1098ZM19.2599 66.6209C19.2671 66.6295 19.2753 66.6378 19.2829 66.646C19.275 66.6378 19.2671 66.6295 19.2599 66.6209ZM45.0981 67.3647C44.9415 67.2628 44.7863 67.1618 44.6274 67.0612C44.7863 67.1615 44.9415 67.2628 45.0981 67.3647ZM44.57 67.1294C44.5627 67.1416 44.5555 67.1539 44.5503 67.1671C44.5555 67.1535 44.5627 67.1416 44.57 67.1294ZM44.5427 67.1923C44.5391 67.2045 44.5352 67.2171 44.5332 67.2297C44.5352 67.2168 44.5388 67.2045 44.5427 67.1923ZM44.2046 67.5548C44.1889 67.5005 44.1797 67.4511 44.1735 67.4045C44.1797 67.4515 44.1889 67.5008 44.2046 67.5548ZM26.8533 64.7601C26.8615 64.721 26.8723 64.6836 26.8828 64.6518C26.872 64.6836 26.8615 64.721 26.8533 64.7601ZM26.8388 64.8829C26.8395 64.8428 26.8444 64.8024 26.8523 64.764C26.8441 64.8024 26.8395 64.8428 26.8388 64.8829ZM26.7292 63.9447C26.7286 63.9318 26.7276 63.9192 26.7263 63.906C26.7276 63.9189 26.7286 63.9318 26.7292 63.9447ZM26.7148 63.8454C26.7118 63.8328 26.7095 63.8202 26.7056 63.8073C26.7095 63.8202 26.7122 63.8328 26.7148 63.8454ZM26.6816 63.7395C26.6774 63.7285 26.6737 63.7173 26.6688 63.7064C26.6737 63.7173 26.6774 63.7282 26.6816 63.7395ZM20.3165 64.3075C20.343 64.2864 20.3696 64.2652 20.3969 64.2443C20.37 64.2652 20.343 64.2864 20.3165 64.3075ZM19.9485 64.6396C19.9229 64.6657 19.8976 64.6922 19.873 64.7187C19.8976 64.6922 19.9226 64.6657 19.9485 64.6396ZM19.7729 64.8322C19.8002 64.7998 19.8281 64.7677 19.8573 64.7356C19.8281 64.7677 19.7998 64.7998 19.7729 64.8322ZM19.7513 64.8587C19.7312 64.8832 19.7119 64.9077 19.6928 64.9322C19.7115 64.9077 19.7312 64.8832 19.7513 64.8587ZM19.3265 65.7476C19.3229 65.7817 19.321 65.8158 19.3206 65.8499C19.321 65.8158 19.3233 65.7817 19.3265 65.7476ZM19.5202 65.1904C19.5054 65.2163 19.4913 65.2424 19.4778 65.2682C19.4913 65.2421 19.5054 65.2163 19.5202 65.1904ZM19.4148 65.4046C19.401 65.4387 19.3886 65.4725 19.3777 65.5066C19.3889 65.4728 19.4014 65.4387 19.4148 65.4046ZM19.343 65.643C19.3377 65.6688 19.3338 65.6943 19.3302 65.7201C19.3338 65.6943 19.338 65.6688 19.343 65.643ZM18.9707 66.0068C18.9694 65.9975 18.9678 65.9879 18.9668 65.9786C18.9675 65.9879 18.9694 65.9972 18.9707 66.0068ZM19.1736 66.5103C19.1677 66.502 19.1628 66.4938 19.1575 66.4858C19.1631 66.4938 19.168 66.502 19.1736 66.5103ZM19.1017 66.3948C19.0958 66.3838 19.0896 66.3733 19.084 66.3623C19.0899 66.3733 19.0958 66.3842 19.1017 66.3948ZM19.0344 66.2537C19.0338 66.2518 19.0325 66.2498 19.0318 66.2478C19.0325 66.2494 19.0334 66.2518 19.0344 66.2537ZM18.995 66.1316C18.9921 66.1207 18.9898 66.1101 18.9875 66.0992C18.9898 66.1101 18.9924 66.1207 18.995 66.1316Z" fill="#754E9F"/>
<path d="M44.6269 67.0611C44.7857 67.1618 44.941 67.2628 45.0975 67.3647L45.1816 67.4203C45.3762 67.5471 45.5705 67.6762 45.7651 67.8083C45.9644 67.9431 46.1623 68.0798 46.3605 68.2178L46.4344 68.2701C46.5978 68.3853 46.7613 68.5019 46.9237 68.619L47.0468 68.7094C47.2241 68.8382 47.4003 68.9673 47.5753 69.1001C47.7837 69.2576 47.9645 69.3963 48.1454 69.5377L48.279 69.6436C48.4149 69.7509 48.5507 69.8595 48.6869 69.9694L48.8366 70.0899C48.983 70.2097 49.1271 70.3299 49.2709 70.451L35.7219 78.3925C34.9516 78.844 33.6945 78.844 32.9189 78.3925L19.0825 70.3352C19.1908 70.2395 19.3004 70.1442 19.4123 70.0492L19.5161 69.9614C19.6552 69.8436 19.7957 69.7277 19.9418 69.6109C20.0868 69.4963 20.2365 69.3818 20.3858 69.2672L20.4978 69.1828C20.6497 69.0696 20.8027 68.957 20.9592 68.8451C21.1181 68.7333 21.2793 68.6214 21.4437 68.5101L21.5635 68.429C21.8891 68.2099 22.2344 67.9874 22.5898 67.7683L22.7178 67.6891C22.8974 67.5799 23.0766 67.4707 23.262 67.3621L23.3615 67.3038L23.2876 67.2326C23.2574 67.2035 23.2213 67.177 23.1803 67.1532C22.8541 66.991 22.4874 67.0565 22.3489 67.0813C22.2859 67.0926 22.2242 67.1048 22.1622 67.1154C21.9685 67.1522 21.7854 67.1869 21.5927 67.2045C21.1686 67.2419 20.7531 67.2045 20.3937 67.0979C20.3012 67.0555 20.2122 67.0095 20.1269 66.9598C20.0146 66.8943 19.9089 66.8228 19.8111 66.7453C18.7904 65.9399 19.5183 64.8693 20.5408 64.1354C21.1621 63.6878 22.454 62.9158 24.1115 62.7672C24.805 62.7049 25.4959 62.8079 25.9597 63.0433C25.9958 63.0615 26.0312 63.0807 26.0654 63.1009C26.2991 63.2369 26.4871 63.4094 26.6141 63.6021C26.7021 63.7507 26.7408 63.8921 26.7277 64.0222C26.7159 64.1516 26.6627 64.2781 26.6072 64.4115C26.579 64.4777 26.5518 64.5436 26.5281 64.6098C26.3998 64.9852 26.5308 65.1821 26.7083 65.2858C26.7543 65.3126 26.8035 65.3331 26.8521 65.3487L26.9817 65.3735L27.0756 65.3265C27.2883 65.2219 27.5033 65.1176 27.7206 65.0117L28.3553 64.7068C28.5808 64.6002 28.8096 64.4916 29.043 64.3817L34.1681 62.0524C34.3007 61.9935 34.4346 61.9339 34.5686 61.873C34.7675 61.9581 34.9673 62.0452 35.1676 62.1322L35.2847 62.1845C35.5194 62.2865 35.7538 62.3908 35.9907 62.4967L36.0849 62.5384C36.6104 62.7748 37.1244 63.0115 37.6141 63.2419C37.897 63.376 38.1603 63.5011 38.4202 63.6272C39.2253 64.0185 39.9924 64.4078 40.7227 64.7958C40.6173 64.8455 40.4844 64.8441 40.2628 64.7991C40.2031 64.7872 40.1434 64.775 40.085 64.7624C39.8874 64.7207 39.6832 64.678 39.4617 64.6531C38.9588 64.5982 38.4603 64.6336 38.0227 64.7558C37.7424 64.8716 37.5127 65.0024 37.3105 65.1517C36.125 66.0296 36.8415 67.2161 37.9092 68.0328C38.1104 68.187 38.3818 68.3774 38.7156 68.5717C39.4288 68.9872 40.4266 69.4198 41.6315 69.5536C42.4245 69.6413 43.2303 69.536 43.7873 69.2715C44.1201 69.1126 44.3932 68.8951 44.5763 68.6382C44.6889 68.4661 44.7417 68.2979 44.7342 68.141C44.7276 67.9917 44.6751 67.849 44.6239 67.711C44.6016 67.6474 44.5773 67.5835 44.5586 67.5193C44.5208 67.3882 44.4864 67.1717 44.6269 67.0611Z" fill="#CE539E"/>
</svg>
