<svg width="80" height="92" viewBox="0 0 80 92" fill="none" xmlns="http://www.w3.org/2000/svg">
<g opacity="0.5">
<path d="M40.213 85.5241C62.1868 85.5241 80 67.7109 80 45.7371C80 23.7634 62.1868 5.95016 40.213 5.95016C18.2393 5.95016 0.426056 23.7634 0.426056 45.7371C0.426056 67.7109 18.2393 85.5241 40.213 85.5241Z" fill="#F2F2F2"/>
<path d="M40.2139 78.5753C58.35 78.5753 73.0522 63.8732 73.0522 45.7371C73.0522 27.601 58.35 12.8988 40.2139 12.8988C22.0779 12.8988 7.37569 27.601 7.37569 45.7371C7.37569 63.8732 22.0779 78.5753 40.2139 78.5753Z" fill="#F7F6F5"/>
<path d="M40.2128 71.8856C54.6542 71.8856 66.3613 60.1786 66.3613 45.7372C66.3613 31.2958 54.6542 19.5887 40.2128 19.5887C25.7714 19.5887 14.0643 31.2958 14.0643 45.7372C14.0643 60.1786 25.7714 71.8856 40.2128 71.8856Z" fill="#F9F9F9"/>
</g>
<mask id="mask0_1_3580" style="mask-type:luminance" maskUnits="userSpaceOnUse" x="8" y="0" width="69" height="92">
<path d="M76.4202 0.780334H8.42551V91.5884H76.4202V0.780334Z" fill="white"/>
</mask>
<g mask="url(#mask0_1_3580)">
<path d="M31.5417 31.1446C31.5417 31.1446 31.9865 30.7582 33.6438 31.2243C35.3007 31.6904 42.6772 31.808 43.1947 32.2935C43.7126 32.7791 42.0079 35.4584 42.0079 35.4584C42.0079 35.4584 30.7419 33.5978 31.5417 31.1446Z" fill="#E6AF2E"/>
<path d="M33.8388 39.7955L41.5793 39.429L43.4897 37.1357L43.7706 37.4833C43.7487 37.2796 44.285 33.6745 44.1366 33.5141C44.0813 33.4544 42.4972 32.5385 42.4728 32.3697C42.4185 31.9947 42.3751 30.9957 42.4045 30.7173C42.411 30.6571 42.4175 30.6013 42.4235 30.5505C42.4488 30.3398 42.4728 30.0206 42.4728 30.0206L31.8602 25.0963C31.8602 25.0963 32.2272 29.3234 32.15 30.7133C32.0733 32.1028 26.5434 34.5993 26.5434 34.5993C25.9174 36.8907 33.8388 39.7955 33.8388 39.7955Z" fill="#FFC7A0"/>
<path d="M45.1543 22.1057C45.3052 27.7621 42.0597 32.3527 38.6095 32.3692C34.6747 32.3876 31.3654 27.9737 31.2146 22.3169C31.0637 16.66 31.5393 11.905 38.0632 11.8851C46.3964 11.8597 45.0034 16.4493 45.1543 22.1057Z" fill="#FFC7A0"/>
<path opacity="0.1" d="M32.6394 28.3297C32.6708 28.4059 35.9328 36.6256 42.4114 31.8247C42.387 31.2077 42.3641 30.8203 42.4408 30.3845C41.4109 31.7969 36.8586 35.0419 32.6394 28.3297Z" fill="black"/>
<path d="M33.898 20.2115C33.9114 20.1975 33.9254 20.1851 33.9388 20.1726C34.7033 19.4869 35.5753 19.2508 36.4578 19.5068C36.5345 19.5287 36.6151 19.5581 36.6814 19.6656C36.8074 19.8703 36.8258 20.1019 36.8193 20.4366C35.7924 19.94 34.7531 19.9839 33.7954 20.568C33.763 20.456 33.7735 20.448 33.8064 20.3564C33.8303 20.2906 33.8631 20.2468 33.898 20.2115Z" fill="#191716"/>
<path d="M43.65 20.3619C43.6366 20.348 43.6226 20.3355 43.6092 20.3231C42.8487 19.6333 41.9782 19.3923 41.0937 19.6428C41.017 19.6642 40.9364 19.6931 40.8691 19.8002C40.7416 20.0043 40.7222 20.2354 40.7267 20.5706C41.7561 20.08 42.7954 20.1293 43.7496 20.719C43.7825 20.6074 43.7725 20.5995 43.7401 20.5073C43.7167 20.4416 43.6844 20.3978 43.65 20.3619Z" fill="#191716"/>
<path d="M36.4684 21.9342C36.4929 21.454 36.1905 21.0484 35.793 21.0281C35.3956 21.0079 35.0535 21.3807 35.029 21.8608C35.0046 22.341 35.3069 22.7466 35.7044 22.7669C36.1019 22.7872 36.4439 22.4143 36.4684 21.9342Z" fill="#191716"/>
<path d="M43.1943 22.051C43.2188 21.5708 42.9164 21.1651 42.5189 21.1449C42.1215 21.1246 41.7794 21.4974 41.7549 21.9776C41.7305 22.4577 42.0328 22.8634 42.4303 22.8837C42.8278 22.9039 43.1698 22.5311 43.1943 22.051Z" fill="#191716"/>
<path opacity="0.1" d="M39.1365 21.9921C39.1475 21.9343 39.1455 21.875 39.1291 21.8188C39.0887 21.6833 38.9971 21.4901 38.8547 21.8591C38.6903 22.2849 38.6968 24.3581 38.8845 25.13C38.9274 25.3063 38.8397 25.4881 38.6719 25.5578L38.3781 25.6798C38.2859 25.7182 38.2083 25.7909 38.1764 25.8855C38.1405 25.9926 38.1684 26.1151 38.4692 26.133C39.0165 26.1659 39.6809 25.6385 39.4926 25.1245C39.3074 24.6211 38.8915 23.2854 39.1365 21.9921Z" fill="#272727"/>
<path d="M31.2009 21.7529C31.2009 21.7529 29.7482 19.6743 29.0599 21.7594C28.3717 23.8446 30.8473 27.4586 31.8687 26.243C32.8906 25.0274 31.2009 21.7529 31.2009 21.7529Z" fill="#FFC7A0"/>
<path opacity="0.1" d="M30.2403 22.256C30.1497 22.1783 30.0262 22.1963 29.9654 22.2964C29.9042 22.3965 29.9281 22.5404 30.0187 22.6181C30.0242 22.6231 30.3753 22.9303 30.6123 23.5001C30.3474 23.4532 30.1049 23.506 30.0645 23.5155C29.9589 23.5404 29.8967 23.6614 29.9251 23.7854C29.9475 23.8825 30.0187 23.9527 30.0994 23.9667C30.1218 23.9707 30.1452 23.9702 30.1681 23.9647C30.2707 23.9403 30.578 23.9059 30.7707 24.02C30.82 24.265 30.8404 24.5404 30.814 24.8442C30.8031 24.9692 30.8823 25.0872 30.9913 25.1081C30.9923 25.1081 30.9933 25.1086 30.9943 25.1086C31.1019 25.1276 31.1975 25.0439 31.2085 24.9204C31.3574 23.2326 30.2856 22.2949 30.2403 22.256Z" fill="#272727"/>
<path opacity="0.1" d="M36.4469 17.7163C36.4469 17.7163 40.8184 17.7387 42.7736 15.8174C44.7288 13.8961 40.7751 15.8423 40.7751 15.8423L36.4469 17.7163Z" fill="#272727"/>
<path d="M42.5049 15.6803C42.5049 15.6803 40.0806 17.397 36.4466 17.7162C36.4466 17.7162 37.5572 16.4896 38.0407 16.2142C38.0407 16.2142 36.594 16.6465 35.7285 17.5095C35.7285 17.5095 35.6812 17.0294 36.2215 16.5289C36.2215 16.5289 33.5118 17.6216 32.8236 19.1918C32.8236 19.1918 32.6184 18.5404 32.842 17.7819C32.842 17.7819 31.2857 20.3283 31.9107 23.5235C31.9107 23.5235 31.2046 20.5245 29.5168 21.0384C29.5168 21.0384 29.213 19.7934 28.7454 18.8004C28.2782 17.8068 28.0467 15.0967 29.4237 13.9019C29.4237 13.9019 28.4834 14.3691 28.2583 15.2685C28.2583 15.2685 28.1189 13.6873 29.6234 12.9174C31.1279 12.1475 32.4745 8.8088 35.466 8.81976C38.4576 8.83072 40.2798 8.26249 41.1488 7.11756C41.1488 7.11756 41.4381 7.43181 41.2952 8.16289C41.2952 8.16289 42.0482 7.72165 41.9845 6.47961C41.9845 6.47961 42.6707 7.05282 42.5995 8.40542C42.5995 8.40542 44.5313 9.64347 44.7066 10.5484C44.7066 10.5484 44.9875 9.48012 43.9835 8.70572C43.9835 8.70572 47.2539 9.65144 45.5472 13.6056C45.5472 13.6056 46.1961 12.9657 46.4317 13.3352C46.4317 13.3352 45.7619 13.524 45.7833 13.9473C45.7833 13.9473 47.9845 15.02 47.3674 17.2964C47.3674 17.2964 46.7768 15.5399 46.0004 15.6988C46.0004 15.6988 46.1329 17.7874 45.7449 18.8825C45.357 19.9772 45.1687 21.7272 45.1687 21.7272C45.1687 21.7272 44.9153 20.8243 44.9282 19.8088C44.9411 18.7934 44.5427 16.9762 42.5049 15.6803Z" fill="#191716"/>
<path opacity="0.2" d="M33.1438 17.278C33.1438 17.278 35.4351 13.5006 38.5059 13.3716C41.5766 13.2426 42.2713 11.1649 42.2713 11.1649" stroke="#FEFEFE" stroke-width="0.5" stroke-miterlimit="10" stroke-linecap="round"/>
<path opacity="0.2" d="M36.8571 16.142C36.8571 16.142 38.7879 14.3342 40.2834 14.255" stroke="#FEFEFE" stroke-width="0.5" stroke-miterlimit="10" stroke-linecap="round"/>
<path opacity="0.2" d="M38.5587 15.995C38.5587 15.995 41.7624 15.36 42.4725 14.1285" stroke="#FEFEFE" stroke-width="0.5" stroke-miterlimit="10" stroke-linecap="round"/>
<path opacity="0.2" d="M43.0452 15.2576C43.0452 15.2576 45.7056 13.8612 45.7141 11.2103" stroke="#FEFEFE" stroke-width="0.5" stroke-miterlimit="10" stroke-linecap="round"/>
<path opacity="0.2" d="M45.6573 15.637C45.6573 15.637 45.0981 15.5449 43.8401 15.8103" stroke="#FEFEFE" stroke-width="0.5" stroke-miterlimit="10" stroke-linecap="round"/>
<path opacity="0.2" d="M30.0173 13.5419C30.0173 13.5419 30.846 13.4328 31.2245 13.0608C31.603 12.6888 34.7141 9.51397 37.2435 9.94226C39.7734 10.3705 40.8904 8.60809 40.8904 8.60809" stroke="#FEFEFE" stroke-width="0.5" stroke-miterlimit="10" stroke-linecap="round"/>
<path opacity="0.2" d="M30.8874 20.4638C30.8874 20.4638 29.5582 15.9902 32.3809 14.4478" stroke="#FEFEFE" stroke-width="0.5" stroke-miterlimit="10" stroke-linecap="round"/>
<path opacity="0.2" d="M42.3015 8.85216C42.3015 8.85216 41.4494 10.7306 39.4693 11.1276" stroke="#FEFEFE" stroke-width="0.5" stroke-miterlimit="10" stroke-linecap="round"/>
<path opacity="0.2" d="M44.6206 11.1958C44.6206 11.1958 44.512 13.143 43.3318 13.8303" stroke="#FEFEFE" stroke-width="0.5" stroke-miterlimit="10" stroke-linecap="round"/>
<path opacity="0.2" d="M34.1899 14.8097C34.1899 14.8097 36.3274 11.6224 37.9285 11.1075" stroke="#FEFEFE" stroke-width="0.5" stroke-miterlimit="10" stroke-linecap="round"/>
<path d="M36.5304 27.931C36.4856 28.8129 37.3342 29.5734 38.4259 29.6292C39.5175 29.685 40.4393 29.0146 40.4841 28.1327C40.529 27.2616 36.5743 27.0694 36.5304 27.931Z" fill="#191716"/>
<path d="M40.3719 27.8743C40.075 28.0645 39.5073 28.2304 38.4197 28.1751C37.3977 28.1228 36.8853 27.9251 36.6308 27.7209C37.1771 27.1641 39.7947 27.2851 40.3719 27.8743Z" fill="white"/>
<path d="M39.6198 29.3749C39.2807 29.5557 38.8673 29.6518 38.4256 29.6294C37.9988 29.6075 37.6099 29.478 37.2961 29.2758C37.4849 29.1264 37.8394 28.996 38.5063 29.0298C39.1462 29.0627 39.464 29.2156 39.6198 29.3749Z" fill="white"/>
<path d="M51.5028 104.928C51.2568 111.026 49.7174 115.892 49.0396 118.601C48.3619 121.311 48.1158 129.01 47.9311 134.86C47.7463 140.711 46.2677 156.601 45.5909 156.847C44.9131 157.093 37.5222 157.216 37.2323 156.847C36.941 156.478 36.5371 143.606 36.9071 136.154C37.2762 128.702 37.3992 124.082 36.9071 121.311C36.5072 119.063 36.4724 110.495 36.4066 106.221C36.3922 105.224 36.3758 104.462 36.3524 104.066C36.2373 102.105 35.7443 102.79 35.1751 104.152C35.1372 104.243 35.0984 104.338 35.059 104.435C34.4425 105.975 33.2109 109.547 31.6382 117.369C30.065 125.19 27.5456 125.376 27.4226 130.056C27.2996 134.736 25.4156 143.241 24.9235 145.766C24.4305 148.291 23.2707 155.621 23.1476 155.99C23.0246 156.359 15.1416 157.099 15.2034 156.545C15.2652 155.99 15.3159 148.106 15.0699 146.443C14.8229 144.781 16.2134 129.994 16.3981 128.516C16.5839 127.038 17.0759 118.477 16.8299 116.075C16.5839 113.674 18.7393 96.4897 18.801 93.5957C18.8628 90.7008 17.69 90.9259 18.0615 90.3318C18.1207 90.2372 18.1905 90.0967 18.2881 89.9279C19.1013 88.529 21.3234 84.9797 21.936 84.0026C22.0376 83.8417 22.0949 83.7501 22.0949 83.7501L22.1247 78.4443L51.3808 77.7675C51.3808 77.7675 53.1059 86.0205 53.2289 90.7626C53.3509 95.5046 51.7498 98.8313 51.5028 104.928Z" fill="#191716"/>
<path opacity="0.5" d="M19.2308 92.3641C19.2308 92.3641 21.2632 92.4433 21.8175 91.2645C21.8175 91.2645 21.2014 92.1793 19.2308 92.3641Z" fill="black"/>
<path d="M32.2049 32.3183C32.2049 32.3183 38.0371 37.9981 42.7164 33.5957L45.8131 51.0106L42.1084 82.0874C42.1084 82.0874 35.2453 82.3194 33.5033 83.0744C31.7612 83.8294 30.6581 82.668 30.6581 82.668L32.2049 32.3183Z" fill="white"/>
<path opacity="0.08" d="M35.771 51.3383C35.771 51.3383 35.7705 63.8861 33.8312 77.7676C31.8915 91.6492 32.0125 96.5043 28.2764 94.828C24.5404 93.1517 22.8013 84.437 20.9457 86.5117C19.0902 88.5864 17.9129 89.4016 17.9129 89.4016L19.7779 82.3224L35.771 51.3383Z" fill="black"/>
<path d="M31.6124 31.4228C30.3808 33.124 23.6318 42.7291 23.8106 48.6365C23.9799 54.2396 22.0805 75.522 21.337 81.6719C21.3071 81.912 21.2807 82.1281 21.2548 82.3198C21.1766 82.9164 21.1163 83.2735 21.0815 83.3353C20.9839 83.5066 19.2433 87.9309 18.7523 88.9912C17.5471 91.5908 16.7901 92.0161 14.7533 91.3557C14.3439 91.2232 14.6402 88.9314 15.2627 85.7267C15.3016 85.53 15.3409 85.3298 15.3818 85.1266C16.196 81.0594 17.4664 75.7302 18.4933 71.4453C18.5496 71.2112 18.6049 70.9797 18.6597 70.7521C19.5098 67.2008 20.1527 64.5016 20.1527 64.0862C20.1527 63.9722 20.1158 63.7097 20.0491 63.3223C19.32 59.0981 15.0322 40.0797 16.2692 38.8426C17.6208 37.492 19.1397 37.5762 23.1925 35.2963C27.2453 33.0174 29.1866 33.0174 29.8624 32.1728C30.323 31.5966 31.0591 31.3351 31.4804 31.2271C31.593 31.1992 31.6801 31.3276 31.6124 31.4228Z" fill="#E6AF2E"/>
<path d="M31.5427 31.1443C31.6642 31.0163 31.8774 31.0592 31.9411 31.224C32.7026 33.1787 35.9949 42.4561 35.7708 51.3386C35.5173 61.3849 31.3808 93.9732 29.6079 94.2267C27.835 94.4802 22.1871 81.7974 21.081 83.3357C19.9749 84.8746 22.1786 54.3779 22.1786 54.3779L21.2498 36.9865C21.2498 36.986 29.7494 33.0387 31.5427 31.1443Z" fill="#E6AF2E"/>
<path d="M42.552 32.5982C42.6815 32.2486 43.1312 32.1524 43.3947 32.4164C43.6008 32.6226 43.811 32.8726 43.9176 33.1161C44.1671 33.6858 47.1696 34.0907 49.6711 34.1131C53.1034 34.144 53.6547 34.6036 54.2065 35.7984C54.5401 36.5215 54.3564 49.4374 54.3564 49.4374C54.3564 49.4374 56.4171 70.1869 57.2094 74.4778C58.0018 78.7686 59.7179 86.8214 58.7936 86.8214C57.8693 86.8214 43.0231 95.6735 42.8912 94.9689C42.7592 94.2642 40.8449 54.3283 41.439 49.1137C41.9664 44.4812 41.6058 35.1535 42.552 32.5982Z" fill="#E6AF2E"/>
<path d="M21.9327 84.0031C21.3207 84.9802 19.098 88.5295 18.2848 89.9284C17.6892 89.142 17.2903 88.3472 17.2903 88.3472C16.8585 87.0399 20.5502 82.6186 21.9008 83.9682C21.9118 83.9792 21.9233 83.9906 21.9327 84.0031Z" fill="#F5BF99"/>
<path d="M22.091 83.7507C22.0511 83.81 21.9864 83.8832 21.9012 83.9683C21.5616 84.307 20.8932 84.8309 20.1602 85.3907C19.6975 85.7432 19.2085 86.1118 18.7603 86.4559C17.8484 87.1571 17.5103 87.9778 17.2896 88.3468C17.2896 88.3468 17.2896 88.3468 17.2896 88.3478C17.1871 88.5211 17.1094 88.5948 17.0118 88.5132C16.8106 88.3448 15.9535 86.4952 15.3813 85.1272C15.0755 84.3971 14.8509 83.8045 14.8509 83.678C14.8509 83.3179 10.7368 77.8154 10.1193 73.3408C9.73086 70.5206 10.8937 60.6441 11.9609 53.2441C11.9774 53.1346 11.9928 53.0255 12.0092 52.918C12.6173 48.7267 13.1875 45.394 13.4111 44.7038C14.0287 42.7894 15.2005 39.639 16.2682 38.8432C17.064 38.2516 19.8574 51.2342 20.4655 58.8751C20.5352 59.7571 20.576 60.5684 20.5815 61.279V61.282C20.5929 62.6779 20.4654 63.6869 20.1517 64.0868C20.1517 64.0868 20.1517 64.0878 20.1507 64.0898C20.1293 64.1247 19.8942 64.532 19.5845 65.0853C19.5845 65.0863 19.5845 65.0863 19.5845 65.0863C19.5187 65.2043 19.45 65.3283 19.3793 65.4573C19.3783 65.4593 19.3773 65.4603 19.3773 65.4603V65.4613C18.7807 66.5465 18.0481 67.9504 17.9879 68.4026C17.956 68.6386 18.1756 69.8547 18.4923 71.4454C19.2125 75.0604 20.5566 79.7631 20.5207 80.1561C20.4963 80.4215 20.816 81.7925 21.2538 82.3199C21.7493 82.917 22.2478 83.5171 22.091 83.7507Z" fill="#E6AF2E"/>
<path opacity="0.15" d="M20.582 61.279V61.282C20.4705 62.169 20.3285 63.1042 20.1522 64.0868C20.1522 64.0868 20.1522 64.0878 20.1513 64.0898C20.1298 64.1247 19.8948 64.532 19.585 65.0853C19.7459 64.7407 19.957 64.154 20.0487 63.3224C20.0487 63.3214 20.0487 63.3214 20.0487 63.3204C20.1114 62.7482 20.3176 61.0256 20.466 58.8747C20.6916 55.6236 20.7847 51.3955 20.0497 48.6978C20.0855 48.7949 21.6288 52.9623 20.582 61.279Z" fill="black"/>
<path opacity="0.15" d="M17.9876 68.403C17.9876 68.403 15.4637 66.539 13.2222 66.8836C13.2222 66.8841 15.9 66.2158 17.9876 68.403Z" fill="black"/>
<path opacity="0.15" d="M17.4876 55.7033C15.2889 52.8443 11.9612 53.2442 11.9612 53.2442C11.9612 53.2442 11.9612 53.2442 11.9602 53.2442C11.9767 53.1346 11.9921 53.0255 12.0085 52.918C15.2735 51.9832 17.4284 55.6032 17.4876 55.7033Z" fill="black"/>
<path opacity="0.15" d="M19.9187 70.4214C19.9187 70.4214 25.3415 75.0937 29.2543 76.0623C29.2548 76.0623 24.8579 75.4059 19.9187 70.4214Z" fill="black"/>
<path opacity="0.15" d="M51.1896 74.2963C51.1896 74.2963 47.0567 77.8571 44.0746 78.5956C44.0746 78.5951 47.4252 78.0951 51.1896 74.2963Z" fill="black"/>
<path opacity="0.15" d="M50.7244 63.6848C50.8808 63.8342 47.4769 60.0309 47.6332 57.1001C47.6332 57.1001 47.0217 60.1414 50.7244 63.6848Z" fill="black"/>
<path opacity="0.15" d="M21.9022 83.9682C21.9873 83.8831 22.0521 83.8104 22.0919 83.7506C22.2488 83.517 21.7503 82.9169 21.2552 82.3198C20.8175 81.7929 20.4973 80.4214 20.5222 80.156C20.558 79.763 19.2134 75.0603 18.4938 71.4453C18.55 71.2112 18.6053 70.9797 18.6601 70.7521C19.2896 74.7854 20.8015 78.8352 20.7717 80.0544C20.7582 80.6196 21.0217 81.1709 21.3379 81.6714C21.7029 82.2496 22.1397 82.7596 22.3011 83.142C22.5944 83.8387 21.933 83.9628 21.9022 83.9682Z" fill="black"/>
<path opacity="0.15" d="M20.521 80.1564C20.521 80.1564 16.4582 81.1251 14.8512 83.6779C14.8512 83.6779 16.0574 81.8527 20.521 80.1564Z" fill="black"/>
<path opacity="0.15" d="M17.2888 88.3476C17.2888 88.3755 17.2878 88.8267 16.9372 88.7241C16.6643 88.643 15.7106 86.6793 15.2614 85.7266C15.3002 85.5299 15.3396 85.3297 15.3804 85.1265C15.9526 86.4946 16.8102 88.3447 17.0109 88.5125C17.108 88.5952 17.1862 88.521 17.2888 88.3476Z" fill="black"/>
<path opacity="0.15" d="M28.2761 91.3672C28.2686 91.3672 28.2612 91.3662 28.2532 91.3647C28.1979 91.3523 28.1635 91.2975 28.176 91.2422C31.9404 74.6092 33.5196 58.7934 33.7283 50.3034C33.9001 43.3193 29.8637 32.9622 29.8229 32.8586C29.802 32.8058 29.8279 32.7465 29.8807 32.7256C29.9335 32.7047 29.9927 32.7311 30.0136 32.7834C30.0545 32.8875 34.1058 43.2829 33.9335 50.3083C33.7248 58.8079 32.1436 74.6396 28.3762 91.2875C28.3652 91.3348 28.3234 91.3672 28.2761 91.3672Z" fill="black"/>
<path opacity="0.15" d="M44.1612 92.9146C44.1099 92.9146 44.0656 92.8762 44.0596 92.8239C43.1169 84.7821 42.6592 54.6226 42.8554 50.0668C43.0427 45.7142 43.6398 34.0528 43.6701 33.9363C43.6846 33.8815 43.7409 33.8487 43.7956 33.8631C43.8504 33.8775 43.8833 33.9333 43.8689 33.9881C43.8385 34.1046 43.2468 45.7451 43.0606 50.0758C42.8644 54.6276 43.321 84.7636 44.2638 92.8C44.2702 92.8563 44.2299 92.9071 44.1736 92.9136C44.1692 92.9141 44.1652 92.9146 44.1612 92.9146Z" fill="black"/>
<path d="M68.3695 18.5757L64.2684 21.0977C64.2684 21.0977 62.8058 18.5623 61.3371 17.8701C59.8675 17.1778 57.8087 15.3571 55.6519 13.6554C53.8361 12.2231 54.2375 11.7939 54.7968 11.6534C55.3506 11.5145 57.7365 12.8576 58.3316 13.3213C58.4143 13.3855 58.4815 13.4308 58.5353 13.4582V13.4587C58.5353 13.4587 58.5358 13.4592 58.5368 13.4592C58.5378 13.4597 58.5388 13.4602 58.5413 13.4612C58.5433 13.4622 58.5458 13.4632 58.5478 13.4642C58.5498 13.4657 58.5528 13.4672 58.5558 13.4682C58.5558 13.4682 58.5563 13.4682 58.5563 13.4687C58.5617 13.4712 58.5667 13.4736 58.5717 13.4751C58.5836 13.4796 58.5946 13.4831 58.6046 13.4856C58.6354 13.4936 58.6593 13.4921 58.6763 13.4806C58.6793 13.4791 58.6822 13.4766 58.6852 13.4741C58.6882 13.4717 58.6907 13.4687 58.6922 13.4657C58.6957 13.4612 58.6987 13.4562 58.7002 13.4507C58.7032 13.4458 58.7047 13.4408 58.7057 13.4348C58.7246 13.3666 58.7022 13.2376 58.6549 13.0618C58.6419 13.0135 58.627 12.9612 58.6105 12.9059C58.5996 12.8691 58.5876 12.8307 58.5757 12.7909C58.5692 12.771 58.5632 12.7505 58.5567 12.7301C58.5438 12.6893 58.5304 12.6469 58.5169 12.6031C58.503 12.5593 58.4895 12.5145 58.4746 12.4687C58.4606 12.4223 58.4457 12.3755 58.4303 12.3272C58.247 11.7381 57.501 10.0717 56.8262 8.64843C56.8187 8.63299 56.8117 8.61805 56.8043 8.60261C56.8018 8.59713 56.7993 8.59215 56.7968 8.58717C56.7943 8.58219 56.7923 8.57771 56.7903 8.57323C56.4253 7.8048 56.0841 7.11605 55.8695 6.71715C55.252 5.57222 55.3819 4.93328 55.8013 4.67182C56.2206 4.41087 56.7176 4.70917 57.7191 6.75848C58.4198 8.19275 59.1827 9.28787 59.4313 9.49255C59.4736 9.52742 59.501 9.53688 59.5099 9.51795C59.5264 9.48807 59.4995 9.38997 59.4183 9.21168C59.115 8.54434 58.5343 7.60211 57.8645 6.37153L57.862 6.36605C57.8615 6.36506 57.8615 6.36456 57.8615 6.36456C57.5657 5.82023 57.252 5.21963 56.9367 4.56127C55.9078 2.41186 57.7042 2.17431 58.3829 3.4522C59.0408 4.68975 59.5642 5.58069 59.5966 5.63547C59.5971 5.63647 59.5976 5.63746 59.5981 5.63796C59.5981 5.63796 59.4721 5.28188 59.3446 4.83368C59.3441 4.83119 59.3431 4.82919 59.3426 4.8267C59.3401 4.81824 59.3376 4.80927 59.3351 4.80081C59.3341 4.79732 59.3331 4.79284 59.3321 4.78935C59.3302 4.78139 59.3277 4.77342 59.3252 4.76445C59.1733 4.21963 59.0284 3.56325 59.1011 3.24204C59.2375 2.63795 60.2694 2.36753 60.6573 3.44821C61.0458 4.5284 62.5578 7.88498 62.74 8.64444C62.7824 8.82223 62.8247 8.92482 62.8625 8.97064C62.8625 8.97064 62.8635 8.97164 62.866 8.97462C62.9746 9.09664 63.0488 8.75201 63.0075 8.37701C63.0025 8.3302 62.995 8.28289 62.986 8.23558C62.9507 8.05132 62.8591 7.65888 62.758 7.19026L62.757 7.18577C62.756 7.18079 62.755 7.17482 62.7535 7.16984L62.753 7.16834C62.5513 6.22761 62.3147 4.99204 62.4153 4.51744C62.5667 3.8023 63.749 3.75598 64.1265 5.34414C64.5045 6.93229 64.8127 8.53438 65.3267 9.51845C65.8411 10.503 66.5896 12.7062 66.7978 14.7241C67.006 16.7436 68.3695 18.5757 68.3695 18.5757Z" fill="#FFC7A0"/>
<path opacity="0.05" d="M60.9399 8.68443C60.6306 7.97875 59.5972 5.63861 59.5972 5.63861C59.5972 5.63861 59.4712 5.28253 59.3438 4.83432C59.4862 5.30245 60.1097 6.49419 60.528 7.35574C60.9603 8.24618 61.2496 9.38961 60.9399 8.68443Z" fill="black"/>
<path opacity="0.15" d="M59.1279 13.5339C59.1279 13.5339 61.8649 13.6678 62.8858 15.001C62.8858 15.001 61.7464 13.4128 59.1279 13.5339Z" fill="black"/>
<path opacity="0.15" d="M62.9334 19.0408C62.9334 19.0408 64.521 16.1807 66.6376 16.4342C66.6376 16.4342 64.5833 15.8735 62.9334 19.0408Z" fill="black"/>
<path opacity="0.15" d="M58.0111 13.6683C58.0118 13.669 58.0125 13.6697 58.0139 13.6697C58.0118 13.6697 58.0111 13.669 58.0111 13.6683C58.0111 13.669 58.0111 13.669 58.0111 13.6683Z" fill="black"/>
<path opacity="0.05" d="M58.5364 13.4587C58.865 13.625 58.6758 13.1171 58.4298 12.3267C58.2465 11.7376 57.5005 10.0712 56.8257 8.64792C57.3406 9.70619 58.5374 11.9925 58.8277 12.8795C59.1136 13.751 58.5687 13.4761 58.5364 13.4587Z" fill="black"/>
<path opacity="0.05" d="M59.5099 9.51804C59.5263 9.48816 59.4994 9.39005 59.4183 9.21176C59.115 8.54443 58.5343 7.60219 57.8645 6.37161L57.862 6.36613C57.9028 6.42888 59.1937 8.43935 59.5184 9.06136C59.7514 9.50758 59.612 9.53895 59.5099 9.51804Z" fill="black"/>
<path opacity="0.15" d="M62.7567 7.18638C62.7557 7.1815 62.7548 7.17564 62.7533 7.17076L62.7528 7.1693V7.16783L62.7567 7.18638Z" fill="black"/>
<path opacity="0.05" d="M62.8667 8.97568C62.9752 9.09769 63.0494 8.75307 63.0081 8.37807C63.0694 8.64301 63.1316 8.89251 63.1844 9.05237C63.3408 9.52897 62.909 9.02648 62.8667 8.97568Z" fill="black"/>
<path opacity="0.15" d="M58.1996 10.8795C58.1996 10.8795 60.1383 8.03887 64.1538 9.57821C64.1538 9.57821 60.3928 8.09415 58.1996 10.8795Z" fill="black"/>
<path opacity="0.1" d="M56.2723 7.03779C56.2723 7.03779 56.4067 6.38042 57.3141 6.26687C57.3136 6.26687 56.4625 6.22703 56.2723 7.03779Z" fill="black"/>
<path opacity="0.1" d="M57.2104 8.82832C57.2104 8.82832 57.3448 8.17095 58.2517 8.0574C58.2517 8.0579 57.4006 8.01756 57.2104 8.82832Z" fill="black"/>
<path opacity="0.1" d="M59.5773 5.1629C59.5773 5.1629 59.8726 4.42784 60.9503 4.4886C60.9503 4.4886 59.9707 4.2615 59.5773 5.1629Z" fill="black"/>
<path opacity="0.1" d="M57.1696 14.0054C57.1696 14.0054 57.0107 13.3734 57.7572 12.8928C57.7572 12.8928 56.9953 13.2155 57.1696 14.0054Z" fill="black"/>
<path opacity="0.1" d="M60.5527 7.00954C60.5527 7.00954 60.8615 6.41392 61.7654 6.55287C61.7654 6.55287 60.9576 6.28195 60.5527 7.00954Z" fill="black"/>
<path opacity="0.1" d="M62.8588 6.2998C62.8588 6.2998 63.2109 5.73256 64.0964 5.94023C64.0964 5.93974 63.316 5.60856 62.8588 6.2998Z" fill="black"/>
<path opacity="0.1" d="M63.4005 7.97454C63.4005 7.97454 63.7436 7.52484 64.4737 7.77185C64.4737 7.77185 63.8427 7.42922 63.4005 7.97454Z" fill="black"/>
<path opacity="0.1" d="M57.5421 5.2912C57.5421 5.2912 57.7796 4.57456 58.8085 4.56859C58.8085 4.56809 57.8628 4.41022 57.5421 5.2912Z" fill="black"/>
<path opacity="0.1" d="M58.7255 7.51849C58.7255 7.51849 58.9631 6.80186 59.992 6.79588C59.992 6.79588 59.0463 6.63801 58.7255 7.51849Z" fill="black"/>
<path d="M72.0141 39.4971C69.0878 42.022 60.2511 45.9812 58.0703 47.0141C55.89 48.047 54.3537 49.4379 54.3537 49.4379C54.3537 49.4379 46.2496 34.39 53.7252 35.0135H53.7257C60.5653 35.5838 64.5609 33.3278 65.1908 32.9398C65.2456 32.9065 65.2785 32.8462 65.278 32.782C65.2083 27.0758 64.0932 22.3955 63.6938 22.1271C63.2919 21.8571 62.5464 19.9871 62.4886 19.4059C62.4314 18.8253 66.7924 16.5439 67.1943 16.3432C67.5957 16.142 68.5713 18.3228 68.9155 19.4059C69.2601 20.4891 72.0718 24.6923 74.0225 30.8293C75.9737 36.9662 74.9409 36.9722 72.0141 39.4971Z" fill="#E6AF2E"/>
<path opacity="0.15" d="M54.3549 49.4378C54.3549 49.4378 54.7429 45.3377 54.4027 41.1495C54.3166 40.0857 54.1836 39.016 53.9849 38.0065C53.9973 38.0399 54.1946 38.5837 54.3928 39.7451C54.6731 41.382 54.9565 44.2466 54.7299 48.6405C54.7299 48.6405 56.4261 47.7815 58.0716 47.014C55.8913 48.0469 54.3549 49.4378 54.3549 49.4378Z" fill="black"/>
<path opacity="0.15" d="M55.71 47.5809C55.71 47.5809 59.4774 45.0301 60.2235 42.5181C60.2235 42.5186 59.5168 45.3443 55.71 47.5809Z" fill="black"/>
<path opacity="0.15" d="M55.2783 47.1103C55.2783 47.1103 57.2798 45.3837 57.5547 43.6959C57.5547 43.6959 57.476 45.5405 55.2783 47.1103Z" fill="black"/>
<path opacity="0.15" d="M70.9659 36.5104C70.8658 36.4885 67.6357 35.7614 65.1914 32.9397C65.2462 32.9063 65.2791 32.846 65.2786 32.7818C65.2786 32.7818 67.4245 35.5174 70.9659 36.5104Z" fill="black"/>
<path opacity="0.15" d="M63.694 22.1269C63.694 22.1269 66.8026 21.5731 68.9156 19.4058C68.9156 19.4058 67.0077 21.7922 63.694 22.1269Z" fill="black"/>
</g>
</svg>
