<svg width="223" height="100" viewBox="0 0 223 100" fill="none" xmlns="http://www.w3.org/2000/svg">
<rect x="0.5" y="0.5" width="222" height="99" rx="7.5" fill="#E2E2E6" stroke="#ADADAD" stroke-dasharray="8 8"/>
<path d="M34.4992 49.6247C33.8842 49.6247 33.3742 49.1147 33.3742 48.4997V42.2147L32.2942 43.2947C31.8592 43.7297 31.1392 43.7297 30.7042 43.2947C30.2692 42.8597 30.2692 42.1397 30.7042 41.7047L33.7042 38.7047C34.0192 38.3897 34.5142 38.2847 34.9342 38.4647C35.3542 38.6297 35.6242 39.0497 35.6242 39.4997V48.4997C35.6242 49.1147 35.1142 49.6247 34.4992 49.6247Z" fill="#636466"/>
<path d="M37.5002 43.6252C37.2152 43.6252 36.9302 43.5202 36.7052 43.2952L33.7052 40.2952C33.2702 39.8602 33.2702 39.1402 33.7052 38.7052C34.1402 38.2702 34.8602 38.2702 35.2952 38.7052L38.2952 41.7052C38.7302 42.1402 38.7302 42.8602 38.2952 43.2952C38.0702 43.5202 37.7852 43.6252 37.5002 43.6252Z" fill="#636466"/>
<path d="M43.5 57.125H34.5C26.355 57.125 22.875 53.645 22.875 45.5V36.5C22.875 28.355 26.355 24.875 34.5 24.875H42C42.615 24.875 43.125 25.385 43.125 26C43.125 26.615 42.615 27.125 42 27.125H34.5C27.585 27.125 25.125 29.585 25.125 36.5V45.5C25.125 52.415 27.585 54.875 34.5 54.875H43.5C50.415 54.875 52.875 52.415 52.875 45.5V38C52.875 37.385 53.385 36.875 54 36.875C54.615 36.875 55.125 37.385 55.125 38V45.5C55.125 53.645 51.645 57.125 43.5 57.125Z" fill="#636466"/>
<path d="M54 39.1247H48C42.87 39.1247 40.875 37.1297 40.875 31.9997V25.9997C40.875 25.5497 41.145 25.1297 41.565 24.9647C41.985 24.7847 42.465 24.8897 42.795 25.2047L54.795 37.2047C55.11 37.5197 55.215 38.0147 55.035 38.4347C54.855 38.8547 54.45 39.1247 54 39.1247ZM43.125 28.7147V31.9997C43.125 35.8697 44.13 36.8747 48 36.8747H51.285L43.125 28.7147Z" fill="#636466"/>
<path d="M74.888 46.66C73.8587 46.66 72.968 46.428 72.216 45.964C71.464 45.5 70.8827 44.828 70.472 43.948C70.0667 43.0627 69.864 41.9933 69.864 40.74C69.864 39.476 70.0693 38.4013 70.48 37.516C70.8907 36.6253 71.472 35.9453 72.224 35.476C72.9813 35.0067 73.8693 34.772 74.888 34.772C75.912 34.772 76.7973 35.0067 77.544 35.476C78.2907 35.94 78.8667 36.6173 79.272 37.508C79.6773 38.3933 79.88 39.4707 79.88 40.74C79.88 41.9933 79.6773 43.0627 79.272 43.948C78.872 44.828 78.2987 45.5 77.552 45.964C76.8053 46.428 75.9173 46.66 74.888 46.66ZM74.888 45.372C75.6027 45.372 76.2107 45.2093 76.712 44.884C77.2133 44.5587 77.5947 44.0547 77.856 43.372C78.1227 42.6893 78.256 41.8173 78.256 40.756C78.256 39.6787 78.1227 38.7933 77.856 38.1C77.5893 37.4067 77.2053 36.8947 76.704 36.564C76.2027 36.228 75.5973 36.06 74.888 36.06C74.184 36.06 73.5787 36.228 73.072 36.564C72.5653 36.9 72.176 37.4147 71.904 38.108C71.632 38.8013 71.496 39.684 71.496 40.756C71.496 41.8173 71.632 42.6893 71.904 43.372C72.176 44.0547 72.5653 44.5587 73.072 44.884C73.5787 45.2093 74.184 45.372 74.888 45.372ZM90.55 46.5H88.982L86.87 41.516H83.758V46.5H82.278V34.932H86.758C87.59 34.932 88.286 35.06 88.846 35.316C89.406 35.5667 89.8247 35.9293 90.102 36.404C90.3793 36.8733 90.518 37.436 90.518 38.092C90.518 38.7213 90.406 39.244 90.182 39.66C89.9633 40.076 89.6833 40.412 89.342 40.668C89.0007 40.9187 88.646 41.1133 88.278 41.252L90.55 46.5ZM86.278 40.292C87.1473 40.292 87.8193 40.116 88.294 39.764C88.7687 39.4067 89.006 38.8787 89.006 38.18C89.006 37.4973 88.7927 36.988 88.366 36.652C87.9447 36.3107 87.366 36.14 86.63 36.14H83.758V40.292H86.278Z" fill="#636466"/>
<rect x="100" y="25" width="97" height="32" rx="4" fill="#636466"/>
<path d="M109.225 46V35.878H112.704C113.987 35.878 114.946 36.1067 115.581 36.564C116.22 37.0167 116.54 37.67 116.54 38.524C116.54 39.042 116.407 39.49 116.141 39.868C115.875 40.246 115.406 40.5657 114.734 40.827C115.145 40.925 115.483 41.0603 115.749 41.233C116.02 41.401 116.23 41.5947 116.379 41.814C116.528 42.0287 116.633 42.2597 116.694 42.507C116.755 42.7543 116.785 43.0087 116.785 43.27C116.785 44.194 116.463 44.88 115.819 45.328C115.18 45.776 114.188 46 112.844 46H109.225ZM110.926 44.642H112.865C113.584 44.642 114.127 44.5137 114.496 44.257C114.869 43.9957 115.056 43.62 115.056 43.13C115.056 42.7753 114.965 42.4837 114.783 42.255C114.601 42.0217 114.354 41.849 114.041 41.737C113.728 41.625 113.378 41.569 112.991 41.569H110.926V44.642ZM110.926 40.19H112.991C113.229 40.19 113.46 40.1643 113.684 40.113C113.908 40.0617 114.111 39.98 114.293 39.868C114.475 39.756 114.62 39.6067 114.727 39.42C114.839 39.2333 114.895 39.007 114.895 38.741C114.895 38.2323 114.701 37.8543 114.314 37.607C113.931 37.355 113.439 37.229 112.837 37.229H110.926V40.19ZM118.454 46V38.762H120.085V40.33C120.202 39.9707 120.368 39.665 120.582 39.413C120.802 39.1563 121.058 38.9603 121.352 38.825C121.646 38.6897 121.966 38.622 122.311 38.622C122.395 38.622 122.477 38.6267 122.556 38.636C122.636 38.6453 122.694 38.6617 122.731 38.685V40.316C122.68 40.2927 122.612 40.2763 122.528 40.267C122.449 40.2577 122.379 40.253 122.318 40.253C121.968 40.225 121.658 40.239 121.387 40.295C121.121 40.351 120.895 40.4467 120.708 40.582C120.526 40.7127 120.389 40.8807 120.295 41.086C120.202 41.2867 120.155 41.5223 120.155 41.793V46H118.454ZM126.953 46.14C126.263 46.14 125.661 45.993 125.147 45.699C124.634 45.4003 124.235 44.9733 123.95 44.418C123.67 43.8627 123.53 43.1953 123.53 42.416C123.53 41.66 123.666 40.9973 123.936 40.428C124.212 39.8587 124.606 39.4153 125.119 39.098C125.633 38.7807 126.246 38.622 126.96 38.622C127.651 38.622 128.251 38.7737 128.759 39.077C129.268 39.3803 129.66 39.8143 129.935 40.379C130.215 40.9437 130.355 41.6227 130.355 42.416C130.355 43.1487 130.222 43.795 129.956 44.355C129.695 44.9103 129.31 45.3467 128.801 45.664C128.297 45.9813 127.681 46.14 126.953 46.14ZM126.96 44.845C127.352 44.845 127.674 44.7377 127.926 44.523C128.183 44.3083 128.372 44.0143 128.493 43.641C128.619 43.2677 128.682 42.843 128.682 42.367C128.682 41.9237 128.626 41.5153 128.514 41.142C128.407 40.7687 128.225 40.47 127.968 40.246C127.716 40.0173 127.38 39.903 126.96 39.903C126.564 39.903 126.235 40.008 125.973 40.218C125.717 40.4233 125.523 40.7127 125.392 41.086C125.266 41.4547 125.203 41.8817 125.203 42.367C125.203 42.8057 125.259 43.214 125.371 43.592C125.488 43.9653 125.675 44.2687 125.931 44.502C126.188 44.7307 126.531 44.845 126.96 44.845ZM141.365 38.762L139.069 46H137.599L136.115 41.177L134.666 46H133.231L130.935 38.762H132.468L133.98 43.739H134.057L135.52 38.762H136.766L138.271 43.732H138.348L139.804 38.762H141.365ZM145.185 46.14C144.681 46.14 144.203 46.0607 143.75 45.902C143.302 45.7387 142.924 45.4843 142.616 45.139C142.313 44.7937 142.121 44.348 142.042 43.802H143.54C143.605 44.068 143.72 44.285 143.883 44.453C144.051 44.621 144.249 44.7447 144.478 44.824C144.707 44.8987 144.94 44.936 145.178 44.936C145.612 44.936 145.962 44.8613 146.228 44.712C146.499 44.5627 146.634 44.3317 146.634 44.019C146.634 43.7903 146.559 43.6083 146.41 43.473C146.261 43.3377 146.023 43.235 145.696 43.165L144.317 42.85C143.706 42.7147 143.213 42.4907 142.84 42.178C142.471 41.8653 142.285 41.4243 142.28 40.855C142.275 40.4257 142.383 40.043 142.602 39.707C142.821 39.371 143.148 39.1073 143.582 38.916C144.016 38.72 144.553 38.622 145.192 38.622C146.037 38.622 146.713 38.811 147.222 39.189C147.731 39.5623 147.992 40.0967 148.006 40.792H146.557C146.506 40.4793 146.359 40.2367 146.116 40.064C145.873 39.8867 145.558 39.798 145.171 39.798C144.77 39.798 144.441 39.875 144.184 40.029C143.927 40.183 143.799 40.4187 143.799 40.736C143.799 40.9553 143.897 41.128 144.093 41.254C144.289 41.38 144.583 41.4873 144.975 41.576L146.277 41.891C146.65 41.9843 146.956 42.1103 147.194 42.269C147.432 42.4277 147.619 42.6027 147.754 42.794C147.889 42.9807 147.983 43.1743 148.034 43.375C148.09 43.571 148.118 43.753 148.118 43.921C148.118 44.3877 147.997 44.7867 147.754 45.118C147.516 45.4447 147.178 45.6967 146.739 45.874C146.3 46.0513 145.782 46.14 145.185 46.14ZM151.059 42.773C151.054 43.1837 151.12 43.5477 151.255 43.865C151.39 44.1823 151.591 44.432 151.857 44.614C152.123 44.7913 152.452 44.88 152.844 44.88C153.245 44.88 153.593 44.7913 153.887 44.614C154.186 44.432 154.384 44.1567 154.482 43.788H156.043C155.959 44.292 155.758 44.719 155.441 45.069C155.124 45.419 154.739 45.685 154.286 45.867C153.838 46.049 153.371 46.14 152.886 46.14C152.186 46.14 151.57 45.993 151.038 45.699C150.511 45.4003 150.098 44.9757 149.799 44.425C149.505 43.8743 149.358 43.2187 149.358 42.458C149.358 41.716 149.493 41.058 149.764 40.484C150.035 39.9053 150.424 39.4503 150.933 39.119C151.446 38.7877 152.062 38.622 152.781 38.622C153.495 38.622 154.095 38.7737 154.58 39.077C155.07 39.3803 155.439 39.805 155.686 40.351C155.938 40.8923 156.064 41.527 156.064 42.255V42.773H151.059ZM151.059 41.716H154.454C154.454 41.366 154.393 41.051 154.272 40.771C154.151 40.4863 153.964 40.2623 153.712 40.099C153.465 39.931 153.152 39.847 152.774 39.847C152.401 39.847 152.086 39.938 151.829 40.12C151.572 40.302 151.379 40.5377 151.248 40.827C151.117 41.1117 151.054 41.408 151.059 41.716ZM164.868 38.762V39.966H163.237V46H161.536V39.966H160.108V38.762H161.536V37.684C161.536 37.1053 161.694 36.6597 162.012 36.347C162.334 36.0343 162.798 35.878 163.405 35.878H164.931L164.938 37.04H163.93C163.654 37.04 163.465 37.1123 163.363 37.257C163.26 37.397 163.209 37.6187 163.209 37.922V38.762H164.868ZM168.011 38.762V46H166.373V38.762H168.011ZM168.032 35.885V37.495H166.345V35.885H168.032ZM172.206 46.105C171.74 46.105 171.366 46.0467 171.086 45.93C170.806 45.8133 170.596 45.657 170.456 45.461C170.316 45.265 170.225 45.0457 170.183 44.803C170.141 44.5557 170.12 44.3037 170.12 44.047V35.598H171.786V43.851C171.786 44.1637 171.849 44.4063 171.975 44.579C172.106 44.7517 172.316 44.852 172.605 44.88L172.969 44.894V45.965C172.843 46.0023 172.715 46.035 172.584 46.063C172.454 46.091 172.328 46.105 172.206 46.105ZM175.737 42.773C175.732 43.1837 175.797 43.5477 175.933 43.865C176.068 44.1823 176.269 44.432 176.535 44.614C176.801 44.7913 177.13 44.88 177.522 44.88C177.923 44.88 178.271 44.7913 178.565 44.614C178.863 44.432 179.062 44.1567 179.16 43.788H180.721C180.637 44.292 180.436 44.719 180.119 45.069C179.801 45.419 179.416 45.685 178.964 45.867C178.516 46.049 178.049 46.14 177.564 46.14C176.864 46.14 176.248 45.993 175.716 45.699C175.188 45.4003 174.775 44.9757 174.477 44.425C174.183 43.8743 174.036 43.2187 174.036 42.458C174.036 41.716 174.171 41.058 174.442 40.484C174.712 39.9053 175.102 39.4503 175.611 39.119C176.124 38.7877 176.74 38.622 177.459 38.622C178.173 38.622 178.772 38.7737 179.258 39.077C179.748 39.3803 180.116 39.805 180.364 40.351C180.616 40.8923 180.742 41.527 180.742 42.255V42.773H175.737ZM175.737 41.716H179.132C179.132 41.366 179.071 41.051 178.95 40.771C178.828 40.4863 178.642 40.2623 178.39 40.099C178.142 39.931 177.83 39.847 177.452 39.847C177.078 39.847 176.763 39.938 176.507 40.12C176.25 40.302 176.056 40.5377 175.926 40.827C175.795 41.1117 175.732 41.408 175.737 41.716ZM185.025 46.14C184.521 46.14 184.043 46.0607 183.59 45.902C183.142 45.7387 182.764 45.4843 182.456 45.139C182.153 44.7937 181.961 44.348 181.882 43.802H183.38C183.445 44.068 183.56 44.285 183.723 44.453C183.891 44.621 184.089 44.7447 184.318 44.824C184.547 44.8987 184.78 44.936 185.018 44.936C185.452 44.936 185.802 44.8613 186.068 44.712C186.339 44.5627 186.474 44.3317 186.474 44.019C186.474 43.7903 186.399 43.6083 186.25 43.473C186.101 43.3377 185.863 43.235 185.536 43.165L184.157 42.85C183.546 42.7147 183.053 42.4907 182.68 42.178C182.311 41.8653 182.125 41.4243 182.12 40.855C182.115 40.4257 182.223 40.043 182.442 39.707C182.661 39.371 182.988 39.1073 183.422 38.916C183.856 38.72 184.393 38.622 185.032 38.622C185.877 38.622 186.553 38.811 187.062 39.189C187.571 39.5623 187.832 40.0967 187.846 40.792H186.397C186.346 40.4793 186.199 40.2367 185.956 40.064C185.713 39.8867 185.398 39.798 185.011 39.798C184.61 39.798 184.281 39.875 184.024 40.029C183.767 40.183 183.639 40.4187 183.639 40.736C183.639 40.9553 183.737 41.128 183.933 41.254C184.129 41.38 184.423 41.4873 184.815 41.576L186.117 41.891C186.49 41.9843 186.796 42.1103 187.034 42.269C187.272 42.4277 187.459 42.6027 187.594 42.794C187.729 42.9807 187.823 43.1743 187.874 43.375C187.93 43.571 187.958 43.753 187.958 43.921C187.958 44.3877 187.837 44.7867 187.594 45.118C187.356 45.4447 187.018 45.6967 186.579 45.874C186.14 46.0513 185.622 46.14 185.025 46.14Z" fill="white"/>
<path d="M25.028 60.432C25.0653 60.432 25.1773 60.4347 25.364 60.44C25.556 60.44 25.788 60.44 26.06 60.44C26.332 60.4347 26.6147 60.4347 26.908 60.44C27.2013 60.44 27.4707 60.4427 27.716 60.448C29.1347 60.4693 30.284 60.7013 31.164 61.144C32.0493 61.5813 32.6973 62.2187 33.108 63.056C33.524 63.8933 33.732 64.9227 33.732 66.144C33.732 67.424 33.508 68.4987 33.06 69.368C32.6173 70.2373 31.94 70.8933 31.028 71.336C30.1213 71.7787 28.9667 72 27.564 72H25.028V60.432ZM26.548 61.704V70.728H27.564C28.5187 70.728 29.34 70.5813 30.028 70.288C30.716 69.9893 31.244 69.5067 31.612 68.84C31.9853 68.1733 32.172 67.2827 32.172 66.168C32.172 65.0533 31.9907 64.1707 31.628 63.52C31.2707 62.8693 30.7533 62.4053 30.076 62.128C29.3987 61.8453 28.5827 61.704 27.628 61.704H26.548ZM35.8178 72V63.728H37.2258V65.32C37.3644 64.9253 37.5591 64.6 37.8098 64.344C38.0604 64.0827 38.3458 63.888 38.6658 63.76C38.9911 63.632 39.3271 63.568 39.6738 63.568C39.7964 63.568 39.9164 63.576 40.0338 63.592C40.1511 63.608 40.2418 63.6347 40.3058 63.672V65.104C40.2258 65.0667 40.1218 65.0427 39.9938 65.032C39.8711 65.016 39.7671 65.008 39.6818 65.008C39.3511 64.9867 39.0418 65.008 38.7538 65.072C38.4658 65.1307 38.2124 65.2347 37.9938 65.384C37.7751 65.5333 37.6018 65.7307 37.4738 65.976C37.3511 66.216 37.2898 66.5093 37.2898 66.856V72H35.8178ZM44.1058 72.16C43.5724 72.16 43.1004 72.0667 42.6898 71.88C42.2791 71.688 41.9564 71.4133 41.7218 71.056C41.4924 70.6987 41.3778 70.2667 41.3778 69.76C41.3778 68.8427 41.6978 68.16 42.3378 67.712C42.9778 67.264 44.0044 67.024 45.4178 66.992L46.8978 66.952V66.304C46.8978 65.7973 46.7458 65.3973 46.4418 65.104C46.1378 64.8053 45.6658 64.656 45.0258 64.656C44.5511 64.6613 44.1324 64.7733 43.7698 64.992C43.4124 65.2107 43.1804 65.568 43.0738 66.064H41.7697C41.8018 65.5253 41.9538 65.072 42.2258 64.704C42.4978 64.3307 42.8764 64.048 43.3618 63.856C43.8524 63.664 44.4311 63.568 45.0978 63.568C45.8178 63.568 46.4151 63.6693 46.8898 63.872C47.3698 64.0747 47.7271 64.3733 47.9618 64.768C48.2018 65.1627 48.3218 65.648 48.3218 66.224V72H47.0578L46.9538 70.448C46.6338 71.0933 46.2258 71.5413 45.7298 71.792C45.2391 72.0373 44.6978 72.16 44.1058 72.16ZM44.5538 71.096C44.8311 71.096 45.1058 71.0453 45.3778 70.944C45.6551 70.8427 45.9084 70.7067 46.1378 70.536C46.3671 70.36 46.5484 70.1653 46.6818 69.952C46.8204 69.7333 46.8924 69.5093 46.8978 69.28V67.864L45.6658 67.888C45.0364 67.8987 44.5084 67.9627 44.0818 68.08C43.6604 68.1973 43.3431 68.3813 43.1298 68.632C42.9218 68.8827 42.8178 69.2107 42.8178 69.616C42.8178 70.08 42.9778 70.4427 43.2978 70.704C43.6231 70.9653 44.0418 71.096 44.5538 71.096ZM54.337 74.736C53.0357 74.736 52.0223 74.5467 51.297 74.168C50.577 73.7947 50.217 73.2587 50.217 72.56C50.217 72.2613 50.2863 72.008 50.425 71.8C50.5637 71.5867 50.729 71.4107 50.921 71.272C51.113 71.1333 51.2917 71.024 51.457 70.944C51.6223 70.8587 51.729 70.7973 51.777 70.76C51.6863 70.7067 51.5717 70.64 51.433 70.56C51.2997 70.48 51.1823 70.3733 51.081 70.24C50.9797 70.1067 50.929 69.9333 50.929 69.72C50.929 69.4587 51.0517 69.2187 51.297 69C51.5423 68.7813 51.905 68.6187 52.385 68.512C51.8997 68.2667 51.521 67.9413 51.249 67.536C50.977 67.1307 50.841 66.6907 50.841 66.216C50.841 65.6827 50.985 65.2187 51.273 64.824C51.5663 64.4293 51.9823 64.128 52.521 63.92C53.0597 63.7067 53.6997 63.6 54.441 63.6C54.9797 63.6 55.433 63.664 55.801 63.792C56.169 63.9147 56.5103 64.0907 56.825 64.32C56.9103 64.2827 57.0437 64.2267 57.225 64.152C57.4117 64.072 57.617 63.9867 57.841 63.896C58.065 63.8053 58.273 63.72 58.465 63.64C58.6623 63.5547 58.8197 63.4907 58.937 63.448L58.929 64.816L57.481 65.088C57.561 65.2587 57.625 65.4453 57.673 65.648C57.7263 65.8507 57.753 66.04 57.753 66.216C57.753 66.7013 57.625 67.1413 57.369 67.536C57.1183 67.9307 56.737 68.2453 56.225 68.48C55.713 68.7147 55.073 68.832 54.305 68.832C54.241 68.832 54.1583 68.832 54.057 68.832C53.961 68.8267 53.8783 68.8213 53.809 68.816C53.2437 68.832 52.8543 68.896 52.641 69.008C52.4277 69.1147 52.321 69.2347 52.321 69.368C52.321 69.5227 52.441 69.6293 52.681 69.688C52.921 69.7467 53.329 69.7973 53.905 69.84C54.113 69.8507 54.369 69.864 54.673 69.88C54.9823 69.896 55.3237 69.9173 55.697 69.944C56.5663 69.9973 57.2357 70.2187 57.705 70.608C58.1743 70.9973 58.409 71.5227 58.409 72.184C58.409 72.936 58.073 73.5493 57.401 74.024C56.729 74.4987 55.7077 74.736 54.337 74.736ZM54.601 73.784C55.3637 73.784 55.9477 73.6693 56.353 73.44C56.7583 73.2107 56.961 72.864 56.961 72.4C56.961 72.0693 56.8357 71.8 56.585 71.592C56.3397 71.3787 55.9637 71.256 55.457 71.224L53.137 71.072C52.929 71.0613 52.713 71.1147 52.489 71.232C52.265 71.344 52.073 71.5013 51.913 71.704C51.7583 71.9067 51.681 72.136 51.681 72.392C51.681 72.8293 51.9183 73.1707 52.393 73.416C52.873 73.6613 53.609 73.784 54.601 73.784ZM54.345 67.88C54.9423 67.88 55.4223 67.7413 55.785 67.464C56.153 67.1867 56.337 66.776 56.337 66.232C56.337 65.672 56.153 65.2453 55.785 64.952C55.4223 64.6587 54.9423 64.512 54.345 64.512C53.7423 64.512 53.2543 64.6613 52.881 64.96C52.513 65.2533 52.329 65.6773 52.329 66.232C52.329 66.7547 52.505 67.16 52.857 67.448C53.209 67.736 53.705 67.88 54.345 67.88ZM66.762 72.16C66.2287 72.16 65.7567 72.0667 65.346 71.88C64.9353 71.688 64.6127 71.4133 64.378 71.056C64.1487 70.6987 64.034 70.2667 64.034 69.76C64.034 68.8427 64.354 68.16 64.994 67.712C65.634 67.264 66.6607 67.024 68.074 66.992L69.554 66.952V66.304C69.554 65.7973 69.402 65.3973 69.098 65.104C68.794 64.8053 68.322 64.656 67.682 64.656C67.2073 64.6613 66.7887 64.7733 66.426 64.992C66.0687 65.2107 65.8367 65.568 65.73 66.064H64.426C64.458 65.5253 64.61 65.072 64.882 64.704C65.154 64.3307 65.5327 64.048 66.018 63.856C66.5087 63.664 67.0873 63.568 67.754 63.568C68.474 63.568 69.0713 63.6693 69.546 63.872C70.026 64.0747 70.3833 64.3733 70.618 64.768C70.858 65.1627 70.978 65.648 70.978 66.224V72H69.714L69.61 70.448C69.29 71.0933 68.882 71.5413 68.386 71.792C67.8953 72.0373 67.354 72.16 66.762 72.16ZM67.21 71.096C67.4873 71.096 67.762 71.0453 68.034 70.944C68.3113 70.8427 68.5647 70.7067 68.794 70.536C69.0233 70.36 69.2047 70.1653 69.338 69.952C69.4767 69.7333 69.5487 69.5093 69.554 69.28V67.864L68.322 67.888C67.6927 67.8987 67.1647 67.9627 66.738 68.08C66.3167 68.1973 65.9993 68.3813 65.786 68.632C65.578 68.8827 65.474 69.2107 65.474 69.616C65.474 70.08 65.634 70.4427 65.954 70.704C66.2793 70.9653 66.698 71.096 67.21 71.096ZM73.5053 72V63.728H74.9373V64.928C75.0706 64.6987 75.2546 64.4827 75.4893 64.28C75.7293 64.0773 76.0173 63.9147 76.3533 63.792C76.6946 63.6693 77.0866 63.608 77.5293 63.608C78.0519 63.608 78.5319 63.712 78.9693 63.92C79.4119 64.128 79.7639 64.4533 80.0253 64.896C80.2919 65.3333 80.4253 65.8987 80.4253 66.592V72H78.9453V66.736C78.9453 66.0907 78.7746 65.6133 78.4333 65.304C78.0973 64.9893 77.6599 64.832 77.1213 64.832C76.7479 64.832 76.3986 64.8933 76.0733 65.016C75.7479 65.1333 75.4839 65.3147 75.2813 65.56C75.0786 65.8 74.9773 66.104 74.9773 66.472V72H73.5053ZM85.7236 72.16C84.6516 72.16 83.801 71.792 83.1716 71.056C82.5423 70.32 82.2276 69.2453 82.2276 67.832C82.2276 66.9733 82.353 66.224 82.6036 65.584C82.8596 64.944 83.2383 64.448 83.7396 64.096C84.241 63.744 84.865 63.568 85.6116 63.568C86.0063 63.568 86.3556 63.6187 86.6596 63.72C86.969 63.8213 87.2356 63.9493 87.4596 64.104C87.6836 64.2587 87.865 64.4187 88.0036 64.584C88.1476 64.7493 88.2543 64.9013 88.3236 65.04V60.112H89.8116V72H88.6836L88.5236 70.304C88.4703 70.464 88.385 70.6507 88.2676 70.864C88.1503 71.072 87.985 71.2773 87.7716 71.48C87.5583 71.6773 87.2836 71.84 86.9476 71.968C86.617 72.096 86.209 72.16 85.7236 72.16ZM85.9876 71.024C86.825 71.024 87.4223 70.7707 87.7796 70.264C88.1423 69.752 88.3236 68.9173 88.3236 67.76C88.3183 67.1147 88.2356 66.5653 88.0756 66.112C87.921 65.6587 87.6756 65.3147 87.3396 65.08C87.009 64.84 86.569 64.72 86.0196 64.72C85.337 64.72 84.7823 64.9627 84.3556 65.448C83.929 65.9333 83.7156 66.704 83.7156 67.76C83.7156 68.7947 83.9076 69.5973 84.2916 70.168C84.681 70.7387 85.2463 71.024 85.9876 71.024ZM98.7236 72.16C97.6516 72.16 96.801 71.792 96.1716 71.056C95.5423 70.32 95.2276 69.2453 95.2276 67.832C95.2276 66.9733 95.353 66.224 95.6036 65.584C95.8596 64.944 96.2383 64.448 96.7396 64.096C97.241 63.744 97.865 63.568 98.6116 63.568C99.0063 63.568 99.3556 63.6187 99.6596 63.72C99.969 63.8213 100.236 63.9493 100.46 64.104C100.684 64.2587 100.865 64.4187 101.004 64.584C101.148 64.7493 101.254 64.9013 101.324 65.04V60.112H102.812V72H101.684L101.524 70.304C101.47 70.464 101.385 70.6507 101.268 70.864C101.15 71.072 100.985 71.2773 100.772 71.48C100.558 71.6773 100.284 71.84 99.9476 71.968C99.617 72.096 99.209 72.16 98.7236 72.16ZM98.9876 71.024C99.825 71.024 100.422 70.7707 100.78 70.264C101.142 69.752 101.324 68.9173 101.324 67.76C101.318 67.1147 101.236 66.5653 101.076 66.112C100.921 65.6587 100.676 65.3147 100.34 65.08C100.009 64.84 99.569 64.72 99.0196 64.72C98.337 64.72 97.7823 64.9627 97.3556 65.448C96.929 65.9333 96.7156 66.704 96.7156 67.76C96.7156 68.7947 96.9076 69.5973 97.2916 70.168C97.681 70.7387 98.2463 71.024 98.9876 71.024ZM105.349 72V63.728H106.757V65.32C106.896 64.9253 107.09 64.6 107.341 64.344C107.592 64.0827 107.877 63.888 108.197 63.76C108.522 63.632 108.858 63.568 109.205 63.568C109.328 63.568 109.448 63.576 109.565 63.592C109.682 63.608 109.773 63.6347 109.837 63.672V65.104C109.757 65.0667 109.653 65.0427 109.525 65.032C109.402 65.016 109.298 65.008 109.213 65.008C108.882 64.9867 108.573 65.008 108.285 65.072C107.997 65.1307 107.744 65.2347 107.525 65.384C107.306 65.5333 107.133 65.7307 107.005 65.976C106.882 66.216 106.821 66.5093 106.821 66.856V72H105.349ZM114.668 72.16C113.906 72.16 113.239 71.9973 112.668 71.672C112.098 71.3413 111.655 70.8587 111.34 70.224C111.026 69.5893 110.868 68.8133 110.868 67.896C110.868 67.032 111.015 66.2747 111.308 65.624C111.602 64.9733 112.031 64.4693 112.596 64.112C113.167 63.7493 113.858 63.568 114.668 63.568C115.431 63.568 116.092 63.736 116.652 64.072C117.218 64.4027 117.655 64.8907 117.964 65.536C118.274 66.1813 118.428 66.968 118.428 67.896C118.428 68.7387 118.284 69.48 117.996 70.12C117.714 70.76 117.292 71.2613 116.732 71.624C116.178 71.9813 115.49 72.16 114.668 72.16ZM114.668 70.992C115.164 70.992 115.583 70.8667 115.924 70.616C116.266 70.3653 116.524 70.0053 116.7 69.536C116.876 69.0667 116.964 68.5093 116.964 67.864C116.964 67.272 116.887 66.7413 116.732 66.272C116.578 65.7973 116.33 65.4213 115.988 65.144C115.652 64.8667 115.212 64.728 114.668 64.728C114.167 64.728 113.743 64.8533 113.396 65.104C113.05 65.3493 112.786 65.7067 112.604 66.176C112.428 66.6453 112.34 67.208 112.34 67.864C112.34 68.4453 112.42 68.9733 112.58 69.448C112.74 69.9227 112.991 70.2987 113.332 70.576C113.674 70.8533 114.119 70.992 114.668 70.992ZM120.365 74.576V63.728H121.837L121.853 65.168C121.949 64.9973 122.071 64.8187 122.221 64.632C122.375 64.4453 122.562 64.272 122.781 64.112C123.005 63.952 123.263 63.8213 123.557 63.72C123.855 63.6187 124.194 63.568 124.573 63.568C125.234 63.568 125.815 63.72 126.317 64.024C126.823 64.3227 127.218 64.7813 127.501 65.4C127.783 66.0187 127.925 66.8027 127.925 67.752C127.925 68.7013 127.786 69.504 127.509 70.16C127.237 70.8107 126.842 71.3067 126.325 71.648C125.807 71.9893 125.183 72.16 124.453 72.16C124.085 72.16 123.757 72.1067 123.469 72C123.186 71.8987 122.938 71.7653 122.725 71.6C122.517 71.4293 122.341 71.248 122.197 71.056C122.058 70.864 121.943 70.68 121.853 70.504V74.576H120.365ZM124.173 71.008C124.855 71.008 125.413 70.7493 125.845 70.232C126.277 69.7093 126.493 68.8987 126.493 67.8C126.493 66.856 126.295 66.1067 125.901 65.552C125.506 64.9973 124.93 64.72 124.173 64.72C123.405 64.72 122.823 65.0053 122.429 65.576C122.034 66.1413 121.837 66.8827 121.837 67.8C121.837 68.392 121.925 68.9307 122.101 69.416C122.277 69.9013 122.538 70.288 122.885 70.576C123.231 70.864 123.661 71.008 124.173 71.008ZM138.037 63.728V64.808H136.029V72H134.541V64.808H132.797V63.728H134.541V62.448C134.541 61.792 134.709 61.2933 135.045 60.952C135.381 60.6053 135.882 60.432 136.549 60.432H138.109L138.117 61.48H136.877C136.541 61.48 136.311 61.5707 136.189 61.752C136.066 61.9333 136.005 62.208 136.005 62.576V63.728H138.037ZM141.461 63.728V72H140.029V63.728H141.461ZM141.493 60.44V61.976H139.981V60.44H141.493ZM146.25 72.104C145.802 72.104 145.439 72.0427 145.162 71.92C144.89 71.7973 144.679 71.632 144.53 71.424C144.386 71.216 144.287 70.9787 144.234 70.712C144.186 70.44 144.162 70.16 144.162 69.872V60.112H145.618V69.728C145.618 70.144 145.698 70.456 145.858 70.664C146.023 70.872 146.252 70.9867 146.546 71.008L146.994 71.016V71.976C146.871 72.0133 146.743 72.0427 146.61 72.064C146.476 72.0907 146.356 72.104 146.25 72.104ZM149.858 68.208C149.858 68.7307 149.943 69.2053 150.114 69.632C150.29 70.0533 150.554 70.3893 150.906 70.64C151.263 70.8907 151.709 71.016 152.242 71.016C152.77 71.016 153.223 70.8933 153.602 70.648C153.986 70.4027 154.231 70.048 154.338 69.584H155.738C155.637 70.144 155.413 70.616 155.066 71C154.719 71.384 154.301 71.6747 153.81 71.872C153.319 72.064 152.807 72.16 152.274 72.16C151.501 72.16 150.821 71.992 150.234 71.656C149.647 71.32 149.189 70.8373 148.858 70.208C148.527 69.5787 148.362 68.824 148.362 67.944C148.362 67.0747 148.511 66.312 148.81 65.656C149.109 65 149.541 64.488 150.106 64.12C150.677 63.752 151.362 63.568 152.162 63.568C152.941 63.568 153.599 63.736 154.138 64.072C154.677 64.408 155.085 64.8827 155.362 65.496C155.645 66.104 155.786 66.8267 155.786 67.664V68.208H149.858ZM149.866 67.208H154.362C154.362 66.7333 154.282 66.3067 154.122 65.928C153.962 65.544 153.717 65.2427 153.386 65.024C153.061 64.8 152.65 64.688 152.154 64.688C151.637 64.688 151.207 64.8133 150.866 65.064C150.53 65.3093 150.277 65.6267 150.106 66.016C149.941 66.4 149.861 66.7973 149.866 67.208ZM160.707 72.16C160.131 72.16 159.595 72.072 159.099 71.896C158.608 71.7147 158.2 71.4347 157.875 71.056C157.55 70.672 157.344 70.184 157.259 69.592H158.603C158.678 69.9173 158.811 70.1893 159.003 70.408C159.2 70.6213 159.446 70.784 159.739 70.896C160.032 71.0027 160.352 71.056 160.699 71.056C161.254 71.056 161.702 70.952 162.043 70.744C162.384 70.536 162.555 70.216 162.555 69.784C162.555 69.48 162.464 69.2373 162.283 69.056C162.107 68.8693 161.832 68.7333 161.459 68.648L159.747 68.224C159.08 68.064 158.547 67.8133 158.147 67.472C157.747 67.1307 157.547 66.6533 157.547 66.04C157.542 65.5547 157.656 65.128 157.891 64.76C158.126 64.392 158.478 64.1013 158.947 63.888C159.416 63.6747 160 63.568 160.699 63.568C161.595 63.568 162.318 63.7707 162.867 64.176C163.422 64.576 163.71 65.1653 163.731 65.944H162.427C162.374 65.5493 162.195 65.2373 161.891 65.008C161.592 64.7733 161.19 64.656 160.683 64.656C160.155 64.656 159.726 64.7627 159.395 64.976C159.064 65.184 158.899 65.5093 158.899 65.952C158.899 66.2453 159.016 66.4773 159.251 66.648C159.486 66.8133 159.832 66.952 160.291 67.064L161.947 67.48C162.331 67.5813 162.646 67.7147 162.891 67.88C163.142 68.0453 163.339 68.2293 163.483 68.432C163.632 68.6347 163.736 68.848 163.795 69.072C163.859 69.2907 163.891 69.5013 163.891 69.704C163.891 70.2107 163.763 70.648 163.507 71.016C163.256 71.3787 162.894 71.6613 162.419 71.864C161.95 72.0613 161.379 72.16 160.707 72.16ZM169.583 72V60.112H171.023V64.944C171.162 64.7147 171.349 64.5013 171.583 64.304C171.818 64.1013 172.103 63.9387 172.439 63.816C172.775 63.688 173.165 63.624 173.607 63.624C174.146 63.624 174.634 63.7253 175.071 63.928C175.509 64.1253 175.855 64.408 176.111 64.776C176.367 65.144 176.495 65.5813 176.495 66.088V72H175.015V66.384C175.015 65.888 174.845 65.5067 174.503 65.24C174.167 64.968 173.727 64.832 173.183 64.832C172.815 64.832 172.469 64.8933 172.143 65.016C171.818 65.1333 171.554 65.3147 171.351 65.56C171.154 65.8 171.055 66.1067 171.055 66.48V72H169.583ZM179.858 68.208C179.858 68.7307 179.943 69.2053 180.114 69.632C180.29 70.0533 180.554 70.3893 180.906 70.64C181.263 70.8907 181.709 71.016 182.242 71.016C182.77 71.016 183.223 70.8933 183.602 70.648C183.986 70.4027 184.231 70.048 184.338 69.584H185.738C185.637 70.144 185.413 70.616 185.066 71C184.719 71.384 184.301 71.6747 183.81 71.872C183.319 72.064 182.807 72.16 182.274 72.16C181.501 72.16 180.821 71.992 180.234 71.656C179.647 71.32 179.189 70.8373 178.858 70.208C178.527 69.5787 178.362 68.824 178.362 67.944C178.362 67.0747 178.511 66.312 178.81 65.656C179.109 65 179.541 64.488 180.106 64.12C180.677 63.752 181.362 63.568 182.162 63.568C182.941 63.568 183.599 63.736 184.138 64.072C184.677 64.408 185.085 64.8827 185.362 65.496C185.645 66.104 185.786 66.8267 185.786 67.664V68.208H179.858ZM179.866 67.208H184.362C184.362 66.7333 184.282 66.3067 184.122 65.928C183.962 65.544 183.717 65.2427 183.386 65.024C183.061 64.8 182.65 64.688 182.154 64.688C181.637 64.688 181.207 64.8133 180.866 65.064C180.53 65.3093 180.277 65.6267 180.106 66.016C179.941 66.4 179.861 66.7973 179.866 67.208ZM187.818 72V63.728H189.226V65.32C189.364 64.9253 189.559 64.6 189.81 64.344C190.06 64.0827 190.346 63.888 190.666 63.76C190.991 63.632 191.327 63.568 191.674 63.568C191.796 63.568 191.916 63.576 192.034 63.592C192.151 63.608 192.242 63.6347 192.306 63.672V65.104C192.226 65.0667 192.122 65.0427 191.994 65.032C191.871 65.016 191.767 65.008 191.682 65.008C191.351 64.9867 191.042 65.008 190.754 65.072C190.466 65.1307 190.212 65.2347 189.994 65.384C189.775 65.5333 189.602 65.7307 189.474 65.976C189.351 66.216 189.29 66.5093 189.29 66.856V72H187.818ZM194.905 68.208C194.905 68.7307 194.99 69.2053 195.161 69.632C195.337 70.0533 195.601 70.3893 195.953 70.64C196.31 70.8907 196.756 71.016 197.289 71.016C197.817 71.016 198.27 70.8933 198.649 70.648C199.033 70.4027 199.278 70.048 199.385 69.584H200.785C200.684 70.144 200.46 70.616 200.113 71C199.766 71.384 199.348 71.6747 198.857 71.872C198.366 72.064 197.854 72.16 197.321 72.16C196.548 72.16 195.868 71.992 195.281 71.656C194.694 71.32 194.236 70.8373 193.905 70.208C193.574 69.5787 193.409 68.824 193.409 67.944C193.409 67.0747 193.558 66.312 193.857 65.656C194.156 65 194.588 64.488 195.153 64.12C195.724 63.752 196.409 63.568 197.209 63.568C197.988 63.568 198.646 63.736 199.185 64.072C199.724 64.408 200.132 64.8827 200.409 65.496C200.692 66.104 200.833 66.8267 200.833 67.664V68.208H194.905ZM194.913 67.208H199.409C199.409 66.7333 199.329 66.3067 199.169 65.928C199.009 65.544 198.764 65.2427 198.433 65.024C198.108 64.8 197.697 64.688 197.201 64.688C196.684 64.688 196.254 64.8133 195.913 65.064C195.577 65.3093 195.324 65.6267 195.153 66.016C194.988 66.4 194.908 66.7973 194.913 67.208Z" fill="#636466"/>
</svg>
