<svg width="555" height="618" viewBox="0 0 555 618" fill="none" xmlns="http://www.w3.org/2000/svg">
<path d="M503.369 46.4454C512.017 52.2163 516.681 63.7148 514.476 74.0417C508.668 72.8268 503.284 68.9217 500.825 63.4111C498.366 57.9005 499.214 50.7845 503.369 46.4454Z" fill="#00C6D0"/>
<path d="M481.619 74.4757C479.754 69.399 477.846 64.1053 478.228 58.6815C478.652 53.2577 482.086 47.6603 487.3 46.7057C491.54 50.4807 493.533 56.6856 492.388 62.2829C491.243 67.9237 486.961 72.74 481.619 74.4757Z" fill="#00C6D0"/>
<path d="M539.617 41.8026C535.42 37.2032 530.968 32.4303 525.075 30.5645C519.224 28.6987 511.593 31.0418 509.728 36.9863C518.334 43.0176 529.612 44.7966 539.617 41.7592V41.8026Z" fill="#00C6D0"/>
<path d="M37.3085 43.8854C48.5859 45.0569 59.3121 33.2113 57.2347 21.7996C51.8928 20.9752 46.6356 24.2729 43.4135 28.6987C40.1914 33.1245 38.7076 38.5917 37.2661 43.8854H37.3085Z" fill="#00C6D0"/>
<path d="M75.7193 34.2527C75.5497 31.8662 75.1682 29.4797 74.617 27.18C74.1931 25.4878 73.2604 23.4485 71.5221 23.4485C66.0106 31.3889 64.3148 41.9762 67.1553 51.3051C73.7267 49.6129 76.2281 41.1952 75.7193 34.2527Z" fill="#00C6D0"/>
<path d="M284.393 86.1477C286.343 81.2012 287.742 75.7774 286.64 70.5705C285.58 65.3637 281.552 60.5039 276.338 59.9832C271.971 63.7148 270.148 70.2668 271.844 75.8208C273.539 81.3747 278.712 85.627 284.35 86.1911L284.393 86.1477Z" fill="#00C6D0"/>
<path d="M253.104 76.2547C259.633 73.1306 263.619 65.2769 262.347 57.9873C254.758 57.6836 247.296 63.281 245.346 70.8309C244.964 72.2628 244.795 73.8248 245.515 75.1265C246.872 77.6432 250.561 77.4696 253.104 76.2547Z" fill="#00C6D0"/>
<path d="M176.24 64.0619C174.248 60.5039 169.33 59.9398 166.532 62.8036C163.734 65.6674 164.327 70.7007 167.761 72.74C169.033 73.4777 170.305 74.0417 171.831 73.8248C175.096 73.3909 176.876 71.5685 177.3 68.2274C177.512 66.7087 176.961 65.3636 176.24 64.0619Z" fill="#FFD912"/>
<path d="M358.628 78.077L358.289 77.6865C355.364 74.5624 350.064 74.5624 347.139 77.6865C347.012 77.8167 346.927 77.9469 346.8 78.077C341.797 83.4141 345.316 92.6996 352.693 92.6996C360.07 92.6996 363.589 83.4141 358.586 78.077H358.628Z" fill="#FFD912"/>
<path d="M409.292 56.6856C409.037 56.9025 408.783 57.1195 408.528 57.3364C406.536 59.0287 406.536 62.9338 408.528 64.626C408.783 64.843 409.037 65.0599 409.292 65.2769C413.15 68.5746 419.467 66.622 419.467 60.9812C419.467 55.3405 413.15 53.3879 409.292 56.6856Z" fill="#FFD912"/>
<path d="M535.038 187.204C526.39 187.204 526.39 200.915 535.038 200.915C543.687 200.915 543.687 187.204 535.038 187.204Z" fill="#FFD912"/>
<path d="M525.626 337.552C525.16 335.513 522.532 333.69 520.496 334.558C520.285 334.645 520.073 334.732 519.861 334.818C516.172 336.38 516.172 340.936 519.861 342.499C520.073 342.585 520.285 342.672 520.496 342.759C522.532 343.627 525.16 341.848 525.626 339.765C525.796 338.941 525.796 338.333 525.626 337.509V337.552Z" fill="#FFD912"/>
<path d="M539.278 477.226C527.958 477.226 527.958 495.19 539.278 495.19C550.598 495.19 550.598 477.226 539.278 477.226Z" fill="#FFD912"/>
<path d="M503.962 595.639C496.076 595.639 496.076 608.178 503.962 608.178C511.848 608.178 511.848 595.639 503.962 595.639Z" fill="#FFD912"/>
<path d="M337.897 573.509C337.897 573.509 337.769 573.119 337.685 572.945C336.116 568.693 332.173 565.699 327.552 567.044C327.382 567.088 327.213 567.131 327.043 567.174C321.744 568.736 318.691 575.419 321.786 580.408C321.956 580.669 322.083 580.886 322.252 581.146C323.567 583.272 326.068 585.138 328.697 584.921C328.951 584.921 329.163 584.921 329.417 584.878C331.834 584.661 333.869 584.053 335.65 582.231C337.727 580.105 338.999 576.416 337.897 573.466V573.509Z" fill="#FFD912"/>
<path d="M218.467 598.198C213.761 598.198 213.761 605.662 218.467 605.662C223.173 605.662 223.173 598.198 218.467 598.198Z" fill="#FFD912"/>
<path d="M98.3588 568.259C88.7349 568.259 88.7349 583.533 98.3588 583.533C107.983 583.533 107.983 568.259 98.3588 568.259Z" fill="#FFD912"/>
<path d="M19.2053 517.275C14.6265 517.275 14.6265 524.565 19.2053 524.565C23.7841 524.565 23.7841 517.275 19.2053 517.275Z" fill="#FFD912"/>
<path d="M33.3658 377.428C30.1013 377.428 27.3879 380.205 27.3879 383.546C27.3879 386.887 30.1013 389.664 33.3658 389.664C36.6303 389.664 39.3436 386.887 39.3436 383.546C39.3436 380.205 36.6303 377.428 33.3658 377.428Z" fill="#FFD912"/>
<path d="M14.9657 285.353C11.5316 285.353 11.5316 290.777 14.9657 290.777C18.3998 290.777 18.3998 285.353 14.9657 285.353Z" fill="#FFD912"/>
<path d="M44.2191 146.808C39.0044 143.683 32.9417 146.721 31.1187 152.275L30.8643 153.056C28.0662 161.473 39.7251 168.373 45.491 161.777C45.6605 161.56 45.8725 161.343 46.0421 161.17C49.8577 156.831 49.3914 149.932 44.2191 146.851V146.808Z" fill="#FFD912"/>
<path d="M39.544 59.949C39.544 59.949 28.3413 583.484 52.9532 588.39C77.5652 593.339 93.2235 548.879 120.042 548.879C146.861 548.879 142.405 585.915 167.017 588.39C191.629 590.865 205.038 551.354 234.106 556.304C263.173 561.253 278.832 595.814 301.195 593.339C323.558 590.865 330.262 548.879 359.372 553.829C388.44 558.779 388.44 595.814 419.757 593.339C451.073 590.865 448.824 556.304 473.436 556.304C498.048 556.304 480.141 600.764 513.706 595.814C547.272 590.865 527.116 59.949 507.002 59.949C486.888 59.949 482.39 92.0349 466.731 92.0349C451.073 92.0349 428.71 42.6252 408.554 45.1C388.44 47.5748 370.533 79.6608 350.376 79.6608C330.22 79.6608 325.764 47.5748 312.355 47.5748C298.946 47.5748 289.992 82.1356 269.836 84.6104C249.722 87.0852 254.177 37.6755 229.565 40.1503C204.953 42.6252 202.704 84.6104 175.886 84.6104C149.067 84.6104 155.772 32.7693 135.616 40.1503C115.502 47.5748 117.708 74.7111 97.5943 79.6608C77.4803 84.6104 46.1637 15.4455 39.4167 59.9056L39.544 59.949Z" fill="white"/>
</svg>
