<svg width="562" height="530" viewBox="0 0 562 530" fill="none" xmlns="http://www.w3.org/2000/svg">
<g clip-path="url(#clip0_44_1482)">
<path opacity="0.17" d="M562 508.482C562 508.482 534.979 490.555 451.157 490.555C367.336 490.555 327.671 508.482 327.671 508.482C327.671 508.482 381.2 530 451.157 530C521.114 530 562 508.482 562 508.482Z" fill="black"/>
<path d="M489.138 460.514L491.604 473.312L506.786 470.772L504.003 456.801L489.138 460.514Z" fill="#3A3C41"/>
<path d="M506.42 465.667C496.461 473.947 490.407 468.232 490.407 468.232C487.698 473.483 481.303 490.702 464.485 495.611C460.799 496.686 452.182 499.69 453.598 507.701L453.964 510.07C454.16 511.193 454.819 513.441 455.356 514.295C466.413 514.491 478.154 513.929 489.211 514.198C494.728 511.658 498.292 511.34 500.049 511.462C501.172 511.535 502.27 511.462 503.344 511.169L516.647 507.457C517.819 507.139 518.356 505.625 518.185 503.915C517.233 495.123 512.303 468.696 506.469 465.692L506.42 465.667Z" fill="#392F2B"/>
<path d="M496.339 475.559C501.904 475.73 506.273 473.092 509.471 468.916C510.472 467.743 507.567 464.324 506.322 465.203C496.363 473.483 490.31 467.768 490.31 467.768C488.65 467.304 486.404 471.895 487.942 472.628C490.188 474.362 492.922 475.437 496.339 475.559Z" fill="white"/>
<path d="M491.091 481.421C490.407 480.077 487.551 477.513 486.307 476.365C481.303 480.541 475.322 486.257 468.39 494.17C471.637 499.47 475.396 504.672 480.18 502.108C483.866 500.129 486.892 496.588 489.358 492.411C490.896 489.822 493.117 485.451 491.066 481.421H491.091Z" fill="white"/>
<path d="M455.307 516.42C474.419 521.134 509.642 512.976 518.063 506.602C518.747 506.089 518.747 504.062 518.673 503.524C518.551 502.303 518.185 500.398 517.477 499.152C516.647 499.494 516.062 499.836 515.232 500.178C509.447 503.329 503.491 505.503 497.34 507.97C488.918 511.364 463.875 513.563 453.94 510.07L454.16 511.267C454.428 512.976 454.892 514.833 455.331 516.396L455.307 516.42Z" fill="white"/>
<path d="M420.255 463.469L420.426 476.512L435.828 476.707L435.535 462.468L420.255 463.469Z" fill="#3A3C41"/>
<path d="M436.341 471.602C425.088 477.977 420.109 471.285 420.109 471.285C416.496 475.974 407.172 491.801 389.743 493.633C385.936 494.023 377.563 495.611 377.514 503.744V507.359C377.514 508.482 377.71 509.557 378.1 510.485C388.962 512.635 399.922 514.1 410.76 516.298C416.643 514.784 420.182 515.101 421.915 515.517C423.013 515.785 424.112 515.907 425.21 515.81L439.636 514.442C440.832 514.32 441.833 512.976 441.931 511.267C442.541 502.45 441.516 475.583 436.292 471.602H436.341Z" fill="#392F2B"/>
<path d="M424.429 479.76C429.872 480.932 434.657 479.076 438.538 475.559C439.734 474.582 437.464 470.699 436.097 471.358C424.844 477.733 419.864 471.041 419.864 471.041C418.327 470.308 415.3 474.411 416.691 475.412C418.595 477.513 421.085 479.052 424.429 479.76Z" fill="white"/>
<path d="M419.62 484.62C419.181 483.179 416.008 479.149 415.007 477.806C409.344 481.03 403.022 486.012 394.796 492.558C397.066 498.347 400.069 504.746 405.243 503.06C409.222 501.766 412.835 498.811 416.008 495.123C417.985 492.827 420.938 488.919 419.645 484.596L419.62 484.62Z" fill="white"/>
<path d="M377.783 512.635C395.773 520.646 431.874 518.863 441.272 514.076C442.028 513.685 442.37 511.706 442.419 511.169C442.517 509.948 442.736 508.043 442.248 506.7C441.369 506.895 440.491 507.09 439.636 507.286C433.387 509.362 427.139 510.436 420.646 511.804C411.736 513.66 386.717 511.365 377.563 506.187V507.408C377.515 509.142 377.637 511.047 377.807 512.659L377.783 512.635Z" fill="white"/>
<path d="M504.882 327.281C504.882 327.281 503.418 363.771 500.025 400.724C498.365 418.749 510.252 444.418 508.519 459.586L484.403 465.008C484.403 465.008 467.634 432.915 462.752 402.531C458.212 374.248 453.037 346.454 449.937 343.132C443.542 336.245 440.442 465.765 440.442 465.765L415.178 464.788C415.178 464.788 398.824 410.347 397.384 327.306H504.858L504.882 327.281Z" fill="#4C2B1F"/>
<path opacity="0.1" d="M444.152 339.151C428.627 339.005 413.128 340.421 397.847 343.034C397.652 338.076 397.506 333.021 397.408 327.843H504.882C504.882 327.843 504.589 335.292 503.93 346.869C484.769 340.983 463.484 339.322 444.152 339.151Z" fill="black"/>
<path opacity="0.1" d="M425.039 403.264C431.581 403.142 438.001 401.212 443.053 397.28C441.32 430.155 440.466 465.765 440.466 465.765L415.202 465.081C415.202 465.081 407.025 437.36 401.729 392.176C407.562 398.794 414.958 403.459 425.064 403.288L425.039 403.264Z" fill="black"/>
<path opacity="0.1" d="M478.618 403.508C486.746 403.704 494.386 400.651 500.513 395.619C500.367 397.402 500.196 399.21 500.025 400.993C498.365 419.018 510.252 444.541 508.519 459.708L484.403 465.057C484.403 465.057 467.634 432.939 462.752 402.556C462.434 400.529 462.093 398.501 461.775 396.499C466.267 400.797 472.442 403.362 478.618 403.508Z" fill="black"/>
<path d="M334.359 83.3834C334.359 83.3834 341.608 68.6313 340.73 66.6285C339.851 64.6258 330.966 63.2336 327.744 78.4009C324.522 93.5926 334.383 83.3834 334.383 83.3834H334.359Z" fill="#E7A387"/>
<path d="M426.602 205.186L430.922 176.097C427.529 175.999 344.245 173.801 326.694 74.9327L304.067 78.9627C314.953 140.218 346.588 173.923 372.12 188.04C399.898 203.403 425.528 205.161 426.577 205.186H426.602Z" fill="#665394"/>
<path d="M503.881 209.899C503.979 206.651 506.737 204.184 506.737 204.184C507.494 190.702 503.784 180.078 490.31 179.321L435.242 176.658C422.818 175.95 418.766 185.134 417.936 197.248C419.279 197.639 420.621 198.054 421.939 198.445C433.046 200.521 485.477 207.384 503.881 209.899Z" fill="#E7A387"/>
<path d="M467.558 189.26L465.581 189.265C460.748 189.278 456.832 185.38 456.82 180.544L456.764 159.467C456.752 154.631 460.647 150.713 465.48 150.7L467.457 150.695C472.29 150.682 476.206 154.58 476.219 159.416L476.274 180.493C476.286 185.329 472.391 189.247 467.558 189.26Z" fill="#E7A387"/>
<path opacity="0.08" d="M475.274 172.922C475.615 172.8 475.933 172.751 476.25 172.653V159.782C476.201 154.75 472.101 150.671 467.072 150.671H465.852C460.823 150.671 456.747 154.799 456.747 159.83L456.796 175.291C462.971 175.975 469.025 175.242 475.274 172.897V172.922Z" fill="black"/>
<path d="M405.317 103.631C405.317 111.911 410.247 118.627 416.398 118.627C422.55 118.627 427.554 111.959 427.578 103.68C427.578 95.3999 422.647 88.6833 416.496 88.6833C410.345 88.6833 405.341 95.3511 405.317 103.631Z" fill="#D7937F"/>
<path d="M459.045 166.516L470.924 168.727C500.002 174.141 527.96 154.943 533.371 125.847L537.17 105.413C542.581 76.3176 523.394 48.3425 494.316 42.9289L482.437 40.7174C453.359 35.3039 425.401 54.5019 419.991 83.5974L416.191 104.031C410.781 133.127 429.967 161.102 459.045 166.516Z" fill="#E7A387"/>
<path d="M489.626 127.444C491.97 127.884 493.044 130.961 491.652 133.282C485.233 144.052 475.127 150.378 465.266 148.546C455.405 146.715 448.253 137.165 446.129 124.806C445.665 122.144 447.764 119.653 450.108 120.093L489.626 127.444Z" fill="white"/>
<path d="M527.217 121.07C523.946 128.665 525.874 136.799 531.513 139.217C537.151 141.659 544.376 137.458 547.647 129.862C550.918 122.266 548.99 114.133 543.351 111.715C537.713 109.273 530.487 113.474 527.217 121.07Z" fill="#E7A387"/>
<path d="M508.715 327.867C508.715 327.867 492.434 335.903 448.521 335.903C414.348 335.903 394.259 327.867 394.259 327.867C394.259 289.937 409.442 200.936 413.616 182.935C417.448 177.977 426.48 176.146 428.164 176.146C429.043 176.097 429.97 176.072 430.946 176.146L449.522 177.074C453.989 192.021 478.325 194.928 484.134 179.028C484.134 179.028 486.673 179.15 490.31 179.37C504.052 180.2 514.89 191.386 515.281 205.161C516.257 240.405 506.835 280.949 508.715 327.892V327.867Z" fill="#665394"/>
<path d="M505.029 103.045C508.958 103.582 511.595 108.149 510.911 113.229C510.228 118.334 506.469 122.022 502.539 121.485C498.609 120.947 495.973 116.38 496.656 111.3C497.34 106.195 501.099 102.507 505.029 103.045Z" fill="#582C1A"/>
<path d="M445.275 92.9576C449.205 93.495 451.841 98.0622 451.157 103.142C450.474 108.223 446.715 111.935 442.785 111.398C438.855 110.86 436.219 106.293 436.902 101.213C437.586 96.1083 441.345 92.4203 445.275 92.9576Z" fill="#582C1A"/>
<path opacity="0.1" d="M510.911 113.23C510.228 118.334 506.469 122.022 502.539 121.485C499.854 121.118 497.804 118.871 496.974 115.867C500.977 112.399 505.004 108.931 509.129 105.609C510.57 107.514 511.326 110.274 510.911 113.254V113.23Z" fill="white"/>
<path opacity="0.1" d="M451.157 103.142C450.474 108.247 446.715 111.935 442.785 111.398C440.149 111.031 438.123 108.882 437.268 105.976C441.418 102.63 445.47 99.1858 449.449 95.6199C450.84 97.5249 451.572 100.236 451.182 103.142H451.157Z" fill="white"/>
<path d="M470.734 190.385L470.66 222.478C470.66 224.261 469.22 225.702 467.438 225.702H463.118C461.287 225.702 459.823 224.212 459.823 222.38L459.896 190.36H470.758L470.734 190.385Z" fill="#6B5A99"/>
<path opacity="0.1" d="M484.5 181.958C484.5 181.958 488.284 169.111 495.216 179.541C495.216 179.541 498.829 198.078 490.114 206.407C488.748 207.726 486.526 207.408 485.574 205.747C483.207 201.644 477.422 194.757 465.022 194.488C452.89 194.219 447.593 200.325 445.47 204.209C444.713 205.576 442.809 205.65 441.93 204.355C438.831 199.69 434.73 187.136 439.953 176.488C439.953 176.488 444.371 171.969 449.082 179.98C453.793 187.991 456.82 189.652 465.827 190.141C474.834 190.629 479.716 189.335 484.452 181.983L484.5 181.958Z" fill="black"/>
<path d="M484.134 178.979C484.134 178.979 488.455 169.307 495.216 179.516C495.216 179.516 498.145 194.732 489.626 202.89C488.284 204.184 486.111 203.867 485.184 202.255C482.865 198.225 477.202 191.484 465.071 191.24C453.208 190.971 448.033 196.955 445.934 200.741C445.201 202.059 443.322 202.157 442.468 200.887C439.441 196.32 434.852 186.868 439.953 176.463C439.953 176.463 444.86 169.185 449.473 177.025C454.086 184.865 457.138 188.602 465.949 189.09C474.786 189.554 479.448 186.184 484.085 179.003L484.134 178.979Z" fill="#6B5A99"/>
<path d="M462.434 201.644C462.434 203.207 463.704 204.502 465.266 204.502C466.828 204.502 468.122 203.232 468.122 201.669C468.122 200.106 466.852 198.811 465.29 198.811C463.728 198.811 462.434 200.081 462.434 201.644Z" fill="#5D508A"/>
<path d="M462.41 212.513C462.41 214.076 463.679 215.37 465.241 215.37C466.804 215.37 468.097 214.1 468.097 212.537C468.097 210.974 466.828 209.68 465.266 209.68C463.704 209.68 462.41 210.95 462.41 212.513Z" fill="#5D508A"/>
<path d="M530.512 113.132C531.171 116.356 535.662 116.673 536.785 113.571C541.838 99.5032 549.6 75.0304 548.99 59.3747C548.087 36.3429 544.181 50.753 544.181 50.753C544.181 50.753 536.151 20.0032 525.484 20.5161C525.484 20.5161 522.384 25.694 523.311 31.8733C523.311 31.8733 507.396 10.4779 494.069 7.76682C494.069 7.76682 491.457 15.4115 491.726 20.0765C491.726 20.0765 477.666 1.92949 465.144 0C465.144 0 448.082 8.03548 443.957 19.7101C443.957 19.7101 444.86 12.212 441.809 7.62028C441.809 7.62028 430.873 17.5853 430.117 30.7253C430.117 30.7253 427.676 22.5677 424.087 19.588C424.087 19.588 417.643 43.7189 417.692 60.3272C417.741 76.9355 418.62 92.2982 418.62 92.2982C418.62 92.2982 436.976 51.6323 455.917 51.9498C468.561 52.1696 468.634 60.1318 480.766 62.3788C493.361 64.6991 497.974 59.3014 508.592 62.0124C519.186 64.7235 526.948 95.8396 530.488 113.132H530.512Z" fill="#4C2B1F"/>
<path opacity="0.17" d="M19.5275 382.87L387.034 377.521L392.624 83.4567H7.73779L19.5275 382.87Z" fill="black"/>
<path d="M11.7897 373.516L377.661 368.46L384.91 74.1023L0 67.7521L11.7897 373.516Z" fill="#F4FEFF"/>
<path opacity="0.12" d="M399.995 266.514C400.191 267.027 400.386 267.565 400.581 268.077C402.607 273.377 405.536 278.14 407.098 283.318C437.976 294.309 461.409 294.016 477.031 282.585C495.704 268.908 501.27 254.791 501.807 243.434C505.858 242.139 509.862 240.82 513.865 239.428C512.84 252.153 511.448 265.537 510.301 279.483C505.077 286.591 498.17 293.283 489.382 299.169C477.397 307.18 463.704 312.065 447.203 312.065C430.702 312.065 420.499 310.99 399.629 302.442C398.384 302.784 397.091 302.979 395.797 303.053C396.846 291.72 398.311 279.166 399.971 266.514H399.995Z" fill="black"/>
<path d="M447.228 293.698C463.728 293.698 477.422 288.813 489.407 280.802C530.414 253.448 530.781 208.043 506.884 186.526L495.704 201.669C495.704 201.669 518.283 234.03 477.031 264.243C459.53 277.066 432.191 275.893 395.577 260.506L397.408 283.172C419.84 292.599 429.946 293.723 447.228 293.723V293.698Z" fill="#E7A387"/>
<path d="M494.484 246.584C510.326 222.649 495.704 201.644 495.704 201.644L506.884 186.501C525.533 203.305 529.389 234.665 510.667 260.628C505.59 255.548 500.318 250.663 494.484 246.56V246.584Z" fill="#665394"/>
<path d="M364.48 251.958C373.658 254.815 378.906 256.769 378.906 256.769L380.468 253.741C380.468 253.741 373.292 249.906 367.092 248.221C360.818 246.536 362.259 241.504 371.07 243.776C375.147 244.826 379.37 246.145 382.64 248.783C384.105 249.955 386.033 250.883 387.815 251.396C389.158 251.787 391.257 252.568 392.453 251.616C393.136 251.054 393.405 250.101 393.38 249.222C393.356 248.343 393.088 247.464 392.868 246.609C392.502 245.021 392.355 243.385 392.453 241.773C392.526 240.381 392.819 238.915 393.698 237.841C394.577 236.766 396.212 236.18 397.432 236.839C397.799 237.035 398.116 237.352 398.238 237.743C398.336 238.06 398.287 238.378 398.262 238.695C397.969 242.53 399.239 246.194 400.581 249.711C403.73 257.941 409.076 264.878 408.075 274.183C407.709 277.481 406.293 280.534 403.462 282.39C399.898 284.735 394.967 285.15 390.866 284.466C385.667 283.611 380.688 282.146 375.83 280.314C370.509 278.311 365.896 278.213 359.012 277.603C351.958 276.968 355.863 272.107 358.426 271.839C362.332 271.424 371.607 273.793 371.607 273.793L372.681 269.421C372.681 269.421 364.236 267.784 360.428 267.76C353.349 267.711 352.104 260.433 360.257 261.581C370.265 262.997 374.195 265.049 374.195 265.049L376.318 261.63C376.318 261.63 368.312 258.308 363.064 257.697C353.056 256.525 354.423 248.783 364.504 251.933L364.48 251.958Z" fill="#E7A387"/>
<path d="M328.403 69.9258C330.038 71.2202 330.795 73.3451 330.673 75.4456C330.356 80.4769 329.233 91.2723 325.083 90.6862C320.201 89.9779 323.008 75.0548 323.008 75.0548H320.836C320.836 75.0548 322.081 91.5166 318.053 91.5166C312.488 91.5166 312.683 74.9571 312.683 74.9571L310.462 75.0548C310.462 75.0548 312.83 90.8327 308.314 90.4908C302.627 90.0755 302.553 75.0548 302.553 75.0548H298.526C298.526 75.0548 304.897 91.2479 299.844 90.2954C294.791 89.3428 290.91 74.9815 291.423 72.2705C291.935 69.5594 299.087 67.3124 300.381 71.4156C300.381 71.4156 305.8 62.8917 310.071 71.9774C310.071 71.9774 315.734 63.7709 320.275 71.9041C320.275 71.9041 324.326 66.7751 328.354 69.9746L328.403 69.9258Z" fill="#E7A387"/>
</g>
<defs>
<clipPath id="clip0_44_1482">
<rect width="562" height="530" fill="white"/>
</clipPath>
</defs>
</svg>
