<svg width="539" height="192" viewBox="0 0 539 192" fill="none" xmlns="http://www.w3.org/2000/svg">
<path d="M490.056 93.2487C499.129 70.1976 485.647 35.0657 457.199 35.954C322.931 40.0846 188.917 34.0442 54.6062 43.5933C36.3759 44.8813 25.3529 62.3362 25.6073 78.5475C25.2681 80.5905 25.0562 82.678 25.0562 84.7655C25.0562 104.13 36.5455 116.744 51.7657 122.074C50.1546 127.27 51.3417 133.533 56.4716 136.109C70.8015 143.348 78.6872 149.033 94.7129 152.675C112.222 156.672 131.004 157.25 148.768 159.115C184.084 162.757 219.569 164.889 255.055 166.088C315.088 168.176 374.739 164.667 434.517 160.004C448.381 160.625 462.414 158.938 476.108 156.095C476.065 155.917 476.023 155.695 475.938 155.518C501.757 146.59 506.887 110.082 490.056 93.2487Z" fill="#FCD424"/>
<path d="M63.2099 93.647C61.222 93.9328 58.7273 94.0145 56.9733 95.1578C55.0243 96.4237 52.8025 97.4446 51.5162 99.4863C50.5418 101.079 51.4383 103.856 53.3482 104.182C57.7918 104.917 62.1574 102.1 65.3927 99.2005C67.3416 97.4446 65.8604 93.2386 63.1709 93.6061L63.2099 93.647Z" fill="white"/>
<path d="M137.075 56.4466C136.802 57.3042 135.398 58.2025 134.58 58.2842C131.384 58.6517 130.565 63.1027 133.8 64.246C138.322 65.8386 142.376 62.0001 142.298 57.1817C142.259 53.9966 137.971 53.4249 137.075 56.4466Z" fill="white"/>
<path d="M187.708 140.361C186.305 138.769 184.824 138.728 182.914 139.014C179.172 139.586 179.172 146.282 182.914 146.854C184.863 147.14 186.305 147.099 187.708 145.507C189.033 143.996 189.033 141.831 187.708 140.321V140.361Z" fill="white"/>
<path d="M299.616 80.2531C297.044 80.0489 295.212 80.7839 293.107 82.3356C290.885 83.969 291.859 87.0724 294.432 87.3991C297.005 87.6849 298.876 87.3991 301.097 85.9291C303.592 84.2548 302.501 80.4981 299.655 80.2939L299.616 80.2531Z" fill="white"/>
<path d="M402.208 54.9765C400.688 54.8948 399.168 54.854 397.648 54.7723C395.66 54.6906 393.906 55.344 392.074 55.9973C387.903 57.4674 388.644 63.7967 393.087 64.0009C394.802 64.0826 396.362 64.1234 398.038 63.8376C399.714 63.5517 401.468 62.6125 403.066 62.0409C406.73 60.7342 406.067 55.1807 402.169 54.9765H402.208Z" fill="white"/>
<path d="M458.104 134.073C454.44 134.441 451.4 136.033 448.164 137.748C446.098 138.851 445.514 141.872 446.644 143.873C447.891 146.078 450.386 146.568 452.491 145.466C455.375 143.955 458.221 142.485 460.443 139.953C462.197 137.952 461.183 133.787 458.143 134.114L458.104 134.073Z" fill="white"/>
<path d="M358.318 142.281C356.447 142.689 354.459 142.934 352.978 144.363C351.653 145.67 350.328 146.732 349.782 148.651C349.353 150.162 350.289 152.163 351.848 152.489C353.797 152.857 355.161 152.244 356.954 151.591C358.903 150.856 359.994 149.222 361.242 147.63C363.152 145.18 361.398 141.627 358.279 142.281H358.318Z" fill="white"/>
<path d="M34.5529 34.1046C24.929 30.1961 18.0608 19.7143 18.1032 8.8772C24.0387 8.8772 30.1013 11.5865 33.6202 16.5609C37.139 21.5797 37.775 28.8637 34.5529 34.1046Z" fill="#FFD912"/>
<path d="M50.1121 1.32678C52.995 6.03471 55.9203 10.9203 56.5987 16.4277C57.277 21.9351 55.0724 28.2864 50.1544 30.4182C45.2789 27.5313 42.0568 21.8018 42.0144 15.8947C42.0144 10.032 45.1941 4.25814 50.1121 1.32678Z" fill="#FFD912"/>
<path d="M0 46.6295C5.04513 50.3159 10.387 54.1355 16.4921 54.7129C22.5971 55.2903 29.5924 51.3374 30.2284 44.9417C20.6045 40.7668 9.15755 41.433 0 46.6295Z" fill="#FFD912"/>
<path d="M506.798 154.004C517.026 155.487 526.034 164.052 528.342 174.599C522.581 176.067 516.084 174.854 511.564 170.849C507.044 166.844 504.847 159.877 506.798 154.004Z" fill="#FFD912"/>
<path d="M498.8 189.668C494.997 185.799 491.066 181.749 489.152 176.557C487.276 171.345 488.051 164.629 492.371 161.418C497.778 163.021 502.166 167.877 503.462 173.57C504.776 179.305 502.909 185.676 498.8 189.668Z" fill="#FFD912"/>
<path d="M537.655 133.524C531.942 131.139 525.927 128.706 519.819 129.609C513.749 130.493 507.822 136.069 508.61 142.406C518.908 144.149 529.851 140.763 537.637 133.484L537.655 133.524Z" fill="#FFD912"/>
<path d="M480.941 32.9055C479.118 21.8907 486.58 10.0764 496.967 7.5448C499.849 17.5381 497.645 28.997 491.243 37.036C490.226 38.324 488.954 39.612 487.385 39.9229C483.993 40.5447 481.534 36.503 480.941 32.9499V32.9055Z" fill="#FFD912"/>
<path d="M496.627 45.608C501.376 37.7022 510.152 32.5946 519.097 32.5502C519.648 38.1908 516.681 44.0535 511.932 46.8072C507.184 49.5609 500.909 49.0723 496.585 45.608H496.627Z" fill="#FFD912"/>
<path d="M3.19957 126.23C11.6134 134.186 27.1107 131.058 32.0353 120.354C28.2056 116.363 22.0605 115.826 16.9035 117.482C11.7466 119.137 7.38871 122.729 3.16539 126.204L3.19957 126.23Z" fill="#FFD912"/>
<path d="M39.7355 142.085C40.9789 140.01 42.0514 137.805 42.9369 135.565C43.5738 133.906 44.0012 131.645 42.5999 130.568C33.5648 133.705 26.0752 141.391 22.9702 150.849C29.2464 153.525 36.1309 148.129 39.7355 142.085Z" fill="#FFD912"/>
<path d="M248.441 0.127501C247.593 5.50165 247.466 11.2311 249.67 16.2055C251.875 21.18 256.878 25.044 262.008 24.3334C265.399 19.581 265.781 12.6524 262.898 7.5003C260.015 2.34822 254.037 -0.671959 248.441 0.127501Z" fill="#FFD912"/>
<path d="M283.884 4.21359C277.355 7.41143 273.37 15.4504 274.642 22.9121C282.23 23.223 289.692 17.4935 291.642 9.7654C292.024 8.29972 292.194 6.7008 291.473 5.36837C290.116 2.79233 286.428 2.96999 283.884 4.21359Z" fill="#FFD912"/>
<path d="M50.3788 83.4966C56.0451 83.4966 60.6386 78.6844 60.6386 72.7483C60.6386 66.8122 56.0451 62 50.3788 62C44.7124 62 40.1189 66.8122 40.1189 72.7483C40.1189 78.6844 44.7124 83.4966 50.3788 83.4966Z" fill="#00C6D0"/>
<path d="M63.8852 122.829C60.1968 125.36 60.1968 129.58 63.8852 132.111C67.1921 134.376 71.6013 131.401 71.6013 127.448C71.6013 123.495 67.1921 120.519 63.8852 122.784V122.829Z" fill="#00C6D0"/>
<path d="M481.411 122C477.426 122 474.119 125.464 474.119 129.639C474.119 133.814 477.426 137.279 481.411 137.279C485.396 137.279 488.703 133.814 488.703 129.639C488.703 125.464 485.396 122 481.411 122Z" fill="#00C6D0"/>
<path d="M476.392 72.754C476.222 72.1766 476.095 71.5992 475.925 70.9774C474.653 66.003 468.464 64.3153 464.987 67.9573C461.511 71.5992 463.122 78.0393 467.87 79.4162C468.421 79.5938 468.972 79.7271 469.566 79.9047C473.636 81.0595 477.494 77.0178 476.392 72.754Z" fill="#00C6D0"/>
</svg>
