<svg width="574" height="509" viewBox="0 0 574 509" fill="none" xmlns="http://www.w3.org/2000/svg">
<g clip-path="url(#clip0_44_1432)">
<path d="M117.076 310.087C117.781 311.132 122.328 402.994 121.574 429.57C120.82 456.122 137.622 444.767 140.515 428.573C143.409 412.379 148.442 354.121 152.673 305.589C156.904 257.081 117.052 310.087 117.052 310.087H117.076Z" fill="#E7A387"/>
<path d="M63.2429 318.548C63.2429 318.548 63.8994 391.566 58.2827 427.041L67.2306 433.266L76.1784 430.032C76.1784 430.032 97.7214 346.389 101.028 316.239L63.2429 318.548Z" fill="#E7A387"/>
<path opacity="0.09" d="M143.603 404.331C145.597 381.5 149.95 337.174 152.697 305.589C156.928 257.081 117.076 310.087 117.076 310.087C117.611 310.889 120.529 373.84 121.404 406.519C127.434 406.519 137.452 406.909 143.603 404.307V404.331Z" fill="black"/>
<path opacity="0.09" d="M60.9087 404.404C68.3004 405.766 74.452 406.568 81.9167 407.079C87.5577 382.837 98.9614 335.01 101.028 316.214L63.2429 318.524C63.2429 318.524 63.6806 371.749 60.9087 404.38V404.404Z" fill="black"/>
<path d="M18.5766 171.225C27.1597 175.115 36.0589 177.547 45.2743 179.37C63.9723 183.066 82.8893 183.698 101.831 181.68C108.979 180.927 116.03 179.735 122.984 178.203C143.093 168.429 166.435 156.101 174.799 134.461C169.11 70.3671 149.293 -17.0934 83.3026 2.99069C83.3026 2.99069 15.829 -2.65035 11.1119 65.5041C8.53456 102.779 9.70167 139.178 11.7441 167.699C13.9811 168.964 16.2424 170.179 18.5766 171.249V171.225Z" fill="#422216"/>
<path d="M82.6947 161.013C82.6947 161.013 100.688 155.372 118.705 155.809L122.814 167.335L85.8557 176.258L82.6704 161.013H82.6947Z" fill="#D7D1C6"/>
<path d="M144.965 165.219C144.041 163.347 142.971 160.186 141.488 158.289C121.331 159.359 83.8619 164.295 64.0696 173.729C61.4922 174.945 65.4069 177.79 65.6014 181.267C65.796 184.501 66.4768 187.662 67.1576 190.823C68.1545 195.491 69.1271 200.16 70.124 204.828C70.2699 205.484 70.4158 206.165 70.8291 206.725C71.5342 207.673 72.7986 207.94 73.9414 208.208C78.6828 209.375 83.1081 211.709 87.9224 212.536C93.2474 213.484 97.2836 211.515 101.709 208.864C103.703 207.649 105.648 206.311 107.812 205.387C109.976 204.439 113.477 204.512 115.325 203.369C116.979 202.348 118.729 201.545 120.48 201.181C122.498 200.743 124.541 200.524 126.534 200.135C128.115 199.065 129.938 198.628 131.519 197.679C135.482 195.321 139.859 189.534 142.485 185.668C145.451 181.316 146.959 174.678 146.716 168.891C146.156 167.675 145.573 166.435 144.965 165.243V165.219Z" fill="#D6927C"/>
<path d="M98.0051 135.275L93.7384 136.354C88.5438 137.668 85.3975 142.943 86.711 148.138L93.5179 175.058C94.8313 180.253 100.107 183.399 105.302 182.086L109.568 181.007C114.763 179.693 117.909 174.418 116.596 169.223L109.789 142.303C108.475 137.108 103.2 133.962 98.0051 135.275Z" fill="#D6927C"/>
<path d="M89.9162 160.794C98.4507 162.861 107.082 163.104 114.061 159.189L110.122 143.628C108.639 137.743 102.584 134.121 96.7 135.628L95.0466 136.041C89.1624 137.525 85.5395 143.579 87.047 149.463L89.9162 160.818V160.794Z" fill="#C78575"/>
<path d="M110.535 155.201C83.5943 164.222 55.5836 151.627 38.8064 125.002C33.6516 116.833 29.8342 107.593 27.9133 97.9158C19.8894 57.5775 41.3351 14.6618 79.096 8.94782C146.837 -1.33735 182.264 110.657 124.711 148.32C122.012 150.071 119.215 151.627 116.322 152.94C114.425 153.816 112.505 154.569 110.584 155.201H110.535Z" fill="#E5A185"/>
<path opacity="0.1" d="M28.9347 102.292C35.1836 100.031 41.6271 98.1346 47.6328 96.0192C63.6806 90.3782 80.0688 85.7827 96.6758 82.1112C114.985 78.0506 133.44 75.0842 152.016 73.0417C145.305 36.2777 117.343 3.088 79.0962 8.89924C41.3596 14.6375 19.9139 57.5289 27.9378 97.8915C28.2296 99.3747 28.57 100.834 28.959 102.268L28.9347 102.292Z" fill="black"/>
<path d="M76.8836 121.355C74.4764 121.647 73.1634 124.468 74.3791 126.705C80.1174 137.087 89.892 143.506 100.08 142.266C110.268 141.026 118.243 132.467 121.331 121.039C121.988 118.583 120.042 116.152 117.635 116.444L76.8836 121.355Z" fill="white"/>
<path d="M56.0699 177.45C58.7202 170.69 64.0452 173.584 64.0452 173.584C64.0452 173.584 73.066 192.087 110.122 182.629C139.348 175.164 139.348 158.411 139.348 158.411C139.348 158.411 144.43 155.615 148.004 157.876C148.904 160.332 198.166 335.885 188.805 373.792C180.781 406.276 17.6525 397.207 25.1658 371.312C52.2282 278.162 64.5071 169.596 56.0699 177.45Z" fill="#EDC031"/>
<path opacity="0.1" d="M116.76 205.339C117.587 203.466 117.878 201.424 116.809 199.406C117.854 200.403 118.9 201.4 119.945 202.324C124.614 206.457 131.884 205.728 135.507 200.646C144.454 188.124 147.81 171.517 143.701 157.025C141.342 157.293 139.348 158.387 139.348 158.387C139.348 158.387 139.348 175.14 110.122 182.604C73.0662 192.063 64.0454 173.559 64.0454 173.559C64.0454 173.559 62.2217 172.587 60.2036 173.097C65.1882 194.348 83.716 211.272 106.548 211.466C110.851 211.515 115.009 209.253 116.76 205.314V205.339Z" fill="black"/>
<path d="M64.0696 173.729C64.0696 173.729 71.5099 163.93 82.6947 161.013C82.6947 161.013 92.5665 177.231 110.535 180.756C110.535 180.756 118.438 205.314 104.092 205.023C88.1413 204.682 70.9993 190.993 64.0939 173.729H64.0696Z" fill="#5B441E"/>
<path d="M117.854 155.785C117.854 155.785 128.869 155.907 139.348 158.411C139.348 158.411 144.965 180.562 131.762 195.467C119.994 208.743 109.514 180.829 109.514 180.829C109.514 180.829 120.82 182.167 117.854 155.785Z" fill="#5B441E"/>
<path d="M164.052 70.7075C164.198 70.7075 164.368 70.7075 164.514 70.7318C152.454 25.6521 128.942 -10.893 83.3026 2.99071C83.3026 2.99071 46.6602 -0.0243265 25.482 25.6521C25.2632 25.9196 25.02 26.1871 24.8012 26.4545C24.2662 27.111 23.7799 27.8161 23.2693 28.5213C22.9532 28.9589 22.6372 29.3966 22.3211 29.8586C21.8834 30.5151 21.47 31.1959 21.0324 31.8767C20.692 32.436 20.3516 32.9952 20.0112 33.5788C19.6464 34.2353 19.2817 34.9161 18.917 35.5969C18.5766 36.2534 18.2362 36.9342 17.9201 37.615C17.604 38.2958 17.2879 38.9766 16.9961 39.6818C16.68 40.4355 16.3639 41.2136 16.0478 42.016C15.7804 42.6968 15.5129 43.4019 15.2698 44.1071C14.978 44.9581 14.6862 45.8577 14.4187 46.7574C14.1999 47.4625 13.9811 48.1677 13.7866 48.8971C13.5191 49.894 13.3003 50.9152 13.0571 51.9364C12.8869 52.6416 12.7167 53.3224 12.5708 54.0518C12.3277 55.2433 12.1575 56.459 11.9629 57.6991C11.8657 58.3312 11.7441 58.9391 11.6712 59.5713C11.428 61.4922 11.2092 63.4617 11.0633 65.5041C10.9904 66.4767 10.9174 67.5952 10.8688 68.7623C10.3095 77.7345 9.9205 86.658 9.7503 95.387C9.7503 95.4113 9.7503 95.46 9.7503 95.4843C9.14243 125.197 10.5041 153.013 12.279 175.14C16.9232 177.644 21.8104 179.832 26.7464 181.778C25.6279 167.772 26.1628 153.864 25.8224 139.129C28.0107 158.192 29.5912 169.499 34.3812 184.622C38.0528 185.911 41.6757 187.078 45.1284 188.172C46.9033 188.732 48.7026 189.242 50.5019 189.753C44.7636 169.717 40.3383 149.366 38.5147 128.285C37.3233 114.571 36.91 100.761 37.1774 86.9741C44.0828 85.0046 50.8423 83.2053 57.456 81.6005C58.1368 66.6469 62.246 53.2981 66.3552 39.9492C64.4586 53.1765 64.7504 66.3551 66.6956 79.5095C75.6435 77.5156 83.5458 75.8865 92.8827 74.5249C92.6882 65.7229 92.5179 58.5987 92.2991 49.432C94.8279 57.5045 96.8217 65.6014 98.086 73.6982C106.766 72.4338 115.009 71.5099 123.033 70.902C124.152 57.0912 119.289 45.4444 116.663 33.7733C122.887 45.5416 127.483 57.3343 130.619 70.3914C136.066 70.1239 141.318 70.0024 146.448 70.0267C147.931 78.7557 149.171 87.3388 150.387 95.5086C153.329 115.131 156.271 138.157 157.73 157.925C161.84 154.739 164.441 151.044 166.921 147.956C166.678 137.403 166.581 126.291 166.338 115.763C167.967 123.082 170.009 132.613 171.882 140.637C173.292 138.473 173.559 137.184 174.775 134.51C172.951 114.377 169.693 91.6669 164.028 70.7318L164.052 70.7075Z" fill="#582C1A"/>
<path opacity="0.12" d="M83.2784 33.4572C68.7624 33.1412 54.441 31.1717 40.4113 27.3785C36.059 26.2114 31.6094 25.02 27.33 23.5368C26.6978 24.2176 26.0899 24.9227 25.482 25.6522C25.2632 25.9197 25.0201 26.1871 24.8012 26.4546C24.2663 27.1111 23.78 27.8162 23.2694 28.5213C22.9533 28.959 22.6372 29.3967 22.3211 29.8587C21.8834 30.5152 21.4701 31.196 21.0324 31.8768C20.692 32.436 20.3516 32.9953 20.0112 33.5788C19.6465 34.2353 19.2818 34.9161 18.917 35.597C18.5766 36.2535 18.2362 36.9343 17.9201 37.6151C17.604 38.2959 17.2879 38.9767 16.9962 39.6818C16.6801 40.4356 16.364 41.2137 16.0479 42.0161C15.7804 42.6969 15.513 43.402 15.2698 44.1071C15.2212 44.2773 15.1482 44.4719 15.0996 44.6421C22.6615 45.5903 30.2234 45.8092 35.6699 46.2712C45.1041 47.0492 54.6841 47.2438 64.2155 46.879C64.8964 44.5691 65.6015 42.2592 66.3066 39.9493C65.9905 42.2349 65.7231 44.5205 65.5286 46.8061C78.6586 46.2225 91.7399 44.5691 104.432 41.627C108.833 40.6058 113.234 39.4144 117.635 38.1257C117.246 36.6668 116.906 35.2079 116.565 33.749C117.295 35.1107 117.976 36.4723 118.656 37.8339C128.164 35.0134 137.598 31.6336 146.813 27.8162C144.941 24.8741 142.923 22.1265 140.807 19.5735C123.568 29.3237 103.897 33.9192 83.2541 33.4816L83.2784 33.4572Z" fill="white"/>
<path opacity="0.06" d="M34.0408 159.797C37.1531 160.21 40.2654 160.575 43.4021 160.964C42.0161 154.156 40.8004 147.275 39.8764 140.345C35.3052 141.123 30.734 141.755 26.1628 142.217C26.8923 148.539 27.5974 154.01 28.3998 159.092C30.3207 159.311 32.1929 159.53 34.0408 159.797Z" fill="white"/>
<path opacity="0.06" d="M158.192 117.125C162.496 114.134 167.091 111.046 171.541 107.739C170.812 102.852 170.009 97.9402 169.085 93.0286C163.298 96.384 157.414 99.5936 151.433 102.633C152.235 108.274 153.037 114.11 153.791 120.018C155.25 119.045 156.758 118.121 158.192 117.125Z" fill="white"/>
<path d="M61.4677 92.5908C57.0911 93.1744 54.149 98.2562 54.927 103.922C55.7051 109.587 59.863 113.696 64.2639 113.113C68.6406 112.529 71.5827 107.447 70.8046 101.782C70.0266 96.1165 65.8687 92.0073 61.4677 92.5908Z" fill="#582C1A"/>
<path opacity="0.1" d="M54.9028 103.922C55.6809 109.587 59.8387 113.696 64.2397 113.113C67.2304 112.699 69.516 110.195 70.44 106.864C65.9661 102.998 61.4921 99.1558 56.921 95.4357C55.3162 97.5754 54.4652 100.639 54.9271 103.922H54.9028Z" fill="white"/>
<path d="M127.118 82.8649C122.741 83.4485 119.799 88.5302 120.577 94.1956C121.355 99.861 125.513 103.97 129.914 103.387C134.291 102.803 137.233 97.7212 136.455 92.0559C135.677 86.3905 131.519 82.2813 127.118 82.8649Z" fill="#582C1A"/>
<path opacity="0.1" d="M120.553 94.1956C121.331 99.8609 125.489 103.97 129.89 103.387C132.88 102.973 135.166 100.469 136.09 97.1377C131.616 93.2716 127.142 89.4299 122.571 85.7097C120.966 87.8494 120.115 90.9131 120.577 94.1956H120.553Z" fill="white"/>
<path opacity="0.17" d="M0 487.585C0 487.585 26.9165 469.738 110.414 469.738C193.911 469.738 233.422 487.585 233.422 487.585C233.422 487.585 180.1 509.006 110.414 509.006C40.7273 509.006 0 487.585 0 487.585Z" fill="black"/>
<path d="M76.154 430.032L69.8321 456.025L54.4165 453.447L58.2582 427.041L76.154 430.032Z" fill="#5B441E"/>
<path d="M97.3079 478.613C80.2632 473.653 73.7954 456.219 71.0235 450.894C71.0235 450.894 65.65 456.049 55.5593 447.684C48.97 450.918 43.8882 478.102 42.9156 487.002C42.7211 488.728 43.2803 490.26 44.4718 490.6L54.3436 493.372C54.3436 493.372 54.4408 493.323 54.5138 493.323C58.6473 491.986 64.0938 492.91 67.7897 495.05C68.4218 495.414 68.9325 495.876 69.4917 496.29C70.367 496.606 71.291 496.971 72.2879 497.433C83.497 497.165 94.7062 497.676 105.915 497.506C106.45 496.655 106.864 495.633 107.058 494.515L107.69 490.892C109.125 482.795 101.052 479.731 97.3079 478.637V478.613Z" fill="white"/>
<path d="M97.308 478.613C96.5056 478.37 95.7518 478.102 94.998 477.811C94.9494 477.859 94.9008 477.908 94.8522 477.981C93.9039 478.856 92.9556 479.658 91.9344 480.461C91.1563 481.069 90.4025 481.506 89.5758 481.871C89.0652 482.114 88.506 482.357 87.9224 482.601C87.193 482.892 87.3875 482.819 88.5303 482.333C89.1868 482.041 89.5272 481.895 89.5758 481.871C89.5758 481.871 88.7248 482.212 86.9742 482.965C78.0263 485.008 70.0267 476.206 72.5798 467.477C73.2849 465.045 74.6465 462.954 76.3486 461.131C73.7712 456.851 72.1178 452.961 71.0479 450.894C71.0479 450.894 65.6744 456.049 55.5837 447.684C48.9944 450.918 43.9126 478.102 42.94 487.002C42.7455 488.728 43.3047 490.26 44.4962 490.6L54.368 493.372C54.368 493.372 54.4652 493.323 54.5382 493.323C58.6717 491.986 64.1182 492.91 67.8141 495.05C68.4463 495.414 68.9569 495.876 69.5161 496.29C70.3914 496.606 71.3154 496.971 72.3123 497.433C83.5214 497.165 94.7306 497.676 105.94 497.506C106.475 496.655 106.888 495.633 107.083 494.515L107.715 490.892C109.149 482.795 101.077 479.731 97.3323 478.637L97.308 478.613Z" fill="#EDC031"/>
<path d="M43.3533 482.187C42.6482 483.452 42.5266 485.373 42.3807 486.613C42.3321 487.147 42.3078 489.19 43.0129 489.725C45.9064 491.913 51.8149 494.32 59.1336 496.363C60.7627 491.719 64.7261 494.32 68.5192 498.624C81.2358 501.201 95.7275 502.344 105.915 499.84C107.277 499.135 107.277 493.251 107.277 493.251C91.0833 497.165 62.2459 493.664 43.3533 482.212V482.187Z" fill="white"/>
<path d="M141.318 428.573L140.053 454.152L124.103 454.711L120.188 429.837L141.318 428.573Z" fill="#5B441E"/>
<path d="M173.122 473.361C154.594 472.145 144.041 455.806 140.029 450.991C140.029 450.991 135.701 457.483 123.519 451.21C117.514 456.024 118.486 484.91 119.507 494.223C119.702 496.022 120.626 497.457 121.89 497.53L132.589 498.113C132.589 498.113 132.686 498.04 132.735 498.016C136.649 495.706 142.436 495.414 146.691 496.776C147.396 496.995 148.053 497.36 148.709 497.676C149.682 497.822 150.703 497.967 151.822 498.211C163.201 495.414 174.751 493.396 186.154 490.673C186.519 489.676 186.689 488.533 186.641 487.342L186.47 483.5C186.106 474.893 177.158 473.604 173.097 473.337L173.122 473.361Z" fill="white"/>
<path d="M173.122 473.361C172.246 473.312 171.419 473.191 170.568 473.069C170.52 473.142 170.496 473.191 170.447 473.264C169.669 474.382 168.915 475.403 168.04 476.449C167.383 477.251 166.702 477.859 165.973 478.443C165.487 478.832 165 479.196 164.441 479.561C163.76 480.023 163.955 479.902 165 479.148C165.608 478.71 165.924 478.491 165.973 478.443C165.973 478.443 165.171 479.002 163.566 480.145C154.885 484.254 144.722 477.081 145.354 467.598C145.524 464.948 146.448 462.516 147.761 460.255C144.138 456.462 141.585 452.863 140.029 450.991C140.029 450.991 135.701 457.483 123.519 451.21C117.514 456.024 118.486 484.91 119.507 494.223C119.702 496.022 120.626 497.457 121.89 497.53L132.589 498.113C132.589 498.113 132.686 498.04 132.735 498.016C136.649 495.706 142.436 495.414 146.691 496.776C147.396 496.995 148.053 497.36 148.709 497.676C149.682 497.822 150.703 497.967 151.822 498.211C163.201 495.414 174.751 493.396 186.154 490.673C186.519 489.676 186.689 488.533 186.641 487.342L186.47 483.5C186.106 474.893 177.158 473.604 173.097 473.337L173.122 473.361Z" fill="#EDC031"/>
<path d="M118.827 489.238C118.389 490.673 118.705 492.691 118.827 493.98C118.899 494.539 119.337 496.63 120.164 497.019C123.592 498.6 130.182 499.718 138.132 500.156C138.74 495.025 143.384 496.8 148.247 500.326C161.815 500.083 176.866 497.968 186.689 493.105C187.929 492.083 186.592 486.053 186.592 486.053C170.933 493.712 140.71 496.679 118.827 489.238Z" fill="white"/>
<path d="M229.167 66.7929C229.167 66.7929 221.946 53.2252 222.821 51.2314C223.696 49.2376 231.428 48.3866 234.638 63.5104C237.847 78.6342 229.167 66.7929 229.167 66.7929Z" fill="#E7A387"/>
<path d="M148.077 178.422L144.916 157.22C148.199 157.147 228.34 155.007 245.215 59.936L266.977 63.8021C256.497 122.717 224.961 149.56 200.378 163.152C173.632 177.936 149.074 178.422 148.053 178.422H148.077Z" fill="#EDC031"/>
<path d="M188.951 144.698C183.869 147.421 178.884 149.585 174.216 151.263C176.088 158.241 176.623 165.584 177.377 173C182.045 171.517 187.078 169.596 192.257 167.213C191.261 159.7 190.069 152.211 188.951 144.722V144.698Z" fill="#5B441E"/>
<path opacity="0.17" d="M562.256 367.373L196.172 362.048L190.58 69.2972H574L562.256 367.373Z" fill="black"/>
<path opacity="0.09" d="M172.732 255.597C171.93 255.986 173.097 254.649 172.295 254.892C171.006 255.281 168.988 256.035 167.845 255.087C167.189 254.552 166.921 253.628 166.946 252.777C166.97 251.926 167.237 251.099 167.432 250.272C167.797 248.765 167.918 247.184 167.845 245.628C167.772 244.291 167.505 242.881 166.654 241.835C165.803 240.79 164.247 240.23 163.055 240.887C162.715 241.081 162.399 241.373 162.277 241.738C162.18 242.03 162.228 242.346 162.253 242.662C162.545 246.358 161.329 249.859 160.016 253.263C158.022 258.442 155.153 263.086 153.67 268.192C123.519 278.745 100.712 278.38 85.6854 267.171C67.2791 253.458 62.2459 239.428 62.1243 228.34C59.2066 229.751 57.699 231.185 54.7326 232.377C53.4926 239.866 52.1309 250.491 50.4775 258.977C55.6323 268.703 62.173 275.219 73.6739 283.024C85.1505 290.83 98.2805 295.644 114.158 295.765C130.546 295.911 140.248 294.914 161.256 286.404C163.93 287.109 166.848 287.134 169.426 286.696C173.583 286.015 175.334 285.65 179.249 284.289C177.206 274.563 175.188 265.469 172.781 255.573L172.732 255.597Z" fill="black"/>
<path d="M550.487 355.629L186.057 350.595L178.835 57.5532L562.256 51.2313L550.487 355.629Z" fill="white"/>
<path d="M85.661 248.959C67.2547 235.246 62.2216 221.216 62.1 210.129C55.6809 213.217 49.0429 215.697 42.332 217.982C44.569 234.516 54.3679 251.707 73.6252 264.788C85.1018 272.593 98.2318 277.408 114.109 277.529C130.741 277.675 132.71 273.274 154.399 264.399L150.144 249.008C114.766 263.5 102.414 261.409 85.661 248.959Z" fill="#E7A387"/>
<path d="M70.7562 230.967C55.7053 207.819 67.5223 192.89 67.5223 192.89L57.918 174.459C39.8277 190.458 35.524 220.122 53.3225 245.239C58.2584 240.376 65.0908 234.857 70.7562 230.967Z" fill="#EDC031"/>
<path d="M59.4255 225.69C55.0732 228.049 50.8667 230.65 46.6846 233.325C48.4109 237.361 50.5749 241.373 53.3468 245.264C58.2827 240.401 65.1152 234.881 70.7806 230.991C68.7381 227.83 67.182 224.839 66.0392 221.994C63.8751 223.259 61.6625 224.474 59.4499 225.69H59.4255Z" fill="#5B441E"/>
<path d="M182.264 237.58C173.316 239.987 168.526 241.519 168.526 241.519L167.018 238.601C167.018 238.601 174.167 235.44 179.419 232.814C185.011 230.018 184.501 226.857 176.039 229.021C172.125 230.018 168.064 231.307 164.903 233.836C163.493 234.954 161.645 235.854 159.919 236.364C158.63 236.753 156.612 237.507 155.469 236.559C154.812 236.024 154.545 235.1 154.569 234.249C154.594 233.398 154.861 232.571 155.056 231.745C155.42 230.237 155.542 228.657 155.469 227.1C155.396 225.763 155.129 224.353 154.278 223.307C153.426 222.262 151.87 221.702 150.679 222.359C150.339 222.554 150.022 222.845 149.901 223.21C149.804 223.502 149.852 223.818 149.877 224.134C150.168 227.83 148.953 231.331 147.64 234.735C144.6 242.662 139.445 249.324 140.442 258.272C140.783 261.433 142.169 264.375 144.892 266.174C148.32 268.436 153.062 268.825 157.025 268.168C162.034 267.341 166.824 265.931 171.492 264.181C176.623 262.26 180.781 262.357 187.224 260.679C193.351 259.074 190.701 256.084 188.245 256.035C183.723 255.938 175.577 257.932 175.577 257.932L174.532 253.725C174.532 253.725 182.726 251.683 186.3 250.978C192.889 249.665 193.546 245.191 185.668 246.309C176.039 247.671 173.049 249.543 173.049 249.543L171.006 246.26C171.006 246.26 178.811 244.194 183.358 242.54C192.452 239.209 191.747 235.051 182.24 237.629L182.264 237.58Z" fill="#E7A387"/>
<path d="M235.1 53.3954C233.471 54.684 232.717 56.7994 232.839 58.8905C233.155 63.8994 236.413 74.452 238.407 74.063C243.221 73.066 240.474 58.5015 240.474 58.5015H242.638C242.638 58.5015 241.398 74.8897 245.41 74.8897C249.422 74.8897 250.759 58.4042 250.759 58.4042L252.972 58.5015C252.972 58.5015 250.589 74.0143 255.111 73.8684C259.172 73.7469 260.85 58.5015 260.85 58.5015H264.861C264.861 58.5015 259.682 74.8897 263.548 73.6739C268.436 72.1421 272.448 58.4285 271.937 55.7296C271.426 53.0306 264.302 50.7937 263.014 54.8786C263.014 54.8786 257.616 46.3927 253.361 55.4378C253.361 55.4378 247.719 47.268 243.197 55.3649C243.197 55.3649 239.161 50.2587 235.149 53.444L235.1 53.3954Z" fill="#E7A387"/>
</g>
<defs>
<clipPath id="clip0_44_1432">
<rect width="574" height="508.982" fill="white"/>
</clipPath>
</defs>
</svg>
