<svg width="574" height="202" viewBox="0 0 574 202" fill="none" xmlns="http://www.w3.org/2000/svg">
<path d="M522.696 111.489C532.088 84.2955 518.132 42.8507 488.684 43.8986C349.693 48.7714 210.966 41.6456 71.9311 52.9106C53.0597 54.4301 41.649 75.0215 41.9123 94.1458C41.5612 96.556 41.3418 99.0186 41.3418 101.481C41.3418 124.326 53.2352 139.206 68.9907 145.493C67.323 151.624 68.5518 159.011 73.8622 162.05C88.696 170.591 96.859 177.297 113.448 181.594C131.574 186.309 151.016 186.991 169.405 189.191C205.962 193.488 242.696 196.003 279.43 197.417C341.574 199.88 403.323 195.741 465.204 190.239C479.555 190.973 494.082 188.982 508.257 185.628C508.213 185.419 508.169 185.157 508.082 184.947C534.809 174.416 540.119 131.347 522.696 111.489Z" fill="white"/>
<path d="M51.1725 54.2272C41.2101 49.6164 34.1004 37.2511 34.1442 24.4666C40.2884 24.4666 46.5643 27.6627 50.2069 33.531C53.8496 39.4517 54.5079 48.0446 51.1725 54.2272Z" fill="#FFD912"/>
<path d="M67.2789 15.5594C70.2633 21.1133 73.2915 26.8768 73.9937 33.3738C74.6959 39.8709 72.4137 47.3634 67.3228 49.8784C62.2758 46.4727 58.9404 39.7137 58.8965 32.7451C58.8965 25.8289 62.188 19.0175 67.2789 15.5594Z" fill="#FFD912"/>
<path d="M15.4043 69.0027C20.6269 73.3516 26.1566 77.8576 32.4764 78.5387C38.7961 79.2199 46.0375 74.5567 46.6958 67.0117C36.7335 62.0866 24.8839 62.8725 15.4043 69.0027Z" fill="#FFD912"/>
<path d="M513.26 52.8126C511.373 39.8185 519.097 25.8813 529.849 22.8948C532.834 34.6838 530.552 48.2018 523.925 57.6854C522.871 59.2048 521.555 60.7243 519.931 61.0911C516.42 61.8246 513.874 57.0566 513.26 52.865V52.8126Z" fill="#FFD912"/>
<path d="M529.498 67.7977C534.414 58.4713 543.498 52.4458 552.759 52.3934C553.329 59.0477 550.257 65.9639 545.342 69.2124C540.426 72.4609 533.931 71.8845 529.455 67.7977H529.498Z" fill="#FFD912"/>
<path d="M68.2883 122.027C66.0501 122.394 63.2413 122.499 61.2664 123.966C59.072 125.59 56.5705 126.9 55.1222 129.52C54.025 131.563 55.0344 135.126 57.1849 135.545C62.188 136.488 67.1034 132.873 70.746 129.153C72.9404 126.9 71.2727 121.503 68.2444 121.975L68.2883 122.027Z" fill="#B4CD4C"/>
<path d="M151.454 74.2947C151.147 75.395 149.567 76.5477 148.646 76.6525C145.047 77.1241 144.125 82.8352 147.768 84.3023C152.859 86.3457 157.423 81.4205 157.335 75.2378C157.291 71.151 152.464 70.4175 151.454 74.2947Z" fill="#B4CD4C"/>
<path d="M208.464 181.967C206.884 179.924 205.216 179.872 203.066 180.238C198.853 180.972 198.853 189.565 203.066 190.298C205.26 190.665 206.884 190.613 208.464 188.569C209.956 186.631 209.956 183.854 208.464 181.915V181.967Z" fill="#B4CD4C"/>
<path d="M334.464 104.841C331.567 104.579 329.505 105.522 327.135 107.513C324.633 109.609 325.73 113.591 328.627 114.01C331.523 114.377 333.63 114.01 336.131 112.124C338.94 109.976 337.711 105.156 334.508 104.894L334.464 104.841Z" fill="#B4CD4C"/>
<path d="M449.975 72.4084C448.263 72.3037 446.552 72.2513 444.84 72.1465C442.602 72.0417 440.627 72.88 438.564 73.7183C433.868 75.6046 434.702 83.7259 439.705 83.9879C441.636 84.0926 443.392 84.145 445.279 83.7783C447.166 83.4115 449.141 82.2064 450.94 81.4729C455.066 79.7962 454.32 72.6704 449.931 72.4084H449.975Z" fill="#B4CD4C"/>
<path d="M512.909 173.898C508.784 174.37 505.361 176.413 501.718 178.614C499.392 180.029 498.734 183.906 500.006 186.473C501.411 189.303 504.219 189.931 506.589 188.517C509.837 186.578 513.041 184.692 515.542 181.443C517.517 178.876 516.376 173.532 512.953 173.951L512.909 173.898Z" fill="#B4CD4C"/>
<path d="M400.558 184.43C398.451 184.954 396.213 185.268 394.545 187.102C393.053 188.779 391.561 190.141 390.947 192.604C390.464 194.542 391.517 197.11 393.273 197.529C395.467 198 397.003 197.215 399.022 196.376C401.216 195.433 402.445 193.337 403.849 191.294C406 188.15 404.025 183.592 400.514 184.43H400.558Z" fill="#B4CD4C"/>
<path d="M272.583 14.1447C271.705 20.4845 271.574 27.2435 273.856 33.1118C276.138 38.9801 281.317 43.5385 286.627 42.7002C290.138 37.0939 290.533 28.9202 287.549 22.8423C284.564 16.7644 278.376 13.2016 272.583 14.1447Z" fill="#FFD912"/>
<path d="M309.273 18.9651C302.514 22.7376 298.389 32.2211 299.705 41.0236C307.561 41.3903 315.285 34.6313 317.304 25.5145C317.699 23.7855 317.875 21.8992 317.129 20.3274C315.724 17.2884 311.906 17.498 309.273 18.9651Z" fill="#FFD912"/>
<path d="M24.2697 157.604C17.9938 157.604 12.7712 163.839 12.7712 171.331C12.7712 178.824 17.9938 185.059 24.2697 185.059C30.5455 185.059 35.7681 178.824 35.7681 171.331C35.7681 163.839 30.5455 157.604 24.2697 157.604Z" fill="#00C6D0"/>
<path d="M192.752 22.6328C188.934 25.6193 188.934 30.5969 192.752 33.5835C196.176 36.2556 200.74 32.7451 200.74 28.0819C200.74 23.4187 196.176 19.9082 192.752 22.5804V22.6328Z" fill="#00C6D0"/>
<path d="M409.028 12.1537C404.903 12.1537 401.48 16.2405 401.48 21.1657C401.48 26.0909 404.903 30.1777 409.028 30.1777C413.154 30.1777 416.577 26.0909 416.577 21.1657C416.577 16.2405 413.154 12.1537 409.028 12.1537Z" fill="#00C6D0"/>
<path d="M478.94 8.8528C478.765 8.17166 478.633 7.49052 478.458 6.75698C477.141 0.888688 470.733 -1.10234 467.135 3.19409C463.536 7.49052 465.204 15.0879 470.119 16.7121C470.69 16.9217 471.26 17.0789 471.874 17.2885C476.088 18.6508 480.081 13.8828 478.94 8.8528Z" fill="#00C6D0"/>
<path d="M562.633 130.567C554.47 130.567 554.47 145.71 562.633 145.71C570.796 145.71 570.796 130.567 562.633 130.567Z" fill="#00C6D0"/>
</svg>
