<svg width="576" height="521" viewBox="0 0 576 521" fill="none" xmlns="http://www.w3.org/2000/svg">
<g clip-path="url(#clip0_44_1532)">
<path d="M23.1181 90.6885C23.1181 90.6885 -9.6426 122.268 2.82045 136.901C10.2693 145.651 31.3384 124.558 72.898 128.391C114.458 132.224 147.074 45.7059 147.074 45.7059C147.074 45.7059 105.683 36.666 73.5488 54.4565C41.4149 72.2471 23.094 90.6885 23.094 90.6885H23.1181Z" fill="#B4CD4C"/>
<path d="M26.4688 93.3885C26.4688 93.3885 -5.15884 128.632 2.8204 136.901C10.7996 145.169 34.6168 128.174 76.1764 132.007C117.736 135.84 148.158 50.2379 148.158 50.2379C148.158 50.2379 108.985 40.2819 76.8514 58.0725C44.7174 75.8631 26.4688 93.3885 26.4688 93.3885Z" fill="#8DAA14"/>
<path opacity="0.17" d="M9.3291 499.052C9.3291 499.052 36.015 481.358 118.797 481.358C201.578 481.358 240.751 499.052 240.751 499.052C240.751 499.052 187.886 520.29 118.797 520.29C49.7074 520.29 9.3291 499.052 9.3291 499.052Z" fill="black"/>
<path d="M191.743 493.58C191.309 485.577 182.968 484.444 179.183 484.251C164.044 483.431 149.918 478.706 150.063 467.955C150.231 456.625 166.214 394.502 171.879 320.206H65.7383C65.7383 320.206 70.2221 355.233 73.5729 391.706C75.1398 408.773 71.8131 434.206 66.9918 457.01C64.991 466.436 53.5886 486.131 52.6485 494.833C52.4556 496.521 53.0101 497.847 54.1672 498.184L67.3052 501.776C68.3659 502.065 69.4507 502.114 70.5596 502.041C72.3194 501.921 76.1282 499.727 81.5762 502.21C92.4965 501.945 103.127 504.958 114.048 504.765C114.578 503.946 114.964 502.933 115.157 501.824L115.783 498.305C117.181 490.398 109.323 487.409 105.683 486.348C89.0734 481.527 76.4416 472.029 80.6602 458.843C85.9154 442.402 102.428 417.09 106.285 392.984C110.769 365.068 116.965 339.974 120.002 336.695C126.318 329.897 138.034 427.167 133.815 469.666C132.73 480.49 128.608 497.196 129.5 504.548C129.693 506.236 130.536 507.417 131.742 507.465L145.338 507.996C146.423 508.044 147.507 507.827 148.568 507.513C150.256 507.007 153.655 504.741 159.537 505.947C170.119 503.223 180.943 502.957 191.55 500.282C191.863 499.365 192.032 498.281 191.984 497.172L191.791 493.604L191.743 493.58Z" fill="#E7A387"/>
<path d="M105.659 486.348C89.0493 481.527 78.6835 471.523 81.287 459.325C81.8414 456.745 83.0226 453.828 84.3003 450.912C84.4449 450.574 84.2038 450.212 83.8423 450.212C79.5513 450.261 74.1273 449.489 69.1614 447.296C68.6793 447.079 68.1248 447.344 68.0043 447.85C67.2329 451.032 66.4133 454.166 65.6178 457.444C63.3035 466.798 53.5886 486.107 52.6485 494.785C52.4556 496.473 53.0101 497.799 54.1672 498.136L67.3052 501.728C68.3659 502.017 69.4507 502.065 70.5596 501.993C72.3194 501.873 76.1282 499.679 81.5762 502.162C92.4965 501.897 103.127 504.91 114.048 504.717C114.578 503.898 114.964 502.885 115.157 501.776L115.783 498.257C117.181 490.35 109.323 487.361 105.683 486.3L105.659 486.348Z" fill="white"/>
<path d="M191.743 493.58C191.309 485.577 182.968 484.444 179.183 484.251C164.045 483.431 150.666 478.61 150.834 467.858C150.882 465.255 151.774 460.024 153.173 452.503C153.245 452.117 152.932 451.755 152.522 451.828C147.025 452.912 139.408 453.443 134.635 453.081C134.225 453.057 133.863 453.37 133.863 453.78C133.767 459.325 133.719 465.375 133.285 469.811C132.2 480.635 128.608 497.196 129.5 504.524C129.693 506.212 130.537 507.393 131.742 507.441L145.338 507.972C146.423 508.02 147.508 507.803 148.568 507.489C150.256 506.983 153.655 504.717 159.537 505.922C170.119 503.198 180.943 502.933 191.55 500.257C191.863 499.341 192.032 498.257 191.984 497.148L191.791 493.58H191.743Z" fill="white"/>
<path opacity="0.1" d="M73.9345 403.47C81.4557 404.458 89.1939 404.796 97.1731 404.699C99.2945 404.675 101.392 404.651 103.513 404.603C104.67 400.722 105.659 396.841 106.261 392.984C110.745 365.068 116.94 339.974 119.978 336.695C123.787 332.597 129.572 366.394 132.61 403.181C142.614 402.265 152.57 400.746 162.236 398.263C165.973 375.506 169.685 348.748 171.855 320.182H65.7383C65.7383 320.182 70.2221 355.209 73.5729 391.682C73.9104 395.274 74.0068 399.227 73.9345 403.446V403.47Z" fill="black"/>
<path d="M105.659 486.348C96.7393 483.744 89.7484 478.851 85.12 473.716C80.5397 474.391 76.297 479.261 71.6444 478.61C68.7999 478.224 64.7259 473.114 61.7367 471.185C61.1822 470.823 60.459 471.064 60.1939 471.667C56.6261 479.863 53.203 489.916 52.6727 494.809C52.4798 496.497 53.0342 497.823 54.1914 498.16L67.3294 501.752C68.3901 502.041 69.4749 502.09 70.5838 502.017C72.3435 501.897 75.6461 499.293 81.0942 501.8C92.0144 501.535 103.152 504.934 114.072 504.741C114.602 503.922 114.988 502.909 115.181 501.8L115.807 498.281C117.206 490.374 109.347 487.385 105.707 486.324L105.659 486.348Z" fill="#4D3F4E"/>
<path d="M115.325 500.812C105.514 504.259 74.4166 501.728 53.6128 490.06C52.5521 490.06 52.2628 492.929 52.1182 494.134C52.0699 494.665 52.0458 496.642 52.7208 497.172C55.927 499.607 62.9661 502.307 71.4998 504.452C72.9461 503.367 74.8265 502.692 77.1407 502.692C81.0218 502.692 83.6735 504.573 85.1199 507.152C95.4375 508.647 106.117 508.984 114.072 507.031C115.59 506.573 115.325 500.836 115.325 500.836V500.812Z" fill="#3F1C0E"/>
<path d="M179.159 484.251C169.878 483.744 161.971 480.562 156.282 476.633C151.967 478.345 148.954 484.034 144.253 484.468C141.384 484.733 136.274 480.683 132.923 479.502C132.296 479.285 131.645 479.67 131.525 480.321C129.91 489.12 128.873 499.679 129.452 504.572C129.645 506.26 130.488 507.441 131.694 507.489L145.29 508.02C146.375 508.068 147.459 507.851 148.52 507.538C150.207 507.031 154.739 504.765 160.597 505.971C171.18 503.247 180.871 502.981 191.478 500.306C191.791 499.39 191.96 498.305 191.912 497.196L191.719 493.628C191.285 485.625 182.944 484.492 179.159 484.299V484.251Z" fill="#4D3F4E"/>
<path d="M191.863 496.135C183.089 501.728 152.232 506.332 129.307 499.703C128.271 499.944 128.632 502.813 128.777 504.018C128.849 504.548 129.283 506.477 130.054 506.839C133.767 508.502 141.409 509.538 150.352 509.659C151.027 508.936 151.75 508.309 152.498 507.851C154.932 506.429 157.247 506.501 159.922 506.887C159.946 506.887 159.971 506.887 160.019 506.887C161.393 507.08 162.887 507.972 164.141 509.153C174.434 508.261 184.8 506.164 192.056 502.475C193.43 501.68 191.863 496.159 191.863 496.159V496.135Z" fill="#3F1C0E"/>
<path d="M109.588 392.019C114.168 364.996 117.278 342.673 120.243 339.491C123.232 336.285 123.594 361.621 126.27 390.911C137.72 393.924 159.609 393.128 167.853 385.896C170.746 367.214 170.071 344.192 171.903 320.206H65.7383C65.7383 320.206 70.4149 353.545 71.9819 391.32C71.9819 391.393 95.5098 397.154 109.588 392.019Z" fill="#075A5E"/>
<path opacity="0.1" d="M119.785 340.142C119.93 339.877 120.074 339.636 120.243 339.491C120.725 338.961 121.135 339.202 121.521 340.094C129.09 339.853 136.587 339.371 143.867 338.744C152.907 337.949 162.068 336.647 171.059 334.646C171.276 329.897 171.517 325.076 171.903 320.23H65.7383C65.7383 320.23 66.5579 326.112 67.6186 335.683C84.469 339.636 102.308 340.624 119.761 340.166L119.785 340.142Z" fill="black"/>
<path d="M234.146 79.479C234.146 79.479 226.987 64.9187 227.854 62.942C228.722 60.9653 237.497 59.5912 240.679 74.5613C243.861 89.5555 234.122 79.479 234.122 79.479H234.146Z" fill="#E7A387"/>
<path d="M141.987 192.587L138.757 170.987C142.108 170.891 224.359 168.721 241.691 71.1382L264.038 75.1158C253.287 135.575 221.105 164.237 195.865 178.171C168.432 193.334 143.024 192.587 141.987 192.587Z" fill="#E7A387"/>
<path d="M66.7266 204.351C66.6302 201.144 63.9062 198.71 63.9062 198.71C63.1589 185.403 66.8231 174.917 80.1299 174.169L134.514 171.542C146.784 170.843 150.786 179.907 151.606 191.863C150.28 192.249 148.954 192.659 147.652 193.045C136.684 195.094 84.9029 201.868 66.7266 204.351Z" fill="#E7A387"/>
<path d="M102.721 145.92L104.674 145.925C109.447 145.937 113.294 149.804 113.281 154.577L113.227 175.381C113.214 180.154 109.347 184.001 104.574 183.989L102.621 183.984C97.8482 183.971 94.0013 180.104 94.0138 175.331L94.0682 154.527C94.0807 149.754 97.9478 145.907 102.721 145.92Z" fill="#E7A387"/>
<path opacity="0.08" d="M94.9794 167.853C94.6419 167.733 94.3285 167.685 94.0151 167.588V154.884C94.0633 149.918 98.1132 145.892 103.079 145.892H104.284C109.25 145.892 113.276 149.966 113.276 154.932L113.228 170.192C107.129 170.867 101.151 170.143 94.9794 167.829V167.853Z" fill="black"/>
<path d="M164.069 99.4392C164.069 107.611 159.199 114.241 153.124 114.241C147.049 114.241 142.108 107.659 142.083 99.4874C142.083 91.3153 146.953 84.686 153.028 84.686C159.103 84.686 164.044 91.2671 164.069 99.4392Z" fill="#D7937F"/>
<path d="M87.9258 37.3971L76.1945 39.5799C47.4772 44.923 28.5288 72.5345 33.8719 101.252L37.6245 121.42C42.9677 150.137 70.5791 169.086 99.2964 163.743L111.028 161.56C139.745 156.217 158.693 128.605 153.35 99.8881L149.598 79.7196C144.255 51.0024 116.643 32.0539 87.9258 37.3971Z" fill="#E7A387"/>
<path d="M80.8048 122.943C78.4906 123.377 77.4299 126.414 78.8039 128.704C85.1439 139.335 95.124 145.579 104.863 143.771C114.602 141.963 121.665 132.537 123.763 120.34C124.221 117.712 122.147 115.253 119.833 115.687L80.8048 122.943Z" fill="white"/>
<path d="M43.6808 116.651C46.9111 124.148 45.0067 132.176 39.4381 134.562C33.8695 136.973 26.734 132.827 23.5037 125.33C20.2735 117.832 22.1779 109.805 27.7465 107.418C33.3151 105.008 40.4506 109.154 43.6808 116.651Z" fill="#E7A387"/>
<path d="M61.9536 320.761C61.9536 320.761 78.0326 328.692 121.4 328.692C155.149 328.692 174.989 320.761 174.989 320.761C174.989 283.323 159.995 195.479 155.872 177.713C152.088 172.819 143.168 171.011 141.505 171.011C140.637 170.963 139.721 170.939 138.757 171.011L119.303 172.313C114.891 187.066 91.9662 189.549 86.2288 173.856C86.2288 173.856 83.7218 173.976 80.1299 174.193C66.558 175.013 55.8547 186.054 55.469 199.65C54.5047 234.435 63.8098 274.452 61.9536 320.785V320.761Z" fill="#E7A387"/>
<path d="M152.666 208.81C141.987 199.939 143.024 184.945 141.529 170.987L127.258 171.59C121.231 194.636 94.0393 196.444 86.2288 173.808C86.2288 173.808 83.7217 173.928 80.1298 174.145C76.2969 174.386 72.705 175.447 69.4989 177.134C80.1539 189.405 81.7691 210.642 72.4158 223.829C68.4382 229.445 62.966 232.941 57.0117 234.628C59.3259 260.639 63.2312 289.205 61.9535 320.737C61.9535 320.737 78.0326 328.668 121.4 328.668C155.149 328.668 174.989 320.737 174.989 320.737C174.989 295.907 168.384 248.875 162.743 214.861C159.151 213.366 155.752 211.366 152.642 208.81H152.666Z" fill="#B4CD4C"/>
<path d="M65.5937 98.8848C61.7125 99.4152 59.109 103.923 59.784 108.937C60.459 113.975 64.1714 117.616 68.0525 117.085C71.9337 116.555 74.5372 112.047 73.8622 107.033C73.1872 101.995 69.4748 98.3545 65.5937 98.8848Z" fill="#582C1A"/>
<path d="M124.606 88.9047C120.725 89.4351 118.122 93.943 118.797 98.9571C119.472 103.971 123.184 107.635 127.065 107.105C130.946 106.575 133.55 102.067 132.875 97.0527C132.2 92.0144 128.488 88.3744 124.606 88.9047Z" fill="#582C1A"/>
<path opacity="0.1" d="M59.7841 108.937C60.459 113.975 64.1714 117.616 68.0526 117.085C70.7043 116.724 72.7292 114.506 73.5489 111.541C69.5954 108.118 65.6178 104.694 61.5438 101.416C60.1216 103.296 59.3742 106.02 59.7841 108.961V108.937Z" fill="white"/>
<path opacity="0.1" d="M118.797 98.9812C119.472 104.019 123.184 107.66 127.065 107.129C129.669 106.768 131.67 104.646 132.513 101.778C128.415 98.475 124.414 95.0759 120.484 91.5564C119.11 93.4367 118.387 96.1125 118.773 98.9812H118.797Z" fill="white"/>
<path d="M92.0625 25.1671C92.0625 25.1671 91.8215 25.1912 91.725 25.2153C79.0932 28.8795 66.5579 35.3883 57.5421 40.3542C54.3841 42.0899 51.0815 43.9702 47.7789 45.9951C38.7149 55.4931 31.9169 67.715 27.409 81.6968C27.2161 82.2753 26.9751 82.7575 26.734 83.2637C26.6858 83.6976 26.6376 84.3003 26.5894 84.7101C29.0241 94.0393 32.0374 103.055 34.424 109.66C35.4846 112.625 39.7756 112.336 40.4024 109.25C43.8496 92.2795 51.5637 61.1099 62.1223 58.4099C72.6086 55.7341 77.1888 61.0616 89.6037 58.7715C101.585 56.5778 101.681 48.695 114.144 48.4781C132.851 48.1647 150.979 88.302 150.979 88.302C150.979 88.302 150.882 72.5122 150.906 55.7823C136.515 35.8222 114.988 25.8421 92.1107 25.1912L92.0625 25.1671Z" fill="#4C2B1F"/>
<path opacity="0.17" d="M564.357 377.483L201.41 372.18L195.889 81.962H576L564.357 377.483Z" fill="black"/>
<path d="M552.713 365.84L191.381 360.85L184.222 70.3186L564.357 64.0509L552.713 365.84Z" fill="white"/>
<path opacity="0.12" d="M169.324 260.229C169.131 260.736 168.938 261.266 168.745 261.772C166.744 267.003 163.852 271.704 162.309 276.815C131.814 287.662 108.672 287.373 93.2439 276.091C74.8024 262.592 69.3061 248.658 68.7758 237.449C64.7741 236.171 60.8206 234.869 56.8672 233.495C57.8797 246.055 59.2537 259.265 60.3867 273.03C65.5455 280.045 72.3676 286.65 81.046 292.46C92.8822 300.367 106.406 305.188 122.702 305.188C138.998 305.188 149.074 304.127 169.685 295.69C170.915 296.027 172.193 296.22 173.47 296.293C172.434 285.107 170.987 272.716 169.348 260.205L169.324 260.229Z" fill="black"/>
<path d="M122.678 287.036C106.382 287.036 92.8581 282.214 81.0218 274.307C46.1157 251.021 44.6693 209.726 60.0492 185.523C63.5929 179.955 65.666 184.198 70.8489 190.827C73.1149 193.888 73.5488 197.914 72.0301 201.41C67.6427 211.679 62.4599 235.4 93.2197 257.915C110.504 270.571 137.503 269.414 173.663 254.227L171.855 276.598C149.701 285.903 139.721 287.012 122.654 287.012L122.678 287.036Z" fill="#E7A387"/>
<path d="M204.399 245.862C195.335 248.682 190.152 250.611 190.152 250.611L188.609 247.622C188.609 247.622 195.696 243.837 201.819 242.174C208.015 240.51 206.592 235.544 197.89 237.786C193.864 238.823 189.694 240.125 186.463 242.728C185.017 243.885 183.113 244.801 181.353 245.307C180.027 245.693 177.954 246.465 176.773 245.524C176.098 244.97 175.833 244.03 175.857 243.162C175.881 242.294 176.146 241.426 176.363 240.583C176.724 239.016 176.869 237.4 176.773 235.809C176.7 234.435 176.411 232.989 175.543 231.928C174.675 230.868 173.06 230.289 171.855 230.94C171.493 231.133 171.18 231.446 171.059 231.832C170.963 232.145 171.011 232.459 171.035 232.772C171.325 236.557 170.071 240.173 168.745 243.644C165.635 251.768 160.356 258.614 161.345 267.799C161.706 271.053 163.104 274.066 165.901 275.899C169.42 278.213 174.29 278.623 178.34 277.948C183.474 277.104 188.392 275.657 193.189 273.849C198.444 271.873 203.001 271.776 209.799 271.174C216.765 270.547 212.908 265.75 210.377 265.485C206.52 265.075 197.36 267.413 197.36 267.413L196.299 263.098C196.299 263.098 204.64 261.483 208.4 261.459C215.391 261.411 216.621 254.227 208.569 255.36C198.685 256.758 194.804 258.783 194.804 258.783L192.707 255.408C192.707 255.408 200.614 252.13 205.797 251.527C215.681 250.37 214.331 242.728 204.375 245.838L204.399 245.862Z" fill="#E7A387"/>
<path d="M240.028 66.1723C238.413 67.4499 237.666 69.5472 237.786 71.6203C238.1 76.5863 239.209 87.2413 243.307 86.6628C248.128 85.9637 245.356 71.2346 245.356 71.2346H247.501C247.501 71.2346 246.272 87.4824 250.249 87.4824C255.746 87.4824 255.553 71.1382 255.553 71.1382L257.746 71.2346C257.746 71.2346 255.408 86.8074 259.868 86.4699C265.485 86.0601 265.557 71.2346 265.557 71.2346H269.534C269.534 71.2346 263.243 87.2172 268.233 86.2771C273.223 85.3369 277.056 71.1623 276.549 68.4865C276.043 65.8107 268.98 63.5929 267.702 67.6428C267.702 67.6428 262.351 59.2296 258.132 68.1972C258.132 68.1972 252.539 60.0975 248.056 68.1249C248.056 68.1249 244.054 63.0625 240.076 66.2205L240.028 66.1723Z" fill="#E7A387"/>
<path d="M24.9985 94.9312L21.6959 79.2861C14.6568 50.3343 26.5413 13.138 61.2547 5.42393L83.6496 0.723166C119.11 -3.71242 145.217 12.8246 150.858 48.237L151.726 56.9877C151.774 57.5903 151.244 58.0966 150.641 57.976C146.109 57.0359 128.512 54.5529 94.5457 62.3875C52.046 72.1988 24.9985 94.9554 24.9985 94.9554V94.9312Z" fill="#B4CD4C"/>
<path opacity="0.1" d="M31.6036 52.1182C52.5039 48.5746 72.2471 36.5936 82.8299 17.887C86.0119 12.2702 87.9886 6.34002 89.1458 0.241089C87.3378 0.361621 85.5057 0.50626 83.6495 0.723218L61.2546 5.42398C36.5213 10.9203 23.4074 31.3866 20.4182 53.1789C24.4199 53.0584 28.2528 52.6968 31.6036 52.1182Z" fill="white"/>
<path opacity="0.1" d="M150.858 48.2129C148.351 32.4714 141.794 20.4905 132.176 12.4148C125.257 31.941 109.251 50.0932 92.6895 62.8214C93.3162 62.6768 93.9189 62.508 94.5457 62.3634C128.512 54.5288 146.085 57.0118 150.641 57.9519C151.244 58.0724 151.774 57.5662 151.726 56.9635L150.858 48.2129Z" fill="black"/>
<path d="M117.133 46.5254C117.133 46.5254 117.085 21.4547 89.0011 27.3849C60.9171 33.3151 69.4508 57.3975 69.4508 57.3975C69.4508 57.3975 96.2572 47.2004 117.133 46.5013V46.5254Z" fill="#453333"/>
<path opacity="0.05" d="M113.204 43.5363C113.059 39.848 112.601 36.1597 111.878 32.4714C115.253 36.3044 116.458 41.0533 116.892 43.922C115.687 43.7292 114.458 43.6086 113.204 43.5363Z" fill="white"/>
<path opacity="0.05" d="M105.514 43.6568C104.863 37.8953 103.561 32.2303 101.368 26.8787C103.32 27.2162 105.08 27.7465 106.575 28.4456C107.852 33.4838 108.648 38.4739 108.865 43.4639C107.756 43.488 106.623 43.5603 105.514 43.6568Z" fill="white"/>
<path opacity="0.05" d="M92.352 46.0434C90.5922 39.9444 88.4949 33.966 85.8191 28.2046C86.8316 27.9153 87.8681 27.626 89.0011 27.3849C90.3752 27.0957 91.6529 26.9028 92.9064 26.7582C95.5581 32.4714 97.3661 38.5221 98.2098 44.6934C96.2572 45.0791 94.3046 45.5371 92.352 46.0434Z" fill="white"/>
<path opacity="0.05" d="M81.8655 49.1531C80.5396 43.6809 78.2495 38.5703 74.9951 33.8214C76.2245 32.7607 77.5986 31.7241 79.262 30.8322C82.7333 35.8704 85.0716 41.6801 87.0725 47.4897C85.3127 48.0201 83.577 48.5745 81.8655 49.1531Z" fill="white"/>
<path opacity="0.05" d="M72.3194 52.5039C71.0658 50.8165 69.7641 49.1531 68.3418 47.5862C68.5346 45.1997 69.065 42.6203 70.2703 40.0891C72.7774 43.2953 74.5854 47.3211 76.1041 51.154C74.8264 51.612 73.5729 52.0459 72.3194 52.5039Z" fill="white"/>
<path d="M131.429 49.6593C130.971 47.5138 129.066 45.971 126.848 46.0433C122.099 46.188 113.084 46.7665 100.693 48.9361C78.4666 52.8414 70.9213 57.2769 67.4982 58.5546C63.4242 60.0492 63.7376 65.1115 64.509 67.2811C64.967 68.5588 65.9554 71.4757 69.4749 70.1498C72.9944 68.8239 93.051 62.2188 104.381 60.3144C112.409 58.9644 123.401 57.7832 129.114 57.2287C131.163 57.0359 132.562 55.1074 132.128 53.1065L131.404 49.6834L131.429 49.6593Z" fill="#F4EBD6"/>
<path d="M116 53.203C116.145 53.902 116.844 54.336 117.543 54.1672C118.242 54.0226 118.7 53.3476 118.556 52.6485C118.411 51.9494 117.712 51.5155 117.013 51.6842C116.314 51.8289 115.856 52.5039 116 53.203Z" fill="#B6AC98"/>
<path d="M102.549 54.7458C102.694 55.4449 103.369 55.8788 104.068 55.7342C104.767 55.5895 105.201 54.9146 105.056 54.2155C104.911 53.5164 104.236 53.0825 103.537 53.2271C102.838 53.3717 102.404 54.0467 102.549 54.7458Z" fill="#B6AC98"/>
<path d="M86.9037 58.5064C87.0484 59.2055 87.7234 59.6394 88.4225 59.4948C89.1215 59.3502 89.5555 58.6752 89.4108 57.9761C89.2662 57.277 88.5912 56.8431 87.8921 56.9877C87.193 57.1324 86.7591 57.8073 86.9037 58.5064Z" fill="#B6AC98"/>
<path d="M71.8855 62.9902C72.0301 63.7375 72.7533 64.1956 73.5006 64.0509C74.2479 63.9063 74.7059 63.1831 74.5613 62.4358C74.4167 61.6885 73.6935 61.2305 72.9462 61.3751C72.1989 61.5198 71.7409 62.2429 71.8855 62.9902Z" fill="#B6AC98"/>
</g>
<defs>
<clipPath id="clip0_44_1532">
<rect width="576" height="520.29" fill="white"/>
</clipPath>
</defs>
</svg>
