<svg width="524" height="162" viewBox="0 0 524 162" fill="none" xmlns="http://www.w3.org/2000/svg">
<path d="M481.736 90.5552C490.391 69.0329 477.529 36.2311 450.388 37.0605C322.29 40.9171 194.434 35.2773 66.2943 44.1931C48.9017 45.3957 38.3852 61.6929 38.6279 76.829C38.3043 78.7366 38.1021 80.6856 38.1021 82.6347C38.1021 100.715 49.0635 112.492 63.5843 117.468C62.0473 122.32 63.1798 128.167 68.074 130.573C81.7454 137.332 89.2688 142.64 104.558 146.04C121.263 149.773 139.182 150.312 156.129 152.053C189.822 155.454 223.677 157.444 257.532 158.564C314.807 160.513 371.717 157.237 428.749 152.883C441.975 153.463 455.363 151.888 468.428 149.234C468.388 149.068 468.347 148.86 468.266 148.694C492.899 140.359 497.793 106.272 481.736 90.5552Z" fill="white"/>
<path d="M47.1623 45.2352C37.9806 41.5859 31.428 31.7993 31.4684 21.6809C37.1312 21.6809 42.9152 24.2105 46.2724 28.855C49.6296 33.541 50.2363 40.3419 47.1623 45.2352Z" fill="#00C6D0"/>
<path d="M62.0068 14.6312C64.7573 19.0269 67.5482 23.5885 68.1954 28.7306C68.8425 33.8727 66.7392 39.8028 62.0473 41.7933C57.3957 39.0978 54.3217 33.7483 54.2812 28.233C54.2812 22.7591 57.3148 17.3681 62.0068 14.6312Z" fill="#00C6D0"/>
<path d="M14.1973 56.9294C19.0106 60.3713 24.107 63.9376 29.9315 64.4767C35.756 65.0158 42.43 61.3251 43.0367 55.3536C33.855 51.4555 22.934 52.0775 14.1973 56.9294Z" fill="#00C6D0"/>
<path d="M473.039 44.1155C471.3 33.8313 478.419 22.8006 488.328 20.4368C491.079 29.7673 488.976 40.4663 482.868 47.9721C481.897 49.1747 480.684 50.3773 479.187 50.6676C475.951 51.2481 473.605 47.4745 473.039 44.157V44.1155Z" fill="#00C6D0"/>
<path d="M488.005 55.9756C492.535 48.5941 500.908 43.8252 509.442 43.7838C509.968 49.0503 507.137 54.5242 502.607 57.0952C498.077 59.6663 492.09 59.2101 487.965 55.9756H488.005Z" fill="#00C6D0"/>
<path d="M62.9371 98.8958C60.8742 99.1861 58.2856 99.269 56.4654 100.43C54.443 101.716 52.1375 102.752 50.8027 104.826C49.7915 106.443 50.7218 109.263 52.7038 109.595C57.3148 110.341 61.845 107.48 65.2022 104.536C67.2246 102.752 65.6876 98.4811 62.8966 98.8543L62.9371 98.8958Z" fill="#B4CD4C"/>
<path d="M139.586 61.1177C139.303 61.9886 137.847 62.9009 136.997 62.9838C133.681 63.357 132.831 67.8771 136.188 69.0383C140.88 70.6555 145.087 66.7575 145.006 61.8642C144.966 58.6296 140.516 58.049 139.586 61.1177Z" fill="#B4CD4C"/>
<path d="M192.128 146.336C190.672 144.719 189.135 144.677 187.153 144.968C183.27 145.548 183.27 152.349 187.153 152.93C189.175 153.22 190.672 153.178 192.128 151.561C193.503 150.027 193.503 147.829 192.128 146.295V146.336Z" fill="#B4CD4C"/>
<path d="M308.254 85.294C305.584 85.0867 303.683 85.8331 301.499 87.4089C299.194 89.0677 300.205 92.2193 302.874 92.5511C305.544 92.8414 307.486 92.5511 309.791 91.0582C312.38 89.358 311.247 85.5429 308.294 85.3355L308.254 85.294Z" fill="#B4CD4C"/>
<path d="M414.713 59.6248C413.136 59.5419 411.558 59.5004 409.981 59.4175C407.918 59.3345 406.098 59.998 404.197 60.6615C399.869 62.1544 400.637 68.5821 405.248 68.7894C407.028 68.8724 408.646 68.9138 410.385 68.6235C412.125 68.3333 413.945 67.3795 415.603 66.7989C419.405 65.4719 418.718 59.8322 414.673 59.6248H414.713Z" fill="#B4CD4C"/>
<path d="M472.716 139.95C468.914 140.323 465.759 141.94 462.401 143.682C460.258 144.802 459.651 147.87 460.824 149.902C462.118 152.142 464.707 152.639 466.891 151.52C469.884 149.985 472.837 148.492 475.143 145.921C476.963 143.889 475.911 139.66 472.756 139.991L472.716 139.95Z" fill="#B4CD4C"/>
<path d="M369.169 148.285C367.227 148.7 365.164 148.949 363.627 150.4C362.252 151.727 360.877 152.805 360.311 154.754C359.866 156.289 360.837 158.321 362.454 158.652C364.477 159.026 365.893 158.404 367.753 157.74C369.776 156.994 370.908 155.335 372.202 153.718C374.184 151.229 372.364 147.622 369.128 148.285H369.169Z" fill="#B4CD4C"/>
<path d="M251.222 13.5115C250.413 18.5293 250.292 23.8787 252.395 28.5232C254.499 33.1677 259.271 36.7755 264.166 36.112C267.402 31.6749 267.766 25.2057 265.015 20.3954C262.265 15.585 256.561 12.7651 251.222 13.5115Z" fill="#00C6D0"/>
<path d="M285.037 17.3267C278.808 20.3124 275.006 27.8183 276.219 34.7851C283.46 35.0753 290.578 29.7259 292.439 22.5103C292.803 21.1418 292.965 19.6489 292.277 18.4049C290.983 15.9997 287.464 16.1656 285.037 17.3267Z" fill="#00C6D0"/>
<path d="M22.3676 127.053C16.5836 127.053 11.7703 131.988 11.7703 137.918C11.7703 143.848 16.5836 148.783 22.3676 148.783C28.1517 148.783 32.965 143.848 32.965 137.918C32.965 131.988 28.1517 127.053 22.3676 127.053Z" fill="#FFD912"/>
<path d="M142.377 20.7686C147.783 20.7686 152.165 16.2756 152.165 10.7331C152.165 5.19072 147.783 0.697693 142.377 0.697693C136.971 0.697693 132.589 5.19072 132.589 10.7331C132.589 16.2756 136.971 20.7686 142.377 20.7686Z" fill="#FFD912"/>
<path d="M177.648 20.2295C174.129 22.5932 174.129 26.5327 177.648 28.8965C180.802 31.0114 185.009 28.233 185.009 24.5422C185.009 20.8515 180.802 18.0731 177.648 20.188V20.2295Z" fill="#FFD912"/>
<path d="M376.975 11.9357C373.173 11.9357 370.018 15.1703 370.018 19.0684C370.018 22.9664 373.173 26.201 376.975 26.201C380.777 26.201 383.932 22.9664 383.932 19.0684C383.932 15.1703 380.777 11.9357 376.975 11.9357Z" fill="#FFD912"/>
<path d="M441.409 9.32319C441.247 8.7841 441.126 8.245 440.964 7.66444C439.75 3.01993 433.845 1.44412 430.528 4.84456C427.212 8.245 428.749 14.258 433.279 15.5435C433.805 15.7094 434.33 15.8338 434.897 15.9997C438.78 17.0779 442.46 13.3042 441.409 9.32319Z" fill="#FFD912"/>
</svg>
