<svg width="548" height="606" viewBox="0 0 548 606" fill="none" xmlns="http://www.w3.org/2000/svg">
<path d="M502.798 57.3932C511.558 63.0334 516.281 74.2714 514.048 84.3644C508.166 83.177 502.712 79.3603 500.222 73.9746C497.732 68.5888 498.591 61.634 502.798 57.3932Z" fill="#FFD912"/>
<path d="M480.771 84.7885C478.882 79.8268 476.95 74.6531 477.336 69.3522C477.766 64.0512 481.244 58.5807 486.525 57.6477C490.819 61.3372 492.837 67.4014 491.678 72.872C490.518 78.385 486.182 83.0922 480.771 84.7885Z" fill="#FFD912"/>
<path d="M539.51 52.8556C535.259 48.3604 530.75 43.6956 524.782 41.8721C518.857 40.0486 511.128 42.3386 509.239 48.1484C517.955 54.0431 529.376 55.7818 539.51 52.8132V52.8556Z" fill="#FFD912"/>
<path d="M30.7851 54.8912C42.2065 56.0362 53.0697 44.459 50.9658 33.3058C45.5557 32.5 40.2314 35.723 36.9681 40.0486C33.7049 44.3741 32.2021 49.7175 30.7422 54.8912H30.7851Z" fill="#FFD912"/>
<path d="M69.6866 45.4767C69.5149 43.1443 69.1284 40.8119 68.5702 38.5643C68.1409 36.9104 67.1962 34.9172 65.4358 34.9172C59.8539 42.6778 58.1364 53.0253 61.0132 62.1429C67.6686 60.489 70.2019 52.2619 69.6866 45.4767Z" fill="#FFD912"/>
<path d="M281.026 96.1961C283.001 91.3617 284.418 86.0607 283.301 80.9718C282.228 75.8829 278.149 71.1333 272.867 70.6244C268.445 74.2714 266.599 80.675 268.316 86.1031C270.034 91.5313 275.272 95.6872 280.983 96.2385L281.026 96.1961Z" fill="#FFD912"/>
<path d="M249.338 86.5273C255.95 83.4739 259.986 75.7982 258.698 68.6737C251.012 68.3768 243.455 73.8474 241.48 81.2263C241.094 82.6258 240.922 84.1524 241.652 85.4246C243.026 87.8843 246.761 87.7147 249.338 86.5273Z" fill="#FFD912"/>
<path d="M16.7443 5.35925C10.6042 5.35925 5.49463 10.4057 5.49463 16.47C5.49463 22.5343 10.6042 27.5808 16.7443 27.5808C22.8844 27.5808 27.9939 22.5343 27.9939 16.47C27.9939 10.4057 22.8844 5.35925 16.7443 5.35925Z" fill="#00C6D0"/>
<path d="M171.491 74.6107C169.473 71.1333 164.493 70.582 161.659 73.3809C158.825 76.1797 159.426 81.099 162.904 83.0922C164.192 83.8131 165.48 84.3644 167.026 84.1524C170.332 83.7283 172.136 81.9472 172.565 78.6818C172.78 77.1975 172.221 75.8829 171.491 74.6107Z" fill="#00C6D0"/>
<path d="M356.209 88.3083L355.866 87.9267C352.903 84.8733 347.536 84.8733 344.573 87.9267C344.445 88.0539 344.359 88.1811 344.23 88.3083C339.163 93.5245 342.727 102.6 350.198 102.6C357.669 102.6 361.233 93.5245 356.166 88.3083H356.209Z" fill="#00C6D0"/>
<path d="M407.52 67.4014C407.262 67.6135 407.005 67.8255 406.747 68.0375C404.729 69.6914 404.729 73.5081 406.747 75.162C407.005 75.374 407.262 75.5861 407.52 75.7981C411.427 79.0211 417.825 77.1127 417.825 71.5998C417.825 66.0868 411.427 64.1784 407.52 67.4014Z" fill="#00C6D0"/>
<path d="M534.873 194.963C526.113 194.963 526.113 208.364 534.873 208.364C543.632 208.364 543.632 194.963 534.873 194.963Z" fill="#00C6D0"/>
<path d="M525.341 341.905C524.868 339.912 522.206 338.131 520.145 338.979C519.93 339.064 519.716 339.149 519.501 339.234C515.766 340.76 515.766 345.213 519.501 346.74C519.716 346.825 519.93 346.909 520.145 346.994C522.206 347.842 524.868 346.104 525.341 344.068C525.512 343.262 525.512 342.669 525.341 341.863V341.905Z" fill="#00C6D0"/>
<path d="M539.167 478.415C527.702 478.415 527.702 495.972 539.167 495.972C550.631 495.972 550.631 478.415 539.167 478.415Z" fill="#00C6D0"/>
<path d="M335.213 572.517C335.213 572.517 335.084 572.136 334.998 571.966C333.409 567.81 329.416 564.884 324.736 566.199C324.564 566.241 324.392 566.283 324.221 566.326C318.853 567.852 315.762 574.383 318.896 579.26C319.068 579.514 319.197 579.727 319.369 579.981C320.7 582.059 323.233 583.882 325.895 583.67C326.153 583.67 326.368 583.67 326.625 583.628C329.073 583.416 331.134 582.822 332.937 581.041C335.041 578.963 336.329 575.359 335.213 572.475V572.517Z" fill="#00C6D0"/>
<path d="M214.258 596.647C209.492 596.647 209.492 603.941 214.258 603.941C219.024 603.941 219.024 596.647 214.258 596.647Z" fill="#00C6D0"/>
<path d="M92.6153 567.386C82.8685 567.386 82.8685 582.313 92.6153 582.313C102.362 582.313 102.362 567.386 92.6153 567.386Z" fill="#00C6D0"/>
<path d="M12.4506 517.557C7.81334 517.557 7.81334 524.682 12.4506 524.682C17.0879 524.682 17.0879 517.557 12.4506 517.557Z" fill="#00C6D0"/>
<path d="M26.792 380.878C23.4858 380.878 20.7378 383.592 20.7378 386.857C20.7378 390.123 23.4858 392.837 26.792 392.837C30.0982 392.837 32.8462 390.123 32.8462 386.857C32.8462 383.592 30.0982 380.878 26.792 380.878Z" fill="#00C6D0"/>
<path d="M8.1568 290.889C4.67885 290.889 4.67885 296.19 8.1568 296.19C11.6347 296.19 11.6347 290.889 8.1568 290.889Z" fill="#00C6D0"/>
<path d="M37.784 155.482C32.5027 152.428 26.3626 155.397 24.5163 160.825L24.2587 161.588C21.4248 169.815 33.2326 176.558 39.0722 170.112C39.2439 169.9 39.4586 169.688 39.6304 169.519C43.4947 165.278 43.0224 158.535 37.784 155.524V155.482Z" fill="#00C6D0"/>
<path d="M33.0491 70.5909C33.0491 70.5909 21.7033 582.265 46.6297 587.061C71.556 591.898 87.4144 548.445 114.575 548.445C141.737 548.445 137.224 584.642 162.15 587.061C187.077 589.479 200.657 550.864 230.096 555.701C259.535 560.539 275.394 594.317 298.042 591.898C320.691 589.479 327.481 548.445 356.963 553.283C386.402 558.12 386.402 594.317 418.118 591.898C449.835 589.479 447.557 555.701 472.484 555.701C497.41 555.701 479.274 599.154 513.268 594.317C547.263 589.479 526.849 70.5909 506.478 70.5909C486.107 70.5909 481.552 101.95 465.693 101.95C449.835 101.95 427.186 53.6596 406.773 56.0783C386.402 58.4971 368.266 89.8562 347.852 89.8562C327.438 89.8562 322.925 58.4971 309.345 58.4971C295.764 58.4971 286.696 92.2749 266.282 94.6937C245.912 97.1124 250.424 48.822 225.498 51.2408C200.571 53.6596 198.294 94.6937 171.133 94.6937C143.971 94.6937 150.762 44.0269 130.348 51.2408C109.977 58.4971 112.212 85.0186 91.8409 89.8562C71.4701 94.6937 39.7534 27.0956 32.9202 70.5485L33.0491 70.5909Z" fill="white"/>
</svg>
