<svg width="561" height="503" viewBox="0 0 561 503" fill="none" xmlns="http://www.w3.org/2000/svg">
<g clip-path="url(#clip0_45_29)">
<path d="M502.411 142.099C502.411 142.099 506.875 131.422 518.738 133.48C535.138 136.312 559.011 153.382 544.503 165.899C544.503 165.899 572.766 192.992 533.1 189.603C533.1 189.603 557.312 205.243 542.902 211.611C542.902 211.611 558.865 228.196 539.238 234.346C539.238 234.346 553.722 246.04 546.88 264.514C542.586 276.039 550.471 283.907 550.471 283.907C550.471 283.907 514.104 271.85 526.55 239.987C526.55 239.987 506.972 221.925 516.725 216.938C516.725 216.938 490.305 204.783 507.311 195.268C507.311 195.268 487.757 189.07 502.265 174.01C502.265 174.01 466.02 155.682 502.387 142.123L502.411 142.099Z" fill="#DDC492"/>
<path d="M484.895 2.35556e-05C484.895 2.35556e-05 570.292 23.437 540.767 112.101C511.242 200.764 425.699 157.691 407.771 130.598C389.842 103.481 376.62 -0.266306 484.895 2.35556e-05Z" fill="#DDC492"/>
<path d="M444.161 304.947C443.458 305.989 438.921 397.461 439.673 423.924C440.425 450.364 423.661 439.057 420.774 422.932C417.887 406.806 412.865 348.795 408.644 300.468C404.423 252.166 444.186 304.947 444.186 304.947H444.161Z" fill="#E7A387"/>
<path d="M497.898 313.373C497.898 313.373 497.243 386.081 502.847 421.406L493.92 427.604L484.992 424.384C484.992 424.384 463.497 341.096 460.198 311.073L497.898 313.373Z" fill="#E7A387"/>
<path opacity="0.09" d="M414.806 369.327C412.889 347.367 410.512 321.702 408.644 300.444C404.423 252.142 444.186 304.923 444.186 304.923C443.773 305.553 441.954 343.105 440.741 375.162C431.691 374.847 422.133 373.152 414.83 369.302L414.806 369.327Z" fill="black"/>
<path opacity="0.09" d="M498.529 366.615C489.431 370.852 481.522 372.886 472.667 372.281C467.427 349.546 461.605 323.784 460.198 311.097L497.898 313.397C497.898 313.397 497.631 339.11 498.529 366.615Z" fill="black"/>
<path d="M478.49 156.505C478.49 156.505 460.537 150.888 442.56 151.324L438.46 162.8L475.336 171.686L478.514 156.505H478.49Z" fill="#D7D1C6"/>
<path d="M416.335 160.694C417.257 158.829 418.324 155.682 419.804 153.793C439.916 154.859 477.301 159.774 497.049 169.168C499.621 170.378 495.715 173.211 495.521 176.673C495.327 179.894 494.648 183.041 493.968 186.189C492.974 190.837 492.003 195.486 491.008 200.135C490.863 200.788 490.717 201.466 490.305 202.023C489.601 202.967 488.34 203.234 487.2 203.5C482.469 204.662 478.053 206.987 473.25 207.81C467.937 208.754 463.909 206.793 459.494 204.154C457.505 202.943 455.564 201.612 453.405 200.692C451.246 199.747 447.752 199.82 445.908 198.682C444.258 197.665 442.512 196.866 440.765 196.503C438.751 196.067 436.713 195.849 434.724 195.462C433.147 194.397 431.328 193.961 429.751 193.016C425.796 190.668 421.429 184.905 418.809 181.056C415.849 176.722 414.345 170.112 414.588 164.35C415.146 163.139 415.728 161.904 416.335 160.718V160.694Z" fill="#D6927C"/>
<path d="M451.682 176.407L455.939 177.481C461.122 178.789 466.386 175.656 467.697 170.483L474.488 143.677C475.799 138.505 472.66 133.251 467.477 131.943L463.219 130.869C458.037 129.561 452.772 132.694 451.462 137.867L444.67 164.673C443.36 169.845 446.499 175.099 451.682 176.407Z" fill="#D6927C"/>
<path d="M471.285 156.287C462.769 158.345 454.157 158.587 447.194 154.689L451.124 139.194C452.604 133.334 458.645 129.727 464.516 131.228L466.166 131.64C472.037 133.116 475.651 139.145 474.147 145.004L471.285 156.311V156.287Z" fill="#C78575"/>
<path d="M450.688 150.718C477.568 159.701 505.516 147.159 522.256 120.647C527.399 112.512 531.208 103.312 533.125 93.6754C541.131 53.508 519.733 10.7742 482.081 5.06024C414.491 -5.18135 379.143 106.338 436.568 143.842C439.261 145.585 442.051 147.135 444.938 148.442C446.83 149.314 448.747 150.065 450.663 150.694L450.688 150.718Z" fill="#E5A185"/>
<path opacity="0.11" d="M471.236 42.9759C455.637 65.2024 425.723 65.0087 407.795 85.4434C407.965 43.0486 438.218 -1.57377 482.105 5.06026C519.757 10.7742 541.155 53.4838 533.149 93.6754C531.232 103.312 527.399 112.488 522.256 120.647C521.819 121.35 521.334 121.979 520.897 122.657C509.01 83.337 471.843 67.5025 471.236 42.9759Z" fill="black"/>
<path d="M484.288 117.016C486.69 117.306 488 120.115 486.787 122.342C481.062 132.681 471.309 139.073 461.144 137.838C450.979 136.603 443.021 128.08 439.94 116.701C439.285 114.255 441.226 111.834 443.628 112.125L484.288 117.016Z" fill="white"/>
<path d="M505.031 172.872C502.387 166.141 497.073 169.023 497.073 169.023C497.073 169.023 488.073 187.448 451.1 178.029C421.939 170.596 421.939 153.914 421.939 153.914C421.939 153.914 416.868 151.13 413.302 153.382C412.404 155.827 362.961 302.793 372.302 340.539C380.308 372.886 538.777 366.324 531.257 340.539C504.255 247.783 496.588 165.028 505.031 172.872Z" fill="#5EBBC0"/>
<path opacity="0.1" d="M444.477 200.643C443.652 198.779 443.361 196.745 444.428 194.735C443.385 195.728 442.342 196.721 441.299 197.641C436.641 201.757 429.387 201.031 425.772 195.97C416.844 183.501 413.496 166.965 417.596 152.534C419.949 152.801 421.939 153.89 421.939 153.89C421.939 153.89 421.939 170.572 451.1 178.005C488.073 187.423 497.074 168.998 497.074 168.998C497.074 168.998 498.893 168.03 500.907 168.538C495.933 189.699 477.447 206.551 454.666 206.745C450.372 206.793 446.224 204.541 444.477 200.619V200.643Z" fill="black"/>
<path d="M497.049 169.168C497.049 169.168 489.626 159.41 478.466 156.505C478.466 156.505 468.616 172.654 450.688 176.165C450.688 176.165 442.803 200.619 457.117 200.328C473.031 199.989 490.135 186.358 497.025 169.168H497.049Z" fill="#5B441E"/>
<path opacity="0.43" d="M450.518 285.094C459.401 285.094 466.602 277.907 466.602 269.041C466.602 260.176 459.401 252.989 450.518 252.989C441.634 252.989 434.433 260.176 434.433 269.041C434.433 277.907 441.634 285.094 450.518 285.094Z" fill="#5B441E"/>
<path d="M443.409 151.299C443.409 151.299 432.419 151.421 421.963 153.914C421.963 153.914 416.359 175.971 429.532 190.813C441.274 204.033 451.731 176.238 451.731 176.238C451.731 176.238 440.449 177.569 443.409 151.299Z" fill="#5B441E"/>
<path opacity="0.06" d="M403.161 112.803C398.867 109.825 394.282 106.75 389.842 103.457C390.57 98.5904 391.37 93.6996 392.292 88.8088C398.066 92.1501 403.937 95.346 409.905 98.3725C409.105 103.99 408.304 109.8 407.552 115.684C406.097 114.715 404.592 113.795 403.161 112.803Z" fill="white"/>
<path d="M499.669 88.373C504.036 88.954 506.972 94.0143 506.195 99.6557C505.419 105.297 501.271 109.389 496.879 108.808C492.512 108.227 489.577 103.166 490.353 97.525C491.13 91.8837 495.278 87.7919 499.669 88.373Z" fill="#582C1A"/>
<path opacity="0.1" d="M506.195 99.6557C505.419 105.297 501.27 109.389 496.879 108.808C493.895 108.396 491.615 105.902 490.693 102.585C495.157 98.7357 499.621 94.9102 504.182 91.2058C505.783 93.3364 506.632 96.3871 506.171 99.6557H506.195Z" fill="white"/>
<path d="M434.166 78.6883C438.533 79.2694 441.468 84.3296 440.692 89.971C439.916 95.6123 435.767 99.7041 431.376 99.123C427.009 98.5419 424.074 93.4817 424.85 87.8403C425.626 82.199 429.775 78.1072 434.166 78.6883Z" fill="#582C1A"/>
<path opacity="0.1" d="M440.692 89.9709C439.916 95.6123 435.767 99.7041 431.376 99.123C428.392 98.7114 426.111 96.2176 425.189 92.9005C429.653 89.0509 434.117 85.2254 438.678 81.521C440.28 83.6516 441.129 86.7023 440.668 89.9709H440.692Z" fill="white"/>
<path opacity="0.17" d="M561 481.694C561 481.694 534.144 463.922 450.833 463.922C367.522 463.922 328.099 481.694 328.099 481.694C328.099 481.694 381.302 503.024 450.833 503.024C520.364 503.024 561 481.694 561 481.694Z" fill="black"/>
<path d="M484.094 425.014L489.553 449.565L508.961 446.998L505.08 422.738C504.958 421.987 504.279 421.455 503.527 421.552L485.138 423.561C484.41 423.634 483.924 424.336 484.094 425.038V425.014Z" fill="white"/>
<path d="M463.885 472.76C480.892 467.82 489.262 451.042 490.111 445.158C490.111 445.158 495.157 446.03 505.225 437.677C512.066 448.233 517.185 472.227 518.156 481.113C518.35 482.832 517.792 484.357 516.603 484.696L506.753 487.456C506.753 487.456 506.656 487.408 506.584 487.408C502.459 486.076 497.025 486.996 493.337 489.127C492.707 489.49 492.197 489.95 491.639 490.361C490.766 490.676 489.844 491.039 488.849 491.499C477.665 491.233 466.481 491.742 455.297 491.548C454.763 490.7 454.351 489.684 454.157 488.57L453.526 484.962C452.095 476.9 460.149 473.849 463.885 472.76Z" fill="white"/>
<path d="M463.885 472.759C464.686 472.517 465.438 472.251 466.19 471.96C466.239 472.009 466.287 472.057 466.336 472.13C467.282 473.002 468.228 473.801 469.247 474.6C470.023 475.205 470.775 475.641 471.6 476.004C471.6 476.004 472.449 476.367 474.196 477.093C483.124 479.127 491.106 470.363 488.558 461.67C487.855 459.249 486.496 457.167 484.798 455.351C485.72 453.826 486.496 452.397 487.175 451.042C494.017 457.094 504.182 459.128 513.28 457.119C515.851 465.98 517.598 476.27 518.132 481.113C518.326 482.832 517.768 484.357 516.579 484.696L506.729 487.456C506.729 487.456 506.632 487.408 506.559 487.408C502.435 486.076 497.001 486.996 493.313 489.127C492.682 489.49 492.173 489.95 491.615 490.361C490.742 490.676 489.82 491.039 488.825 491.499C477.641 491.233 466.457 491.742 455.273 491.548C454.739 490.7 454.327 489.684 454.133 488.57L453.502 484.962C452.07 476.9 460.125 473.849 463.861 472.759H463.885Z" fill="#5EBBC0"/>
<path d="M473.274 476.73C474.002 477.021 473.808 476.948 472.667 476.464C472.012 476.173 471.673 476.028 471.624 476.004C472.134 476.246 472.692 476.488 473.274 476.73Z" fill="#5EBBC0"/>
<path d="M517.719 476.319C518.423 477.578 518.544 479.49 518.69 480.725C518.738 481.258 518.763 483.292 518.059 483.824C515.172 486.003 509.277 488.4 501.974 490.434C500.349 485.81 496.394 488.4 492.61 492.686C479.921 495.252 465.462 496.39 455.297 493.896C453.938 493.194 453.938 487.335 453.938 487.335C470.096 491.233 498.869 487.747 517.719 476.343V476.319Z" fill="white"/>
<path d="M419.998 423.973L420.459 446.901L439.673 448.185L440.983 425.28C441.007 424.699 440.571 424.191 439.964 424.142L420.992 423.004C420.434 422.98 419.949 423.416 419.974 423.997L419.998 423.973Z" fill="white"/>
<path d="M388.265 467.53C406.752 466.319 418.979 450.775 421.284 445.255C421.284 445.255 425.796 450.146 437.951 443.899C442.245 449.758 442.778 479.006 441.759 488.279C441.565 490.071 440.643 491.499 439.382 491.572L428.707 492.153C428.707 492.153 428.61 492.08 428.562 492.056C424.656 489.756 418.882 489.466 414.636 490.821C413.933 491.039 413.278 491.403 412.623 491.717C411.652 491.863 410.633 492.008 409.517 492.25C398.163 489.466 386.64 487.456 375.261 484.744C374.897 483.752 374.728 482.614 374.776 481.427L374.946 477.602C375.31 469.031 384.238 467.748 388.289 467.481L388.265 467.53Z" fill="white"/>
<path d="M374.922 477.674C375.286 469.104 384.214 467.82 388.265 467.554C389.138 467.506 389.963 467.384 390.812 467.263C390.861 467.336 390.885 467.385 390.934 467.457C391.71 468.571 392.462 469.588 393.335 470.629C393.991 471.428 394.67 472.033 395.398 472.614C395.398 472.614 396.198 473.171 397.799 474.309C406.46 478.401 416.601 471.258 415.971 461.816C415.801 459.177 414.879 456.756 413.569 454.504C414.976 453.027 416.165 451.623 417.256 450.315C423.37 457.07 432.953 460.993 442.075 460.363C442.948 470.508 442.39 482.832 441.759 488.328C441.565 490.119 440.643 491.548 439.382 491.62L428.707 492.202C428.707 492.202 428.61 492.129 428.562 492.105C424.656 489.805 418.882 489.514 414.636 490.87C413.933 491.088 413.278 491.451 412.623 491.766C411.652 491.911 410.633 492.056 409.517 492.298C398.163 489.514 386.64 487.504 375.261 484.793C374.897 483.8 374.728 482.662 374.776 481.476L374.946 477.65L374.922 477.674Z" fill="#5EBBC0"/>
<path d="M396.951 473.704C397.63 474.188 397.436 474.043 396.393 473.292C395.786 472.856 395.471 472.638 395.422 472.59C395.907 472.953 396.393 473.316 396.951 473.704Z" fill="#5EBBC0"/>
<path d="M442.415 483.34C442.851 484.769 442.536 486.778 442.415 488.061C442.342 488.618 441.905 490.7 441.08 491.088C437.66 492.662 431.085 493.775 423.152 494.211C422.545 489.102 417.912 490.87 413.059 494.381C399.522 494.138 384.505 492.032 374.704 487.19C373.466 486.173 374.801 480.168 374.801 480.168C390.424 487.795 420.58 490.749 442.415 483.34Z" fill="white"/>
<path d="M332.32 62.6844C332.32 62.6844 339.526 49.1742 338.652 47.1888C337.779 45.2035 330.064 44.356 326.862 59.4158C323.659 74.4755 332.32 62.6844 332.32 62.6844Z" fill="#E7A387"/>
<path d="M413.253 173.841L416.407 152.728C413.132 152.655 333.17 150.525 316.333 55.8566L294.62 59.7062C305.076 118.371 336.542 145.101 361.069 158.636C387.756 173.356 412.259 173.841 413.278 173.841H413.253Z" fill="#5EBBC0"/>
<path opacity="0.43" d="M375.213 292.527C378.173 289.089 382.54 286.886 387.44 286.886C396.32 286.886 403.525 294.076 403.525 302.938C403.525 311.8 396.32 318.99 387.44 318.99C380.744 318.99 375.019 314.923 372.593 309.112C373.272 303.882 374.17 298.338 375.213 292.527Z" fill="#5B441E"/>
<path opacity="0.43" d="M372.544 341.265C375.286 339.062 378.779 337.73 382.588 337.73C391.468 337.73 398.673 344.921 398.673 353.783C398.673 354.896 398.552 355.986 398.333 357.027C384.65 353.589 374.849 348.384 372.544 341.241V341.265Z" fill="#5B441E"/>
<path d="M372.447 140.259C372.811 137.257 387.149 143.624 387.149 146.796C385.281 153.745 384.747 161.057 383.995 168.441C383.268 171.71 368.857 166.02 369.148 162.679C370.143 155.198 371.331 147.74 372.447 140.283V140.259Z" fill="white"/>
<path opacity="0.43" d="M508.743 268.146C499.864 268.146 492.658 260.955 492.658 252.093C492.658 243.232 499.16 236.767 507.433 236.113C509.01 245.822 510.951 256.354 513.207 267.492C511.775 267.904 510.296 268.146 508.743 268.146Z" fill="#5B441E"/>
<path opacity="0.17" d="M19.4085 361.991L384.675 356.688L390.23 65.2024H7.69067L19.4085 361.991Z" fill="black"/>
<path opacity="0.11" d="M380.696 266.451C383.51 266.959 385.815 267.516 385.815 267.516L386.858 263.327C386.858 263.327 384.48 262.746 381.739 262.093C382.127 260.495 382.515 258.897 382.904 257.275C386.906 258.267 388.314 259.139 388.314 259.139L390.351 255.87C390.351 255.87 387.173 255.047 383.704 254.006C384.141 252.287 384.553 250.592 384.99 248.873C390.133 250.326 392.85 251.197 392.85 251.197L394.354 248.292C394.354 248.292 390.327 246.524 386.106 244.539C386.567 242.796 387.004 241.077 387.464 239.358C390.691 240.278 393.869 241.488 396.441 243.546C397.848 244.66 399.692 245.556 401.414 246.064C402.7 246.452 404.714 247.202 405.854 246.258C406.509 245.726 406.776 244.805 406.752 243.958C406.727 243.111 406.46 242.287 406.266 241.464C405.902 239.963 405.781 238.389 405.854 236.84C405.927 235.508 406.194 234.104 407.043 233.063C407.892 232.022 409.444 231.465 410.633 232.118C410.973 232.312 411.288 232.603 411.41 232.966C411.507 233.256 411.458 233.571 411.434 233.886C411.143 237.566 412.356 241.053 413.666 244.442C416.019 250.616 419.682 256.016 420.701 262.335C448.844 272.576 460.44 269.84 475.53 258.606C493.895 244.951 498.917 230.981 499.039 219.94C501.149 220.957 503.284 221.877 505.419 222.773C506.656 231.489 508.209 241.077 510.101 251.391C504.958 259.72 497.534 267.613 487.539 274.392C476.088 282.164 462.987 286.958 447.145 287.079C432.541 287.2 429.241 283.835 413.933 276.983C410.924 278.097 407.407 278.242 404.35 277.733C399.352 276.91 394.573 275.506 389.915 273.763C386.373 272.431 383.292 272.068 379.58 271.414C379.944 269.768 380.332 268.121 380.72 266.451H380.696Z" fill="black"/>
<path opacity="0.43" d="M411.701 246.355C420.584 246.355 427.786 239.168 427.786 230.303C427.786 221.437 420.584 214.25 411.701 214.25C402.818 214.25 395.616 221.437 395.616 230.303C395.616 239.168 402.818 246.355 411.701 246.355Z" fill="#5B441E"/>
<path d="M11.7178 350.296L375.359 345.284L382.564 53.4838L0 47.1887L11.7178 350.296Z" fill="white"/>
<path d="M475.506 244.079C493.871 230.424 498.893 216.453 499.014 205.413C505.419 208.488 512.042 210.957 518.738 213.233C516.506 229.697 506.729 246.815 487.515 259.841C476.064 267.613 462.963 272.407 447.121 272.528C430.527 272.673 428.562 268.291 406.921 259.454L411.167 244.128C446.466 258.558 458.79 256.476 475.506 244.079Z" fill="#E7A387"/>
<path d="M490.402 226.162C505.419 203.113 493.629 188.247 493.629 188.247L503.211 169.894C521.261 185.826 525.555 215.364 507.797 240.375C502.872 235.532 496.055 230.036 490.402 226.162Z" fill="#5EBBC0"/>
<path d="M501.707 220.908C506.05 223.257 510.247 225.848 514.42 228.511C517.016 230.932 510.077 242.142 507.773 240.399C502.848 235.557 496.03 230.061 490.378 226.187C489.116 225.049 491.833 215.969 495.109 217.228C497.268 218.487 499.475 219.698 501.683 220.908H501.707Z" fill="#5B441E"/>
<path d="M379.143 232.748C388.071 235.145 392.85 236.67 392.85 236.67L394.355 233.765C394.355 233.765 387.222 230.617 381.982 228.002C376.402 225.218 376.911 222.071 385.354 224.225C389.26 225.218 393.311 226.501 396.465 229.019C397.872 230.133 399.716 231.029 401.439 231.537C402.725 231.925 404.738 232.675 405.878 231.731C406.533 231.198 406.8 230.278 406.776 229.431C406.752 228.584 406.485 227.76 406.291 226.937C405.927 225.436 405.806 223.862 405.878 222.313C405.951 220.981 406.218 219.577 407.067 218.536C407.916 217.495 409.469 216.938 410.658 217.591C410.997 217.785 411.313 218.076 411.434 218.439C411.531 218.729 411.483 219.044 411.458 219.359C411.167 223.039 412.38 226.526 413.69 229.915C416.723 237.808 421.866 244.442 420.871 253.352C420.532 256.5 419.149 259.429 416.432 261.221C413.011 263.473 408.28 263.86 404.326 263.206C399.328 262.383 394.549 260.979 389.891 259.236C384.772 257.323 380.623 257.42 374.194 255.749C368.081 254.151 370.725 251.173 373.175 251.125C377.688 251.028 385.815 253.013 385.815 253.013L386.858 248.825C386.858 248.825 378.682 246.791 375.116 246.089C368.541 244.781 367.886 240.326 375.747 241.44C385.354 242.796 388.338 244.66 388.338 244.66L390.376 241.392C390.376 241.392 382.588 239.334 378.052 237.687C368.978 234.37 369.682 230.23 379.168 232.796L379.143 232.748Z" fill="#E7A387"/>
<path d="M326.401 49.3436C328.026 50.6268 328.778 52.7333 328.657 54.8155C328.342 59.8031 325.091 70.311 323.101 69.9236C318.298 68.931 321.039 54.4281 321.039 54.4281H318.88C318.88 54.4281 320.117 70.7468 316.114 70.7468C312.111 70.7468 310.777 54.3312 310.777 54.3312L308.569 54.4281C308.569 54.4281 310.947 69.8752 306.434 69.7299C302.383 69.6089 300.709 54.4281 300.709 54.4281H296.706C296.706 54.4281 301.873 70.7468 298.016 69.5362C293.14 68.0109 289.137 54.3555 289.646 51.6679C290.156 48.9804 297.264 46.753 298.55 50.8205C298.55 50.8205 303.936 42.3706 308.181 51.3774C308.181 51.3774 313.81 43.2422 318.322 51.3048C318.322 51.3048 322.349 46.2203 326.352 49.392L326.401 49.3436Z" fill="#E7A387"/>
<path d="M484.895 3.89361e-05C484.895 3.89361e-05 570.292 23.4371 540.767 112.101C537.516 121.866 533.747 129.921 529.461 136.264C518.835 63.5318 478.466 74.4513 473.638 33.2913C456.243 60.2148 407.746 58.3989 396.295 93.1912C392.098 53.0239 407.31 -0.193655 484.895 3.89361e-05Z" fill="#EFD19C"/>
<path opacity="0.21" d="M398.479 57.3819C400.517 49.1257 403.719 41.0632 408.498 33.7512C413.86 44.477 422.424 53.3628 432.71 60.3116C427.106 62.9022 421.623 65.6139 416.577 68.8341C409.76 65.8803 403.428 62.1517 398.455 57.3819H398.479Z" fill="white"/>
<path opacity="0.21" d="M484.895 0C484.895 0 485.065 0.0484236 485.356 0.145271C494.526 17.4325 515.827 33.7997 536.594 38.642C539.821 43.9928 542.538 49.9974 544.357 56.7524C536.812 55.5419 529.146 52.7575 521.504 50.1668C504.061 44.2834 484.482 35.785 475.433 18.7157C473.153 14.406 470.945 7.74777 469.781 0.726354C474.56 0.242118 479.557 0 484.895 0Z" fill="white"/>
<path opacity="0.21" d="M529.583 103.336C526.599 103.384 523.639 103.288 520.703 103.094C517.186 94.7892 513.086 88.3731 508.816 83.0465C521.31 86.1698 533.877 86.3635 546.541 85.8067C546.056 90.8185 545.109 96.1451 543.751 101.714C539.141 102.61 534.483 103.239 529.607 103.336H529.583Z" fill="white"/>
<path d="M542.635 233.014C542.635 233.014 536.934 222.724 521.261 233.014C521.261 233.014 519.612 239.479 525.604 243.232C525.604 243.232 534.799 236.477 543.508 238.995C543.508 238.995 545.206 235.678 542.635 233.014Z" fill="#5EBBC0"/>
<path opacity="0.43" d="M512.067 329.571C512.067 322.138 517.137 315.915 524.003 314.075C526.259 322.743 528.661 331.581 531.257 340.515C531.766 342.234 531.499 343.856 530.626 345.381C529.801 345.502 528.976 345.599 528.127 345.599C519.248 345.599 512.042 338.408 512.042 329.547L512.067 329.571Z" fill="#5B441E"/>
<path opacity="0.43" d="M461.192 362.257C461.168 361.869 461.144 361.458 461.144 361.07C461.144 352.209 468.349 345.018 477.229 345.018C485.574 345.018 492.44 351.386 493.24 359.497C483.415 360.949 472.449 361.894 461.217 362.257H461.192Z" fill="#5B441E"/>
<path opacity="0.43" d="M482.056 326.254C490.94 326.254 498.141 319.067 498.141 310.201C498.141 301.336 490.94 294.149 482.056 294.149C473.173 294.149 465.972 301.336 465.972 310.201C465.972 319.067 473.173 326.254 482.056 326.254Z" fill="#5B441E"/>
<path opacity="0.43" d="M433.535 338.36C442.419 338.36 449.62 331.173 449.62 322.307C449.62 313.442 442.419 306.255 433.535 306.255C424.652 306.255 417.451 313.442 417.451 322.307C417.451 331.173 424.652 338.36 433.535 338.36Z" fill="#5B441E"/>
<path opacity="0.43" d="M460.222 234.249C469.105 234.249 476.307 227.062 476.307 218.197C476.307 209.331 469.105 202.144 460.222 202.144C451.339 202.144 444.137 209.331 444.137 218.197C444.137 227.062 451.339 234.249 460.222 234.249Z" fill="#5B441E"/>
<path opacity="0.43" d="M413.254 152.559C410.633 156.553 406.097 159.217 400.954 159.217C393.506 159.217 387.368 153.696 386.397 146.53C398.309 150.864 408.353 152.171 413.254 152.583V152.559Z" fill="#5B441E"/>
<path opacity="0.43" d="M408.911 166.722C410.561 166.166 412.307 165.851 414.127 165.851C423.006 165.851 430.212 173.042 430.212 181.903C430.212 190.765 423.006 197.956 414.127 197.956C408.814 197.956 404.107 195.365 401.172 191.394C404.132 181.637 406.825 173.187 408.887 166.747L408.911 166.722Z" fill="#5B441E"/>
<path opacity="0.43" d="M515.002 186.334C518.981 195.559 520.194 206.212 518.034 217.035C510.514 215.679 504.812 209.141 504.812 201.248C504.812 194.469 509.034 188.658 515.002 186.334Z" fill="#5B441E"/>
</g>
<defs>
<clipPath id="clip0_45_29">
<rect width="561" height="503" fill="white"/>
</clipPath>
</defs>
</svg>
