<svg width="1056" height="81" viewBox="0 0 1056 81" fill="none" xmlns="http://www.w3.org/2000/svg">
<path fill-rule="evenodd" clip-rule="evenodd" d="M1049.84 22.275C1049.84 22.275 1052.48 22.275 1055.12 22.275C1056.18 22.275 1056.18 22.275 1055.65 22.275C1054.07 22.275 1051.95 22.275 1049.84 22.275Z" fill="#FFD912"/>
<path fill-rule="evenodd" clip-rule="evenodd" d="M972.561 22.1327C965.572 22.1327 957.949 22.1327 950.96 22.1327C943.972 20.868 935.713 22.1327 928.09 22.1327C931.266 21.5003 935.713 20.8679 938.89 20.2356C941.431 19.6032 940.796 18.3385 936.349 18.3385C926.819 18.3385 917.29 17.0738 907.76 17.7061H887.431C887.431 17.7061 889.336 17.7061 890.607 17.7061C890.607 17.7061 889.972 17.7061 889.336 17.7061C888.701 17.7061 888.701 17.7061 887.431 17.0738C886.795 17.0738 885.525 17.0738 884.889 17.0738C884.889 17.0738 884.678 17.0738 884.254 17.0738C884.254 17.0738 882.983 17.0738 882.348 17.0738C881.078 17.0738 881.078 17.0738 879.807 17.0738C873.454 15.8091 866.466 17.0738 859.477 17.0738C857.572 16.4414 855.03 15.8091 851.854 15.1767H849.313C849.313 15.1767 851.218 14.5443 851.854 13.912C853.76 13.912 855.666 13.912 856.936 13.912H864.56C864.56 13.912 868.372 13.912 869.642 13.912H874.725C874.725 13.912 879.172 13.912 882.348 13.912C882.983 13.912 884.254 13.912 884.889 13.912H889.972C889.972 13.912 893.783 13.912 895.054 13.912C897.595 13.912 900.137 13.912 903.313 13.912C905.854 13.912 908.395 13.912 910.937 13.912H916.019C921.737 13.912 928.09 13.912 934.443 13.912H957.313C957.313 13.912 959.219 13.912 959.855 13.2796H967.478C967.478 13.2796 971.29 13.2796 972.561 13.2796C975.737 13.2796 979.549 13.2796 982.725 13.2796C983.361 13.2796 984.631 13.2796 985.267 13.2796C990.984 13.2796 997.337 13.2796 1003.05 13.2796C1004.33 13.2796 1006.87 13.2796 1008.14 13.2796C1010.68 13.2796 1013.22 13.2796 1015.76 13.2796C1020.84 13.2796 1022.54 12.858 1020.84 12.0149H1013.22C1013.22 12.0149 1006.87 12.0149 1003.05 12.0149H997.972C997.972 12.0149 997.973 12.0149 996.702 12.0149C996.702 12.0149 995.431 12.0149 994.796 12.0149H977.008C977.008 12.0149 971.29 12.0149 967.478 11.3825H933.172C933.172 11.3825 926.184 11.3825 923.007 11.3825C908.395 11.3825 893.783 11.3825 878.536 11.3825C874.724 10.7502 870.277 11.3825 865.83 11.3825H860.748C856.301 10.1178 848.677 11.3825 844.23 10.1178C848.677 6.95598 848.042 6.32362 834.701 6.95598C818.818 6.95598 804.206 6.32362 789.595 5.0589C773.077 4.42653 756.559 4.42653 740.041 3.79417C723.523 3.79417 707.006 3.79417 690.488 3.79417C664.441 3.79417 638.393 3.79417 612.981 3.79417C609.17 3.79417 605.993 3.79417 602.817 3.79417C583.758 4.42653 564.699 4.42653 545.64 5.0589C539.922 5.0589 533.569 5.0589 527.851 5.0589C522.134 5.0589 517.051 5.0589 511.334 5.0589C492.275 5.0589 473.216 5.0589 454.157 3.79417C450.98 3.79417 447.168 3.79417 443.992 3.79417C417.945 3.79417 391.897 3.79417 365.85 3.79417C349.332 3.79417 332.179 3.79417 316.297 3.79417C299.779 3.79417 283.261 3.79417 266.744 5.0589C252.132 5.69126 237.52 6.95598 221.637 6.95598C208.296 6.95598 207.661 6.95598 212.108 10.1178C207.025 10.7502 200.037 10.1178 195.59 10.7502C193.684 10.7502 192.414 10.7502 190.508 10.7502C186.061 10.7502 181.613 10.7502 177.802 10.7502C163.19 10.7502 148.578 10.7502 133.966 10.7502C130.79 10.7502 126.342 10.7502 123.801 10.7502C120.625 10.7502 116.813 10.7502 113.637 10.7502H89.4952C86.3187 10.7502 82.5069 10.7502 79.9657 10.7502C74.248 10.7502 67.895 10.7502 61.542 10.7502C60.9067 10.7502 60.2714 10.7502 59.6361 10.7502H53.2831C50.1066 10.7502 46.2948 10.7502 43.1183 10.7502H35.4948C35.4948 10.7502 33.5889 12.0149 40.5772 12.0149H48.2007C48.2007 12.0149 52.0125 12.0149 53.2831 12.0149C59.6361 12.0149 65.3538 12.0149 71.7068 12.0149C72.9774 12.0149 73.6127 12.0149 74.248 12.0149C77.4245 12.0149 81.2363 12.0149 84.4128 12.0149C85.6834 12.0149 88.8599 12.0149 89.4952 12.0149C92.0364 12.0149 94.5776 12.0149 97.1188 12.0149C98.3894 12.0149 99.0246 12.0149 99.6599 12.0149H122.531C128.248 13.2796 134.601 12.0149 140.954 12.0149H146.037C146.037 12.0149 151.119 12.0149 153.66 12.0149H161.284C161.284 12.0149 165.096 12.0149 166.366 12.6472C168.272 12.6472 170.178 12.6472 171.449 12.6472C172.084 12.6472 172.719 12.6472 173.99 12.6472C176.531 12.6472 179.072 12.6472 181.613 12.6472H187.331C187.331 12.6472 189.872 12.6472 192.414 12.6472H200.037C200.037 12.6472 203.214 12.6472 205.12 12.6472C205.755 12.6472 207.025 13.2796 207.661 13.912C207.025 13.912 206.39 13.912 205.12 13.912C201.308 13.912 199.402 14.5443 196.861 15.8091C190.508 15.8091 182.249 15.8091 176.531 15.8091H173.99C173.99 15.8091 173.355 15.8091 172.084 15.8091C171.449 15.8091 171.449 15.8091 171.449 15.8091H168.908C168.908 15.8091 167.637 15.8091 167.002 16.4414C167.002 16.4414 167.002 16.4414 166.366 16.4414C167.002 16.4414 168.272 16.4414 168.908 15.8091H148.578C139.048 15.8091 129.519 16.4414 119.354 16.4414C115.542 16.4414 114.272 17.0738 116.813 18.3385C119.354 19.6032 123.801 19.6032 127.613 20.2356C119.99 20.2356 111.731 20.2356 104.742 20.2356C97.1188 20.2356 90.1305 20.2356 83.1422 20.2356C65.9891 20.2356 49.4713 20.2356 32.3183 20.2356C27.2359 20.2356 21.5182 20.2356 16.4358 20.2356C16.4358 21.5003 18.977 22.1327 21.5182 22.1327C29.1418 22.1327 37.4007 23.3974 45.0242 22.1327C46.9301 22.1327 48.836 22.1327 50.1066 22.1327C62.1773 22.1327 74.8833 23.3974 86.954 24.0298C113.637 24.0298 139.048 25.9268 165.096 27.1916C168.908 27.1916 171.449 27.8239 173.355 29.0887C169.543 29.0887 165.731 29.0887 163.19 29.721C143.496 29.721 124.437 30.3534 104.742 29.721C100.931 29.721 96.4835 29.721 92.6717 30.3534C88.2246 30.3534 88.2246 31.6181 91.4011 32.2505C92.0364 32.2505 93.9423 32.2505 95.8482 32.8828C97.7541 33.5152 100.295 34.1476 104.107 34.7799C104.107 34.7799 104.742 37.3094 111.731 37.3094C111.731 37.3094 114.907 37.9417 116.813 37.9417C125.707 39.2065 133.966 41.1035 144.766 41.1035C153.025 41.1035 156.837 43.633 162.555 44.8977C163.825 44.8977 165.731 44.8977 167.637 45.5301C167.637 45.5301 171.449 45.5301 172.719 45.5301H185.425C185.425 45.5301 191.143 46.7948 193.049 47.4272C193.049 47.4272 194.319 48.6919 195.59 48.6919C195.59 49.9566 198.767 51.2213 191.143 51.2213C185.425 51.2213 184.79 52.4861 182.884 53.7508C182.884 53.7508 178.437 55.0155 175.261 55.6479C175.261 55.6479 173.355 55.6479 172.719 55.6479C153.66 55.6479 137.143 56.9126 122.531 60.0744C118.719 60.7068 119.99 61.9715 123.166 62.6038C123.166 62.6038 123.166 62.6038 124.437 62.6038C125.072 62.6038 125.072 62.6038 126.342 62.6038H128.884C133.331 62.6038 137.778 62.6038 142.225 62.6038C142.86 62.6038 142.86 62.6038 144.131 63.2362C145.401 63.8686 147.943 64.5009 147.307 65.7657C139.048 65.7657 135.237 67.0304 129.519 68.2951C127.613 68.2951 123.801 68.2951 121.895 68.2951C118.084 68.2951 114.272 68.2951 111.731 68.2951H106.648C102.836 68.2951 99.0246 68.2951 97.1188 69.5598V70.1922C100.931 70.1922 105.378 70.8246 108.554 70.1922C108.554 70.1922 109.825 70.1922 110.46 70.1922H113.637C118.084 70.1922 122.531 70.1922 126.342 70.1922H131.425C139.684 70.1922 148.578 70.1922 156.837 70.1922C160.013 70.1922 164.46 70.1922 166.366 70.1922C168.272 71.4569 163.19 71.4569 160.649 72.0893C154.931 73.354 148.578 73.9864 141.59 74.6187C147.307 75.8835 154.931 75.2511 160.013 76.5158C168.908 77.7805 179.072 77.7805 187.966 76.5158H190.508C194.955 76.5158 200.037 76.5158 203.849 76.5158C208.296 76.5158 213.378 76.5158 217.19 76.5158C222.908 76.5158 229.261 76.5158 234.979 76.5158C235.614 76.5158 236.249 76.5158 237.52 76.5158C241.332 76.5158 245.143 76.5158 248.32 76.5158H250.861C250.861 76.5158 254.673 76.5158 255.943 76.5158C256.579 76.5158 257.214 76.5158 257.849 76.5158H258.485C259.12 76.5158 260.391 76.5158 261.026 76.5158C262.296 76.5158 262.932 76.5158 263.567 76.5158C265.473 76.5158 267.379 76.5158 269.285 76.5158C278.814 77.1482 287.708 77.7805 296.603 76.5158C298.508 76.5158 301.05 76.5158 302.32 76.5158C302.956 76.5158 303.591 76.5158 304.861 76.5158C311.214 77.7805 317.567 76.5158 324.556 76.5158C329.003 76.5158 333.45 75.8835 337.897 76.5158C340.438 76.5158 342.979 76.5158 344.885 76.5158C346.791 76.5158 348.697 75.8835 350.603 76.5158C356.956 77.1482 362.038 76.5158 367.756 76.5158H371.568C381.733 76.5158 391.262 76.5158 402.062 76.5158C403.333 76.5158 404.603 76.5158 405.874 76.5158H407.145C409.05 76.5158 409.686 76.5158 410.956 77.1482C405.239 77.1482 400.156 77.7805 394.439 78.4129C414.133 78.4129 433.827 79.6776 454.157 78.4129C459.239 78.4129 464.322 78.4129 469.404 78.4129C477.027 78.4129 484.016 78.4129 491.004 78.4129C499.898 77.7805 509.428 77.7805 518.322 77.7805C520.228 77.7805 522.134 77.7805 523.404 77.7805H527.851C527.851 77.7805 532.934 77.7805 535.475 77.7805C545.004 77.7805 553.899 77.7805 562.158 78.4129C569.146 79.0453 576.769 78.4129 583.758 78.4129C588.84 78.4129 593.922 78.4129 599.64 78.4129C618.699 79.6776 639.029 78.4129 658.723 78.4129C653.641 78.4129 647.923 77.7805 642.205 77.1482C643.476 77.1482 644.746 76.5158 646.017 76.5158C646.017 76.5158 646.652 76.5158 647.288 76.5158C648.558 76.5158 649.829 76.5158 651.099 76.5158C661.264 76.5158 671.429 76.5158 681.594 76.5158C682.864 76.5158 684.135 76.5158 685.405 76.5158C691.123 76.5158 696.841 77.1482 702.559 76.5158C704.464 76.5158 706.37 76.5158 708.276 76.5158C710.182 76.5158 712.723 77.1482 715.265 76.5158C719.712 76.5158 724.794 76.5158 729.241 76.5158C735.594 76.5158 741.947 77.7805 748.3 76.5158C748.935 76.5158 750.206 76.5158 750.841 76.5158C752.112 76.5158 754.653 76.5158 755.924 76.5158C765.453 77.7805 774.983 77.1482 783.877 76.5158C785.147 76.5158 787.689 76.5158 788.959 76.5158C789.594 76.5158 790.23 76.5158 791.5 76.5158C792.771 76.5158 793.406 76.5158 794.042 76.5158C794.042 76.5158 794.042 76.5158 794.677 76.5158C794.677 76.5158 795.312 76.5158 796.583 76.5158C798.489 76.5158 800.395 76.5158 801.665 76.5158C802.3 76.5158 803.571 76.5158 804.206 76.5158C806.748 77.1482 811.195 76.5158 814.371 76.5158C815.006 76.5158 816.277 76.5158 816.912 76.5158C821.995 77.7805 828.983 76.5158 834.701 76.5158C837.877 77.7805 842.96 76.5158 847.407 76.5158C851.218 77.7805 855.666 76.5158 860.748 76.5158C862.019 76.5158 862.019 76.5158 862.654 76.5158C872.183 77.7805 881.713 77.7805 890.607 76.5158C896.325 75.8835 903.948 76.5158 909.666 74.6187C902.678 74.6187 895.689 73.354 890.607 72.0893C888.066 72.0893 882.983 71.4569 884.889 70.1922C886.16 69.5598 890.607 69.5598 894.419 69.5598C902.678 69.5598 910.937 69.5598 919.831 69.5598C921.737 69.5598 923.007 69.5598 924.913 69.5598C928.725 70.1922 933.807 69.5598 937.619 69.5598C938.254 69.5598 939.525 69.5598 940.16 69.5598C940.16 69.5598 940.16 69.5598 940.796 69.5598C940.796 69.5598 942.066 69.5598 942.701 69.5598C945.878 70.1922 950.325 70.1922 954.137 69.5598C954.772 69.5598 955.407 69.5598 954.772 68.9275C952.866 67.6628 949.055 67.6628 945.243 67.6628C943.972 67.6628 942.066 67.6628 940.16 67.6628C937.619 67.0304 933.172 67.6628 929.996 67.6628C928.09 67.6628 924.278 67.6628 922.372 67.6628C916.654 66.398 912.842 65.1333 904.584 65.1333C903.948 64.5009 907.125 63.2362 907.76 62.6038C907.76 62.6038 908.395 62.6038 909.666 61.9715C914.113 61.9715 918.56 61.9715 923.007 61.9715C923.643 61.9715 924.913 61.9715 925.549 61.9715C926.819 61.9715 926.819 61.9715 927.454 61.9715H928.09C931.266 61.9715 932.537 60.7068 928.09 59.442C914.113 56.2802 896.96 55.0155 877.901 55.0155C876.63 55.0155 876.63 55.0155 875.36 55.0155C875.36 55.0155 870.277 53.7508 867.736 53.1184C867.736 53.1184 864.56 50.589 859.477 50.589C851.854 50.589 855.03 49.3242 855.03 48.0595C855.666 48.0595 856.936 48.0595 857.571 47.4272C857.571 47.4272 862.019 45.5301 865.195 44.8977H877.901C877.901 44.8977 881.078 44.8977 882.983 44.8977C882.983 44.8977 886.795 44.8977 888.066 44.8977C894.419 43.633 897.595 41.7359 906.49 41.1035C917.925 41.1035 925.548 39.2065 934.443 37.9417C934.443 37.9417 938.254 37.9417 939.525 37.9417C945.878 37.9417 947.149 36.677 947.149 35.4123C950.96 35.4123 952.866 34.1476 955.408 33.5152C957.313 33.5152 959.219 33.5152 960.49 33.5152C963.666 32.8828 963.666 32.2505 959.219 31.6181C955.407 31.6181 950.96 30.9857 946.513 30.9857C926.819 30.9857 907.76 29.721 888.066 30.9857C885.525 30.3534 881.713 30.9857 877.901 30.3534C879.807 29.721 882.348 28.4563 886.16 28.4563C912.207 27.1916 937.619 25.9268 964.302 25.2945C977.008 25.2945 989.078 24.0298 1001.15 23.3974C1002.42 23.3974 1004.33 23.3974 1006.23 23.3974C1014.49 24.6621 1022.11 23.3974 1030.37 23.3974C1032.91 23.3974 1035.46 23.3974 1035.46 21.5003C1029.74 21.5003 1025.29 21.5003 1019.57 21.5003C1002.42 21.5003 985.902 20.8679 968.749 20.8679L972.561 22.1327ZM945.878 8.22071C945.878 8.22071 947.149 8.22071 947.784 8.22071C946.513 8.22071 946.513 8.22071 945.243 8.22071H945.878ZM935.078 8.22071H935.713C935.713 8.22071 936.984 8.22071 937.619 8.22071C937.619 8.22071 938.254 8.22071 938.89 8.22071H936.984C936.348 8.22071 935.078 8.22071 935.078 8.22071ZM862.654 6.32362C862.654 6.32362 863.289 6.32362 863.925 6.32362C863.925 6.32362 863.924 6.32362 863.289 6.32362H862.654ZM107.284 8.22071C107.284 8.22071 108.554 8.22071 109.189 8.22071C109.189 8.22071 107.919 8.22071 106.648 8.22071H107.284ZM118.719 8.22071H116.178C116.178 8.22071 116.813 8.22071 117.448 8.22071C117.448 8.22071 118.719 8.22071 119.354 8.22071H120.625C119.99 8.22071 119.354 8.22071 118.719 8.22071ZM192.414 6.32362C192.414 6.32362 191.778 6.32362 191.143 6.32362H192.414ZM126.978 23.3974H127.613C127.613 23.3974 127.613 23.3974 126.978 23.3974ZM171.449 39.2065C171.449 39.2065 171.449 39.2065 172.084 39.2065H171.449ZM184.155 29.721C184.155 29.721 184.155 29.721 184.79 29.721C184.79 29.721 184.155 29.721 183.519 29.721H184.155ZM158.107 69.5598C157.472 69.5598 157.472 69.5598 156.837 69.5598H158.107ZM169.543 78.4129C169.543 78.4129 173.355 78.4129 174.625 77.1482C173.355 77.1482 171.449 77.7805 170.178 78.4129H169.543ZM228.626 17.0738C228.626 17.0738 227.99 17.0738 227.355 17.0738H228.626ZM259.755 36.0446C259.755 36.0446 261.661 36.0446 259.755 37.3094C261.661 37.3094 260.391 36.677 259.755 36.0446ZM341.709 18.9709C341.709 18.9709 341.074 18.9709 340.438 18.9709C340.438 18.9709 341.074 18.9709 341.709 18.9709ZM341.074 37.9417C341.074 37.9417 342.344 37.9417 342.979 37.9417C342.344 37.9417 341.709 37.9417 341.709 37.9417H341.074ZM356.956 9.48543C356.956 9.48543 358.227 9.48543 358.862 9.48543H356.956ZM355.05 51.2213C355.05 51.2213 356.956 51.2213 357.591 51.2213C356.956 51.2213 356.321 51.2213 355.685 51.2213H355.05ZM363.944 73.354C363.944 73.354 363.309 73.354 362.674 73.354C362.674 73.354 362.674 73.354 362.038 73.354C362.674 73.354 362.674 73.354 364.58 73.354H363.944ZM362.674 54.3831C362.674 54.3831 358.862 55.0155 356.956 55.6479C361.403 55.6479 364.58 55.6479 364.58 53.7508C364.58 53.7508 364.58 53.7508 365.215 53.7508C363.944 53.7508 363.309 53.7508 362.674 53.7508V54.3831ZM421.756 29.0887C421.756 29.0887 421.756 29.0887 421.121 29.0887C421.121 29.0887 421.121 29.0887 421.756 29.0887ZM432.557 1.26472C432.557 1.26472 433.192 1.26472 433.827 1.26472C433.827 1.26472 433.192 1.26472 432.557 1.26472ZM465.592 65.1333H466.863C466.863 65.1333 466.227 65.1333 465.592 65.1333ZM485.286 53.1184C485.286 53.1184 485.922 53.1184 486.557 53.1184H485.286ZM495.451 0H496.722C496.722 0 497.992 0.632362 499.898 0.632362C497.992 0.632362 496.722 0.632362 496.086 0H495.451ZM543.734 77.1482C541.828 77.1482 539.922 77.1482 538.016 77.1482C529.757 77.1482 522.134 77.1482 514.51 77.1482C514.51 77.1482 514.51 77.1482 515.145 77.1482C512.604 77.1482 510.698 77.1482 508.157 77.1482H509.428C509.428 77.1482 511.969 77.1482 512.604 77.1482C513.24 77.1482 513.875 77.1482 514.51 77.1482C518.957 77.1482 523.404 77.1482 527.851 77.1482C532.934 77.1482 538.016 77.1482 543.099 77.1482C543.099 77.1482 544.369 77.1482 545.004 77.1482C545.64 77.1482 546.91 77.1482 547.546 77.1482C546.275 77.1482 544.369 77.1482 542.463 77.1482H543.734ZM560.252 0.632362C560.252 0.632362 562.793 0.632362 562.793 0H563.428C563.428 0 562.158 0.632362 559.616 0.632362H560.252ZM593.287 64.5009C593.287 64.5009 592.652 64.5009 592.017 64.5009H593.287ZM625.052 0.632362C625.052 0.632362 625.052 0.632362 626.323 0.632362C625.687 0.632362 625.687 0.632362 625.052 0.632362ZM703.194 10.1178C703.194 10.1178 702.559 10.1178 701.923 10.1178C702.559 10.1178 703.194 10.1178 703.829 10.1178H703.194ZM696.206 73.354H695.57C695.57 73.354 696.841 73.354 697.476 73.354C696.841 73.354 697.476 73.354 696.206 73.354ZM696.206 54.3831C696.206 54.3831 694.935 54.3831 693.664 54.3831C693.664 54.3831 693.664 54.3831 694.3 54.3831C694.3 55.6479 696.841 56.2802 701.923 56.2802C699.382 56.2802 697.476 55.6479 696.206 55.0155V54.3831ZM703.194 51.8537C703.194 51.8537 701.288 51.8537 700.653 51.8537C701.923 51.8537 702.559 51.8537 703.829 51.8537H703.194ZM718.441 18.9709C718.441 18.9709 718.441 18.9709 717.17 18.9709C717.17 18.9709 717.806 18.9709 718.441 18.9709ZM718.441 37.9417C718.441 37.9417 718.441 37.9417 717.17 37.9417C717.17 37.9417 717.806 37.9417 719.076 37.9417H718.441ZM799.124 34.7799C799.124 34.7799 797.218 35.4123 799.124 36.0446C797.218 36.0446 797.853 34.7799 799.124 34.7799ZM821.359 33.5152C821.359 33.5152 821.359 33.5152 820.724 33.5152C820.724 33.5152 820.724 33.5152 821.359 33.5152ZM828.348 15.8091H828.983C828.983 15.8091 828.983 15.8091 829.618 15.8091C829.618 15.8091 828.983 15.8091 828.348 15.8091ZM898.866 67.0304H899.501C899.501 67.0304 899.501 67.0304 898.866 67.0304ZM888.066 76.5158C888.066 76.5158 884.889 75.8835 883.619 75.2511C884.889 75.2511 885.525 76.5158 888.066 76.5158ZM872.183 27.8239C872.183 27.8239 872.183 27.8239 871.548 27.8239H872.183ZM886.16 37.3094C886.16 37.3094 886.16 37.3094 886.795 37.3094H886.16ZM929.996 21.5003C929.996 21.5003 929.996 21.5003 929.36 21.5003C929.36 21.5003 929.36 21.5003 929.996 21.5003Z" fill="#FFD912"/>
<path fill-rule="evenodd" clip-rule="evenodd" d="M723.374 81C723.374 81 724.267 81 724.714 81C725.607 81 725.16 81 724.714 81C724.714 81 723.82 81 723.374 81Z" fill="#FFD912"/>
<path fill-rule="evenodd" clip-rule="evenodd" d="M979.984 18.225C977.245 18.225 977.245 18.225 979.984 18.225Z" fill="#FFD912"/>
<path fill-rule="evenodd" clip-rule="evenodd" d="M1.12062 22.275C1.12062 22.275 5.0428 22.275 6.16342 22.275C3.92218 22.275 1.68093 22.275 0 22.275C0 22.275 0 22.275 0.560311 22.275H1.12062Z" fill="#FFD912"/>
<path fill-rule="evenodd" clip-rule="evenodd" d="M331.284 81C331.798 81 332.825 81 332.825 81C332.825 81 332.825 81 332.311 81C332.311 81 331.284 81 330.77 81H331.284Z" fill="#FFD912"/>
<path fill-rule="evenodd" clip-rule="evenodd" d="M76.0156 18.225C76.0156 18.225 76.0156 18.225 77.1895 18.225C78.3635 18.225 78.3635 18.225 77.1895 18.225H76.0156Z" fill="#FFD912"/>
</svg>
