<svg width="1253" height="98" viewBox="0 0 1253 98" fill="none" xmlns="http://www.w3.org/2000/svg">
<path fill-rule="evenodd" clip-rule="evenodd" d="M1245.69 26.7991C1245.69 26.7991 1248.83 26.7991 1251.96 26.7991C1253.22 26.7991 1253.22 26.7991 1252.59 26.7991C1250.71 26.7991 1248.2 26.7991 1245.69 26.7991Z" fill="#B4CD4C"/>
<path fill-rule="evenodd" clip-rule="evenodd" d="M1154.05 26.6279C1145.77 26.6279 1136.73 26.6279 1128.44 26.6279C1120.15 25.1063 1110.36 26.6279 1101.32 26.6279C1105.09 25.8671 1110.36 25.1063 1114.13 24.3455C1117.14 23.5847 1116.39 22.0631 1111.11 22.0631C1099.81 22.0631 1088.51 20.5415 1077.21 21.3023H1053.1C1053.1 21.3023 1055.36 21.3023 1056.87 21.3023C1056.87 21.3023 1056.12 21.3023 1055.36 21.3023C1054.61 21.3023 1054.61 21.3023 1053.1 20.5415C1052.35 20.5415 1050.84 20.5415 1050.09 20.5415C1050.09 20.5415 1049.84 20.5415 1049.34 20.5415C1049.34 20.5415 1047.83 20.5415 1047.08 20.5415C1045.57 20.5415 1045.57 20.5415 1044.06 20.5415C1036.53 19.0199 1028.24 20.5415 1019.96 20.5415C1017.7 19.7807 1014.68 19.0199 1010.91 18.2591H1007.9C1007.9 18.2591 1010.16 17.4983 1010.91 16.7375C1013.17 16.7375 1015.43 16.7375 1016.94 16.7375H1025.98C1025.98 16.7375 1030.5 16.7375 1032.01 16.7375H1038.04C1038.04 16.7375 1043.31 16.7375 1047.08 16.7375C1047.83 16.7375 1049.34 16.7375 1050.09 16.7375H1056.12C1056.12 16.7375 1060.64 16.7375 1062.14 16.7375C1065.16 16.7375 1068.17 16.7375 1071.94 16.7375C1074.95 16.7375 1077.96 16.7375 1080.98 16.7375H1087C1093.78 16.7375 1101.32 16.7375 1108.85 16.7375H1135.97C1135.97 16.7375 1138.23 16.7375 1138.99 15.9767H1148.03C1148.03 15.9767 1152.55 15.9767 1154.05 15.9767C1157.82 15.9767 1162.34 15.9767 1166.11 15.9767C1166.86 15.9767 1168.37 15.9767 1169.12 15.9767C1175.9 15.9767 1183.44 15.9767 1190.22 15.9767C1191.72 15.9767 1194.74 15.9767 1196.24 15.9767C1199.26 15.9767 1202.27 15.9767 1205.28 15.9767C1211.31 15.9767 1213.32 15.4695 1211.31 14.4551H1202.27C1202.27 14.4551 1194.74 14.4551 1190.22 14.4551H1184.19C1184.19 14.4551 1184.19 14.4551 1182.68 14.4551C1182.68 14.4551 1181.18 14.4551 1180.42 14.4551H1159.33C1159.33 14.4551 1152.55 14.4551 1148.03 13.6943H1107.35C1107.35 13.6943 1099.06 13.6943 1095.29 13.6943C1077.96 13.6943 1060.64 13.6943 1042.56 13.6943C1038.04 12.9335 1032.76 13.6943 1027.49 13.6943H1021.46C1016.19 12.1728 1007.15 13.6943 1001.87 12.1727C1007.15 8.36876 1006.39 7.60797 990.574 8.36877C971.74 8.36877 954.412 7.60797 937.085 6.08637C917.497 5.32558 897.91 5.32558 878.323 4.56478C858.735 4.56478 839.148 4.56478 819.56 4.56478C788.672 4.56478 757.784 4.56478 727.65 4.56478C723.129 4.56478 719.363 4.56478 715.596 4.56478C692.995 5.32558 670.394 5.32558 647.793 6.08637C641.013 6.08637 633.479 6.08637 626.699 6.08637C619.918 6.08637 613.892 6.08637 607.111 6.08637C584.51 6.08637 561.909 6.08637 539.308 4.56478C535.542 4.56478 531.021 4.56478 527.255 4.56478C496.367 4.56478 465.479 4.56478 434.591 4.56478C415.003 4.56478 394.662 4.56478 375.828 4.56478C356.241 4.56478 336.653 4.56478 317.066 6.08637C299.739 6.84717 282.411 8.36877 263.577 8.36877C247.756 8.36877 247.003 8.36876 252.277 12.1727C246.25 12.9335 237.963 12.1728 232.689 12.9335C230.429 12.9335 228.922 12.9335 226.662 12.9335C221.389 12.9335 216.115 12.9335 211.595 12.9335C194.267 12.9335 176.94 12.9335 159.613 12.9335C155.846 12.9335 150.572 12.9335 147.559 12.9335C143.792 12.9335 139.272 12.9335 135.505 12.9335H106.877C103.11 12.9335 98.5902 12.9335 95.5767 12.9335C88.7964 12.9335 81.2628 12.9335 73.7292 12.9335C72.9758 12.9335 72.2224 12.9335 71.4691 12.9335H63.9354C60.1686 12.9335 55.6484 12.9335 51.8816 12.9335H42.8412C42.8412 12.9335 40.5811 14.4551 48.8681 14.4551H57.9085C57.9085 14.4551 62.4287 14.4551 63.9354 14.4551C71.4691 14.4551 78.2493 14.4551 85.783 14.4551C87.2897 14.4551 88.0431 14.4551 88.7964 14.4551C92.5633 14.4551 97.0835 14.4551 100.85 14.4551C102.357 14.4551 106.124 14.4551 106.877 14.4551C109.891 14.4551 112.904 14.4551 115.918 14.4551C117.424 14.4551 118.178 14.4551 118.931 14.4551H146.052C152.832 15.9767 160.366 14.4551 167.9 14.4551H173.927C173.927 14.4551 179.954 14.4551 182.967 14.4551H192.007C192.007 14.4551 196.528 14.4551 198.034 15.2159C200.294 15.2159 202.555 15.2159 204.061 15.2159C204.815 15.2159 205.568 15.2159 207.075 15.2159C210.088 15.2159 213.102 15.2159 216.115 15.2159H222.895C222.895 15.2159 225.909 15.2159 228.922 15.2159H237.963C237.963 15.2159 241.729 15.2159 243.99 15.2159C244.743 15.2159 246.25 15.9767 247.003 16.7375C246.25 16.7375 245.496 16.7375 243.99 16.7375C239.469 16.7375 237.209 17.4983 234.196 19.0199C226.662 19.0199 216.868 19.0199 210.088 19.0199H207.075C207.075 19.0199 206.321 19.0199 204.815 19.0199C204.061 19.0199 204.061 19.0199 204.061 19.0199H201.048C201.048 19.0199 199.541 19.0199 198.788 19.7807C198.788 19.7807 198.788 19.7807 198.034 19.7807C198.788 19.7807 200.294 19.7807 201.048 19.0199H176.94C165.64 19.0199 154.339 19.7807 142.285 19.7807C137.765 19.7807 136.258 20.5415 139.272 22.0631C142.285 23.5847 147.559 23.5847 152.079 24.3455C143.039 24.3455 133.245 24.3455 124.958 24.3455C115.918 24.3455 107.631 24.3455 99.3436 24.3455C79.0027 24.3455 59.4152 24.3455 39.0744 24.3455C33.0475 24.3455 26.2672 24.3455 20.2403 24.3455C20.2403 25.8671 23.2537 26.6279 26.2672 26.6279C35.3076 26.6279 45.1013 28.1495 54.1417 26.6279C56.4018 26.6279 58.6619 26.6279 60.1686 26.6279C74.4825 26.6279 89.5498 28.1495 103.864 28.9103C135.505 28.9103 165.64 31.1927 196.528 32.7143C201.048 32.7143 204.061 33.4751 206.321 34.9967C201.801 34.9967 197.281 34.9967 194.267 35.7575C170.913 35.7575 148.312 36.5182 124.958 35.7575C120.438 35.7575 115.164 35.7575 110.644 36.5182C105.37 36.5182 105.37 38.0398 109.137 38.8006C109.891 38.8006 112.151 38.8006 114.411 39.5614C116.671 40.3222 119.684 41.083 124.205 41.8438C124.205 41.8438 124.958 44.887 133.245 44.887C133.245 44.887 137.012 45.6478 139.272 45.6478C149.819 47.1694 159.613 49.4518 172.42 49.4518C182.214 49.4518 186.734 52.495 193.514 54.0166C195.021 54.0166 197.281 54.0166 199.541 54.7774C199.541 54.7774 204.061 54.7774 205.568 54.7774H220.635C220.635 54.7774 227.416 56.299 229.676 57.0598C229.676 57.0598 231.182 58.5814 232.689 58.5814C232.689 60.103 236.456 61.6245 227.416 61.6245C220.635 61.6245 219.882 63.1461 217.622 64.6677C217.622 64.6677 212.348 66.1893 208.581 66.9501C208.581 66.9501 206.321 66.9501 205.568 66.9501C182.967 66.9501 163.38 68.4717 146.052 72.2757C141.532 73.0365 143.039 74.5581 146.806 75.3189C146.806 75.3189 146.806 75.3189 148.312 75.3189C149.066 75.3189 149.066 75.3189 150.572 75.3189H153.586C158.859 75.3189 164.133 75.3189 169.406 75.3189C170.16 75.3189 170.16 75.3189 171.667 76.0797C173.173 76.8405 176.187 77.6013 175.433 79.1229C165.64 79.1229 161.119 80.6445 154.339 82.1661C152.079 82.1661 147.559 82.1661 145.299 82.1661C140.779 82.1661 136.258 82.1661 133.245 82.1661H127.218C122.698 82.1661 118.178 82.1661 115.918 83.6877V84.4485C120.438 84.4485 125.711 85.2093 129.478 84.4485C129.478 84.4485 130.985 84.4485 131.738 84.4485H135.505C140.779 84.4485 146.052 84.4485 150.572 84.4485H156.599C166.393 84.4485 176.94 84.4485 186.734 84.4485C190.501 84.4485 195.774 84.4485 198.034 84.4485C200.294 85.97 194.267 85.9701 191.254 86.7309C184.474 88.2524 176.94 89.0132 168.653 89.774C175.433 91.2956 184.474 90.5348 190.501 92.0564C201.048 93.578 213.102 93.578 223.649 92.0564H226.662C231.936 92.0564 237.963 92.0564 242.483 92.0564C247.756 92.0564 253.783 92.0564 258.303 92.0564C265.084 92.0564 272.617 92.0564 279.398 92.0564C280.151 92.0564 280.904 92.0564 282.411 92.0564C286.931 92.0564 291.452 92.0564 295.218 92.0564H298.232C298.232 92.0564 302.752 92.0564 304.259 92.0564C305.012 92.0564 305.765 92.0564 306.519 92.0564H307.272C308.026 92.0564 309.532 92.0564 310.286 92.0564C311.792 92.0564 312.546 92.0564 313.299 92.0564C315.559 92.0564 317.819 92.0564 320.079 92.0564C331.38 92.8172 341.927 93.578 352.474 92.0564C354.734 92.0564 357.748 92.0564 359.254 92.0564C360.008 92.0564 360.761 92.0564 362.268 92.0564C369.801 93.578 377.335 92.0564 385.622 92.0564C390.896 92.0564 396.169 91.2956 401.443 92.0564C404.456 92.0564 407.47 92.0564 409.73 92.0564C411.99 92.0564 414.25 91.2956 416.51 92.0564C424.044 92.8172 430.071 92.0564 436.851 92.0564H441.371C453.425 92.0564 464.725 92.0564 477.533 92.0564C479.039 92.0564 480.546 92.0564 482.053 92.0564H483.559C485.82 92.0564 486.573 92.0564 488.08 92.8172C481.299 92.8172 475.272 93.578 468.492 94.3388C491.846 94.3388 515.201 95.8604 539.308 94.3388C545.335 94.3388 551.362 94.3388 557.389 94.3388C566.43 94.3388 574.717 94.3388 583.004 94.3388C593.551 93.578 604.851 93.578 615.398 93.578C617.658 93.578 619.918 93.578 621.425 93.578H626.699C626.699 93.578 632.726 93.578 635.739 93.578C647.04 93.578 657.587 93.578 667.38 94.3388C675.667 95.0996 684.708 94.3388 692.995 94.3388C699.022 94.3388 705.049 94.3388 711.829 94.3388C734.43 95.8604 758.538 94.3388 781.892 94.3388C775.865 94.3388 769.085 93.578 762.304 92.8172C763.811 92.8172 765.318 92.0564 766.825 92.0564C766.825 92.0564 767.578 92.0564 768.331 92.0564C769.838 92.0564 771.345 92.0564 772.851 92.0564C784.905 92.0564 796.959 92.0564 809.013 92.0564C810.52 92.0564 812.026 92.0564 813.533 92.0564C820.313 92.0564 827.094 92.8172 833.874 92.0564C836.134 92.0564 838.394 92.0564 840.654 92.0564C842.914 92.0564 845.928 92.8172 848.941 92.0564C854.215 92.0564 860.242 92.0564 865.515 92.0564C873.049 92.0564 880.583 93.578 888.116 92.0564C888.87 92.0564 890.376 92.0564 891.13 92.0564C892.636 92.0564 895.65 92.0564 897.157 92.0564C908.457 93.578 919.758 92.8172 930.305 92.0564C931.811 92.0564 934.825 92.0564 936.332 92.0564C937.085 92.0564 937.838 92.0564 939.345 92.0564C940.852 92.0564 941.605 92.0564 942.358 92.0564C942.358 92.0564 942.359 92.0564 943.112 92.0564C943.112 92.0564 943.865 92.0564 945.372 92.0564C947.632 92.0564 949.892 92.0564 951.399 92.0564C952.152 92.0564 953.659 92.0564 954.412 92.0564C957.426 92.8172 962.699 92.0564 966.466 92.0564C967.22 92.0564 968.726 92.0564 969.48 92.0564C975.507 93.578 983.794 92.0564 990.574 92.0564C994.341 93.578 1000.37 92.0564 1005.64 92.0564C1010.16 93.578 1015.43 92.0564 1021.46 92.0564C1022.97 92.0564 1022.97 92.0564 1023.72 92.0564C1035.02 93.578 1046.32 93.578 1056.87 92.0564C1063.65 91.2956 1072.69 92.0564 1079.47 89.774C1071.18 89.774 1062.9 88.2524 1056.87 86.7309C1053.86 86.7309 1047.83 85.97 1050.09 84.4485C1051.6 83.6877 1056.87 83.6877 1061.39 83.6877C1071.18 83.6877 1080.98 83.6877 1091.52 83.6877C1093.78 83.6877 1095.29 83.6877 1097.55 83.6877C1102.07 84.4485 1108.1 83.6877 1112.62 83.6877C1113.37 83.6877 1114.88 83.6877 1115.63 83.6877C1115.63 83.6877 1115.63 83.6877 1116.39 83.6877C1116.39 83.6877 1117.89 83.6877 1118.65 83.6877C1122.41 84.4485 1127.69 84.4485 1132.21 83.6877C1132.96 83.6877 1133.71 83.6877 1132.96 82.9269C1130.7 81.4053 1126.18 81.4053 1121.66 81.4053C1120.15 81.4053 1117.89 81.4053 1115.63 81.4053C1112.62 80.6445 1107.35 81.4053 1103.58 81.4053C1101.32 81.4053 1096.8 81.4053 1094.54 81.4053C1087.76 79.8837 1083.24 78.3621 1073.44 78.3621C1072.69 77.6013 1076.46 76.0797 1077.21 75.3189C1077.21 75.3189 1077.96 75.3189 1079.47 74.5581C1084.74 74.5581 1090.02 74.5581 1095.29 74.5581C1096.04 74.5581 1097.55 74.5581 1098.31 74.5581C1099.81 74.5581 1099.81 74.5581 1100.57 74.5581H1101.32C1105.09 74.5581 1106.59 73.0365 1101.32 71.5149C1084.74 67.7109 1064.4 66.1893 1041.8 66.1893C1040.3 66.1893 1040.3 66.1893 1038.79 66.1893C1038.79 66.1893 1032.76 64.6677 1029.75 63.9069C1029.75 63.9069 1025.98 60.8638 1019.96 60.8638C1010.91 60.8638 1014.68 59.3422 1014.68 57.8206C1015.43 57.8206 1016.94 57.8206 1017.69 57.0598C1017.69 57.0598 1022.97 54.7774 1026.74 54.0166H1041.8C1041.8 54.0166 1045.57 54.0166 1047.83 54.0166C1047.83 54.0166 1052.35 54.0166 1053.86 54.0166C1061.39 52.495 1065.16 50.2126 1075.7 49.4518C1089.26 49.4518 1098.3 47.1694 1108.85 45.6478C1108.85 45.6478 1113.37 45.6478 1114.88 45.6478C1122.41 45.6478 1123.92 44.1262 1123.92 42.6046C1128.44 42.6046 1130.7 41.083 1133.71 40.3222C1135.97 40.3222 1138.23 40.3222 1139.74 40.3222C1143.51 39.5614 1143.51 38.8006 1138.23 38.0398C1133.71 38.0398 1128.44 37.279 1123.17 37.279C1099.81 37.279 1077.21 35.7575 1053.86 37.279C1050.84 36.5183 1046.32 37.279 1041.8 36.5182C1044.06 35.7575 1047.08 34.2359 1051.6 34.2359C1082.48 32.7143 1112.62 31.1927 1144.26 30.4319C1159.33 30.4319 1173.64 28.9103 1187.96 28.1495C1189.46 28.1495 1191.72 28.1495 1193.98 28.1495C1203.78 29.6711 1212.82 28.1495 1222.61 28.1495C1225.62 28.1495 1228.64 28.1495 1228.64 25.8671C1221.86 25.8671 1216.58 25.8671 1209.8 25.8671C1189.46 25.8671 1169.87 25.1063 1149.53 25.1063L1154.05 26.6279ZM1122.41 9.89036C1122.41 9.89036 1123.92 9.89036 1124.67 9.89036C1123.17 9.89036 1123.17 9.89036 1121.66 9.89036H1122.41ZM1109.61 9.89036H1110.36C1110.36 9.89036 1111.87 9.89036 1112.62 9.89036C1112.62 9.89036 1113.37 9.89036 1114.13 9.89036H1111.87C1111.11 9.89036 1109.61 9.89036 1109.61 9.89036ZM1023.72 7.60797C1023.72 7.60797 1024.48 7.60797 1025.23 7.60797C1025.23 7.60797 1025.23 7.60797 1024.48 7.60797H1023.72ZM127.971 9.89036C127.971 9.89036 129.478 9.89036 130.232 9.89036C130.232 9.89036 128.725 9.89036 127.218 9.89036H127.971ZM141.532 9.89036H138.519C138.519 9.89036 139.272 9.89036 140.025 9.89036C140.025 9.89036 141.532 9.89036 142.285 9.89036H143.792C143.039 9.89036 142.285 9.89036 141.532 9.89036ZM228.922 7.60797C228.922 7.60797 228.169 7.60797 227.416 7.60797H228.922ZM151.326 28.1495H152.079C152.079 28.1495 152.079 28.1495 151.326 28.1495ZM204.061 47.1694C204.061 47.1694 204.061 47.1694 204.815 47.1694H204.061ZM219.129 35.7575C219.129 35.7575 219.129 35.7575 219.882 35.7575C219.882 35.7575 219.129 35.7575 218.375 35.7575H219.129ZM188.241 83.6877C187.487 83.6877 187.487 83.6877 186.734 83.6877H188.241ZM201.801 94.3388C201.801 94.3388 206.321 94.3388 207.828 92.8172C206.321 92.8172 204.061 93.578 202.555 94.3388H201.801ZM271.864 20.5415C271.864 20.5415 271.111 20.5415 270.357 20.5415H271.864ZM308.779 43.3654C308.779 43.3654 311.039 43.3654 308.779 44.887C311.039 44.887 309.532 44.1262 308.779 43.3654ZM405.963 22.8239C405.963 22.8239 405.21 22.8239 404.456 22.8239C404.456 22.8239 405.21 22.8239 405.963 22.8239ZM405.21 45.6478C405.21 45.6478 406.716 45.6478 407.47 45.6478C406.716 45.6478 405.963 45.6478 405.963 45.6478H405.21ZM424.044 11.412C424.044 11.412 425.55 11.412 426.304 11.412H424.044ZM421.784 61.6245C421.784 61.6245 424.044 61.6245 424.797 61.6245C424.044 61.6245 423.29 61.6245 422.537 61.6245H421.784ZM432.331 88.2524C432.331 88.2524 431.577 88.2524 430.824 88.2524C430.824 88.2524 430.824 88.2524 430.071 88.2524C430.824 88.2524 430.824 88.2524 433.084 88.2524H432.331ZM430.824 65.4285C430.824 65.4285 426.304 66.1893 424.044 66.9501C429.317 66.9501 433.084 66.9501 433.084 64.6677C433.084 64.6677 433.084 64.6677 433.837 64.6677C432.331 64.6677 431.577 64.6677 430.824 64.6677V65.4285ZM500.887 34.9967C500.887 34.9967 500.887 34.9967 500.133 34.9967C500.133 34.9967 500.134 34.9967 500.887 34.9967ZM513.694 1.52159C513.694 1.52159 514.447 1.52159 515.201 1.52159C515.201 1.52159 514.447 1.52159 513.694 1.52159ZM552.869 78.3621H554.376C554.376 78.3621 553.622 78.3621 552.869 78.3621ZM576.223 63.9069C576.223 63.9069 576.977 63.9069 577.73 63.9069H576.223ZM588.277 0H589.784C589.784 0 591.291 0.760797 593.551 0.760797C591.291 0.760797 589.784 0.760797 589.031 0H588.277ZM645.533 92.8172C643.273 92.8172 641.013 92.8172 638.753 92.8172C628.959 92.8172 619.918 92.8172 610.878 92.8172C610.878 92.8172 610.878 92.8172 611.631 92.8172C608.618 92.8172 606.358 92.8172 603.344 92.8172H604.851C604.851 92.8172 607.865 92.8172 608.618 92.8172C609.371 92.8172 610.125 92.8172 610.878 92.8172C616.152 92.8172 621.425 92.8172 626.699 92.8172C632.726 92.8172 638.753 92.8172 644.779 92.8172C644.779 92.8172 646.286 92.8172 647.04 92.8172C647.793 92.8172 649.3 92.8172 650.053 92.8172C648.546 92.8172 646.286 92.8172 644.026 92.8172H645.533ZM665.12 0.760797C665.12 0.760797 668.134 0.760797 668.134 0H668.887C668.887 0 667.38 0.760797 664.367 0.760797H665.12ZM704.295 77.6013C704.295 77.6013 703.542 77.6013 702.789 77.6013H704.295ZM741.964 0.760797C741.964 0.760797 741.964 0.760797 743.47 0.760797C742.717 0.760797 742.717 0.760797 741.964 0.760797ZM834.627 12.1727C834.627 12.1727 833.874 12.1727 833.121 12.1727C833.874 12.1727 834.627 12.1727 835.381 12.1727H834.627ZM826.34 88.2524H825.587C825.587 88.2524 827.094 88.2524 827.847 88.2524C827.094 88.2524 827.847 88.2524 826.34 88.2524ZM826.34 65.4285C826.34 65.4285 824.834 65.4285 823.327 65.4285C823.327 65.4285 823.327 65.4285 824.08 65.4285C824.08 66.9501 827.094 67.7109 833.121 67.7109C830.107 67.7109 827.847 66.9501 826.34 66.1893V65.4285ZM834.627 62.3853C834.627 62.3853 832.367 62.3853 831.614 62.3853C833.121 62.3853 833.874 62.3853 835.381 62.3853H834.627ZM852.708 22.8239C852.708 22.8239 852.708 22.8239 851.201 22.8239C851.201 22.8239 851.955 22.8239 852.708 22.8239ZM852.708 45.6478C852.708 45.6478 852.708 45.6478 851.201 45.6478C851.201 45.6478 851.955 45.6478 853.461 45.6478H852.708ZM948.385 41.8438C948.385 41.8438 946.125 42.6046 948.385 43.3654C946.125 43.3654 946.879 41.8438 948.385 41.8438ZM974.753 40.3222C974.753 40.3222 974.753 40.3222 974 40.3222C974 40.3222 974 40.3222 974.753 40.3222ZM983.04 19.0199H983.794C983.794 19.0199 983.794 19.0199 984.547 19.0199C984.547 19.0199 983.794 19.0199 983.04 19.0199ZM1066.66 80.6445H1067.42C1067.42 80.6445 1067.42 80.6445 1066.66 80.6445ZM1053.86 92.0564C1053.86 92.0564 1050.09 91.2956 1048.58 90.5348C1050.09 90.5348 1050.84 92.0564 1053.86 92.0564ZM1035.02 33.4751C1035.02 33.4751 1035.02 33.4751 1034.27 33.4751H1035.02ZM1051.6 44.887C1051.6 44.887 1051.6 44.887 1052.35 44.887H1051.6ZM1103.58 25.8671C1103.58 25.8671 1103.58 25.8671 1102.83 25.8671C1102.83 25.8671 1102.83 25.8671 1103.58 25.8671Z" fill="#B4CD4C"/>
<path fill-rule="evenodd" clip-rule="evenodd" d="M858.557 97.4514C858.557 97.4514 859.617 97.4514 860.147 97.4514C860.676 97.4514 861.206 97.4514 860.147 97.4514C860.147 97.4514 859.087 97.4514 858.557 97.4514Z" fill="#B4CD4C"/>
<path fill-rule="evenodd" clip-rule="evenodd" d="M1162.86 21.9266C1159.61 21.9266 1159.61 21.9266 1162.86 21.9266V21.9266Z" fill="#B4CD4C"/>
<path fill-rule="evenodd" clip-rule="evenodd" d="M2.07888 26.7991C2.07888 26.7991 6.72997 26.7991 8.05885 26.7991C5.40109 26.7991 2.74332 26.7991 0.75 26.7991C0.75 26.7991 0.75 26.7991 1.41444 26.7991H2.07888Z" fill="#B4CD4C"/>
<path fill-rule="evenodd" clip-rule="evenodd" d="M393.601 97.4514C394.21 97.4514 395.428 97.4514 395.428 97.4514C395.428 97.4514 395.428 97.4514 394.819 97.4514C394.819 97.4514 393.601 97.4514 392.992 97.4514H393.601Z" fill="#B4CD4C"/>
<path fill-rule="evenodd" clip-rule="evenodd" d="M90.8925 21.9266C90.8925 21.9266 90.8925 21.9266 92.2847 21.9266C93.6768 21.9266 93.6768 21.9266 92.2847 21.9266H90.8925Z" fill="#B4CD4C"/>
</svg>
