<svg width="788" height="61" viewBox="0 0 788 61" fill="none" xmlns="http://www.w3.org/2000/svg">
<path fill-rule="evenodd" clip-rule="evenodd" d="M783.401 16.775C783.401 16.775 785.374 16.775 787.346 16.775C788.135 16.775 788.135 16.775 787.741 16.775C786.557 16.775 784.979 16.775 783.401 16.775Z" fill="#C29961"/>
<path fill-rule="evenodd" clip-rule="evenodd" d="M725.737 16.6678C720.522 16.6678 714.833 16.6678 709.618 16.6678C704.403 15.7154 698.241 16.6678 692.552 16.6678C694.922 16.1916 698.241 15.7154 700.611 15.2391C702.507 14.7629 702.033 13.8105 698.715 13.8105C691.604 13.8105 684.493 12.858 677.382 13.3343H662.211C662.211 13.3343 663.634 13.3343 664.582 13.3343C664.582 13.3343 664.108 13.3343 663.634 13.3343C663.16 13.3343 663.16 13.3343 662.211 12.858C661.737 12.858 660.789 12.858 660.315 12.858C660.315 12.858 660.157 12.858 659.841 12.858C659.841 12.858 658.893 12.858 658.419 12.858C657.471 12.858 657.471 12.858 656.523 12.858C651.782 11.9056 646.567 12.858 641.352 12.858C639.93 12.3818 638.034 11.9056 635.664 11.4294H633.767C633.767 11.4294 635.19 10.9531 635.664 10.4769C637.086 10.4769 638.508 10.4769 639.456 10.4769H645.145C645.145 10.4769 647.989 10.4769 648.938 10.4769H652.73C652.73 10.4769 656.049 10.4769 658.419 10.4769C658.893 10.4769 659.841 10.4769 660.315 10.4769H664.108C664.108 10.4769 666.952 10.4769 667.9 10.4769C669.797 10.4769 671.693 10.4769 674.063 10.4769C675.959 10.4769 677.856 10.4769 679.752 10.4769H683.544C687.811 10.4769 692.552 10.4769 697.292 10.4769H714.359C714.359 10.4769 715.781 10.4769 716.255 10.0007H721.944C721.944 10.0007 724.788 10.0007 725.737 10.0007C728.107 10.0007 730.951 10.0007 733.322 10.0007C733.796 10.0007 734.744 10.0007 735.218 10.0007C739.484 10.0007 744.225 10.0007 748.492 10.0007C749.44 10.0007 751.336 10.0007 752.284 10.0007C754.181 10.0007 756.077 10.0007 757.973 10.0007C761.766 10.0007 763.03 9.68321 761.766 9.04824H756.077C756.077 9.04824 751.336 9.04824 748.492 9.04824H744.699C744.699 9.04824 744.699 9.04824 743.751 9.04824C743.751 9.04824 742.803 9.04824 742.329 9.04824H729.055C729.055 9.04824 724.788 9.04824 721.944 8.57202H696.344C696.344 8.57202 691.13 8.57202 688.759 8.57202C677.856 8.57202 666.952 8.57202 655.574 8.57202C652.73 8.0958 649.412 8.57202 646.093 8.57202H642.301C638.982 7.61957 633.293 8.57202 629.975 7.61957C633.293 5.23846 632.819 4.76223 622.864 5.23846C611.012 5.23846 600.109 4.76223 589.205 3.80979C576.879 3.33356 564.553 3.33356 552.228 2.85734C539.902 2.85734 527.576 2.85734 515.25 2.85734C495.814 2.85734 476.377 2.85734 457.414 2.85734C454.57 2.85734 452.199 2.85734 449.829 2.85734C435.607 3.33356 421.385 3.33356 407.163 3.80979C402.896 3.80979 398.156 3.80979 393.889 3.80979C389.622 3.80979 385.83 3.80979 381.563 3.80979C367.341 3.80979 353.119 3.80979 338.897 2.85734C336.527 2.85734 333.682 2.85734 331.312 2.85734C311.875 2.85734 292.439 2.85734 273.002 2.85734C260.676 2.85734 247.876 2.85734 236.025 2.85734C223.699 2.85734 211.373 2.85734 199.047 3.80979C188.144 4.28601 177.24 5.23846 165.388 5.23846C155.433 5.23846 154.959 5.23846 158.277 7.61957C154.485 8.0958 149.27 7.61957 145.952 8.0958C144.529 8.0958 143.581 8.0958 142.159 8.0958C138.841 8.0958 135.522 8.0958 132.678 8.0958C121.774 8.0958 110.871 8.0958 99.9671 8.0958C97.5968 8.0958 94.2783 8.0958 92.382 8.0958C90.0117 8.0958 87.1673 8.0958 84.797 8.0958H66.7824C64.412 8.0958 61.5676 8.0958 59.6714 8.0958C55.4048 8.0958 50.6641 8.0958 45.9234 8.0958C45.4493 8.0958 44.9753 8.0958 44.5012 8.0958H39.7605C37.3902 8.0958 34.5458 8.0958 32.1754 8.0958H26.4866C26.4866 8.0958 25.0644 9.04824 30.2792 9.04824H35.968C35.968 9.04824 38.8124 9.04824 39.7605 9.04824C44.5012 9.04824 48.7678 9.04824 53.5085 9.04824C54.4566 9.04824 54.9307 9.04824 55.4048 9.04824C57.7751 9.04824 60.6195 9.04824 62.9898 9.04824C63.938 9.04824 66.3083 9.04824 66.7824 9.04824C68.6786 9.04824 70.5749 9.04824 72.4712 9.04824C73.4193 9.04824 73.8934 9.04824 74.3675 9.04824H91.4339C95.7005 10.0007 100.441 9.04824 105.182 9.04824H108.974C108.974 9.04824 112.767 9.04824 114.663 9.04824H120.352C120.352 9.04824 123.196 9.04824 124.145 9.52447C125.567 9.52447 126.989 9.52447 127.937 9.52447C128.411 9.52447 128.885 9.52447 129.833 9.52447C131.73 9.52447 133.626 9.52447 135.522 9.52447H139.789C139.789 9.52447 141.685 9.52447 143.581 9.52447H149.27C149.27 9.52447 151.641 9.52447 153.063 9.52447C153.537 9.52447 154.485 10.0007 154.959 10.4769C154.485 10.4769 154.011 10.4769 153.063 10.4769C150.218 10.4769 148.796 10.9531 146.9 11.9056C142.159 11.9056 135.996 11.9056 131.73 11.9056H129.833C129.833 11.9056 129.359 11.9056 128.411 11.9056C127.937 11.9056 127.937 11.9056 127.937 11.9056H126.041C126.041 11.9056 125.093 11.9056 124.619 12.3818C124.619 12.3818 124.619 12.3818 124.145 12.3818C124.619 12.3818 125.567 12.3818 126.041 11.9056H110.871C103.76 11.9056 96.6487 12.3818 89.0636 12.3818C86.2192 12.3818 85.271 12.858 87.1673 13.8105C89.0636 14.7629 92.382 14.7629 95.2264 15.2391C89.5376 15.2391 83.3747 15.2391 78.16 15.2391C72.4712 15.2391 67.2564 15.2391 62.0417 15.2391C49.2419 15.2391 36.9161 15.2391 24.1163 15.2391C20.3237 15.2391 16.0571 15.2391 12.2646 15.2391C12.2646 16.1916 14.1609 16.6678 16.0571 16.6678C21.7459 16.6678 27.9088 17.6203 33.5976 16.6678C35.0198 16.6678 36.442 16.6678 37.3902 16.6678C46.3975 16.6678 55.8788 17.6203 64.8861 18.0965C84.797 18.0965 103.76 19.5252 123.196 20.4776C126.041 20.4776 127.937 20.9538 129.359 21.9063C126.515 21.9063 123.671 21.9063 121.774 22.3825C107.078 22.3825 92.8561 22.8587 78.16 22.3825C75.3156 22.3825 71.9971 22.3825 69.1527 22.8587C65.8342 22.8587 65.8342 23.8112 68.2046 24.2874C68.6786 24.2874 70.1009 24.2874 71.5231 24.7636C72.9453 25.2398 74.8415 25.7161 77.6859 26.1923C77.6859 26.1923 78.16 28.0972 83.3748 28.0972C83.3748 28.0972 85.7451 28.5734 87.1673 28.5734C93.8042 29.5258 99.9671 30.9545 108.026 30.9545C114.189 30.9545 117.034 32.8594 121.3 33.8119C122.248 33.8119 123.671 33.8119 125.093 34.2881C125.093 34.2881 127.937 34.2881 128.885 34.2881H138.367C138.367 34.2881 142.633 35.2405 144.055 35.7168C144.055 35.7168 145.004 36.6692 145.952 36.6692C145.952 37.6216 148.322 38.5741 142.633 38.5741C138.367 38.5741 137.893 39.5265 136.47 40.479C136.47 40.479 133.152 41.4314 130.782 41.9077C130.782 41.9077 129.359 41.9077 128.885 41.9077C114.663 41.9077 102.337 42.8601 91.4339 45.2412C88.5895 45.7174 89.5376 46.6699 91.908 47.1461C91.908 47.1461 91.908 47.1461 92.8561 47.1461C93.3302 47.1461 93.3302 47.1461 94.2783 47.1461H96.1746C99.493 47.1461 102.812 47.1461 106.13 47.1461C106.604 47.1461 106.604 47.1461 107.552 47.6223C108.5 48.0986 110.397 48.5748 109.923 49.5272C103.76 49.5272 100.915 50.4797 96.6486 51.4321C95.2264 51.4321 92.382 51.4321 90.9598 51.4321C88.1154 51.4321 85.271 51.4321 83.3748 51.4321H79.5822C76.7378 51.4321 73.8934 51.4321 72.4712 52.3846V52.8608C75.3156 52.8608 78.6341 53.337 81.0044 52.8608C81.0044 52.8608 81.9526 52.8608 82.4266 52.8608H84.797C88.1154 52.8608 91.4339 52.8608 94.2783 52.8608H98.0708C104.234 52.8608 110.871 52.8608 117.034 52.8608C119.404 52.8608 122.722 52.8608 124.145 52.8608C125.567 53.8132 121.774 53.8132 119.878 54.2895C115.611 55.2419 110.871 55.7181 105.656 56.1944C109.923 57.1468 115.611 56.6706 119.404 57.623C126.041 58.5755 133.626 58.5755 140.263 57.623H142.159C145.478 57.623 149.27 57.623 152.115 57.623C155.433 57.623 159.226 57.623 162.07 57.623C166.337 57.623 171.077 57.623 175.344 57.623C175.818 57.623 176.292 57.623 177.24 57.623C180.085 57.623 182.929 57.623 185.299 57.623H187.196C187.196 57.623 190.04 57.623 190.988 57.623C191.462 57.623 191.936 57.623 192.41 57.623H192.884C193.358 57.623 194.307 57.623 194.781 57.623C195.729 57.623 196.203 57.623 196.677 57.623C198.099 57.623 199.521 57.623 200.944 57.623C208.055 58.0993 214.691 58.5755 221.328 57.623C222.751 57.623 224.647 57.623 225.595 57.623C226.069 57.623 226.543 57.623 227.491 57.623C232.232 58.5755 236.973 57.623 242.187 57.623C245.506 57.623 248.824 57.1468 252.143 57.623C254.039 57.623 255.935 57.623 257.358 57.623C258.78 57.623 260.202 57.1468 261.624 57.623C266.365 58.0993 270.157 57.623 274.424 57.623H277.268C284.854 57.623 291.965 57.623 300.024 57.623C300.972 57.623 301.92 57.623 302.868 57.623H303.816C305.238 57.623 305.713 57.623 306.661 58.0992C302.394 58.0992 298.602 58.5755 294.335 59.0517C309.031 59.0517 323.727 60.0041 338.897 59.0517C342.69 59.0517 346.482 59.0517 350.275 59.0517C355.964 59.0517 361.178 59.0517 366.393 59.0517C373.03 58.5755 380.141 58.5755 386.778 58.5755C388.2 58.5755 389.622 58.5755 390.571 58.5755H393.889C393.889 58.5755 397.682 58.5755 399.578 58.5755C406.689 58.5755 413.326 58.5755 419.489 59.0517C424.703 59.5279 430.392 59.0517 435.607 59.0517C439.4 59.0517 443.192 59.0517 447.459 59.0517C461.681 60.0041 476.851 59.0517 491.547 59.0517C487.755 59.0517 483.488 58.5755 479.221 58.0992C480.169 58.0992 481.118 57.623 482.066 57.623C482.066 57.623 482.54 57.623 483.014 57.623C483.962 57.623 484.91 57.623 485.858 57.623C493.443 57.623 501.028 57.623 508.613 57.623C509.562 57.623 510.51 57.623 511.458 57.623C515.724 57.623 519.991 58.0993 524.258 57.623C525.68 57.623 527.102 57.623 528.524 57.623C529.947 57.623 531.843 58.0993 533.739 57.623C537.058 57.623 540.85 57.623 544.169 57.623C548.909 57.623 553.65 58.5755 558.391 57.623C558.865 57.623 559.813 57.623 560.287 57.623C561.235 57.623 563.131 57.623 564.079 57.623C571.19 58.5755 578.301 58.0993 584.938 57.623C585.887 57.623 587.783 57.623 588.731 57.623C589.205 57.623 589.679 57.623 590.627 57.623C591.575 57.623 592.049 57.623 592.523 57.623C592.523 57.623 592.523 57.623 592.998 57.623C592.998 57.623 593.472 57.623 594.42 57.623C595.842 57.623 597.264 57.623 598.212 57.623C598.686 57.623 599.634 57.623 600.109 57.623C602.005 58.0993 605.323 57.623 607.694 57.623C608.168 57.623 609.116 57.623 609.59 57.623C613.383 58.5755 618.597 57.623 622.864 57.623C625.234 58.5755 629.027 57.623 632.345 57.623C635.19 58.5755 638.508 57.623 642.301 57.623C643.249 57.623 643.249 57.623 643.723 57.623C650.834 58.5755 657.945 58.5755 664.582 57.623C668.848 57.1468 674.537 57.623 678.804 56.1944C673.589 56.1944 668.374 55.2419 664.582 54.2895C662.685 54.2895 658.893 53.8132 660.315 52.8608C661.263 52.3846 664.582 52.3846 667.426 52.3846C673.589 52.3846 679.752 52.3846 686.389 52.3846C687.811 52.3846 688.759 52.3846 690.181 52.3846C693.026 52.8608 696.818 52.3846 699.663 52.3846C700.137 52.3846 701.085 52.3846 701.559 52.3846C701.559 52.3846 701.559 52.3846 702.033 52.3846C702.033 52.3846 702.981 52.3846 703.455 52.3846C705.826 52.8608 709.144 52.8608 711.989 52.3846C712.463 52.3846 712.937 52.3846 712.463 51.9083C711.04 50.9559 708.196 50.9559 705.352 50.9559C704.404 50.9559 702.981 50.9559 701.559 50.9559C699.663 50.4797 696.344 50.9559 693.974 50.9559C692.552 50.9559 689.707 50.9559 688.285 50.9559C684.019 50.0035 681.174 49.051 675.011 49.051C674.537 48.5748 676.907 47.6223 677.382 47.1461C677.382 47.1461 677.856 47.1461 678.804 46.6699C682.122 46.6699 685.441 46.6699 688.759 46.6699C689.233 46.6699 690.181 46.6699 690.656 46.6699C691.604 46.6699 691.604 46.6699 692.078 46.6699H692.552C694.922 46.6699 695.87 45.7174 692.552 44.765C682.122 42.3839 669.322 41.4314 655.1 41.4314C654.152 41.4314 654.152 41.4314 653.204 41.4314C653.204 41.4314 649.412 40.479 647.515 40.0028C647.515 40.0028 645.145 38.0979 641.352 38.0979C635.664 38.0979 638.034 37.1454 638.034 36.193C638.508 36.193 639.456 36.193 639.93 35.7168C639.93 35.7168 643.249 34.2881 645.619 33.8119H655.1C655.1 33.8119 657.471 33.8119 658.893 33.8119C658.893 33.8119 661.737 33.8119 662.685 33.8119C667.426 32.8594 669.797 31.4307 676.434 30.9545C684.967 30.9545 690.655 29.5258 697.292 28.5734C697.292 28.5734 700.137 28.5734 701.085 28.5734C705.826 28.5734 706.774 27.621 706.774 26.6685C709.618 26.6685 711.04 25.7161 712.937 25.2398C714.359 25.2398 715.781 25.2398 716.729 25.2398C719.1 24.7636 719.1 24.2874 715.781 23.8112C712.937 23.8112 709.618 23.3349 706.3 23.3349C691.604 23.3349 677.382 22.3825 662.685 23.3349C660.789 22.8587 657.945 23.3349 655.1 22.8587C656.523 22.3825 658.419 21.43 661.263 21.43C680.7 20.4776 699.663 19.5252 719.574 19.0489C729.055 19.0489 738.062 18.0965 747.07 17.6203C748.018 17.6203 749.44 17.6203 750.862 17.6203C757.025 18.5727 762.714 17.6203 768.877 17.6203C770.773 17.6203 772.669 17.6203 772.669 16.1916C768.403 16.1916 765.084 16.1916 760.818 16.1916C748.018 16.1916 735.692 15.7154 722.892 15.7154L725.737 16.6678ZM705.826 6.1909C705.826 6.1909 706.774 6.1909 707.248 6.1909C706.3 6.1909 706.3 6.1909 705.352 6.1909H705.826ZM697.767 6.1909H698.241C698.241 6.1909 699.189 6.1909 699.663 6.1909C699.663 6.1909 700.137 6.1909 700.611 6.1909H699.189C698.715 6.1909 697.767 6.1909 697.767 6.1909ZM643.723 4.76223C643.723 4.76223 644.197 4.76223 644.671 4.76223C644.671 4.76223 644.671 4.76223 644.197 4.76223H643.723ZM80.0563 6.1909C80.0563 6.1909 81.0044 6.1909 81.4785 6.1909C81.4785 6.1909 80.5303 6.1909 79.5822 6.1909H80.0563ZM88.5895 6.1909H86.6932C86.6932 6.1909 87.1673 6.1909 87.6414 6.1909C87.6414 6.1909 88.5895 6.1909 89.0636 6.1909H90.0117C89.5376 6.1909 89.0636 6.1909 88.5895 6.1909ZM143.581 4.76223C143.581 4.76223 143.107 4.76223 142.633 4.76223H143.581ZM94.7524 17.6203H95.2264C95.2264 17.6203 95.2264 17.6203 94.7524 17.6203ZM127.937 29.5258C127.937 29.5258 127.937 29.5258 128.411 29.5258H127.937ZM137.418 22.3825C137.418 22.3825 137.418 22.3825 137.893 22.3825C137.893 22.3825 137.418 22.3825 136.944 22.3825H137.418ZM117.982 52.3846C117.508 52.3846 117.508 52.3846 117.034 52.3846H117.982ZM126.515 59.0517C126.515 59.0517 129.359 59.0517 130.307 58.0992C129.359 58.0992 127.937 58.5755 126.989 59.0517H126.515ZM170.603 12.858C170.603 12.858 170.129 12.858 169.655 12.858H170.603ZM193.833 27.1447C193.833 27.1447 195.255 27.1447 193.833 28.0972C195.255 28.0972 194.307 27.621 193.833 27.1447ZM254.987 14.2867C254.987 14.2867 254.513 14.2867 254.039 14.2867C254.039 14.2867 254.513 14.2867 254.987 14.2867ZM254.513 28.5734C254.513 28.5734 255.461 28.5734 255.935 28.5734C255.461 28.5734 254.987 28.5734 254.987 28.5734H254.513ZM266.365 7.14335C266.365 7.14335 267.313 7.14335 267.787 7.14335H266.365ZM264.943 38.5741C264.943 38.5741 266.365 38.5741 266.839 38.5741C266.365 38.5741 265.891 38.5741 265.417 38.5741H264.943ZM271.58 55.2419C271.58 55.2419 271.106 55.2419 270.631 55.2419C270.631 55.2419 270.632 55.2419 270.157 55.2419C270.632 55.2419 270.632 55.2419 272.054 55.2419H271.58ZM270.631 40.9552C270.631 40.9552 267.787 41.4314 266.365 41.9077C269.683 41.9077 272.054 41.9076 272.054 40.479C272.054 40.479 272.054 40.479 272.528 40.479C271.58 40.479 271.106 40.479 270.631 40.479V40.9552ZM314.72 21.9063C314.72 21.9063 314.72 21.9063 314.246 21.9063C314.246 21.9063 314.246 21.9063 314.72 21.9063ZM322.779 0.952447C322.779 0.952447 323.253 0.952447 323.727 0.952447C323.727 0.952447 323.253 0.952447 322.779 0.952447ZM347.43 49.051H348.379C348.379 49.051 347.905 49.051 347.43 49.051ZM362.127 40.0028C362.127 40.0028 362.601 40.0028 363.075 40.0028H362.127ZM369.712 0H370.66C370.66 0 371.608 0.476223 373.03 0.476223C371.608 0.476223 370.66 0.476223 370.186 0H369.712ZM405.741 58.0992C404.319 58.0992 402.896 58.0992 401.474 58.0992C395.311 58.0992 389.622 58.0992 383.934 58.0992C383.934 58.0992 383.934 58.0992 384.408 58.0992C382.511 58.0992 381.089 58.0992 379.193 58.0992H380.141C380.141 58.0992 382.037 58.0992 382.512 58.0992C382.986 58.0992 383.46 58.0992 383.934 58.0992C387.252 58.0992 390.571 58.0992 393.889 58.0992C397.682 58.0992 401.474 58.0992 405.267 58.0992C405.267 58.0992 406.215 58.0992 406.689 58.0992C407.163 58.0992 408.111 58.0992 408.585 58.0992C407.637 58.0992 406.215 58.0992 404.793 58.0992H405.741ZM418.067 0.476223C418.067 0.476223 419.963 0.476223 419.963 0H420.437C420.437 0 419.489 0.476223 417.592 0.476223H418.067ZM442.718 48.5748C442.718 48.5748 442.244 48.5748 441.77 48.5748H442.718ZM466.421 0.476223C466.421 0.476223 466.421 0.476223 467.37 0.476223C466.896 0.476223 466.896 0.476223 466.421 0.476223ZM524.732 7.61957C524.732 7.61957 524.258 7.61957 523.784 7.61957C524.258 7.61957 524.732 7.61957 525.206 7.61957H524.732ZM519.517 55.2419H519.043C519.043 55.2419 519.991 55.2419 520.465 55.2419C519.991 55.2419 520.465 55.2419 519.517 55.2419ZM519.517 40.9552C519.517 40.9552 518.569 40.9552 517.621 40.9552C517.621 40.9552 517.621 40.9552 518.095 40.9552C518.095 41.9077 519.991 42.3839 523.784 42.3839C521.887 42.3839 520.465 41.9077 519.517 41.4314V40.9552ZM524.732 39.0503C524.732 39.0503 523.31 39.0503 522.836 39.0503C523.784 39.0503 524.258 39.0503 525.206 39.0503H524.732ZM536.109 14.2867C536.109 14.2867 536.109 14.2867 535.161 14.2867C535.161 14.2867 535.635 14.2867 536.109 14.2867ZM536.109 28.5734C536.109 28.5734 536.109 28.5734 535.161 28.5734C535.161 28.5734 535.635 28.5734 536.583 28.5734H536.109ZM596.316 26.1923C596.316 26.1923 594.894 26.6685 596.316 27.1447C594.894 27.1447 595.368 26.1923 596.316 26.1923ZM612.908 25.2398C612.908 25.2398 612.908 25.2398 612.434 25.2398C612.434 25.2398 612.434 25.2398 612.908 25.2398ZM618.123 11.9056H618.597C618.597 11.9056 618.597 11.9056 619.071 11.9056C619.071 11.9056 618.597 11.9056 618.123 11.9056ZM670.745 50.4797H671.219C671.219 50.4797 671.219 50.4797 670.745 50.4797ZM662.685 57.623C662.685 57.623 660.315 57.1468 659.367 56.6706C660.315 56.6706 660.789 57.623 662.685 57.623ZM650.834 20.9538C650.834 20.9538 650.834 20.9538 650.36 20.9538H650.834ZM661.263 28.0972C661.263 28.0972 661.263 28.0972 661.737 28.0972H661.263ZM693.974 16.1916C693.974 16.1916 693.974 16.1916 693.5 16.1916C693.5 16.1916 693.5 16.1916 693.974 16.1916Z" fill="#C29961"/>
<path fill-rule="evenodd" clip-rule="evenodd" d="M539.79 61C539.79 61 540.457 61 540.79 61C541.124 61 541.457 61 540.79 61C540.79 61 540.123 61 539.79 61Z" fill="#C29961"/>
<path fill-rule="evenodd" clip-rule="evenodd" d="M731.276 13.725C729.232 13.725 729.232 13.725 731.276 13.725V13.725Z" fill="#C29961"/>
<path fill-rule="evenodd" clip-rule="evenodd" d="M0.836222 16.775C0.836222 16.775 3.763 16.775 4.59922 16.775C2.92678 16.775 1.25433 16.775 0 16.775C0 16.775 0 16.775 0.418111 16.775H0.836222Z" fill="#C29961"/>
<path fill-rule="evenodd" clip-rule="evenodd" d="M247.208 61C247.591 61 248.358 61 248.358 61C248.358 61 248.358 61 247.975 61C247.975 61 247.208 61 246.825 61H247.208Z" fill="#C29961"/>
<path fill-rule="evenodd" clip-rule="evenodd" d="M56.7237 13.725C56.7237 13.725 56.7237 13.725 57.5998 13.725C58.4758 13.725 58.4758 13.725 57.5998 13.725H56.7237Z" fill="#C29961"/>
</svg>
