<svg width="1253" height="98" viewBox="0 0 1253 98" fill="none" xmlns="http://www.w3.org/2000/svg">
<path fill-rule="evenodd" clip-rule="evenodd" d="M1244.94 26.7991C1244.94 26.7991 1248.08 26.7991 1251.21 26.7991C1252.47 26.7991 1252.47 26.7991 1251.84 26.7991C1249.96 26.7991 1247.45 26.7991 1244.94 26.7991Z" fill="#EDC031"/>
<path fill-rule="evenodd" clip-rule="evenodd" d="M1153.3 26.6279C1145.02 26.6279 1135.98 26.6279 1127.69 26.6279C1119.4 25.1063 1109.61 26.6279 1100.57 26.6279C1104.34 25.8671 1109.61 25.1063 1113.38 24.3455C1116.39 23.5847 1115.64 22.0631 1110.36 22.0631C1099.06 22.0631 1087.76 20.5415 1076.46 21.3023H1052.35C1052.35 21.3023 1054.61 21.3023 1056.12 21.3023C1056.12 21.3023 1055.37 21.3023 1054.61 21.3023C1053.86 21.3023 1053.86 21.3023 1052.35 20.5415C1051.6 20.5415 1050.09 20.5415 1049.34 20.5415C1049.34 20.5415 1049.09 20.5415 1048.59 20.5415C1048.59 20.5415 1047.08 20.5415 1046.33 20.5415C1044.82 20.5415 1044.82 20.5415 1043.31 20.5415C1035.78 19.0199 1027.49 20.5415 1019.21 20.5415C1016.94 19.7807 1013.93 19.0199 1010.16 18.2591H1007.15C1007.15 18.2591 1009.41 17.4983 1010.16 16.7375C1012.42 16.7375 1014.68 16.7375 1016.19 16.7375H1025.23C1025.23 16.7375 1029.75 16.7375 1031.26 16.7375H1037.29C1037.29 16.7375 1042.56 16.7375 1046.33 16.7375C1047.08 16.7375 1048.59 16.7375 1049.34 16.7375H1055.37C1055.37 16.7375 1059.89 16.7375 1061.39 16.7375C1064.41 16.7375 1067.42 16.7375 1071.19 16.7375C1074.2 16.7375 1077.21 16.7375 1080.23 16.7375H1086.25C1093.03 16.7375 1100.57 16.7375 1108.1 16.7375H1135.22C1135.22 16.7375 1137.48 16.7375 1138.24 15.9767H1147.28C1147.28 15.9767 1151.8 15.9767 1153.3 15.9767C1157.07 15.9767 1161.59 15.9767 1165.36 15.9767C1166.11 15.9767 1167.62 15.9767 1168.37 15.9767C1175.15 15.9767 1182.69 15.9767 1189.47 15.9767C1190.97 15.9767 1193.99 15.9767 1195.49 15.9767C1198.51 15.9767 1201.52 15.9767 1204.53 15.9767C1210.56 15.9767 1212.57 15.4695 1210.56 14.4551H1201.52C1201.52 14.4551 1193.99 14.4551 1189.47 14.4551H1183.44C1183.44 14.4551 1183.44 14.4551 1181.93 14.4551C1181.93 14.4551 1180.42 14.4551 1179.67 14.4551H1158.58C1158.58 14.4551 1151.8 14.4551 1147.28 13.6943H1106.6C1106.6 13.6943 1098.31 13.6943 1094.54 13.6943C1077.21 13.6943 1059.89 13.6943 1041.81 13.6943C1037.29 12.9335 1032.01 13.6943 1026.74 13.6943H1020.71C1015.44 12.1728 1006.4 13.6943 1001.12 12.1727C1006.4 8.36877 1005.64 7.60797 989.824 8.36877C970.99 8.36877 953.662 7.60797 936.335 6.08637C916.747 5.32558 897.16 5.32558 877.573 4.56478C857.985 4.56478 838.398 4.56478 818.81 4.56478C787.922 4.56478 757.034 4.56478 726.9 4.56478C722.379 4.56478 718.613 4.56478 714.846 4.56478C692.245 5.32558 669.644 5.32558 647.043 6.08637C640.263 6.08637 632.729 6.08637 625.949 6.08637C619.168 6.08637 613.142 6.08637 606.361 6.08637C583.76 6.08637 561.159 6.08637 538.558 4.56478C534.792 4.56478 530.271 4.56478 526.505 4.56478C495.617 4.56478 464.729 4.56478 433.841 4.56478C414.253 4.56478 393.912 4.56478 375.078 4.56478C355.491 4.56478 335.903 4.56478 316.316 6.08637C298.989 6.84717 281.661 8.36877 262.827 8.36877C247.006 8.36877 246.253 8.36877 251.527 12.1727C245.5 12.9335 237.213 12.1728 231.939 12.9335C229.679 12.9335 228.172 12.9335 225.912 12.9335C220.639 12.9335 215.365 12.9335 210.845 12.9335C193.517 12.9335 176.19 12.9335 158.863 12.9335C155.096 12.9335 149.822 12.9335 146.809 12.9335C143.042 12.9335 138.522 12.9335 134.755 12.9335H106.127C102.36 12.9335 97.8402 12.9335 94.8267 12.9335C88.0464 12.9335 80.5128 12.9335 72.9792 12.9335C72.2258 12.9335 71.4724 12.9335 70.7191 12.9335H63.1854C59.4186 12.9335 54.8984 12.9335 51.1316 12.9335H42.0912C42.0912 12.9335 39.8311 14.4551 48.1181 14.4551H57.1585C57.1585 14.4551 61.6787 14.4551 63.1854 14.4551C70.7191 14.4551 77.4993 14.4551 85.033 14.4551C86.5397 14.4551 87.2931 14.4551 88.0464 14.4551C91.8133 14.4551 96.3335 14.4551 100.1 14.4551C101.607 14.4551 105.374 14.4551 106.127 14.4551C109.141 14.4551 112.154 14.4551 115.168 14.4551C116.674 14.4551 117.428 14.4551 118.181 14.4551H145.302C152.082 15.9767 159.616 14.4551 167.15 14.4551H173.177C173.177 14.4551 179.204 14.4551 182.217 14.4551H191.257C191.257 14.4551 195.778 14.4551 197.284 15.2159C199.544 15.2159 201.805 15.2159 203.311 15.2159C204.065 15.2159 204.818 15.2159 206.325 15.2159C209.338 15.2159 212.352 15.2159 215.365 15.2159H222.145C222.145 15.2159 225.159 15.2159 228.172 15.2159H237.213C237.213 15.2159 240.979 15.2159 243.24 15.2159C243.993 15.2159 245.5 15.9767 246.253 16.7375C245.5 16.7375 244.746 16.7375 243.24 16.7375C238.719 16.7375 236.459 17.4983 233.446 19.0199C225.912 19.0199 216.118 19.0199 209.338 19.0199H206.325C206.325 19.0199 205.571 19.0199 204.065 19.0199C203.311 19.0199 203.311 19.0199 203.311 19.0199H200.298C200.298 19.0199 198.791 19.0199 198.038 19.7807C198.038 19.7807 198.038 19.7807 197.284 19.7807C198.038 19.7807 199.544 19.7807 200.298 19.0199H176.19C164.89 19.0199 153.589 19.7807 141.535 19.7807C137.015 19.7807 135.508 20.5415 138.522 22.0631C141.535 23.5847 146.809 23.5847 151.329 24.3455C142.289 24.3455 132.495 24.3455 124.208 24.3455C115.168 24.3455 106.881 24.3455 98.5936 24.3455C78.2527 24.3455 58.6652 24.3455 38.3244 24.3455C32.2975 24.3455 25.5172 24.3455 19.4903 24.3455C19.4903 25.8671 22.5037 26.6279 25.5172 26.6279C34.5576 26.6279 44.3513 28.1495 53.3917 26.6279C55.6518 26.6279 57.9119 26.6279 59.4186 26.6279C73.7325 26.6279 88.7998 28.1495 103.114 28.9103C134.755 28.9103 164.89 31.1927 195.778 32.7143C200.298 32.7143 203.311 33.4751 205.571 34.9967C201.051 34.9967 196.531 34.9967 193.517 35.7575C170.163 35.7575 147.562 36.5182 124.208 35.7575C119.688 35.7575 114.414 35.7575 109.894 36.5182C104.62 36.5182 104.62 38.0398 108.387 38.8006C109.141 38.8006 111.401 38.8006 113.661 39.5614C115.921 40.3222 118.934 41.083 123.455 41.8438C123.455 41.8438 124.208 44.887 132.495 44.887C132.495 44.887 136.262 45.6478 138.522 45.6478C149.069 47.1694 158.863 49.4518 171.67 49.4518C181.464 49.4518 185.984 52.495 192.764 54.0166C194.271 54.0166 196.531 54.0166 198.791 54.7774C198.791 54.7774 203.311 54.7774 204.818 54.7774H219.885C219.885 54.7774 226.666 56.299 228.926 57.0598C228.926 57.0598 230.432 58.5814 231.939 58.5814C231.939 60.103 235.706 61.6245 226.666 61.6245C219.885 61.6245 219.132 63.1461 216.872 64.6677C216.872 64.6677 211.598 66.1893 207.831 66.9501C207.831 66.9501 205.571 66.9501 204.818 66.9501C182.217 66.9501 162.63 68.4717 145.302 72.2757C140.782 73.0365 142.289 74.5581 146.056 75.3189C146.056 75.3189 146.056 75.3189 147.562 75.3189C148.316 75.3189 148.316 75.3189 149.822 75.3189H152.836C158.109 75.3189 163.383 75.3189 168.656 75.3189C169.41 75.3189 169.41 75.3189 170.917 76.0797C172.423 76.8405 175.437 77.6013 174.683 79.1229C164.89 79.1229 160.369 80.6445 153.589 82.1661C151.329 82.1661 146.809 82.1661 144.549 82.1661C140.029 82.1661 135.508 82.1661 132.495 82.1661H126.468C121.948 82.1661 117.428 82.1661 115.168 83.6877V84.4485C119.688 84.4485 124.961 85.2093 128.728 84.4485C128.728 84.4485 130.235 84.4485 130.988 84.4485H134.755C140.029 84.4485 145.302 84.4485 149.822 84.4485H155.849C165.643 84.4485 176.19 84.4485 185.984 84.4485C189.751 84.4485 195.024 84.4485 197.284 84.4485C199.544 85.97 193.517 85.9701 190.504 86.7309C183.724 88.2524 176.19 89.0132 167.903 89.774C174.683 91.2956 183.724 90.5348 189.751 92.0564C200.298 93.578 212.352 93.578 222.899 92.0564H225.912C231.186 92.0564 237.213 92.0564 241.733 92.0564C247.006 92.0564 253.033 92.0564 257.553 92.0564C264.334 92.0564 271.867 92.0564 278.648 92.0564C279.401 92.0564 280.154 92.0564 281.661 92.0564C286.181 92.0564 290.702 92.0564 294.468 92.0564H297.482C297.482 92.0564 302.002 92.0564 303.509 92.0564C304.262 92.0564 305.015 92.0564 305.769 92.0564H306.522C307.276 92.0564 308.782 92.0564 309.536 92.0564C311.042 92.0564 311.796 92.0564 312.549 92.0564C314.809 92.0564 317.069 92.0564 319.329 92.0564C330.63 92.8172 341.177 93.578 351.724 92.0564C353.984 92.0564 356.998 92.0564 358.504 92.0564C359.258 92.0564 360.011 92.0564 361.518 92.0564C369.051 93.578 376.585 92.0564 384.872 92.0564C390.146 92.0564 395.419 91.2956 400.693 92.0564C403.706 92.0564 406.72 92.0564 408.98 92.0564C411.24 92.0564 413.5 91.2956 415.76 92.0564C423.294 92.8172 429.321 92.0564 436.101 92.0564H440.621C452.675 92.0564 463.975 92.0564 476.783 92.0564C478.289 92.0564 479.796 92.0564 481.303 92.0564H482.809C485.07 92.0564 485.823 92.0564 487.33 92.8172C480.549 92.8172 474.522 93.578 467.742 94.3388C491.096 94.3388 514.451 95.8604 538.558 94.3388C544.585 94.3388 550.612 94.3388 556.639 94.3388C565.68 94.3388 573.967 94.3388 582.254 94.3388C592.801 93.578 604.101 93.578 614.648 93.578C616.908 93.578 619.168 93.578 620.675 93.578H625.949C625.949 93.578 631.976 93.578 634.989 93.578C646.29 93.578 656.837 93.578 666.63 94.3388C674.917 95.0996 683.958 94.3388 692.245 94.3388C698.272 94.3388 704.299 94.3388 711.079 94.3388C733.68 95.8604 757.788 94.3388 781.142 94.3388C775.115 94.3388 768.335 93.578 761.554 92.8172C763.061 92.8172 764.568 92.0564 766.075 92.0564C766.075 92.0564 766.828 92.0564 767.581 92.0564C769.088 92.0564 770.595 92.0564 772.101 92.0564C784.155 92.0564 796.209 92.0564 808.263 92.0564C809.77 92.0564 811.276 92.0564 812.783 92.0564C819.563 92.0564 826.344 92.8172 833.124 92.0564C835.384 92.0564 837.644 92.0564 839.904 92.0564C842.164 92.0564 845.178 92.8172 848.191 92.0564C853.465 92.0564 859.492 92.0564 864.765 92.0564C872.299 92.0564 879.833 93.578 887.366 92.0564C888.12 92.0564 889.626 92.0564 890.38 92.0564C891.886 92.0564 894.9 92.0564 896.407 92.0564C907.707 93.578 919.008 92.8172 929.555 92.0564C931.061 92.0564 934.075 92.0564 935.582 92.0564C936.335 92.0564 937.088 92.0564 938.595 92.0564C940.102 92.0564 940.855 92.0564 941.608 92.0564C941.608 92.0564 941.609 92.0564 942.362 92.0564C942.362 92.0564 943.115 92.0564 944.622 92.0564C946.882 92.0564 949.142 92.0564 950.649 92.0564C951.402 92.0564 952.909 92.0564 953.662 92.0564C956.676 92.8172 961.949 92.0564 965.716 92.0564C966.47 92.0564 967.976 92.0564 968.73 92.0564C974.757 93.578 983.044 92.0564 989.824 92.0564C993.591 93.578 999.618 92.0564 1004.89 92.0564C1009.41 93.578 1014.68 92.0564 1020.71 92.0564C1022.22 92.0564 1022.22 92.0564 1022.97 92.0564C1034.27 93.578 1045.57 93.578 1056.12 92.0564C1062.9 91.2956 1071.94 92.0564 1078.72 89.774C1070.43 89.774 1062.15 88.2524 1056.12 86.7309C1053.11 86.7309 1047.08 85.97 1049.34 84.4485C1050.85 83.6877 1056.12 83.6877 1060.64 83.6877C1070.43 83.6877 1080.23 83.6877 1090.77 83.6877C1093.03 83.6877 1094.54 83.6877 1096.8 83.6877C1101.32 84.4485 1107.35 83.6877 1111.87 83.6877C1112.62 83.6877 1114.13 83.6877 1114.88 83.6877C1114.88 83.6877 1114.88 83.6877 1115.64 83.6877C1115.64 83.6877 1117.14 83.6877 1117.9 83.6877C1121.66 84.4485 1126.94 84.4485 1131.46 83.6877C1132.21 83.6877 1132.96 83.6877 1132.21 82.9269C1129.95 81.4053 1125.43 81.4053 1120.91 81.4053C1119.4 81.4053 1117.14 81.4053 1114.88 81.4053C1111.87 80.6445 1106.6 81.4053 1102.83 81.4053C1100.57 81.4053 1096.05 81.4053 1093.79 81.4053C1087.01 79.8837 1082.49 78.3621 1072.69 78.3621C1071.94 77.6013 1075.71 76.0797 1076.46 75.3189C1076.46 75.3189 1077.21 75.3189 1078.72 74.5581C1083.99 74.5581 1089.27 74.5581 1094.54 74.5581C1095.29 74.5581 1096.8 74.5581 1097.56 74.5581C1099.06 74.5581 1099.06 74.5581 1099.82 74.5581H1100.57C1104.34 74.5581 1105.84 73.0365 1100.57 71.5149C1083.99 67.7109 1063.65 66.1893 1041.05 66.1893C1039.55 66.1893 1039.55 66.1893 1038.04 66.1893C1038.04 66.1893 1032.01 64.6677 1029 63.9069C1029 63.9069 1025.23 60.8638 1019.21 60.8638C1010.16 60.8638 1013.93 59.3422 1013.93 57.8206C1014.68 57.8206 1016.19 57.8206 1016.94 57.0598C1016.94 57.0598 1022.22 54.7774 1025.99 54.0166H1041.05C1041.05 54.0166 1044.82 54.0166 1047.08 54.0166C1047.08 54.0166 1051.6 54.0166 1053.11 54.0166C1060.64 52.495 1064.41 50.2126 1074.95 49.4518C1088.51 49.4518 1097.55 47.1694 1108.1 45.6478C1108.1 45.6478 1112.62 45.6478 1114.13 45.6478C1121.66 45.6478 1123.17 44.1262 1123.17 42.6046C1127.69 42.6046 1129.95 41.083 1132.96 40.3222C1135.22 40.3222 1137.48 40.3222 1138.99 40.3222C1142.76 39.5614 1142.76 38.8006 1137.48 38.0398C1132.96 38.0398 1127.69 37.279 1122.42 37.279C1099.06 37.279 1076.46 35.7575 1053.11 37.279C1050.09 36.5183 1045.57 37.279 1041.05 36.5182C1043.31 35.7575 1046.33 34.2359 1050.85 34.2359C1081.73 32.7143 1111.87 31.1927 1143.51 30.4319C1158.58 30.4319 1172.89 28.9103 1187.21 28.1495C1188.71 28.1495 1190.97 28.1495 1193.23 28.1495C1203.03 29.6711 1212.07 28.1495 1221.86 28.1495C1224.87 28.1495 1227.89 28.1495 1227.89 25.8671C1221.11 25.8671 1215.83 25.8671 1209.05 25.8671C1188.71 25.8671 1169.12 25.1063 1148.78 25.1063L1153.3 26.6279ZM1121.66 9.89036C1121.66 9.89036 1123.17 9.89036 1123.92 9.89036C1122.42 9.89036 1122.42 9.89036 1120.91 9.89036H1121.66ZM1108.86 9.89036H1109.61C1109.61 9.89036 1111.12 9.89036 1111.87 9.89036C1111.87 9.89036 1112.62 9.89036 1113.38 9.89036H1111.12C1110.36 9.89036 1108.86 9.89036 1108.86 9.89036ZM1022.97 7.60797C1022.97 7.60797 1023.73 7.60797 1024.48 7.60797C1024.48 7.60797 1024.48 7.60797 1023.73 7.60797H1022.97ZM127.221 9.89036C127.221 9.89036 128.728 9.89036 129.482 9.89036C129.482 9.89036 127.975 9.89036 126.468 9.89036H127.221ZM140.782 9.89036H137.769C137.769 9.89036 138.522 9.89036 139.275 9.89036C139.275 9.89036 140.782 9.89036 141.535 9.89036H143.042C142.289 9.89036 141.535 9.89036 140.782 9.89036ZM228.172 7.60797C228.172 7.60797 227.419 7.60797 226.666 7.60797H228.172ZM150.576 28.1495H151.329C151.329 28.1495 151.329 28.1495 150.576 28.1495ZM203.311 47.1694C203.311 47.1694 203.311 47.1694 204.065 47.1694H203.311ZM218.379 35.7575C218.379 35.7575 218.379 35.7575 219.132 35.7575C219.132 35.7575 218.379 35.7575 217.625 35.7575H218.379ZM187.491 83.6877C186.737 83.6877 186.737 83.6877 185.984 83.6877H187.491ZM201.051 94.3388C201.051 94.3388 205.571 94.3388 207.078 92.8172C205.571 92.8172 203.311 93.578 201.805 94.3388H201.051ZM271.114 20.5415C271.114 20.5415 270.361 20.5415 269.607 20.5415H271.114ZM308.029 43.3654C308.029 43.3654 310.289 43.3654 308.029 44.887C310.289 44.887 308.782 44.1262 308.029 43.3654ZM405.213 22.8239C405.213 22.8239 404.46 22.8239 403.706 22.8239C403.706 22.8239 404.46 22.8239 405.213 22.8239ZM404.46 45.6478C404.46 45.6478 405.966 45.6478 406.72 45.6478C405.966 45.6478 405.213 45.6478 405.213 45.6478H404.46ZM423.294 11.412C423.294 11.412 424.8 11.412 425.554 11.412H423.294ZM421.034 61.6245C421.034 61.6245 423.294 61.6245 424.047 61.6245C423.294 61.6245 422.54 61.6245 421.787 61.6245H421.034ZM431.581 88.2524C431.581 88.2524 430.827 88.2524 430.074 88.2524C430.074 88.2524 430.074 88.2524 429.321 88.2524C430.074 88.2524 430.074 88.2524 432.334 88.2524H431.581ZM430.074 65.4285C430.074 65.4285 425.554 66.1893 423.294 66.9501C428.567 66.9501 432.334 66.9501 432.334 64.6677C432.334 64.6677 432.334 64.6677 433.087 64.6677C431.581 64.6677 430.827 64.6677 430.074 64.6677V65.4285ZM500.137 34.9967C500.137 34.9967 500.137 34.9967 499.383 34.9967C499.383 34.9967 499.384 34.9967 500.137 34.9967ZM512.944 1.52159C512.944 1.52159 513.697 1.52159 514.451 1.52159C514.451 1.52159 513.697 1.52159 512.944 1.52159ZM552.119 78.3621H553.626C553.626 78.3621 552.872 78.3621 552.119 78.3621ZM575.473 63.9069C575.473 63.9069 576.227 63.9069 576.98 63.9069H575.473ZM587.527 0H589.034C589.034 0 590.541 0.760797 592.801 0.760797C590.541 0.760797 589.034 0.760797 588.281 0H587.527ZM644.783 92.8172C642.523 92.8172 640.263 92.8172 638.003 92.8172C628.209 92.8172 619.168 92.8172 610.128 92.8172C610.128 92.8172 610.128 92.8172 610.881 92.8172C607.868 92.8172 605.608 92.8172 602.594 92.8172H604.101C604.101 92.8172 607.115 92.8172 607.868 92.8172C608.621 92.8172 609.375 92.8172 610.128 92.8172C615.402 92.8172 620.675 92.8172 625.949 92.8172C631.976 92.8172 638.003 92.8172 644.029 92.8172C644.029 92.8172 645.536 92.8172 646.29 92.8172C647.043 92.8172 648.55 92.8172 649.303 92.8172C647.796 92.8172 645.536 92.8172 643.276 92.8172H644.783ZM664.37 0.760797C664.37 0.760797 667.384 0.760797 667.384 0H668.137C668.137 0 666.63 0.760797 663.617 0.760797H664.37ZM703.545 77.6013C703.545 77.6013 702.792 77.6013 702.039 77.6013H703.545ZM741.214 0.760797C741.214 0.760797 741.214 0.760797 742.72 0.760797C741.967 0.760797 741.967 0.760797 741.214 0.760797ZM833.877 12.1727C833.877 12.1727 833.124 12.1727 832.371 12.1727C833.124 12.1727 833.877 12.1727 834.631 12.1727H833.877ZM825.59 88.2524H824.837C824.837 88.2524 826.344 88.2524 827.097 88.2524C826.344 88.2524 827.097 88.2524 825.59 88.2524ZM825.59 65.4285C825.59 65.4285 824.084 65.4285 822.577 65.4285C822.577 65.4285 822.577 65.4285 823.33 65.4285C823.33 66.9501 826.344 67.7109 832.371 67.7109C829.357 67.7109 827.097 66.9501 825.59 66.1893V65.4285ZM833.877 62.3853C833.877 62.3853 831.617 62.3853 830.864 62.3853C832.371 62.3853 833.124 62.3853 834.631 62.3853H833.877ZM851.958 22.8239C851.958 22.8239 851.958 22.8239 850.451 22.8239C850.451 22.8239 851.205 22.8239 851.958 22.8239ZM851.958 45.6478C851.958 45.6478 851.958 45.6478 850.451 45.6478C850.451 45.6478 851.205 45.6478 852.711 45.6478H851.958ZM947.635 41.8438C947.635 41.8438 945.375 42.6046 947.635 43.3654C945.375 43.3654 946.129 41.8438 947.635 41.8438ZM974.003 40.3222C974.003 40.3222 974.003 40.3222 973.25 40.3222C973.25 40.3222 973.25 40.3222 974.003 40.3222ZM982.29 19.0199H983.044C983.044 19.0199 983.044 19.0199 983.797 19.0199C983.797 19.0199 983.044 19.0199 982.29 19.0199ZM1065.91 80.6445H1066.67C1066.67 80.6445 1066.67 80.6445 1065.91 80.6445ZM1053.11 92.0564C1053.11 92.0564 1049.34 91.2956 1047.83 90.5348C1049.34 90.5348 1050.09 92.0564 1053.11 92.0564ZM1034.27 33.4751C1034.27 33.4751 1034.27 33.4751 1033.52 33.4751H1034.27ZM1050.85 44.887C1050.85 44.887 1050.85 44.887 1051.6 44.887H1050.85ZM1102.83 25.8671C1102.83 25.8671 1102.83 25.8671 1102.08 25.8671C1102.08 25.8671 1102.08 25.8671 1102.83 25.8671Z" fill="#EDC031"/>
<path fill-rule="evenodd" clip-rule="evenodd" d="M857.807 97.4514C857.807 97.4514 858.867 97.4514 859.397 97.4514C860.456 97.4514 859.926 97.4514 859.397 97.4514C859.397 97.4514 858.337 97.4514 857.807 97.4514Z" fill="#EDC031"/>
<path fill-rule="evenodd" clip-rule="evenodd" d="M1162.11 21.9266C1158.86 21.9266 1158.86 21.9266 1162.11 21.9266Z" fill="#EDC031"/>
<path fill-rule="evenodd" clip-rule="evenodd" d="M1.32888 26.7991C1.32888 26.7991 5.97997 26.7991 7.30885 26.7991C4.65109 26.7991 1.99332 26.7991 0 26.7991C0 26.7991 0 26.7991 0.664441 26.7991H1.32888Z" fill="#EDC031"/>
<path fill-rule="evenodd" clip-rule="evenodd" d="M392.851 97.4514C393.46 97.4514 394.678 97.4514 394.678 97.4514C394.678 97.4514 394.678 97.4514 394.069 97.4514C394.069 97.4514 392.851 97.4514 392.242 97.4514H392.851Z" fill="#EDC031"/>
<path fill-rule="evenodd" clip-rule="evenodd" d="M90.1425 21.9266C90.1425 21.9266 90.1425 21.9266 91.5347 21.9266C92.9268 21.9266 92.9268 21.9266 91.5347 21.9266H90.1425Z" fill="#EDC031"/>
</svg>
