<svg width="359" height="80" viewBox="0 0 359 80" fill="none" xmlns="http://www.w3.org/2000/svg">
<g clip-path="url(#clip0_97_1866)">
<path d="M180 84.4833V26.9666C166.617 26.9666 153.234 23.612 141.155 16.9029L128.851 10.0674C104.69 -3.35581 75.3104 -3.35581 51.1486 10.0674L38.8447 16.9029C26.7656 23.612 13.3828 26.9666 0 26.9666V84.4833H180Z" fill="#075A5E"/>
<path d="M360 84.4833V26.9666C346.617 26.9666 333.234 23.612 321.155 16.9029L308.851 10.0674C284.69 -3.35581 255.31 -3.35581 231.149 10.0674L218.845 16.9029C206.766 23.612 193.383 26.9666 180 26.9666V84.4833H360Z" fill="#075A5E"/>
<path d="M540 84.4833V26.9666C526.617 26.9666 513.234 23.612 501.155 16.9029L488.851 10.0674C464.69 -3.35581 435.31 -3.35581 411.149 10.0674L398.845 16.9029C386.766 23.612 373.383 26.9666 360 26.9666V84.4833H540Z" fill="#075A5E"/>
<path d="M720 84.4833V26.9666C706.617 26.9666 693.234 23.612 681.155 16.9029L668.851 10.0674C644.69 -3.35581 615.31 -3.35581 591.149 10.0674L578.845 16.9029C566.766 23.612 553.383 26.9666 540 26.9666V84.4833H720Z" fill="#075A5E"/>
<path d="M900 84.4833V26.9666C886.617 26.9666 873.234 23.612 861.155 16.9029L848.851 10.0674C824.69 -3.35581 795.31 -3.35581 771.149 10.0674L758.845 16.9029C746.766 23.612 733.383 26.9666 720 26.9666V84.4833H900Z" fill="#075A5E"/>
<path d="M1080 84.4833V26.9666C1066.62 26.9666 1053.23 23.612 1041.16 16.9029L1028.85 10.0674C1004.69 -3.35581 975.31 -3.35581 951.149 10.0674L938.845 16.9029C926.766 23.612 913.383 26.9666 900 26.9666V84.4833H1080Z" fill="#075A5E"/>
<path d="M1260 84.4833V26.9666C1246.62 26.9666 1233.23 23.612 1221.16 16.9029L1208.85 10.0674C1184.69 -3.35581 1155.31 -3.35581 1131.15 10.0674L1118.84 16.9029C1106.77 23.612 1093.38 26.9666 1080 26.9666V84.4833H1260Z" fill="#075A5E"/>
<path d="M1440 84.4833V26.9666C1426.62 26.9666 1413.23 23.612 1401.16 16.9029L1388.85 10.0674C1364.69 -3.35581 1335.31 -3.35581 1311.15 10.0674L1298.84 16.9029C1286.77 23.612 1273.38 26.9666 1260 26.9666V84.4833H1440Z" fill="#075A5E"/>
<path d="M1620 84.4833V26.9666C1606.62 26.9666 1593.23 23.612 1581.16 16.9029L1568.85 10.0674C1544.69 -3.35581 1515.31 -3.35581 1491.15 10.0674L1478.84 16.9029C1466.77 23.612 1453.38 26.9666 1440 26.9666V84.4833H1620Z" fill="#075A5E"/>
</g>
<defs>
<clipPath id="clip0_97_1866">
<rect width="359" height="80" fill="white"/>
</clipPath>
</defs>
</svg>
