<svg width="521" height="435" viewBox="0 0 521 435" fill="none" xmlns="http://www.w3.org/2000/svg">
<path d="M25.7963 3.14751C26.5923 3.1801 27.5842 3.222 28.4245 3.58863L28.6879 3.70386L28.9886 3.68291C33.5877 3.73878 38.7964 3.86099 43.8349 3.97971L43.9375 3.98204C48.9795 4.10192 54.194 4.2253 58.8549 4.28116C58.6183 6.71724 58.039 8.64701 57.0332 10.3533C55.9108 12.261 54.363 13.6262 52.6741 14.1989C51.5786 14.5702 50.4259 14.6179 49.5436 14.6179C49.0949 14.6179 48.652 14.6039 48.2231 14.59L29.1495 13.994L28.639 13.859L28.2089 14.1535C28.0154 14.2827 27.8114 14.3944 27.5993 14.484C27.1471 14.6749 26.6669 14.7692 26.1308 14.7715L24.8837 14.7762L24.9734 16.0181C25.1494 18.4623 24.2485 20.9589 22.5643 22.6955C20.9477 24.3645 18.661 25.3213 16.2927 25.3213C16.1831 25.3213 16.0736 25.3189 15.964 25.3154L14.6155 25.2631L14.7612 26.6039C14.8428 27.3604 14.7589 28.0204 14.5025 28.6233C14.4104 28.8398 14.295 29.0516 14.1586 29.2495L13.8358 29.7232L14.0129 30.2633L14.6097 49.2455C14.654 50.6551 14.7041 52.2519 14.2181 53.6777C13.6446 55.3596 12.2775 56.9006 10.3672 58.018C8.65626 59.0189 6.72267 59.5962 4.28559 59.8325C4.22964 55.1792 4.1061 49.8426 3.98605 44.6807C3.87533 39.8981 3.75062 34.4766 3.69117 29.8955L3.68768 29.6603L3.59327 29.445C3.22613 28.607 3.18417 27.6165 3.15038 26.8204L2.16435 3.37564L2.683 2.80765L2.37414 2.16633L25.7951 3.14984L25.7963 3.14751Z" fill="#C29961"/>
<path d="M49.3723 10.7815C50.3875 11.5473 52.1066 10.9351 52.4085 9.70138C52.7103 8.46763 51.4667 7.13378 50.2126 7.34561C48.9585 7.55744 47.828 9.61758 49.3723 10.7815Z" fill="#593E37"/>
<path d="M8.88231 50.2045C7.62822 50.4163 6.49767 52.4765 8.04198 53.6404C9.05714 54.4062 10.7763 53.794 11.0781 52.5603C11.38 51.3265 10.1364 49.9927 8.88231 50.2045Z" fill="#593E37"/>
<path d="M0.999992 3.40361L1.98718 26.867C2.02448 27.7411 2.07227 28.8736 2.52565 29.9095C2.58393 34.4417 2.70398 39.6561 2.82053 44.7063C2.94058 49.902 3.06528 55.2747 3.12006 59.8931C3.12356 60.2062 3.25876 60.503 3.49186 60.7125C3.72496 60.922 4.028 61.0267 4.34735 60.9941C6.9814 60.7451 9.08166 60.1177 10.9558 59.0213C13.1062 57.7631 14.6575 55.9975 15.3206 54.0514C15.8743 52.4266 15.8218 50.7156 15.774 49.2072L15.1773 30.2121C15.1738 30.105 15.154 30.0014 15.1213 29.9036C15.2985 29.6441 15.45 29.3694 15.5747 29.0761C15.9395 28.2183 16.013 27.3326 15.9197 26.4771C18.6866 26.583 21.4664 25.5017 23.4023 23.5044C25.3394 21.5072 26.3347 18.694 26.1366 15.9343C26.7765 15.932 27.4245 15.8214 28.0562 15.5549C28.3394 15.435 28.6075 15.2884 28.8604 15.1196C28.942 15.1405 29.0259 15.1545 29.1133 15.1568L48.1857 15.7528C49.6974 15.8005 51.413 15.8552 53.0483 15.3C55.0017 14.6377 56.7732 13.0909 58.0367 10.9423C59.1392 9.07071 59.7686 6.97334 60.0192 4.34172C60.0495 4.03096 59.9469 3.72019 59.7371 3.48741C59.5273 3.25463 59.2301 3.11961 58.9166 3.11612C54.2872 3.06025 49.0401 2.93688 43.9643 2.817C38.8826 2.69711 33.6273 2.57374 28.9863 2.51787L28.9723 2.51787C28.9443 2.51787 28.9175 2.5202 28.8907 2.52253C27.8522 2.06976 26.7193 2.02204 25.8452 1.98596L2.34966 1.00013C2.33451 1.00013 2.31819 1.00013 2.30303 1.00013C1.82867 1.00013 1.40326 1.29925 1.24475 1.74969C1.14452 2.03718 1.16783 2.34445 1.2937 2.60517C1.09906 2.81816 0.988338 3.10332 1.00116 3.40594L0.999992 3.40361ZM13.1982 53.3298C12.7087 54.7672 11.5094 56.1022 9.82292 57.0892C8.52921 57.8458 7.08397 58.3404 5.34502 58.6139C5.28325 54.2795 5.17136 49.3934 5.0618 44.6539C4.9639 40.4359 4.86367 36.1003 4.79956 32.15C5.86717 32.6225 7.23083 32.8064 8.88469 32.6924C10.5129 32.5818 11.887 32.2478 12.9791 31.7042L13.5316 49.277C13.5747 50.6597 13.619 52.0902 13.1971 53.3298L13.1982 53.3298ZM13.5106 28.2008C12.774 29.9339 10.2017 30.3587 8.73433 30.4588C8.45811 30.4775 8.19587 30.4868 7.94528 30.4868C6.36019 30.4868 5.29607 30.112 4.77742 29.3694C4.7646 29.3508 4.75295 29.331 4.74013 29.3124C4.70283 29.1273 4.61891 28.9574 4.50236 28.8189C4.30888 28.2637 4.2611 27.5746 4.2273 26.7739L3.69466 14.114C4.69117 17.4288 5.52102 20.81 6.59795 24.0608C7.34271 25.1421 9.15625 24.2354 8.7623 22.9842C7.70635 19.0338 6.62709 15.0893 5.49537 11.1599C5.33453 10.7433 5.19817 10.3103 5.07113 9.86917C7.61777 14.0895 10.0537 18.7603 12.4395 23.3368C13.2763 24.943 14.1178 26.775 13.5106 28.2032L13.5106 28.2008ZM21.7916 21.9471C20.1587 23.6301 17.6423 24.4891 15.3148 24.1795C15.0223 23.4416 14.6819 22.7886 14.4174 22.28C12.2449 18.1132 10.0269 13.8626 7.70985 9.91921C10.1924 11.828 12.5187 13.9126 14.9139 16.3545C15.9861 17.4451 17.0304 18.5624 18.0479 19.7043C18.2542 19.9103 18.5398 20.029 18.8312 20.0278C19.7822 20.0581 20.3125 18.7929 19.6144 18.1388C16.4687 14.5237 12.9931 11.2146 9.42548 8.01854C13.2227 10.2207 17.2857 12.3332 21.2729 14.4061C21.9244 14.7448 22.823 15.2115 23.8382 15.5386C24.1739 17.8175 23.393 20.2932 21.7916 21.9448L21.7916 21.9471ZM31.1308 4.78634C35.1949 4.84919 39.6134 4.95394 43.9106 5.0552C48.5401 5.16345 53.3128 5.27634 57.6357 5.33803C57.3618 7.0746 56.8653 8.51553 56.1054 9.80747C55.1147 11.4917 53.7732 12.6893 52.328 13.1793C51.0785 13.603 49.6438 13.5564 48.2568 13.5134L30.6879 12.964C31.2334 11.8723 31.5679 10.5 31.6786 8.87285C31.7905 7.21776 31.6063 5.85249 31.1308 4.78518L31.1308 4.78634ZM28.3499 4.77005C29.2112 5.37063 29.5772 6.69982 29.4408 8.72154C29.3406 10.1869 28.914 12.7557 27.1797 13.4924C26.8394 13.6368 26.4769 13.6984 26.0993 13.6984C24.8895 13.6984 23.5305 13.0583 22.3009 12.4181C18.3871 10.3836 14.3987 8.30952 10.6796 6.1586C11.6073 6.29711 12.556 6.44841 13.2554 6.58226C16.6097 7.1037 19.9326 8.00108 23.2589 8.54928C24.4443 8.4585 24.5643 6.62999 23.4093 6.35763C19.6027 5.423 15.781 4.55007 11.9675 3.64338L25.7508 4.22184C26.8429 4.26723 27.7287 4.33591 28.3511 4.77005L28.3499 4.77005Z" fill="#593E37"/>
<path d="M495.228 431.852C494.432 431.82 493.44 431.778 492.6 431.411L492.337 431.296L492.036 431.317C487.437 431.261 482.228 431.139 477.19 431.02L477.087 431.018C472.045 430.898 466.83 430.775 462.17 430.719C462.406 428.283 462.985 426.353 463.991 424.647C465.114 422.739 466.661 421.374 468.35 420.801C469.446 420.43 470.599 420.382 471.481 420.382C471.93 420.382 472.372 420.396 472.801 420.41L491.875 421.006L492.385 421.141L492.816 420.847C493.009 420.717 493.213 420.606 493.425 420.516C493.877 420.325 494.357 420.231 494.894 420.228L496.141 420.224L496.051 418.982C495.875 416.538 496.776 414.041 498.46 412.305C500.077 410.635 502.363 409.679 504.732 409.679C504.841 409.679 504.951 409.681 505.06 409.685L506.409 409.737L506.263 408.396C506.182 407.64 506.266 406.98 506.522 406.377C506.614 406.16 506.729 405.948 506.866 405.751L507.189 405.277L507.011 404.737L506.415 385.754C506.37 384.345 506.32 382.748 506.806 381.322C507.38 379.64 508.747 378.099 510.657 376.982C512.368 375.981 514.302 375.404 516.739 375.167C516.795 379.821 516.918 385.157 517.038 390.319C517.149 395.102 517.274 400.523 517.333 405.105L517.337 405.34L517.431 405.555C517.798 406.393 517.84 407.383 517.874 408.18L518.86 431.624L518.341 432.192L518.65 432.834L495.229 431.85L495.228 431.852Z" fill="#C29961"/>
<path d="M471.652 424.219C470.637 423.453 468.918 424.065 468.616 425.299C468.314 426.532 469.558 427.866 470.812 427.654C472.066 427.443 473.196 425.382 471.652 424.219Z" fill="#593E37"/>
<path d="M512.142 384.796C513.396 384.584 514.527 382.524 512.982 381.36C511.967 380.594 510.248 381.206 509.946 382.44C509.644 383.673 510.888 385.007 512.142 384.796Z" fill="#593E37"/>
<path d="M520.024 431.596L519.037 408.133C519 407.259 518.952 406.126 518.499 405.091C518.44 400.558 518.32 395.344 518.204 390.294C518.084 385.098 517.959 379.725 517.904 375.107C517.901 374.794 517.766 374.497 517.533 374.288C517.299 374.078 516.996 373.973 516.677 374.006C514.043 374.255 511.943 374.882 510.069 375.979C507.918 377.237 506.367 379.003 505.704 380.949C505.15 382.573 505.203 384.284 505.25 385.793L505.847 404.788C505.851 404.895 505.87 404.999 505.903 405.096C505.726 405.356 505.574 405.631 505.45 405.924C505.085 406.782 505.011 407.667 505.105 408.523C502.338 408.417 499.558 409.498 497.622 411.496C495.685 413.493 494.69 416.306 494.888 419.066C494.248 419.068 493.6 419.179 492.968 419.445C492.685 419.565 492.417 419.712 492.164 419.88C492.082 419.859 491.999 419.846 491.911 419.843L472.839 419.247C471.327 419.2 469.611 419.145 467.976 419.7C466.023 420.362 464.251 421.909 462.988 424.058C461.885 425.929 461.256 428.027 461.005 430.658C460.975 430.969 461.077 431.28 461.287 431.513C461.497 431.745 461.794 431.88 462.108 431.884C466.737 431.94 471.984 432.063 477.06 432.183C482.142 432.303 487.397 432.426 492.038 432.482H492.052C492.08 432.482 492.107 432.48 492.134 432.477C493.172 432.93 494.305 432.978 495.179 433.014L518.675 434C518.69 434 518.706 434 518.721 434C519.196 434 519.621 433.701 519.78 433.25C519.88 432.963 519.857 432.656 519.731 432.395C519.925 432.182 520.036 431.897 520.023 431.594L520.024 431.596ZM507.826 381.67C508.316 380.233 509.515 378.898 511.201 377.911C512.495 377.154 513.94 376.66 515.679 376.386C515.741 380.72 515.853 385.607 515.963 390.346C516.061 394.564 516.161 398.9 516.225 402.85C515.157 402.377 513.794 402.194 512.14 402.308C510.512 402.418 509.137 402.752 508.045 403.296L507.493 385.723C507.45 384.34 507.405 382.91 507.827 381.67H507.826ZM507.514 406.799C508.25 405.066 510.823 404.641 512.29 404.541C512.566 404.523 512.829 404.513 513.079 404.513C514.664 404.513 515.728 404.888 516.247 405.631C516.26 405.649 516.271 405.669 516.284 405.688C516.322 405.873 516.406 406.043 516.522 406.181C516.716 406.736 516.763 407.425 516.797 408.226L517.33 420.886C516.333 417.571 515.503 414.19 514.426 410.939C513.682 409.858 511.868 410.765 512.262 412.016C513.318 415.966 514.397 419.911 515.529 423.84C515.69 424.257 515.826 424.69 515.953 425.131C513.407 420.91 510.971 416.24 508.585 411.663C507.748 410.057 506.907 408.225 507.514 406.797V406.799ZM499.233 413.053C500.866 411.37 503.382 410.511 505.71 410.821C506.002 411.558 506.342 412.211 506.607 412.72C508.78 416.887 510.998 421.137 513.315 425.081C510.832 423.172 508.506 421.087 506.111 418.646C505.038 417.555 503.994 416.438 502.976 415.296C502.77 415.09 502.485 414.971 502.193 414.972C501.242 414.942 500.712 416.207 501.41 416.861C504.556 420.476 508.031 423.785 511.599 426.981C507.802 424.779 503.739 422.667 499.752 420.594C499.1 420.255 498.201 419.788 497.186 419.461C496.851 417.182 497.631 414.707 499.233 413.055V413.053ZM489.894 430.214C485.829 430.151 481.411 430.046 477.114 429.945C472.484 429.837 467.712 429.724 463.389 429.662C463.663 427.925 464.159 426.484 464.919 425.193C465.91 423.508 467.251 422.311 468.696 421.821C469.946 421.397 471.381 421.444 472.768 421.487L490.336 422.036C489.791 423.128 489.457 424.5 489.346 426.127C489.234 427.782 489.418 429.148 489.894 430.215V430.214ZM492.675 430.23C491.813 429.629 491.447 428.3 491.584 426.278C491.684 424.813 492.11 422.244 493.845 421.508C494.185 421.363 494.547 421.302 494.925 421.302C496.135 421.302 497.494 421.942 498.724 422.582C502.637 424.616 506.626 426.69 510.345 428.841C509.417 428.703 508.468 428.552 507.769 428.418C504.415 427.896 501.092 426.999 497.765 426.451C496.58 426.542 496.46 428.37 497.615 428.642C501.422 429.577 505.243 430.45 509.057 431.357L495.274 430.778C494.182 430.733 493.296 430.664 492.673 430.23H492.675Z" fill="#593E37"/>
<path d="M516.852 24.7964C516.82 25.5924 516.778 26.5843 516.411 27.4246L516.296 27.688L516.317 27.9887C516.261 32.5878 516.139 37.7965 516.02 42.835L516.018 42.9376C515.898 47.9796 515.775 53.1941 515.719 57.855C513.283 57.6184 511.353 57.0391 509.647 56.0333C507.739 54.9109 506.374 53.3631 505.801 51.6743C505.43 50.5787 505.382 49.426 505.382 48.5437C505.382 48.095 505.396 47.6521 505.41 47.2232L506.006 28.1496L506.141 27.6391L505.847 27.209C505.717 27.0155 505.606 26.8116 505.516 26.5994C505.325 26.1472 505.231 25.667 505.228 25.1309L505.224 23.8838L503.982 23.9735C501.538 24.1495 499.041 23.2486 497.305 21.5644C495.635 19.9479 494.679 17.6611 494.679 15.2928C494.679 15.1833 494.681 15.0737 494.685 14.9641L494.737 13.6156L493.396 13.7613C492.64 13.8429 491.98 13.759 491.377 13.5026C491.16 13.4105 490.948 13.2951 490.751 13.1588L490.277 12.8359L489.737 13.0131L470.754 13.6098C469.345 13.6541 467.748 13.7042 466.322 13.2182C464.64 12.6448 463.099 11.2776 461.982 9.36735C460.981 7.65638 460.404 5.72279 460.167 3.28571C464.821 3.22976 470.157 3.10622 475.319 2.98618C480.102 2.87545 485.523 2.75074 490.105 2.6913L490.34 2.68781L490.555 2.5934C491.393 2.22626 492.383 2.1843 493.18 2.1505L516.624 1.16448L517.192 1.68313L517.834 1.37427L516.85 24.7952L516.852 24.7964Z" fill="#C29961"/>
<path d="M509.218 48.3722C508.453 49.3873 509.065 51.1065 510.299 51.4083C511.532 51.7102 512.866 50.4666 512.654 49.2125C512.442 47.9584 510.382 46.8279 509.218 48.3722Z" fill="#593E37"/>
<path d="M469.795 7.88243C469.584 6.62834 467.523 5.4978 466.36 7.0421C465.594 8.05726 466.206 9.77639 467.44 10.0783C468.673 10.3801 470.007 9.13652 469.795 7.88243Z" fill="#593E37"/>
<path d="M516.596 -3.04898e-06L493.133 0.987187C492.259 1.02448 491.126 1.07227 490.091 1.52565C485.558 1.58393 480.344 1.70398 475.294 1.82053C470.098 1.94058 464.725 2.06528 460.107 2.12006C459.794 2.12356 459.497 2.25876 459.288 2.49186C459.078 2.72496 458.973 3.028 459.006 3.34735C459.255 5.9814 459.882 8.08166 460.979 9.9558C462.237 12.1062 464.003 13.6575 465.949 14.3206C467.573 14.8743 469.284 14.8218 470.793 14.774L489.788 14.1773C489.895 14.1738 489.999 14.154 490.096 14.1213C490.356 14.2985 490.631 14.45 490.924 14.5747C491.782 14.9395 492.667 15.013 493.523 14.9197C493.417 17.6866 494.498 20.4664 496.496 22.4023C498.493 24.3394 501.306 25.3347 504.066 25.1366C504.068 25.7765 504.179 26.4245 504.445 27.0562C504.565 27.3394 504.712 27.6075 504.88 27.8604C504.859 27.942 504.846 28.0259 504.843 28.1133L504.247 47.1857C504.2 48.6974 504.145 50.4131 504.7 52.0483C505.362 54.0017 506.909 55.7732 509.058 57.0367C510.929 58.1392 513.027 58.7686 515.658 59.0192C515.969 59.0495 516.28 58.9469 516.513 58.7371C516.745 58.5273 516.88 58.2301 516.884 57.9166C516.94 53.2872 517.063 48.0401 517.183 42.9643C517.303 37.8826 517.426 32.6273 517.482 27.9863L517.482 27.9723C517.482 27.9443 517.48 27.9175 517.477 27.8907C517.93 26.8522 517.978 25.7193 518.014 24.8452L519 1.34966C519 1.33451 519 1.31819 519 1.30304C519 0.828679 518.701 0.403264 518.25 0.244756C517.963 0.144521 517.656 0.167832 517.395 0.29371C517.182 0.0990685 516.897 -0.0116569 516.594 0.00116425L516.596 -3.04898e-06ZM466.67 12.1982C465.233 11.7087 463.898 10.5094 462.911 8.82292C462.154 7.52921 461.66 6.08397 461.386 4.34502C465.72 4.28325 470.607 4.17136 475.346 4.06181C479.564 3.9639 483.9 3.86367 487.85 3.79956C487.377 4.86718 487.194 6.23083 487.308 7.88469C487.418 9.51291 487.752 10.887 488.296 11.9791L470.723 12.5316C469.34 12.5747 467.91 12.619 466.67 12.1971L466.67 12.1982ZM491.799 12.5106C490.066 11.774 489.641 9.20171 489.541 7.73434C489.523 7.45811 489.513 7.19587 489.513 6.94529C489.513 5.36019 489.888 4.29607 490.631 3.77742C490.649 3.7646 490.669 3.75295 490.688 3.74013C490.873 3.70283 491.043 3.61891 491.181 3.50236C491.736 3.30889 492.425 3.2611 493.226 3.2273L505.886 2.69466C502.571 3.69118 499.19 4.52102 495.939 5.59795C494.858 6.34271 495.765 8.15625 497.016 7.76231C500.966 6.70635 504.911 5.62709 508.84 4.49538C509.257 4.33454 509.69 4.19817 510.131 4.07113C505.91 6.61778 501.24 9.0537 496.663 11.4395C495.057 12.2763 493.225 13.1178 491.797 12.5106L491.799 12.5106ZM498.053 20.7916C496.37 19.1587 495.511 16.6423 495.821 14.3148C496.558 14.0223 497.211 13.6819 497.72 13.4174C501.887 11.2449 506.137 9.02689 510.081 6.70985C508.172 9.19239 506.087 11.5188 503.646 13.9139C502.555 14.9861 501.438 16.0304 500.296 17.0479C500.09 17.2542 499.971 17.5398 499.972 17.8312C499.942 18.7822 501.207 19.3125 501.861 18.6144C505.476 15.4687 508.785 11.9931 511.981 8.42548C509.779 12.2227 507.667 16.2857 505.594 20.2729C505.255 20.9244 504.788 21.823 504.461 22.8382C502.182 23.1739 499.707 22.393 498.055 20.7916L498.053 20.7916ZM515.214 30.1308C515.151 34.195 515.046 38.6134 514.945 42.9107C514.837 47.5401 514.724 52.3128 514.662 56.6357C512.925 56.3618 511.484 55.8653 510.193 55.1054C508.508 54.1147 507.311 52.7732 506.821 51.328C506.397 50.0786 506.444 48.6438 506.487 47.2568L507.036 29.6879C508.128 30.2334 509.5 30.5679 511.127 30.6786C512.782 30.7905 514.148 30.6063 515.215 30.1308L515.214 30.1308ZM515.23 27.3499C514.629 28.2112 513.3 28.5772 511.278 28.4408C509.813 28.3406 507.244 27.914 506.508 26.1797C506.363 25.8394 506.302 25.4769 506.302 25.0993C506.302 23.8895 506.942 22.5305 507.582 21.3009C509.616 17.3871 511.69 13.3987 513.841 9.67958C513.703 10.6073 513.552 11.5561 513.418 12.2554C512.896 15.6097 511.999 18.9326 511.451 22.2589C511.542 23.4443 513.37 23.5643 513.642 22.4093C514.577 18.6027 515.45 14.781 516.357 10.9675L515.778 24.7508C515.733 25.8429 515.664 26.7287 515.23 27.3511L515.23 27.3499Z" fill="#593E37"/>
<path d="M2.14739 409.228C2.17997 408.432 2.22187 407.44 2.58851 406.6L2.70374 406.336L2.68278 406.036C2.73865 401.437 2.86086 396.228 2.97959 391.189L2.98191 391.087C3.10179 386.045 3.22517 380.83 3.28104 376.169C5.71711 376.406 7.64688 376.985 9.35318 377.991C11.2608 379.114 12.6261 380.661 13.1988 382.35C13.5701 383.446 13.6178 384.598 13.6178 385.481C13.6178 385.929 13.6038 386.372 13.5898 386.801L12.9939 405.875L12.8589 406.385L13.1534 406.815C13.2826 407.009 13.3943 407.213 13.4839 407.425C13.6748 407.877 13.7691 408.357 13.7714 408.894L13.7761 410.141L15.018 410.051C17.4622 409.875 19.9588 410.776 21.6953 412.46C23.3644 414.077 24.3211 416.363 24.3211 418.732C24.3211 418.841 24.3188 418.951 24.3153 419.06L24.2629 420.409L25.6038 420.263C26.3603 420.181 27.0203 420.265 27.6232 420.522C27.8397 420.614 28.0515 420.729 28.2493 420.866L28.7231 421.188L29.2631 421.011L48.2454 420.415C49.6549 420.37 51.2518 420.32 52.6776 420.806C54.3595 421.38 55.9005 422.747 57.0178 424.657C58.0188 426.368 58.5961 428.302 58.8324 430.739C54.1791 430.795 48.8425 430.918 43.6805 431.038C38.898 431.149 33.4765 431.274 28.8953 431.333L28.6602 431.337L28.4449 431.431C27.6069 431.798 26.6164 431.84 25.8203 431.874L2.37551 432.86L1.80752 432.341L1.1662 432.65L2.14971 409.229L2.14739 409.228Z" fill="#C29961"/>
<path d="M9.78149 385.652C10.5473 384.637 9.93513 382.918 8.70138 382.616C7.46763 382.314 6.13378 383.558 6.34561 384.812C6.55744 386.066 8.61757 387.197 9.78149 385.652Z" fill="#593E37"/>
<path d="M49.2045 426.142C49.4163 427.396 51.4765 428.527 52.6404 426.982C53.4062 425.967 52.794 424.248 51.5603 423.946C50.3265 423.644 48.9927 424.888 49.2045 426.142Z" fill="#593E37"/>
<path d="M2.40348 434.024L25.8669 433.037C26.741 433 27.8734 432.952 28.9093 432.499C33.4416 432.44 38.656 432.32 43.7062 432.204C48.9019 432.084 54.2745 431.959 58.893 431.904C59.206 431.901 59.5028 431.766 59.7123 431.533C59.9219 431.299 60.0266 430.996 59.994 430.677C59.7449 428.043 59.1176 425.943 58.0212 424.069C56.763 421.918 54.9973 420.367 53.0513 419.704C51.4264 419.15 49.7155 419.203 48.207 419.25L29.2119 419.847C29.1049 419.851 29.0013 419.87 28.9035 419.903C28.644 419.726 28.3693 419.574 28.076 419.45C27.2182 419.085 26.3324 419.011 25.4769 419.105C25.5829 416.338 24.5016 413.558 22.5043 411.622C20.507 409.685 17.6938 408.69 14.9342 408.888C14.9319 408.248 14.8213 407.6 14.5548 406.968C14.4349 406.685 14.2882 406.417 14.1195 406.164C14.1404 406.082 14.1544 405.999 14.1567 405.911L14.7526 386.839C14.8003 385.327 14.8551 383.611 14.2999 381.976C13.6376 380.023 12.0908 378.251 9.94217 376.988C8.07059 375.885 5.97321 375.256 3.3416 375.005C3.03083 374.975 2.72007 375.077 2.48729 375.287C2.25451 375.497 2.11949 375.794 2.116 376.108C2.06013 380.737 1.93675 385.984 1.81687 391.06C1.69699 396.142 1.57361 401.397 1.51774 406.038L1.51774 406.052C1.51774 406.08 1.52007 406.107 1.5224 406.134C1.06963 407.172 1.02192 408.305 0.985833 409.179L-5.13956e-06 432.675C-5.14091e-06 432.69 -5.14236e-06 432.706 -5.14371e-06 432.721C-5.18599e-06 433.196 0.29912 433.621 0.749556 433.78C1.03704 433.88 1.34432 433.857 1.60504 433.731C1.81803 433.925 2.10319 434.036 2.40581 434.023L2.40348 434.024ZM52.3296 421.826C53.7671 422.316 55.1021 423.515 56.0891 425.201C56.8456 426.495 57.3403 427.94 57.6138 429.679C53.2794 429.741 48.3933 429.853 43.6538 429.963C39.4358 430.061 35.1002 430.161 31.1499 430.225C31.6224 429.157 31.8063 427.794 31.6922 426.14C31.5817 424.512 31.2476 423.137 30.7041 422.045L48.2769 421.493C49.6596 421.45 51.0901 421.405 52.3296 421.827L52.3296 421.826ZM27.2007 421.514C28.9338 422.25 29.3586 424.823 29.4587 426.29C29.4773 426.566 29.4866 426.829 29.4866 427.079C29.4866 428.664 29.1118 429.728 28.3693 430.247C28.3506 430.26 28.3309 430.271 28.3122 430.284C28.1272 430.322 27.9572 430.405 27.8187 430.522C27.2636 430.716 26.5745 430.763 25.7737 430.797L13.1138 431.33C16.4287 430.333 19.8098 429.503 23.0607 428.426C24.1419 427.682 23.2352 425.868 21.984 426.262C18.0337 427.318 14.0892 428.397 10.1598 429.529C9.74313 429.69 9.31016 429.826 8.86903 429.953C13.0894 427.407 17.7602 424.971 22.3367 422.585C23.9429 421.748 25.7749 420.907 27.203 421.514L27.2007 421.514ZM20.947 413.233C22.63 414.866 23.489 417.382 23.1794 419.71C22.4414 420.002 21.7885 420.342 21.2799 420.607C17.113 422.78 12.8624 424.998 8.91908 427.315C10.8279 424.832 12.9125 422.506 15.3544 420.111C16.445 419.038 17.5623 417.994 18.7041 416.976C18.9101 416.77 19.0289 416.485 19.0277 416.193C19.0579 415.242 17.7928 414.712 17.1387 415.41C13.5235 418.556 10.2145 422.031 7.01841 425.599C9.22053 421.802 11.333 417.739 13.406 413.751C13.7447 413.1 14.2114 412.201 14.5385 411.186C16.8174 410.851 19.2931 411.631 20.9447 413.233L20.947 413.233ZM3.78621 403.894C3.84907 399.829 3.95382 395.411 4.05508 391.114C4.16333 386.484 4.27622 381.712 4.33791 377.389C6.07447 377.663 7.5154 378.159 8.80735 378.919C10.4915 379.91 11.6892 381.251 12.1792 382.696C12.6029 383.946 12.5563 385.381 12.5133 386.768L11.9639 404.336C10.8721 403.791 9.49988 403.457 7.87272 403.346C6.21764 403.234 4.85236 403.418 3.78505 403.894L3.78621 403.894ZM3.76992 406.675C4.3705 405.813 5.69969 405.447 7.72141 405.584C9.18678 405.684 11.7555 406.11 12.4923 407.845C12.6366 408.185 12.6983 408.547 12.6983 408.925C12.6983 410.135 12.0582 411.494 11.418 412.724C9.38348 416.637 7.30939 420.626 5.15847 424.345C5.29698 423.417 5.44828 422.468 5.58213 421.769C6.10357 418.415 7.00095 415.092 7.54915 411.765C7.45837 410.58 5.62986 410.46 5.3575 411.615C4.42287 415.422 3.54994 419.243 2.64325 423.057L3.22171 409.274C3.26711 408.182 3.33578 407.296 3.76992 406.673L3.76992 406.675Z" fill="#593E37"/>
</svg>
