<svg width="1374" height="1232" viewBox="0 0 1374 1232" fill="none" xmlns="http://www.w3.org/2000/svg">
<path fill-rule="evenodd" clip-rule="evenodd" d="M97.5206 0H189.706C194.324 3.49729 198.807 7.2636 202.932 11.568C203.246 11.8818 310.497 17.5313 325.741 0H509.932C519.527 8.29485 539.569 19.549 551.944 6.63588C590.19 15.0652 612.519 9.95382 627.898 0H716.451C719.276 5.11142 724.387 10.2677 732.996 15.2446C780.837 -12.375 804.332 19.549 804.646 19.549C806.977 12.2854 809.129 5.64947 811.102 0H1242.7C1239.74 40.0395 1252.3 2.46604 1302.43 4.61822C1302.43 4.61822 1302.74 4.30436 1303.41 3.94566C1343.63 16.0068 1373.09 53.4458 1373.09 97.2964V438.013C1346.95 477.38 1328.57 532.171 1330.72 535.668C1406.49 656.325 1319.64 625.522 1373.09 715.554V850.788C1315.83 893.472 1237.41 958.531 1274.31 969.292C1370.13 997.091 1284.09 1000.41 1373.09 1019.91V1134.15C1373.09 1187.78 1329.24 1231.63 1275.79 1231.63H706.677C692.957 1202.35 666.637 1175.05 651.393 1185.81C634.848 1197.73 633.368 1183.65 625.073 1192.26C580.057 1239.12 548.805 1208.63 502.937 1214.77C431.601 1224.19 442.183 1224.37 442.542 1231.63H97.5206C43.8955 1231.63 0.044837 1187.78 0.044837 1134.15V1128.86C36.6319 1111.47 6.99458 1098.42 6.81523 1096.09C6.32202 1089.81 3.85599 1086 0.044837 1083.85V1002.6L5.82882 1000.76C24.7052 995.294 29.3234 969.333 26.9919 967.36C11.7473 953.774 13.2113 921.727 13.0924 921.537C6.81523 911.5 6.81523 920.5 6.81523 904.812C4.34919 904.14 2.01767 903.647 0.044837 902.974V661.929C44.2093 633.951 38.1115 586.289 38.1115 549.747C-16.1862 505.896 44.3887 455.41 29.3234 445.815C-11.2093 419.675 52.011 416.177 35.6006 393.669C-38.6944 292.248 66.852 385.733 47.1686 328.476C28.6509 324.665 54.7909 296.687 55.1047 296.373C65.1931 289.244 47.6618 249.384 0 229.835V97.2964C0.044837 43.6713 43.8955 0 97.5206 0Z" fill="#FFD8A8"/>
</svg>
