<?xml version="1.0" encoding="UTF-8"?>
<svg xmlns="http://www.w3.org/2000/svg" version="1.1" xmlns:xlink="http://www.w3.org/1999/xlink" viewBox="0 0 1920 1080">
  <defs>
    <style>
      .cls-1, .cls-2, .cls-3 {
        stroke-width: 0px;
      }

      .cls-1, .cls-3 {
        fill-rule: evenodd;
      }

      .cls-1, .cls-4 {
        fill: #fff;
      }

      .cls-2 {
        fill: none;
      }

      .cls-3 {
        fill: #b3ce4a;
      }

      .cls-4 {
        font-family: CrunchChipsRegular, 'Crunch Chips';
        font-size: 132.78px;
      }

      .cls-5 {
        clip-path: url(#clippath);
      }
    </style>
    <clipPath id="clippath">
      <path class="cls-2" d="M328.19,162.92v868.08h571.31V162.92H328.19ZM442.43,831.67c-15.3,12.54-31.28,24.08-47.76,34.43,3.34-16.57,5.9-33.51,8.29-52.07,17.34-12.5,33.71-26.48,48.87-41.56-2.7,21.59-5.64,41-9.4,59.2Z"/>
    </clipPath>
  </defs>
  <g id="U">
    <path class="cls-1" d="M832.58,696.1c-18.74,28.88-53.35,58.32-55.37,127.87-1.49,51.56,65.2,63.09,48.92-20.84,64.85,125.83-70.96,163.53-81.34,68.81-8.46-77.1,49.51-146.04,87.79-175.84h0ZM832.58,696.1"/>
  </g>
  <g id="LINES">
    <path class="cls-3" d="M1027.91,246.71h679.5c35.95,0,93.5-2.97,119.77-46.16-43.16,81.47-91.52,79.6-206.13,79.6h-620.1c9.98-11.53,18.95-22.73,26.95-33.45h0ZM1027.91,246.71"/>
    <path class="cls-3" d="M1807.7,110.41c25.91-4.4,56.64,43.52,12.56,102.44-.24.37-7.12,4.81-7.12,4.81,48.34-63.17,19.72-98.99,1.94-106.47-2.83-1.2-5.58.25-7.38-.78h0ZM1807.7,110.41"/>
    <path class="cls-3" d="M535.79,933.19c-8.92,0-16.14-7.23-16.14-16.14,0-14.39,17.38-21.58,27.55-11.42,10.16,10.16,2.96,27.55-11.42,27.55h0ZM535.79,933.19"/>
    <path class="cls-3" d="M1810.79,142.19c-8.92,0-16.14-7.23-16.14-16.14,0-14.39,17.38-21.58,27.55-11.42,10.16,10.16,2.96,27.55-11.42,27.55h0ZM1810.79,142.19"/>
    <path class="cls-3" d="M537.83,933.07c-25.91,4.4-56.64-43.52-12.56-102.44.25-.39,7.13-4.81,7.13-4.81-48.35,63.17-19.74,98.99-1.95,106.47,2.83,1.19,5.58-.25,7.38.78h0ZM537.83,933.07"/>
    <path class="cls-3" d="M1823.74,796.77H638.12c-35.96,0-93.5,2.97-119.78,46.16,43.16-81.47,91.52-79.6,206.13-79.6h1098.72c.17,10.4.28,21.79.54,33.45h0ZM1823.74,796.77"/>
  </g>
  <g id="A">
    <path class="cls-3" d="M837.7,433.93c-16.57.35-93.94-2.68-110.51-2.34-46.61.95-62.5,23.34-75.93,45.66,16.78-37.27,20.11-48.69,33.19-65.69,16.54-21.47,26.84-23.38,45.6-21.44,48.91,5.07,129.66,14.07,169.24-19.23-29.77,72.53-26.73,153.33-26.73,230.35,40.24,47.62,29.84,38.83,64.05,30.25-28.91,16.85-35.97,24.26-52.78,46.53-14.08-30.87-35.26-49.46-58.75-68.64,15.99-67.87,13.68-96.45,12.6-175.44h0ZM837.7,433.93"/>
  </g>
  <g id="A-2" data-name="A">
    <path class="cls-3" d="M691.41,610.02c6.67-29.85,6.47-41.93,8.51-60.47,2.3-21.03-2.23-15.05-35.72.18,32.5-24.96,59.45-40.21,83.61-62.41-15.52,50.19-18.41,77.51-16.82,107.21,8.64,7.47,22.26,19.99,34.69,27.97,13.97,8.96,26.51-1.45,58.25-23.09-30.58,23.47-47.88,38.05-74.02,77.79-.31-29.77-17.98-42.25-58.5-67.19h0ZM691.41,610.02"/>
  </g>
  <g id="_." data-name=".">
    <path class="cls-3" d="M1845.52,295.91c13.96,0,25.26,11.32,25.26,25.26,0,10.23-6.15,19.45-15.59,23.35-9.45,3.91-20.31,1.75-27.54-5.49-7.23-7.21-9.39-18.09-5.48-27.52,3.92-9.45,13.13-15.6,23.35-15.6h0ZM1845.52,295.91"/>
  </g>
  <g id="_.b" data-name=".b">
    <path class="cls-3" d="M1121.79,650.04c.03,9.17,15.36,18.34,22.54,25.53,8.57,8.57,8.57,22.55,0,31.13-7.19,7.18-14.36,14.36-21.55,21.55-9.66-24.13-27.01-31.98-37.11-37.12,26.3-15.14,20.34-30.71,36.12-41.09h0ZM1121.79,650.04"/>
  </g>
  <g id="N">
    <path class="cls-3" d="M1846.48,897.01c-19.85-22.75-15.51-118.11-17.74-160.79-4.3-82.49-6.1-211.27,17.78-302.3-16.56.35-38.55.56-55.12.89-46.61.95-62.51,23.32-75.93,45.66,16.78-37.28,20.75-55.09,33.83-72.08,16.54-21.48,26.2-17,44.96-15.06,48.91,5.06,74.28,10.85,113.86-22.46-33.99,82.83-43.98,159.42-37.19,253.51,2.26,31.35,15.63,43.05,33.31,51.37-55.35,7.19-65.51,64.46-70.89,117.5-1.2,55.33,33.43,70.8,38.22,84.55,7.61,21.86-10.63,35.77-25.08,19.22h0ZM1846.48,897.01"/>
  </g>
  <g id="N-2" data-name="N">
    <path class="cls-3" d="M1659.47,607.63c13.8-30.96,19.23-102.1,16.99-148.94-.91-18.89-15.35-14.81-34.41-7.69,32.49-24.97,63.17-48.1,88.59-80.65-16.08,66.37-23.7,161.62-23.7,229.15,40.24,47.64,29.85,38.85,64.05,30.25-28.89,16.86-35.96,24.27-52.78,46.55-14.07-30.89-35.26-49.47-58.75-68.66h0ZM1659.47,607.63"/>
  </g>
  <g id="Layer_1" data-name="Layer 1">
    <path class="cls-3" d="M1564.05,433.93c-16.55.35-93.94-2.68-110.49-2.34-46.62.95-62.52,23.34-75.95,45.66,16.79-37.27,20.11-48.69,33.21-65.69,16.54-21.47,26.84-23.38,45.6-21.44,48.9,5.07,129.64,14.07,169.23-19.23-29.77,72.53-26.73,153.33-26.73,230.35,40.24,47.62,29.86,38.83,64.05,30.25-28.89,16.85-35.95,24.26-52.77,46.53-14.07-30.87-35.26-49.46-58.75-68.64,16-67.87,13.69-96.45,12.6-175.44h0ZM1564.05,433.93"/>
    <path class="cls-3" d="M1417.77,610.02c6.66-29.85,6.48-41.93,8.5-60.47,2.32-21.03-2.23-15.05-35.72.18,32.5-24.96,59.45-40.21,83.62-62.41-15.52,50.19-18.42,77.51-16.82,107.21,8.64,7.47,22.25,19.99,34.67,27.97,13.97,8.96,26.51-1.45,58.26-23.09-30.6,23.47-47.88,38.05-74.04,77.79-.31-29.77-17.96-42.25-58.48-67.19h0ZM1417.77,610.02"/>
    <path class="cls-3" d="M1312.7,433.93c-16.56.35-93.92-2.68-110.49-2.34-46.61.95-62.5,23.34-75.93,45.66,16.78-37.27,20.11-48.69,33.19-65.69,16.54-21.47,26.84-23.38,45.6-21.44,48.91,5.07,129.66,14.07,169.23-19.23-29.76,72.53-26.72,153.33-26.72,230.35,40.24,47.62,29.84,38.83,64.06,30.25-28.91,16.85-35.97,24.26-52.77,46.53-14.09-30.87-35.26-49.46-58.75-68.64,16-67.87,13.68-96.45,12.59-175.44h0ZM1312.7,433.93"/>
    <path class="cls-3" d="M1166.42,610.02c6.67-29.85,6.48-41.93,8.51-60.47,2.3-21.03-2.23-15.05-35.72.18,32.5-24.96,59.43-40.21,83.61-62.41-15.52,50.19-18.41,77.51-16.82,107.21,8.64,7.47,22.27,19.99,34.69,27.97,13.98,8.96,26.51-1.45,58.25-23.09-30.59,23.47-47.87,38.05-74.03,77.79-.29-29.77-17.96-42.25-58.48-67.19h0ZM1166.42,610.02"/>
    <path class="cls-3" d="M837.7,433.93c-16.57.35-93.94-2.68-110.51-2.34-46.61.95-62.5,23.34-75.93,45.66,16.78-37.27,20.11-48.69,33.19-65.69,16.54-21.47,26.84-23.38,45.6-21.44,48.91,5.07,129.66,14.07,169.24-19.23-29.77,72.53-26.73,153.33-26.73,230.35,40.24,47.62,29.84,38.83,64.05,30.25-28.91,16.85-35.97,24.26-52.78,46.53-14.08-30.87-35.26-49.46-58.75-68.64,15.99-67.87,13.68-96.45,12.6-175.44h0ZM837.7,433.93"/>
    <path class="cls-3" d="M691.41,610.02c6.67-29.85,6.47-41.93,8.51-60.47,2.3-21.03-2.23-15.05-35.72.18,32.5-24.96,59.45-40.21,83.61-62.41-15.52,50.19-18.41,77.51-16.82,107.21,8.64,7.47,22.26,19.99,34.69,27.97,13.97,8.96,26.51-1.45,58.25-23.09-30.58,23.47-47.88,38.05-74.02,77.79-.31-29.77-17.98-42.25-58.5-67.19h0ZM691.41,610.02"/>
  </g>
  <g id="Z">
    <path class="cls-3" d="M360.3,156.08c75.29,1.95,185.09,3.43,211.06-25.17l-80.44,64.92c-130.48-8.04-197.98-14.17-260.82,67.96,61.9-86.63,63.47-109.45,130.2-107.72h0ZM360.3,156.08"/>
    <path class="cls-3" d="M228.03,401.35h8.18l254.71-205.52h-8.19l-254.69,205.52ZM228.03,401.35"/>
    <path class="cls-3" d="M268.9,407.34c56.62-29.77,115.73-60.41,157.66-87.72v2.08c-42.52,26.65-106.63,62.25-157.66,91.3v-5.66ZM268.9,407.34"/>
    <path class="cls-3" d="M477.5,383.54c-71.47-33.33-174.33-10.71-249.47,17.81,46.05-37.16,160.55-67.17,249.47-44.28v26.46ZM477.5,383.54"/>
    <path class="cls-3" d="M360.3,156.08c75.29,1.95,185.09,3.43,211.06-25.17l-80.44,64.92c-130.48-8.04-197.98-14.17-260.82,67.96,61.9-86.63,63.47-109.45,130.2-107.72h0ZM360.3,156.08"/>
    <path class="cls-3" d="M228.03,401.35h8.18l254.71-205.52h-8.19l-254.69,205.52ZM228.03,401.35"/>
    <path class="cls-3" d="M477.5,383.54c-71.47-33.33-174.33-10.71-249.47,17.81,46.05-37.16,160.55-67.17,249.47-44.28v26.46ZM477.5,383.54"/>
    <g>
      <path class="cls-1" d="M673.08,280.22c-56.1,1.44-133.73,8.33-177.48,196.48-69.85,300.28-6.38,389.83-165.42,552.3,102.78-181.83,50-196.24,127.59-552.96,29.82-137.03,75.51-222.57,186.48-229.43,40.02-30.67,63.65-59.92,100.01-81.7-10.94,38.33,14.65,51.87,27.8,68.11,3.79,4.68,6.52,9.24,8.25,13.68h68.72c23.55,0,75.87,20.44,30.64,78.82,22.73-41.64-15.02-45.38-66.91-45.38-13.29,0-26.59-.09-39.89-.2h0c-1.54,1.58-3.24,3.13-5.11,4.65-19.7,15.85-44.02,24.13-66.26,57.87-3.68-22.58-14.98-43.99-28.43-62.25h.01ZM700.92,223.54c4.66-6.03,9.6-12.09,13.85-18.08-6.73,21.85,9.36,34.65,18.97,51.35,2.47,4.3,2.35,9.27-.35,13.43-6.08,9.35-11.22,20.3-17.29,29.65,11.85-29.73-3.14-45.17-15.13-60.56-3.67-4.69-3.69-11.07-.04-15.79h0ZM700.92,223.54"/>
      <path class="cls-3" d="M576.64,430.05c109.74,209.78-154.06,509.19-379.33,492.41-238.5-17.77-231.09-318.51-65.8-436.37,73.77-52.62,245.54-127.49,318.71-182.98,32.31-34.85,25.43-62.06,45.58-59.71,7.29,7.02,8.93,27.96-44.97,62.35-48.57,33.99-166.38,97.23-226.3,132.92-275.64,164.16-163.94,404.81-55.71,430.59,199.69,47.57,395.62-168.67,392.15-328.53-4.73-218.25-207.53-187-332.94-139.39,67.85-54.76,284.4-94.04,348.6,28.7h0ZM576.64,430.05"/>
      <g class="cls-5">
        <path class="cls-1" d="M673.08,280.22c-56.1,1.44-133.73,8.33-177.48,196.48-69.85,300.28-6.38,389.83-165.42,552.3,102.78-181.83,50-196.24,127.59-552.96,29.82-137.03,75.51-222.57,186.48-229.43,40.02-30.67,63.65-59.92,100.01-81.7-10.94,38.33,14.65,51.87,27.8,68.11,3.79,4.68,6.52,9.24,8.25,13.68h68.72c23.55,0,75.87,20.44,30.64,78.82,22.73-41.64-15.02-45.38-66.91-45.38-13.29,0-26.59-.09-39.89-.2h0c-1.54,1.58-3.24,3.13-5.11,4.65-19.7,15.85-44.02,24.13-66.26,57.87-3.68-22.58-14.98-43.99-28.43-62.25h.01ZM700.92,223.54c4.66-6.03,9.6-12.09,13.85-18.08-6.73,21.85,9.36,34.65,18.97,51.35,2.47,4.3,2.35,9.27-.35,13.43-6.08,9.35-11.22,20.3-17.29,29.65,11.85-29.73-3.14-45.17-15.13-60.56-3.67-4.69-3.69-11.07-.04-15.79h0ZM700.92,223.54"/>
      </g>
    </g>
  </g>
  <g id="Layer_5" data-name="Layer 5">
    <path class="cls-3" d="M450.83,305.75c53.9-34.39,52.26-55.33,44.97-62.35-20.15-2.35-13.27,24.86-45.58,59.71-19.55,14.82-46.13,31.03-76.01,47.82,1.43-.15,2.86-.28,4.3-.41,29.05-16.92,55.06-32.7,72.32-44.78Z"/>
  </g>
  <g id="M">
    <path class="cls-1" d="M934.83,120.9c-120.9,74.4,16.99,92.64-55.15,204.63,105.27-107.58-7.93-140.82,55.15-204.63h0ZM934.83,120.9"/>
  </g>
  <g id="B">
    <path class="cls-3" d="M1054.52,648.38c51.5-65.74,9.14-155.12,40.05-227.19-16.57.35-21.37.24-37.92.58-46.61.95-58.33,26.99-71.76,49.33,16.78-37.28,24.34-52.93,37.42-69.93,16.54-21.47,48.31-18.56,67.11-17.11,9.65.74,38.08,2.61,62.1-16.02-70.88,123.3,15.2,205.03-96.99,280.36h0ZM1054.52,648.38"/>
  </g>
  <g id="B-2" data-name="B">
    <path class="cls-3" d="M1015.28,677.56c-2.89-16.37-51.11-53.02-82.68-69.79,37.57-80.66,30.9-481.06,126.18-515.05,18.3-6.52,78.08,29.87-29.66,154.19,74.45-103.26,46.57-178.68,19.42-144.72-42.59,53.26-60.72,317.46-78.35,486.61,17.21,24.94,69.3,66.71,91.02,54.9-23.55,16.11-26.3,19.26-45.92,33.86h0ZM1015.28,677.56"/>
    <text class="cls-4" transform="translate(860.33 915.82)"><tspan x="0" y="0">Rdu for U</tspan></text>
  </g>
</svg>