<?xml version="1.0" encoding="UTF-8"?>
<svg id="Layer_1" data-name="Layer 1" xmlns="http://www.w3.org/2000/svg" version="1.1" xmlns:xlink="http://www.w3.org/1999/xlink" viewBox="0 0 1920 1080">
  <defs>
    <style>
      .cls-1, .cls-2, .cls-3, .cls-4 {
        stroke-width: 0px;
      }

      .cls-1, .cls-3 {
        fill-rule: evenodd;
      }

      .cls-1, .cls-4 {
        fill: #fff;
      }

      .cls-5 {
        isolation: isolate;
      }

      .cls-2 {
        fill: none;
      }

      .cls-3 {
        fill: #b3ce4a;
      }

      .cls-6 {
        clip-path: url(#clippath);
      }
    </style>
    <clipPath id="clippath">
      <path class="cls-2" d="M328.19,162.92v868.08h571.31V162.92H328.19ZM442.43,831.67c-15.3,12.54-31.28,24.08-47.76,34.43,3.34-16.57,5.9-33.51,8.29-52.07,17.34-12.5,33.71-26.48,48.87-41.56-2.7,21.59-5.64,41-9.4,59.2Z"/>
    </clipPath>
  </defs>
  <g id="U">
    <path class="cls-1" d="M832.58,696.1c-18.74,28.88-53.35,58.32-55.37,127.87-1.49,51.56,65.2,63.09,48.92-20.84,64.85,125.83-70.96,163.53-81.34,68.81-8.46-77.1,49.51-146.04,87.79-175.84h0Z"/>
  </g>
  <g id="LINES">
    <path class="cls-3" d="M1027.91,246.71h679.5c35.95,0,93.5-2.97,119.77-46.16-43.16,81.47-91.52,79.6-206.13,79.6h-620.1c9.98-11.53,18.95-22.73,26.95-33.45h.01Z"/>
    <path class="cls-3" d="M1807.7,110.41c25.91-4.4,56.64,43.52,12.56,102.44-.24.37-7.12,4.81-7.12,4.81,48.34-63.17,19.72-98.99,1.94-106.47-2.83-1.2-5.58.25-7.38-.78h0Z"/>
    <path class="cls-3" d="M535.79,933.19c-8.92,0-16.14-7.23-16.14-16.14,0-14.39,17.38-21.58,27.55-11.42,10.16,10.16,2.96,27.55-11.42,27.55h.01Z"/>
    <path class="cls-3" d="M1810.79,142.19c-8.92,0-16.14-7.23-16.14-16.14,0-14.39,17.38-21.58,27.55-11.42,10.16,10.16,2.96,27.55-11.42,27.55h.01Z"/>
    <path class="cls-3" d="M537.83,933.07c-25.91,4.4-56.64-43.52-12.56-102.44.25-.39,7.13-4.81,7.13-4.81-48.35,63.17-19.74,98.99-1.95,106.47,2.83,1.19,5.58-.25,7.38.78h0Z"/>
    <path class="cls-3" d="M1823.74,796.77H638.12c-35.96,0-93.5,2.97-119.78,46.16,43.16-81.47,91.52-79.6,206.13-79.6h1098.72c.17,10.4.28,21.79.54,33.45h.01Z"/>
  </g>
  <g id="A">
    <path class="cls-3" d="M837.7,433.93c-16.57.35-93.94-2.68-110.51-2.34-46.61.95-62.5,23.34-75.93,45.66,16.78-37.27,20.11-48.69,33.19-65.69,16.54-21.47,26.84-23.38,45.6-21.44,48.91,5.07,129.66,14.07,169.24-19.23-29.77,72.53-26.73,153.33-26.73,230.35,40.24,47.62,29.84,38.83,64.05,30.25-28.91,16.85-35.97,24.26-52.78,46.53-14.08-30.87-35.26-49.46-58.75-68.64,15.99-67.87,13.68-96.45,12.6-175.44h.02Z"/>
  </g>
  <g id="A-2">
    <path class="cls-3" d="M691.41,610.02c6.67-29.85,6.47-41.93,8.51-60.47,2.3-21.03-2.23-15.05-35.72.18,32.5-24.96,59.45-40.21,83.61-62.41-15.52,50.19-18.41,77.51-16.82,107.21,8.64,7.47,22.26,19.99,34.69,27.97,13.97,8.96,26.51-1.45,58.25-23.09-30.58,23.47-47.88,38.05-74.02,77.79-.31-29.77-17.98-42.25-58.5-67.19h0Z"/>
  </g>
  <g id="_." data-name=" .">
    <path class="cls-3" d="M1845.52,295.91c13.96,0,25.26,11.32,25.26,25.26,0,10.23-6.15,19.45-15.59,23.35-9.45,3.91-20.31,1.75-27.54-5.49-7.23-7.21-9.39-18.09-5.48-27.52,3.92-9.45,13.13-15.6,23.35-15.6h0Z"/>
  </g>
  <g id="_.b" data-name=" .b">
    <path class="cls-3" d="M1121.79,650.04c.03,9.17,15.36,18.34,22.54,25.53,8.57,8.57,8.57,22.55,0,31.13-7.19,7.18-14.36,14.36-21.55,21.55-9.66-24.13-27.01-31.98-37.11-37.12,26.3-15.14,20.34-30.71,36.12-41.09h0Z"/>
  </g>
  <g id="N">
    <path class="cls-3" d="M1846.48,897.01c-19.85-22.75-15.51-118.11-17.74-160.79-4.3-82.49-6.1-211.27,17.78-302.3-16.56.35-38.55.56-55.12.89-46.61.95-62.51,23.32-75.93,45.66,16.78-37.28,20.75-55.09,33.83-72.08,16.54-21.48,26.2-17,44.96-15.06,48.91,5.06,74.28,10.85,113.86-22.46-33.99,82.83-43.98,159.42-37.19,253.51,2.26,31.35,15.63,43.05,33.31,51.37-55.35,7.19-65.51,64.46-70.89,117.5-1.2,55.33,33.43,70.8,38.22,84.55,7.61,21.86-10.63,35.77-25.08,19.22h-.01Z"/>
  </g>
  <g id="N-2">
    <path class="cls-3" d="M1659.47,607.63c13.8-30.96,19.23-102.1,16.99-148.94-.91-18.89-15.35-14.81-34.41-7.69,32.49-24.97,63.17-48.1,88.59-80.65-16.08,66.37-23.7,161.62-23.7,229.15,40.24,47.64,29.85,38.85,64.05,30.25-28.89,16.86-35.96,24.27-52.78,46.55-14.07-30.89-35.26-49.47-58.75-68.66h.01Z"/>
  </g>
  <g id="Layer_1-2" data-name="Layer 1">
    <path class="cls-3" d="M1564.05,433.93c-16.55.35-93.94-2.68-110.49-2.34-46.62.95-62.52,23.34-75.95,45.66,16.79-37.27,20.11-48.69,33.21-65.69,16.54-21.47,26.84-23.38,45.6-21.44,48.9,5.07,129.64,14.07,169.23-19.23-29.77,72.53-26.73,153.33-26.73,230.35,40.24,47.62,29.86,38.83,64.05,30.25-28.89,16.85-35.95,24.26-52.77,46.53-14.07-30.87-35.26-49.46-58.75-68.64,16-67.87,13.69-96.45,12.6-175.44h0Z"/>
    <path class="cls-3" d="M1417.77,610.02c6.66-29.85,6.48-41.93,8.5-60.47,2.32-21.03-2.23-15.05-35.72.18,32.5-24.96,59.45-40.21,83.62-62.41-15.52,50.19-18.42,77.51-16.82,107.21,8.64,7.47,22.25,19.99,34.67,27.97,13.97,8.96,26.51-1.45,58.26-23.09-30.6,23.47-47.88,38.05-74.04,77.79-.31-29.77-17.96-42.25-58.48-67.19h0Z"/>
    <path class="cls-3" d="M1312.7,433.93c-16.56.35-93.92-2.68-110.49-2.34-46.61.95-62.5,23.34-75.93,45.66,16.78-37.27,20.11-48.69,33.19-65.69,16.54-21.47,26.84-23.38,45.6-21.44,48.91,5.07,129.66,14.07,169.23-19.23-29.76,72.53-26.72,153.33-26.72,230.35,40.24,47.62,29.84,38.83,64.06,30.25-28.91,16.85-35.97,24.26-52.77,46.53-14.09-30.87-35.26-49.46-58.75-68.64,16-67.87,13.68-96.45,12.59-175.44h0Z"/>
    <path class="cls-3" d="M1166.42,610.02c6.67-29.85,6.48-41.93,8.51-60.47,2.3-21.03-2.23-15.05-35.72.18,32.5-24.96,59.43-40.21,83.61-62.41-15.52,50.19-18.41,77.51-16.82,107.21,8.64,7.47,22.27,19.99,34.69,27.97,13.98,8.96,26.51-1.45,58.25-23.09-30.59,23.47-47.87,38.05-74.03,77.79-.29-29.77-17.96-42.25-58.48-67.19h-.01Z"/>
    <path class="cls-3" d="M837.7,433.93c-16.57.35-93.94-2.68-110.51-2.34-46.61.95-62.5,23.34-75.93,45.66,16.78-37.27,20.11-48.69,33.19-65.69,16.54-21.47,26.84-23.38,45.6-21.44,48.91,5.07,129.66,14.07,169.24-19.23-29.77,72.53-26.73,153.33-26.73,230.35,40.24,47.62,29.84,38.83,64.05,30.25-28.91,16.85-35.97,24.26-52.78,46.53-14.08-30.87-35.26-49.46-58.75-68.64,15.99-67.87,13.68-96.45,12.6-175.44h.02Z"/>
    <path class="cls-3" d="M691.41,610.02c6.67-29.85,6.47-41.93,8.51-60.47,2.3-21.03-2.23-15.05-35.72.18,32.5-24.96,59.45-40.21,83.61-62.41-15.52,50.19-18.41,77.51-16.82,107.21,8.64,7.47,22.26,19.99,34.69,27.97,13.97,8.96,26.51-1.45,58.25-23.09-30.58,23.47-47.88,38.05-74.02,77.79-.31-29.77-17.98-42.25-58.5-67.19h0Z"/>
  </g>
  <g id="Z">
    <path class="cls-3" d="M360.3,156.08c75.29,1.95,185.09,3.43,211.06-25.17l-80.44,64.92c-130.48-8.04-197.98-14.17-260.82,67.96,61.9-86.63,63.47-109.45,130.2-107.72h0Z"/>
    <path class="cls-3" d="M228.03,401.35h8.18l254.71-205.52h-8.19l-254.69,205.52h0Z"/>
    <path class="cls-3" d="M268.9,407.34c56.62-29.77,115.73-60.41,157.66-87.72v2.08c-42.52,26.65-106.63,62.25-157.66,91.3v-5.66Z"/>
    <path class="cls-3" d="M477.5,383.54c-71.47-33.33-174.33-10.71-249.47,17.81,46.05-37.16,160.55-67.17,249.47-44.28v26.46h0Z"/>
    <path class="cls-3" d="M360.3,156.08c75.29,1.95,185.09,3.43,211.06-25.17l-80.44,64.92c-130.48-8.04-197.98-14.17-260.82,67.96,61.9-86.63,63.47-109.45,130.2-107.72h0Z"/>
    <path class="cls-3" d="M228.03,401.35h8.18l254.71-205.52h-8.19l-254.69,205.52h0Z"/>
    <path class="cls-3" d="M477.5,383.54c-71.47-33.33-174.33-10.71-249.47,17.81,46.05-37.16,160.55-67.17,249.47-44.28v26.46h0Z"/>
    <g>
      <path class="cls-1" d="M673.08,280.22c-56.1,1.44-133.73,8.33-177.48,196.48-69.85,300.28-6.38,389.83-165.42,552.3,102.78-181.83,50-196.24,127.59-552.96,29.82-137.03,75.51-222.57,186.48-229.43,40.02-30.67,63.65-59.92,100.01-81.7-10.94,38.33,14.65,51.87,27.8,68.11,3.79,4.68,6.52,9.24,8.25,13.68h68.72c23.55,0,75.87,20.44,30.64,78.82,22.73-41.64-15.02-45.38-66.91-45.38-13.29,0-26.59-.09-39.89-.2h0c-1.54,1.58-3.24,3.13-5.11,4.65-19.7,15.85-44.02,24.13-66.26,57.87-3.68-22.58-14.98-43.99-28.43-62.25h.01ZM700.92,223.54c4.66-6.03,9.6-12.09,13.85-18.08-6.73,21.85,9.36,34.65,18.97,51.35,2.47,4.3,2.35,9.27-.35,13.43-6.08,9.35-11.22,20.3-17.29,29.65,11.85-29.73-3.14-45.17-15.13-60.56-3.67-4.69-3.69-11.07-.04-15.79h-.01Z"/>
      <path class="cls-3" d="M576.64,430.05c109.74,209.78-154.06,509.19-379.33,492.41-238.5-17.77-231.09-318.51-65.8-436.37,73.77-52.62,245.54-127.49,318.71-182.98,32.31-34.85,25.43-62.06,45.58-59.71,7.29,7.02,8.93,27.96-44.97,62.35-48.57,33.99-166.38,97.23-226.3,132.92-275.64,164.16-163.94,404.81-55.71,430.59,199.69,47.57,395.62-168.67,392.15-328.53-4.73-218.25-207.53-187-332.94-139.39,67.85-54.76,284.4-94.04,348.6,28.7h.01Z"/>
      <g class="cls-6">
        <path class="cls-1" d="M673.08,280.22c-56.1,1.44-133.73,8.33-177.48,196.48-69.85,300.28-6.38,389.83-165.42,552.3,102.78-181.83,50-196.24,127.59-552.96,29.82-137.03,75.51-222.57,186.48-229.43,40.02-30.67,63.65-59.92,100.01-81.7-10.94,38.33,14.65,51.87,27.8,68.11,3.79,4.68,6.52,9.24,8.25,13.68h68.72c23.55,0,75.87,20.44,30.64,78.82,22.73-41.64-15.02-45.38-66.91-45.38-13.29,0-26.59-.09-39.89-.2h0c-1.54,1.58-3.24,3.13-5.11,4.65-19.7,15.85-44.02,24.13-66.26,57.87-3.68-22.58-14.98-43.99-28.43-62.25h.01ZM700.92,223.54c4.66-6.03,9.6-12.09,13.85-18.08-6.73,21.85,9.36,34.65,18.97,51.35,2.47,4.3,2.35,9.27-.35,13.43-6.08,9.35-11.22,20.3-17.29,29.65,11.85-29.73-3.14-45.17-15.13-60.56-3.67-4.69-3.69-11.07-.04-15.79h-.01Z"/>
      </g>
    </g>
  </g>
  <g id="Layer_5" data-name="Layer 5">
    <path class="cls-3" d="M450.83,305.75c53.9-34.39,52.26-55.33,44.97-62.35-20.15-2.35-13.27,24.86-45.58,59.71-19.55,14.82-46.13,31.03-76.01,47.82,1.43-.15,2.86-.28,4.3-.41,29.05-16.92,55.06-32.7,72.32-44.78h0Z"/>
  </g>
  <g id="M">
    <path class="cls-1" d="M934.83,120.9c-120.9,74.4,16.99,92.64-55.15,204.63,105.27-107.58-7.93-140.82,55.15-204.63h0Z"/>
  </g>
  <g id="B">
    <path class="cls-3" d="M1054.52,648.38c51.5-65.74,9.14-155.12,40.05-227.19-16.57.35-21.37.24-37.92.58-46.61.95-58.33,26.99-71.76,49.33,16.78-37.28,24.34-52.93,37.42-69.93,16.54-21.47,48.31-18.56,67.11-17.11,9.65.74,38.08,2.61,62.1-16.02-70.88,123.3,15.2,205.03-96.99,280.36h0v-.02Z"/>
  </g>
  <g id="B-2">
    <path class="cls-3" d="M1015.28,677.56c-2.89-16.37-51.11-53.02-82.68-69.79,37.57-80.66,30.9-481.06,126.18-515.05,18.3-6.52,78.08,29.87-29.66,154.19,74.45-103.26,46.57-178.68,19.42-144.72-42.59,53.26-60.72,317.46-78.35,486.61,17.21,24.94,69.3,66.71,91.02,54.9-23.55,16.11-26.3,19.26-45.92,33.86h-.01Z"/>
    <g class="cls-5">
      <g class="cls-5">
        <path class="cls-4" d="M926.16,907.81c-.05,5.08-2.17,7.53-7.73,8.39-3.82.6-7.7.96-11.57,1.19-3.08.19-4.29-.91-4.91-3.62-.91-3.96-1.59-8-2.99-11.82-.86-2.37-2.79-4.46-4.4-6.57-.43-.56-1.69-1.18-2.18-.98-.77.39-1.29,1.14-1.41,1.99-.11,4.18-.02,8.36,0,12.54,0,1.29.09,2.59-.02,3.88-.2,2.43-1.66,4.15-4.35,4.09-5.7-.12-11.42-.5-17.08-1.11-2.63-.28-3.61-2.47-4.01-4.63-.28-1.58-.41-3.18-.39-4.79.05-14.67.1-29.34.15-44.01.03-7.21-.04-14.43.09-21.63.09-5.15,3.09-8.76,8.2-10.79,9.91-3.93,19.87-3.41,29.54.62,11.69,4.89,19.08,13.13,21.2,24.64,1.81,9.87-1.55,18.06-13.4,22.44-3.08,1.14-6.31,1.94-9.7,2.97,2.25.69,4.33,1.22,6.33,1.95,11.12,4.07,18.75,14.44,18.64,25.23ZM898.73,857.05c-1.3-.92-2.73-1.63-4.25-2.09-4.04-1.17-5.31-.25-5.23,3.92.12,1.19.26,2.79.44,4.38.04.8.19,1.59.43,2.36.23.45.67.76,1.17.84,1.7-.09,3.38-.3,5.05-.64,2.05-.32,3.73-1.81,4.29-3.81.56-1.89-.22-3.91-1.89-4.95Z"/>
        <path class="cls-4" d="M995.21,891.9c-6.81,12.47-17.24,19.4-30.42,21.92l-20.98,1.78c-6.19-.52-9.05-3.51-9.69-10.07-.18-1.87-.3-3.74-.33-5.62-.09-6.9-.13-13.8-.2-20.7-.13-11.7-.25-23.39-.36-35.09-.02-2.38-.02-4.77.08-7.15.18-4.03,2.01-7.06,5.75-8,4.14-1.16,8.39-1.86,12.68-2.09,9.6-.21,18.92,1.58,27.5,6.4,10.86,6.1,18.75,14.87,21.5,27.92,2.33,11.03-.32,21.14-5.54,30.69ZM971.82,867.27c-.7-5.42-3.46-9.47-8.16-11.88-2.06-1.06-2.81-.68-2.9,1.75-.24,6.25-.26,12.52-.35,18.78-.03,2.2,0,4.4,0,7.29,2.6-1.21,4.86-1.88,6.71-3.2,4.27-3.03,5.36-7.67,4.71-12.75Z"/>
        <path class="cls-4" d="M1079.52,850.89l-1.58,27.53c-1.29,10.9-5.19,20.78-13.75,28.44-10.94,9.79-27.68,11.89-39.52,4.72-7.57-4.58-11.73-11.62-14.31-19.71-2.38-7.22-3.64-14.77-3.71-22.37,0-11.14.4-22.29.83-33.42.16-4.03,1.89-5.57,5.98-5.6,5.18-.03,10.38,0,15.52.45,3.61.32,5.28,2.46,5.19,6.07-.17,6.84-.64,13.68-.83,20.53-.2,7.31-.54,14.69,2.01,21.73.79,2.29,1.99,4.41,3.53,6.26,4.01,4.59,10.89,3.37,12.74-2.38.97-3.28,1.41-6.69,1.32-10.1-.1-12.16-.49-24.31-.74-36.46.01-1.07.1-2.14.27-3.2.34-2.82,1.98-4.48,4.8-5.01,5.33-.99,10.68-1.55,16.09-.71,4.03.63,5.91,2.29,6.08,6.3.25,5.63.06,11.28.06,16.92Z"/>
        <path class="cls-4" d="M1183.11,850.2c-.3,3.14-2.35,4.94-5.36,5.32-3.92.49-7.89.69-11.83,1-1.02.08-2.04.11-3.06.2-1.82.17-3.87.03-4.82,2.03-1.27,2.46-1.49,5.34-.6,7.96.45.82,1.24,1.4,2.16,1.56,1.95.29,3.93.36,5.9.2,5.31-.51,7.55.95,8,6.22.32,4.3.35,8.61.08,12.91-.18,3.53-2.24,5.63-5.83,6.51-1.79.44-3.63.62-5.45.93-2.98.49-3.91,1.35-4.24,4.33-.33,2.92-.43,5.86-.74,8.77-.33,3.05-2.13,4.97-5.01,5.84-4.71,1.48-9.7,1.85-14.58,1.1-3.63-.59-5.75-3.1-6.63-6.5-.73-2.63-1.16-5.34-1.28-8.07l-.99-20.51c0-9.37-.09-18.74.04-28.11-.03-4.58.27-9.15.9-13.68,1.04-6.38,4.74-9.97,11.12-10.45,6.86-.52,13.78-.44,20.67-.33,4.5.1,9,.45,13.47,1.05,5.74.73,8.63,3.73,8.81,9.47.02,4.09-.23,8.18-.74,12.24Z"/>
        <path class="cls-4" d="M1264.68,877.78c-.07,8.66-1.71,16.85-7.28,23.95-12.37,15.75-35.24,18.94-52.12,6.96-14.17-10.04-21.63-23.41-20.29-40.54.43-5.45,2.98-10.36,5.43-15.2,3.71-7.32,8.71-13.75,15.71-18.56,16.5-11.33,37.33-7.47,48.67,8.95,5.37,7.78,7.89,16.49,9.11,25.6.39,2.93.52,5.89.77,8.84ZM1232.9,859.81c-3.06-3.07-7.04-3.34-10.33-.49-1.59,1.41-2.89,3.11-3.83,5.01-2.27,4.64-3.06,9.86-2.27,14.97.67,5.13,4.07,8.57,9.46,8.57,3.97-.04,7.66-2.08,9.79-5.43,4.62-6.98,2.03-17.78-2.81-22.63Z"/>
        <path class="cls-4" d="M1332.86,907.81c-.05,5.08-2.17,7.53-7.73,8.39-3.82.6-7.7.96-11.57,1.19-3.08.19-4.29-.91-4.91-3.62-.91-3.96-1.59-8-2.99-11.82-.86-2.37-2.79-4.46-4.4-6.57-.43-.56-1.69-1.18-2.18-.98-.77.39-1.29,1.14-1.41,1.99-.11,4.18-.02,8.36,0,12.54,0,1.29.09,2.59-.02,3.88-.2,2.43-1.66,4.15-4.35,4.09-5.7-.12-11.42-.5-17.08-1.11-2.63-.28-3.61-2.47-4.01-4.63-.28-1.58-.41-3.18-.39-4.79.05-14.67.1-29.34.15-44.01.03-7.21-.04-14.43.09-21.63.09-5.15,3.08-8.76,8.2-10.79,9.92-3.93,19.88-3.41,29.54.62,11.69,4.89,19.08,13.13,21.2,24.64,1.81,9.87-1.55,18.06-13.4,22.44-3.08,1.14-6.31,1.94-9.7,2.97,2.25.69,4.33,1.22,6.33,1.95,11.12,4.07,18.75,14.44,18.64,25.23ZM1305.43,857.05c-1.3-.92-2.73-1.63-4.25-2.09-4.04-1.17-5.31-.25-5.23,3.92.12,1.19.26,2.79.44,4.38.04.8.19,1.59.43,2.36.23.45.67.76,1.17.84,1.7-.09,3.38-.3,5.05-.64,2.05-.32,3.73-1.81,4.29-3.81.56-1.89-.22-3.91-1.89-4.95Z"/>
        <path class="cls-4" d="M1452.76,850.89l-1.58,27.53c-1.29,10.9-5.19,20.78-13.75,28.44-10.94,9.79-27.68,11.89-39.52,4.72-7.57-4.58-11.73-11.62-14.31-19.71-2.38-7.22-3.64-14.77-3.71-22.37,0-11.14.4-22.29.83-33.42.16-4.03,1.89-5.57,5.98-5.6,5.18-.03,10.38,0,15.52.45,3.61.32,5.28,2.46,5.19,6.07-.17,6.84-.64,13.68-.83,20.53-.2,7.31-.54,14.69,2.01,21.73.79,2.29,1.99,4.41,3.53,6.26,4.01,4.59,10.89,3.37,12.74-2.38.97-3.28,1.41-6.69,1.32-10.1-.1-12.16-.49-24.31-.74-36.46.01-1.07.1-2.14.27-3.2.34-2.82,1.98-4.48,4.8-5.01,5.33-.99,10.68-1.55,16.09-.71,4.03.63,5.91,2.29,6.08,6.3.25,5.63.06,11.28.06,16.92Z"/>
      </g>
    </g>
  </g>
</svg>