<svg width="1440" height="1024" viewBox="0 0 1440 1024" fill="none" xmlns="http://www.w3.org/2000/svg">
<g clip-path="url(#clip0_1_155)">
<rect width="1440" height="1024" fill="#F5F5F9"/>
<path d="M-0.00012207 -23H1440V1047H-0.00012207V-23Z" fill="#075A5E"/>
<path opacity="0.15" fill-rule="evenodd" clip-rule="evenodd" d="M231 1048C407.179 1048 550 924.207 550 771.5C550 689.863 322.71 757.546 257.8 706.932C201.291 662.869 312.994 495 231 495C54.8212 495 -88 618.793 -88 771.5C-88 924.207 54.8212 1048 231 1048Z" fill="white"/>
<path opacity="0.2" fill-rule="evenodd" clip-rule="evenodd" d="M652.656 68.2241C617.031 242.87 751.935 409.413 953.97 440.207C1061.98 456.67 1018.39 217.709 1098.48 163.57C1168.2 116.439 1367.71 261.023 1384.29 179.742C1419.92 5.09604 1285.01 -161.447 1082.98 -192.241C880.942 -223.036 688.28 -106.422 652.656 68.2241Z" fill="white"/>
<path opacity="0.3" fill-rule="evenodd" clip-rule="evenodd" d="M132.816 -77.2024C-32.7677 -25.1053 -118.143 133.162 -57.8758 276.298C-25.6569 352.818 161.252 222.167 242.235 250.414C312.735 275.005 274.001 465.384 351.064 441.138C516.648 389.041 602.024 230.773 541.756 87.6375C481.489 -55.4982 298.4 -129.3 132.816 -77.2024Z" fill="white"/>
<path opacity="0.3" fill-rule="evenodd" clip-rule="evenodd" d="M1496.81 853C1536.13 660.253 1387.24 476.449 1164.27 442.462C1045.06 424.293 1093.17 688.021 1004.78 747.771C927.828 799.788 707.641 640.219 689.343 729.924C650.026 922.671 798.911 1106.48 1021.89 1140.46C1244.86 1174.45 1457.49 1045.75 1496.81 853Z" fill="white"/>
</g>
<defs>
<clipPath id="clip0_1_155">
<rect width="1440" height="1024" fill="white"/>
</clipPath>
</defs>
</svg>
