<svg width="266" height="266" viewBox="0 0 266 266" fill="none" xmlns="http://www.w3.org/2000/svg">
<g clip-path="url(#clip0_156_136)">
<path d="M240.855 0H25.1447C11.2577 0 0 11.2577 0 25.1447V240.855C0 254.742 11.2577 266 25.1447 266H240.855C254.742 266 266 254.742 266 240.855V25.1447C266 11.2577 254.742 0 240.855 0Z" fill="#B3CE4A"/>
<path d="M66.5442 166.66C85.5439 166.66 100.946 151.258 100.946 132.258C100.946 113.258 85.5439 97.856 66.5442 97.856C47.5444 97.856 32.1421 113.258 32.1421 132.258C32.1421 151.258 47.5444 166.66 66.5442 166.66Z" fill="#F1FFA1"/>
<path d="M153.55 73.2966L73.2422 212.402H233.858L153.55 73.2966Z" fill="#CCE561"/>
</g>
<defs>
<clipPath id="clip0_156_136">
<rect width="266" height="266" fill="white"/>
</clipPath>
</defs>
</svg>
