<svg width="686" height="482" viewBox="0 0 686 482" fill="none" xmlns="http://www.w3.org/2000/svg">
<path opacity="0.4" d="M348.858 482.003C273.945 482.003 197.101 479.334 120.456 474.068C51.7776 469.346 0 433.465 0 390.599V108.489C0 67.5768 47.5834 32.7456 113.131 25.6755C194.775 16.875 275.702 12.4006 353.659 12.4006C431.616 12.4006 503.04 16.5166 575.059 24.6373C639.345 31.8927 686 66.625 686 107.228V391.069C686 433.848 634.433 469.705 566.052 474.488C494.788 479.469 421.718 482.003 348.858 482.003Z" fill="black"/>
<path d="M565.594 472.004C419.058 482.251 270.79 481.88 120.901 471.571C54.3139 466.998 4.05811 432.019 4.05811 390.599V108.489C4.05811 68.7386 50.4909 34.9704 113.836 28.1352C268.031 11.5107 421.582 9.87914 574.329 27.1093C636.759 34.1547 681.942 67.9846 681.942 107.228V391.069C681.942 432.377 631.983 467.356 565.594 472.004Z" fill="#165B5E"/>
<g style="mix-blend-mode:multiply" opacity="0.3">
<path d="M352.904 469.47C278.894 469.47 202.953 466.825 127.186 461.621C70.8557 457.752 28.3696 428.298 28.3696 393.096V110.998C28.3696 77.403 67.4781 48.8014 121.359 42.9921C201.63 34.3399 281.146 29.9397 357.705 29.9397C434.264 29.9397 504.166 33.9815 574.737 41.9415C627.455 47.8868 665.722 76.4018 665.722 109.737V393.578C665.722 428.693 623.434 458.136 567.363 462.054C497.003 466.973 424.848 469.47 352.892 469.47H352.904Z" fill="black"/>
</g>
<path d="M348.858 466.973C274.848 466.973 198.907 464.328 123.14 459.125C66.8098 455.256 24.3237 425.801 24.3237 390.599V108.489C24.3237 74.894 63.4322 46.2924 117.313 40.4831C197.584 31.8309 277.1 27.4307 353.659 27.4307C430.218 27.4307 500.12 31.4725 570.691 39.4325C623.409 45.3777 661.676 73.8928 661.676 107.228V391.069C661.676 426.184 619.388 455.627 563.318 459.545C492.957 464.464 420.802 466.961 348.846 466.961L348.858 466.973Z" fill="#FCFCE4"/>
<g style="mix-blend-mode:multiply" opacity="0.3">
<path d="M486.585 69.6039C390.358 67.0947 294.963 67.0577 200.429 69.5791C187.621 69.9252 177 60.9517 177 49.7162V35.6132C177 25.0699 186.394 16.3189 198.412 15.7626C294.907 11.2759 391.628 11.1523 488.616 15.7379C500.62 16.3065 510 25.0575 510 35.5885V49.7286C510 60.9517 499.393 69.9252 486.585 69.5915V69.6039Z" fill="black"/>
</g>
<path d="M486.585 63.4237C390.358 60.9146 294.963 60.8775 200.429 63.399C187.621 63.7451 177 54.7715 177 43.5361V29.433C177 18.8897 186.394 10.1387 198.412 9.58247C294.907 5.0957 391.628 4.9721 488.616 9.55775C500.62 10.1263 510 18.8774 510 29.4083V43.5484C510 54.7715 499.393 63.7451 486.585 63.4113V63.4237Z" fill="#80932F"/>
<path d="M486.585 57.256C390.358 54.7468 294.963 54.7098 200.429 57.2312C187.621 57.5773 177 48.6038 177 37.3683V23.2653C177 12.722 186.394 3.97096 198.412 3.41474C294.907 -1.07202 391.628 -1.19563 488.616 3.39002C500.62 3.95859 510 12.7096 510 23.2406V37.3807C510 48.6038 499.393 57.5773 486.585 57.2436V57.256Z" fill="#CCE561"/>
<path d="M486.585 60.3461C390.358 57.8369 294.963 57.7998 200.429 60.3213C187.621 60.6674 177 51.6939 177 40.4584V26.3554C177 15.8121 186.394 7.06104 198.412 6.50483C294.907 2.01806 391.628 1.89446 488.616 6.48011C500.62 7.04868 510 15.7997 510 26.3307V40.4708C510 51.6939 499.393 60.6674 486.585 60.3337V60.3461Z" fill="#B3CE4A"/>
<path d="M203.744 36.3053C208.582 36.3053 212.503 32.8687 212.503 28.6296C212.503 24.3904 208.582 20.9539 203.744 20.9539C198.906 20.9539 194.984 24.3904 194.984 28.6296C194.984 32.8687 198.906 36.3053 203.744 36.3053Z" fill="#80932F"/>
<path d="M203.744 39.3954C208.582 39.3954 212.503 35.9588 212.503 31.7197C212.503 27.4805 208.582 24.0439 203.744 24.0439C198.906 24.0439 194.984 27.4805 194.984 31.7197C194.984 35.9588 198.906 39.3954 203.744 39.3954Z" fill="#CCE561"/>
<path d="M482.508 36.3053C487.346 36.3053 491.268 32.8687 491.268 28.6296C491.268 24.3904 487.346 20.9539 482.508 20.9539C477.671 20.9539 473.749 24.3904 473.749 28.6296C473.749 32.8687 477.671 36.3053 482.508 36.3053Z" fill="#80932F"/>
<path d="M482.508 39.3954C487.346 39.3954 491.268 35.9588 491.268 31.7197C491.268 27.4805 487.346 24.0439 482.508 24.0439C477.671 24.0439 473.749 27.4805 473.749 31.7197C473.749 35.9588 477.671 39.3954 482.508 39.3954Z" fill="#CCE561"/>
</svg>
