<svg width="367" height="606" viewBox="0 0 367 606" fill="none" xmlns="http://www.w3.org/2000/svg">
<path opacity="0.4" d="M186.634 606C146.556 606 105.446 604.572 64.4419 601.755C27.7069 599.23 0 580.036 0 557.107V62.3988C0 40.5143 25.4564 21.8827 60.5235 18.1009C104.202 13.3868 147.496 11 189.202 11C230.908 11 269.119 13.2017 307.648 17.5455C342.04 21.4265 367 40.0052 367 61.7244V557.358C367 580.241 339.412 599.421 302.829 601.98C264.704 604.645 225.613 606 186.634 606Z" fill="black"/>
<path d="M302.584 600.651C224.19 606.132 144.868 605.934 64.6801 600.42C29.057 597.974 2.1709 579.263 2.1709 557.107V62.3988C2.1709 41.1358 27.0118 23.0728 60.9007 19.4166C143.392 10.524 225.54 9.65124 307.257 18.8678C340.657 22.6365 364.829 40.7325 364.829 61.7244V557.358C364.829 579.454 338.102 598.165 302.584 600.651Z" fill="#165B5E"/>
<g style="mix-blend-mode:multiply" opacity="0.3">
<path d="M188.798 599.296C149.204 599.296 108.577 597.881 68.0427 595.097C37.9067 593.028 15.1772 577.272 15.1772 558.443V63.7409C15.1772 45.7705 36.0997 30.4712 64.9251 27.3637C107.869 22.7356 150.409 20.3818 191.367 20.3818C232.325 20.3818 269.722 22.5438 307.476 26.8017C335.679 29.9819 356.152 45.2349 356.152 63.0665V558.7C356.152 577.484 333.528 593.233 303.531 595.329C265.889 597.96 227.288 599.296 188.792 599.296H188.798Z" fill="black"/>
</g>
<path d="M186.634 597.96C147.039 597.96 106.412 596.545 65.8781 593.762C35.7421 591.692 13.0127 575.937 13.0127 557.107V62.3986C13.0127 44.4282 33.9351 29.1289 62.7606 26.0214C105.704 21.3933 148.244 19.0396 189.202 19.0396C230.16 19.0396 267.557 21.2016 305.311 25.4594C333.515 28.6396 353.987 43.8926 353.987 61.7242V557.358C353.987 576.142 331.364 591.891 301.367 593.987C263.725 596.618 225.123 597.953 186.627 597.953L186.634 597.96Z" fill="#FCFCE4"/>
<g style="mix-blend-mode:multiply" opacity="0.3">
<path d="M304.944 54.3961C229.742 52.4351 155.19 52.4062 81.3101 54.3767C71.3007 54.6472 63 47.6343 63 38.8537V27.832C63 19.5923 70.3417 12.7532 79.7337 12.3186C155.146 8.8121 230.734 8.71551 306.531 12.2992C315.912 12.7436 323.243 19.5826 323.243 27.8127V38.8633C323.243 47.6343 314.953 54.6472 304.944 54.3864V54.3961Z" fill="black"/>
</g>
<path d="M304.944 49.5665C229.742 47.6056 155.19 47.5766 81.3101 49.5471C71.3007 49.8176 63 42.8047 63 34.0241V23.0024C63 14.7627 70.3417 7.92366 79.7337 7.48897C155.146 3.98251 230.734 3.88592 306.531 7.46965C315.912 7.914 323.243 14.753 323.243 22.9831V34.0337C323.243 42.8047 314.953 49.8176 304.944 49.5568V49.5665Z" fill="#80932F"/>
<path d="M304.944 44.7462C229.742 42.7852 155.19 42.7563 81.3101 44.7268C71.3007 44.9973 63 37.9844 63 29.2038V18.1821C63 9.94239 70.3417 3.10334 79.7337 2.66866C155.146 -0.837798 230.734 -0.934395 306.531 2.64934C315.912 3.09368 323.243 9.93273 323.243 18.1628V29.2134C323.243 37.9844 314.953 44.9973 304.944 44.7365V44.7462Z" fill="#CCE561"/>
<path d="M304.944 47.1612C229.742 45.2003 155.19 45.1713 81.3101 47.1419C71.3007 47.4123 63 40.3994 63 31.6188V20.5971C63 12.3574 70.3417 5.51838 79.7337 5.0837C155.146 1.57724 230.734 1.48064 306.531 5.06438C315.912 5.50872 323.243 12.3478 323.243 20.5778V31.6285C323.243 40.3994 314.953 47.4123 304.944 47.1515V47.1612Z" fill="#B3CE4A"/>
<path d="M83.9008 28.3728C87.6815 28.3728 90.7464 25.6871 90.7464 22.3741C90.7464 19.0612 87.6815 16.3755 83.9008 16.3755C80.1201 16.3755 77.0552 19.0612 77.0552 22.3741C77.0552 25.6871 80.1201 28.3728 83.9008 28.3728Z" fill="#80932F"/>
<path d="M83.9008 30.7878C87.6815 30.7878 90.7464 28.1021 90.7464 24.7892C90.7464 21.4762 87.6815 18.7905 83.9008 18.7905C80.1201 18.7905 77.0552 21.4762 77.0552 24.7892C77.0552 28.1021 80.1201 30.7878 83.9008 30.7878Z" fill="#CCE561"/>
<path d="M301.758 28.3728C305.539 28.3728 308.604 25.6871 308.604 22.3741C308.604 19.0612 305.539 16.3755 301.758 16.3755C297.978 16.3755 294.913 19.0612 294.913 22.3741C294.913 25.6871 297.978 28.3728 301.758 28.3728Z" fill="#80932F"/>
<path d="M301.758 30.7878C305.539 30.7878 308.604 28.1021 308.604 24.7892C308.604 21.4762 305.539 18.7905 301.758 18.7905C297.978 18.7905 294.913 21.4762 294.913 24.7892C294.913 28.1021 297.978 30.7878 301.758 30.7878Z" fill="#CCE561"/>
</svg>
