<?xml version="1.0" encoding="UTF-8"?>
<svg id="Layer_1" data-name="Layer 1" xmlns="http://www.w3.org/2000/svg" version="1.1" viewBox="0 0 128 128">
  <defs>
    <style>
      .cls-1 {
        fill: #00d3ff;
      }

      .cls-1, .cls-2, .cls-3, .cls-4 {
        stroke-width: 0px;
      }

      .cls-2 {
        fill: #00f076;
      }

      .cls-3 {
        fill: #f1314b;
      }

      .cls-4 {
        fill: #ffc400;
      }

      .cls-5 {
        fill: none;
        stroke: #054949;
        stroke-miterlimit: 10;
        stroke-width: 1.95px;
      }
    </style>
  </defs>
  <path class="cls-2" d="M71.05,64.16l-31.9-27.08L7.05,10.17v-2.72C7.05,2.92,11.9.06,15.87,2.25l51.29,28.43,23.99,13.3-20.1,20.18Z"/>
  <path class="cls-3" d="M7.05,120.55v-2.72l32.1-26.92,31.9-26.75,19.94,19.94-23.83,13.21-51.29,28.43c-3.96,2.19-8.82-.67-8.82-5.2Z"/>
  <path class="cls-4" d="M90.99,84.1l-19.94-19.94,20.1-20.18,26.75,14.83c4.08,2.26,4.08,8.13,0,10.38l-26.91,14.91Z"/>
  <polygon class="cls-1" points="7.05 117.84 7.05 10.17 39.15 37.08 71.05 64.16 39.15 90.92 7.05 117.84"/>
  <g>
    <path class="cls-5" d="M71.05,64.16l-31.9-27.08L7.05,10.17v-2.72C7.05,2.92,11.9.06,15.87,2.25l51.29,28.43,23.99,13.3-20.1,20.18Z"/>
    <path class="cls-5" d="M7.05,120.55v-2.72l32.1-26.92,31.9-26.75,19.94,19.94-23.83,13.21-51.29,28.43c-3.96,2.19-8.82-.67-8.82-5.2Z"/>
    <path class="cls-5" d="M90.99,84.1l-19.94-19.94,20.1-20.18,26.75,14.83c4.08,2.26,4.08,8.13,0,10.38l-26.91,14.91Z"/>
    <polygon class="cls-5" points="7.05 117.84 7.05 10.17 39.15 37.08 71.05 64.16 39.15 90.92 7.05 117.84"/>
  </g>
</svg>