<svg width="416" height="234" viewBox="0 0 416 234" fill="none" xmlns="http://www.w3.org/2000/svg">
<g clip-path="url(#clip0_168_1355)">
<path d="M179.495 3.91157C179.842 4.18202 180.769 4.16471 181.344 3.96998C182.416 3.6065 183.512 3.11753 184.444 2.5009C186.145 1.37367 187.984 0.670503 189.874 0.00195312H182.732C181.705 0.549342 180.759 1.19842 179.972 2.03573C179.398 2.64586 178.837 3.40096 179.495 3.91373V3.91157Z" fill="#F5C47D"/>
<path d="M112.846 0C110.756 1.1294 108.933 2.6028 107.46 4.48297C107.38 4.58682 107.3 4.68634 107.226 4.7902L105.785 4.11732L85.8303 0H112.846Z" fill="#F5C47D"/>
<path d="M7.6115 0H0V233.668H7.6115V0Z" fill="#FFE6C7"/>
<path d="M416 0H408.388V233.668H416V0Z" fill="#FFE6C7"/>
<path d="M410.897 0H408.388V233.668H410.897V0Z" fill="#FFE6C7"/>
<path d="M415.928 7.77379V0L0 0V7.77379L415.928 7.77379Z" fill="#FFE6C7"/>
<path d="M415.766 233.668V225.895L0.123627 225.895V233.668L415.766 233.668Z" fill="#FFE6C7"/>
<path d="M16.5534 3.375H15.509V7.77142H16.5534V3.375Z" fill="#966C4F"/>
<path d="M39.1387 3.375H38.0944V7.77142H39.1387V3.375Z" fill="#966C4F"/>
<path d="M61.7218 3.375H60.6775V7.77142H61.7218V3.375Z" fill="#966C4F"/>
<path d="M84.3073 3.375H83.2629V7.77142H84.3073V3.375Z" fill="#966C4F"/>
<path d="M106.892 3.375H105.848V7.77142H106.892V3.375Z" fill="#966C4F"/>
<path d="M129.476 3.375H128.431V7.77142H129.476V3.375Z" fill="#966C4F"/>
<path d="M152.061 3.375H151.017V7.77142H152.061V3.375Z" fill="#966C4F"/>
<path d="M174.646 3.375H173.602V7.77142H174.646V3.375Z" fill="#966C4F"/>
<path d="M197.229 3.375H196.185V7.77142H197.229V3.375Z" fill="#966C4F"/>
<path d="M219.815 3.375H218.771V7.77142H219.815V3.375Z" fill="#966C4F"/>
<path d="M242.4 3.375H241.356V7.77142H242.4V3.375Z" fill="#966C4F"/>
<path d="M264.983 3.375H263.939V7.77142H264.983V3.375Z" fill="#966C4F"/>
<path d="M287.569 3.375H286.524V7.77142H287.569V3.375Z" fill="#966C4F"/>
<path d="M310.154 3.375H309.11V7.77142H310.154V3.375Z" fill="#966C4F"/>
<path d="M332.737 3.375H331.693V7.77142H332.737V3.375Z" fill="#966C4F"/>
<path d="M355.323 3.375H354.278V7.77142H355.323V3.375Z" fill="#966C4F"/>
<path d="M377.908 3.375H376.864V7.77142H377.908V3.375Z" fill="#966C4F"/>
<path d="M400.491 3.375H399.447V7.77142H400.491V3.375Z" fill="#966C4F"/>
<path d="M27.846 5.20996H26.8016V7.77382H27.846V5.20996Z" fill="#966C4F"/>
<path d="M50.4313 5.20996H49.387V7.77382H50.4313V5.20996Z" fill="#966C4F"/>
<path d="M73.0145 5.20996H71.9702V7.77382H73.0145V5.20996Z" fill="#966C4F"/>
<path d="M95.5998 5.20996H94.5554V7.77382H95.5998V5.20996Z" fill="#966C4F"/>
<path d="M118.185 5.20996H117.141V7.77382H118.185V5.20996Z" fill="#966C4F"/>
<path d="M140.768 5.20996H139.724V7.77382H140.768V5.20996Z" fill="#966C4F"/>
<path d="M163.354 5.20996H162.309V7.77382H163.354V5.20996Z" fill="#966C4F"/>
<path d="M185.939 5.20996H184.895V7.77382H185.939V5.20996Z" fill="#966C4F"/>
<path d="M208.522 5.20996H207.478V7.77382H208.522V5.20996Z" fill="#966C4F"/>
<path d="M231.107 5.20996H230.063V7.77382H231.107V5.20996Z" fill="#966C4F"/>
<path d="M253.693 5.20996H252.648V7.77382H253.693V5.20996Z" fill="#966C4F"/>
<path d="M276.276 5.20996H275.232V7.77382H276.276V5.20996Z" fill="#966C4F"/>
<path d="M298.861 5.20996H297.817V7.77382H298.861V5.20996Z" fill="#966C4F"/>
<path d="M321.447 5.20996H320.402V7.77382H321.447V5.20996Z" fill="#966C4F"/>
<path d="M344.03 5.20996H342.985V7.77382H344.03V5.20996Z" fill="#966C4F"/>
<path d="M366.615 5.20996H365.571V7.77382H366.615V5.20996Z" fill="#966C4F"/>
<path d="M389.201 5.20996H388.156V7.77382H389.201V5.20996Z" fill="#966C4F"/>
<path d="M16.6465 225.895H15.6022V230.291H16.6465V225.895Z" fill="#966C4F"/>
<path d="M39.2318 225.895H38.1875V230.291H39.2318V225.895Z" fill="#966C4F"/>
<path d="M61.815 225.895H60.7706V230.291H61.815V225.895Z" fill="#966C4F"/>
<path d="M84.4003 225.895H83.356V230.291H84.4003V225.895Z" fill="#966C4F"/>
<path d="M106.986 225.895H105.941V230.291H106.986V225.895Z" fill="#966C4F"/>
<path d="M129.569 225.895H128.524V230.291H129.569V225.895Z" fill="#966C4F"/>
<path d="M152.154 225.895H151.11V230.291H152.154V225.895Z" fill="#966C4F"/>
<path d="M174.739 225.895H173.695V230.291H174.739V225.895Z" fill="#966C4F"/>
<path d="M197.323 225.895H196.278V230.291H197.323V225.895Z" fill="#966C4F"/>
<path d="M219.908 225.895H218.864V230.291H219.908V225.895Z" fill="#966C4F"/>
<path d="M242.493 225.895H241.449V230.291H242.493V225.895Z" fill="#966C4F"/>
<path d="M265.077 225.895H264.032V230.291H265.077V225.895Z" fill="#966C4F"/>
<path d="M287.662 225.895H286.617V230.291H287.662V225.895Z" fill="#966C4F"/>
<path d="M310.247 225.895H309.203V230.291H310.247V225.895Z" fill="#966C4F"/>
<path d="M332.83 225.895H331.786V230.291H332.83V225.895Z" fill="#966C4F"/>
<path d="M355.416 225.895H354.371V230.291H355.416V225.895Z" fill="#966C4F"/>
<path d="M378.001 225.895H376.957V230.291H378.001V225.895Z" fill="#966C4F"/>
<path d="M400.584 225.895H399.54V230.291H400.584V225.895Z" fill="#966C4F"/>
<path d="M27.9391 225.895H26.8948V228.458H27.9391V225.895Z" fill="#966C4F"/>
<path d="M50.5222 225.895H49.4779V228.458H50.5222V225.895Z" fill="#966C4F"/>
<path d="M73.1076 225.895H72.0632V228.458H73.1076V225.895Z" fill="#966C4F"/>
<path d="M95.693 225.895H94.6487V228.458H95.693V225.895Z" fill="#966C4F"/>
<path d="M118.276 225.895H117.232V228.458H118.276V225.895Z" fill="#966C4F"/>
<path d="M140.861 225.895H139.817V228.458H140.861V225.895Z" fill="#966C4F"/>
<path d="M163.447 225.895H162.402V228.458H163.447V225.895Z" fill="#966C4F"/>
<path d="M186.03 225.895H184.986V228.458H186.03V225.895Z" fill="#966C4F"/>
<path d="M208.615 225.895H207.571V228.458H208.615V225.895Z" fill="#966C4F"/>
<path d="M231.201 225.895H230.156V228.458H231.201V225.895Z" fill="#966C4F"/>
<path d="M253.784 225.895H252.74V228.458H253.784V225.895Z" fill="#966C4F"/>
<path d="M276.369 225.895H275.325V228.458H276.369V225.895Z" fill="#966C4F"/>
<path d="M298.955 225.895H297.91V228.458H298.955V225.895Z" fill="#966C4F"/>
<path d="M321.538 225.895H320.493V228.458H321.538V225.895Z" fill="#966C4F"/>
<path d="M344.123 225.895H343.079V228.458H344.123V225.895Z" fill="#966C4F"/>
<path d="M366.708 225.895H365.664V228.458H366.708V225.895Z" fill="#966C4F"/>
<path d="M389.291 225.895H388.247V228.458H389.291V225.895Z" fill="#966C4F"/>
<path d="M408.388 221.466V222.532H412.694V221.466H408.388Z" fill="#966C4F"/>
<path d="M408.391 198.402V199.468H412.696V198.402H408.391Z" fill="#966C4F"/>
<path d="M408.388 175.335V176.402H412.694V175.335H408.388Z" fill="#966C4F"/>
<path d="M408.391 152.272V153.338H412.696V152.272H408.391Z" fill="#966C4F"/>
<path d="M408.388 129.205V130.272H412.694V129.205H408.388Z" fill="#966C4F"/>
<path d="M408.388 106.141V107.208H412.694V106.141H408.388Z" fill="#966C4F"/>
<path d="M408.391 83.0754V84.1421H412.696V83.0754H408.391Z" fill="#966C4F"/>
<path d="M408.388 60.0115V61.0781H412.694V60.0115H408.388Z" fill="#966C4F"/>
<path d="M408.391 36.9455V38.0122H412.696V36.9455H408.391Z" fill="#966C4F"/>
<path d="M408.388 13.8796V14.9463H412.694V13.8796H408.388Z" fill="#966C4F"/>
<path d="M408.388 209.936V211.002H410.897V209.936H408.388Z" fill="#966C4F"/>
<path d="M408.391 186.869V187.936H410.9V186.869H408.391Z" fill="#966C4F"/>
<path d="M408.388 163.806V164.873H410.897V163.806H408.388Z" fill="#966C4F"/>
<path d="M408.391 140.739V141.806H410.9V140.739H408.391Z" fill="#966C4F"/>
<path d="M408.388 117.676V118.742H410.897V117.676H408.388Z" fill="#966C4F"/>
<path d="M408.388 94.6096V95.6763H410.897V94.6096H408.388Z" fill="#966C4F"/>
<path d="M408.391 71.5456V72.6123H410.9V71.5456H408.391Z" fill="#966C4F"/>
<path d="M408.388 48.4797V49.5464H410.897V48.4797H408.388Z" fill="#966C4F"/>
<path d="M408.391 25.4138V26.4805H410.9V25.4138H408.391Z" fill="#966C4F"/>
<path d="M3.3064 221.013V222.08H7.61158V221.013H3.3064Z" fill="#966C4F"/>
<path d="M3.3042 197.947V199.014H7.60936V197.947H3.3042Z" fill="#966C4F"/>
<path d="M3.3064 174.883V175.95H7.61156V174.883H3.3064Z" fill="#966C4F"/>
<path d="M3.3042 151.817V152.884H7.60938V151.817H3.3042Z" fill="#966C4F"/>
<path d="M3.3064 128.751V129.818H7.61156V128.751H3.3064Z" fill="#966C4F"/>
<path d="M3.3064 105.687V106.754H7.61156V105.687H3.3064Z" fill="#966C4F"/>
<path d="M3.3064 82.6213V83.688H7.61156V82.6213H3.3064Z" fill="#966C4F"/>
<path d="M3.3064 59.5574V60.624H7.61157V59.5574H3.3064Z" fill="#966C4F"/>
<path d="M3.3042 36.491V37.5576H7.60936V36.491H3.3042Z" fill="#966C4F"/>
<path d="M3.3064 13.4275V14.4941H7.61156V13.4275H3.3064Z" fill="#966C4F"/>
<path d="M5.10034 209.481V210.548H7.60935V209.481H5.10034Z" fill="#966C4F"/>
<path d="M5.10034 186.415V187.481H7.60933V186.415H5.10034Z" fill="#966C4F"/>
<path d="M5.10034 163.351V164.418H7.60935V163.351H5.10034Z" fill="#966C4F"/>
<path d="M5.10034 140.285V141.352H7.60935V140.285H5.10034Z" fill="#966C4F"/>
<path d="M5.10254 117.219V118.286H7.61153V117.219H5.10254Z" fill="#966C4F"/>
<path d="M5.10034 94.155V95.2217H7.60934V94.155H5.10034Z" fill="#966C4F"/>
<path d="M5.10254 71.0891V72.1558H7.61154V71.0891H5.10254Z" fill="#966C4F"/>
<path d="M5.10034 48.0251V49.0918H7.60934V48.0251H5.10034Z" fill="#966C4F"/>
<path d="M5.10034 24.9587V26.0254H7.60934V24.9587H5.10034Z" fill="#966C4F"/>
<path d="M408.389 7.77393H7.61584V9.53293H408.389V7.77393Z" fill="#966C4F"/>
<path d="M9.33834 7.77393H7.61584V225.667H9.33834V7.77393Z" fill="#966C4F"/>
<path d="M408.389 7.77393H406.666V225.667H408.389V7.77393Z" fill="#966C4F"/>
<path d="M408.384 224.135H7.61145V225.894H408.384V224.135Z" fill="#966C4F"/>
</g>
<defs>
<clipPath id="clip0_168_1355">
<rect width="416" height="233.668" fill="white"/>
</clipPath>
</defs>
</svg>
