<svg width="25" height="24" viewBox="0 0 25 24" fill="none" xmlns="http://www.w3.org/2000/svg">
<path d="M13.679 0.809948L16.3832 6.30266C16.5932 6.7312 17.0012 7.02751 17.4726 7.09607L23.5184 7.97766C24.7056 8.15153 25.1795 9.61347 24.3197 10.4534L19.9447 14.7291C19.6027 15.0621 19.4488 15.5421 19.5294 16.0147L20.5627 22.051C20.7655 23.2363 19.5245 24.1399 18.4619 23.5816L13.0537 20.7311C12.6311 20.5083 12.1279 20.5083 11.7053 20.7311L6.29702 23.5816C5.23442 24.1423 3.9935 23.2363 4.19625 22.051L5.22953 16.0147C5.31014 15.5445 5.15382 15.0645 4.81428 14.7291L0.439295 10.4534C-0.420555 9.61347 0.0533466 8.15153 1.24053 7.97766L7.28634 7.09607C7.75779 7.02751 8.16572 6.7312 8.3758 6.30266L11.0799 0.809948C11.61 -0.269983 13.1465 -0.269983 13.6766 0.809948H13.679Z" fill="#E0E0E0"/>
</svg>
