<svg width="25" height="24" viewBox="0 0 25 24" fill="none" xmlns="http://www.w3.org/2000/svg">
<path d="M13.679 0.809948L16.3831 6.30266C16.5932 6.7312 17.0012 7.02751 17.4726 7.09607L23.5184 7.97766C24.7056 8.15153 25.1795 9.61347 24.3197 10.4534L19.9447 14.7291C19.6027 15.0621 19.4488 15.5421 19.5294 16.0147L20.5627 22.051C20.7655 23.2363 19.5245 24.1399 18.4619 23.5816L13.0537 20.7311C12.6311 20.5083 12.1279 20.5083 11.7053 20.7311L6.29702 23.5816C5.23442 24.1423 3.9935 23.2363 4.19625 22.051L5.22953 16.0147C5.31014 15.5445 5.15381 15.0645 4.81426 14.7291L0.439297 10.4534C-0.420553 9.61347 0.0533413 8.15153 1.24052 7.97766L7.28633 7.09607C7.75778 7.02751 8.16573 6.7312 8.3758 6.30266L11.0799 0.809948C11.61 -0.269983 13.1465 -0.269983 13.6766 0.809948H13.679Z" fill="#FCD424"/>
<path d="M24.3197 10.451C25.1795 9.61109 24.7056 8.14915 23.5185 7.97528L17.4726 7.0937C17.0012 7.02513 16.5932 6.72882 16.3832 6.30028L13.9648 1.38794C14.4412 4.40979 14.9004 9.50333 13.4665 13.3357C12.0571 17.102 7.60635 18.7281 4.65062 19.4088L4.19871 22.0487C3.99596 23.2339 5.23688 24.1375 6.29948 23.5792L11.7077 20.7287C12.1303 20.5059 12.6335 20.5059 13.0561 20.7287L18.4644 23.5792C19.527 24.14 20.7679 23.2339 20.5652 22.0487L19.5319 16.0123C19.4513 15.5421 19.6076 15.0597 19.9471 14.7267L24.3221 10.451H24.3197Z" fill="#F4BA00"/>
</svg>
