<svg width="365" height="44" viewBox="0 0 365 44" fill="none" xmlns="http://www.w3.org/2000/svg">
<path fill-rule="evenodd" clip-rule="evenodd" d="M362.87 11.9059C362.87 11.9059 363.783 11.9059 364.697 11.9059C365.063 11.9059 365.063 11.9059 364.88 11.9059C364.332 11.9059 363.601 11.9059 362.87 11.9059Z" fill="#582C1A"/>
<path fill-rule="evenodd" clip-rule="evenodd" d="M336.16 11.8298C333.744 11.8298 331.109 11.8298 328.694 11.8298C326.278 11.1538 323.424 11.8298 320.789 11.8298C321.887 11.4918 323.424 11.1538 324.522 10.8158C325.4 10.4778 325.18 9.80184 323.643 9.80184C320.349 9.80184 317.056 9.12585 313.762 9.46385H306.735C306.735 9.46385 307.394 9.46385 307.833 9.46385C307.833 9.46385 307.613 9.46385 307.394 9.46385C307.174 9.46385 307.174 9.46385 306.735 9.12585C306.515 9.12585 306.076 9.12585 305.857 9.12585C305.857 9.12585 305.783 9.12585 305.637 9.12585C305.637 9.12585 305.198 9.12585 304.978 9.12585C304.539 9.12585 304.539 9.12585 304.1 9.12585C301.904 8.44986 299.489 9.12585 297.073 9.12585C296.414 8.78786 295.536 8.44986 294.438 8.11187H293.56C293.56 8.11187 294.219 7.77388 294.438 7.43588C295.097 7.43588 295.756 7.43588 296.195 7.43588H298.83C298.83 7.43588 300.147 7.43588 300.587 7.43588H302.343C302.343 7.43588 303.88 7.43588 304.978 7.43588C305.198 7.43588 305.637 7.43588 305.857 7.43588H307.613C307.613 7.43588 308.931 7.43588 309.37 7.43588C310.248 7.43588 311.127 7.43588 312.225 7.43588C313.103 7.43588 313.981 7.43588 314.86 7.43588H316.616C318.593 7.43588 320.789 7.43588 322.984 7.43588H330.89C330.89 7.43588 331.548 7.43588 331.768 7.09789H334.403C334.403 7.09789 335.721 7.09789 336.16 7.09789C337.258 7.09789 338.575 7.09789 339.673 7.09789C339.893 7.09789 340.332 7.09789 340.551 7.09789C342.528 7.09789 344.724 7.09789 346.7 7.09789C347.139 7.09789 348.017 7.09789 348.457 7.09789C349.335 7.09789 350.213 7.09789 351.092 7.09789C352.848 7.09789 353.434 6.87256 352.848 6.4219H350.213C350.213 6.4219 348.017 6.4219 346.7 6.4219H344.943C344.943 6.4219 344.943 6.4219 344.504 6.4219C344.504 6.4219 344.065 6.4219 343.845 6.4219H337.697C337.697 6.4219 335.721 6.4219 334.403 6.0839H322.545C322.545 6.0839 320.13 6.0839 319.032 6.0839C313.981 6.0839 308.931 6.0839 303.661 6.0839C302.343 5.74591 300.806 6.0839 299.269 6.0839H297.512C295.975 5.40791 293.34 6.0839 291.803 5.40791C293.34 3.71794 293.121 3.37995 288.509 3.71794C283.02 3.71794 277.969 3.37995 272.919 2.70396C267.209 2.36596 261.5 2.36596 255.791 2.02797C250.081 2.02797 244.372 2.02797 238.663 2.02797C229.66 2.02797 220.657 2.02797 211.873 2.02797C210.556 2.02797 209.458 2.02797 208.36 2.02797C201.772 2.36596 195.185 2.36596 188.597 2.70396C186.621 2.70396 184.425 2.70396 182.449 2.70396C180.472 2.70396 178.716 2.70396 176.739 2.70396C170.152 2.70396 163.564 2.70396 156.977 2.02797C155.879 2.02797 154.561 2.02797 153.463 2.02797C144.46 2.02797 135.457 2.02797 126.454 2.02797C120.745 2.02797 114.816 2.02797 109.326 2.02797C103.617 2.02797 97.9076 2.02797 92.1983 2.70396C87.1478 3.04195 82.0973 3.71794 76.6076 3.71794C71.9963 3.71794 71.7767 3.71794 73.3138 5.40791C71.5571 5.74591 69.1416 5.40791 67.6045 5.74591C66.9458 5.74591 66.5066 5.74591 65.8478 5.74591C64.3107 5.74591 62.7736 5.74591 61.4561 5.74591C56.4056 5.74591 51.3551 5.74591 46.3046 5.74591C45.2066 5.74591 43.6695 5.74591 42.7912 5.74591C41.6932 5.74591 40.3757 5.74591 39.2778 5.74591H30.9335C29.8355 5.74591 28.518 5.74591 27.6397 5.74591C25.6634 5.74591 23.4675 5.74591 21.2716 5.74591C21.052 5.74591 20.8325 5.74591 20.6129 5.74591H18.417C17.3191 5.74591 16.0015 5.74591 14.9036 5.74591H12.2685C12.2685 5.74591 11.6098 6.4219 14.0252 6.4219H16.6603C16.6603 6.4219 17.9778 6.4219 18.417 6.4219C20.6129 6.4219 22.5891 6.4219 24.785 6.4219C25.2242 6.4219 25.4438 6.4219 25.6634 6.4219C26.7613 6.4219 28.0788 6.4219 29.1768 6.4219C29.6159 6.4219 30.7139 6.4219 30.9335 6.4219C31.8118 6.4219 32.6902 6.4219 33.5685 6.4219C34.0077 6.4219 34.2273 6.4219 34.4469 6.4219H42.352C44.3283 7.09789 46.5242 6.4219 48.72 6.4219H50.4767C50.4767 6.4219 52.2334 6.4219 53.1118 6.4219H55.7468C55.7468 6.4219 57.0643 6.4219 57.5035 6.75989C58.1623 6.75989 58.821 6.75989 59.2602 6.75989C59.4798 6.75989 59.6994 6.75989 60.1386 6.75989C61.0169 6.75989 61.8953 6.75989 62.7736 6.75989H64.7499C64.7499 6.75989 65.6282 6.75989 66.5066 6.75989H69.1416C69.1416 6.75989 70.2396 6.75989 70.8983 6.75989C71.1179 6.75989 71.5571 7.09789 71.7767 7.43588C71.5571 7.43588 71.3375 7.43588 70.8983 7.43588C69.5808 7.43588 68.922 7.77388 68.0437 8.44986C65.8478 8.44986 62.9932 8.44986 61.0169 8.44986H60.1386C60.1386 8.44986 59.919 8.44986 59.4798 8.44986C59.2602 8.44986 59.2602 8.44986 59.2602 8.44986H58.3819C58.3819 8.44986 57.9427 8.44986 57.7231 8.78786C57.7231 8.78786 57.7231 8.78786 57.5035 8.78786C57.7231 8.78786 58.1623 8.78786 58.3819 8.44986H51.3551C48.0613 8.44986 44.7675 8.78786 41.2541 8.78786C39.9365 8.78786 39.4974 9.12585 40.3757 9.80184C41.2541 10.4778 42.7912 10.4778 44.1087 10.8158C41.4736 10.8158 38.619 10.8158 36.2036 10.8158C33.5685 10.8158 31.153 10.8158 28.7376 10.8158C22.8087 10.8158 17.0995 10.8158 11.1706 10.8158C9.41392 10.8158 7.43763 10.8158 5.68093 10.8158C5.68093 11.4918 6.55928 11.8298 7.43763 11.8298C10.0727 11.8298 12.9273 12.5058 15.5624 11.8298C16.2211 11.8298 16.8799 11.8298 17.3191 11.8298C21.4912 11.8298 25.883 12.5058 30.0551 12.8438C39.2778 12.8438 48.0613 13.8578 57.0643 14.5338C58.3819 14.5338 59.2602 14.8718 59.919 15.5477C58.6015 15.5477 57.2839 15.5477 56.4056 15.8857C49.5984 15.8857 43.0108 16.2237 36.2036 15.8857C34.886 15.8857 33.3489 15.8857 32.0314 16.2237C30.4943 16.2237 30.4943 16.8997 31.5922 17.2377C31.8118 17.2377 32.4706 17.2377 33.1293 17.5757C33.7881 17.9137 34.6664 18.2517 35.984 18.5897C35.984 18.5897 36.2036 19.9417 38.619 19.9417C38.619 19.9417 39.717 20.2797 40.3757 20.2797C43.4499 20.9557 46.3046 21.9696 50.0375 21.9696C52.8922 21.9696 54.2097 23.3216 56.186 23.9976C56.6252 23.9976 57.2839 23.9976 57.9427 24.3356C57.9427 24.3356 59.2602 24.3356 59.6994 24.3356H64.0911C64.0911 24.3356 66.0674 25.0116 66.7262 25.3496C66.7262 25.3496 67.1654 26.0256 67.6045 26.0256C67.6045 26.7016 68.7025 27.3776 66.0674 27.3776C64.0911 27.3776 63.8715 28.0535 63.2128 28.7295C63.2128 28.7295 61.6757 29.4055 60.5777 29.7435C60.5777 29.7435 59.919 29.7435 59.6994 29.7435C53.1118 29.7435 47.4025 30.4195 42.352 32.1095C41.0345 32.4475 41.4736 33.1235 42.5716 33.4615C42.5716 33.4615 42.5716 33.4615 43.0108 33.4615C43.2303 33.4615 43.2303 33.4615 43.6695 33.4615H44.5479C46.085 33.4615 47.6221 33.4615 49.1592 33.4615C49.3788 33.4615 49.3788 33.4615 49.818 33.7995C50.2571 34.1374 51.1355 34.4754 50.9159 35.1514C48.0613 35.1514 46.7437 35.8274 44.7675 36.5034C44.1087 36.5034 42.7912 36.5034 42.1324 36.5034C40.8149 36.5034 39.4974 36.5034 38.619 36.5034H36.8623C35.5448 36.5034 34.2273 36.5034 33.5685 37.1794V37.5174C34.886 37.5174 36.4231 37.8554 37.5211 37.5174C37.5211 37.5174 37.9603 37.5174 38.1798 37.5174H39.2778C40.8149 37.5174 42.352 37.5174 43.6695 37.5174H45.4262C48.2809 37.5174 51.3551 37.5174 54.2097 37.5174C55.3076 37.5174 56.8447 37.5174 57.5035 37.5174C58.1623 38.1934 56.4056 38.1934 55.5272 38.5314C53.5509 39.2074 51.3551 39.5454 48.9396 39.8834C50.9159 40.5594 53.5509 40.2214 55.3076 40.8973C58.3819 41.5733 61.8953 41.5733 64.9695 40.8973H65.8478C67.3849 40.8973 69.1416 40.8973 70.4592 40.8973C71.9963 40.8973 73.753 40.8973 75.0705 40.8973C77.0468 40.8973 79.2426 40.8973 81.2189 40.8973C81.4385 40.8973 81.6581 40.8973 82.0973 40.8973C83.4148 40.8973 84.7323 40.8973 85.8303 40.8973H86.7086C86.7086 40.8973 88.0261 40.8973 88.4653 40.8973C88.6849 40.8973 88.9045 40.8973 89.1241 40.8973H89.3437C89.5632 40.8973 90.0024 40.8973 90.222 40.8973C90.6612 40.8973 90.8808 40.8973 91.1003 40.8973C91.7591 40.8973 92.4179 40.8973 93.0766 40.8973C96.3705 41.2353 99.4447 41.5733 102.519 40.8973C103.178 40.8973 104.056 40.8973 104.495 40.8973C104.715 40.8973 104.934 40.8973 105.374 40.8973C107.569 41.5733 109.765 40.8973 112.181 40.8973C113.718 40.8973 115.255 40.5593 116.792 40.8973C117.67 40.8973 118.549 40.8973 119.208 40.8973C119.866 40.8973 120.525 40.5593 121.184 40.8973C123.38 41.2353 125.136 40.8973 127.113 40.8973H128.43C131.944 40.8973 135.237 40.8973 138.97 40.8973C139.41 40.8973 139.849 40.8973 140.288 40.8973H140.727C141.386 40.8973 141.605 40.8973 142.045 41.2353C140.068 41.2353 138.312 41.5733 136.335 41.9113C143.143 41.9113 149.95 42.5873 156.977 41.9113C158.733 41.9113 160.49 41.9113 162.247 41.9113C164.882 41.9113 167.297 41.9113 169.713 41.9113C172.787 41.5733 176.081 41.5733 179.155 41.5733C179.814 41.5733 180.472 41.5733 180.912 41.5733H182.449C182.449 41.5733 184.205 41.5733 185.084 41.5733C188.377 41.5733 191.452 41.5733 194.306 41.9113C196.722 42.2493 199.357 41.9113 201.772 41.9113C203.529 41.9113 205.286 41.9113 207.262 41.9113C213.85 42.5873 220.876 41.9113 227.684 41.9113C225.927 41.9113 223.951 41.5733 221.974 41.2353C222.414 41.2353 222.853 40.8973 223.292 40.8973C223.292 40.8973 223.511 40.8973 223.731 40.8973C224.17 40.8973 224.609 40.8973 225.049 40.8973C228.562 40.8973 232.075 40.8973 235.589 40.8973C236.028 40.8973 236.467 40.8973 236.906 40.8973C238.883 40.8973 240.859 41.2353 242.835 40.8973C243.494 40.8973 244.153 40.8973 244.811 40.8973C245.47 40.8973 246.349 41.2353 247.227 40.8973C248.764 40.8973 250.521 40.8973 252.058 40.8973C254.254 40.8973 256.45 41.5733 258.645 40.8973C258.865 40.8973 259.304 40.8973 259.524 40.8973C259.963 40.8973 260.841 40.8973 261.28 40.8973C264.574 41.5733 267.868 41.2353 270.942 40.8973C271.381 40.8973 272.26 40.8973 272.699 40.8973C272.919 40.8973 273.138 40.8973 273.577 40.8973C274.017 40.8973 274.236 40.8973 274.456 40.8973C274.456 40.8973 274.456 40.8973 274.675 40.8973C274.675 40.8973 274.895 40.8973 275.334 40.8973C275.993 40.8973 276.652 40.8973 277.091 40.8973C277.31 40.8973 277.749 40.8973 277.969 40.8973C278.847 41.2353 280.385 40.8973 281.482 40.8973C281.702 40.8973 282.141 40.8973 282.361 40.8973C284.118 41.5733 286.533 40.8973 288.509 40.8973C289.607 41.5733 291.364 40.8973 292.901 40.8973C294.219 41.5733 295.756 40.8973 297.512 40.8973C297.952 40.8973 297.952 40.8973 298.171 40.8973C301.465 41.5733 304.759 41.5733 307.833 40.8973C309.809 40.5593 312.444 40.8973 314.421 39.8834C312.005 39.8834 309.59 39.2074 307.833 38.5314C306.955 38.5314 305.198 38.1934 305.857 37.5174C306.296 37.1794 307.833 37.1794 309.15 37.1794C312.005 37.1794 314.86 37.1794 317.934 37.1794C318.593 37.1794 319.032 37.1794 319.691 37.1794C321.008 37.5174 322.765 37.1794 324.082 37.1794C324.302 37.1794 324.741 37.1794 324.961 37.1794C324.961 37.1794 324.961 37.1794 325.18 37.1794C325.18 37.1794 325.619 37.1794 325.839 37.1794C326.937 37.5174 328.474 37.5174 329.792 37.1794C330.011 37.1794 330.231 37.1794 330.011 36.8414C329.352 36.1654 328.035 36.1654 326.717 36.1654C326.278 36.1654 325.619 36.1654 324.961 36.1654C324.082 35.8274 322.545 36.1654 321.447 36.1654C320.789 36.1654 319.471 36.1654 318.812 36.1654C316.836 35.4894 315.518 34.8134 312.664 34.8134C312.444 34.4754 313.542 33.7995 313.762 33.4615C313.762 33.4615 313.981 33.4615 314.421 33.1235C315.958 33.1235 317.495 33.1235 319.032 33.1235C319.251 33.1235 319.691 33.1235 319.91 33.1235C320.349 33.1235 320.349 33.1235 320.569 33.1235H320.789C321.887 33.1235 322.326 32.4475 320.789 31.7715C315.958 30.0815 310.029 29.4055 303.441 29.4055C303.002 29.4055 303.002 29.4055 302.563 29.4055C302.563 29.4055 300.806 28.7295 299.928 28.3915C299.928 28.3915 298.83 27.0396 297.073 27.0396C294.438 27.0396 295.536 26.3636 295.536 25.6876C295.756 25.6876 296.195 25.6876 296.414 25.3496C296.414 25.3496 297.952 24.3356 299.049 23.9976H303.441C303.441 23.9976 304.539 23.9976 305.198 23.9976C305.198 23.9976 306.515 23.9976 306.955 23.9976C309.15 23.3216 310.248 22.3076 313.323 21.9696C317.275 21.9696 319.91 20.9557 322.984 20.2797C322.984 20.2797 324.302 20.2797 324.741 20.2797C326.937 20.2797 327.376 19.6037 327.376 18.9277C328.694 18.9277 329.352 18.2517 330.231 17.9137C330.89 17.9137 331.548 17.9137 331.988 17.9137C333.085 17.5757 333.085 17.2377 331.548 16.8997C330.231 16.8997 328.694 16.5617 327.157 16.5617C320.349 16.5617 313.762 15.8857 306.955 16.5617C306.076 16.2237 304.759 16.5617 303.441 16.2237C304.1 15.8857 304.978 15.2098 306.296 15.2098C315.299 14.5338 324.082 13.8578 333.305 13.5198C337.697 13.5198 341.869 12.8438 346.041 12.5058C346.48 12.5058 347.139 12.5058 347.798 12.5058C350.652 13.1818 353.287 12.5058 356.142 12.5058C357.02 12.5058 357.899 12.5058 357.899 11.4918C355.923 11.4918 354.385 11.4918 352.409 11.4918C346.48 11.4918 340.771 11.1538 334.842 11.1538L336.16 11.8298ZM326.937 4.39393C326.937 4.39393 327.376 4.39393 327.596 4.39393C327.157 4.39393 327.157 4.39393 326.717 4.39393H326.937ZM323.204 4.39393H323.424C323.424 4.39393 323.863 4.39393 324.082 4.39393C324.082 4.39393 324.302 4.39393 324.522 4.39393H323.863C323.643 4.39393 323.204 4.39393 323.204 4.39393ZM298.171 3.37995C298.171 3.37995 298.391 3.37995 298.61 3.37995C298.61 3.37995 298.61 3.37995 298.391 3.37995H298.171ZM37.0819 4.39393C37.0819 4.39393 37.5211 4.39393 37.7407 4.39393C37.7407 4.39393 37.3015 4.39393 36.8623 4.39393H37.0819ZM41.0345 4.39393H40.1561C40.1561 4.39393 40.3757 4.39393 40.5953 4.39393C40.5953 4.39393 41.0345 4.39393 41.2541 4.39393H41.6932C41.4736 4.39393 41.2541 4.39393 41.0345 4.39393ZM66.5066 3.37995C66.5066 3.37995 66.287 3.37995 66.0674 3.37995H66.5066ZM43.8891 12.5058H44.1087C44.1087 12.5058 44.1087 12.5058 43.8891 12.5058ZM59.2602 20.9557C59.2602 20.9557 59.2602 20.9557 59.4798 20.9557H59.2602ZM63.652 15.8857C63.652 15.8857 63.652 15.8857 63.8715 15.8857C63.8715 15.8857 63.652 15.8857 63.4324 15.8857H63.652ZM54.6489 37.1794C54.4293 37.1794 54.4293 37.1794 54.2097 37.1794H54.6489ZM58.6015 41.9113C58.6015 41.9113 59.919 41.9113 60.3581 41.2353C59.919 41.2353 59.2602 41.5733 58.821 41.9113H58.6015ZM79.0231 9.12585C79.0231 9.12585 78.8035 9.12585 78.5839 9.12585H79.0231ZM89.7828 19.2657C89.7828 19.2657 90.4416 19.2657 89.7828 19.9417C90.4416 19.9417 90.0024 19.6037 89.7828 19.2657ZM118.11 10.1398C118.11 10.1398 117.89 10.1398 117.67 10.1398C117.67 10.1398 117.89 10.1398 118.11 10.1398ZM117.89 20.2797C117.89 20.2797 118.329 20.2797 118.549 20.2797C118.329 20.2797 118.11 20.2797 118.11 20.2797H117.89ZM123.38 5.06992C123.38 5.06992 123.819 5.06992 124.038 5.06992H123.38ZM122.721 27.3776C122.721 27.3776 123.38 27.3776 123.599 27.3776C123.38 27.3776 123.16 27.3776 122.941 27.3776H122.721ZM125.795 39.2074C125.795 39.2074 125.576 39.2074 125.356 39.2074C125.356 39.2074 125.356 39.2074 125.136 39.2074C125.356 39.2074 125.356 39.2074 126.015 39.2074H125.795ZM125.356 29.0675C125.356 29.0675 124.038 29.4055 123.38 29.7435C124.917 29.7435 126.015 29.7435 126.015 28.7295C126.015 28.7295 126.015 28.7295 126.234 28.7295C125.795 28.7295 125.576 28.7295 125.356 28.7295V29.0675ZM145.778 15.5477C145.778 15.5477 145.778 15.5477 145.558 15.5477C145.558 15.5477 145.558 15.5477 145.778 15.5477ZM149.511 0.675989C149.511 0.675989 149.73 0.675989 149.95 0.675989C149.95 0.675989 149.73 0.675989 149.511 0.675989ZM160.929 34.8134H161.368C161.368 34.8134 161.149 34.8134 160.929 34.8134ZM167.736 28.3915C167.736 28.3915 167.956 28.3915 168.175 28.3915H167.736ZM171.25 0H171.689C171.689 0 172.128 0.337995 172.787 0.337995C172.128 0.337995 171.689 0.337995 171.469 0H171.25ZM187.938 41.2353C187.28 41.2353 186.621 41.2353 185.962 41.2353C183.107 41.2353 180.472 41.2353 177.837 41.2353C177.837 41.2353 177.837 41.2353 178.057 41.2353C177.179 41.2353 176.52 41.2353 175.641 41.2353H176.081C176.081 41.2353 176.959 41.2353 177.179 41.2353C177.398 41.2353 177.618 41.2353 177.837 41.2353C179.374 41.2353 180.912 41.2353 182.449 41.2353C184.205 41.2353 185.962 41.2353 187.719 41.2353C187.719 41.2353 188.158 41.2353 188.377 41.2353C188.597 41.2353 189.036 41.2353 189.256 41.2353C188.817 41.2353 188.158 41.2353 187.499 41.2353H187.938ZM193.648 0.337995C193.648 0.337995 194.526 0.337995 194.526 0H194.746C194.746 0 194.306 0.337995 193.428 0.337995H193.648ZM205.066 34.4754C205.066 34.4754 204.847 34.4754 204.627 34.4754H205.066ZM216.045 0.337995C216.045 0.337995 216.045 0.337995 216.485 0.337995C216.265 0.337995 216.265 0.337995 216.045 0.337995ZM243.055 5.40791C243.055 5.40791 242.835 5.40791 242.616 5.40791C242.835 5.40791 243.055 5.40791 243.274 5.40791H243.055ZM240.639 39.2074H240.42C240.42 39.2074 240.859 39.2074 241.078 39.2074C240.859 39.2074 241.078 39.2074 240.639 39.2074ZM240.639 29.0675C240.639 29.0675 240.2 29.0675 239.761 29.0675C239.761 29.0675 239.761 29.0675 239.98 29.0675C239.98 29.7435 240.859 30.0815 242.616 30.0815C241.737 30.0815 241.078 29.7435 240.639 29.4055V29.0675ZM243.055 27.7156C243.055 27.7156 242.396 27.7156 242.176 27.7156C242.616 27.7156 242.835 27.7156 243.274 27.7156H243.055ZM248.325 10.1398C248.325 10.1398 248.325 10.1398 247.886 10.1398C247.886 10.1398 248.105 10.1398 248.325 10.1398ZM248.325 20.2797C248.325 20.2797 248.325 20.2797 247.886 20.2797C247.886 20.2797 248.105 20.2797 248.544 20.2797H248.325ZM276.212 18.5897C276.212 18.5897 275.554 18.9277 276.212 19.2657C275.554 19.2657 275.773 18.5897 276.212 18.5897ZM283.898 17.9137C283.898 17.9137 283.898 17.9137 283.678 17.9137C283.678 17.9137 283.678 17.9137 283.898 17.9137ZM286.313 8.44986H286.533C286.533 8.44986 286.533 8.44986 286.753 8.44986C286.753 8.44986 286.533 8.44986 286.313 8.44986ZM310.688 35.8274H310.907C310.907 35.8274 310.907 35.8274 310.688 35.8274ZM306.955 40.8973C306.955 40.8973 305.857 40.5594 305.417 40.2214C305.857 40.2214 306.076 40.8973 306.955 40.8973ZM301.465 14.8718C301.465 14.8718 301.465 14.8718 301.245 14.8718H301.465ZM306.296 19.9417C306.296 19.9417 306.296 19.9417 306.515 19.9417H306.296ZM321.447 11.4918C321.447 11.4918 321.447 11.4918 321.228 11.4918C321.228 11.4918 321.228 11.4918 321.447 11.4918Z" fill="#582C1A"/>
<path fill-rule="evenodd" clip-rule="evenodd" d="M250.03 43.2941C250.03 43.2941 250.339 43.2941 250.493 43.2941C250.647 43.2941 250.802 43.2941 250.493 43.2941C250.493 43.2941 250.184 43.2941 250.03 43.2941Z" fill="#582C1A"/>
<path fill-rule="evenodd" clip-rule="evenodd" d="M338.726 9.74118C337.779 9.74118 337.779 9.74118 338.726 9.74118V9.74118Z" fill="#582C1A"/>
<path fill-rule="evenodd" clip-rule="evenodd" d="M0.387336 11.9059C0.387336 11.9059 1.74301 11.9059 2.13035 11.9059C1.35568 11.9059 0.581005 11.9059 0 11.9059C0 11.9059 0 11.9059 0.193668 11.9059H0.387336Z" fill="#582C1A"/>
<path fill-rule="evenodd" clip-rule="evenodd" d="M114.506 43.2941C114.684 43.2941 115.039 43.2941 115.039 43.2941C115.039 43.2941 115.039 43.2941 114.861 43.2941C114.861 43.2941 114.506 43.2941 114.329 43.2941H114.506Z" fill="#582C1A"/>
<path fill-rule="evenodd" clip-rule="evenodd" d="M26.2743 9.74118C26.2743 9.74118 26.2743 9.74118 26.6801 9.74118C27.0859 9.74118 27.0859 9.74118 26.6801 9.74118H26.2743Z" fill="#582C1A"/>
</svg>
