<svg width="1379" height="1056" viewBox="0 0 1379 1056" fill="none" xmlns="http://www.w3.org/2000/svg">
<g clip-path="url(#clip0_73_124)">
<path d="M1217.07 912.336C1217.07 937.375 1210.46 957.707 1197.25 973.323C1184.05 988.932 1164.57 996.736 1138.84 996.736V960.195C1157.03 960.195 1166.11 948.015 1166.11 923.654V916.967H1131.63V847.49H1205.22C1213.11 869.108 1217.05 890.718 1217.05 912.336H1217.07ZM1110.53 912.336C1110.53 937.375 1103.93 957.707 1090.72 973.323C1077.51 988.932 1058.04 996.736 1032.3 996.736V960.195C1050.83 960.195 1060.09 948.015 1060.09 923.654V916.967H1025.1V847.49H1098.69C1106.59 868.075 1110.53 889.694 1110.53 912.336H1110.53Z" fill="#FFD912"/>
<path d="M158.012 84.4C158.012 59.3612 164.614 39.0297 177.827 23.4132C191.024 7.8044 210.501 0 236.233 0V36.5412C218.043 36.5412 208.96 48.7216 208.96 73.0824V79.7697H243.444V149.247H169.853C161.956 127.628 158.019 106.018 158.019 84.4H158.012ZM264.538 84.4C264.538 59.3612 271.141 39.0297 284.354 23.4132C297.559 7.8044 317.035 0 342.767 0V36.5412C324.238 36.5412 314.978 48.7216 314.978 73.0824V79.7697H349.971V149.247H276.38C268.483 128.661 264.546 107.043 264.546 84.4H264.538Z" fill="#FFD912"/>
<path d="M231.112 1055.24L254.155 905.256H100.486C45.0775 905.256 0 860.178 0 804.769V193.33C0 137.921 45.0775 92.8438 100.486 92.8438H132.051V115.956H100.486C57.8203 115.956 23.1127 150.664 23.1127 193.33V804.762C23.1127 847.428 57.8203 882.135 100.486 882.135H281.089L261.936 1006.82L448.387 882.135H997.16V905.248H455.405L231.12 1055.23L231.112 1055.24Z" fill="white"/>
<path d="M1277.52 905.256H1241.07V882.143H1277.52C1320.18 882.143 1354.89 847.436 1354.89 804.77V193.33C1354.89 150.664 1320.18 115.956 1277.52 115.956H378.725V92.8438H1277.52C1332.93 92.8438 1378.01 137.921 1378.01 193.33V804.762C1378.01 860.171 1332.93 905.248 1277.52 905.248L1277.52 905.256Z" fill="white"/>
</g>
<defs>
<clipPath id="clip0_73_124">
<rect width="1378.01" height="1055.24" fill="white"/>
</clipPath>
</defs>
</svg>
