<svg width="550" height="800" viewBox="0 0 550 800" fill="none" xmlns="http://www.w3.org/2000/svg">
<path d="M489.023 697.207C489.023 714.435 486.261 728.424 480.735 739.17C475.211 749.909 467.064 755.279 456.301 755.279V730.137C463.91 730.137 467.709 721.756 467.709 704.994V700.393H453.285V652.588H484.067C487.37 667.463 489.016 682.332 489.016 697.207H489.023ZM444.461 697.207C444.461 714.435 441.7 728.424 436.173 739.17C430.65 749.909 422.503 755.279 411.74 755.279V730.137C419.49 730.137 423.363 721.756 423.363 704.994V700.393H408.727V652.588H439.508C442.812 666.752 444.458 681.627 444.458 697.207H444.461Z" fill="#FFD912"/>
<path d="M58.562 57.6044C58.562 40.515 61.3031 26.6384 66.7884 15.9799C72.2674 5.32663 80.3531 0 91.0359 0V24.94C83.4844 24.94 79.7134 33.2533 79.7134 49.88V54.4442H94.0297V101.863H63.478C60.1996 87.1086 58.5652 72.3592 58.5652 57.6044H58.562ZM102.787 57.6044C102.787 40.515 105.528 26.6384 111.013 15.9799C116.496 5.32663 124.581 0 135.264 0V24.94C127.572 24.94 123.727 33.2533 123.727 49.88V54.4442H138.255V101.863H107.703C104.425 87.8132 102.79 73.0585 102.79 57.6044H102.787Z" fill="#FFD912"/>
<path d="M92.2119 800L101.406 685.906H40.0933C17.9856 685.906 0 651.616 0 609.467V144.348C0 102.199 17.9856 67.9087 40.0933 67.9087H52.6873V85.4904H40.0933C23.0699 85.4904 9.22181 111.892 9.22181 144.348V609.461C9.22181 641.917 23.0699 668.319 40.0933 668.319H112.153L104.511 763.166L178.903 668.319H397.859V685.9H181.703L92.215 799.994L92.2119 800Z" fill="white"/>
<path d="M509.443 676.604H494.733V659.287H509.443C526.662 659.287 540.669 633.283 540.669 601.315V143.198C540.669 111.23 526.662 85.2258 509.443 85.2258H146.707V67.9087H509.446C531.808 67.9087 550 101.683 550 143.198V601.31C550 642.824 531.808 676.599 509.446 676.599L509.443 676.604Z" fill="white"/>
</svg>
