<svg width="464" height="296" viewBox="0 0 464 296" fill="none" xmlns="http://www.w3.org/2000/svg">
<path d="M463.552 295.975H0.0379639L0.309931 295.705L2.41609 293.625L3.70003 292.356L7.26723 288.825L8.31715 287.789L11.8274 284.315L16.0461 280.137H447.544L449.22 281.795L450.137 282.706L450.586 283.146L454.381 286.903L454.874 287.387L458.467 290.949L459.087 291.558L463.552 295.975Z" fill="url(#paint0_linear_1_630)"/>
<path d="M463.552 0V296L460.51 292.991L459.745 292.231L456.43 288.951L451.586 284.158L451.035 283.617L448.505 281.111L447.544 280.162V15.8378L463.552 0Z" fill="url(#paint1_linear_1_630)"/>
<path d="M463.514 0L456.829 6.61533L455.418 8.01002L453.647 9.7628L453.293 10.1083L447.588 15.7562L447.506 15.8378H16.0081L14.6356 14.4809L10.1513 10.0455L8.43098 8.34298L4.81318 4.76203L4.47797 4.42907L1.54325 1.52662L0 0H463.514Z" fill="url(#paint2_linear_1_630)"/>
<path d="M0 0L16.0081 15.8378V280.162L14.4459 281.708L13.0165 283.121L7.5708 288.505L6.9067 289.165L0 296V0Z" fill="url(#paint3_linear_1_630)"/>
<g style="mix-blend-mode:screen">
<path d="M14.408 14.2546V281.745H449.144L447.544 280.162H16.0081V15.8378L14.408 14.2546Z" fill="#6E6F72"/>
<path d="M0 0L1.60018 1.58316H461.952V294.411L463.552 296V0H0Z" fill="#6E6F72"/>
</g>
<g style="mix-blend-mode:multiply">
<path d="M1.60018 294.417V1.58316L0 0V296H463.552L461.952 294.417H1.60018Z" fill="#939598"/>
</g>
<g style="mix-blend-mode:multiply">
<path d="M449.144 281.745V14.2546H14.408L16.0081 15.8378H447.544V280.162L449.144 281.745Z" fill="#939598"/>
</g>
<g style="mix-blend-mode:multiply">
<path d="M441.517 291.784C443.876 291.489 451.32 291.163 458.429 290.911L457.752 290.239C447.405 290.151 434.629 290.126 428.14 290.427C416.173 290.98 406.667 291.539 404.902 292.275C403.144 293.016 422.504 293.386 428.842 293.386H449.258C449.258 293.386 436.583 292.4 441.51 291.784H441.517Z" fill="#D2D3D4"/>
</g>
<g style="mix-blend-mode:multiply">
<path d="M90.2488 290.384C101.735 290.352 112.531 290.145 112.531 290.145C112.531 290.145 102.614 290.226 90.2488 290.384Z" fill="#D2D3D4"/>
</g>
<g style="mix-blend-mode:multiply">
<path d="M75.5689 294.869C75.5689 294.869 41.4212 292.652 42.4775 291.684C43.1353 291.087 69.9841 290.635 90.2488 290.384C84.3794 290.403 78.3392 290.371 73.4564 290.246C59.0232 289.875 14.3131 290.616 10.4423 291.358C8.66501 291.697 6.37543 291.722 4.40841 291.653L3.70003 292.356L2.979 293.073C2.979 293.073 3.0296 293.073 3.0549 293.073C7.98193 293.123 24.8818 291.91 24.8818 291.91L32.9776 293.073H26.6401C26.6401 293.073 35.0079 295.768 51.3891 295.975H58.1567C70.1359 295.818 75.5752 294.869 75.5752 294.869H75.5689Z" fill="#D2D3D4"/>
</g>
<g style="mix-blend-mode:multiply">
<path d="M134.396 290.823C134.396 290.823 168.898 291.464 178.05 290.823C187.202 290.183 236.491 291.464 246.699 290.823C256.908 290.183 291.055 291.106 291.055 291.106C291.055 291.106 285.11 291.659 276.287 292.212C267.464 292.765 247.401 292.212 247.401 292.212C247.401 292.212 230.502 292.149 220.647 292.457C210.793 292.765 178.05 292.457 178.05 292.457L134.396 290.817V290.823Z" fill="#BDBEC0"/>
</g>
<g style="mix-blend-mode:multiply">
<path d="M261.076 280.841C276.287 282.487 314.116 284.365 329.162 284.02C347.599 283.605 365.188 283.75 376.94 283.85C379.754 283.875 382.234 283.925 384.308 284.02C395.067 284.491 416.147 285.76 422.599 286.972C429.05 288.185 371.652 288.775 367.889 288.574C364.126 288.373 323.103 288.574 323.103 288.574C323.483 287.695 391.987 288.229 395.149 287.199C395.984 286.928 388.704 286.005 377.889 285.823C343.431 285.257 267.603 285.05 261.069 280.834L261.076 280.841Z" fill="#BDBEC0"/>
</g>
<g style="mix-blend-mode:multiply">
<path d="M5.00301 207.921C5.00301 207.921 3.86455 224.589 3.7254 232.046C3.6242 237.706 2.70711 252.595 3.07395 265.449C3.07395 265.506 3.35856 274.483 3.43446 277.417C3.45976 278.303 4.10489 284.296 4.13651 284.315C4.42746 285 4.95242 284.183 5.14216 283.015C5.15481 282.92 5.17378 282.82 5.19276 282.726C6.33123 281.456 5.52165 278.931 6.09088 277.511C6.09721 277.461 6.10353 277.404 6.10986 277.354C6.48302 274.207 6.64747 270.732 6.64747 268.672C6.64747 267.126 6.76764 263.219 6.90678 258.488C6.90678 258.369 6.91311 258.243 6.91943 258.124C6.88992 257.843 6.89835 257.596 6.94473 257.382C6.94473 257.257 6.95106 257.131 6.95738 257.006C7.22935 247.858 7.53926 236.349 7.242 232.485C6.87516 227.711 6.79926 222.283 6.73601 222.321C6.51464 222.44 6.3249 229.118 6.41977 231.832C6.502 234.213 6.65379 248.436 6.36917 256.27C6.36917 256.346 6.36285 256.409 6.35652 256.478C5.79362 258.212 5.72404 265.531 5.18011 267.051C4.63617 265.537 5.09156 239.71 5.00934 234.031C4.88917 225.914 5.00934 207.934 5.00934 207.934L5.00301 207.921Z" fill="#D2D3D4"/>
</g>
<g style="mix-blend-mode:multiply">
<path d="M88.7308 2.17989C100.217 2.14848 111.013 1.94116 111.013 1.94116C111.013 1.94116 101.096 2.02283 88.7308 2.17989Z" fill="#D2D3D4"/>
</g>
<g style="mix-blend-mode:multiply">
<path d="M88.7308 2.18016C82.8614 2.19901 76.8149 2.1676 71.9384 2.04195C57.5052 1.67129 12.7951 2.41261 8.9243 3.15393C7.33044 3.45548 5.31915 3.51202 3.51025 3.46805L4.48428 4.43553L4.81949 4.7685L4.85744 4.80619C11.6187 4.5549 23.3575 3.71306 23.3575 3.71306L31.4533 4.8753H25.1158C25.1158 4.8753 33.5658 7.59556 50.1115 7.78403C66.6572 7.9725 74.0509 6.67205 74.0509 6.67205C74.0509 6.67205 39.9032 4.45438 40.9595 3.48689C41.6173 2.89007 68.4661 2.43774 88.7308 2.18644V2.18016Z" fill="#D2D3D4"/>
</g>
<g style="mix-blend-mode:multiply">
<path d="M47.7017 0.929688C47.7017 0.929688 211.401 1.30035 222.317 1.8532C233.227 2.40604 241.677 2.7767 244.498 3.33583C247.319 3.89496 151.561 6.4833 151.561 6.4833C151.561 6.4833 202.609 4.81847 205.424 3.70649C208.238 2.59451 47.708 0.929688 47.708 0.929688H47.7017Z" fill="#E6E7E7"/>
</g>
<g style="mix-blend-mode:multiply">
<path d="M146.622 6.47729L43.1226 9.80695C43.1226 11.2896 151.903 9.80695 151.903 9.80695C151.903 9.80695 118.173 9.24782 123.739 8.14212C129.304 7.03643 146.622 6.47729 146.622 6.47729Z" fill="#D2D3D4"/>
</g>
<g style="mix-blend-mode:multiply">
<path d="M57.8847 285.427C71.3818 285.609 98.1358 284.686 113.979 285.427C129.823 286.168 162.915 287.462 182.275 287.645C201.635 287.827 250.924 289.492 256.908 289.492C262.891 289.492 290.701 289.862 291.757 289.492C292.814 289.121 251.272 288.009 240.71 288.009C230.147 288.009 192.483 285.791 181.921 285.973C171.358 286.156 141.79 285.603 132.283 285.232C122.777 284.861 86.5171 282.826 62.9319 283.385C48.3595 283.731 26.5389 284.001 11.9855 284.158L11.8337 284.309L11.3467 284.792C26.4883 285.088 48.7327 285.301 57.8847 285.421V285.427Z" fill="#BDBEC0"/>
</g>
<g style="mix-blend-mode:multiply">
<path d="M11.9792 77.625C11.9792 108.295 11.6566 182.798 10.689 182.861C9.0698 182.961 6.16671 119.717 6.16671 96.2647C6.16671 83.009 5.07252 44.4729 4.89542 7.87185C4.89542 6.8541 4.88277 5.83636 4.88277 4.8249L4.26294 4.20923C4.46533 32.4296 4.72465 60.1349 5.04089 83.6937C5.39508 109.816 5.38876 131.302 6.16671 143.169C9.71493 197.291 9.42399 226.756 11.0115 226.756C11.9792 226.756 13.162 131.239 12.8773 99.3682C12.7382 83.4676 12.5231 47.7272 12.2259 12.0936L11.429 11.3083C11.8021 42.6385 11.9792 68.3585 11.9792 77.625Z" fill="#D2D3D4"/>
</g>
<g style="mix-blend-mode:multiply">
<path d="M459.959 65.7954C460.067 86.9921 461.585 138.991 461.996 159.817C462.401 180.637 462.129 236.663 463.52 238.554C463.52 238.554 462.61 62.1516 460.573 37.9205C459.687 27.3535 458.77 15.9259 457.91 5.57886L456.506 6.96726C457.967 22.8742 459.884 50.7114 459.959 65.7954Z" fill="#D2D3D4"/>
</g>
<g style="mix-blend-mode:multiply">
<path d="M451.794 11.635C452.521 20.9643 450.751 54.933 451.149 66.1219C451.554 77.4804 450.966 118.743 450.245 134.26C449.524 149.778 450.245 236.468 450.245 236.468C450.245 236.468 450.947 147.51 451.965 122.902C452.983 98.2939 453.571 46.056 453.274 33.5667C453.129 27.3346 453.11 17.8042 453.255 10.1963L451.794 11.6412V11.635Z" fill="#D2D3D4"/>
</g>
<g style="mix-blend-mode:multiply">
<path d="M460.915 293.387L461.623 294.09C461.484 279.358 461.332 265.267 461.155 252.407C460.801 226.285 460.807 204.799 460.029 192.932C456.481 138.809 456.772 109.345 455.184 109.345C454.217 109.345 453.034 204.862 453.318 236.732C453.407 246.878 453.527 265.103 453.679 286.225L454.381 286.916C454.274 273.66 454.217 263.577 454.217 258.476C454.217 227.805 454.539 153.302 455.507 153.24C457.126 153.139 460.029 216.384 460.029 239.836C460.029 248.851 460.535 269.551 460.915 293.38V293.387Z" fill="#D2D3D4"/>
</g>
<g style="mix-blend-mode:multiply">
<path d="M453.274 10.1335C415.781 9.64347 345.841 8.75137 310.922 8.47495C261.822 8.08544 169.682 10.4665 169.682 10.4665C170.353 12.7784 199.276 12.3951 232.235 12.0433C265.193 11.6915 288.057 10.9816 344.234 10.4665C380.336 10.1335 425.445 10.2277 453.072 10.3408L453.281 10.1335H453.274Z" fill="#D2D3D4"/>
</g>
<g style="mix-blend-mode:multiply">
<path d="M456.727 6.71581C446.981 5.9368 436.305 5.10753 430.163 4.70546C416.793 3.81964 326.101 6.44567 332.293 4.70546C338.485 2.96524 401.037 0.936035 401.037 0.936035H330.383L358.073 2.58202H335.158C327.998 2.58202 288.374 5.33997 288.374 5.33997C288.374 5.33997 296.969 6.59645 306.513 6.38913C316.064 6.18181 369.053 7.09275 386.718 6.48336C398.248 6.08129 432.946 7.05506 455.659 7.77753L456.727 6.71581Z" fill="#D2D3D4"/>
</g>
<defs>
<linearGradient id="paint0_linear_1_630" x1="0.0379639" y1="288.059" x2="463.552" y2="288.059" gradientUnits="userSpaceOnUse">
<stop stop-color="#C29961"/>
<stop offset="1" stop-color="#D8B37C"/>
</linearGradient>
<linearGradient id="paint1_linear_1_630" x1="455.551" y1="296" x2="455.551" y2="0" gradientUnits="userSpaceOnUse">
<stop stop-color="#C29961"/>
<stop offset="1" stop-color="#D8B37C"/>
</linearGradient>
<linearGradient id="paint2_linear_1_630" x1="0" y1="7.91578" x2="463.514" y2="7.91578" gradientUnits="userSpaceOnUse">
<stop stop-color="#C29961"/>
<stop offset="1" stop-color="#D8B37C"/>
</linearGradient>
<linearGradient id="paint3_linear_1_630" x1="8.00722" y1="296" x2="8.00722" y2="0" gradientUnits="userSpaceOnUse">
<stop stop-color="#C29961"/>
<stop offset="1" stop-color="#D8B37C"/>
</linearGradient>
</defs>
</svg>
