<svg width="561" height="319" viewBox="0 0 561 319" fill="none" xmlns="http://www.w3.org/2000/svg">
<g clip-path="url(#clip0_44_828)">
<path d="M153.098 4.57812C150.298 6.09096 147.859 8.0646 145.886 10.5831C145.779 10.7222 145.671 10.8555 145.573 10.9946L143.643 10.0933L116.925 4.57812H153.098Z" fill="#F5C47D"/>
<path d="M12.1943 4.57812H2.00293V317.578H12.1943V4.57812Z" fill="#FFE6C7"/>
<path d="M559.003 4.57812H548.812V317.578H559.003V4.57812Z" fill="#FFE6C7"/>
<path d="M552.171 4.57812H548.812V317.578H552.171V4.57812Z" fill="#FFE6C7"/>
<path d="M558.907 14.9912V4.57812L2.00299 4.57813V14.9912L558.907 14.9912Z" fill="#FFE6C7"/>
<path d="M558.689 317.578V307.165L2.16815 307.165V317.578L558.689 317.578Z" fill="#FFE6C7"/>
<path d="M24.1669 9.09912H22.7686V14.9882H24.1669V9.09912Z" fill="#966C4F"/>
<path d="M54.4073 9.09912H53.009V14.9882H54.4073V9.09912Z" fill="#966C4F"/>
<path d="M84.6449 9.09912H83.2466V14.9882H84.6449V9.09912Z" fill="#966C4F"/>
<path d="M114.885 9.09912H113.487V14.9882H114.885V9.09912Z" fill="#966C4F"/>
<path d="M145.126 9.09912H143.728V14.9882H145.126V9.09912Z" fill="#966C4F"/>
<path d="M175.363 9.09912H173.965V14.9882H175.363V9.09912Z" fill="#966C4F"/>
<path d="M205.604 9.09912H204.206V14.9882H205.604V9.09912Z" fill="#966C4F"/>
<path d="M235.844 9.09912H234.446V14.9882H235.844V9.09912Z" fill="#966C4F"/>
<path d="M266.082 9.09912H264.684V14.9882H266.082V9.09912Z" fill="#966C4F"/>
<path d="M296.322 9.09912H294.924V14.9882H296.322V9.09912Z" fill="#966C4F"/>
<path d="M326.563 9.09912H325.165V14.9882H326.563V9.09912Z" fill="#966C4F"/>
<path d="M356.8 9.09912H355.402V14.9882H356.8V9.09912Z" fill="#966C4F"/>
<path d="M387.041 9.09912H385.643V14.9882H387.041V9.09912Z" fill="#966C4F"/>
<path d="M417.281 9.09912H415.883V14.9882H417.281V9.09912Z" fill="#966C4F"/>
<path d="M447.519 9.09912H446.121V14.9882H447.519V9.09912Z" fill="#966C4F"/>
<path d="M477.759 9.09912H476.361V14.9882H477.759V9.09912Z" fill="#966C4F"/>
<path d="M508 9.09912H506.602V14.9882H508V9.09912Z" fill="#966C4F"/>
<path d="M538.237 9.09912H536.839V14.9882H538.237V9.09912Z" fill="#966C4F"/>
<path d="M39.2872 11.5569H37.8889V14.9912H39.2872V11.5569Z" fill="#966C4F"/>
<path d="M69.5277 11.5569H68.1294V14.9912H69.5277V11.5569Z" fill="#966C4F"/>
<path d="M99.7652 11.5569H98.3669V14.9912H99.7652V11.5569Z" fill="#966C4F"/>
<path d="M130.006 11.5569H128.607V14.9912H130.006V11.5569Z" fill="#966C4F"/>
<path d="M160.246 11.5569H158.848V14.9912H160.246V11.5569Z" fill="#966C4F"/>
<path d="M190.484 11.5569H189.085V14.9912H190.484V11.5569Z" fill="#966C4F"/>
<path d="M220.724 11.5569H219.326V14.9912H220.724V11.5569Z" fill="#966C4F"/>
<path d="M250.965 11.5569H249.566V14.9912H250.965V11.5569Z" fill="#966C4F"/>
<path d="M281.202 11.5569H279.804V14.9912H281.202V11.5569Z" fill="#966C4F"/>
<path d="M311.443 11.5569H310.044V14.9912H311.443V11.5569Z" fill="#966C4F"/>
<path d="M341.683 11.5569H340.285V14.9912H341.683V11.5569Z" fill="#966C4F"/>
<path d="M371.921 11.5569H370.522V14.9912H371.921V11.5569Z" fill="#966C4F"/>
<path d="M402.161 11.5569H400.763V14.9912H402.161V11.5569Z" fill="#966C4F"/>
<path d="M432.402 11.5569H431.003V14.9912H432.402V11.5569Z" fill="#966C4F"/>
<path d="M462.639 11.5569H461.241V14.9912H462.639V11.5569Z" fill="#966C4F"/>
<path d="M492.88 11.5569H491.481V14.9912H492.88V11.5569Z" fill="#966C4F"/>
<path d="M523.12 11.5569H521.722V14.9912H523.12V11.5569Z" fill="#966C4F"/>
<path d="M24.2916 307.165H22.8933V313.054H24.2916V307.165Z" fill="#966C4F"/>
<path d="M54.5321 307.165H53.1338V313.054H54.5321V307.165Z" fill="#966C4F"/>
<path d="M84.7696 307.165H83.3713V313.054H84.7696V307.165Z" fill="#966C4F"/>
<path d="M115.01 307.165H113.612V313.054H115.01V307.165Z" fill="#966C4F"/>
<path d="M145.251 307.165H143.852V313.054H145.251V307.165Z" fill="#966C4F"/>
<path d="M175.488 307.165H174.09V313.054H175.488V307.165Z" fill="#966C4F"/>
<path d="M205.729 307.165H204.33V313.054H205.729V307.165Z" fill="#966C4F"/>
<path d="M235.969 307.165H234.571V313.054H235.969V307.165Z" fill="#966C4F"/>
<path d="M266.207 307.165H264.808V313.054H266.207V307.165Z" fill="#966C4F"/>
<path d="M296.447 307.165H295.049V313.054H296.447V307.165Z" fill="#966C4F"/>
<path d="M326.688 307.165H325.289V313.054H326.688V307.165Z" fill="#966C4F"/>
<path d="M356.925 307.165H355.527V313.054H356.925V307.165Z" fill="#966C4F"/>
<path d="M387.165 307.165H385.767V313.054H387.165V307.165Z" fill="#966C4F"/>
<path d="M417.406 307.165H416.008V313.054H417.406V307.165Z" fill="#966C4F"/>
<path d="M447.643 307.165H446.245V313.054H447.643V307.165Z" fill="#966C4F"/>
<path d="M477.884 307.165H476.486V313.054H477.884V307.165Z" fill="#966C4F"/>
<path d="M508.124 307.165H506.726V313.054H508.124V307.165Z" fill="#966C4F"/>
<path d="M538.362 307.165H536.964V313.054H538.362V307.165Z" fill="#966C4F"/>
<path d="M39.412 307.165H38.0137V310.6H39.412V307.165Z" fill="#966C4F"/>
<path d="M69.6495 307.165H68.2512V310.6H69.6495V307.165Z" fill="#966C4F"/>
<path d="M99.89 307.165H98.4917V310.6H99.89V307.165Z" fill="#966C4F"/>
<path d="M130.13 307.165H128.732V310.6H130.13V307.165Z" fill="#966C4F"/>
<path d="M160.368 307.165H158.97V310.6H160.368V307.165Z" fill="#966C4F"/>
<path d="M190.609 307.165H189.21V310.6H190.609V307.165Z" fill="#966C4F"/>
<path d="M220.849 307.165H219.451V310.6H220.849V307.165Z" fill="#966C4F"/>
<path d="M251.087 307.165H249.688V310.6H251.087V307.165Z" fill="#966C4F"/>
<path d="M281.327 307.165H279.929V310.6H281.327V307.165Z" fill="#966C4F"/>
<path d="M311.567 307.165H310.169V310.6H311.567V307.165Z" fill="#966C4F"/>
<path d="M341.805 307.165H340.407V310.6H341.805V307.165Z" fill="#966C4F"/>
<path d="M372.045 307.165H370.647V310.6H372.045V307.165Z" fill="#966C4F"/>
<path d="M402.286 307.165H400.887V310.6H402.286V307.165Z" fill="#966C4F"/>
<path d="M432.523 307.165H431.125V310.6H432.523V307.165Z" fill="#966C4F"/>
<path d="M462.764 307.165H461.366V310.6H462.764V307.165Z" fill="#966C4F"/>
<path d="M493.004 307.165H491.606V310.6H493.004V307.165Z" fill="#966C4F"/>
<path d="M523.242 307.165H521.844V310.6H523.242V307.165Z" fill="#966C4F"/>
<path d="M548.812 301.233V302.661H554.576V301.233H548.812Z" fill="#966C4F"/>
<path d="M548.814 270.338V271.767H554.579V270.338H548.814Z" fill="#966C4F"/>
<path d="M548.812 239.441V240.87H554.576V239.441H548.812Z" fill="#966C4F"/>
<path d="M548.814 208.547V209.976H554.579V208.547H548.814Z" fill="#966C4F"/>
<path d="M548.812 177.65V179.078H554.576V177.65H548.812Z" fill="#966C4F"/>
<path d="M548.812 146.755V148.184H554.576V146.755H548.812Z" fill="#966C4F"/>
<path d="M548.814 115.858V117.287H554.579V115.858H548.814Z" fill="#966C4F"/>
<path d="M548.812 84.964V86.3928H554.576V84.964H548.812Z" fill="#966C4F"/>
<path d="M548.814 54.0668V55.4956H554.579V54.0668H548.814Z" fill="#966C4F"/>
<path d="M548.812 23.1696V24.5984H554.576V23.1696H548.812Z" fill="#966C4F"/>
<path d="M548.812 285.788V287.217H552.171V285.788H548.812Z" fill="#966C4F"/>
<path d="M548.814 254.891V256.32H552.174V254.891H548.814Z" fill="#966C4F"/>
<path d="M548.812 223.997V225.426H552.171V223.997H548.812Z" fill="#966C4F"/>
<path d="M548.814 193.1V194.529H552.174V193.1H548.814Z" fill="#966C4F"/>
<path d="M548.812 162.206V163.635H552.171V162.206H548.812Z" fill="#966C4F"/>
<path d="M548.812 131.309V132.737H552.171V131.309H548.812Z" fill="#966C4F"/>
<path d="M548.814 100.414V101.843H552.174V100.414H548.814Z" fill="#966C4F"/>
<path d="M548.812 69.517V70.9458H552.171V69.517H548.812Z" fill="#966C4F"/>
<path d="M548.814 38.6198V40.0486H552.174V38.6198H548.814Z" fill="#966C4F"/>
<path d="M6.42993 300.627V302.056H12.1943V300.627H6.42993Z" fill="#966C4F"/>
<path d="M6.427 269.73V271.158H12.1914V269.73H6.427Z" fill="#966C4F"/>
<path d="M6.42993 238.835V240.264H12.1943V238.835H6.42993Z" fill="#966C4F"/>
<path d="M6.427 207.938V209.367H12.1914V207.938H6.427Z" fill="#966C4F"/>
<path d="M6.42993 177.041V178.47H12.1943V177.041H6.42993Z" fill="#966C4F"/>
<path d="M6.42993 146.147V147.576H12.1943V146.147H6.42993Z" fill="#966C4F"/>
<path d="M6.42993 115.25V116.678H12.1943V115.25H6.42993Z" fill="#966C4F"/>
<path d="M6.42993 84.3554V85.7842H12.1943V84.3554H6.42993Z" fill="#966C4F"/>
<path d="M6.427 53.4582V54.887H12.1914V53.4582H6.427Z" fill="#966C4F"/>
<path d="M6.42993 22.5639V23.9927H12.1943V22.5639H6.42993Z" fill="#966C4F"/>
<path d="M8.83203 285.18V286.609H12.1914V285.18H8.83203Z" fill="#966C4F"/>
<path d="M8.83203 254.283V255.711H12.1914V254.283H8.83203Z" fill="#966C4F"/>
<path d="M8.83203 223.388V224.817H12.1914V223.388H8.83203Z" fill="#966C4F"/>
<path d="M8.83203 192.491V193.92H12.1914V192.491H8.83203Z" fill="#966C4F"/>
<path d="M8.83496 161.594V163.023H12.1944V161.594H8.83496Z" fill="#966C4F"/>
<path d="M8.83203 130.7V132.129H12.1914V130.7H8.83203Z" fill="#966C4F"/>
<path d="M8.83496 99.8027V101.231H12.1944V99.8027H8.83496Z" fill="#966C4F"/>
<path d="M8.83203 68.9084V70.3372H12.1914V68.9084H8.83203Z" fill="#966C4F"/>
<path d="M8.83203 38.0112V39.4399H12.1914V38.0112H8.83203Z" fill="#966C4F"/>
<path d="M548.812 14.9912H12.2002V17.3474H548.812V14.9912Z" fill="#966C4F"/>
<path d="M14.5065 14.9912H12.2002V306.861H14.5065V14.9912Z" fill="#966C4F"/>
<path d="M548.812 14.9912H546.505V306.861H548.812V14.9912Z" fill="#966C4F"/>
<path d="M548.806 304.809H12.1943V307.165H548.806V304.809Z" fill="#966C4F"/>
</g>
<path d="M24.7961 3.64751C25.5922 3.6801 26.584 3.722 27.4244 4.08863L27.6878 4.20386L27.9885 4.18291C32.5876 4.23878 37.7963 4.36099 42.8348 4.47971L42.9373 4.48204C47.9793 4.60192 53.1938 4.7253 57.8547 4.78116C57.6181 7.21724 57.0389 9.14701 56.033 10.8533C54.9106 12.761 53.3628 14.1262 51.674 14.6989C50.5784 15.0702 49.4257 15.1179 48.5435 15.1179C48.0947 15.1179 47.6518 15.1039 47.2229 15.09L28.1493 14.494L27.6388 14.359L27.2088 14.6535C27.0153 14.7827 26.8113 14.8944 26.5992 14.984C26.147 15.1749 25.6668 15.2692 25.1307 15.2715L23.8836 15.2762L23.9733 16.5181C24.1493 18.9623 23.2484 21.4589 21.5642 23.1955C19.9476 24.8645 17.6609 25.8213 15.2926 25.8213C15.183 25.8213 15.0734 25.8189 14.9639 25.8154L13.6154 25.7631L13.7611 27.1039C13.8427 27.8604 13.7588 28.5204 13.5023 29.1233C13.4103 29.3398 13.2949 29.5516 13.1585 29.7495L12.8357 30.2232L13.0128 30.7633L13.6096 49.7455C13.6539 51.1551 13.704 52.7519 13.218 54.1777C12.6445 55.8596 11.2774 57.4006 9.36711 58.518C7.65614 59.5189 5.72255 60.0962 3.28547 60.3325C3.22952 55.6792 3.10598 50.3426 2.98593 45.1807C2.8752 40.3981 2.75049 34.9766 2.69105 30.3955L2.68756 30.1603L2.59315 29.945C2.22601 29.107 2.18405 28.1165 2.15025 27.3204L1.16423 3.87564L1.68288 3.30765L1.37402 2.66633L24.795 3.64984L24.7961 3.64751Z" fill="#C29961"/>
<path d="M48.3722 11.2817C49.3873 12.0476 51.1065 11.4354 51.4083 10.2016C51.7102 8.96787 50.4666 7.63402 49.2125 7.84585C47.9584 8.05769 46.8279 10.1178 48.3722 11.2817Z" fill="#593E37"/>
<path d="M7.88219 50.7047C6.6281 50.9166 5.49755 52.9767 7.04186 54.1406C8.05702 54.9065 9.77614 54.2943 10.078 53.0605C10.3799 51.8268 9.13628 50.4929 7.88219 50.7047Z" fill="#593E37"/>
<path d="M-8.54494e-06 3.90361L0.987184 27.367C1.02448 28.2411 1.07227 29.3736 1.52565 30.4095C1.58393 34.9417 1.70398 40.1561 1.82053 45.2063C1.94058 50.402 2.06528 55.7747 2.12006 60.3931C2.12356 60.7062 2.25876 61.003 2.49186 61.2125C2.72496 61.422 3.028 61.5267 3.34735 61.4941C5.9814 61.2451 8.08166 60.6177 9.9558 59.5213C12.1062 58.2631 13.6575 56.4975 14.3206 54.5514C14.8743 52.9266 14.8218 51.2156 14.774 49.7072L14.1773 30.7121C14.1738 30.605 14.154 30.5014 14.1213 30.4036C14.2985 30.1441 14.45 29.8694 14.5747 29.5761C14.9395 28.7183 15.013 27.8326 14.9197 26.9771C17.6866 27.083 20.4664 26.0017 22.4023 24.0044C24.3394 22.0072 25.3347 19.194 25.1366 16.4343C25.7765 16.432 26.4245 16.3214 27.0562 16.0549C27.3394 15.935 27.6075 15.7884 27.8604 15.6196C27.942 15.6405 28.0259 15.6545 28.1133 15.6568L47.1857 16.2528C48.6974 16.3005 50.413 16.3552 52.0483 15.8C54.0017 15.1377 55.7732 13.5909 57.0367 11.4423C58.1392 9.57071 58.7686 7.47334 59.0192 4.84172C59.0495 4.53096 58.9469 4.22019 58.7371 3.98741C58.5273 3.75463 58.2301 3.61961 57.9166 3.61612C53.2872 3.56025 48.0401 3.43688 42.9643 3.317C37.8826 3.19711 32.6273 3.07374 27.9863 3.01787L27.9723 3.01787C27.9443 3.01787 27.9175 3.0202 27.8907 3.02252C26.8522 2.56976 25.7193 2.52204 24.8452 2.48596L1.34966 1.50013C1.33451 1.50013 1.31819 1.50013 1.30303 1.50013C0.828673 1.50013 0.403258 1.79925 0.24475 2.24969C0.144515 2.53718 0.167827 2.84445 0.293704 3.10517C0.0990629 3.31816 -0.0116625 3.60332 0.00115875 3.90594L-8.54494e-06 3.90361ZM12.1982 53.8298C11.7087 55.2672 10.5094 56.6022 8.82292 57.5892C7.52921 58.3458 6.08397 58.8404 4.34502 59.1139C4.28325 54.7795 4.17136 49.8934 4.0618 45.1539C3.9639 40.9359 3.86367 36.6003 3.79956 32.65C4.86717 33.1225 6.23083 33.3064 7.88469 33.1924C9.51291 33.0818 10.887 32.7478 11.9791 32.2042L12.5316 49.777C12.5747 51.1597 12.619 52.5902 12.1971 53.8298L12.1982 53.8298ZM12.5106 28.7008C11.774 30.4339 9.20171 30.8587 7.73433 30.9588C7.45811 30.9775 7.19587 30.9868 6.94528 30.9868C5.36019 30.9868 4.29607 30.612 3.77742 29.8694C3.7646 29.8508 3.75295 29.831 3.74012 29.8124C3.70283 29.6273 3.61891 29.4574 3.50236 29.3189C3.30888 28.7637 3.2611 28.0746 3.2273 27.2739L2.69466 14.614C3.69117 17.9288 4.52102 21.31 5.59795 24.5608C6.34271 25.6421 8.15625 24.7354 7.7623 23.4842C6.70635 19.5338 5.62709 15.5893 4.49537 11.6599C4.33453 11.2433 4.19817 10.8103 4.07113 10.3692C6.61777 14.5895 9.05369 19.2603 11.4395 23.8368C12.2763 25.443 13.1178 27.275 12.5106 28.7032L12.5106 28.7008ZM20.7916 22.4471C19.1587 24.1301 16.6423 24.9891 14.3148 24.6795C14.0223 23.9416 13.6819 23.2886 13.4174 22.78C11.2449 18.6132 9.02688 14.3626 6.70985 10.4192C9.19239 12.328 11.5187 14.4126 13.9139 16.8545C14.9861 17.9451 16.0304 19.0624 17.0479 20.2043C17.2542 20.4103 17.5398 20.529 17.8312 20.5278C18.7822 20.5581 19.3125 19.2929 18.6144 18.6388C15.4687 15.0237 11.9931 11.7146 8.42548 8.51854C12.2227 10.7207 16.2857 12.8332 20.2729 14.9061C20.9244 15.2448 21.823 15.7115 22.8382 16.0386C23.1739 18.3175 22.393 20.7932 20.7916 22.4448L20.7916 22.4471ZM30.1308 5.28634C34.1949 5.34919 38.6134 5.45394 42.9106 5.5552C47.5401 5.66345 52.3128 5.77634 56.6357 5.83803C56.3618 7.5746 55.8653 9.01553 55.1054 10.3075C54.1147 11.9917 52.7732 13.1893 51.328 13.6793C50.0785 14.103 48.6438 14.0564 47.2568 14.0134L29.6879 13.464C30.2334 12.3723 30.5679 11 30.6786 9.37285C30.7905 7.71776 30.6063 6.35249 30.1308 5.28518L30.1308 5.28634ZM27.3499 5.27005C28.2112 5.87063 28.5772 7.19982 28.4408 9.22154C28.3406 10.6869 27.914 13.2557 26.1797 13.9924C25.8394 14.1368 25.4769 14.1984 25.0993 14.1984C23.8895 14.1984 22.5305 13.5583 21.3009 12.9181C17.3871 10.8836 13.3987 8.80952 9.67957 6.6586C10.6073 6.79711 11.556 6.94841 12.2554 7.08226C15.6097 7.6037 18.9326 8.50108 22.2589 9.04928C23.4443 8.9585 23.5643 7.12999 22.4093 6.85763C18.6027 5.923 14.781 5.05007 10.9675 4.14338L24.7508 4.72184C25.8429 4.76723 26.7287 4.83591 27.3511 5.27005L27.3499 5.27005Z" fill="#593E37"/>
<path d="M535.228 316.352C534.432 316.32 533.44 316.278 532.6 315.911L532.336 315.796L532.036 315.817C527.437 315.761 522.228 315.639 517.189 315.52L517.087 315.518C512.045 315.398 506.83 315.275 502.169 315.219C502.406 312.783 502.985 310.853 503.991 309.147C505.114 307.239 506.661 305.874 508.35 305.301C509.446 304.93 510.598 304.882 511.481 304.882C511.929 304.882 512.372 304.896 512.801 304.91L531.875 305.506L532.385 305.641L532.815 305.347C533.009 305.217 533.213 305.106 533.425 305.016C533.877 304.825 534.357 304.731 534.894 304.728L536.141 304.724L536.051 303.482C535.875 301.038 536.776 298.541 538.46 296.805C540.077 295.135 542.363 294.179 544.732 294.179C544.841 294.179 544.951 294.181 545.06 294.185L546.409 294.237L546.263 292.896C546.181 292.14 546.265 291.48 546.522 290.877C546.614 290.66 546.729 290.448 546.866 290.251L547.188 289.777L547.011 289.237L546.415 270.254C546.37 268.845 546.32 267.248 546.806 265.822C547.38 264.14 548.747 262.599 550.657 261.482C552.368 260.481 554.302 259.904 556.739 259.667C556.795 264.321 556.918 269.657 557.038 274.819C557.149 279.602 557.274 285.023 557.333 289.605L557.337 289.84L557.431 290.055C557.798 290.893 557.84 291.883 557.874 292.68L558.86 316.124L558.341 316.692L558.65 317.334L535.229 316.35L535.228 316.352Z" fill="#C29961"/>
<path d="M511.652 308.719C510.637 307.953 508.918 308.565 508.616 309.799C508.314 311.032 509.558 312.366 510.812 312.154C512.066 311.943 513.197 309.882 511.652 308.719Z" fill="#593E37"/>
<path d="M552.142 269.295C553.396 269.083 554.527 267.023 552.982 265.859C551.967 265.094 550.248 265.706 549.946 266.939C549.644 268.173 550.888 269.507 552.142 269.295Z" fill="#593E37"/>
<path d="M560.024 316.096L559.037 292.633C559 291.759 558.952 290.626 558.499 289.591C558.44 285.058 558.32 279.844 558.204 274.794C558.084 269.598 557.959 264.225 557.904 259.607C557.901 259.294 557.766 258.997 557.533 258.788C557.299 258.578 556.996 258.473 556.677 258.506C554.043 258.755 551.943 259.382 550.069 260.479C547.918 261.737 546.367 263.503 545.704 265.449C545.15 267.073 545.203 268.784 545.25 270.293L545.847 289.288C545.851 289.395 545.87 289.499 545.903 289.596C545.726 289.856 545.574 290.131 545.45 290.424C545.085 291.282 545.011 292.167 545.105 293.023C542.338 292.917 539.558 293.998 537.622 295.996C535.685 297.993 534.69 300.806 534.888 303.566C534.248 303.568 533.6 303.679 532.968 303.945C532.685 304.065 532.417 304.212 532.164 304.38C532.082 304.359 531.999 304.346 531.911 304.343L512.839 303.747C511.327 303.7 509.611 303.645 507.976 304.2C506.023 304.862 504.251 306.409 502.988 308.558C501.885 310.429 501.256 312.527 501.005 315.158C500.975 315.469 501.077 315.78 501.287 316.013C501.497 316.245 501.794 316.38 502.108 316.384C506.737 316.44 511.984 316.563 517.06 316.683C522.142 316.803 527.397 316.926 532.038 316.982H532.052C532.08 316.982 532.107 316.98 532.134 316.977C533.172 317.43 534.305 317.478 535.179 317.514L558.675 318.5C558.69 318.5 558.706 318.5 558.721 318.5C559.196 318.5 559.621 318.201 559.78 317.75C559.88 317.463 559.857 317.156 559.731 316.895C559.925 316.682 560.036 316.397 560.023 316.094L560.024 316.096ZM547.826 266.17C548.316 264.733 549.515 263.398 551.201 262.411C552.495 261.654 553.94 261.16 555.679 260.886C555.741 265.22 555.853 270.107 555.963 274.846C556.061 279.064 556.161 283.4 556.225 287.35C555.157 286.877 553.794 286.694 552.14 286.808C550.512 286.918 549.137 287.252 548.045 287.796L547.493 270.223C547.45 268.84 547.405 267.41 547.827 266.17H547.826ZM547.514 291.299C548.25 289.566 550.823 289.141 552.29 289.041C552.566 289.023 552.829 289.013 553.079 289.013C554.664 289.013 555.728 289.388 556.247 290.131C556.26 290.149 556.271 290.169 556.284 290.188C556.322 290.373 556.406 290.543 556.522 290.681C556.716 291.236 556.763 291.925 556.797 292.726L557.33 305.386C556.333 302.071 555.503 298.69 554.426 295.439C553.682 294.358 551.868 295.265 552.262 296.516C553.318 300.466 554.397 304.411 555.529 308.34C555.69 308.757 555.826 309.19 555.953 309.631C553.407 305.41 550.971 300.74 548.585 296.163C547.748 294.557 546.907 292.725 547.514 291.297V291.299ZM539.233 297.553C540.866 295.87 543.382 295.011 545.71 295.321C546.002 296.058 546.342 296.711 546.607 297.22C548.78 301.387 550.998 305.637 553.315 309.581C550.832 307.672 548.506 305.587 546.111 303.146C545.038 302.055 543.994 300.938 542.976 299.796C542.77 299.59 542.485 299.471 542.193 299.472C541.242 299.442 540.712 300.707 541.41 301.361C544.556 304.976 548.031 308.285 551.599 311.481C547.802 309.279 543.739 307.167 539.752 305.094C539.1 304.755 538.201 304.288 537.186 303.961C536.851 301.682 537.631 299.207 539.233 297.555V297.553ZM529.894 314.714C525.829 314.651 521.411 314.546 517.114 314.445C512.484 314.337 507.712 314.224 503.389 314.162C503.663 312.425 504.159 310.984 504.919 309.693C505.91 308.008 507.251 306.811 508.696 306.321C509.946 305.897 511.381 305.944 512.768 305.987L530.336 306.536C529.791 307.628 529.457 309 529.346 310.627C529.234 312.282 529.418 313.648 529.894 314.715V314.714ZM532.675 314.73C531.813 314.129 531.447 312.8 531.584 310.778C531.684 309.313 532.11 306.744 533.845 306.008C534.185 305.863 534.547 305.802 534.925 305.802C536.135 305.802 537.494 306.442 538.724 307.082C542.637 309.116 546.626 311.19 550.345 313.341C549.417 313.203 548.468 313.052 547.769 312.918C544.415 312.396 541.092 311.499 537.765 310.951C536.58 311.042 536.46 312.87 537.615 313.142C541.422 314.077 545.243 314.95 549.057 315.857L535.274 315.278C534.182 315.233 533.296 315.164 532.673 314.73H532.675Z" fill="#593E37"/>
<path d="M558.852 25.2962C558.82 26.0922 558.778 27.0841 558.411 27.9244L558.296 28.1878L558.317 28.4885C558.261 33.0876 558.139 38.2963 558.02 43.3348L558.018 43.4373C557.898 48.4794 557.775 53.6939 557.719 58.3547C555.283 58.1181 553.353 57.5389 551.647 56.533C549.739 55.4107 548.374 53.8629 547.801 52.174C547.43 51.0784 547.382 49.9258 547.382 49.0435C547.382 48.5947 547.396 48.1518 547.41 47.7229L548.006 28.6493L548.141 28.1388L547.847 27.7088C547.717 27.5153 547.606 27.3113 547.516 27.0992C547.325 26.647 547.231 26.1668 547.228 25.6307L547.224 24.3836L545.982 24.4733C543.538 24.6493 541.041 23.7484 539.305 22.0642C537.635 20.4476 536.679 18.1609 536.679 15.7926C536.679 15.683 536.681 15.5735 536.685 15.4639L536.737 14.1154L535.396 14.2611C534.64 14.3427 533.98 14.2588 533.377 14.0023C533.16 13.9103 532.948 13.7949 532.751 13.6585L532.277 13.3357L531.737 13.5128L512.754 14.1096C511.345 14.1539 509.748 14.204 508.322 13.718C506.64 13.1445 505.099 11.7774 503.982 9.86711C502.981 8.15614 502.404 6.22255 502.167 3.78547C506.821 3.72952 512.157 3.60598 517.319 3.48593C522.102 3.37521 527.523 3.2505 532.105 3.19106L532.34 3.18756L532.555 3.09315C533.393 2.72601 534.383 2.68406 535.18 2.65026L558.624 1.66423L559.192 2.18288L559.834 1.87402L558.85 25.295L558.852 25.2962Z" fill="#C29961"/>
<path d="M551.219 48.8722C550.453 49.8873 551.065 51.6065 552.299 51.9083C553.532 52.2102 554.866 50.9666 554.654 49.7125C554.443 48.4584 552.382 47.3279 551.219 48.8722Z" fill="#593E37"/>
<path d="M511.796 8.38243C511.584 7.12834 509.524 5.9978 508.36 7.5421C507.594 8.55726 508.206 10.2764 509.44 10.5783C510.673 10.8801 512.007 9.63652 511.796 8.38243Z" fill="#593E37"/>
<path d="M558.596 0.499997L535.133 1.48719C534.259 1.52448 533.126 1.57227 532.091 2.02565C527.558 2.08393 522.344 2.20398 517.294 2.32053C512.098 2.44058 506.725 2.56528 502.107 2.62006C501.794 2.62356 501.497 2.75876 501.288 2.99186C501.078 3.22496 500.973 3.528 501.006 3.84735C501.255 6.4814 501.882 8.58166 502.979 10.4558C504.237 12.6062 506.003 14.1575 507.949 14.8206C509.573 15.3743 511.284 15.3218 512.793 15.274L531.788 14.6773C531.895 14.6738 531.999 14.654 532.096 14.6213C532.356 14.7985 532.631 14.95 532.924 15.0747C533.782 15.4395 534.667 15.513 535.523 15.4197C535.417 18.1866 536.498 20.9664 538.496 22.9023C540.493 24.8394 543.306 25.8347 546.066 25.6366C546.068 26.2765 546.179 26.9245 546.445 27.5562C546.565 27.8394 546.712 28.1075 546.88 28.3604C546.859 28.442 546.846 28.5259 546.843 28.6133L546.247 47.6857C546.2 49.1974 546.145 50.9131 546.7 52.5483C547.362 54.5017 548.909 56.2732 551.058 57.5367C552.929 58.6392 555.027 59.2686 557.658 59.5192C557.969 59.5495 558.28 59.4469 558.513 59.2371C558.745 59.0273 558.88 58.7301 558.884 58.4166C558.94 53.7872 559.063 48.5401 559.183 43.4643C559.303 38.3826 559.426 33.1273 559.482 28.4863L559.482 28.4723C559.482 28.4443 559.48 28.4175 559.477 28.3907C559.93 27.3522 559.978 26.2193 560.014 25.3452L561 1.84966C561 1.83451 561 1.81819 561 1.80304C561 1.32868 560.701 0.903264 560.25 0.744756C559.963 0.644521 559.656 0.667832 559.395 0.79371C559.182 0.599068 558.897 0.488343 558.594 0.501164L558.596 0.499997ZM508.67 12.6982C507.233 12.2087 505.898 11.0094 504.911 9.32292C504.154 8.02921 503.66 6.58397 503.386 4.84502C507.72 4.78325 512.607 4.67136 517.346 4.56181C521.564 4.4639 525.9 4.36367 529.85 4.29956C529.377 5.36718 529.194 6.73083 529.308 8.38469C529.418 10.0129 529.752 11.387 530.296 12.4791L512.723 13.0316C511.34 13.0747 509.91 13.119 508.67 12.6971L508.67 12.6982ZM533.799 13.0106C532.066 12.274 531.641 9.70171 531.541 8.23434C531.523 7.95811 531.513 7.69587 531.513 7.44529C531.513 5.86019 531.888 4.79607 532.631 4.27742C532.649 4.2646 532.669 4.25295 532.688 4.24013C532.873 4.20283 533.043 4.11891 533.181 4.00236C533.736 3.80889 534.425 3.7611 535.226 3.7273L547.886 3.19466C544.571 4.19118 541.19 5.02102 537.939 6.09795C536.858 6.84271 537.765 8.65625 539.016 8.26231C542.966 7.20635 546.911 6.12709 550.84 4.99538C551.257 4.83454 551.69 4.69817 552.131 4.57113C547.91 7.11778 543.24 9.5537 538.663 11.9395C537.057 12.7763 535.225 13.6178 533.797 13.0106L533.799 13.0106ZM540.053 21.2916C538.37 19.6587 537.511 17.1423 537.821 14.8148C538.558 14.5223 539.211 14.1819 539.72 13.9174C543.887 11.7449 548.137 9.52689 552.081 7.20985C550.172 9.69239 548.087 12.0188 545.646 14.4139C544.555 15.4861 543.438 16.5304 542.296 17.5479C542.09 17.7542 541.971 18.0398 541.972 18.3312C541.942 19.2822 543.207 19.8125 543.861 19.1144C547.476 15.9687 550.785 12.4931 553.981 8.92548C551.779 12.7227 549.667 16.7857 547.594 20.7729C547.255 21.4244 546.788 22.323 546.461 23.3382C544.182 23.6739 541.707 22.893 540.055 21.2916L540.053 21.2916ZM557.214 30.6308C557.151 34.695 557.046 39.1134 556.945 43.4107C556.837 48.0401 556.724 52.8128 556.662 57.1357C554.925 56.8618 553.484 56.3653 552.193 55.6054C550.508 54.6147 549.311 53.2732 548.821 51.828C548.397 50.5785 548.444 49.1438 548.487 47.7568L549.036 30.1879C550.128 30.7334 551.5 31.0679 553.127 31.1786C554.782 31.2905 556.148 31.1063 557.215 30.6308L557.214 30.6308ZM557.23 27.8499C556.629 28.7112 555.3 29.0772 553.278 28.9408C551.813 28.8406 549.244 28.414 548.508 26.6797C548.363 26.3394 548.302 25.9769 548.302 25.5993C548.302 24.3895 548.942 23.0305 549.582 21.8009C551.616 17.8871 553.69 13.8987 555.841 10.1796C555.703 11.1073 555.552 12.0561 555.418 12.7554C554.896 16.1097 553.999 19.4326 553.451 22.7589C553.542 23.9443 555.37 24.0643 555.642 22.9093C556.577 19.1027 557.45 15.281 558.357 11.4675L557.778 25.2508C557.733 26.3429 557.664 27.2287 557.23 27.8511L557.23 27.8499Z" fill="#593E37"/>
<path d="M3.14751 293.728C3.1801 292.932 3.22199 291.94 3.58863 291.1L3.70386 290.837L3.6829 290.536C3.73877 285.937 3.86099 280.728 3.97971 275.69L3.98204 275.587C4.10192 270.545 4.2253 265.331 4.28116 260.67C6.71724 260.906 8.64701 261.486 10.3533 262.491C12.261 263.614 13.6262 265.162 14.1989 266.85C14.5702 267.946 14.6179 269.099 14.6179 269.981C14.6179 270.43 14.6039 270.873 14.59 271.301L13.994 290.375L13.859 290.886L14.1535 291.316C14.2827 291.509 14.3944 291.713 14.484 291.925C14.6749 292.377 14.7692 292.858 14.7715 293.394L14.7762 294.641L16.0181 294.551C18.4623 294.375 20.9589 295.276 22.6955 296.96C24.3645 298.577 25.3213 300.864 25.3213 303.232C25.3213 303.341 25.3189 303.451 25.3154 303.561L25.2631 304.909L26.6039 304.763C27.3604 304.682 28.0204 304.766 28.6233 305.022C28.8398 305.114 29.0516 305.23 29.2495 305.366L29.7232 305.689L30.2632 305.512L49.2455 304.915C50.655 304.871 52.2519 304.82 53.6777 305.306C55.3596 305.88 56.9006 307.247 58.018 309.157C59.0189 310.868 59.5962 312.802 59.8325 315.239C55.1792 315.295 49.8426 315.418 44.6807 315.538C39.8981 315.649 34.4766 315.774 29.8954 315.833L29.6603 315.837L29.445 315.931C28.607 316.298 27.6165 316.34 26.8204 316.374L3.37563 317.36L2.80764 316.842L2.16632 317.15L3.14983 293.729L3.14751 293.728Z" fill="#C29961"/>
<path d="M10.7817 270.152C11.5476 269.137 10.9354 267.418 9.70162 267.116C8.46787 266.814 7.13402 268.058 7.34585 269.312C7.55769 270.566 9.61782 271.697 10.7817 270.152Z" fill="#593E37"/>
<path d="M50.2047 310.642C50.4166 311.896 52.4767 313.027 53.6406 311.482C54.4065 310.467 53.7943 308.748 52.5605 308.446C51.3268 308.144 49.9929 309.388 50.2047 310.642Z" fill="#593E37"/>
<path d="M3.4036 318.524L26.867 317.537C27.7411 317.5 28.8736 317.452 29.9094 316.999C34.4417 316.94 39.6561 316.82 44.7063 316.704C49.902 316.584 55.2747 316.459 59.8931 316.404C60.2062 316.401 60.503 316.266 60.7125 316.033C60.922 315.799 61.0267 315.496 60.9941 315.177C60.7451 312.543 60.1177 310.443 59.0213 308.569C57.7631 306.418 55.9975 304.867 54.0514 304.204C52.4266 303.65 50.7156 303.703 49.2072 303.75L30.2121 304.347C30.105 304.351 30.0014 304.37 29.9036 304.403C29.6441 304.226 29.3694 304.074 29.0761 303.95C28.2183 303.585 27.3325 303.511 26.4771 303.605C26.583 300.838 25.5017 298.058 23.5044 296.122C21.5071 294.185 18.694 293.19 15.9343 293.388C15.932 292.748 15.8214 292.1 15.5549 291.468C15.435 291.185 15.2883 290.917 15.1196 290.664C15.1405 290.582 15.1545 290.499 15.1568 290.411L15.7527 271.339C15.8005 269.827 15.8552 268.111 15.3 266.476C14.6377 264.523 13.0909 262.751 10.9423 261.488C9.07071 260.385 6.97334 259.756 4.34172 259.505C4.03096 259.475 3.72019 259.577 3.48741 259.787C3.25463 259.997 3.11961 260.294 3.11612 260.608C3.06025 265.237 2.93687 270.484 2.81699 275.56C2.69711 280.642 2.57374 285.897 2.51787 290.538L2.51787 290.552C2.51787 290.58 2.52019 290.607 2.52252 290.634C2.06976 291.672 2.02204 292.805 1.98595 293.679L1.00012 317.175C1.00012 317.19 1.00012 317.206 1.00012 317.221C1.00012 317.696 1.29924 318.121 1.74968 318.28C2.03716 318.38 2.34444 318.357 2.60516 318.231C2.81815 318.425 3.10331 318.536 3.40593 318.523L3.4036 318.524ZM53.3298 306.326C54.7672 306.816 56.1022 308.015 57.0892 309.701C57.8457 310.995 58.3404 312.44 58.6139 314.179C54.2795 314.241 49.3934 314.353 44.6539 314.463C40.4359 314.561 36.1003 314.661 32.15 314.725C32.6225 313.657 32.8064 312.294 32.6924 310.64C32.5818 309.012 32.2478 307.637 31.7042 306.545L49.277 305.993C50.6597 305.95 52.0902 305.905 53.3298 306.327L53.3298 306.326ZM28.2008 306.014C29.9339 306.75 30.3587 309.323 30.4588 310.79C30.4774 311.066 30.4868 311.329 30.4868 311.579C30.4868 313.164 30.112 314.228 29.3694 314.747C29.3508 314.76 29.331 314.771 29.3124 314.784C29.1273 314.822 28.9574 314.905 28.8189 315.022C28.2637 315.216 27.5746 315.263 26.7739 315.297L14.114 315.83C17.4288 314.833 20.81 314.003 24.0608 312.926C25.1421 312.182 24.2354 310.368 22.9842 310.762C19.0338 311.818 15.0893 312.897 11.1599 314.029C10.7433 314.19 10.3103 314.326 9.86915 314.453C14.0895 311.907 18.7603 309.471 23.3368 307.085C24.943 306.248 26.775 305.407 28.2032 306.014L28.2008 306.014ZM21.9471 297.733C23.6301 299.366 24.4891 301.882 24.1795 304.21C23.4416 304.502 22.7886 304.842 22.28 305.107C18.1132 307.28 13.8625 309.498 9.9192 311.815C11.828 309.332 13.9126 307.006 16.3545 304.611C17.4451 303.538 18.5624 302.494 19.7042 301.476C19.9103 301.27 20.029 300.985 20.0278 300.693C20.0581 299.742 18.7929 299.212 18.1388 299.91C14.5237 303.056 11.2146 306.531 8.01853 310.099C10.2207 306.302 12.3332 302.239 14.4061 298.251C14.7448 297.6 15.2115 296.701 15.5386 295.686C17.8175 295.351 20.2932 296.131 21.9448 297.733L21.9471 297.733ZM4.78634 288.394C4.84919 284.329 4.95394 279.911 5.0552 275.614C5.16345 270.984 5.27634 266.212 5.33803 261.889C7.0746 262.163 8.51553 262.659 9.80747 263.419C11.4917 264.41 12.6893 265.751 13.1793 267.196C13.603 268.446 13.5564 269.881 13.5134 271.268L12.964 288.836C11.8723 288.291 10.5 287.957 8.87285 287.846C7.21776 287.734 5.85248 287.918 4.78517 288.394L4.78634 288.394ZM4.77004 291.175C5.37062 290.313 6.69981 289.947 8.72154 290.084C10.1869 290.184 12.7557 290.61 13.4924 292.345C13.6367 292.685 13.6984 293.047 13.6984 293.425C13.6984 294.635 13.0583 295.994 12.4181 297.224C10.3836 301.137 8.30951 305.126 6.15859 308.845C6.2971 307.917 6.44841 306.968 6.58226 306.269C7.10369 302.915 8.00107 299.592 8.54927 296.265C8.45849 295.08 6.62998 294.96 6.35762 296.115C5.423 299.922 4.55006 303.743 3.64337 307.557L4.22184 293.774C4.26723 292.682 4.3359 291.796 4.77004 291.173L4.77004 291.175Z" fill="#593E37"/>
<defs>
<clipPath id="clip0_44_828">
<rect width="557" height="313" fill="white" transform="translate(2 4.5)"/>
</clipPath>
</defs>
</svg>
