<svg width="296" height="139" viewBox="0 0 296 139" fill="none" xmlns="http://www.w3.org/2000/svg">
<g clip-path="url(#clip0_1_749)">
<path fill-rule="evenodd" clip-rule="evenodd" d="M197.379 83.2311L185.852 47.5866C185.057 44.9876 184.265 41.8763 186.449 39.6639L187.417 38.8122L189.799 37.8725L190.55 37.7971L191.402 37.8443L191.672 37.8883L193.105 38.3502L193.372 38.5074L194.246 39.0636L194.497 39.2805L194.89 39.6765C206.707 52.8224 217.187 65.0663 233.599 72.5459C249.975 80.013 268.134 75.4058 285.217 73.9161C289.523 73.5453 296.456 72.5019 295.981 79.045C295.884 80.4215 294.677 81.7289 293.555 82.3417L291.855 82.9294L253.79 96.1539L221.465 109.429C220.292 113.068 217.891 116.515 215.292 119.146C207.335 127.207 195.669 131.789 184.645 128.115C181.455 127.053 179.437 124.394 177.483 121.889L178.023 121.471C181.411 124.435 184.607 126.739 189.334 127.009C199.525 127.597 210.644 120.786 215.644 111.823L209.086 114.52C201.417 116.918 186.549 116.71 183.303 107.295C180.729 99.8151 187.747 93.052 194.327 91.1318C202.461 88.756 214.145 90.9056 219.689 97.8289C221.072 99.5543 221.823 101.402 222.096 103.291C231.92 98.8723 241.342 92.8006 249.881 88.8942L254.982 86.4524C246.459 86.6755 238.005 85.7421 229.661 82.1626L219.749 77.3228L203.994 65.5251L208.9 79.8527C209.837 83.0331 208.014 86.3675 204.833 87.304C201.653 88.2374 198.312 86.4147 197.382 83.2342L197.379 83.2311ZM189.799 37.8757L189.843 37.86L189.639 37.8914L189.799 37.8757ZM193.372 38.5105L194.067 38.9285L193.796 38.7399L193.177 38.3848L193.372 38.5105ZM217.47 105.221C217.216 102.059 215.179 99.3657 211.637 98.0646C205.132 95.6793 192.294 93.5863 189.315 102.574C188.319 105.576 190.886 107.634 193.645 108.197C201.631 109.831 209.651 108.219 217.473 105.217L217.47 105.221ZM186.782 47.5929L186.257 47.0209L186.499 47.3101L186.782 47.5929Z" fill="#B4CD4C"/>
<path fill-rule="evenodd" clip-rule="evenodd" d="M179.318 51.5089C182.492 60.8615 186.244 71.7447 178.187 79.8151C173.212 84.7994 166.049 81.3676 162.47 76.7321L160.88 74.5385C160.091 75.3745 159.098 76.069 157.856 76.5719C154.208 78.0489 150.169 77.0056 146.65 75.3619L156.753 98.2628C161.172 106.801 170.996 115.632 172.423 125.56C172.806 128.232 170.1 131.289 167.288 130.604C163.837 129.762 162.335 127.069 159.89 124.391C153.849 117.763 148.381 110.397 140.726 105.717L53.83 62.4863C48.2548 58.8125 36.696 51.3203 40.7595 42.7282C43.9242 36.0405 53.8457 33.5138 60.2568 31.9361L104.688 25.8582L104.811 26.7255L61.3442 35.8394C56.1022 37.3699 49.0437 39.4252 45.571 44.0607C44.7162 45.2015 44.6942 46.9959 45.5081 48.1744C52.1644 57.7942 65.9325 62.9263 76.1243 67.5146L144.912 98.7782L149.745 102.559L139.833 84.4757L129.242 63.3034C127.555 60.7955 119.324 54.727 122.8 50.4592L123.639 49.3624L126.181 47.967L127.306 47.8445L126.517 47.9042L127.309 47.8445L128.504 47.9827L129.248 48.2184C130.452 48.6993 131.373 49.6484 132.3 50.5095C138.145 55.9181 144.359 62.9766 152.074 65.8521L151.854 65.0256L148.881 57.5428L148.787 57.1249L148.702 56.4209L148.708 55.9903L149.434 53.2625L150.336 52.0777L153.909 50.4466C155.198 49.9249 157.328 51.182 158.218 51.9991L159.261 53.2122L165.512 61.5435L171.153 69.064C171.895 64.7773 170.063 60.9621 168.614 56.9489C167.112 53.9916 168.293 50.3775 171.251 48.8784C174.205 47.3762 177.819 48.5579 179.318 51.512V51.5089ZM148.711 55.9872V55.9338L148.695 56.0469L148.711 55.9872ZM148.711 55.9338V55.9181L148.89 54.573L148.922 54.4913L148.711 55.9338ZM148.711 55.9181V55.5346L148.692 56.0532L148.711 55.9212V55.9181ZM148.922 54.4913L149.283 53.5422L148.931 54.4347L148.925 54.4881L148.922 54.4913Z" fill="#B4CD4C"/>
<path fill-rule="evenodd" clip-rule="evenodd" d="M229.479 53.3818C237.477 53.3818 243.998 46.8576 243.998 38.8657C243.998 30.8738 237.474 24.3464 229.479 24.3464C221.484 24.3464 214.962 30.8707 214.962 38.8657C214.962 46.8607 221.484 53.3818 229.479 53.3818Z" fill="#B4CD4C"/>
<path fill-rule="evenodd" clip-rule="evenodd" d="M141.851 44.2837C147.394 44.2837 151.917 39.7614 151.917 34.2177C151.917 28.674 147.394 24.1516 141.851 24.1516C136.307 24.1516 131.785 28.674 131.785 34.2177C131.785 39.7614 136.307 44.2837 141.851 44.2837Z" fill="#B4CD4C"/>
<path fill-rule="evenodd" clip-rule="evenodd" d="M163.149 40.4119C168.692 40.4119 173.215 35.8896 173.215 30.3458C173.215 24.8021 168.692 20.2798 163.149 20.2798C157.605 20.2798 153.083 24.8021 153.083 30.3458C153.083 35.8896 157.605 40.4119 163.149 40.4119Z" fill="#B4CD4C"/>
<path fill-rule="evenodd" clip-rule="evenodd" d="M148.435 22.2156C153.978 22.2156 158.501 17.6933 158.501 12.1496C158.501 6.60584 153.978 2.0835 148.435 2.0835C142.891 2.0835 138.369 6.60584 138.369 12.1496C138.369 17.6933 142.891 22.2156 148.435 22.2156Z" fill="#B4CD4C"/>
<path fill-rule="evenodd" clip-rule="evenodd" d="M83.5694 20.5691L125.892 112.826L72.9722 26.2133C71.4166 23.2906 72.5259 19.6545 75.4518 18.0958C78.3776 16.537 82.0137 17.6464 83.5694 20.5722V20.5691Z" fill="#B4CD4C"/>
<path fill-rule="evenodd" clip-rule="evenodd" d="M114.761 18.0673C111.08 15.0032 108.293 12.621 103.315 11.6876C79.8609 7.27843 53.9117 17.3351 35.2252 31.0718C29.6186 35.195 22.7927 41.3516 20.9039 48.3535C19.9486 51.8985 27.4942 47.7155 27.6544 47.6495L28.1101 48.1995C25.9951 50.2265 22.5664 54.2398 19.1503 52.0996C16.259 50.2863 17.183 45.6508 18.3992 43.1743C25.2 29.3307 37.6105 19.271 51.209 12.335C67.7584 3.88746 86.7623 -2.13395 105.518 0.716481C113.428 1.92328 117.84 5.6568 123.906 10.286C126.052 12.8096 125.751 16.5997 123.224 18.7493C120.7 20.8957 116.91 20.5909 114.761 18.0673Z" fill="#B4CD4C"/>
<path fill-rule="evenodd" clip-rule="evenodd" d="M86.6932 105.164C86.7529 105.255 86.8472 105.821 86.9666 106.019C89.8202 110.579 94.8422 114.008 100.018 115.353L101.81 115.507L102.237 115.453L102.29 115.447L102.334 115.149C101.989 108.722 96.4293 99.4539 89.7291 98.3162L89.3017 98.2974L88.9403 98.3414L88.7297 98.4042L88.5851 98.5614L88.0163 99.3879L87.3375 100.623C86.9729 101.412 86.6272 102.213 86.3035 103.024C86.5581 103.693 86.6964 104.419 86.6901 105.17L86.6932 105.164ZM102.253 115.595L102.202 115.702H102.218L102.253 115.595ZM81.1684 117.26C80.1627 119.671 78.9936 121.993 77.5008 124.137C75.7881 126.597 71.6554 127.106 69.5027 124.963C66.1054 121.575 64.9018 116.707 64.0187 111.827C61.7936 120.353 57.2399 128.838 50.0085 132.459C48.4183 133.254 46.8155 133.043 45.1625 132.754L45.241 132.037C55.9136 129.74 58.9181 114.347 59.8389 105.299C60.216 101.613 59.0658 99.303 58.8646 96.0221C58.7515 94.1773 60.7063 92.1471 62.639 92.8197C67.5416 94.5356 68.7987 102.584 70.0338 106.566L72.3185 114.423L72.8308 115.714L73.5945 113.687L75.2507 108.147C75.0118 107.069 74.8515 105.944 74.6976 104.762C74.8358 102.559 76.1432 100.711 77.9817 99.7807C80.4016 93.4451 84.2733 87.0591 92.0955 89.0767C102.246 91.6946 110.716 101.754 112.68 112.003C113.796 117.82 111.489 124.435 105.172 125.988C96.4199 128.144 87.5355 123.348 81.1684 117.26ZM64.864 95.5569V95.5287L64.8421 95.4501L64.8546 95.5192L64.8672 95.5538L64.864 95.5569Z" fill="#B4CD4C"/>
<path fill-rule="evenodd" clip-rule="evenodd" d="M54.094 72.5524C54.5654 81.3928 57.0136 93.6933 47.8966 99.457C40.0493 104.416 32.4408 98.0899 28.3553 91.3048C25.464 99.8153 20.9857 107.813 12.9372 112.493C9.23199 114.643 4.97049 115.431 0.837842 116.553L0.586426 115.733C5.38218 112.678 10.3634 110.051 14.0403 105.566C21.2371 96.7951 22.3339 86.6097 22.6419 75.7579C22.755 71.8044 27.2805 68.25 30.3698 72.191C34.7507 77.7913 33.7953 87.1816 41.2089 90.7046C41.7023 90.9403 42.1077 90.5977 42.3246 90.1766C44.8325 85.3526 43.0254 80.3148 42.4 75.2614C41.6521 72.0338 43.6665 68.8094 46.8941 68.0583C50.1216 67.3104 53.346 69.3248 54.0971 72.5524H54.094Z" fill="#B4CD4C"/>
<path fill-rule="evenodd" clip-rule="evenodd" d="M21.6268 138.37C27.1705 138.37 31.6929 133.844 31.6929 128.301C31.6929 122.757 27.1705 118.235 21.6268 118.235C16.0831 118.235 11.5607 122.757 11.5607 128.301C11.5607 133.844 16.0831 138.37 21.6268 138.37Z" fill="#B4CD4C"/>
<path fill-rule="evenodd" clip-rule="evenodd" d="M38.7419 125.843C42.8872 125.843 46.2718 122.461 46.2718 118.313C46.2718 114.165 42.8872 110.783 38.7419 110.783C34.5967 110.783 31.2057 114.165 31.2057 118.313C31.2057 122.461 34.5904 125.843 38.7419 125.843Z" fill="#B4CD4C"/>
</g>
<defs>
<clipPath id="clip0_1_749">
<rect width="295.414" height="138.37" fill="white" transform="translate(0.586426)"/>
</clipPath>
</defs>
</svg>
