<?xml version="1.0" encoding="UTF-8"?>
<svg id="Layer_1" data-name="Layer 1" xmlns="http://www.w3.org/2000/svg" version="1.1" xmlns:xlink="http://www.w3.org/1999/xlink" viewBox="0 0 512 512">
  <defs>
    <style>
      .cls-1 {
        fill: #fff;
      }

      .cls-1, .cls-2, .cls-3, .cls-4, .cls-5 {
        stroke-width: 0px;
      }

      .cls-1, .cls-2, .cls-4 {
        fill-rule: evenodd;
      }

      .cls-2, .cls-5 {
        fill: #04595d;
      }

      .cls-3 {
        fill: none;
      }

      .cls-4 {
        fill: #b4cd4c;
      }

      .cls-6 {
        clip-path: url(#clippath);
      }
    </style>
    <clipPath id="clippath">
      <path class="cls-3" d="M170.21,77.18v422.14h254.07V77.18h-254.07ZM218.79,413.41c-6.89,3.11-13.89,5.74-20.94,7.81,1.14-7.11,1.95-14.41,2.63-22.4,7.54-2.28,14.9-5.24,22.02-8.76-.9,8.06-2.08,15.79-3.7,23.35Z"/>
    </clipPath>
  </defs>
  <rect class="cls-5" x="2.6" y="2.6" width="506.8" height="506.8" rx="56.83" ry="56.83"/>
  <g>
    <path class="cls-4" d="M216.89,60.79c35.61-.89,87.52-2.83,99.09-16.97l-36.43,32.6c-61.83-.65-93.86-1.92-121.56,38.39,27.16-42.41,27.34-53.23,58.91-54.02h0ZM216.89,60.79"/>
    <path class="cls-1" d="M435.94,53.8c-55.32,38.05,10.26,43.35-21.12,97.99,47.13-53.35-7.13-66.33,21.12-97.99h0ZM435.94,53.8"/>
    <path class="cls-4" d="M160.32,179.84l3.86-.2,115.36-103.22-3.86.2-115.36,103.22ZM160.32,179.84"/>
    <path class="cls-2" d="M179.77,181.69c26.02-15.43,53.21-31.33,72.36-45.24l.05.98c-19.44,13.62-48.87,31.98-72.27,46.93l-.14-2.66ZM179.77,181.69"/>
    <path class="cls-2" d="M277.73,165.42c-34.56-14.03-82.61-.86-117.41,14.42,20.86-18.66,74.22-35.6,116.78-26.93l.64,12.51ZM277.73,165.42"/>
    <path class="cls-1" d="M403.27,215.53c-8.16,14.09-23.8,28.83-23.07,61.74.54,24.39,32.32,28.23,22.61-11.02,33.67,57.87-29.58,78.95-36.77,34.46-5.85-36.22,19.87-70.18,37.23-85.18h0ZM403.27,215.53"/>
    <g>
      <path class="cls-1" d="M316.14,135.37c-26.46,2.03-62.96,7.16-79.1,97.08-25.76,143.52,6.39,184.3-64.83,264.88,44.17-88.37,18.89-93.9,46.95-264.27,10.77-65.44,30.3-106.96,82.55-112.87,18.17-15.44,28.62-29.83,45.27-41-4.25,18.38,8.17,24.15,14.78,31.51,1.9,2.12,3.3,4.21,4.22,6.26l32.46-1.66c11.12-.57,36.33,7.82,16.37,36.49,9.73-20.21-8.19-21.07-32.69-19.82-6.28.32-12.57.6-18.86.87h0c-.69.78-1.46,1.55-2.3,2.31-8.92,7.97-20.21,12.46-29.9,28.93-2.29-10.57-8.14-20.42-14.94-28.71h0ZM327.92,107.92c2.06-2.96,4.24-5.94,6.1-8.88-2.65,10.48,5.26,16.14,10.2,23.8,1.27,1.97,1.33,4.33.15,6.36-2.64,4.56-4.81,9.86-7.46,14.42,4.88-14.34-2.57-21.27-8.61-28.24-1.85-2.13-2.01-5.14-.4-7.46h0ZM327.92,107.92"/>
      <path class="cls-4" d="M325.68,185c56.89,96.44-60.5,244.24-167.32,241.73-113.08-2.65-116.83-144.89-41.59-204.54,33.58-26.63,112.92-66.13,146.14-94.11,14.42-17.24,10.51-29.92,20.09-29.3,3.61,3.14,4.89,12.99-19.74,30.54-22.13,17.22-76.24,49.93-103.69,68.23-126.26,84.19-67.69,195.18-15.95,204.75,95.48,17.65,182.82-89.21,177.33-164.63-7.5-102.98-102.54-83.34-160.64-57.82,30.74-27.5,132.07-51.28,165.36,5.16h0ZM325.68,185"/>
      <g class="cls-6">
        <path class="cls-1" d="M316.14,135.37c-26.46,2.03-62.96,7.16-79.1,97.08-25.76,143.52,6.39,184.3-64.83,264.88,44.17-88.37,18.89-93.9,46.95-264.27,10.77-65.44,30.3-106.96,82.55-112.87,18.17-15.44,28.62-29.83,45.27-41-4.25,18.38,8.17,24.15,14.78,31.51,1.9,2.12,3.3,4.21,4.22,6.26l32.46-1.66c11.12-.57,36.33,7.82,16.37,36.49,9.73-20.21-8.19-21.07-32.69-19.82-6.28.32-12.57.6-18.86.87h0c-.69.78-1.46,1.55-2.3,2.31-8.92,7.97-20.21,12.46-29.9,28.93-2.29-10.57-8.14-20.42-14.94-28.71h0ZM327.92,107.92c2.06-2.96,4.24-5.94,6.1-8.88-2.65,10.48,5.26,16.14,10.2,23.8,1.27,1.97,1.33,4.33.15,6.36-2.64,4.56-4.81,9.86-7.46,14.42,4.88-14.34-2.57-21.27-8.61-28.24-1.85-2.13-2.01-5.14-.4-7.46h0ZM327.92,107.92"/>
      </g>
    </g>
  </g>
</svg>